<svg xmlns="http://www.w3.org/2000/svg" xmlns:xlink="http://www.w3.org/1999/xlink" width="1030" height="327.318" viewBox="0 0 1030 327.318">
  <defs>
    <linearGradient id="linear-gradient" x1="-0.006" y1="0.956" x2="0.978" y2="0.092" gradientUnits="objectBoundingBox">
      <stop offset="0" stop-color="#f6f4fe"/>
      <stop offset="0.516" stop-color="#e4defb"/>
      <stop offset="1" stop-color="#f6f4fe"/>
    </linearGradient>
    <clipPath id="clip-path">
      <rect id="Rectángulo_402134" data-name="Rectángulo 402134" width="974.398" height="327.318" rx="20" transform="translate(0)" opacity="0.38" fill="url(#linear-gradient)"/>
    </clipPath>
    <clipPath id="clip-path-2">
      <path id="Trazado_878018" data-name="Trazado 878018" d="M0,0,593.157,64.117l61.509,640.053L61.509,640.052Z" fill="#ac9afc"/>
    </clipPath>
    <clipPath id="clip-path-3">
      <path id="Trazado_878018-2" data-name="Trazado 878018" d="M10.221,10.9,651.433-5.322,636.275,581-4.937,597.214Z" fill="#ac9afc"/>
    </clipPath>
    <linearGradient id="linear-gradient-2" x1="0.757" y1="0.582" x2="0.018" y2="1.051" gradientUnits="objectBoundingBox">
      <stop offset="0" stop-color="#ac9afc"/>
      <stop offset="1" stop-color="#ded6fd"/>
    </linearGradient>
    <linearGradient id="linear-gradient-3" y1="0.436" x2="1.139" y2="0.428" gradientUnits="objectBoundingBox">
      <stop offset="0" stop-color="#87de87"/>
      <stop offset="1" stop-color="#567d56"/>
    </linearGradient>
    <linearGradient id="linear-gradient-4" y1="0.436" x2="1.139" y2="0.428" gradientUnits="objectBoundingBox">
      <stop offset="0" stop-color="#ac9afc"/>
      <stop offset="1" stop-color="#7b6eb4"/>
    </linearGradient>
    <linearGradient id="linear-gradient-6" y1="0.436" x2="1.139" y2="0.428" gradientUnits="objectBoundingBox">
      <stop offset="0" stop-color="#fcc59a"/>
      <stop offset="1" stop-color="#af886b"/>
    </linearGradient>
    <clipPath id="clip-path-4">
      <rect id="Rectángulo_401216" data-name="Rectángulo 401216" width="21.329" height="18.792" fill="none" stroke="#567d56" stroke-width="1"/>
    </clipPath>
  </defs>
  <g id="img-1" transform="translate(12346.051 6446.411)">
    <g id="Enmascarar_grupo_1098810" data-name="Enmascarar grupo 1098810" transform="translate(-12326.051 -6446.411)" opacity="0.17" clip-path="url(#clip-path)">
      <g id="Rectángulo_402182" data-name="Rectángulo 402182" transform="translate(-28.573 -11.092)" fill="#e8e8e8" stroke="#707070" stroke-width="1">
        <rect width="1002.971" height="531.41" stroke="none"/>
        <rect x="0.5" y="0.5" width="1001.971" height="530.41" fill="none"/>
      </g>
      <rect id="Rectángulo_402133" data-name="Rectángulo 402133" width="519.586" height="482.117" transform="translate(0 15.832)" fill="#e6f8e6" opacity="0.38"/>
      <g id="Grupo_1101058" data-name="Grupo 1101058" transform="translate(288.495 780.58) rotate(-150)" opacity="0.25" style="isolation: isolate">
        <g id="Grupo_1101057" data-name="Grupo 1101057" clip-path="url(#clip-path-2)">
          <path id="Trazado_878017" data-name="Trazado 878017" d="M534.054,140.039c-5.7-29.457-10.49-59.559-30.008-84.452-6.721,30.961-21.1,57.2-35.83,83.432a1114.521,1114.521,0,0,1-64.53,102.17c-45.553,64.059-99.225,117.1-154.795,169.793-9.692,9.159-28.347-12.067-19.24-22.216C279.432,333,322.416,268.475,363.857,204.292c20.885-32.336,40.922-65.506,59.752-99.617,14.632-26.5,27.781-54.03,46.889-76.018-16.6-7.622-34.333-9.562-51.983-10.742q-31.034-1.994-62.045-3.586a610.784,610.784,0,0,0-148.3-11.651c-8.37.378-14.182,3.609-18.037,8.4-30.11,16.474-17.415,78.031,27.552,88.625q28.264,6.61,56.53,13.271C194.495,148.51,121.776,197.564,57.133,259.31,27.852,287.3,67.49,342.654,102.69,338.986A675.128,675.128,0,0,0,177.483,326.9,2272.633,2272.633,0,0,0,12.961,529.006c-26.3,36.326,16.429,98.642,56.6,78.34C164.731,559.161,248.812,493.62,322.747,415.84c-9.663,41.268-18.04,83.145-24.685,125.749-4.855,30.772,26.014,70.384,54.953,62.269,69.185-19.509,82.675-132.268,90.753-207.942a404.822,404.822,0,0,0,15.783,64.245c12.314,36.5,49.663,49.081,71.091,28.763,78.478-74.508,24.834-238.449,3.412-348.885M215.106,240.131a230.275,230.275,0,0,0-43.84,23.633c-12.654,8.878-28.421-14.315-17.14-24.706a160.107,160.107,0,0,1,46.865-30.544,144.769,144.769,0,0,1,25.1-8.241c9.485-2.088,19.961-4.9,30.124-4.244,4.3.3,9.819,2.54,12.573,7.362,2.309,4.055,3.451,7.072,3.451,11.346A11.167,11.167,0,0,1,264.9,225.42c-8.243,2.785-17.344,3.741-25.733,6.35-8.124,2.5-16.246,5.111-24.062,8.361M395.032,403.592c.187,3.61.33,7.161.427,10.707.375,13.927.159,27.661-.6,41.3-.324,5.714-5.146,9.948-10.64,8.161a14.612,14.612,0,0,1-9.609-13.889q.689-20.016-.292-40.4l-.388-7.37c-.006-.1-.083-.756-.109-1.209s-.139-1.81-.147-1.963c-.037-.751-.078-1.5-.162-2.262-.232-2.673-.69-5.479-.242-7.941.129-.971.433-1.967.562-2.943,0-.047.012-.593,0-.943-.043-1.647.046-3.323.094-4.956.015-3.972.01-7.453,1.346-10.961,1.688-4.4,8.393-5.893,11.686-.137A31.9,31.9,0,0,1,390,374.891c.591,1.886.918,3.877,1.331,5.783s.78,3.807,1.15,5.7c.117.568.239,1.183.361,1.8.053.158.363.954.472,1.369,1.581,4.582,1.48,9.436,1.722,14.045m114.324-130.45a11.556,11.556,0,0,1-.245,1.252c-.077.285-.1.63-.176.916l-.038.145a9.313,9.313,0,0,1-4.709,6.389,9.726,9.726,0,0,1-7.972.292,4.225,4.225,0,0,1-.728-.266c-.5-.23-.955-.354-1.461-.584a16.913,16.913,0,0,1-5.774-3.721c-.7-.714-1.326-1.461-2.121-2.138a32.178,32.178,0,0,1-3.828-4.051c-.523-.631-1.051-1.314-1.574-1.946a27.978,27.978,0,0,1-2.412-3.424c-2.259-3.9-5.075-8.28-6.807-12.339-2.85-6.678-5.9-13.734-7.2-20.7-1.073-5.99,1.273-11.426,5.615-13.749,4.3-2.284,10.2-1.275,14.661,2.93,5.258,4.933,9.567,11.346,13.722,17.392,2.465,3.583,4.488,8.134,6.567,12a38.02,38.02,0,0,1,3.833,11.806,22.9,22.9,0,0,0,.647,2.936,16.665,16.665,0,0,1,0,6.859" transform="translate(51.898 33.258)" fill="#ac9afc"/>
        </g>
      </g>
      <g id="Grupo_1101141" data-name="Grupo 1101141" transform="matrix(-0.454, 0.891, -0.891, -0.454, 1284.938, -153.66)" opacity="0.25" style="isolation: isolate">
        <g id="Grupo_1101057-2" data-name="Grupo 1101057" transform="translate(0 0)" clip-path="url(#clip-path-3)">
          <path id="Trazado_878017-2" data-name="Trazado 878017" d="M628.737,94.98c-2.439-26.618-3.809-53.95-21.971-74.566-11.35,29.6-30.473,55.794-49.987,82.026-26.384,35.475-54.187,69.9-83.828,103.086-58.136,65.284-123.742,121.38-191.38,177.387-11.793,9.74-29.483-7.582-18.2-18.166,61.7-58.124,117.079-123.513,170.729-188.386,27.036-32.685,53.251-66.036,78.267-100.105C531.8,49.789,549.746,22.551,573.5-.3c-17.2-4.955-36.361-4.492-55.534-3.334Q484.247-1.524,450.5.957c-53.087-3-106.679-.142-160.881,8.121-9.214,1.42-15.994,5.162-20.832,10.1-35.093,19.138-29.127,74.661,18.743,78.754q30.1,2.527,60.187,5.1A1194.017,1194.017,0,0,0,91.157,266.6c-35.67,29.723.6,76.047,39.611,68.147q42.293-8.591,83.453-20.77Q106.322,413.744,8.025,522.6c-33.481,37.08,5.274,89.473,51.878,65.5,110.415-56.882,210.928-128.462,301.91-210.106-15.9,39.544-30.47,79.488-43.239,119.887-9.283,29.186,19.411,62.017,52.144,50.788,78.269-26.944,107.576-133.343,126.175-204.624a277.723,277.723,0,0,0,9,57.624c8.778,32.307,48.052,39.222,74.134,17.624,95.533-79.188,57.93-224.527,48.71-324.312M266.6,228.623a363.242,363.242,0,0,0-51.049,27.537c-15,9.857-29.274-9.66-15.582-20.747a250.922,250.922,0,0,1,55.252-34.339,223.436,223.436,0,0,1,28.544-10.855c10.655-3.149,22.489-7.1,33.532-7.787,4.671-.27,10.424,1.1,12.818,5.229,2.005,3.469,2.867,6.124,2.316,10.092-.708,4.8-4.72,9.062-9.412,10.856-9.385,3.638-19.473,5.687-28.994,9.18-9.218,3.362-18.447,6.819-27.424,10.834m175.939,128.77c-.261,3.327-.562,6.605-.912,9.884-1.384,12.881-3.392,25.658-5.98,38.418-1.091,5.345-6.916,9.892-12.7,8.935-5.781-1-9.761-5.9-8.731-11.666q3.335-18.67,4.889-37.471l.525-6.793c.006-.091.007-.691.036-1.108s.081-1.662.092-1.8c.056-.692.108-1.385.114-2.079.09-2.451-.049-5,.759-7.341.267-.918.728-1.881.995-2.8,0-.043.09-.552.117-.875.165-1.523.478-3.091.742-4.613.528-3.689.972-6.92,2.886-10.347,2.415-4.3,9.95-6.543,12.813-1.619a20.274,20.274,0,0,1,2.543,5.283,45.432,45.432,0,0,1,.712,5.2c.206,1.717.363,3.435.523,5.149.055.512.109,1.068.163,1.624.038.14.274.84.341,1.211,1.14,4.052.4,8.571.075,12.819m142-135.7a11.322,11.322,0,0,1-.429,1.194c-.121.274-.194.6-.311.872l-.061.139a12.694,12.694,0,0,1-5.979,6.533,13.116,13.116,0,0,1-8.766,1.289,4.274,4.274,0,0,1-.763-.154c-.52-.15-1-.206-1.524-.356a14.017,14.017,0,0,1-5.843-2.717,23.333,23.333,0,0,0-2.047-1.714,22.131,22.131,0,0,1-3.669-3.271c-.491-.519-.981-1.086-1.473-1.605a18.038,18.038,0,0,1-2.2-2.871c-1.971-3.329-4.49-7.038-5.863-10.585-2.259-5.836-4.688-12-5.216-18.3-.4-5.423,2.867-10.77,7.92-13.48,5-2.67,11.332-2.486,15.675.848,5.122,3.908,9.012,9.312,12.782,14.393,2.237,3.011,3.865,6.978,5.643,10.3a25.213,25.213,0,0,1,2.675,10.47,15.9,15.9,0,0,0,.33,2.643,13.774,13.774,0,0,1-.882,6.367" transform="translate(0.734 1.972)" fill="#ac9afc"/>
        </g>
      </g>
      <path id="Trazado_878245" data-name="Trazado 878245" d="M1150.146,1107.219c10.505,9.967,21.644,19.489,35.182,22.27,9.644,1.981,17.7,2.246,27.326-.349,4.31-1.162,8.6-3.581,12.512-5.907a45.392,45.392,0,0,0,7.571-6.244c9-8.426,16.366-31.216,30.356-20.9,6.449,4.755,11.647,12.068,18.057,17.064a96.419,96.419,0,0,0,25.638,14.329,42.608,42.608,0,0,0,6.8,1.88c4.755.919,10.179,2.106,15.137,1.7,9.5-.775,19.431-3.276,27.432-9.934a68.783,68.783,0,0,0,18.3-22.885c2.611-5.183,3.46-13.36,8.269-16.293,7.031-4.287,10.889,4.967,14.325,10.4a70.392,70.392,0,0,0,17.653,19.435c8.553,6.228,17.288,8.206,27.036,9.381a61.213,61.213,0,0,0,12.654.325c8.979-.8,16.365-2.518,24.351-7.623a39.1,39.1,0,0,0,9.353-8.532c5.379-6.772,7.268-12.007,10.007-20.615a34.635,34.635,0,0,0,.547-15.187,32.6,32.6,0,0,0-3.754-14.155c-3.834-7.895-11.337-15.418-18.851-17.476a29.886,29.886,0,0,0-19.029.763c-3.97,1.55-8.166,5.438-12.227,2.489-5.622-4.082-6.176-17.31-9.006-23.644a99.128,99.128,0,0,0-12.656-20.824c-4.756-6.005-10.539-11.449-16.819-14.914-8.847-4.882-18.2-8.586-28.128-7.62-9.188.894-18.613,3.368-26.231,10.067-7.346,6.461-13.264,13.336-17.893,22.968a112.726,112.726,0,0,0-7.646,22.317c-1.352,5.645-.92,14.821-6.627,16.892-10.041,3.643-16.7-18.949-21.591-25.945-2.677-3.829-6.268-6.771-9.571-9.686a26.151,26.151,0,0,0-4.547-3.238c-5.223-2.928-10.425-5.7-16.124-6.728-5.926-1.073-11.62-2.205-17.564-1.346-4.092.592-8.337,1.021-12.341,2.347a66.4,66.4,0,0,0-11.57,5.6,26.1,26.1,0,0,0-3.921,2.719,59.254,59.254,0,0,0-9.471,9.275c-3.83,5.12-6.614,11.143-10.354,16.3-2.688,3.7-5.949,10.2-9.36,12.643-3.357,2.408-5.819-1.712-8.859-2.9a20.422,20.422,0,0,0-12.145-3.263,29.559,29.559,0,0,0-22.272,11.186c-5.506,7.266-9.589,16.8-9.2,26.943.358,9.388,2.845,20.833,9.258,26.917" transform="translate(-718.88 -677.427)" fill="url(#linear-gradient-2)"/>
    </g>
    <path id="Trazado_878222" data-name="Trazado 878222" d="M1782.687,514.763a14.124,14.124,0,0,0-3.673-3.593c-3.881-2.626-8.937-3.1-12.311.606-1.371,1.506-2.408,3.293-3.8,4.781a11.891,11.891,0,0,0-3.439,5.925,9.623,9.623,0,0,0,1.464,6.859c3.355,5,10.977,5.461,16.11,3.317a13.694,13.694,0,0,0,2.107-1.1,12.094,12.094,0,0,0,5.6-8.095,11.766,11.766,0,0,0-2.059-8.705m-6.085,8.183a3.68,3.68,0,0,1-.7,1.642,5.608,5.608,0,0,1-3.041,1.937,4.423,4.423,0,0,1-4.109-.681,3.525,3.525,0,0,1-1.092-2.539c-.039-2.291,2.046-5.137,4.4-5.441a3.545,3.545,0,0,1,2.016.4,4.634,4.634,0,0,1,2.529,4.682" transform="translate(-14101.254 -6860.475)" fill="#567d56"/>
    <path id="Trazado_878246" data-name="Trazado 878246" d="M23.347,5.665a14.124,14.124,0,0,0-3.673-3.593c-3.881-2.626-8.937-3.1-12.311.606C5.992,4.185,4.955,5.972,3.565,7.46A11.891,11.891,0,0,0,.126,13.385a9.623,9.623,0,0,0,1.464,6.859c3.355,5,10.977,5.461,16.11,3.317a13.694,13.694,0,0,0,2.107-1.1,12.094,12.094,0,0,0,5.6-8.095,11.766,11.766,0,0,0-2.059-8.705m-6.085,8.183a3.68,3.68,0,0,1-.7,1.642,5.608,5.608,0,0,1-3.041,1.937,4.423,4.423,0,0,1-4.109-.681,3.525,3.525,0,0,1-1.092-2.539c-.039-2.291,2.046-5.137,4.4-5.441a3.545,3.545,0,0,1,2.016.4,4.634,4.634,0,0,1,2.529,4.682" transform="matrix(-0.899, 0.438, -0.438, -0.899, -12312.22, -6303.454)" fill="#fcc59a"/>
    <g id="Grupo_1101140" data-name="Grupo 1101140" transform="translate(-11389.738 -6427.442)">
      <ellipse id="Elipse_11585" data-name="Elipse 11585" cx="30.947" cy="31.62" rx="30.947" ry="31.62" transform="translate(0.13 1.4)" fill="#fff"/>
      <ellipse id="Elipse_11586" data-name="Elipse 11586" cx="10.091" cy="10.091" rx="10.091" ry="10.091" transform="translate(13.585 21.583)" fill="#d8f263"/>
      <g id="Grupo_1101139" data-name="Grupo 1101139" transform="matrix(-0.966, 0.259, -0.259, -0.966, 73.687, 41.969)">
        <path id="Trazado_878224" data-name="Trazado 878224" d="M53.691,19.806c-8.205-3-16.949-8.143-25.861-5.011-5.719,1.94-10.349,6.141-14.084,10.781-1.89,2.334-3.685,4.748-5.572,7.1-.973,1.191-2.112,2.455-3.741,2.7C-.251,35.7-.434,26.7.36,23.587a25.438,25.438,0,0,1,2.847-7.407C12.469-.029,32.875-4.5,48.731,4.766a35.309,35.309,0,0,1,9.518,8.154c.181,2.83-.435,8.454-4.558,6.886m.076-.208c4.115,1.485,4.188-4.377,4.169-6.551A37.055,37.055,0,0,0,34.754.553,32.408,32.408,0,0,0,4.088,15.387c-3.023,4.992-4.845,11.4-2.731,17.052.473,1.286,1.518,2.633,3.011,2.418,1.42-.238,2.474-1.453,3.355-2.538,5.5-6.974,11.265-14.8,20-17.844,9-3.267,17.809,2.028,26.045,5.122" transform="translate(0)" fill="#567d56"/>
        <path id="Trazado_878225" data-name="Trazado 878225" d="M44.553,1.7c-5.7-1.321-11.669-2.4-17.04.633A23.507,23.507,0,0,0,23.89,4.772a74.9,74.9,0,0,0-9.657,8.906A69.351,69.351,0,0,0,7.6,22.405c-.824,1.216-1.779,2.629-3.355,2.909A3.557,3.557,0,0,1,.609,22.972c-1.767-4.885.518-10.839,4.181-14.256a.111.111,0,0,1,.155.159,15.944,15.944,0,0,0-4.4,11.864c-.019,2.011,1.338,4.527,3.632,4.188,1.422-.272,2.275-1.633,3.028-2.779a78.762,78.762,0,0,1,6.735-8.731c3.921-4.353,8.14-8.688,13.428-11.358A18.5,18.5,0,0,1,40.306.5c1.449.269,2.877.618,4.3.986a.111.111,0,0,1-.051.216" transform="translate(8.384 18.097)" fill="#567d56"/>
        <path id="Trazado_878226" data-name="Trazado 878226" d="M1.334,18.518c-.127,2.175-1.485,4.194-.789,6.341a2.258,2.258,0,0,0,3.088,1.7C4.92,25.926,5.662,24.579,6.41,23.4c1.18-1.843,2.371-3.675,3.61-5.482,4.6-6.494,8.6-8.66,16.341-9.994a45.833,45.833,0,0,1,6.563-.58,13.619,13.619,0,0,1,4.255,1.2,15.033,15.033,0,0,0,1.936.951c2.306.827,3.589-1.984,2.577-3.809a9.221,9.221,0,0,0-2.857-3.091,15.818,15.818,0,0,0-3.6-2.372c-.138-.045-.045-.262.081-.206a14.749,14.749,0,0,1,3.769,2.252c1.721,1.224,3.806,3.062,3.453,5.472a2.693,2.693,0,0,1-2.4,2.317c-1.161.043-2.159-.719-3.12-1.175A10.48,10.48,0,0,0,31.838,7.81l-1.085.1c-3.537.386-7.322.588-10.628,2a18.784,18.784,0,0,0-3.783,2.044c-2.384,1.655-4.1,4.036-5.886,6.289A81.785,81.785,0,0,0,5.47,25.4C2.933,28.893-.577,26.581.081,22.73c.243-1.469.877-2.8,1.033-4.231a.111.111,0,0,1,.221.019" transform="translate(22.065 12.203)" fill="#567d56"/>
        <path id="Trazado_878227" data-name="Trazado 878227" d="M.024,28.05a24.466,24.466,0,0,1,4.32-14.343A30.725,30.725,0,0,1,30.2,0,34.528,34.528,0,0,1,44.963,3.281a.126.126,0,0,1-.1.23A38.916,38.916,0,0,0,30.2.589a31.983,31.983,0,0,0-14.49,3.382C6.906,8.45-.124,17.883.275,28.032a.125.125,0,1,1-.25.018" transform="translate(2.922 6.506)" fill="#567d56"/>
        <path id="Trazado_878228" data-name="Trazado 878228" d="M.012,24.591A25.4,25.4,0,0,1,9.95,3.575,21.67,21.67,0,0,1,17.137,0a.126.126,0,0,1,.079.238,29.529,29.529,0,0,0-6.914,3.8A24.5,24.5,0,0,0,.263,24.583a.126.126,0,1,1-.251.009" transform="translate(11.53 18.003)" fill="#567d56"/>
        <path id="Trazado_878229" data-name="Trazado 878229" d="M0,20.761A29.426,29.426,0,0,1,13.155,2.717,22.673,22.673,0,0,1,20.276,0a.126.126,0,0,1,.061.243A29.141,29.141,0,0,0,3.012,13.816,28.892,28.892,0,0,0,.247,20.823.126.126,0,1,1,0,20.761" transform="translate(24.075 18.156)" fill="#567d56"/>
        <path id="Trazado_878230" data-name="Trazado 878230" d="M.859,1.778A.89.89,0,0,0,.859,0a.89.89,0,0,0,0,1.778" transform="translate(50.288 16.077)" fill="#567d56"/>
        <path id="Trazado_878231" data-name="Trazado 878231" d="M.859,1.778A.89.89,0,0,0,.859,0a.89.89,0,0,0,0,1.778" transform="translate(47.82 14.311)" fill="#567d56"/>
        <path id="Trazado_878232" data-name="Trazado 878232" d="M.859,1.778A.89.89,0,0,0,.859,0a.89.89,0,0,0,0,1.778" transform="translate(49.429 13.734)" fill="#567d56"/>
        <path id="Trazado_878233" data-name="Trazado 878233" d="M.859,1.778A.89.89,0,0,0,.859,0a.89.89,0,0,0,0,1.778" transform="translate(4.501 30.243)" fill="#567d56"/>
        <path id="Trazado_878234" data-name="Trazado 878234" d="M.859,1.778A.89.89,0,0,0,.859,0a.89.89,0,0,0,0,1.778" transform="translate(4.274 27.281)" fill="#567d56"/>
        <path id="Trazado_878235" data-name="Trazado 878235" d="M.859,1.778A.89.89,0,0,0,.859,0a.89.89,0,0,0,0,1.778" transform="translate(6.501 27.336)" fill="#567d56"/>
        <path id="Trazado_878236" data-name="Trazado 878236" d="M.859,1.778A.89.89,0,0,0,.859,0a.89.89,0,0,0,0,1.778" transform="translate(20.041 29.45)" fill="#567d56"/>
        <path id="Trazado_878237" data-name="Trazado 878237" d="M.859,1.778A.89.89,0,0,0,.859,0a.89.89,0,0,0,0,1.778" transform="translate(20.811 26.04)" fill="#567d56"/>
        <path id="Trazado_878238" data-name="Trazado 878238" d="M.859,1.778A.89.89,0,0,0,.859,0a.89.89,0,0,0,0,1.778" transform="translate(23.319 25.443)" fill="#567d56"/>
        <path id="Trazado_878239" data-name="Trazado 878239" d="M.859,1.778A.89.89,0,0,0,.859,0a.89.89,0,0,0,0,1.778" transform="translate(26.722 33.779)" fill="#567d56"/>
        <path id="Trazado_878240" data-name="Trazado 878240" d="M.859,1.778A.89.89,0,0,0,.859,0a.89.89,0,0,0,0,1.778" transform="translate(27.416 31.696)" fill="#567d56"/>
        <path id="Trazado_878241" data-name="Trazado 878241" d="M1.458,2.638A1.793,1.793,0,0,0,.609.734,4.18,4.18,0,0,1,.038.243a.14.14,0,0,1,.006-.2C.681-.175,1.285.454,1.516.991A3.2,3.2,0,0,1,1.7,2.69a.126.126,0,1,1-.246-.051" transform="translate(61.27 16.806)" fill="#567d56"/>
        <path id="Trazado_878242" data-name="Trazado 878242" d="M.835,1.435C.926,1.034.557.758.259.588A.691.691,0,0,1,.011.267C-.084-.072.464-.045.606.11a1.779,1.779,0,0,1,.48,1.347.127.127,0,1,1-.251-.022" transform="translate(61.037 17.594)" fill="#567d56"/>
        <path id="Trazado_878243" data-name="Trazado 878243" d="M.026,8.4C2.521,5.062,5.413,1.677,9.332.01a.127.127,0,0,1,.122.22C6.925,2.066,4.278,3.751,2.175,6.092A22.845,22.845,0,0,0,.232,8.545C.144,8.682-.075,8.536.026,8.4" transform="translate(6.779 6.009)" fill="#567d56"/>
        <path id="Trazado_878244" data-name="Trazado 878244" d="M.034,4.122C1.512,2.605,2.767.332,5.057,0A.13.13,0,0,1,5.2.119.132.132,0,0,1,5.14.237c-.452.312-.895.57-1.337.852a13.952,13.952,0,0,0-3.578,3.2c-.1.13-.306-.04-.19-.164" transform="translate(9.836 8.652)" fill="#567d56"/>
      </g>
    </g>
    <path id="Trazado_878023" data-name="Trazado 878023" d="M16.819,12.582A9.167,9.167,0,0,0,14.4,1.984,8.612,8.612,0,0,0,9.14,0,9.718,9.718,0,0,0,3.64,1.49C.563,3.432-1.22,7.942.973,11.4A6.49,6.49,0,0,0,6.146,14.4a6.6,6.6,0,0,0,5.356-2.29,4.685,4.685,0,0,0,.141-5.839A4.509,4.509,0,0,0,8.7,4.537,3.383,3.383,0,0,0,5.56,5.867a3.133,3.133,0,0,0-.592,1.649A1.749,1.749,0,0,0,6.475,9.3,1.516,1.516,0,0,0,8.2,7.939a.573.573,0,0,1,.008-.112c0-.012,0-.025,0-.037q-.028.126-.056.252c-.021-.06.06-.184.079-.243,0-.012.033-.1.045-.1.047-.01-.22.328-.1.209.022-.022.122-.212.153-.2S8,8,8.195,7.845c.029-.023.056-.048.084-.071.057-.046.124-.082.181-.128.121-.1-.2.14-.191.11a.394.394,0,0,1,.1-.046.98.98,0,0,0,.1-.041c.228-.105-.281.037-.142.032a1.205,1.205,0,0,0,.223-.029c.163-.043-.258.024-.224,0a.378.378,0,0,1,.114.01c.052.009.106.019.158.025.159.019-.207-.041-.2-.057s.255.086.278.1c.077.031.15.067.224.1.185.086-.338-.218-.178-.095.031.024.068.043.1.066.066.045.125.1.19.144.2.146-.287-.315-.066-.061.06.069.122.136.177.209.024.03.044.067.07.094.121.131-.154-.224-.121-.2.119.1.182.356.243.488.109.238-.089-.351-.029-.1.018.076.04.15.055.227s.029.179.043.268c.05.318.009-.29,0-.057-.011.168-.031.334-.042.5-.01.141.04-.205.044-.208-.012.006-.026.1-.03.112-.025.087-.054.173-.087.257-.024.059-.177.365-.036.1s-.005,0-.04.059a4.2,4.2,0,0,1-.318.45q-.074.091-.152.178a.512.512,0,0,0-.08.086c-.008.018.273-.265.153-.16-.138.12-.269.243-.415.353-.079.06-.4.2-.42.283,0,.007.316-.171.183-.1l-.1.055c-.081.042-.164.081-.247.119a5.074,5.074,0,0,1-.476.184c-.075.025-.15.046-.226.069-.237.071.157-.047.165-.042-.018-.011-.132.029-.154.033q-.232.046-.47.072c-.092.01-.184.017-.277.022l-.119,0c-.216.014.146.008.175,0a3.191,3.191,0,0,1-1.03-.124c-.251-.049.388.122.062.013-.077-.026-.154-.049-.23-.077-.179-.065-.348-.149-.523-.227-.154-.069.223.132.207.118a.689.689,0,0,0-.107-.063q-.126-.075-.245-.158c-.152-.105-.29-.225-.435-.34s.192.177.164.158a.993.993,0,0,1-.123-.124q-.093-.1-.18-.2A5.58,5.58,0,0,1,3.6,9.754c.009-.006.188.317.117.179C3.7,9.9,3.678,9.86,3.658,9.824Q3.6,9.714,3.544,9.6t-.1-.226c-.021-.05-.039-.1-.059-.152-.088-.214.066.146.051.162.006-.006-.206-1.032-.195-1.028s.015.352.013.205c0-.04,0-.08,0-.12,0-.094,0-.188,0-.281.006-.188.022-.376.046-.561.011-.08.023-.16.037-.239a.893.893,0,0,0,.022-.119s-.078.343-.041.2c.047-.182.091-.364.149-.543a8.451,8.451,0,0,1,.391-.959c.072-.157-.115.224-.1.192A1.03,1.03,0,0,1,3.828,6q.057-.1.12-.2.143-.23.307-.446.14-.185.294-.359c.046-.052.28-.3.066-.078s.024-.02.076-.069a6.881,6.881,0,0,1,.789-.636c.14-.1.285-.184.429-.276s-.2.1-.182.1a.432.432,0,0,0,.1-.057c.093-.05.187-.1.282-.144a7.771,7.771,0,0,1,.958-.388c.141-.047.71-.183.183-.066.17-.038.339-.078.511-.109a7.884,7.884,0,0,1,1.083-.118c.037,0,.223.017.243-.006,0,0-.364-.007-.21,0L9,3.15q.284.01.568.041c.175.019.351.045.525.076.08.015.161.031.241.048l.12.027c.22.048-.149-.028-.173-.047a2.139,2.139,0,0,0,.512.159c.183.064.363.136.54.216.077.034.152.07.227.107s.338.18.067.029.031.02.1.062c.087.053.173.109.258.166q.236.16.457.339c.067.055.134.111.2.168l.1.087c.155.136-.277-.277-.137-.126a8.791,8.791,0,0,1,.744.874c.049.069.1.139.144.209.158.233-.189-.317-.049-.074.1.171.194.341.281.517s.154.33.223.5c.031.078.061.156.09.235l.042.118c.074.205-.033-.119-.05-.154a4.121,4.121,0,0,1,.256,1.1q.039.247.062.5c0,.041.008.083.011.124.024.259-.008-.157-.009-.157.03.026.008.247.008.29A7.763,7.763,0,0,1,14.29,9.64c-.013.095-.026.189-.042.283-.007.04-.016.08-.021.12-.023.149.036-.2.042-.2a4.909,4.909,0,0,1-.141.549,6.839,6.839,0,0,1-.376.971,1.575,1.575,0,0,0,.071,1.2,1.8,1.8,0,0,0,.94.878,1.58,1.58,0,0,0,2.057-.856" transform="matrix(0.809, 0.588, -0.588, 0.809, -11376.376, -6379.945)" fill="#ac9afc"/>
    <g id="Grupo_1101513" data-name="Grupo 1101513" transform="translate(-12192.313 -6395.122)">
      <rect id="Rectángulo_402181" data-name="Rectángulo 402181" width="233.475" height="85.959" rx="20" transform="translate(0 135.104)" fill="url(#linear-gradient-3)"/>
      <rect id="Rectángulo_402235" data-name="Rectángulo 402235" width="133" height="85.959" rx="20" transform="translate(257.924 135.104)" fill="url(#linear-gradient-4)"/>
      <rect id="Rectángulo_402332" data-name="Rectángulo 402332" width="155.051" height="85.959" rx="20" transform="translate(567.475 135.104)" fill="url(#linear-gradient-4)"/>
      <rect id="Rectángulo_402238" data-name="Rectángulo 402238" width="144.518" height="85.959" rx="20" transform="translate(403.957 135.104)" fill="url(#linear-gradient-6)"/>
      <rect id="Rectángulo_402180" data-name="Rectángulo 402180" width="222.475" height="73.959" rx="14" transform="translate(6 141.104)" fill="#fff"/>
      <rect id="Rectángulo_402236" data-name="Rectángulo 402236" width="122" height="73.959" rx="14" transform="translate(263.916 141.104)" fill="#fff"/>
      <rect id="Rectángulo_402333" data-name="Rectángulo 402333" width="144.051" height="73.959" rx="14" transform="translate(573.466 141.104)" fill="#fff"/>
      <rect id="Rectángulo_402239" data-name="Rectángulo 402239" width="133.518" height="73.959" rx="14" transform="translate(409.957 141.104)" fill="#fff"/>
      <rect id="Rectángulo_402234" data-name="Rectángulo 402234" width="220.665" height="40.37" rx="14" transform="translate(260.861)" fill="#87de87"/>
      <path id="Trazado_885342" data-name="Trazado 885342" d="M14.582,9.742H9.652v4.031h5.727V15H8.152V3.625H15.3V4.852H9.652V8.516h4.93Zm3.8-3.2.047,1.063a3.08,3.08,0,0,1,2.531-1.219q2.68,0,2.7,3.023V15H22.223V9.406A1.946,1.946,0,0,0,21.8,8.055a1.675,1.675,0,0,0-1.277-.437,2.086,2.086,0,0,0-1.234.375,2.546,2.546,0,0,0-.828.984V15H17.02V6.547ZM26.559,15V7.664H25.223V6.547h1.336V5.68a2.878,2.878,0,0,1,.727-2.1,2.745,2.745,0,0,1,2.055-.742,3.816,3.816,0,0,1,.992.132l-.078,1.165a4.151,4.151,0,0,0-.781-.07,1.41,1.41,0,0,0-1.086.411A1.669,1.669,0,0,0,28,5.653v.893h1.8V7.664H28V15Zm8.164.156a3.693,3.693,0,0,1-2.8-1.129,4.19,4.19,0,0,1-1.078-3.02v-.266a5.073,5.073,0,0,1,.48-2.246,3.748,3.748,0,0,1,1.344-1.547,3.378,3.378,0,0,1,1.871-.559,3.166,3.166,0,0,1,2.563,1.086,4.7,4.7,0,0,1,.914,3.109v.6H32.293a3,3,0,0,0,.73,2.02,2.3,2.3,0,0,0,1.777.77,2.517,2.517,0,0,0,1.3-.312,3.259,3.259,0,0,0,.93-.828l.883.688A3.55,3.55,0,0,1,34.723,15.156Zm-.18-7.578a1.928,1.928,0,0,0-1.469.637A3.1,3.1,0,0,0,32.34,10h4.234V9.891a2.753,2.753,0,0,0-.594-1.707A1.815,1.815,0,0,0,34.543,7.578Zm9.234.266a4.331,4.331,0,0,0-.711-.055A1.9,1.9,0,0,0,41.137,9v6H39.691V6.547H41.1l.023.977a2.251,2.251,0,0,1,2.016-1.133,1.477,1.477,0,0,1,.641.109Zm2.688-1.3.039.938a3.122,3.122,0,0,1,2.508-1.094A2.417,2.417,0,0,1,51.426,7.75a3.2,3.2,0,0,1,1.1-.984,3.242,3.242,0,0,1,1.6-.375q2.781,0,2.828,2.945V15H55.5V9.422a1.941,1.941,0,0,0-.414-1.355A1.823,1.823,0,0,0,53.7,7.617a1.917,1.917,0,0,0-1.336.48,1.949,1.949,0,0,0-.617,1.293V15H50.293V9.461a1.613,1.613,0,0,0-1.8-1.844,1.934,1.934,0,0,0-1.945,1.211V15H45.1V6.547Zm16.172,8.609a3.693,3.693,0,0,1-2.8-1.129,4.19,4.19,0,0,1-1.078-3.02v-.266a5.073,5.073,0,0,1,.48-2.246,3.748,3.748,0,0,1,1.344-1.547,3.378,3.378,0,0,1,1.871-.559A3.166,3.166,0,0,1,65.02,7.477a4.7,4.7,0,0,1,.914,3.109v.6H60.207a3,3,0,0,0,.73,2.02,2.3,2.3,0,0,0,1.777.77,2.517,2.517,0,0,0,1.3-.312,3.259,3.259,0,0,0,.93-.828l.883.688A3.55,3.55,0,0,1,62.637,15.156Zm-.18-7.578a1.928,1.928,0,0,0-1.469.637A3.1,3.1,0,0,0,60.254,10h4.234V9.891a2.753,2.753,0,0,0-.594-1.707A1.815,1.815,0,0,0,62.457,7.578Zm4.8,3.125a4.952,4.952,0,0,1,.922-3.129,3.137,3.137,0,0,1,4.766-.168V3h1.445V15H73.059l-.07-.906a2.943,2.943,0,0,1-2.414,1.063,2.887,2.887,0,0,1-2.395-1.2,5.008,5.008,0,0,1-.926-3.141Zm1.445.164a3.749,3.749,0,0,0,.594,2.25,1.92,1.92,0,0,0,1.641.813A2.108,2.108,0,0,0,72.941,12.7V8.813a2.125,2.125,0,0,0-1.992-1.2,1.929,1.929,0,0,0-1.656.82A4.128,4.128,0,0,0,68.7,10.867ZM81.848,15a3.036,3.036,0,0,1-.2-.891,3.225,3.225,0,0,1-2.406,1.047,2.984,2.984,0,0,1-2.051-.707,2.288,2.288,0,0,1-.8-1.793,2.39,2.39,0,0,1,1-2.051,4.733,4.733,0,0,1,2.824-.73h1.406V9.211A1.623,1.623,0,0,0,81.168,8a1.821,1.821,0,0,0-1.336-.449,2.108,2.108,0,0,0-1.3.391,1.151,1.151,0,0,0-.523.945H76.559a2,2,0,0,1,.449-1.223,3.066,3.066,0,0,1,1.219-.934,4.1,4.1,0,0,1,1.691-.344,3.342,3.342,0,0,1,2.289.73,2.635,2.635,0,0,1,.859,2.012v3.891a4.757,4.757,0,0,0,.3,1.852V15Zm-2.4-1.1a2.54,2.54,0,0,0,1.289-.352,2.127,2.127,0,0,0,.883-.914V10.9H80.488q-2.656,0-2.656,1.555a1.316,1.316,0,0,0,.453,1.063A1.742,1.742,0,0,0,79.449,13.9Zm5.531-3.2A4.952,4.952,0,0,1,85.9,7.574a3.137,3.137,0,0,1,4.766-.168V3h1.445V15H90.785l-.07-.906A2.943,2.943,0,0,1,88.3,15.156a2.887,2.887,0,0,1-2.395-1.2,5.008,5.008,0,0,1-.926-3.141Zm1.445.164a3.749,3.749,0,0,0,.594,2.25,1.92,1.92,0,0,0,1.641.813A2.108,2.108,0,0,0,90.668,12.7V8.813a2.125,2.125,0,0,0-1.992-1.2,1.929,1.929,0,0,0-1.656.82A4.128,4.128,0,0,0,86.426,10.867Zm11.438,4.289a3.693,3.693,0,0,1-2.8-1.129,4.19,4.19,0,0,1-1.078-3.02v-.266a5.073,5.073,0,0,1,.48-2.246,3.748,3.748,0,0,1,1.344-1.547,3.378,3.378,0,0,1,1.871-.559,3.166,3.166,0,0,1,2.563,1.086,4.7,4.7,0,0,1,.914,3.109v.6H95.434a3,3,0,0,0,.73,2.02,2.3,2.3,0,0,0,1.777.77,2.517,2.517,0,0,0,1.3-.312,3.259,3.259,0,0,0,.93-.828l.883.688A3.55,3.55,0,0,1,97.863,15.156Zm-.18-7.578a1.928,1.928,0,0,0-1.469.637A3.1,3.1,0,0,0,95.48,10h4.234V9.891a2.753,2.753,0,0,0-.594-1.707A1.815,1.815,0,0,0,97.684,7.578Zm10.07,5.18a1.064,1.064,0,0,0-.441-.91,4.249,4.249,0,0,0-1.539-.559,7.277,7.277,0,0,1-1.742-.562,2.479,2.479,0,0,1-.953-.781,1.869,1.869,0,0,1-.309-1.078,2.193,2.193,0,0,1,.879-1.758,3.432,3.432,0,0,1,2.246-.719,3.532,3.532,0,0,1,2.332.742,2.357,2.357,0,0,1,.895,1.9h-1.453a1.3,1.3,0,0,0-.5-1.023,1.888,1.888,0,0,0-1.27-.43,1.976,1.976,0,0,0-1.234.344,1.082,1.082,0,0,0-.445.9.877.877,0,0,0,.414.789,5.1,5.1,0,0,0,1.5.508,7.8,7.8,0,0,1,1.754.578,2.558,2.558,0,0,1,1,.809,1.988,1.988,0,0,1,.324,1.152,2.163,2.163,0,0,1-.906,1.816,3.8,3.8,0,0,1-2.352.684,4.257,4.257,0,0,1-1.8-.359,2.922,2.922,0,0,1-1.223-1,2.42,2.42,0,0,1-.441-1.395h1.445a1.5,1.5,0,0,0,.582,1.152,2.258,2.258,0,0,0,1.434.426,2.331,2.331,0,0,0,1.316-.332A1.02,1.02,0,0,0,107.754,12.758Zm11.375-4.914a4.331,4.331,0,0,0-.711-.055A1.9,1.9,0,0,0,116.488,9v6h-1.445V6.547h1.406l.023.977a2.251,2.251,0,0,1,2.016-1.133,1.477,1.477,0,0,1,.641.109Zm4.688,7.313a3.693,3.693,0,0,1-2.8-1.129,4.19,4.19,0,0,1-1.078-3.02v-.266a5.073,5.073,0,0,1,.48-2.246,3.748,3.748,0,0,1,1.344-1.547,3.378,3.378,0,0,1,1.871-.559A3.166,3.166,0,0,1,126.2,7.477a4.7,4.7,0,0,1,.914,3.109v.6h-5.727a3,3,0,0,0,.73,2.02,2.3,2.3,0,0,0,1.777.77,2.517,2.517,0,0,0,1.3-.312,3.259,3.259,0,0,0,.93-.828l.883.688A3.55,3.55,0,0,1,123.816,15.156Zm-.18-7.578a1.928,1.928,0,0,0-1.469.637A3.1,3.1,0,0,0,121.434,10h4.234V9.891a2.753,2.753,0,0,0-.594-1.707A1.815,1.815,0,0,0,123.637,7.578ZM130.355,15H128.91V3h1.445Zm7.531,0a3.036,3.036,0,0,1-.2-.891,3.225,3.225,0,0,1-2.406,1.047,2.984,2.984,0,0,1-2.051-.707,2.287,2.287,0,0,1-.8-1.793,2.39,2.39,0,0,1,1-2.051,4.733,4.733,0,0,1,2.824-.73h1.406V9.211A1.623,1.623,0,0,0,137.207,8a1.821,1.821,0,0,0-1.336-.449,2.107,2.107,0,0,0-1.3.391,1.151,1.151,0,0,0-.523.945H132.6a2,2,0,0,1,.449-1.223,3.066,3.066,0,0,1,1.219-.934,4.1,4.1,0,0,1,1.691-.344,3.342,3.342,0,0,1,2.289.73,2.635,2.635,0,0,1,.859,2.012v3.891a4.757,4.757,0,0,0,.3,1.852V15Zm-2.4-1.1a2.54,2.54,0,0,0,1.289-.352,2.127,2.127,0,0,0,.883-.914V10.9h-1.133q-2.656,0-2.656,1.555a1.316,1.316,0,0,0,.453,1.063A1.742,1.742,0,0,0,135.488,13.9Zm9.273.078a2.082,2.082,0,0,0,1.352-.469,1.649,1.649,0,0,0,.641-1.172h1.367a2.621,2.621,0,0,1-.5,1.383,3.293,3.293,0,0,1-1.23,1.047,3.55,3.55,0,0,1-1.629.391A3.482,3.482,0,0,1,142.016,14,4.59,4.59,0,0,1,141,10.852v-.242a5.089,5.089,0,0,1,.453-2.2,3.451,3.451,0,0,1,1.3-1.492,3.7,3.7,0,0,1,2-.531,3.39,3.39,0,0,1,2.363.852,3.043,3.043,0,0,1,1,2.211h-1.367a1.992,1.992,0,0,0-.621-1.348,1.932,1.932,0,0,0-1.379-.527,2.023,2.023,0,0,0-1.707.793,3.724,3.724,0,0,0-.605,2.293v.273a3.65,3.65,0,0,0,.6,2.25A2.033,2.033,0,0,0,144.762,13.977ZM151.316,15h-1.445V6.547h1.445ZM149.754,4.3a.863.863,0,0,1,.215-.594.807.807,0,0,1,.637-.242.819.819,0,0,1,.641.242.854.854,0,0,1,.219.594.826.826,0,0,1-.219.586.834.834,0,0,1-.641.234.821.821,0,0,1-.637-.234A.834.834,0,0,1,149.754,4.3Zm3.492,6.391a4.993,4.993,0,0,1,.488-2.234,3.642,3.642,0,0,1,1.359-1.531,3.7,3.7,0,0,1,1.988-.539,3.565,3.565,0,0,1,2.793,1.2,4.6,4.6,0,0,1,1.066,3.18v.1a5.036,5.036,0,0,1-.473,2.215,3.589,3.589,0,0,1-1.352,1.527,3.743,3.743,0,0,1-2.02.547,3.556,3.556,0,0,1-2.785-1.2,4.575,4.575,0,0,1-1.066-3.164Zm1.453.172a3.616,3.616,0,0,0,.652,2.258,2.211,2.211,0,0,0,3.5-.012A3.954,3.954,0,0,0,159.5,10.7a3.61,3.61,0,0,0-.66-2.254,2.1,2.1,0,0,0-1.754-.863,2.075,2.075,0,0,0-1.727.852A3.925,3.925,0,0,0,154.7,10.867Zm9.422-4.32.047,1.063A3.08,3.08,0,0,1,166.7,6.391q2.68,0,2.7,3.023V15h-1.445V9.406a1.946,1.946,0,0,0-.418-1.352,1.675,1.675,0,0,0-1.277-.437,2.086,2.086,0,0,0-1.234.375,2.546,2.546,0,0,0-.828.984V15h-1.445V6.547ZM176.8,15a3.036,3.036,0,0,1-.2-.891,3.225,3.225,0,0,1-2.406,1.047,2.984,2.984,0,0,1-2.051-.707,2.287,2.287,0,0,1-.8-1.793,2.39,2.39,0,0,1,1-2.051,4.733,4.733,0,0,1,2.824-.73h1.406V9.211A1.623,1.623,0,0,0,176.121,8a1.821,1.821,0,0,0-1.336-.449,2.107,2.107,0,0,0-1.3.391,1.151,1.151,0,0,0-.523.945h-1.453a2,2,0,0,1,.449-1.223,3.066,3.066,0,0,1,1.219-.934,4.1,4.1,0,0,1,1.691-.344,3.342,3.342,0,0,1,2.289.73,2.635,2.635,0,0,1,.859,2.012v3.891a4.757,4.757,0,0,0,.3,1.852V15Zm-2.4-1.1a2.54,2.54,0,0,0,1.289-.352,2.127,2.127,0,0,0,.883-.914V10.9h-1.133q-2.656,0-2.656,1.555a1.316,1.316,0,0,0,.453,1.063A1.742,1.742,0,0,0,174.4,13.9Zm5.531-3.2a4.952,4.952,0,0,1,.922-3.129,3.137,3.137,0,0,1,4.766-.168V3h1.445V15h-1.328l-.07-.906a2.943,2.943,0,0,1-2.414,1.063,2.887,2.887,0,0,1-2.395-1.2,5.008,5.008,0,0,1-.926-3.141Zm1.445.164a3.749,3.749,0,0,0,.594,2.25,1.919,1.919,0,0,0,1.641.813,2.108,2.108,0,0,0,2.008-1.234V8.813a2.125,2.125,0,0,0-1.992-1.2,1.929,1.929,0,0,0-1.656.82A4.128,4.128,0,0,0,181.379,10.867ZM194.527,15a3.036,3.036,0,0,1-.2-.891,3.225,3.225,0,0,1-2.406,1.047,2.984,2.984,0,0,1-2.051-.707,2.287,2.287,0,0,1-.8-1.793,2.39,2.39,0,0,1,1-2.051,4.733,4.733,0,0,1,2.824-.73H194.3V9.211A1.623,1.623,0,0,0,193.848,8a1.821,1.821,0,0,0-1.336-.449,2.107,2.107,0,0,0-1.3.391,1.151,1.151,0,0,0-.523.945h-1.453a2,2,0,0,1,.449-1.223,3.066,3.066,0,0,1,1.219-.934,4.1,4.1,0,0,1,1.691-.344,3.342,3.342,0,0,1,2.289.73,2.635,2.635,0,0,1,.859,2.012v3.891a4.757,4.757,0,0,0,.3,1.852V15Zm-2.4-1.1a2.54,2.54,0,0,0,1.289-.352,2.127,2.127,0,0,0,.883-.914V10.9h-1.133q-2.656,0-2.656,1.555a1.316,1.316,0,0,0,.453,1.063A1.742,1.742,0,0,0,192.129,13.9Zm10.8-1.141a1.064,1.064,0,0,0-.441-.91,4.249,4.249,0,0,0-1.539-.559,7.277,7.277,0,0,1-1.742-.562,2.479,2.479,0,0,1-.953-.781,1.869,1.869,0,0,1-.309-1.078,2.193,2.193,0,0,1,.879-1.758,3.432,3.432,0,0,1,2.246-.719,3.532,3.532,0,0,1,2.332.742,2.357,2.357,0,0,1,.895,1.9h-1.453a1.3,1.3,0,0,0-.5-1.023,1.888,1.888,0,0,0-1.27-.43,1.976,1.976,0,0,0-1.234.344,1.082,1.082,0,0,0-.445.9.877.877,0,0,0,.414.789,5.1,5.1,0,0,0,1.5.508,7.8,7.8,0,0,1,1.754.578,2.558,2.558,0,0,1,1,.809,1.988,1.988,0,0,1,.324,1.152,2.163,2.163,0,0,1-.906,1.816,3.8,3.8,0,0,1-2.352.684,4.257,4.257,0,0,1-1.8-.359,2.922,2.922,0,0,1-1.223-1,2.42,2.42,0,0,1-.441-1.395h1.445a1.5,1.5,0,0,0,.582,1.152,2.258,2.258,0,0,0,1.434.426,2.331,2.331,0,0,0,1.316-.332A1.02,1.02,0,0,0,202.934,12.758ZM40.465,37.977a2.082,2.082,0,0,0,1.352-.469,1.649,1.649,0,0,0,.641-1.172h1.367a2.621,2.621,0,0,1-.5,1.383,3.293,3.293,0,0,1-1.23,1.047,3.55,3.55,0,0,1-1.629.391A3.482,3.482,0,0,1,37.719,38a4.59,4.59,0,0,1-1.02-3.152v-.242a5.089,5.089,0,0,1,.453-2.2,3.451,3.451,0,0,1,1.3-1.492,3.7,3.7,0,0,1,2-.531,3.39,3.39,0,0,1,2.363.852,3.043,3.043,0,0,1,1,2.211H42.457a1.992,1.992,0,0,0-.621-1.348,1.932,1.932,0,0,0-1.379-.527,2.023,2.023,0,0,0-1.707.793,3.724,3.724,0,0,0-.605,2.293v.273a3.65,3.65,0,0,0,.6,2.25A2.033,2.033,0,0,0,40.465,37.977Zm4.6-3.281a4.993,4.993,0,0,1,.488-2.234,3.643,3.643,0,0,1,1.359-1.531,3.7,3.7,0,0,1,1.988-.539,3.565,3.565,0,0,1,2.793,1.2,4.6,4.6,0,0,1,1.066,3.18v.1a5.036,5.036,0,0,1-.473,2.215,3.589,3.589,0,0,1-1.352,1.527,3.743,3.743,0,0,1-2.02.547,3.556,3.556,0,0,1-2.785-1.2A4.575,4.575,0,0,1,45.066,34.8Zm1.453.172a3.616,3.616,0,0,0,.652,2.258,2.211,2.211,0,0,0,3.5-.012,3.955,3.955,0,0,0,.648-2.418,3.61,3.61,0,0,0-.66-2.254,2.1,2.1,0,0,0-1.754-.863,2.075,2.075,0,0,0-1.727.852A3.925,3.925,0,0,0,46.52,34.867Zm9.422-4.32.047,1.063a3.08,3.08,0,0,1,2.531-1.219q2.68,0,2.7,3.023V39H59.777V33.406a1.946,1.946,0,0,0-.418-1.352,1.675,1.675,0,0,0-1.277-.437,2.086,2.086,0,0,0-1.234.375,2.546,2.546,0,0,0-.828.984V39H54.574V30.547ZM68.934,39H67.488V27h1.445Zm7.531,0a3.036,3.036,0,0,1-.2-.891,3.225,3.225,0,0,1-2.406,1.047,2.984,2.984,0,0,1-2.051-.707,2.288,2.288,0,0,1-.8-1.793,2.39,2.39,0,0,1,1-2.051,4.733,4.733,0,0,1,2.824-.73h1.406v-.664A1.623,1.623,0,0,0,75.785,32a1.821,1.821,0,0,0-1.336-.449,2.108,2.108,0,0,0-1.3.391,1.151,1.151,0,0,0-.523.945H71.176a2,2,0,0,1,.449-1.223,3.066,3.066,0,0,1,1.219-.934,4.1,4.1,0,0,1,1.691-.344,3.342,3.342,0,0,1,2.289.73,2.635,2.635,0,0,1,.859,2.012v3.891a4.757,4.757,0,0,0,.3,1.852V39Zm-2.4-1.1a2.54,2.54,0,0,0,1.289-.352,2.127,2.127,0,0,0,.883-.914V34.9H75.105q-2.656,0-2.656,1.555a1.316,1.316,0,0,0,.453,1.063A1.742,1.742,0,0,0,74.066,37.9Zm11.2-7.352.039.938a3.122,3.122,0,0,1,2.508-1.094A2.417,2.417,0,0,1,90.23,31.75a3.2,3.2,0,0,1,1.1-.984,3.242,3.242,0,0,1,1.6-.375q2.781,0,2.828,2.945V39H94.309V33.422a1.941,1.941,0,0,0-.414-1.355,1.823,1.823,0,0,0-1.391-.449,1.916,1.916,0,0,0-1.336.48,1.949,1.949,0,0,0-.617,1.293V39H89.1V33.461a1.613,1.613,0,0,0-1.8-1.844,1.934,1.934,0,0,0-1.945,1.211V39H83.9V30.547ZM103.152,39a3.036,3.036,0,0,1-.2-.891,3.225,3.225,0,0,1-2.406,1.047,2.984,2.984,0,0,1-2.051-.707,2.288,2.288,0,0,1-.8-1.793,2.39,2.39,0,0,1,1-2.051,4.733,4.733,0,0,1,2.824-.73h1.406v-.664A1.623,1.623,0,0,0,102.473,32a1.821,1.821,0,0,0-1.336-.449,2.108,2.108,0,0,0-1.3.391,1.151,1.151,0,0,0-.523.945H97.863a2,2,0,0,1,.449-1.223,3.066,3.066,0,0,1,1.219-.934,4.1,4.1,0,0,1,1.691-.344,3.342,3.342,0,0,1,2.289.73,2.635,2.635,0,0,1,.859,2.012v3.891a4.757,4.757,0,0,0,.3,1.852V39Zm-2.4-1.1a2.54,2.54,0,0,0,1.289-.352,2.127,2.127,0,0,0,.883-.914V34.9h-1.133q-2.656,0-2.656,1.555a1.316,1.316,0,0,0,.453,1.063A1.742,1.742,0,0,0,100.754,37.9Zm7.453,1.1h-1.445V27h1.445Zm3.68-8.453.047,1.063a3.08,3.08,0,0,1,2.531-1.219q2.68,0,2.7,3.023V39h-1.445V33.406a1.946,1.946,0,0,0-.418-1.352,1.675,1.675,0,0,0-1.277-.437,2.086,2.086,0,0,0-1.234.375,2.546,2.546,0,0,0-.828.984V39H110.52V30.547Zm12.68,7.617a3.07,3.07,0,0,1-2.477.992,2.628,2.628,0,0,1-2.059-.785,3.4,3.4,0,0,1-.715-2.324v-5.5h1.445v5.461q0,1.922,1.563,1.922a2.163,2.163,0,0,0,2.2-1.234V30.547h1.445V39H124.6Zm5.563-9.664v2.047h1.578v1.117h-1.578v5.249a1.173,1.173,0,0,0,.211.763.888.888,0,0,0,.719.254,3.5,3.5,0,0,0,.688-.094V39a4.215,4.215,0,0,1-1.109.155,1.8,1.8,0,0,1-1.461-.586,2.517,2.517,0,0,1-.492-1.664V31.664h-1.539V30.547h1.539V28.5Zm7.352,3.344a4.331,4.331,0,0,0-.711-.055A1.9,1.9,0,0,0,134.84,33v6h-1.445V30.547H134.8l.023.977a2.251,2.251,0,0,1,2.016-1.133,1.477,1.477,0,0,1,.641.109Zm2.9,7.156h-1.445V30.547h1.445Zm-1.562-10.7a.863.863,0,0,1,.215-.594.807.807,0,0,1,.637-.242.819.819,0,0,1,.641.242.854.854,0,0,1,.219.594.826.826,0,0,1-.219.586.834.834,0,0,1-.641.234.821.821,0,0,1-.637-.234A.834.834,0,0,1,138.816,28.3Zm7.266,9.672a2.082,2.082,0,0,0,1.352-.469,1.649,1.649,0,0,0,.641-1.172h1.367a2.621,2.621,0,0,1-.5,1.383,3.293,3.293,0,0,1-1.23,1.047,3.55,3.55,0,0,1-1.629.391A3.482,3.482,0,0,1,143.336,38a4.59,4.59,0,0,1-1.02-3.152v-.242a5.089,5.089,0,0,1,.453-2.2,3.451,3.451,0,0,1,1.3-1.492,3.7,3.7,0,0,1,2-.531,3.39,3.39,0,0,1,2.363.852,3.043,3.043,0,0,1,1,2.211h-1.367a1.992,1.992,0,0,0-.621-1.348,1.932,1.932,0,0,0-1.379-.527,2.023,2.023,0,0,0-1.707.793,3.724,3.724,0,0,0-.605,2.293v.273a3.65,3.65,0,0,0,.6,2.25A2.033,2.033,0,0,0,146.082,37.977ZM152.637,39h-1.445V30.547h1.445Zm-1.562-10.7a.863.863,0,0,1,.215-.594.807.807,0,0,1,.637-.242.819.819,0,0,1,.641.242.854.854,0,0,1,.219.594.826.826,0,0,1-.219.586.834.834,0,0,1-.641.234.821.821,0,0,1-.637-.234A.834.834,0,0,1,151.074,28.3Zm3.492,6.391a4.993,4.993,0,0,1,.488-2.234,3.642,3.642,0,0,1,1.359-1.531,3.7,3.7,0,0,1,1.988-.539,3.565,3.565,0,0,1,2.793,1.2,4.6,4.6,0,0,1,1.066,3.18v.1a5.036,5.036,0,0,1-.473,2.215,3.589,3.589,0,0,1-1.352,1.527,3.743,3.743,0,0,1-2.02.547,3.556,3.556,0,0,1-2.785-1.2,4.575,4.575,0,0,1-1.066-3.164Zm1.453.172a3.616,3.616,0,0,0,.652,2.258,2.211,2.211,0,0,0,3.5-.012,3.954,3.954,0,0,0,.648-2.418,3.61,3.61,0,0,0-.66-2.254,2.1,2.1,0,0,0-1.754-.863,2.075,2.075,0,0,0-1.727.852A3.925,3.925,0,0,0,156.02,34.867ZM159.059,27h1.75l-2.094,2.3-1.164,0Zm6.383,3.547.047,1.063a3.08,3.08,0,0,1,2.531-1.219q2.68,0,2.7,3.023V39h-1.445V33.406a1.946,1.946,0,0,0-.418-1.352,1.675,1.675,0,0,0-1.277-.437,2.086,2.086,0,0,0-1.234.375,2.546,2.546,0,0,0-.828.984V39h-1.445V30.547Zm7.492,7.7a.905.905,0,0,1,.223-.625.848.848,0,0,1,.668-.25.874.874,0,0,1,.676.25.887.887,0,0,1,.23.625.839.839,0,0,1-.23.6.89.89,0,0,1-.676.242.8.8,0,0,1-.891-.844Z" transform="translate(10.383 157.104)" fill="#12263f"/>
      <path id="Trazado_885343" data-name="Trazado 885343" d="M10.09,9.93A7.053,7.053,0,0,1,7.281,8.566a2.6,2.6,0,0,1-.879-2A2.751,2.751,0,0,1,7.477,4.348a4.269,4.269,0,0,1,2.793-.879,4.66,4.66,0,0,1,2.09.453,3.436,3.436,0,0,1,1.422,1.25,3.2,3.2,0,0,1,.5,1.742H12.777a2.08,2.08,0,0,0-.656-1.627A2.669,2.669,0,0,0,10.27,4.7a2.732,2.732,0,0,0-1.73.489,1.632,1.632,0,0,0-.621,1.358,1.468,1.468,0,0,0,.59,1.178,5.785,5.785,0,0,0,2.008.88,9.316,9.316,0,0,1,2.219.88A3.367,3.367,0,0,1,13.922,10.6a2.861,2.861,0,0,1,.387,1.508,2.658,2.658,0,0,1-1.078,2.215,4.6,4.6,0,0,1-2.883.832,5.347,5.347,0,0,1-2.187-.449,3.681,3.681,0,0,1-1.566-1.23A3,3,0,0,1,6.043,11.7H7.551a1.959,1.959,0,0,0,.762,1.629,3.207,3.207,0,0,0,2.035.6,2.948,2.948,0,0,0,1.82-.484,1.573,1.573,0,0,0,.633-1.32,1.545,1.545,0,0,0-.586-1.293A6.755,6.755,0,0,0,10.09,9.93Zm5.531.766a4.993,4.993,0,0,1,.488-2.234A3.643,3.643,0,0,1,17.469,6.93a3.7,3.7,0,0,1,1.988-.539,3.565,3.565,0,0,1,2.793,1.2,4.6,4.6,0,0,1,1.066,3.18v.1a5.036,5.036,0,0,1-.473,2.215,3.589,3.589,0,0,1-1.352,1.527,3.743,3.743,0,0,1-2.02.547,3.556,3.556,0,0,1-2.785-1.2A4.575,4.575,0,0,1,15.621,10.8Zm1.453.172a3.616,3.616,0,0,0,.652,2.258,2.211,2.211,0,0,0,3.5-.012,3.955,3.955,0,0,0,.648-2.418,3.61,3.61,0,0,0-.66-2.254,2.1,2.1,0,0,0-1.754-.863,2.075,2.075,0,0,0-1.727.852A3.925,3.925,0,0,0,17.074,10.867Zm15.211,0a5.026,5.026,0,0,1-.891,3.113A2.846,2.846,0,0,1,29,15.156a2.947,2.947,0,0,1-2.477-1.133l-.07.977H25.129V3h1.445V7.477a2.93,2.93,0,0,1,2.414-1.086,2.863,2.863,0,0,1,2.418,1.164,5.177,5.177,0,0,1,.879,3.188ZM30.84,10.7a3.906,3.906,0,0,0-.57-2.281,1.888,1.888,0,0,0-1.641-.8,2.122,2.122,0,0,0-2.055,1.328V12.6a2.181,2.181,0,0,0,2.07,1.328,1.878,1.878,0,0,0,1.617-.8A4.153,4.153,0,0,0,30.84,10.7Zm7.352-2.859a4.331,4.331,0,0,0-.711-.055A1.9,1.9,0,0,0,35.551,9v6H34.105V6.547h1.406l.023.977a2.251,2.251,0,0,1,2.016-1.133,1.477,1.477,0,0,1,.641.109Zm4.688,7.313a3.693,3.693,0,0,1-2.8-1.129A4.19,4.19,0,0,1,39,11.008v-.266a5.073,5.073,0,0,1,.48-2.246,3.748,3.748,0,0,1,1.344-1.547A3.378,3.378,0,0,1,42.7,6.391a3.166,3.166,0,0,1,2.563,1.086,4.7,4.7,0,0,1,.914,3.109v.6H40.449a3,3,0,0,0,.73,2.02,2.3,2.3,0,0,0,1.777.77,2.517,2.517,0,0,0,1.3-.312,3.259,3.259,0,0,0,.93-.828l.883.688A3.55,3.55,0,0,1,42.879,15.156ZM42.7,7.578a1.928,1.928,0,0,0-1.469.637A3.1,3.1,0,0,0,40.5,10H44.73V9.891a2.753,2.753,0,0,0-.594-1.707A1.815,1.815,0,0,0,42.7,7.578Zm12.289,3.289a5.062,5.062,0,0,1-.883,3.109,2.829,2.829,0,0,1-2.391,1.18,3.1,3.1,0,0,1-2.422-.977v4.07H47.848V6.547h1.32l.07.938a2.977,2.977,0,0,1,2.453-1.094A2.882,2.882,0,0,1,54.1,7.539a5.117,5.117,0,0,1,.887,3.2ZM53.543,10.7a3.735,3.735,0,0,0-.609-2.258,1.963,1.963,0,0,0-1.672-.828,2.125,2.125,0,0,0-1.969,1.164V12.82a2.129,2.129,0,0,0,1.984,1.156,1.954,1.954,0,0,0,1.652-.824A4.077,4.077,0,0,0,53.543,10.7Zm6.789,4.453a3.693,3.693,0,0,1-2.8-1.129,4.19,4.19,0,0,1-1.078-3.02v-.266a5.073,5.073,0,0,1,.48-2.246,3.748,3.748,0,0,1,1.344-1.547,3.378,3.378,0,0,1,1.871-.559,3.166,3.166,0,0,1,2.563,1.086,4.7,4.7,0,0,1,.914,3.109v.6H57.9a3,3,0,0,0,.73,2.02,2.3,2.3,0,0,0,1.777.77,2.517,2.517,0,0,0,1.3-.312,3.259,3.259,0,0,0,.93-.828l.883.688A3.55,3.55,0,0,1,60.332,15.156Zm-.18-7.578a1.928,1.928,0,0,0-1.469.637A3.1,3.1,0,0,0,57.949,10h4.234V9.891a2.753,2.753,0,0,0-.594-1.707A1.815,1.815,0,0,0,60.152,7.578Zm10.07,5.18a1.064,1.064,0,0,0-.441-.91,4.249,4.249,0,0,0-1.539-.559,7.277,7.277,0,0,1-1.742-.562,2.479,2.479,0,0,1-.953-.781,1.869,1.869,0,0,1-.309-1.078,2.193,2.193,0,0,1,.879-1.758,3.432,3.432,0,0,1,2.246-.719,3.532,3.532,0,0,1,2.332.742,2.357,2.357,0,0,1,.895,1.9H70.137a1.3,1.3,0,0,0-.5-1.023,1.888,1.888,0,0,0-1.27-.43,1.976,1.976,0,0,0-1.234.344,1.082,1.082,0,0,0-.445.9.877.877,0,0,0,.414.789,5.1,5.1,0,0,0,1.5.508,7.8,7.8,0,0,1,1.754.578,2.558,2.558,0,0,1,1,.809,1.988,1.988,0,0,1,.324,1.152,2.163,2.163,0,0,1-.906,1.816,3.8,3.8,0,0,1-2.352.684,4.257,4.257,0,0,1-1.8-.359,2.922,2.922,0,0,1-1.223-1,2.42,2.42,0,0,1-.441-1.395h1.445a1.5,1.5,0,0,0,.582,1.152,2.258,2.258,0,0,0,1.434.426,2.331,2.331,0,0,0,1.316-.332A1.02,1.02,0,0,0,70.223,12.758ZM73.168,10.7a4.993,4.993,0,0,1,.488-2.234A3.643,3.643,0,0,1,75.016,6.93,3.7,3.7,0,0,1,77,6.391a3.565,3.565,0,0,1,2.793,1.2,4.6,4.6,0,0,1,1.066,3.18v.1a5.036,5.036,0,0,1-.473,2.215,3.589,3.589,0,0,1-1.352,1.527,3.743,3.743,0,0,1-2.02.547,3.556,3.556,0,0,1-2.785-1.2A4.575,4.575,0,0,1,73.168,10.8Zm1.453.172a3.616,3.616,0,0,0,.652,2.258,2.211,2.211,0,0,0,3.5-.012,3.955,3.955,0,0,0,.648-2.418,3.61,3.61,0,0,0-.66-2.254A2.1,2.1,0,0,0,77,7.578a2.075,2.075,0,0,0-1.727.852A3.925,3.925,0,0,0,74.621,10.867ZM8.738,36.883l1.969-6.336h1.547L8.855,40.3q-.789,2.109-2.508,2.109l-.273-.023-.539-.1V41.117l.391.031a1.923,1.923,0,0,0,1.145-.3,2.148,2.148,0,0,0,.676-1.086l.32-.859L5.051,30.547H6.629ZM17.121,34.7a4.993,4.993,0,0,1,.488-2.234,3.643,3.643,0,0,1,1.359-1.531,3.7,3.7,0,0,1,1.988-.539,3.565,3.565,0,0,1,2.793,1.2,4.6,4.6,0,0,1,1.066,3.18v.1a5.036,5.036,0,0,1-.473,2.215,3.589,3.589,0,0,1-1.352,1.527,3.743,3.743,0,0,1-2.02.547,3.556,3.556,0,0,1-2.785-1.2A4.575,4.575,0,0,1,17.121,34.8Zm1.453.172a3.616,3.616,0,0,0,.652,2.258,2.211,2.211,0,0,0,3.5-.012,3.955,3.955,0,0,0,.648-2.418,3.61,3.61,0,0,0-.66-2.254,2.1,2.1,0,0,0-1.754-.863,2.075,2.075,0,0,0-1.727.852A3.925,3.925,0,0,0,18.574,34.867Zm15.211,0a5.026,5.026,0,0,1-.891,3.113A2.846,2.846,0,0,1,30.5,39.156a2.947,2.947,0,0,1-2.477-1.133l-.07.977H26.629V27h1.445v4.477a2.93,2.93,0,0,1,2.414-1.086,2.863,2.863,0,0,1,2.418,1.164,5.177,5.177,0,0,1,.879,3.188ZM32.34,34.7a3.906,3.906,0,0,0-.57-2.281,1.888,1.888,0,0,0-1.641-.8,2.122,2.122,0,0,0-2.055,1.328V36.6a2.181,2.181,0,0,0,2.07,1.328,1.878,1.878,0,0,0,1.617-.8A4.153,4.153,0,0,0,32.34,34.7Zm6.773,4.453a3.693,3.693,0,0,1-2.8-1.129,4.19,4.19,0,0,1-1.078-3.02v-.266a5.073,5.073,0,0,1,.48-2.246,3.748,3.748,0,0,1,1.344-1.547,3.378,3.378,0,0,1,1.871-.559A3.166,3.166,0,0,1,41.5,31.477a4.7,4.7,0,0,1,.914,3.109v.6H36.684a3,3,0,0,0,.73,2.02,2.3,2.3,0,0,0,1.777.77,2.517,2.517,0,0,0,1.3-.312,3.258,3.258,0,0,0,.93-.828l.883.688A3.55,3.55,0,0,1,39.113,39.156Zm-.18-7.578a1.928,1.928,0,0,0-1.469.637A3.1,3.1,0,0,0,36.73,34h4.234v-.109a2.753,2.753,0,0,0-.594-1.707A1.815,1.815,0,0,0,38.934,31.578ZM49,36.758a1.064,1.064,0,0,0-.441-.91,4.249,4.249,0,0,0-1.539-.559,7.277,7.277,0,0,1-1.742-.562,2.479,2.479,0,0,1-.953-.781,1.869,1.869,0,0,1-.309-1.078,2.193,2.193,0,0,1,.879-1.758,3.432,3.432,0,0,1,2.246-.719,3.532,3.532,0,0,1,2.332.742,2.357,2.357,0,0,1,.895,1.9H48.918a1.3,1.3,0,0,0-.5-1.023,1.888,1.888,0,0,0-1.27-.43,1.976,1.976,0,0,0-1.234.344,1.082,1.082,0,0,0-.445.9.877.877,0,0,0,.414.789,5.1,5.1,0,0,0,1.5.508,7.8,7.8,0,0,1,1.754.578,2.558,2.558,0,0,1,1,.809,1.988,1.988,0,0,1,.324,1.152,2.163,2.163,0,0,1-.906,1.816,3.8,3.8,0,0,1-2.352.684,4.257,4.257,0,0,1-1.8-.359,2.922,2.922,0,0,1-1.223-1A2.42,2.42,0,0,1,43.73,36.4h1.445a1.5,1.5,0,0,0,.582,1.152,2.258,2.258,0,0,0,1.434.426,2.331,2.331,0,0,0,1.316-.332A1.02,1.02,0,0,0,49,36.758ZM53.9,39H52.457V30.547H53.9ZM52.34,28.3a.863.863,0,0,1,.215-.594.807.807,0,0,1,.637-.242.819.819,0,0,1,.641.242.854.854,0,0,1,.219.594.826.826,0,0,1-.219.586.834.834,0,0,1-.641.234.821.821,0,0,1-.637-.234A.834.834,0,0,1,52.34,28.3Zm3.523,6.4a4.952,4.952,0,0,1,.922-3.129,3.137,3.137,0,0,1,4.766-.168V27H63V39H61.668l-.07-.906a2.943,2.943,0,0,1-2.414,1.063,2.887,2.887,0,0,1-2.395-1.2,5.008,5.008,0,0,1-.926-3.141Zm1.445.164a3.749,3.749,0,0,0,.594,2.25,1.919,1.919,0,0,0,1.641.813A2.108,2.108,0,0,0,61.551,36.7V32.813a2.125,2.125,0,0,0-1.992-1.2,1.929,1.929,0,0,0-1.656.82A4.128,4.128,0,0,0,57.309,34.867ZM70.457,39a3.036,3.036,0,0,1-.2-.891,3.225,3.225,0,0,1-2.406,1.047,2.984,2.984,0,0,1-2.051-.707,2.288,2.288,0,0,1-.8-1.793,2.39,2.39,0,0,1,1-2.051,4.733,4.733,0,0,1,2.824-.73H70.23v-.664A1.623,1.623,0,0,0,69.777,32a1.821,1.821,0,0,0-1.336-.449,2.108,2.108,0,0,0-1.3.391,1.151,1.151,0,0,0-.523.945H65.168a2,2,0,0,1,.449-1.223,3.066,3.066,0,0,1,1.219-.934,4.1,4.1,0,0,1,1.691-.344,3.342,3.342,0,0,1,2.289.73,2.635,2.635,0,0,1,.859,2.012v3.891a4.757,4.757,0,0,0,.3,1.852V39Zm-2.4-1.1a2.54,2.54,0,0,0,1.289-.352,2.127,2.127,0,0,0,.883-.914V34.9H69.1q-2.656,0-2.656,1.555a1.316,1.316,0,0,0,.453,1.063A1.742,1.742,0,0,0,68.059,37.9Zm5.531-3.2a4.952,4.952,0,0,1,.922-3.129,3.137,3.137,0,0,1,4.766-.168V27h1.445V39H79.395l-.07-.906a2.943,2.943,0,0,1-2.414,1.063,2.887,2.887,0,0,1-2.395-1.2,5.008,5.008,0,0,1-.926-3.141Zm1.445.164a3.749,3.749,0,0,0,.594,2.25,1.92,1.92,0,0,0,1.641.813A2.108,2.108,0,0,0,79.277,36.7V32.813a2.125,2.125,0,0,0-1.992-1.2,1.929,1.929,0,0,0-1.656.82A4.128,4.128,0,0,0,75.035,34.867ZM83,38.242a.905.905,0,0,1,.223-.625.848.848,0,0,1,.668-.25.874.874,0,0,1,.676.25.887.887,0,0,1,.23.625.839.839,0,0,1-.23.6.89.89,0,0,1-.676.242A.8.8,0,0,1,83,38.242Z" transform="translate(281.416 157.104)" fill="#12263f"/>
      <path id="Trazado_885345" data-name="Trazado 885345" d="M13.789,3.625l3.719,9.281,3.719-9.281h1.945V15h-1.5V10.57l.141-4.781L18.078,15H16.93L13.2,5.813l.148,4.758V15h-1.5V3.625ZM30.813,15a3.036,3.036,0,0,1-.2-.891A3.225,3.225,0,0,1,28.2,15.156a2.984,2.984,0,0,1-2.051-.707,2.287,2.287,0,0,1-.8-1.793,2.39,2.39,0,0,1,1-2.051,4.733,4.733,0,0,1,2.824-.73h1.406V9.211A1.623,1.623,0,0,0,30.133,8,1.821,1.821,0,0,0,28.8,7.555a2.108,2.108,0,0,0-1.3.391,1.151,1.151,0,0,0-.523.945H25.523a2,2,0,0,1,.449-1.223,3.066,3.066,0,0,1,1.219-.934,4.1,4.1,0,0,1,1.691-.344,3.342,3.342,0,0,1,2.289.73,2.635,2.635,0,0,1,.859,2.012v3.891a4.757,4.757,0,0,0,.3,1.852V15Zm-2.4-1.1a2.54,2.54,0,0,0,1.289-.352,2.127,2.127,0,0,0,.883-.914V10.9H29.453q-2.656,0-2.656,1.555a1.316,1.316,0,0,0,.453,1.063A1.742,1.742,0,0,0,28.414,13.9ZM35.867,15H34.422V3h1.445Zm3.68-8.453.047,1.063a3.08,3.08,0,0,1,2.531-1.219q2.68,0,2.7,3.023V15H43.383V9.406a1.946,1.946,0,0,0-.418-1.352,1.675,1.675,0,0,0-1.277-.437,2.086,2.086,0,0,0-1.234.375,2.546,2.546,0,0,0-.828.984V15H38.18V6.547Zm12.68,7.617a3.07,3.07,0,0,1-2.477.992,2.628,2.628,0,0,1-2.059-.785,3.4,3.4,0,0,1-.715-2.324v-5.5h1.445v5.461q0,1.922,1.563,1.922a2.163,2.163,0,0,0,2.2-1.234V6.547h1.445V15H52.258ZM57.789,4.5V6.547h1.578V7.664H57.789v5.249a1.173,1.173,0,0,0,.211.763.888.888,0,0,0,.719.254,3.5,3.5,0,0,0,.688-.094V15a4.215,4.215,0,0,1-1.109.155,1.8,1.8,0,0,1-1.461-.586,2.517,2.517,0,0,1-.492-1.664V7.664H54.8V6.547h1.539V4.5Zm7.352,3.344a4.331,4.331,0,0,0-.711-.055A1.9,1.9,0,0,0,62.5,9v6H61.055V6.547h1.406l.023.977A2.251,2.251,0,0,1,64.5,6.391a1.477,1.477,0,0,1,.641.109ZM68.039,15H66.594V6.547h1.445ZM66.477,4.3a.863.863,0,0,1,.215-.594.807.807,0,0,1,.637-.242.819.819,0,0,1,.641.242.854.854,0,0,1,.219.594.826.826,0,0,1-.219.586.834.834,0,0,1-.641.234.821.821,0,0,1-.637-.234A.834.834,0,0,1,66.477,4.3Zm7.266,9.672a2.082,2.082,0,0,0,1.352-.469,1.649,1.649,0,0,0,.641-1.172H77.1a2.621,2.621,0,0,1-.5,1.383,3.293,3.293,0,0,1-1.23,1.047,3.55,3.55,0,0,1-1.629.391A3.482,3.482,0,0,1,71,14a4.59,4.59,0,0,1-1.02-3.152v-.242a5.089,5.089,0,0,1,.453-2.2,3.451,3.451,0,0,1,1.3-1.492,3.7,3.7,0,0,1,2-.531,3.39,3.39,0,0,1,2.363.852,3.043,3.043,0,0,1,1,2.211H75.734a1.992,1.992,0,0,0-.621-1.348,1.932,1.932,0,0,0-1.379-.527,2.023,2.023,0,0,0-1.707.793,3.724,3.724,0,0,0-.605,2.293v.273a3.65,3.65,0,0,0,.6,2.25A2.033,2.033,0,0,0,73.742,13.977ZM80.3,15H78.852V6.547H80.3ZM78.734,4.3a.863.863,0,0,1,.215-.594.807.807,0,0,1,.637-.242.819.819,0,0,1,.641.242.854.854,0,0,1,.219.594.826.826,0,0,1-.219.586.834.834,0,0,1-.641.234.821.821,0,0,1-.637-.234A.834.834,0,0,1,78.734,4.3ZM82.227,10.7a4.993,4.993,0,0,1,.488-2.234A3.643,3.643,0,0,1,84.074,6.93a3.7,3.7,0,0,1,1.988-.539,3.565,3.565,0,0,1,2.793,1.2,4.6,4.6,0,0,1,1.066,3.18v.1a5.036,5.036,0,0,1-.473,2.215A3.589,3.589,0,0,1,88.1,14.609a3.743,3.743,0,0,1-2.02.547,3.556,3.556,0,0,1-2.785-1.2A4.575,4.575,0,0,1,82.227,10.8Zm1.453.172a3.616,3.616,0,0,0,.652,2.258,2.211,2.211,0,0,0,3.5-.012,3.955,3.955,0,0,0,.648-2.418,3.61,3.61,0,0,0-.66-2.254,2.1,2.1,0,0,0-1.754-.863,2.075,2.075,0,0,0-1.727.852A3.925,3.925,0,0,0,83.68,10.867ZM86.719,3h1.75L86.375,5.3l-1.164,0ZM93.1,6.547l.047,1.063A3.08,3.08,0,0,1,95.68,6.391q2.68,0,2.7,3.023V15H96.938V9.406a1.946,1.946,0,0,0-.418-1.352,1.675,1.675,0,0,0-1.277-.437,2.086,2.086,0,0,0-1.234.375,2.546,2.546,0,0,0-.828.984V15H91.734V6.547Zm-79.32,28.32a5.062,5.062,0,0,1-.883,3.109,2.829,2.829,0,0,1-2.391,1.18,3.1,3.1,0,0,1-2.422-.977v4.07H6.641v-11.7h1.32l.07.938a2.977,2.977,0,0,1,2.453-1.094,2.882,2.882,0,0,1,2.41,1.148,5.117,5.117,0,0,1,.887,3.2ZM12.336,34.7a3.735,3.735,0,0,0-.609-2.258,1.963,1.963,0,0,0-1.672-.828,2.125,2.125,0,0,0-1.969,1.164V36.82a2.129,2.129,0,0,0,1.984,1.156,1.954,1.954,0,0,0,1.652-.824A4.077,4.077,0,0,0,12.336,34.7Zm2.9-.008a4.993,4.993,0,0,1,.488-2.234,3.643,3.643,0,0,1,1.359-1.531,3.7,3.7,0,0,1,1.988-.539,3.565,3.565,0,0,1,2.793,1.2,4.6,4.6,0,0,1,1.066,3.18v.1a5.036,5.036,0,0,1-.473,2.215,3.589,3.589,0,0,1-1.352,1.527,3.743,3.743,0,0,1-2.02.547,3.556,3.556,0,0,1-2.785-1.2A4.575,4.575,0,0,1,15.234,34.8Zm1.453.172a3.616,3.616,0,0,0,.652,2.258,2.211,2.211,0,0,0,3.5-.012,3.955,3.955,0,0,0,.648-2.418,3.61,3.61,0,0,0-.66-2.254,2.1,2.1,0,0,0-1.754-.863,2.075,2.075,0,0,0-1.727.852A3.925,3.925,0,0,0,16.688,34.867Zm12.141-3.023a4.331,4.331,0,0,0-.711-.055A1.9,1.9,0,0,0,26.188,33v6H24.742V30.547h1.406l.023.977a2.251,2.251,0,0,1,2.016-1.133,1.477,1.477,0,0,1,.641.109Zm6.656-1.3.047,1.063a3.08,3.08,0,0,1,2.531-1.219q2.68,0,2.7,3.023V39H39.32V33.406a1.946,1.946,0,0,0-.418-1.352,1.675,1.675,0,0,0-1.277-.437,2.086,2.086,0,0,0-1.234.375,2.546,2.546,0,0,0-.828.984V39H34.117V30.547Zm12.68,7.617a3.07,3.07,0,0,1-2.477.992,2.628,2.628,0,0,1-2.059-.785,3.4,3.4,0,0,1-.715-2.324v-5.5h1.445v5.461q0,1.922,1.563,1.922a2.163,2.163,0,0,0,2.2-1.234V30.547H49.57V39H48.2ZM53.727,28.5v2.047H55.3v1.117H53.727v5.249a1.173,1.173,0,0,0,.211.763.888.888,0,0,0,.719.254,3.5,3.5,0,0,0,.688-.094V39a4.215,4.215,0,0,1-1.109.155,1.8,1.8,0,0,1-1.461-.586,2.517,2.517,0,0,1-.492-1.664V31.664H50.742V30.547h1.539V28.5Zm7.352,3.344a4.331,4.331,0,0,0-.711-.055A1.9,1.9,0,0,0,58.438,33v6H56.992V30.547H58.4l.023.977a2.251,2.251,0,0,1,2.016-1.133,1.477,1.477,0,0,1,.641.109ZM63.977,39H62.531V30.547h1.445ZM62.414,28.3a.863.863,0,0,1,.215-.594.807.807,0,0,1,.637-.242.819.819,0,0,1,.641.242.854.854,0,0,1,.219.594.826.826,0,0,1-.219.586.834.834,0,0,1-.641.234.821.821,0,0,1-.637-.234A.834.834,0,0,1,62.414,28.3ZM69.8,39.156A3.693,3.693,0,0,1,67,38.027a4.19,4.19,0,0,1-1.078-3.02v-.266A5.073,5.073,0,0,1,66.4,32.5a3.748,3.748,0,0,1,1.344-1.547,3.378,3.378,0,0,1,1.871-.559,3.166,3.166,0,0,1,2.563,1.086,4.7,4.7,0,0,1,.914,3.109v.6H67.367a3,3,0,0,0,.73,2.02,2.3,2.3,0,0,0,1.777.77,2.517,2.517,0,0,0,1.3-.312,3.259,3.259,0,0,0,.93-.828l.883.688A3.55,3.55,0,0,1,69.8,39.156Zm-.18-7.578a1.928,1.928,0,0,0-1.469.637A3.1,3.1,0,0,0,67.414,34h4.234v-.109a2.753,2.753,0,0,0-.594-1.707A1.815,1.815,0,0,0,69.617,31.578Zm6.516-1.031.047,1.063a3.08,3.08,0,0,1,2.531-1.219q2.68,0,2.7,3.023V39H79.969V33.406a1.946,1.946,0,0,0-.418-1.352,1.675,1.675,0,0,0-1.277-.437,2.086,2.086,0,0,0-1.234.375,2.546,2.546,0,0,0-.828.984V39H74.766V30.547ZM85.555,28.5v2.047h1.578v1.117H85.555v5.249a1.173,1.173,0,0,0,.211.763.888.888,0,0,0,.719.254,3.5,3.5,0,0,0,.688-.094V39a4.215,4.215,0,0,1-1.109.155A1.8,1.8,0,0,1,84.6,38.57a2.517,2.517,0,0,1-.492-1.664V31.664H82.57V30.547h1.539V28.5Zm6.773,10.656a3.693,3.693,0,0,1-2.8-1.129,4.19,4.19,0,0,1-1.078-3.02v-.266a5.073,5.073,0,0,1,.48-2.246,3.748,3.748,0,0,1,1.344-1.547,3.378,3.378,0,0,1,1.871-.559,3.166,3.166,0,0,1,2.563,1.086,4.7,4.7,0,0,1,.914,3.109v.6H89.9a3,3,0,0,0,.73,2.02,2.3,2.3,0,0,0,1.777.77,2.517,2.517,0,0,0,1.3-.312,3.259,3.259,0,0,0,.93-.828l.883.688A3.55,3.55,0,0,1,92.328,39.156Zm-.18-7.578a1.928,1.928,0,0,0-1.469.637A3.1,3.1,0,0,0,89.945,34H94.18v-.109a2.753,2.753,0,0,0-.594-1.707A1.815,1.815,0,0,0,92.148,31.578Zm10.07,5.18a1.064,1.064,0,0,0-.441-.91,4.249,4.249,0,0,0-1.539-.559,7.277,7.277,0,0,1-1.742-.562,2.479,2.479,0,0,1-.953-.781,1.869,1.869,0,0,1-.309-1.078,2.193,2.193,0,0,1,.879-1.758,3.432,3.432,0,0,1,2.246-.719,3.532,3.532,0,0,1,2.332.742,2.357,2.357,0,0,1,.895,1.9h-1.453a1.3,1.3,0,0,0-.5-1.023,1.888,1.888,0,0,0-1.27-.43,1.976,1.976,0,0,0-1.234.344,1.082,1.082,0,0,0-.445.9.877.877,0,0,0,.414.789,5.1,5.1,0,0,0,1.5.508,7.8,7.8,0,0,1,1.754.578,2.558,2.558,0,0,1,1,.809,1.988,1.988,0,0,1,.324,1.152,2.163,2.163,0,0,1-.906,1.816,3.8,3.8,0,0,1-2.352.684,4.257,4.257,0,0,1-1.8-.359,2.922,2.922,0,0,1-1.223-1,2.42,2.42,0,0,1-.441-1.395h1.445a1.5,1.5,0,0,0,.582,1.152,2.258,2.258,0,0,0,1.434.426,2.331,2.331,0,0,0,1.316-.332A1.02,1.02,0,0,0,102.219,36.758Z" transform="translate(595.841 157.104)" fill="#12263f"/>
      <path id="Trazado_885344" data-name="Trazado 885344" d="M7.52,15V3.625H10.73a5.169,5.169,0,0,1,2.625.656,4.438,4.438,0,0,1,1.762,1.867,6.078,6.078,0,0,1,.629,2.781v.727a6.1,6.1,0,0,1-.621,2.82,4.369,4.369,0,0,1-1.773,1.859A5.5,5.5,0,0,1,10.668,15ZM9.02,4.852v8.922H10.6a3.434,3.434,0,0,0,2.7-1.079,4.458,4.458,0,0,0,.965-3.073V8.957a4.529,4.529,0,0,0-.91-3.014A3.239,3.239,0,0,0,10.77,4.852Zm12.273,10.3a3.693,3.693,0,0,1-2.8-1.129,4.19,4.19,0,0,1-1.078-3.02v-.266A5.073,5.073,0,0,1,17.9,8.5a3.748,3.748,0,0,1,1.344-1.547,3.378,3.378,0,0,1,1.871-.559,3.166,3.166,0,0,1,2.563,1.086,4.7,4.7,0,0,1,.914,3.109v.6H18.863a3,3,0,0,0,.73,2.02,2.3,2.3,0,0,0,1.777.77,2.517,2.517,0,0,0,1.3-.312,3.259,3.259,0,0,0,.93-.828l.883.688A3.55,3.55,0,0,1,21.293,15.156Zm-.18-7.578a1.928,1.928,0,0,0-1.469.637A3.1,3.1,0,0,0,18.91,10h4.234V9.891a2.753,2.753,0,0,0-.594-1.707A1.815,1.815,0,0,0,21.113,7.578Zm10.07,5.18a1.064,1.064,0,0,0-.441-.91,4.249,4.249,0,0,0-1.539-.559,7.277,7.277,0,0,1-1.742-.562,2.479,2.479,0,0,1-.953-.781A1.869,1.869,0,0,1,26.2,8.867a2.193,2.193,0,0,1,.879-1.758,3.432,3.432,0,0,1,2.246-.719,3.532,3.532,0,0,1,2.332.742,2.357,2.357,0,0,1,.895,1.9H31.1a1.3,1.3,0,0,0-.5-1.023,1.888,1.888,0,0,0-1.27-.43,1.976,1.976,0,0,0-1.234.344,1.082,1.082,0,0,0-.445.9.877.877,0,0,0,.414.789,5.1,5.1,0,0,0,1.5.508,7.8,7.8,0,0,1,1.754.578,2.558,2.558,0,0,1,1,.809,1.988,1.988,0,0,1,.324,1.152,2.163,2.163,0,0,1-.906,1.816,3.8,3.8,0,0,1-2.352.684,4.257,4.257,0,0,1-1.8-.359,2.922,2.922,0,0,1-1.223-1A2.42,2.42,0,0,1,25.91,12.4h1.445a1.5,1.5,0,0,0,.582,1.152,2.258,2.258,0,0,0,1.434.426,2.331,2.331,0,0,0,1.316-.332A1.02,1.02,0,0,0,31.184,12.758Zm4.7-6.211.047,1.063a3.08,3.08,0,0,1,2.531-1.219q2.68,0,2.7,3.023V15H39.715V9.406A1.946,1.946,0,0,0,39.3,8.055a1.675,1.675,0,0,0-1.277-.437,2.086,2.086,0,0,0-1.234.375,2.546,2.546,0,0,0-.828.984V15H34.512V6.547Zm12.68,7.617a3.07,3.07,0,0,1-2.477.992,2.628,2.628,0,0,1-2.059-.785,3.4,3.4,0,0,1-.715-2.324v-5.5h1.445v5.461q0,1.922,1.563,1.922a2.163,2.163,0,0,0,2.2-1.234V6.547h1.445V15H48.59ZM54.121,4.5V6.547H55.7V7.664H54.121v5.249a1.173,1.173,0,0,0,.211.763.888.888,0,0,0,.719.254,3.5,3.5,0,0,0,.688-.094V15a4.215,4.215,0,0,1-1.109.155,1.8,1.8,0,0,1-1.461-.586,2.517,2.517,0,0,1-.492-1.664V7.664H51.137V6.547h1.539V4.5Zm7.352,3.344a4.331,4.331,0,0,0-.711-.055A1.9,1.9,0,0,0,58.832,9v6H57.387V6.547h1.406l.023.977a2.251,2.251,0,0,1,2.016-1.133,1.477,1.477,0,0,1,.641.109ZM64.371,15H62.926V6.547h1.445ZM62.809,4.3a.863.863,0,0,1,.215-.594.807.807,0,0,1,.637-.242.819.819,0,0,1,.641.242.854.854,0,0,1,.219.594.826.826,0,0,1-.219.586.834.834,0,0,1-.641.234.821.821,0,0,1-.637-.234A.834.834,0,0,1,62.809,4.3Zm7.266,9.672a2.082,2.082,0,0,0,1.352-.469,1.649,1.649,0,0,0,.641-1.172h1.367a2.621,2.621,0,0,1-.5,1.383,3.293,3.293,0,0,1-1.23,1.047,3.55,3.55,0,0,1-1.629.391A3.482,3.482,0,0,1,67.328,14a4.59,4.59,0,0,1-1.02-3.152v-.242a5.089,5.089,0,0,1,.453-2.2,3.451,3.451,0,0,1,1.3-1.492,3.7,3.7,0,0,1,2-.531,3.39,3.39,0,0,1,2.363.852,3.043,3.043,0,0,1,1,2.211H72.066a1.992,1.992,0,0,0-.621-1.348,1.932,1.932,0,0,0-1.379-.527,2.023,2.023,0,0,0-1.707.793,3.724,3.724,0,0,0-.605,2.293v.273a3.65,3.65,0,0,0,.6,2.25A2.033,2.033,0,0,0,70.074,13.977ZM76.629,15H75.184V6.547h1.445ZM75.066,4.3a.863.863,0,0,1,.215-.594.807.807,0,0,1,.637-.242.819.819,0,0,1,.641.242.854.854,0,0,1,.219.594.826.826,0,0,1-.219.586.834.834,0,0,1-.641.234.821.821,0,0,1-.637-.234A.834.834,0,0,1,75.066,4.3ZM78.559,10.7a4.993,4.993,0,0,1,.488-2.234A3.643,3.643,0,0,1,80.406,6.93a3.7,3.7,0,0,1,1.988-.539,3.565,3.565,0,0,1,2.793,1.2,4.6,4.6,0,0,1,1.066,3.18v.1a5.036,5.036,0,0,1-.473,2.215,3.589,3.589,0,0,1-1.352,1.527,3.743,3.743,0,0,1-2.02.547,3.556,3.556,0,0,1-2.785-1.2A4.575,4.575,0,0,1,78.559,10.8Zm1.453.172a3.616,3.616,0,0,0,.652,2.258,2.211,2.211,0,0,0,3.5-.012,3.955,3.955,0,0,0,.648-2.418,3.61,3.61,0,0,0-.66-2.254,2.1,2.1,0,0,0-1.754-.863,2.075,2.075,0,0,0-1.727.852A3.925,3.925,0,0,0,80.012,10.867ZM83.051,3H84.8L82.707,5.3l-1.164,0Zm6.383,3.547.047,1.063a3.08,3.08,0,0,1,2.531-1.219q2.68,0,2.7,3.023V15H93.27V9.406a1.946,1.946,0,0,0-.418-1.352,1.675,1.675,0,0,0-1.277-.437,2.086,2.086,0,0,0-1.234.375,2.546,2.546,0,0,0-.828.984V15H88.066V6.547Z" transform="translate(425.716 168.583)" fill="#12263f"/>
      <path id="Trazado_885346" data-name="Trazado 885346" d="M5.1,4.781,8.75,15.094,12.383,4.781H16.23V19H13.291V15.113L13.584,8.4,9.746,19H7.734L3.906,8.414l.293,6.7V19H1.27V4.781ZM24.727,19a3.134,3.134,0,0,1-.283-.947A3.415,3.415,0,0,1,21.777,19.2a3.752,3.752,0,0,1-2.573-.9,2.89,2.89,0,0,1-1.021-2.266,2.986,2.986,0,0,1,1.245-2.578,6.144,6.144,0,0,1,3.6-.908h1.3v-.605a1.741,1.741,0,0,0-.376-1.172,1.479,1.479,0,0,0-1.187-.439,1.682,1.682,0,0,0-1.118.342,1.161,1.161,0,0,0-.405.938H18.418a2.835,2.835,0,0,1,.566-1.7,3.744,3.744,0,0,1,1.6-1.226,5.837,5.837,0,0,1,2.324-.444,4.611,4.611,0,0,1,3.1.981,3.433,3.433,0,0,1,1.147,2.759v4.58a5.052,5.052,0,0,0,.42,2.275V19Zm-2.334-1.963a2.431,2.431,0,0,0,1.152-.278,1.828,1.828,0,0,0,.781-.747V14.2H23.271q-2.119,0-2.256,1.465l-.01.166a1.13,1.13,0,0,0,.371.869A1.441,1.441,0,0,0,22.393,17.037ZM32.3,19H29.473V4H32.3ZM37.227,8.434l.088,1.221a3.689,3.689,0,0,1,3.037-1.416,3.066,3.066,0,0,1,2.5.986,4.6,4.6,0,0,1,.84,2.949V19H40.869V12.242a1.831,1.831,0,0,0-.391-1.3,1.749,1.749,0,0,0-1.3-.405,1.942,1.942,0,0,0-1.787,1.016V19H34.57V8.434Zm14.932,9.492a3.539,3.539,0,0,1-2.891,1.27,3.338,3.338,0,0,1-2.593-.977,4.169,4.169,0,0,1-.913-2.861V8.434h2.822v6.834q0,1.652,1.5,1.652a2.038,2.038,0,0,0,1.973-1V8.434h2.832V19H52.236ZM60.4,5.836v2.6h1.807V10.5H60.4v5.273a1.259,1.259,0,0,0,.225.84,1.128,1.128,0,0,0,.859.254,4.5,4.5,0,0,0,.83-.068v2.139a5.81,5.81,0,0,1-1.709.254q-2.969,0-3.027-3V10.5H56.035V8.434h1.543v-2.6Zm9.316,5.244A7.667,7.667,0,0,0,68.7,11a2.067,2.067,0,0,0-2.1,1.084V19H63.779V8.434h2.666l.078,1.26a2.615,2.615,0,0,1,2.354-1.455,2.957,2.957,0,0,1,.879.127ZM74.053,19H71.221V8.434h2.832Zm-3-13.3a1.39,1.39,0,0,1,.425-1.045,1.831,1.831,0,0,1,2.31,0,1.382,1.382,0,0,1,.43,1.045,1.386,1.386,0,0,1-.435,1.055,1.81,1.81,0,0,1-2.295,0A1.386,1.386,0,0,1,71.055,5.7ZM80.771,16.92a1.851,1.851,0,0,0,1.27-.43,1.506,1.506,0,0,0,.508-1.143H85.2a3.62,3.62,0,0,1-.586,1.968A3.866,3.866,0,0,1,83.032,18.7a4.936,4.936,0,0,1-2.212.493,4.587,4.587,0,0,1-3.574-1.44,5.7,5.7,0,0,1-1.309-3.979V13.59a5.635,5.635,0,0,1,1.3-3.9A4.534,4.534,0,0,1,80.8,8.238a4.444,4.444,0,0,1,3.179,1.128,3.994,3.994,0,0,1,1.216,3H82.549a1.939,1.939,0,0,0-.508-1.34,1.887,1.887,0,0,0-2.778.2,4.166,4.166,0,0,0-.5,2.333v.293a4.219,4.219,0,0,0,.5,2.347A1.721,1.721,0,0,0,80.771,16.92ZM89.785,19H86.953V8.434h2.832Zm-3-13.3a1.39,1.39,0,0,1,.425-1.045,1.831,1.831,0,0,1,2.31,0,1.382,1.382,0,0,1,.43,1.045,1.386,1.386,0,0,1-.435,1.055,1.81,1.81,0,0,1-2.295,0A1.386,1.386,0,0,1,86.787,5.7Zm4.883,7.92a6.266,6.266,0,0,1,.605-2.8,4.432,4.432,0,0,1,1.743-1.9,5.086,5.086,0,0,1,2.642-.674,4.812,4.812,0,0,1,3.491,1.309A5.252,5.252,0,0,1,101.66,13.1l.02.723a5.523,5.523,0,0,1-1.357,3.9,5.261,5.261,0,0,1-7.29,0,5.62,5.62,0,0,1-1.362-3.984Zm2.822.2a3.95,3.95,0,0,0,.566,2.3,2.035,2.035,0,0,0,3.223.01,4.322,4.322,0,0,0,.576-2.518,3.91,3.91,0,0,0-.576-2.289,1.873,1.873,0,0,0-1.621-.812,1.842,1.842,0,0,0-1.6.807A4.395,4.395,0,0,0,94.492,13.819ZM97.217,4h3.076L97.588,7.027H95.293Zm8.8,4.434.088,1.221a3.689,3.689,0,0,1,3.037-1.416,3.066,3.066,0,0,1,2.5.986,4.6,4.6,0,0,1,.84,2.949V19h-2.822V12.242a1.831,1.831,0,0,0-.391-1.3,1.749,1.749,0,0,0-1.3-.405,1.942,1.942,0,0,0-1.787,1.016V19h-2.822V8.434Z" transform="translate(317.611 6.686)" fill="#12263f"/>
      <g id="Grupo_1101500" data-name="Grupo 1101500" transform="translate(94.835 92.194)">
        <path id="Trazado_873496" data-name="Trazado 873496" d="M-11801-8646v40.334" transform="translate(11811.664 8646.001)" fill="none" stroke="#567d56" stroke-width="2"/>
        <g id="Grupo_1099075" data-name="Grupo 1099075" transform="translate(0 24.551)">
          <g id="Grupo_1099074" data-name="Grupo 1099074" clip-path="url(#clip-path-4)">
            <path id="Trazado_873497" data-name="Trazado 873497" d="M.514.857A21.249,21.249,0,0,1,10.848,19.1,21.248,21.248,0,0,1,21.182.857" transform="translate(-0.184 -0.306)" fill="none" stroke="#567d56" stroke-miterlimit="10" stroke-width="2"/>
          </g>
        </g>
      </g>
      <g id="Grupo_1101510" data-name="Grupo 1101510" transform="translate(313.759 92.194)">
        <path id="Trazado_873496-2" data-name="Trazado 873496" d="M-11801-8646v40.334" transform="translate(11811.664 8646.001)" fill="none" stroke="#567d56" stroke-width="2"/>
        <g id="Grupo_1099075-2" data-name="Grupo 1099075" transform="translate(0 24.551)">
          <g id="Grupo_1099074-2" data-name="Grupo 1099074" clip-path="url(#clip-path-4)">
            <path id="Trazado_873497-2" data-name="Trazado 873497" d="M.514.857A21.249,21.249,0,0,1,10.848,19.1,21.248,21.248,0,0,1,21.182.857" transform="translate(-0.184 -0.306)" fill="none" stroke="#567d56" stroke-miterlimit="10" stroke-width="2"/>
          </g>
        </g>
      </g>
      <g id="Grupo_1101511" data-name="Grupo 1101511" transform="translate(461.525 92.194)">
        <path id="Trazado_873496-3" data-name="Trazado 873496" d="M-11801-8646v40.334" transform="translate(11811.664 8646.001)" fill="none" stroke="#567d56" stroke-width="2"/>
        <g id="Grupo_1099075-3" data-name="Grupo 1099075" transform="translate(0 24.551)">
          <g id="Grupo_1099074-3" data-name="Grupo 1099074" clip-path="url(#clip-path-4)">
            <path id="Trazado_873497-3" data-name="Trazado 873497" d="M.514.857A21.249,21.249,0,0,1,10.848,19.1,21.248,21.248,0,0,1,21.182.857" transform="translate(-0.184 -0.306)" fill="none" stroke="#567d56" stroke-miterlimit="10" stroke-width="2"/>
          </g>
        </g>
      </g>
      <g id="Grupo_1101512" data-name="Grupo 1101512" transform="translate(629.512 92.194)">
        <path id="Trazado_873496-4" data-name="Trazado 873496" d="M-11801-8646v40.334" transform="translate(11811.664 8646.001)" fill="none" stroke="#567d56" stroke-width="2"/>
        <g id="Grupo_1099075-4" data-name="Grupo 1099075" transform="translate(0 24.551)">
          <g id="Grupo_1099074-4" data-name="Grupo 1099074" clip-path="url(#clip-path-4)">
            <path id="Trazado_873497-4" data-name="Trazado 873497" d="M.514.857A21.249,21.249,0,0,1,10.848,19.1,21.248,21.248,0,0,1,21.182.857" transform="translate(-0.184 -0.306)" fill="none" stroke="#567d56" stroke-miterlimit="10" stroke-width="2"/>
          </g>
        </g>
      </g>
      <path id="Trazado_879438" data-name="Trazado 879438" d="M-8115.076-10854.909H-7581" transform="translate(8220.576 10947.104)" fill="none" stroke="#567d56" stroke-width="2"/>
      <path id="Trazado_879439" data-name="Trazado 879439" d="M0,0H51.823" transform="translate(372.538 92.195) rotate(-90)" fill="none" stroke="#567d56" stroke-width="2"/>
    </g>
  </g>
</svg>
