<svg xmlns="http://www.w3.org/2000/svg" xmlns:xlink="http://www.w3.org/1999/xlink" width="44.239" height="37.405" viewBox="0 0 44.239 37.405">
  <defs>
    <clipPath id="clip-path">
      <path id="Trazado_874546" data-name="Trazado 874546" d="M0,0A37.405,37.405,0,0,1,37.405,37.405H.008Z" transform="translate(37.405 37.405) rotate(180)" fill="#ded6fd"/>
    </clipPath>
    <clipPath id="clip-path-2">
      <rect id="Rectángulo_402080" data-name="Rectángulo 402080" width="91.879" height="115.031" transform="translate(0 0)" fill="#ac9afc"/>
    </clipPath>
    <clipPath id="clip-path-3">
      <rect id="Rectángulo_402114" data-name="Rectángulo 402114" width="60.266" height="46.007" fill="#ac9afc"/>
    </clipPath>
    <clipPath id="clip-path-4">
      <path id="Trazado_874549" data-name="Trazado 874549" d="M0,0A15.405,15.405,0,0,1,15.405,15.405H0Z" transform="translate(15.405 15.405) rotate(180)" fill="#fcc59a"/>
    </clipPath>
    <clipPath id="clip-path-5">
      <rect id="Rectángulo_402115" data-name="Rectángulo 402115" width="18.26" height="24.126" fill="#fcc59a"/>
    </clipPath>
  </defs>
  <g id="Grupo_1101062" data-name="Grupo 1101062" transform="translate(-190.095 -876.933)">
    <g id="Enmascarar_grupo_1098787" data-name="Enmascarar grupo 1098787" transform="translate(190.095 876.933)" clip-path="url(#clip-path)">
      <path id="Trazado_874544" data-name="Trazado 874544" d="M0,0A37.405,37.405,0,0,1,37.405,37.405H.008Z" transform="translate(37.405 37.405) rotate(180)" fill="#ded6fd"/>
      <g id="Grupo_1100933" data-name="Grupo 1100933" transform="translate(-13.599 -45.403)" opacity="0.51" style="mix-blend-mode: multiply;isolation: isolate">
        <g id="Grupo_1100932" data-name="Grupo 1100932" transform="translate(5 -2)" clip-path="url(#clip-path-2)">
          <g id="Grupo_1101019" data-name="Grupo 1101019" transform="translate(-8.326 48.351)" opacity="0.42" style="mix-blend-mode: multiply;isolation: isolate">
            <g id="Grupo_1101018" data-name="Grupo 1101018" transform="translate(0 0)" clip-path="url(#clip-path-3)">
              <path id="Trazado_876391" data-name="Trazado 876391" d="M43.92,4.162l-.189-.05A3.943,3.943,0,0,0,43.207,4a5.354,5.354,0,0,0-2.021.076,5.435,5.435,0,0,0-2.728,1.532,6.006,6.006,0,0,0-1.531,3.757,12.78,12.78,0,0,0,.844,4.914,15.018,15.018,0,0,0,2.655,4.892,5.96,5.96,0,0,0,1.062.923,4.263,4.263,0,0,0,.6.346l.347.159.321.112a7.035,7.035,0,0,0,2.886.24,35.63,35.63,0,0,0,6.031-1.585l3.039-.943a18.939,18.939,0,0,0,2.845-1.087,6.437,6.437,0,0,0,2.188-1.7,2.545,2.545,0,0,0,.663-2.183,3.819,3.819,0,0,0-1.543-1.789l-1.145-.809c-.383-.25-.749-.506-1.132-.742a48.892,48.892,0,0,0-4.384-2.517,54.149,54.149,0,0,0-7-2.928c-.87-.3-1.567-.5-2.041-.642l-.727-.218-.009,0a.33.33,0,0,1,.145-.641l.763.119c.5.078,1.222.221,2.14.433a33.964,33.964,0,0,1,3.272.921,38.587,38.587,0,0,1,4.1,1.642A40.254,40.254,0,0,1,57.429,8.8c.393.246.783.525,1.182.793l1.17.844a8.366,8.366,0,0,1,1.192,1.065,3.812,3.812,0,0,1,.894,1.614,3.378,3.378,0,0,1-.1,1.88,4.866,4.866,0,0,1-.879,1.552,7.688,7.688,0,0,1-2.727,2.021,20.189,20.189,0,0,1-3.083,1.077L52,20.493a36.252,36.252,0,0,1-6.278,1.4,7.963,7.963,0,0,1-3.256-.366l-.4-.155-.345-.169a5.185,5.185,0,0,1-.707-.43,6.78,6.78,0,0,1-1.179-1.077,11.359,11.359,0,0,1-1.62-2.557A24.241,24.241,0,0,1,37.133,14.5a13.412,13.412,0,0,1-.819-5.177,6.652,6.652,0,0,1,1.7-4.133,6.239,6.239,0,0,1,3.028-1.724,5.989,5.989,0,0,1,2.265-.109,4.659,4.659,0,0,1,.588.119l.189.048a.329.329,0,1,1-.161.638h0" transform="translate(-14.936 -1.3)" fill="#ac9afc"/>
              <path id="Trazado_876392" data-name="Trazado 876392" d="M31.788,8.549l-.271-.169a3.3,3.3,0,0,0-2.046-.362,4.056,4.056,0,0,0-1.6.554,3.915,3.915,0,0,0-.384.269,4.472,4.472,0,0,0-.378.337,5.048,5.048,0,0,0-.656.817,5.816,5.816,0,0,0-.829,2.117,8.384,8.384,0,0,0-.078,2.452,15.061,15.061,0,0,0,.54,2.524,17.933,17.933,0,0,0,.864,2.422,7.446,7.446,0,0,0,1.259,1.948,5.383,5.383,0,0,0,1.708,1.231,5.575,5.575,0,0,0,1.817.511,4.878,4.878,0,0,0,1.56-.1,3.77,3.77,0,0,0,1.789-.9l.207-.2.033-.033a.329.329,0,0,1,.525.382s-.056.112-.162.321a3.532,3.532,0,0,1-.646.8,4.4,4.4,0,0,1-1.362.842,5.242,5.242,0,0,1-2.055.35,6.106,6.106,0,0,1-2.357-.559A6.618,6.618,0,0,1,27.1,22.487a7.726,7.726,0,0,1-1.418-2.45,17.555,17.555,0,0,1-.734-2.669,16.234,16.234,0,0,1-.342-2.738,9.352,9.352,0,0,1,.255-2.692,7.459,7.459,0,0,1,1.036-2.318,5.65,5.65,0,0,1,.77-.905,5.287,5.287,0,0,1,.427-.361,4.375,4.375,0,0,1,.465-.308,4.7,4.7,0,0,1,1.839-.63,4.57,4.57,0,0,1,1.512.062,3.978,3.978,0,0,1,.944.347l.279.164a.329.329,0,1,1-.333.567l-.01-.006" transform="translate(-10.122 -3.037)" fill="#ac9afc"/>
              <path id="Trazado_876393" data-name="Trazado 876393" d="M19.839,13.859l-.287-.16a4.211,4.211,0,0,0-.789-.307,4.256,4.256,0,0,0-1.338-.125,5.122,5.122,0,0,0-1.706.412,4.968,4.968,0,0,0-1.656,1.215,5.309,5.309,0,0,0-.657.933,6.249,6.249,0,0,0-.449,1.1,6.758,6.758,0,0,0-.249,2.459,6.563,6.563,0,0,0,.228,1.246c.043.168.132.433.2.617s.154.385.244.581a9.667,9.667,0,0,0,1.381,2.143,13.619,13.619,0,0,0,1.782,1.738,9.76,9.76,0,0,0,1.9,1.256,5.753,5.753,0,0,0,1.833.585,4.055,4.055,0,0,0,1.564-.11,3.539,3.539,0,0,0,1.12-.5,3.279,3.279,0,0,0,.6-.533c.121-.144.182-.229.182-.229l.011-.015a.332.332,0,0,1,.587.291s-.037.122-.129.348a3.172,3.172,0,0,1-.589.883,4.041,4.041,0,0,1-1.354.946,4.752,4.752,0,0,1-2.118.378,6.259,6.259,0,0,1-2.393-.648,10.433,10.433,0,0,1-2.192-1.492,11.51,11.51,0,0,1-3.273-4.592c-.082-.228-.159-.461-.227-.706s-.112-.424-.163-.7a7.536,7.536,0,0,1-.14-1.442,7.678,7.678,0,0,1,.447-2.75,6.755,6.755,0,0,1,1.341-2.223,5.735,5.735,0,0,1,5.362-1.666,4.871,4.871,0,0,1,.946.342l.291.152a.329.329,0,0,1-.305.583l-.008,0" transform="translate(-4.841 -5.208)" fill="#ac9afc"/>
              <path id="Trazado_876394" data-name="Trazado 876394" d="M8.116,24.064l-.31-.01a3.589,3.589,0,0,0-.8.076,4.012,4.012,0,0,0-1.188.443,4.906,4.906,0,0,0-2.264,2.738c-.062.157-.1.348-.139.493a5.315,5.315,0,0,0-.084.558,5.639,5.639,0,0,0,.015,1.107,6.5,6.5,0,0,0,.691,2.226A7.178,7.178,0,0,0,5.5,33.588c.115.112.32.28.467.4s.3.235.474.348a8.536,8.536,0,0,0,1.029.61,12.425,12.425,0,0,0,2.182.841,14.683,14.683,0,0,0,2.16.444,3.222,3.222,0,0,0,1.679-.1,3.379,3.379,0,0,0,1.174-.812,8.638,8.638,0,0,0,.825-.965l.694-.945,0,0a.333.333,0,0,1,.587.3l-.1.3c-.068.2-.163.488-.325.85a6.981,6.981,0,0,1-.72,1.279,4.148,4.148,0,0,1-1.584,1.349c-.094.041-.224.1-.292.122l-.118.041-.059.021-.029.01-.07.021a3.428,3.428,0,0,1-.628.109,6.1,6.1,0,0,1-1.235-.033,14.1,14.1,0,0,1-2.4-.535A10.931,10.931,0,0,1,6.8,36.147a9.918,9.918,0,0,1-1.125-.786c-.178-.141-.357-.3-.534-.461s-.295-.285-.476-.487a8.109,8.109,0,0,1-2.1-4.88,6.312,6.312,0,0,1,.065-1.274c.024-.221.073-.389.108-.582a5.978,5.978,0,0,1,.182-.589,5.768,5.768,0,0,1,1.152-1.88,5.476,5.476,0,0,1,2.8-1.688,4.356,4.356,0,0,1,.943-.115l.311,0a.329.329,0,1,1,0,.658H8.116" transform="translate(-1.053 -9.632)" fill="#ac9afc"/>
              <path id="Trazado_876395" data-name="Trazado 876395" d="M2.8,39.388l-.21.157a4.986,4.986,0,0,0-.513.465A5.3,5.3,0,0,0,.855,42.169,5,5,0,0,0,1.121,45.6a5.1,5.1,0,0,0,1.125,1.585,5.3,5.3,0,0,0,1.677,1.043,9.989,9.989,0,0,0,1.97.538,12.279,12.279,0,0,0,1.941.221,2.83,2.83,0,0,0,.767-.106,1.789,1.789,0,0,0,.291-.119L9,48.7l.052-.036c.038-.027.087-.062.128-.1a4.346,4.346,0,0,0,.906-1.138,7.323,7.323,0,0,0,.6-1.2,3.634,3.634,0,0,0,.244-.949,2.788,2.788,0,0,0-.005-.624l-.039-.225-.007-.04a.332.332,0,0,1,.6-.253s.062.085.165.258a2.6,2.6,0,0,1,.285.826,3.806,3.806,0,0,1-.016,1.331,6.181,6.181,0,0,1-.526,1.558,4.859,4.859,0,0,1-1.217,1.664c-.079.065-.158.122-.251.185l-.149.094-.105.058a3.154,3.154,0,0,1-.613.25,3.846,3.846,0,0,1-1.226.145,9.948,9.948,0,0,1-2.228-.395,10.528,10.528,0,0,1-2.165-.816,6.365,6.365,0,0,1-1.863-1.456,6.451,6.451,0,0,1-1.156-1.94A6.223,6.223,0,0,1,0,43.842,5.754,5.754,0,0,1,.266,42a6.351,6.351,0,0,1,1.361-2.408,6.846,6.846,0,0,1,.568-.549l.2-.168a.329.329,0,0,1,.421.506l-.014.011" transform="translate(0 -15.966)" fill="#ac9afc"/>
              <path id="Trazado_876396" data-name="Trazado 876396" d="M4.9,55.417l-.057.195a3.185,3.185,0,0,0-.089.511,4.016,4.016,0,0,0,.278,1.87,4.661,4.661,0,0,0,.642,1.1,5.063,5.063,0,0,0,1.025,1,5.5,5.5,0,0,0,2.8,1.11,2.424,2.424,0,0,0,1.308-.251,2.471,2.471,0,0,0,.859-.835,2.9,2.9,0,0,0,.415-1.1,2.681,2.681,0,0,0,.045-.57c0-.149-.015-.351-.034-.52a6.681,6.681,0,0,0-.512-1.722c-.186-.421-.314-.673-.314-.673l-.006-.013a.337.337,0,0,1,.5-.427l.179.128a3.888,3.888,0,0,1,.466.417,4.456,4.456,0,0,1,1.123,2,3.816,3.816,0,0,1,.125.789,4.288,4.288,0,0,1-.035.839,4.151,4.151,0,0,1-.694,1.709,3.44,3.44,0,0,1-1.588,1.255,3.613,3.613,0,0,1-1.992.145A5.706,5.706,0,0,1,7.61,61.7a8.353,8.353,0,0,1-1.4-1,7.2,7.2,0,0,1-1.079-1.2,5.285,5.285,0,0,1-.671-1.283,5.1,5.1,0,0,1-.324-2.141,4.658,4.658,0,0,1,.084-.62l.044-.2A.329.329,0,0,1,4.9,55.4c0,.007,0,.015-.005.022" transform="translate(-1.696 -22.633)" fill="#ac9afc"/>
              <path id="Trazado_876397" data-name="Trazado 876397" d="M11.863,64.453a5.088,5.088,0,0,0,.212.544,5.4,5.4,0,0,0,.793,1.282,4.348,4.348,0,0,0,.727.666,3.417,3.417,0,0,0,.45.275l.235.1a2.543,2.543,0,0,0,.278.089,2.653,2.653,0,0,0,1.08.043,2.347,2.347,0,0,0,.983-.41,1.636,1.636,0,0,0,.57-.742,2.1,2.1,0,0,0,.108-.883,2.921,2.921,0,0,0-.213-.89,4.191,4.191,0,0,0-.188-.414c-.057-.111-.134-.251-.2-.371-.29-.495-.6-.924-.8-1.247s-.319-.527-.319-.527a.35.35,0,0,1,.433-.491l.009,0a3.924,3.924,0,0,1,.566.292,5.123,5.123,0,0,1,1.312,1.116,4.458,4.458,0,0,1,.348.493,3.856,3.856,0,0,1,.29.572,4.02,4.02,0,0,1,.284,1.413,3.093,3.093,0,0,1-.393,1.573,2.786,2.786,0,0,1-1.21,1.12,3.424,3.424,0,0,1-1.5.336,3.912,3.912,0,0,1-1.418-.258c-.122-.042-.194-.086-.291-.129-.124-.063-.2-.109-.3-.167a4.648,4.648,0,0,1-.517-.361,4.952,4.952,0,0,1-.79-.811,7.5,7.5,0,0,1-.881-1.408c-.178-.368-.261-.564-.261-.564l-.009-.02a.33.33,0,0,1,.608-.258.312.312,0,0,1,.012.033" transform="translate(-4.617 -25.292)" fill="#ac9afc"/>
              <path id="Trazado_876398" data-name="Trazado 876398" d="M20.3,70.215a4.159,4.159,0,0,0,.232.491,5.258,5.258,0,0,0,.84,1.138,5.951,5.951,0,0,0,.721.611,4.723,4.723,0,0,0,.9.517.746.746,0,0,0,.39.08c.072-.008.144-.078.129-.1s-.028.058-.035-.014a.9.9,0,0,1,0-.264.725.725,0,0,1,.082-.235l.018-.03.028-.041.011-.016a.8.8,0,0,1,.124-.124,1.007,1.007,0,0,1,.656-.183c.049,0,.14,0,.1-.008.046-.006.126-.012.094-.023-.012-.02.075-.068.109-.147a.884.884,0,0,0,.1-.3.721.721,0,0,0-.159-.558,2.271,2.271,0,0,0-.583-.546c-.242-.174-.495-.328-.761-.5a4.21,4.21,0,0,1-1.228-1.123,2.059,2.059,0,0,1-.232-.453l-.052-.174a.338.338,0,0,1,.523-.37l.041.03a3.84,3.84,0,0,0,.42.256c.273.144.673.3,1.235.544a5.633,5.633,0,0,1,.949.521,3.379,3.379,0,0,1,.976,1.018,2.266,2.266,0,0,1,.295.818,2.06,2.06,0,0,1-.087.9,1.721,1.721,0,0,1-1.4,1.246.816.816,0,0,1-.212,0,.95.95,0,0,1-.207-.024c-.082-.028-.1.017.061-.086A.369.369,0,0,0,24.449,73l-.014.014,0,0c.009-.014-.026.035.02-.029l.008-.014a.255.255,0,0,0,.029-.092c0-.039-.009-.016-.011.041a.967.967,0,0,1-.188.564,1.069,1.069,0,0,1-.912.413,1.723,1.723,0,0,1-.73-.238,7.159,7.159,0,0,1-1.727-1.4,7.629,7.629,0,0,1-.934-1.251c-.2-.339-.286-.514-.286-.514l-.012-.024a.33.33,0,0,1,.591-.295.327.327,0,0,1,.014.033" transform="translate(-8.089 -27.897)" fill="#ac9afc"/>
              <path id="Trazado_876399" data-name="Trazado 876399" d="M68.556,17.283a.348.348,0,0,0-.057-.033c.008.024-.021.023-.045.031-.046.011-.162.068-.168.128-.029.048-.019.075-.04.147a.543.543,0,0,0,.008.195c.021.138.023.074.043.138a.942.942,0,0,0,.067.108.445.445,0,0,0,.169.151c.015.008.081.03.044.024l.076.014c.009,0-.009,0-.009,0a.086.086,0,0,0,.025,0,.458.458,0,0,0,.17-.046.9.9,0,0,0,.1-.068l.005,0-.01.042V18.1l0-.008,0-.016.017-.059c-.006.011,0,.045,0,.027a.128.128,0,0,0,.019-.059.511.511,0,0,0-.074-.259.353.353,0,0,0-.062-.078l-.237-.2a.435.435,0,0,1,.265-.765L69,16.678a1.162,1.162,0,0,1,.36.059,1.458,1.458,0,0,1,.877.85,1.532,1.532,0,0,1,.1.417,1.367,1.367,0,0,1-.006.282l-.008.069,0,.016v.012l-.011.048-.015.06a1.575,1.575,0,0,1-.541.829,1.748,1.748,0,0,1-.927.394,1.655,1.655,0,0,1-.281.009l-.163-.016-.076-.013a1.679,1.679,0,0,1-.533-.2,1.986,1.986,0,0,1-.706-.7,1.872,1.872,0,0,1-.189-.44,1.977,1.977,0,0,1-.074-.44,1.75,1.75,0,0,1,.187-.9,1.516,1.516,0,0,1,.574-.63,1.291,1.291,0,0,1,.723-.186,1.217,1.217,0,0,1,.542.145,1.129,1.129,0,0,1,.312.25.741.741,0,0,1,.048.072l.045.135a.435.435,0,0,1-.681.483" transform="translate(-27.492 -6.666)" fill="#ac9afc"/>
              <path id="Trazado_876400" data-name="Trazado 876400" d="M78.131,11.684s.409,0,1.1-.035,1.7-.119,2.883-.288a32.58,32.58,0,0,0,4-.867c.716-.2,1.465-.447,2.18-.719a5.4,5.4,0,0,0,1.854-1.119A2.406,2.406,0,0,0,90.9,6.97a2.26,2.26,0,0,0-.848-1.491c-.516-.5-1.043-.98-1.56-1.4-.507-.438-1.014-.816-1.476-1.177-.936-.7-1.744-1.266-2.316-1.664L83.8.61l0,0a.333.333,0,0,1,.278-.6l.288.078c.188.052.461.136.8.264A14.035,14.035,0,0,1,87.853,1.7a16.665,16.665,0,0,1,1.634,1.183,20.959,20.959,0,0,1,1.656,1.541,5.142,5.142,0,0,1,.8,1.078A2.864,2.864,0,0,1,92.279,7a3.621,3.621,0,0,1-1.326,2.513A6.39,6.39,0,0,1,88.6,10.668c-.79.234-1.549.4-2.3.576-1.493.325-2.894.582-4.106.725-1.208.17-2.221.242-2.93.3l-1.113.072H78.15a.329.329,0,0,1-.042-.657h.024" transform="translate(-32.018 0)" fill="#ac9afc"/>
              <path id="Trazado_876401" data-name="Trazado 876401" d="M78.785,16.079l.883.56c.151.092.282.184.461.28s.366.2.566.3a14.964,14.964,0,0,0,1.392.621,15.291,15.291,0,0,0,3.7.9,14.574,14.574,0,0,0,2.138.085,3.3,3.3,0,0,0,1.868-.463,2.1,2.1,0,0,0,.772-1.5,3.287,3.287,0,0,0-.343-1.729A7.327,7.327,0,0,0,89.206,13.6l-.288-.351-.3-.345-.569-.634c-.746-.805-1.4-1.453-1.871-1.912l-.74-.726,0,0a.334.334,0,0,1,.367-.545l.26.112c.168.076.413.191.712.361a12.141,12.141,0,0,1,2.307,1.674c.22.2.444.408.664.646l.327.352.338.385a8.107,8.107,0,0,1,1.2,1.91,5.576,5.576,0,0,1,.208.587c.031.1.058.217.085.326l.056.3a4.1,4.1,0,0,1-.033,1.338,3.313,3.313,0,0,1-1.5,2.275,4.313,4.313,0,0,1-2.513.418,19.3,19.3,0,0,1-2.238-.264,18.458,18.458,0,0,1-3.813-1.1c-.54-.215-1.022-.435-1.445-.653-.216-.107-.4-.213-.58-.308s-.352-.2-.488-.28l-.9-.528,0,0a.329.329,0,0,1,.332-.568l.01.006" transform="translate(-32.216 -3.729)" fill="#ac9afc"/>
              <path id="Trazado_876402" data-name="Trazado 876402" d="M71.044,29.249l.052.173a3.631,3.631,0,0,0,.164.433,4.252,4.252,0,0,0,.98,1.326,6.307,6.307,0,0,0,2.017,1.246c.1.038.206.084.307.115s.231.081.334.111c.21.065.44.129.67.184.461.112.94.2,1.428.28.972.168,1.978.313,2.92.526a10.053,10.053,0,0,1,2.527.922,6.07,6.07,0,0,1,1.549,1.165,4.459,4.459,0,0,1,.351.421l.115.155a.339.339,0,0,1-.526.426l-.007-.008a5.379,5.379,0,0,0-.461-.444,6.131,6.131,0,0,0-1.433-.894,10.947,10.947,0,0,0-2.332-.724c-.9-.191-1.882-.306-2.888-.477-.5-.092-1.007-.2-1.5-.33-.25-.065-.49-.138-.74-.222-.128-.041-.235-.083-.348-.124s-.238-.1-.355-.143a6.809,6.809,0,0,1-2.246-1.571A4.653,4.653,0,0,1,70.6,30.108a3.417,3.417,0,0,1-.132-.541l-.029-.178a.311.311,0,0,1,.6-.14" transform="translate(-28.988 -11.946)" fill="#ac9afc"/>
              <path id="Trazado_876403" data-name="Trazado 876403" d="M66.6,30.876a7.067,7.067,0,0,0,.361.754A5.743,5.743,0,0,0,69.235,33.9a6.031,6.031,0,0,0,.733.343,15.8,15.8,0,0,0,1.615.512,14.669,14.669,0,0,1,3.389,1.271,7.384,7.384,0,0,1,1.507,1.121,4.557,4.557,0,0,1,.612.733,5.041,5.041,0,0,1,.458.839L77,38.577l.327-.2a.34.34,0,0,1,.4.549l-.3.248a.342.342,0,0,1-.482-.042.249.249,0,0,1-.031-.041l-.033-.055a4.61,4.61,0,0,0-.461-.656,5.307,5.307,0,0,0-.568-.565,6.428,6.428,0,0,0-1.369-.886,12.141,12.141,0,0,0-1.55-.636c-.272-.094-.528-.175-.813-.257l-.837-.239a13.664,13.664,0,0,1-1.723-.587,6.857,6.857,0,0,1-.842-.434,5.41,5.41,0,0,1-.769-.563,6.3,6.3,0,0,1-1.231-1.425,6.469,6.469,0,0,1-.428-.833,5.325,5.325,0,0,1-.288-.878l0-.012a.311.311,0,0,1,.591-.186" transform="translate(-27.161 -12.627)" fill="#ac9afc"/>
              <path id="Trazado_876404" data-name="Trazado 876404" d="M62.472,31.865a3.963,3.963,0,0,0,.142.393c.054.125.109.25.172.372a5.374,5.374,0,0,0,.438.7,9.918,9.918,0,0,0,1.1,1.273c.423.412.829.791,1.269,1.169s.893.719,1.365,1.045.948.642,1.445.927,1.015.537,1.558.86a5.747,5.747,0,0,1,.779.576,3.746,3.746,0,0,1,.35.354,3.209,3.209,0,0,1,.311.423,2.7,2.7,0,0,1,.378.972,2.16,2.16,0,0,1-.082,1.077l-.71-.254.249-.511a.34.34,0,0,1,.628.255l-.178.54a.375.375,0,0,1-.721-.206l.012-.048a1.677,1.677,0,0,0-.345-1.32,2.316,2.316,0,0,0-.231-.277,2.689,2.689,0,0,0-.289-.257,4.847,4.847,0,0,0-.674-.434c-.477-.275-1.026-.523-1.559-.824a14.559,14.559,0,0,1-1.542-.973q-.738-.538-1.42-1.144a14.08,14.08,0,0,1-1.282-1.288,9.766,9.766,0,0,1-1.111-1.484,6.116,6.116,0,0,1-.411-.853c-.056-.148-.108-.3-.15-.453a4.673,4.673,0,0,1-.1-.46l0-.012a.31.31,0,0,1,.6-.138" transform="translate(-25.46 -13.024)" fill="#ac9afc"/>
              <path id="Trazado_876405" data-name="Trazado 876405" d="M57.869,33.523s-.054.2-.105.514a1.515,1.515,0,0,0-.006.511,1.261,1.261,0,0,0,.276.537,6.456,6.456,0,0,0,.636.644c.242.222.519.45.8.69.57.475,1.207.979,1.817,1.549a10.6,10.6,0,0,1,.867.914,6.811,6.811,0,0,1,.713,1.036,5.331,5.331,0,0,1,.69,2.142,3.646,3.646,0,0,1-.033.923,3.891,3.891,0,0,1-.182.69.692.692,0,0,1-.3.4.478.478,0,0,1-.371.041A.432.432,0,0,1,62.488,44a.4.4,0,0,1-.079-.126.436.436,0,0,1-.029-.186.473.473,0,0,1,.073-.224.389.389,0,0,1,.325-.188.356.356,0,0,1,.274.119.408.408,0,0,1,.039.048.339.339,0,1,1-.557.386.173.173,0,0,0,.026.034.3.3,0,0,0,.227.1.305.305,0,0,0,.257-.137.226.226,0,0,0,.038-.106c-.011-.03.042-.178-.221-.292a.256.256,0,0,0-.188.016c-.09.058-.057.054-.056.007a3.077,3.077,0,0,0,.076-.554,4.249,4.249,0,0,0-.045-.722,4.846,4.846,0,0,0-.683-1.722,8.231,8.231,0,0,0-1.421-1.691c-.56-.538-1.179-1.048-1.744-1.57-.287-.258-.548-.524-.8-.788a7.067,7.067,0,0,1-.671-.8,1.873,1.873,0,0,1-.351-.967,2.246,2.246,0,0,1,.1-.75,4.061,4.061,0,0,1,.2-.549l.014-.028a.31.31,0,0,1,.577.219" transform="translate(-23.448 -13.636)" fill="#ac9afc"/>
              <path id="Trazado_876406" data-name="Trazado 876406" d="M43.294,6.278a1.658,1.658,0,0,0-.391.058,2.014,2.014,0,0,0-.43.17,3.544,3.544,0,0,0-.516.335,4.4,4.4,0,0,0-1.029,1.145,4.978,4.978,0,0,0-.661,1.624,6.162,6.162,0,0,0-.132.88c-.016.283-.022.572-.014.849a11.629,11.629,0,0,0,.167,1.511c.083.447.152.819.2,1.08s.079.421.079.421a.169.169,0,0,1-.3.133l0,0a3.043,3.043,0,0,1-.24-.378,4.693,4.693,0,0,1-.45-1.09,5.848,5.848,0,0,1-.211-1.666,5.765,5.765,0,0,1,.091-.955,6.143,6.143,0,0,1,2.32-3.8,3.878,3.878,0,0,1,.558-.357,3.172,3.172,0,0,1,.483-.2,2.024,2.024,0,0,1,.455-.085.165.165,0,1,1,.023.328" transform="translate(-16.2 -2.448)" fill="#ac9afc"/>
              <path id="Trazado_876407" data-name="Trazado 876407" d="M44.4,9.613a2.29,2.29,0,0,0-.374.435,2.563,2.563,0,0,0-.262.521,2.787,2.787,0,0,0-.151.645c-.055.447-.041.872-.082,1.195a2.56,2.56,0,0,1-.081.4,1.035,1.035,0,0,1-.059.167l-.006.012a.2.2,0,0,1-.317.05,1.162,1.162,0,0,1-.268-.608,1.967,1.967,0,0,1,.014-.666,3.248,3.248,0,0,1,.237-.722,7.168,7.168,0,0,1,.726-1.175c.1-.149.216-.274.278-.353s.1-.127.1-.127l0,0a.166.166,0,0,1,.267.2.17.17,0,0,1-.026.028" transform="translate(-17.606 -3.836)" fill="#ac9afc"/>
              <path id="Trazado_876408" data-name="Trazado 876408" d="M28.587,15.006s-.025.114-.071.312a5.361,5.361,0,0,0-.105.817,6.215,6.215,0,0,0,.045,1.164,6.909,6.909,0,0,0,.31,1.29,14.89,14.89,0,0,0,1.029,2.217c.155.295.286.545.374.726a2.818,2.818,0,0,1,.132.295l0,.011a.172.172,0,0,1-.251.205,2.6,2.6,0,0,1-.274-.2,3.278,3.278,0,0,1-.6-.646,5.017,5.017,0,0,1-.6-1.093,7.344,7.344,0,0,1-.381-1.372,12.428,12.428,0,0,1-.132-1.4c0-.224,0-.44,0-.644s.015-.4.036-.573c.022-.352.076-.657.107-.854s.052-.316.052-.316a.165.165,0,0,1,.325.054l0,.009" transform="translate(-11.55 -6.093)" fill="#ac9afc"/>
              <path id="Trazado_876409" data-name="Trazado 876409" d="M31.018,17.614A1.77,1.77,0,0,0,31,17.99a2.256,2.256,0,0,0,.2.8,2.53,2.53,0,0,1,.249.761.864.864,0,0,1-.07.413l0,0a.233.233,0,0,1-.3.114.728.728,0,0,1-.322-.315,1.628,1.628,0,0,1-.131-.887c.039-.334.056-.65.071-.887s0-.394,0-.394V17.59a.166.166,0,1,1,.332-.016.178.178,0,0,1,0,.04" transform="translate(-12.598 -7.167)" fill="#ac9afc"/>
              <path id="Trazado_876410" data-name="Trazado 876410" d="M15.9,20.479l-.04.106a2.362,2.362,0,0,0-.1.294,3.208,3.208,0,0,0-.109,1.083,4.465,4.465,0,0,0,.382,1.508,6.822,6.822,0,0,0,.416.778,7.975,7.975,0,0,0,.551.73,9.857,9.857,0,0,0,1.276,1.233,13.981,13.981,0,0,0,1.254.9l.938.591c.232.141.366.228.366.228a.169.169,0,0,1-.108.311,3.36,3.36,0,0,1-.445-.081,4.646,4.646,0,0,1-1.116-.415,6.361,6.361,0,0,1-1.383-.963,7.815,7.815,0,0,1-1.259-1.465,8.443,8.443,0,0,1-.485-.841,7.477,7.477,0,0,1-.371-.867,5.7,5.7,0,0,1-.323-1.636,4.069,4.069,0,0,1,.115-1.185,2.7,2.7,0,0,1,.094-.317l.036-.108a.165.165,0,0,1,.312.105l0,.006" transform="translate(-6.314 -8.336)" fill="#ac9afc"/>
              <path id="Trazado_876411" data-name="Trazado 876411" d="M7.072,29.246a3.108,3.108,0,0,0-.1.342,3.869,3.869,0,0,0-.1.912,4.492,4.492,0,0,0,.2,1.283,5.653,5.653,0,0,0,.268.68,5.773,5.773,0,0,0,.381.637,6.685,6.685,0,0,0,.464.591c.167.18.333.354.5.515.337.322.68.591.972.829l.724.574c.177.143.277.235.277.235a.173.173,0,0,1,.009.244.175.175,0,0,1-.151.054,2.435,2.435,0,0,1-.368-.092,3.956,3.956,0,0,1-.907-.413,5.287,5.287,0,0,1-1.095-.9,5.482,5.482,0,0,1-.5-.624,6.241,6.241,0,0,1-.421-.7,6.618,6.618,0,0,1-.531-1.529A6.256,6.256,0,0,1,6.564,30.5a5.22,5.22,0,0,1,.108-.98c.049-.236.082-.358.082-.358l0-.014a.165.165,0,1,1,.318.087l0,.014" transform="translate(-2.7 -11.945)" fill="#ac9afc"/>
              <path id="Trazado_876412" data-name="Trazado 876412" d="M9.322,32.233a1.469,1.469,0,0,0,.072.431,2.048,2.048,0,0,0,.522.8,3.806,3.806,0,0,1,.634.736,1.047,1.047,0,0,1,.14.477.216.216,0,0,1-.215.217l-.035,0a.961.961,0,0,1-.454-.225,2.227,2.227,0,0,1-.568-.891,9.252,9.252,0,0,1-.32-1.03c-.04-.136-.059-.272-.077-.347S9,32.277,9,32.277v0a.167.167,0,0,1,.321-.088.163.163,0,0,1,.006.048" transform="translate(-3.699 -13.195)" fill="#ac9afc"/>
              <path id="Trazado_876413" data-name="Trazado 876413" d="M3.038,44.927A3.687,3.687,0,0,0,3,45.3a3.355,3.355,0,0,0,.076.956A4.07,4.07,0,0,0,3.6,47.509a4.93,4.93,0,0,0,.462.61,5.044,5.044,0,0,0,.576.52,5.9,5.9,0,0,0,.657.431c.227.12.452.232.676.329a12.161,12.161,0,0,0,1.263.438l.933.262c.23.064.365.107.365.107a.171.171,0,0,1,.109.215.174.174,0,0,1-.122.114,2.782,2.782,0,0,1-.4.056,3.889,3.889,0,0,1-1.05-.042,5.252,5.252,0,0,1-2.15-.9,5.82,5.82,0,0,1-.663-.56,5.459,5.459,0,0,1-.566-.673,5.564,5.564,0,0,1-.437-.713,5.438,5.438,0,0,1-.484-1.386,4.511,4.511,0,0,1-.087-1.04,3.754,3.754,0,0,1,.026-.386l0-.018a.164.164,0,0,1,.325.047v.006" transform="translate(-1.104 -18.41)" fill="#ac9afc"/>
              <path id="Trazado_876414" data-name="Trazado 876414" d="M6.045,47.5a1.932,1.932,0,0,0,.3.319,2.3,2.3,0,0,0,.833.447,4.887,4.887,0,0,1,.861.308,1.141,1.141,0,0,1,.354.3l0,0a.217.217,0,0,1-.05.3l-.022.014a.857.857,0,0,1-.511.07,1.9,1.9,0,0,1-.933-.5c-.284-.27-.552-.527-.744-.729s-.33-.322-.33-.322l-.008-.008a.166.166,0,1,1,.229-.24.149.149,0,0,1,.022.026" transform="translate(-2.363 -19.52)" fill="#ac9afc"/>
              <path id="Trazado_876415" data-name="Trazado 876415" d="M9.112,61.95a1.953,1.953,0,0,0,.166.119,3.083,3.083,0,0,0,1.178.464,2.942,2.942,0,0,0,.835.036,1.231,1.231,0,0,0,.638-.221.851.851,0,0,0,.189-.192,1.894,1.894,0,0,0,.151-.224c.089-.154.162-.3.219-.416s.094-.182.094-.182l0,0a.188.188,0,0,1,.255-.071.193.193,0,0,1,.072.074.862.862,0,0,1,.074.232,1.312,1.312,0,0,1-.04.645,1.408,1.408,0,0,1-.206.413,1.445,1.445,0,0,1-.4.364,1.62,1.62,0,0,1-1.066.169,5.718,5.718,0,0,1-.916-.244,6.751,6.751,0,0,1-.741-.314c-.213-.1-.379-.2-.5-.267l-.182-.107-.008,0a.166.166,0,0,1,.168-.285l.022.015" transform="translate(-3.638 -25.201)" fill="#ac9afc"/>
              <path id="Trazado_876416" data-name="Trazado 876416" d="M16.907,69.51a.757.757,0,0,0,.082.041.615.615,0,0,0,.2.052.748.748,0,0,0,.3-.035.837.837,0,0,0,.3-.168,3.984,3.984,0,0,1,.415-.376.927.927,0,0,1,.2-.084.749.749,0,0,1,.111-.028l.041-.007a.236.236,0,0,1,.258.144.537.537,0,0,1-.049.445,1.015,1.015,0,0,1-.769.455,2.8,2.8,0,0,1-.846-.044,2.12,2.12,0,0,1-.265-.065.755.755,0,0,0-.089-.024.167.167,0,1,1,.06-.33.172.172,0,0,1,.057.022" transform="translate(-6.853 -28.357)" fill="#ac9afc"/>
            </g>
          </g>
        </g>
      </g>
    </g>
    <g id="Enmascarar_grupo_1098788" data-name="Enmascarar grupo 1098788" transform="translate(205.5 913.766) rotate(180)" clip-path="url(#clip-path-4)">
      <path id="Trazado_874547" data-name="Trazado 874547" d="M0,0A15.405,15.405,0,0,1,15.405,15.405H0Z" transform="translate(15.405 15.405) rotate(180)" fill="#fcc59a"/>
      <g id="Grupo_1101021" data-name="Grupo 1101021" transform="translate(20.136 24.126) rotate(180)" opacity="0.3" style="mix-blend-mode: multiply;isolation: isolate">
        <g id="Grupo_1101020" data-name="Grupo 1101020" clip-path="url(#clip-path-5)">
          <path id="Trazado_876417" data-name="Trazado 876417" d="M6.136,17.524c-.085.57-.191,1.143-.3,1.71s-.206,1.136-.295,1.7a15.861,15.861,0,0,0-.231,3.412,7.236,7.236,0,0,0,.942,3.223,9.556,9.556,0,0,0,2.213,2.577,12.883,12.883,0,0,0,1.39,1c.486.3.994.572,1.507.828,1.033.5,2.081.979,3.11,1.515a4.351,4.351,0,0,1,.772.5,1.824,1.824,0,0,1,.587.8,1.229,1.229,0,0,1,.047.53,1.136,1.136,0,0,1-.026.131c-.011.049-.027.086-.041.13a1.469,1.469,0,0,1-.116.232,2.181,2.181,0,0,1-.69.664,6.415,6.415,0,0,1-3.421.908A8.858,8.858,0,0,1,9.829,37.2c-.147-.03-.281-.063-.435-.1l-.416-.121c-.138-.043-.278-.073-.416-.126L8.146,36.7a12.737,12.737,0,0,1-1.6-.728c-.133-.062-.255-.142-.382-.215l-.381-.218c-.251-.151-.493-.315-.742-.472a10.587,10.587,0,0,1-2.51-2.454A12.761,12.761,0,0,1,.839,29.542c-.116-.27-.191-.554-.283-.832-.022-.072-.044-.134-.067-.215l-.052-.21-.1-.421C.266,27.583.224,27.287.167,27s-.072-.581-.109-.871a15.365,15.365,0,0,1,.093-3.5,12.341,12.341,0,0,1,1.021-3.36A13.458,13.458,0,0,1,3.038,16.3l0-.006a.139.139,0,0,1,.075-.047c.161-.04.315-.069.474-.1s.317-.046.477-.06a4.22,4.22,0,0,1,.968.016,2.406,2.406,0,0,1,.243.051,1.793,1.793,0,0,1,.238.084,1.19,1.19,0,0,1,.224.128.912.912,0,0,1,.192.18.591.591,0,0,1,.076.108.569.569,0,0,1,.06.117,1.049,1.049,0,0,1,.072.25l.015.127c0,.042,0,.084,0,.126a2.191,2.191,0,0,1-.022.247Zm-.2-.031a1.959,1.959,0,0,0,.014-.22c0-.036,0-.073,0-.109l-.015-.106a.825.825,0,0,0-.062-.2.385.385,0,0,0-.049-.09.406.406,0,0,0-.06-.082.7.7,0,0,0-.153-.136.968.968,0,0,0-.185-.1,1.565,1.565,0,0,0-.206-.068A2.183,2.183,0,0,0,5,16.345a3.491,3.491,0,0,0-.9.014c-.151.02-.3.045-.452.077s-.3.067-.442.109l.08-.053a14.028,14.028,0,0,0-1.7,2.954A16.637,16.637,0,0,0,.6,22.7a11.927,11.927,0,0,0-.211,3.4c.036.282.065.567.107.847s.094.555.167.834l.11.419.055.21.066.2c.094.269.172.542.29.8a12.17,12.17,0,0,0,1.7,2.939,16.151,16.151,0,0,0,2.388,2.417c.227.171.451.348.683.513s.476.315.728.448a10.322,10.322,0,0,0,1.561.69l.4.134c.132.047.278.074.416.111l.42.1c.127.025.275.056.412.078a9.332,9.332,0,0,0,1.687.136,6.02,6.02,0,0,0,3.184-.868,1.752,1.752,0,0,0,.548-.528.753.753,0,0,0,.11-.316.761.761,0,0,0-.037-.325,1.316,1.316,0,0,0-.457-.556,4.132,4.132,0,0,0-.7-.415c-1.032-.508-2.069-1.027-3.065-1.631-.5-.3-.99-.613-1.473-.938a16.956,16.956,0,0,1-1.406-1.04,10.577,10.577,0,0,1-2.3-2.634,7.134,7.134,0,0,1-.718-1.616,7.95,7.95,0,0,1-.3-1.739,13.745,13.745,0,0,1,.311-3.48c.109-.569.232-1.135.35-1.7s.219-1.129.308-1.7Z" transform="translate(0 -13.261)" fill="#fcc59a"/>
          <path id="Trazado_876418" data-name="Trazado 876418" d="M34.122,25.505s.006.421.017,1.158c.011.367.021.812.069,1.316a9.124,9.124,0,0,0,.3,1.662,5.744,5.744,0,0,0,.868,1.788,5.7,5.7,0,0,0,.715.831c.275.256.579.492.886.731s.613.493.918.753.626.522.964.759.677.477,1.024.708.7.456,1.057.679a9.726,9.726,0,0,0,2.23,1.133c.387.146.758.315,1.127.482l.555.242a4.58,4.58,0,0,1,.559.281,1.958,1.958,0,0,1,.5.415,1.349,1.349,0,0,1,.178.286,1.323,1.323,0,0,1,.061.165l.017.07.015.088a1.464,1.464,0,0,1-.408,1.159,2.625,2.625,0,0,1-.955.618,4.045,4.045,0,0,1-.5.159,4.35,4.35,0,0,1-.5.093A6.049,6.049,0,0,1,42.031,41a5.569,5.569,0,0,1-2.068-.862l-.249-.184a.1.1,0,0,1,.107-.168l.005,0,.262.143a6.313,6.313,0,0,0,.766.336,5.932,5.932,0,0,0,1.249.312,6.062,6.062,0,0,0,.786.066,6.912,6.912,0,0,0,.869-.053c.146-.023.294-.038.46-.07a3.662,3.662,0,0,0,.468-.095,1.769,1.769,0,0,0,.846-.447,1.082,1.082,0,0,0,.31-.879l-.01-.053-.02-.069c-.012-.024-.025-.071-.044-.1a.924.924,0,0,0-.136-.2,1.593,1.593,0,0,0-.418-.314,9.7,9.7,0,0,0-1.09-.447,8.412,8.412,0,0,1-1.132-.517c-.713-.45-1.481-.8-2.233-1.2A21.393,21.393,0,0,1,38.6,34.864l-1.021-.712a7.41,7.41,0,0,1-.941-.781,11.074,11.074,0,0,1-.787-.891c-.244-.3-.489-.589-.7-.89a8.226,8.226,0,0,1-.565-.92,6.005,6.005,0,0,1-.392-.931,7.257,7.257,0,0,1-.319-1.731,12.3,12.3,0,0,1-.022-1.346c.009-.372.033-.662.046-.86s.022-.3.022-.3a.1.1,0,0,1,.2.006" transform="translate(-27.93 -20.966)" fill="#fcc59a"/>
          <path id="Trazado_876419" data-name="Trazado 876419" d="M26.119,14.746a2.564,2.564,0,0,1,.308-.03,7.949,7.949,0,0,1,.86.019,4.345,4.345,0,0,0,.584-.008l.073-.007.084-.013a1.443,1.443,0,0,0,.151-.035,1.5,1.5,0,0,0,.31-.125,1.089,1.089,0,0,0,.487-.481.637.637,0,0,0,.051-.342c0-.018,0-.039-.007-.054l-.011-.038a.379.379,0,0,0-.027-.082.707.707,0,0,0-.092-.168,1.828,1.828,0,0,0-.715-.531c-.293-.14-.629-.252-.966-.382s-.68-.272-1.039-.4-.731-.247-1.1-.4a10.011,10.011,0,0,1-2.124-1.24c-.17-.127-.336-.261-.5-.4l-.123-.114-.11-.11c-.073-.077-.148-.142-.219-.228a6,6,0,0,1-.766-1.041C20.8,7.8,20.5,7.008,20.115,6.262a7.743,7.743,0,0,1-.4-1.169l-.157-.584L19.48,4.22l-.038-.143c-.015-.065-.023-.095-.033-.157a4.5,4.5,0,0,1,.012-1.212c.026-.193.056-.382.1-.571s.109-.368.155-.534a1.472,1.472,0,0,0,.066-.475.7.7,0,0,0-.044-.2A.32.32,0,0,0,19.68.886L19.652.83c-.015-.02-.029-.042-.051-.067a.863.863,0,0,0-.673-.273,1.221,1.221,0,0,0-.688.268,1.809,1.809,0,0,0-.272.257,2.818,2.818,0,0,0-.218.29c-.261.4-.468.814-.633,1.129a5.331,5.331,0,0,0-.33.759c-.061.18-.083.279-.083.279a.1.1,0,0,1-.2-.03v0a2.845,2.845,0,0,1,.047-.308,5.043,5.043,0,0,1,.261-.833c.07-.173.154-.36.245-.562a6.116,6.116,0,0,1,.329-.658,3.242,3.242,0,0,1,.243-.35A2.267,2.267,0,0,1,17.954.4a1.638,1.638,0,0,1,.954-.4,1.181,1.181,0,0,1,1.034.518,1.079,1.079,0,0,1,.081.151l.022.061a.72.72,0,0,1,.025.083,1.147,1.147,0,0,1,.031.31,2.226,2.226,0,0,1-.108.57c-.052.181-.113.348-.149.516a3.9,3.9,0,0,0-.081.535,4.022,4.022,0,0,0,.029,1.092c.005.035.025.1.033.131l.044.141.089.284.185.57c.128.381.257.764.366,1.157.049.2.109.395.168.592a4.7,4.7,0,0,0,.235.57,6.671,6.671,0,0,0,.622,1.063c.057.085.118.167.18.248s.12.165.188.241l.193.235.2.22c.063.074.147.145.219.217l.112.108.108.095c.152.131.31.253.473.37a20.162,20.162,0,0,0,2.082,1.14c.341.189.674.383,1.008.556a10.709,10.709,0,0,0,1.011.437c.168.064.33.129.5.186s.332.117.492.187a2.152,2.152,0,0,1,.858.6.978.978,0,0,1,.139.235.693.693,0,0,1,.045.135l.017.072c0,.022,0,.038.008.058a.979.979,0,0,1-.073.517,1.33,1.33,0,0,1-.647.639,1.907,1.907,0,0,1-.57.181l-.085.011-.094.007a4.132,4.132,0,0,1-.627-.022c-.369-.036-.647-.074-.838-.078a2.488,2.488,0,0,0-.292,0,.1.1,0,0,1-.029-.2Z" transform="translate(-13.622 0)" fill="#fcc59a"/>
          <path id="Trazado_876420" data-name="Trazado 876420" d="M26.107,55.806l-.064.017c-.042.011-.106.027-.192.047a6.546,6.546,0,0,1-.74.122,8.87,8.87,0,0,1-1.159.043c-.23-.008-.458-.029-.708-.045s-.514-.063-.785-.109-.553-.1-.838-.183c-.143-.04-.291-.072-.436-.12l-.443-.146c-.151-.045-.3-.114-.448-.171s-.3-.119-.452-.192l-.455-.212-.452-.241a12.552,12.552,0,0,1-1.755-1.2,12.258,12.258,0,0,1-1.563-1.546c-.115-.144-.239-.283-.347-.432l-.325-.449c-.2-.315-.4-.605-.573-.936A11.663,11.663,0,0,1,13.5,48.1a13.266,13.266,0,0,1-.495-1.938,12.456,12.456,0,0,1-.177-1.782c-.012-.277-.009-.543,0-.8s.03-.491.045-.715a11.367,11.367,0,0,1,.166-1.151c.056-.317.123-.561.166-.728l.068-.255a.113.113,0,0,1,.222.043v.006l-.032.258c-.022.168-.057.412-.084.726-.016.156-.033.329-.042.518s-.031.392-.029.61-.017.45-.006.694q0,.183.007.375c0,.128.014.259.021.392a14.789,14.789,0,0,0,.2,1.713A13.556,13.556,0,0,0,14,47.935l.163.477.19.475c.06.161.138.315.208.474l.108.238.12.23c.084.154.153.309.251.463l.275.458.3.441c.1.147.214.285.32.428a11.891,11.891,0,0,0,1.459,1.552,12.154,12.154,0,0,0,1.68,1.209,10.457,10.457,0,0,0,1.751.832l.432.149c.142.049.286.082.426.122.278.085.555.131.819.189s.519.077.762.107.487.038.7.045a7.559,7.559,0,0,0,1.129-.048,6.338,6.338,0,0,0,.714-.126c.08-.019.142-.035.185-.047l.064-.017a.113.113,0,1,1,.059.218h0" transform="translate(-10.581 -33.547)" fill="#fcc59a"/>
          <path id="Trazado_876421" data-name="Trazado 876421" d="M52.133,82.958,52,82.986c-.089.017-.215.048-.385.073s-.372.057-.606.088l-.374.036-.416.024c-.29.009-.605.014-.938-.006s-.683-.054-1.044-.1a10.518,10.518,0,0,1-2.21-.584,10.229,10.229,0,0,1-1.059-.5,8.973,8.973,0,0,1-.958-.61,9.2,9.2,0,0,1-.818-.679,8.175,8.175,0,0,1-.654-.692c-.091-.116-.182-.224-.261-.333l-.219-.312c-.128-.2-.236-.38-.314-.533s-.136-.274-.174-.357l-.057-.128a.114.114,0,0,1,.194-.116l0,0,.322.411c.1.13.228.285.375.46l.238.275.271.3c.2.2.4.421.642.635s.493.436.766.653.574.418.884.618a10.794,10.794,0,0,0,.98.535,10.32,10.32,0,0,0,1.041.417,10.132,10.132,0,0,0,1.055.272,7.935,7.935,0,0,0,1.012.137c.324.027.632.028.916.026l.407-.022.366-.034c.229-.028.428-.058.589-.092s.291-.062.378-.081l.134-.031a.113.113,0,0,1,.051.221h0" transform="translate(-34.248 -64.545)" fill="#fcc59a"/>
          <path id="Trazado_876422" data-name="Trazado 876422" d="M44.373,50.664l-.5-.045-.263-.025-.311-.045-.354-.051c-.125-.019-.252-.051-.387-.077s-.276-.053-.421-.085l-.444-.118-.232-.062-.233-.077-.484-.156c-.319-.13-.658-.247-.982-.411-.335-.143-.656-.327-.982-.5-.313-.2-.632-.39-.921-.615a9.388,9.388,0,0,1-.83-.684c-.127-.12-.243-.247-.362-.366l-.174-.179-.157-.186-.3-.362c-.092-.119-.17-.243-.249-.358s-.157-.224-.219-.336L35.4,45.6l-.147-.281c-.042-.088-.073-.174-.105-.248-.123-.3-.182-.476-.182-.476a.114.114,0,0,1,.2-.1l0,.007s.109.147.281.411l.141.217.179.247.2.284c.072.1.153.2.233.3l.253.329.288.337.148.178.164.172.338.354c.245.225.487.469.761.688.261.234.558.432.844.646.3.191.6.393.912.555.306.177.629.306.935.45a9.7,9.7,0,0,0,.916.324l.433.126c.141.035.279.063.411.093s.258.059.38.077l.344.05.3.044.263.019.5.034a.113.113,0,0,1-.015.226h0" transform="translate(-28.85 -36.679)" fill="#fcc59a"/>
          <path id="Trazado_876423" data-name="Trazado 876423" d="M28.876,30.308a.2.2,0,0,0,0-.4.2.2,0,0,0,0,.4" transform="translate(-23.669 -24.68)" fill="#fcc59a"/>
          <path id="Trazado_876424" data-name="Trazado 876424" d="M26.16,36.389a.2.2,0,0,0,0-.4.2.2,0,0,0,0,.4" transform="translate(-21.428 -29.698)" fill="#fcc59a"/>
          <path id="Trazado_876425" data-name="Trazado 876425" d="M24.213,33.183a.2.2,0,0,0,0-.4.2.2,0,0,0,0,.4" transform="translate(-19.821 -27.053)" fill="#fcc59a"/>
          <path id="Trazado_876426" data-name="Trazado 876426" d="M79.406,122.562a.2.2,0,0,0,0-.4.2.2,0,0,0,0,.4" transform="translate(-65.368 -100.81)" fill="#fcc59a"/>
          <path id="Trazado_876427" data-name="Trazado 876427" d="M73.135,124.349a.2.2,0,0,0,0-.4.2.2,0,0,0,0,.4" transform="translate(-60.193 -102.285)" fill="#fcc59a"/>
          <path id="Trazado_876428" data-name="Trazado 876428" d="M72.277,119.537a.2.2,0,0,0,0-.4.2.2,0,0,0,0,.4" transform="translate(-59.485 -98.314)" fill="#fcc59a"/>
          <path id="Trazado_876429" data-name="Trazado 876429" d="M70.89,89.491a.2.2,0,0,0,0-.4.2.2,0,0,0,0,.4" transform="translate(-58.34 -73.519)" fill="#fcc59a"/>
          <path id="Trazado_876430" data-name="Trazado 876430" d="M63.222,89.331a.2.2,0,0,0,0-.4.2.2,0,0,0,0,.4" transform="translate(-52.012 -73.387)" fill="#fcc59a"/>
          <path id="Trazado_876431" data-name="Trazado 876431" d="M60.836,84.2a.2.2,0,0,0,0-.4.2.2,0,0,0,0,.4" transform="translate(-50.043 -69.152)" fill="#fcc59a"/>
          <path id="Trazado_876432" data-name="Trazado 876432" d="M77.272,73.226a.2.2,0,0,0,0-.4.2.2,0,0,0,0,.4" transform="translate(-63.607 -60.097)" fill="#fcc59a"/>
          <path id="Trazado_876433" data-name="Trazado 876433" d="M72.489,72.647a.2.2,0,0,0,0-.4.2.2,0,0,0,0,.4" transform="translate(-59.66 -59.619)" fill="#fcc59a"/>
          <path id="Trazado_876434" data-name="Trazado 876434" d="M25.92,4.68s-.02,0-.053,0a.607.607,0,0,0-.134.02.691.691,0,0,0-.346.2,1.042,1.042,0,0,0-.125.171c-.034.058-.058.116-.08.165l-.072.171a.03.03,0,0,1-.056,0h0a.33.33,0,0,1-.007-.057.452.452,0,0,1,.016-.15.637.637,0,0,1,.091-.193.741.741,0,0,1,.166-.177,1.068,1.068,0,0,1,.4-.185,1.189,1.189,0,0,1,.144-.02l.054,0a.028.028,0,0,1,0,.057h0" transform="translate(-20.669 -3.815)" fill="#fcc59a"/>
          <path id="Trazado_876435" data-name="Trazado 876435" d="M27.344,6.7a.251.251,0,0,0-.093.023.325.325,0,0,0-.156.132,1.3,1.3,0,0,0-.087.175.485.485,0,0,1-.05.083v0a.033.033,0,0,1-.055-.005.16.16,0,0,1-.011-.031.181.181,0,0,1,0-.085.281.281,0,0,1,.045-.109.407.407,0,0,1,.089-.1.794.794,0,0,1,.21-.115.98.98,0,0,1,.1-.027h0a.028.028,0,1,1,.01.056h0" transform="translate(-22.184 -5.484)" fill="#fcc59a"/>
          <path id="Trazado_876436" data-name="Trazado 876436" d="M25.4,113.675l-.188-.088c-.118-.057-.292-.137-.493-.242-.1-.05-.211-.108-.325-.171l-.358-.2c-.246-.144-.5-.3-.758-.472-.125-.087-.251-.174-.37-.265s-.235-.183-.345-.275-.213-.184-.308-.274-.183-.178-.259-.264a3.778,3.778,0,0,1-.348-.43c-.077-.11-.117-.175-.117-.175a.057.057,0,0,1,.085-.075h0s.06.047.158.136.236.214.4.367l.263.247c.091.09.192.18.294.275l.324.284c.109.1.227.19.342.286.233.188.474.365.709.52s.462.286.661.392.367.186.488.238l.19.083a.057.057,0,0,1-.045.1h0" transform="translate(-17.758 -91.378)" fill="#fcc59a"/>
          <path id="Trazado_876437" data-name="Trazado 876437" d="M29.69,113.92s-.133-.081-.338-.2l-.352-.2c-.128-.073-.267-.149-.4-.233a3.161,3.161,0,0,1-.382-.278,1.781,1.781,0,0,1-.283-.305,1.1,1.1,0,0,1-.143-.26.9.9,0,0,1-.035-.108.059.059,0,0,1,.094-.061l0,0a.927.927,0,0,1,.081.072c.049.046.116.114.194.194.155.161.359.379.591.581a4.259,4.259,0,0,0,.354.283c.118.084.235.155.334.216.2.119.341.188.341.188a.057.057,0,1,1-.051.1l0,0" transform="translate(-22.901 -92.65)" fill="#fcc59a"/>
        </g>
      </g>
    </g>
    <circle id="Elipse_11555" data-name="Elipse 11555" cx="6.834" cy="6.834" r="6.834" transform="translate(220.666 888.801)" fill="#87de87"/>
  </g>
</svg>
