<svg xmlns="http://www.w3.org/2000/svg" xmlns:xlink="http://www.w3.org/1999/xlink" width="365.285" height="414.823" viewBox="0 0 365.285 414.823">
  <defs>
    <linearGradient id="linear-gradient" x1="-0.006" y1="0.956" x2="0.978" y2="0.092" gradientUnits="objectBoundingBox">
      <stop offset="0" stop-color="#f6f4fe"/>
      <stop offset="0.516" stop-color="#e4defb"/>
      <stop offset="1" stop-color="#f6f4fe"/>
    </linearGradient>
    <clipPath id="clip-path">
      <rect id="Rectángulo_402134" data-name="Rectángulo 402134" width="333.335" height="407.928" rx="20" transform="translate(25 -206.832)" opacity="0.38" fill="url(#linear-gradient)"/>
    </clipPath>
    <clipPath id="clip-path-2">
      <path id="Trazado_878018" data-name="Trazado 878018" d="M0,0,673.327,66.216,736.85,785.5,63.523,719.287Z" fill="#ac9afc"/>
    </clipPath>
    <clipPath id="clip-path-3">
      <path id="Trazado_878018-2" data-name="Trazado 878018" d="M11.586,12.486,731.993,0,720.406,666.643,0,679.13Z" fill="#ac9afc"/>
    </clipPath>
    <linearGradient id="linear-gradient-2" x1="0.757" y1="0.582" x2="0.018" y2="1.051" gradientUnits="objectBoundingBox">
      <stop offset="0" stop-color="#ac9afc"/>
      <stop offset="1" stop-color="#ded6fd"/>
    </linearGradient>
    <clipPath id="clip-path-4">
      <rect id="Rectángulo_401216" data-name="Rectángulo 401216" width="16.561" height="14.591" fill="none" stroke="#567d56" stroke-width="1"/>
    </clipPath>
    <linearGradient id="linear-gradient-3" x1="0.264" y1="0.417" x2="1.135" y2="0.54" gradientUnits="objectBoundingBox">
      <stop offset="0" stop-color="#ac9afc"/>
      <stop offset="1" stop-color="#554c7d"/>
    </linearGradient>
    <linearGradient id="linear-gradient-6" x1="0.264" y1="0.417" x2="1.135" y2="0.54" gradientUnits="objectBoundingBox">
      <stop offset="0" stop-color="#fcc59a"/>
      <stop offset="1" stop-color="#af886b"/>
    </linearGradient>
    <linearGradient id="linear-gradient-7" x1="0.264" y1="0.417" x2="1.135" y2="0.54" gradientUnits="objectBoundingBox">
      <stop offset="0" stop-color="#87de87"/>
      <stop offset="1" stop-color="#426e42"/>
    </linearGradient>
  </defs>
  <g id="img-15-m" transform="translate(16022.477 665.206)">
    <g id="Enmascarar_grupo_1098810" data-name="Enmascarar grupo 1098810" transform="translate(-16034.627 -458.374)" opacity="0.17" clip-path="url(#clip-path)">
      <g id="Rectángulo_402182" data-name="Rectángulo 402182" transform="translate(-32.63 -322.652)" fill="#e8e8e8" stroke="#707070" stroke-width="1">
        <rect width="1145.368" height="731.652" stroke="none"/>
        <rect x="0.5" y="0.5" width="1144.368" height="730.652" fill="none"/>
      </g>
      <rect id="Rectángulo_402133" data-name="Rectángulo 402133" width="593.354" height="539.492" transform="translate(0 -155.524)" fill="#e6f8e6" opacity="0.38"/>
      <g id="Grupo_1101058" data-name="Grupo 1101058" transform="translate(329.454 700.235) rotate(-150)" opacity="0.25" style="isolation: isolate">
        <g id="Grupo_1101057" data-name="Grupo 1101057" clip-path="url(#clip-path-2)">
          <path id="Trazado_878017" data-name="Trazado 878017" d="M605.418,152.2c-6.179-33.075-11.327-66.884-33.257-94.689-7.945,34.891-24.539,64.546-41.541,94.2a1282.1,1282.1,0,0,1-74.338,115.558c-52.4,72.5-113.907,132.7-177.572,192.514-11.1,10.4-32.089-13.29-21.64-24.8,57.118-63.217,106.6-136.219,154.325-208.821,24.052-36.577,47.148-74.085,68.883-112.638,16.889-29.948,32.1-61.046,54.033-85.968-18.79-8.407-38.916-10.413-58.958-11.565q-35.241-1.934-70.462-3.416A698.2,698.2,0,0,0,236.5.942c-9.514.508-16.15,4.2-20.577,9.625-34.376,18.829-20.564,87.939,30.424,99.407q32.049,7.153,64.1,14.364C219.515,165.1,136.4,221,62.338,291.091c-33.549,31.774,10.938,93.638,50.97,89.162a780.85,780.85,0,0,0,85.1-14.338A2628.491,2628.491,0,0,0,9.466,594.871C-20.779,635.99,27.153,705.655,73,682.42c108.612-55.142,204.8-129.7,289.581-217.914-11.39,46.513-21.324,93.7-29.3,141.681-5.822,34.659,28.858,78.905,61.82,69.49,78.8-22.631,95.254-149.591,105.184-234.785A446.079,446.079,0,0,0,517.581,513c13.628,40.926,55.941,54.71,80.49,31.644,89.91-84.584,30.589-268.442,7.347-392.442m-363.4,115.751a268.316,268.316,0,0,0-50.048,27.017c-14.466,10.111-32.15-15.818-19.229-27.618A186.5,186.5,0,0,1,226.3,232.526a168.279,168.279,0,0,1,28.6-9.518c10.8-2.442,22.729-5.715,34.271-5.073,4.885.3,11.131,2.759,14.213,8.155,2.583,4.537,3.85,7.92,3.808,12.727a12.844,12.844,0,0,1-8.444,12.09c-9.394,3.214-19.744,4.38-29.3,7.4-9.256,2.9-18.51,5.91-27.423,9.643M444.835,450.012c.176,4.059.3,8.051.379,12.038.288,15.661-.1,31.111-1.092,46.46-.424,6.43-5.945,11.24-12.171,9.285a16.089,16.089,0,0,1-10.78-15.526q.982-22.52.071-45.442l-.368-8.286c-.006-.111-.087-.849-.112-1.358s-.14-2.034-.147-2.207c-.035-.844-.074-1.689-.161-2.543-.238-3-.729-6.156-.2-8.93.156-1.094.512-2.217.668-3.315,0-.053.02-.667.005-1.061-.033-1.852.085-3.738.156-5.576.056-4.467.086-8.382,1.638-12.341,1.961-4.962,9.6-6.712,13.279-.27a34.99,34.99,0,0,1,3.4,6.841c.653,2.116,1,4.351,1.455,6.491s.848,4.275,1.25,6.405c.128.638.26,1.329.392,2.02.059.177.4,1.07.523,1.535,1.75,5.138,1.588,10.6,1.817,15.78m131.2-147.861a13.02,13.02,0,0,1-.291,1.411c-.09.321-.123.71-.209,1.031l-.045.163a10.735,10.735,0,0,1-5.414,7.233,11.176,11.176,0,0,1-9.061.408,4.755,4.755,0,0,1-.824-.292c-.568-.254-1.082-.388-1.654-.642a18.794,18.794,0,0,1-6.524-4.128c-.794-.8-1.492-1.63-2.389-2.383a35.406,35.406,0,0,1-4.309-4.518c-.588-.7-1.181-1.468-1.769-2.173a30.686,30.686,0,0,1-2.706-3.828c-2.528-4.36-5.685-9.262-7.612-13.81-3.171-7.483-6.566-15.389-7.976-23.214-1.159-6.726,1.56-12.864,6.516-15.52,4.909-2.612,11.6-1.536,16.629,3.15,5.925,5.5,10.757,12.667,15.418,19.425,2.765,4.005,5.018,9.1,7.342,13.436a41.815,41.815,0,0,1,4.237,13.241,25.268,25.268,0,0,0,.706,3.3,18.561,18.561,0,0,1-.066,7.715" transform="translate(58.638 36.891)" fill="#ac9afc"/>
        </g>
      </g>
      <g id="Grupo_1101141" data-name="Grupo 1101141" transform="matrix(-0.454, 0.891, -0.891, -0.454, 1467.367, -345.186)" opacity="0.25" style="isolation: isolate">
        <g id="Grupo_1101057-2" data-name="Grupo 1101057" transform="translate(0 0)" clip-path="url(#clip-path-3)">
          <path id="Trazado_878017-2" data-name="Trazado 878017" d="M707.42,113.857c-2.988-30.293-4.781-61.389-25.383-85-12.48,33.557-33.725,63.168-55.41,92.819-29.319,40.1-60.242,79-93.243,116.455C468.661,311.83,395.458,375.015,319.97,438.08c-13.162,10.967-33.2-8.9-20.625-20.829C368.136,351.723,429.765,277.876,489.451,204.6c30.078-36.919,59.227-74.6,87.021-113.117,21.6-29.917,41.51-60.727,68-86.495C625.1-.81,603.565-.462,582.03.677q-37.876,2.088-75.781,4.6c-59.684-3.907-119.881-1.152-180.713,7.741-10.341,1.529-17.925,5.721-23.316,11.291-39.258,21.439-32.038,84.637,21.794,89.736Q357.859,117.2,391.7,120.4A1310.212,1310.212,0,0,0,104.914,304.034c-39.808,33.471,1.376,86.49,45.146,77.868q47.447-9.377,93.587-22.845Q123.322,471.514,13.874,594.4c-37.279,41.858,6.758,101.8,58.905,74.968C196.328,605.7,308.615,525.235,410.1,433.23c-17.5,44.823-33.5,90.115-47.475,135.938-10.16,33.105,22.389,70.708,59.068,58.243,87.7-29.915,119.648-150.644,139.886-231.534a321.767,321.767,0,0,0,10.65,65.616c10.165,36.823,54.362,45.051,83.471,20.731,106.619-89.168,63.012-254.8,51.724-368.368m-405.7,148.62a398.336,398.336,0,0,0-57.11,30.841c-16.764,11.071-32.986-11.258-17.7-23.739a275.306,275.306,0,0,1,61.77-38.538,245.189,245.189,0,0,1,31.976-12.079c11.944-3.482,25.205-7.868,37.609-8.544,5.247-.264,11.724,1.352,14.453,6.065,2.286,3.964,3.278,6.991,2.7,11.5-.752,5.448-5.22,10.262-10.476,12.258-10.512,4.05-21.83,6.287-32.5,10.171-10.328,3.738-20.666,7.583-30.717,12.066M500.622,410.553c-.262,3.782-.57,7.507-.933,11.233-1.436,14.636-3.574,29.148-6.363,43.635-1.176,6.069-7.68,11.185-14.191,10.043-6.505-1.2-11.023-6.8-9.92-13.349q3.574-21.2,5.146-42.568l.527-7.72c.006-.1,0-.786.03-1.26s.076-1.89.087-2.05c.056-.787.108-1.574.109-2.364.078-2.787-.1-5.685.785-8.342.291-1.042.8-2.133,1.092-3.179,0-.049.1-.627.124-.994.171-1.731.509-3.51.791-5.239.559-4.19,1.028-7.86,3.147-11.74,2.674-4.864,11.12-7.348,14.383-1.722a23.622,23.622,0,0,1,2.907,6.031,52.6,52.6,0,0,1,.848,5.919c.248,1.954.44,3.91.636,5.86.067.583.132,1.216.2,1.848.044.16.316.957.394,1.38,1.319,4.618.534,9.751.2,14.579m158.305-153a12.8,12.8,0,0,1-.471,1.354c-.133.311-.212.678-.341.989l-.067.158a14.042,14.042,0,0,1-6.659,7.374,14.489,14.489,0,0,1-9.839,1.384,4.8,4.8,0,0,1-.858-.182c-.586-.175-1.126-.244-1.716-.419a15.964,15.964,0,0,1-6.591-3.145,26.941,26.941,0,0,0-2.316-1.968,25.582,25.582,0,0,1-4.154-3.755c-.557-.6-1.113-1.244-1.67-1.839a20.976,20.976,0,0,1-2.5-3.286c-2.246-3.8-5.111-8.046-6.687-12.092-2.593-6.658-5.38-13.687-6.031-20.859-.5-6.171,3.121-12.221,8.775-15.257,5.6-2.99,12.712-2.722,17.623,1.11,5.791,4.492,10.214,10.673,14.5,16.487,2.542,3.445,4.408,7.972,6.437,11.771a29.287,29.287,0,0,1,3.1,11.932,18.378,18.378,0,0,0,.4,3.009,15.736,15.736,0,0,1-.932,7.233" transform="translate(0.843 2.249)" fill="#ac9afc"/>
        </g>
      </g>
      <path id="Trazado_878245" data-name="Trazado 878245" d="M1151.464,1123.074c12,11.154,24.716,21.808,40.177,24.92,11.013,2.216,20.212,2.513,31.206-.39,4.922-1.3,9.821-4.007,14.288-6.61a51.63,51.63,0,0,0,8.646-6.987c10.28-9.428,18.69-34.931,34.666-23.388,7.365,5.321,13.3,13.5,20.621,19.095a110.762,110.762,0,0,0,29.278,16.035,49.439,49.439,0,0,0,7.764,2.1c5.43,1.028,11.624,2.357,17.286,1.9,10.848-.868,22.19-3.666,31.327-11.117a77.271,77.271,0,0,0,20.893-25.609c2.982-5.8,3.951-14.95,9.443-18.232,8.029-4.8,12.435,5.558,16.359,11.635a79.375,79.375,0,0,0,20.159,21.748c9.767,6.969,19.742,9.183,30.875,10.5a71.327,71.327,0,0,0,14.451.364c10.254-.893,18.689-2.818,27.808-8.53a44.332,44.332,0,0,0,10.681-9.547c6.142-7.578,8.3-13.436,11.427-23.068a38,38,0,0,0,.625-16.995,35.912,35.912,0,0,0-4.287-15.84c-4.378-8.834-12.946-17.253-21.528-19.556a34.79,34.79,0,0,0-21.73.853c-4.533,1.734-9.326,6.085-13.963,2.786-6.421-4.567-7.052-19.37-10.284-26.458a110.54,110.54,0,0,0-14.453-23.3c-5.432-6.72-12.036-12.811-19.207-16.689-10.1-5.464-20.787-9.608-32.122-8.527-10.493,1-21.256,3.769-29.955,11.265-8.389,7.229-15.147,14.923-20.434,25.7a124.439,124.439,0,0,0-8.731,24.973c-1.543,6.317-1.05,16.585-7.568,18.9-11.467,4.076-19.07-21.2-24.657-29.032-3.057-4.285-7.158-7.576-10.93-10.838a29.861,29.861,0,0,0-5.193-3.623c-5.964-3.277-11.9-6.373-18.413-7.528-6.768-1.2-13.27-2.468-20.058-1.506-4.673.662-9.521,1.142-14.094,2.626a76.51,76.51,0,0,0-13.213,6.272,29.818,29.818,0,0,0-4.478,3.042c-3.712,3.063-7.724,6.359-10.815,10.379-4.374,5.729-7.553,12.47-11.824,18.236-3.07,4.144-6.794,11.41-10.689,14.148-3.833,2.695-6.645-1.915-10.117-3.247a23.684,23.684,0,0,0-13.869-3.651A34,34,0,0,0,1151.4,1062.8c-6.287,8.13-10.95,18.8-10.509,30.15.408,10.5,3.249,23.312,10.572,30.12" transform="translate(-658.969 -815.373)" fill="url(#linear-gradient-2)"/>
    </g>
    <path id="Trazado_878222" data-name="Trazado 878222" d="M1777.077,513.4a10.731,10.731,0,0,0-2.79-2.73c-2.948-1.995-6.789-2.356-9.352.461-1.041,1.144-1.829,2.5-2.885,3.632a9.032,9.032,0,0,0-2.612,4.5,7.31,7.31,0,0,0,1.112,5.211c2.549,3.8,8.339,4.149,12.238,2.52a10.4,10.4,0,0,0,1.6-.833,9.187,9.187,0,0,0,4.253-6.149,8.939,8.939,0,0,0-1.564-6.613m-4.623,6.217a2.8,2.8,0,0,1-.533,1.248,4.261,4.261,0,0,1-2.31,1.471,3.36,3.36,0,0,1-3.121-.517,2.677,2.677,0,0,1-.829-1.929,4.43,4.43,0,0,1,3.341-4.133,2.7,2.7,0,0,1,1.532.3,3.52,3.52,0,0,1,1.921,3.557" transform="translate(-17778.676 -1136.537)" fill="#567d56"/>
    <path id="Trazado_878246" data-name="Trazado 878246" d="M17.736,4.3a10.73,10.73,0,0,0-2.79-2.73C12-.42,8.157-.782,5.594,2.035c-1.041,1.144-1.829,2.5-2.885,3.632A9.034,9.034,0,0,0,.1,10.169,7.31,7.31,0,0,0,1.209,15.38c2.549,3.8,8.339,4.149,12.238,2.52a10.4,10.4,0,0,0,1.6-.833A9.187,9.187,0,0,0,19.3,10.917,8.939,8.939,0,0,0,17.736,4.3M13.113,10.52a2.8,2.8,0,0,1-.533,1.248,4.261,4.261,0,0,1-2.31,1.472,3.36,3.36,0,0,1-3.121-.517,2.678,2.678,0,0,1-.829-1.929A4.43,4.43,0,0,1,9.66,6.66a2.693,2.693,0,0,1,1.532.3,3.52,3.52,0,0,1,1.921,3.557" transform="matrix(-0.899, 0.438, -0.438, -0.899, -15996.775, -591.033)" fill="#fcc59a"/>
    <g id="Grupo_1101140" data-name="Grupo 1101140" transform="translate(-15701.391 -390.206)">
      <ellipse id="Elipse_11585" data-name="Elipse 11585" cx="18.563" cy="18.967" rx="18.563" ry="18.967" transform="translate(0.078 0.84)" fill="#fff"/>
      <ellipse id="Elipse_11586" data-name="Elipse 11586" cx="6.053" cy="6.053" rx="6.053" ry="6.053" transform="translate(8.149 12.946)" fill="#d8f263"/>
      <g id="Grupo_1101139" data-name="Grupo 1101139" transform="matrix(-0.966, 0.259, -0.259, -0.966, 44.2, 25.174)">
        <path id="Trazado_878224" data-name="Trazado 878224" d="M32.205,11.88C27.284,10.078,22.039,7,16.693,8.874a19.153,19.153,0,0,0-8.448,6.467c-1.134,1.4-2.21,2.848-3.342,4.259a3.835,3.835,0,0,1-2.244,1.621C-.15,21.415-.26,16.016.216,14.148A15.259,15.259,0,0,1,1.924,9.706C7.479-.017,19.719-2.7,29.23,2.859A21.179,21.179,0,0,1,34.94,7.75c.109,1.7-.261,5.071-2.734,4.131m.046-.125c2.468.891,2.512-2.625,2.5-3.929A22.226,22.226,0,0,0,20.846.332,19.439,19.439,0,0,0,2.452,9.23C.638,12.224-.454,16.067.814,19.458c.284.771.91,1.579,1.806,1.45a3.648,3.648,0,0,0,2.013-1.523c3.3-4.183,6.757-8.878,12-10.7,5.4-1.959,10.683,1.216,15.623,3.072" transform="translate(0 0)" fill="#567d56"/>
        <path id="Trazado_878225" data-name="Trazado 878225" d="M26.724,1.021C23.3.229,19.725-.417,16.5,1.4A14.1,14.1,0,0,0,14.33,2.863,44.926,44.926,0,0,0,8.537,8.2a41.6,41.6,0,0,0-3.979,5.235,3.421,3.421,0,0,1-2.013,1.745,2.133,2.133,0,0,1-2.18-1.4c-1.06-2.93.31-6.5,2.508-8.551a.067.067,0,0,1,.093.1A9.564,9.564,0,0,0,.327,12.44c-.011,1.206.8,2.715,2.179,2.512.853-.163,1.365-.979,1.816-1.667a47.244,47.244,0,0,1,4.04-5.237c2.352-2.611,4.882-5.211,8.054-6.813A11.1,11.1,0,0,1,24.177.3c.869.161,1.726.371,2.578.591a.067.067,0,0,1-.031.13" transform="translate(5.029 10.855)" fill="#567d56"/>
        <path id="Trazado_878226" data-name="Trazado 878226" d="M.8,11.108c-.076,1.3-.891,2.516-.473,3.8A1.354,1.354,0,0,0,2.18,15.93a4.69,4.69,0,0,0,1.665-1.9c.708-1.106,1.422-2.2,2.165-3.288,2.759-3.9,5.16-5.195,9.8-5.995A27.492,27.492,0,0,1,19.749,4.4,8.169,8.169,0,0,1,22.3,5.12a9.017,9.017,0,0,0,1.162.57c1.383.5,2.153-1.19,1.546-2.285a5.531,5.531,0,0,0-1.714-1.854A9.488,9.488,0,0,0,21.137.129c-.083-.027-.027-.157.048-.124a8.847,8.847,0,0,1,2.261,1.351c1.032.734,2.283,1.837,2.071,3.282a1.616,1.616,0,0,1-1.441,1.39,4.2,4.2,0,0,1-1.871-.7A6.286,6.286,0,0,0,19.1,4.685l-.651.059a22.436,22.436,0,0,0-6.375,1.2A11.267,11.267,0,0,0,9.8,7.168,17.647,17.647,0,0,0,6.272,10.94a49.057,49.057,0,0,0-2.991,4.3c-1.522,2.1-3.627.709-3.233-1.6.146-.881.526-1.681.619-2.538a.067.067,0,0,1,.133.011" transform="translate(13.235 7.32)" fill="#567d56"/>
        <path id="Trazado_878227" data-name="Trazado 878227" d="M.015,16.825a14.675,14.675,0,0,1,2.591-8.6A18.43,18.43,0,0,1,18.113,0,20.711,20.711,0,0,1,26.97,1.968a.075.075,0,0,1-.061.138A23.343,23.343,0,0,0,18.114.353,19.184,19.184,0,0,0,9.423,2.382C4.142,5.069-.074,10.727.165,16.815a.075.075,0,1,1-.15.011" transform="translate(1.753 3.903)" fill="#567d56"/>
        <path id="Trazado_878228" data-name="Trazado 878228" d="M.007,14.751A15.236,15.236,0,0,1,5.969,2.144,13,13,0,0,1,10.279,0a.075.075,0,0,1,.047.143A17.712,17.712,0,0,0,6.18,2.427,14.694,14.694,0,0,0,.158,14.746a.075.075,0,1,1-.151.005" transform="translate(6.916 10.799)" fill="#567d56"/>
        <path id="Trazado_878229" data-name="Trazado 878229" d="M0,12.453A17.651,17.651,0,0,1,7.891,1.63,13.6,13.6,0,0,1,12.162,0,.075.075,0,0,1,12.2.147,17.479,17.479,0,0,0,1.807,8.287a17.33,17.33,0,0,0-1.658,4.2A.075.075,0,1,1,0,12.453" transform="translate(14.441 10.89)" fill="#567d56"/>
        <path id="Trazado_878230" data-name="Trazado 878230" d="M.515,1.067A.534.534,0,0,0,.515,0a.534.534,0,0,0,0,1.067" transform="translate(30.164 9.643)" fill="#567d56"/>
        <path id="Trazado_878231" data-name="Trazado 878231" d="M.515,1.067A.534.534,0,0,0,.515,0a.534.534,0,0,0,0,1.067" transform="translate(28.684 8.584)" fill="#567d56"/>
        <path id="Trazado_878232" data-name="Trazado 878232" d="M.515,1.067A.534.534,0,0,0,.515,0a.534.534,0,0,0,0,1.067" transform="translate(29.649 8.238)" fill="#567d56"/>
        <path id="Trazado_878233" data-name="Trazado 878233" d="M.515,1.067A.534.534,0,0,0,.515,0a.534.534,0,0,0,0,1.067" transform="translate(2.7 18.141)" fill="#567d56"/>
        <path id="Trazado_878234" data-name="Trazado 878234" d="M.515,1.067A.534.534,0,0,0,.515,0a.534.534,0,0,0,0,1.067" transform="translate(2.564 16.364)" fill="#567d56"/>
        <path id="Trazado_878235" data-name="Trazado 878235" d="M.515,1.067A.534.534,0,0,0,.515,0a.534.534,0,0,0,0,1.067" transform="translate(3.9 16.397)" fill="#567d56"/>
        <path id="Trazado_878236" data-name="Trazado 878236" d="M.515,1.067A.534.534,0,0,0,.515,0a.534.534,0,0,0,0,1.067" transform="translate(12.021 17.665)" fill="#567d56"/>
        <path id="Trazado_878237" data-name="Trazado 878237" d="M.515,1.067A.534.534,0,0,0,.515,0a.534.534,0,0,0,0,1.067" transform="translate(12.483 15.62)" fill="#567d56"/>
        <path id="Trazado_878238" data-name="Trazado 878238" d="M.515,1.067A.534.534,0,0,0,.515,0a.534.534,0,0,0,0,1.067" transform="translate(13.987 15.261)" fill="#567d56"/>
        <path id="Trazado_878239" data-name="Trazado 878239" d="M.515,1.067A.534.534,0,0,0,.515,0a.534.534,0,0,0,0,1.067" transform="translate(16.029 20.262)" fill="#567d56"/>
        <path id="Trazado_878240" data-name="Trazado 878240" d="M.515,1.067A.534.534,0,0,0,.515,0a.534.534,0,0,0,0,1.067" transform="translate(16.445 19.013)" fill="#567d56"/>
        <path id="Trazado_878241" data-name="Trazado 878241" d="M.875,1.583A1.076,1.076,0,0,0,.365.44,2.508,2.508,0,0,1,.023.146a.084.084,0,0,1,0-.119C.409-.105.771.272.909.595a1.917,1.917,0,0,1,.113,1.019.075.075,0,1,1-.147-.031" transform="translate(36.752 10.081)" fill="#567d56"/>
        <path id="Trazado_878242" data-name="Trazado 878242" d="M.5.86C.555.62.334.455.156.353A.414.414,0,0,1,.007.16C-.05-.043.278-.027.363.066A1.067,1.067,0,0,1,.651.874.076.076,0,1,1,.5.86" transform="translate(36.612 10.553)" fill="#567d56"/>
        <path id="Trazado_878243" data-name="Trazado 878243" d="M.016,5.039c1.5-2,3.231-4.033,5.582-5.034A.076.076,0,0,1,5.67.137,26.559,26.559,0,0,0,1.3,3.654,13.7,13.7,0,0,0,.139,5.126c-.053.082-.184-.005-.123-.086" transform="translate(4.066 3.604)" fill="#567d56"/>
        <path id="Trazado_878244" data-name="Trazado 878244" d="M.021,2.472C.907,1.563,1.66.2,3.033,0a.078.078,0,0,1,.084.071.079.079,0,0,1-.034.071c-.271.187-.537.342-.8.511A8.369,8.369,0,0,0,.135,2.571c-.061.078-.183-.024-.114-.1" transform="translate(5.9 5.19)" fill="#567d56"/>
      </g>
    </g>
    <path id="Trazado_878023" data-name="Trazado 878023" d="M10.089,7.547A5.5,5.5,0,0,0,8.636,1.19,5.166,5.166,0,0,0,5.483,0a5.829,5.829,0,0,0-3.3.892,4.454,4.454,0,0,0-1.6,5.942,3.893,3.893,0,0,0,3.1,1.805A3.959,3.959,0,0,0,6.9,7.267a2.81,2.81,0,0,0,.085-3.5A2.7,2.7,0,0,0,5.222,2.721a2.029,2.029,0,0,0-1.886.8,1.88,1.88,0,0,0-.355.989,1.049,1.049,0,0,0,.9,1.07A.909.909,0,0,0,4.92,4.762.344.344,0,0,1,4.925,4.7c0-.007,0-.015,0-.022l-.034.151c-.013-.036.036-.11.047-.146,0-.007.02-.058.027-.06.028-.006-.132.2-.063.125.013-.013.073-.127.092-.123s-.2.177-.082.084l.05-.043c.034-.028.074-.049.108-.077.072-.059-.118.084-.115.066a.237.237,0,0,1,.061-.028A.588.588,0,0,0,5.083,4.6c.137-.063-.168.022-.085.019A.723.723,0,0,0,5.132,4.6c.1-.026-.155.015-.134,0a.227.227,0,0,1,.069.006c.031.005.063.012.095.015.1.011-.124-.025-.121-.034s.153.052.167.057c.046.018.09.04.135.061.111.051-.2-.131-.107-.057.019.014.041.026.06.04.039.027.075.058.114.086.12.088-.172-.189-.04-.037.036.041.073.082.106.125.014.018.026.04.042.057C5.59,5,5.424,4.784,5.444,4.8c.071.058.109.214.146.292.066.143-.054-.21-.018-.059.011.045.024.09.033.136s.017.107.025.161c.03.191.006-.174,0-.034-.006.1-.019.2-.025.3-.006.085.024-.123.026-.124s-.015.058-.018.067c-.015.052-.032.1-.052.154s-.106.219-.022.06,0,0-.024.035a2.517,2.517,0,0,1-.191.27q-.044.055-.091.107a.307.307,0,0,0-.048.052c-.005.011.164-.159.092-.1s-.161.146-.249.212c-.047.036-.239.122-.252.17,0,0,.19-.1.11-.062l-.062.033c-.049.025-.1.049-.148.071a3.044,3.044,0,0,1-.285.111c-.045.015-.09.028-.136.041-.142.042.094-.028.1-.025-.011-.007-.079.017-.093.02q-.139.028-.282.043c-.055.006-.111.01-.166.013l-.071,0c-.129.008.088.005.105,0a1.914,1.914,0,0,1-.618-.074c-.15-.029.233.073.037.008-.046-.015-.092-.03-.138-.046-.108-.039-.209-.09-.314-.136s.134.079.124.071a.413.413,0,0,0-.064-.038q-.075-.045-.147-.095c-.091-.063-.174-.135-.261-.2s.115.106.1.095a.6.6,0,0,1-.074-.074Q2.432,6.2,2.38,6.142a3.347,3.347,0,0,1-.219-.291c.005,0,.113.19.07.107-.012-.022-.025-.044-.037-.066q-.036-.066-.068-.133t-.06-.136c-.012-.03-.023-.061-.036-.091-.053-.129.039.088.031.1s-.124-.619-.117-.616.009.211.008.123c0-.024,0-.048,0-.072,0-.056,0-.113,0-.169,0-.113.013-.225.028-.337.007-.048.014-.1.022-.143a.536.536,0,0,0,.013-.071s-.047.206-.025.12c.028-.109.055-.218.089-.326a5.069,5.069,0,0,1,.235-.575c.043-.094-.069.134-.062.115A.618.618,0,0,1,2.3,3.6q.034-.061.072-.12.086-.138.184-.267Q2.636,3.1,2.728,3c.028-.031.168-.179.039-.047s.014-.012.045-.041a4.127,4.127,0,0,1,.473-.381c.084-.058.171-.111.257-.165s-.12.062-.109.061A.259.259,0,0,0,3.5,2.387c.056-.03.112-.059.169-.086a4.661,4.661,0,0,1,.574-.233c.085-.028.426-.11.11-.04.1-.023.2-.047.306-.065a4.729,4.729,0,0,1,.65-.071c.022,0,.134.01.146,0s-.218,0-.126,0l.073,0q.17.006.341.024c.105.012.211.027.315.046l.144.029L6.271,2c.132.029-.089-.017-.1-.028a1.283,1.283,0,0,0,.307.1c.11.039.218.082.324.13.046.021.091.042.136.064s.2.108.04.017.018.012.06.037.1.065.154.1q.142.1.274.2c.04.033.08.066.119.1l.058.052c.093.082-.166-.166-.082-.076A5.273,5.273,0,0,1,8,3.224c.029.041.058.083.086.125.095.14-.113-.19-.029-.044.059.1.117.2.168.31s.093.2.134.3c.019.047.037.094.054.141l.025.071c.044.123-.02-.071-.03-.093a2.472,2.472,0,0,1,.154.658q.023.148.037.3c0,.025,0,.05.007.074.014.156-.005-.094-.006-.094.018.015,0,.148.005.174a4.656,4.656,0,0,1-.038.64c-.008.057-.016.113-.025.17,0,.024-.009.048-.013.072-.014.089.021-.12.025-.119a2.945,2.945,0,0,1-.085.329,4.1,4.1,0,0,1-.226.582.945.945,0,0,0,.043.717,1.079,1.079,0,0,0,.564.527.948.948,0,0,0,1.234-.514" transform="matrix(0.809, 0.588, -0.588, 0.809, -15693.377, -361.715)" fill="#ac9afc"/>
    <g id="Grupo_1101540" data-name="Grupo 1101540" transform="translate(-9072.149 4772.479)">
      <path id="Trazado_879464" data-name="Trazado 879464" d="M167.708,259.511H120.642c-24.219,0-46.034-14.172-55.212-35.866L4.51,79.634C-11.562,41.639,17.306,0,59.722,0H228.627c42.416,0,71.285,41.638,55.212,79.633L222.92,223.645c-9.178,21.694-30.993,35.866-55.212,35.866" transform="translate(-6913.645 -5399.818)" fill="none" stroke="#567d56" stroke-width="2"/>
      <text id="Alimentación_para_diabéticos_" data-name="Alimentación para diabéticos
" transform="translate(-6854.725 -5100.861)" fill="#12263f" font-size="20" font-family="Roboto-Bold, Roboto" font-weight="700"><tspan x="-59.556" y="19">Alimentación </tspan><tspan x="-69.067" y="46">para diabéticos</tspan><tspan x="0" y="73"></tspan></text>
      <g id="Grupo_1101538" data-name="Grupo 1101538" transform="translate(-6783.005 -5140.307)">
        <path id="Trazado_873496" data-name="Trazado 873496" d="M-11801-8646v31.317" transform="translate(11809.28 8646.001)" fill="none" stroke="#567d56" stroke-width="2"/>
        <g id="Grupo_1099075" data-name="Grupo 1099075" transform="translate(0 19.063)">
          <g id="Grupo_1099074" data-name="Grupo 1099074" clip-path="url(#clip-path-4)">
            <path id="Trazado_873497" data-name="Trazado 873497" d="M.514.857A16.5,16.5,0,0,1,8.538,15.02,16.5,16.5,0,0,1,16.562.857" transform="translate(-0.257 -0.429)" fill="none" stroke="#567d56" stroke-miterlimit="10" stroke-width="2"/>
          </g>
        </g>
      </g>
      <circle id="Elipse_11628" data-name="Elipse 11628" cx="45.422" cy="45.422" r="45.422" transform="translate(-6868.415 -5386.525)" fill="url(#linear-gradient-3)"/>
      <circle id="Elipse_11631" data-name="Elipse 11631" cx="63.669" cy="63.669" r="63.669" transform="translate(-6779.09 -5365.949)" fill="url(#linear-gradient-3)"/>
      <circle id="Elipse_11629" data-name="Elipse 11629" cx="45.422" cy="45.422" r="45.422" transform="translate(-6868.415 -5386.525)" fill="url(#linear-gradient-3)"/>
      <circle id="Elipse_11635" data-name="Elipse 11635" cx="45.422" cy="45.422" r="45.422" transform="translate(-6854.88 -5275.085)" fill="url(#linear-gradient-6)"/>
      <circle id="Elipse_11632" data-name="Elipse 11632" cx="63.669" cy="63.669" r="63.669" transform="translate(-6779.09 -5365.949)" fill="url(#linear-gradient-7)"/>
      <circle id="Elipse_11630" data-name="Elipse 11630" cx="39.987" cy="39.987" r="39.987" transform="translate(-6862.979 -5381.09)" fill="#fff"/>
      <circle id="Elipse_11636" data-name="Elipse 11636" cx="39.987" cy="39.987" r="39.987" transform="translate(-6849.445 -5269.65)" fill="#fff"/>
      <circle id="Elipse_11633" data-name="Elipse 11633" cx="57.457" cy="57.457" r="57.457" transform="translate(-6772.878 -5359.738)" fill="#fff"/>
      <text id="_30_Grasas" data-name="30 % Grasas" transform="translate(-6851.493 -5359.603)" fill="#12263f" font-size="14" font-family="Roboto-Regular, Roboto"><tspan x="-14.721" y="13">30 % </tspan><tspan x="-21.834" y="33">Grasas</tspan></text>
      <text id="_15_Proteínas_" data-name="15 % Proteínas " transform="translate(-6843.458 -5248.163)" fill="#12263f" font-size="14" font-family="Roboto-Regular, Roboto"><tspan x="-14.721" y="13">15 % </tspan><tspan x="-29.712" y="33">Proteínas </tspan></text>
      <text id="Glúcidos_55_15_Hidratos_de_carbono_simple_" data-name="Glúcidos 55 % (15 % Hidratos de carbono simple)
" transform="translate(-6762.785 -5334.115)" fill="#12263f" font-size="14" font-family="Roboto-Regular, Roboto"><tspan x="-43.692" y="13">Glúcidos 55 % </tspan><tspan x="-45.343" y="33">(15 % Hidratos </tspan><tspan x="-35.003" y="53">de carbono </tspan><tspan x="-23.211" y="73">simple)</tspan><tspan x="0" y="93"></tspan></text>
      <rect id="Rectángulo_402234" data-name="Rectángulo 402234" width="85.086" height="31.345" rx="14" transform="translate(-6808.345 -5423.663)" fill="#567d56"/>
      <text id="Dieta" transform="translate(-6789.251 -5420.782)" fill="#fff" font-size="20" font-family="Roboto-Bold, Roboto" font-weight="700"><tspan x="0" y="19">Dieta</tspan></text>
    </g>
  </g>
</svg>
