<svg xmlns="http://www.w3.org/2000/svg" width="56" height="56" viewBox="0 0 56 56">
  <g id="img-23" transform="translate(12320 -1872.79)">
    <g id="Grupo_1102253" data-name="Grupo 1102253">
      <circle id="Elipse_11637" data-name="Elipse 11637" cx="28" cy="28" r="28" transform="translate(-12320 1872.79)" fill="#d8f263"/>
      <g id="osteoporosis" transform="translate(-12307.597 1884.028)">
        <g id="Grupo_1101571" data-name="Grupo 1101571" transform="translate(0 0)">
          <path id="Trazado_879552" data-name="Trazado 879552" d="M13.857,145.456a.49.49,0,1,0-.693-.693l-.967.967a.49.49,0,0,0-.018.674,3.473,3.473,0,0,1-.206,4.847,3.486,3.486,0,0,1-4.707.049,3.449,3.449,0,0,1-1.144-2.471,1.8,1.8,0,0,0-1.748-1.749,3.474,3.474,0,0,1-1.133-6.717,1.548,1.548,0,0,0,2.693.09,3.433,3.433,0,0,1,.864.569.49.49,0,0,0,.675-.018l5.575-5.575a1.926,1.926,0,0,0,.69.352l-4.8,4.8a1.812,1.812,0,0,0,0,2.562l1.121,1.121a1.812,1.812,0,0,0,2.562,0l5.058-5.058a.49.49,0,0,0-.693-.693l-5.058,5.058a.831.831,0,0,1-1.175,0l-1.121-1.121a.831.831,0,0,1,0-1.175l11.988-11.988a.831.831,0,0,1,1.175,0l1.121,1.121a.832.832,0,0,1,0,1.175L18.6,136.9a.49.49,0,0,0,.693.693l5.312-5.312a1.814,1.814,0,0,0,0-2.562L23.482,128.6a1.812,1.812,0,0,0-2.562,0l-4.808,4.808a1.938,1.938,0,0,0-.35-.692l1.944-1.944a.49.49,0,1,0-.693-.693L14.9,132.194a.73.73,0,0,0-.212.522.712.712,0,0,0,.218.507l.018.017a.952.952,0,1,1-1.34,1.353l-.008-.008,0,0,0-.005a.728.728,0,0,0-.515-.225.741.741,0,0,0-.521.212L7.09,140a4.394,4.394,0,0,0-.862-.488.877.877,0,0,0-1.114.4.567.567,0,0,1-1.022-.037.873.873,0,0,0-1.084-.47,4.455,4.455,0,0,0-1.834,7.189,4.426,4.426,0,0,0,3.17,1.467.822.822,0,0,1,.8.8,4.454,4.454,0,1,0,8.061-2.748Z" transform="translate(-0.032 -119.695)" fill="#72851a"/>
          <path id="Trazado_879553" data-name="Trazado 879553" d="M241.152,6.579a4.426,4.426,0,0,0-3.17-1.467.823.823,0,0,1-.8-.8A4.453,4.453,0,0,0,230.322.708a1.054,1.054,0,0,0-.4,1.307.561.561,0,0,1,.049.231.568.568,0,0,1-.57.567h0a1.07,1.07,0,0,0-1.058.894,4.431,4.431,0,0,0,.782,3.355l-1.7,1.7a.49.49,0,0,0,.693.693l2.013-2.012a.49.49,0,0,0,.018-.674,3.456,3.456,0,0,1-.838-2.9.094.094,0,0,1,.1-.077h0a1.548,1.548,0,0,0,1.413-2.179.072.072,0,0,1,.033-.082A3.472,3.472,0,0,1,236.2,4.345a1.8,1.8,0,0,0,1.748,1.748,3.473,3.473,0,1,1-2.425,6.057.49.49,0,0,0-.674.018L223.573,23.449a.49.49,0,0,0,.694.693l10.969-10.97a4.455,4.455,0,0,0,5.853-.557,4.473,4.473,0,0,0,.063-6.037Z" transform="translate(-208.824 0)" fill="#72851a"/>
          <circle id="Elipse_11638" data-name="Elipse 11638" cx="0.49" cy="0.49" r="0.49" transform="translate(20.941 11.093)" fill="#72851a"/>
          <circle id="Elipse_11639" data-name="Elipse 11639" cx="0.49" cy="0.49" r="0.49" transform="translate(19.193 13.659)" fill="#72851a"/>
          <circle id="Elipse_11640" data-name="Elipse 11640" cx="0.49" cy="0.49" r="0.49" transform="translate(16.793 15.278)" fill="#72851a"/>
          <circle id="Elipse_11641" data-name="Elipse 11641" cx="0.49" cy="0.49" r="0.49" transform="translate(15.231 17.696)" fill="#72851a"/>
          <circle id="Elipse_11642" data-name="Elipse 11642" cx="0.49" cy="0.49" r="0.49" transform="translate(13.036 19.277)" fill="#72851a"/>
          <circle id="Elipse_11643" data-name="Elipse 11643" cx="0.49" cy="0.49" r="0.49" transform="translate(11.306 21.601)" fill="#72851a"/>
        </g>
      </g>
    </g>
  </g>
</svg>
