<svg xmlns="http://www.w3.org/2000/svg" width="79.334" height="79.333" viewBox="0 0 79.334 79.333">
  <g id="img-9" transform="translate(12162.91 3122.673)">
    <g id="Grupo_1102249" data-name="Grupo 1102249" transform="translate(-1950.909 -79.006)">
      <path id="Trazado_882269" data-name="Trazado 882269" d="M49.119,121h-37.5A11.634,11.634,0,0,0,0,132.621v37.343a11.634,11.634,0,0,0,11.621,11.621h37.5A11.634,11.634,0,0,0,60.74,169.964V132.621A11.634,11.634,0,0,0,49.119,121Zm-25.8,13.945h14.1v4.648H23.32Zm14.1-4.648H23.32v-4.648h14.1Zm18.671,39.667a6.981,6.981,0,0,1-6.973,6.973h-37.5a6.981,6.981,0,0,1-6.973-6.973V132.621a6.981,6.981,0,0,1,6.973-6.973h7.05v18.594h23.4V125.648h7.05a6.981,6.981,0,0,1,6.973,6.973Z" transform="translate(-10212 -3145.918)" fill="#567d56"/>
      <path id="Trazado_882270" data-name="Trazado 882270" d="M422,0V23.4h13.945V0Zm9.3,18.749h-4.648V4.648H431.3Z" transform="translate(-10568.612 -3043.667)" fill="#567d56"/>
      <path id="Trazado_882271" data-name="Trazado 882271" d="M428.973,181a6.973,6.973,0,1,0,6.973,6.973A6.981,6.981,0,0,0,428.973,181Zm0,9.3a2.324,2.324,0,1,1,2.324-2.324A2.327,2.327,0,0,1,428.973,190.3Z" transform="translate(-10568.612 -3196.621)" fill="#567d56"/>
    </g>
  </g>
</svg>
