<svg xmlns="http://www.w3.org/2000/svg" xmlns:xlink="http://www.w3.org/1999/xlink" width="1240" height="456.617" viewBox="0 0 1240 456.617">
  <defs>
    <clipPath id="clip-path">
      <path id="Trazado_878278" data-name="Trazado 878278" d="M17.848,0h1204.3C1232.009,0,1240,7.661,1240,17.112V439.505c0,9.451-7.991,17.112-17.849,17.112H17.848C7.991,456.617,0,448.956,0,439.505V17.112C0,7.661,7.991,0,17.848,0Z" transform="translate(0 0)" fill="#ac9afc"/>
    </clipPath>
    <linearGradient id="linear-gradient" x1="0.165" y1="0.202" x2="0.98" y2="0.647" gradientUnits="objectBoundingBox">
      <stop offset="0" stop-color="#d8f263"/>
      <stop offset="1" stop-color="#e4f3a0"/>
    </linearGradient>
    <clipPath id="clip-path-2">
      <rect id="Rectángulo_402190" data-name="Rectángulo 402190" width="756.597" height="695.866" fill="#567d56"/>
    </clipPath>
    <clipPath id="clip-path-3">
      <path id="Trazado_878253" data-name="Trazado 878253" d="M0,0,692.122-1.557l-1.494,692.39L-1.494,692.39Z" fill="#d8f263"/>
    </clipPath>
    <clipPath id="clip-path-4">
      <rect id="Rectángulo_402191" data-name="Rectángulo 402191" width="813.798" height="609.68" fill="#d8f263"/>
    </clipPath>
  </defs>
  <g id="fnd-2" transform="translate(1479.126 5707.234)">
    <g id="Enmascarar_grupo_1098828" data-name="Enmascarar grupo 1098828" transform="translate(-1479.126 -5707.234)" clip-path="url(#clip-path)">
      <path id="Trazado_878250" data-name="Trazado 878250" d="M17.848,0h1204.3C1232.009,0,1240,7.661,1240,17.112V439.505c0,9.451-7.991,17.112-17.849,17.112H17.848C7.991,456.617,0,448.956,0,439.505V17.112C0,7.661,7.991,0,17.848,0Z" transform="translate(0 0)" fill="url(#linear-gradient)"/>
      <line id="Línea_2117" data-name="Línea 2117" y1="4.469" transform="translate(291.845 -57.835)" fill="none" stroke="#fff" stroke-miterlimit="10" stroke-width="1"/>
      <line id="Línea_2118" data-name="Línea 2118" x2="4.661" transform="translate(278.263 -46.387)" fill="none" stroke="#fff" stroke-miterlimit="10" stroke-width="1"/>
      <g id="Grupo_1101156" data-name="Grupo 1101156" transform="translate(661.266 -154.922)" opacity="0.36" style="mix-blend-mode: color-dodge;isolation: isolate">
        <g id="Grupo_1101155" data-name="Grupo 1101155" transform="translate(0 0)" opacity="0.54" clip-path="url(#clip-path-2)">
          <path id="Trazado_878251" data-name="Trazado 878251" d="M733.787,120.8c-3.692-31.685-6.144-64.186-28.218-89.216-12.5,34.813-34.277,65.346-56.517,95.914-30.069,41.339-61.845,81.393-95.83,119.909C486.573,323.2,410.822,387.847,332.67,452.33c-13.627,11.213-35.043-9.89-22.047-22.121,71.072-67.176,134.467-143.169,195.833-218.6,30.925-38,60.859-76.826,89.355-116.536,22.142-30.847,42.5-62.657,69.853-89.083C645.207-.415,622.595-.441,599.992.358q-39.753,1.5-79.528,3.428A903.994,903.994,0,0,0,330.757,8.6c-10.836,1.409-18.727,5.65-24.288,11.368C265.618,41.641,274.357,107.761,331,114.059q35.612,3.905,71.22,7.866A1314.433,1314.433,0,0,0,104.295,308.474c-41.209,34.228,3.025,90.333,48.85,82.123q49.674-8.932,97.9-22.16Q126.692,483.681,13.954,610.011c-38.4,43.031,8.958,106.418,63.252,79.343C205.839,625.117,322.332,543.127,427.264,448.9c-17.566,46.485-33.551,93.487-47.393,141.081-10.069,34.383,24.812,74.235,63.118,61.883,91.591-29.649,122.946-155.129,142.731-239.225a339.885,339.885,0,0,0,12.386,68.706c11.351,38.632,57.933,48.023,88.069,23.157,110.381-91.175,61.545-264.912,47.613-383.695m-423.5,147.839a401.591,401.591,0,0,0-59.434,31.169c-17.409,11.256-34.859-12.352-19.032-25.107a276.4,276.4,0,0,1,64.189-39.122,249.963,249.963,0,0,1,33.372-12.034c12.485-3.42,26.336-7.759,39.354-8.24,5.507-.18,12.341,1.624,15.294,6.595,2.474,4.18,3.572,7.359,3.043,12.055-.69,5.675-5.3,10.62-10.782,12.61-10.97,4.038-22.818,6.169-33.954,10.032-10.782,3.716-21.572,7.544-32.05,12.042M521.952,426.857c-.206,3.944-.462,7.828-.775,11.712-1.241,15.256-3.222,30.37-5.888,45.446-1.125,6.316-7.865,11.54-14.725,10.229-6.856-1.366-11.7-7.3-10.665-14.118q3.368-22.072,4.629-44.354l.412-8.051c0-.107-.013-.821.009-1.315s.045-1.972.054-2.139c.045-.821.085-1.641.072-2.466.031-2.909-.211-5.937.672-8.7.287-1.083.8-2.213,1.089-3.3,0-.052.09-.653.112-1.035.148-1.8.471-3.656.735-5.456.511-4.365.937-8.189,3.092-12.2,2.72-5.031,11.548-7.471,15.079-1.538a25.619,25.619,0,0,1,3.164,6.35,55.441,55.441,0,0,1,1,6.2c.3,2.045.533,4.09.775,6.131.081.61.161,1.272.242,1.933.049.168.349,1.005.439,1.448,1.47,4.846.739,10.191.479,15.226M685.466,269.966a12.917,12.917,0,0,1-.47,1.4c-.134.322-.211.7-.341,1.027l-.067.163a13.982,13.982,0,0,1-6.861,7.579,15.111,15.111,0,0,1-10.311,1.267,5.186,5.186,0,0,1-.905-.206c-.619-.193-1.188-.275-1.81-.468a17.5,17.5,0,0,1-6.982-3.4,29.743,29.743,0,0,0-2.469-2.1,28.244,28.244,0,0,1-4.432-4c-.6-.632-1.192-1.319-1.788-1.951a23.028,23.028,0,0,1-2.684-3.476c-2.429-4.013-5.516-8.494-7.246-12.747-2.846-7-5.9-14.388-6.717-21.889a16.29,16.29,0,0,1,8.94-15.772,17.488,17.488,0,0,1,18.534,1.478c6.166,4.795,10.925,11.329,15.532,17.477,2.734,3.643,4.777,8.4,6.977,12.408a31.231,31.231,0,0,1,3.477,12.515,19.383,19.383,0,0,0,.471,3.149,16.138,16.138,0,0,1-.847,7.536" transform="translate(0 -0.002)" fill="#567d56"/>
        </g>
      </g>
      <g id="Grupo_1101158" data-name="Grupo 1101158" transform="translate(533.462 -134.61) rotate(87)" opacity="0.17" style="mix-blend-mode: multiply;isolation: isolate">
        <g id="Grupo_1101157" data-name="Grupo 1101157" transform="translate(0 0)" clip-path="url(#clip-path-3)">
          <path id="Trazado_878252" data-name="Trazado 878252" d="M670.884,118.583c-3.31-31.519-5.482-63.853-25.622-88.712-11.508,34.664-31.5,65.09-51.907,95.551-27.6,41.194-56.75,81.113-87.922,119.507-61.132,75.545-130.566,140.028-202.2,204.349-12.49,11.185-32.036-9.769-20.121-21.966,65.16-66.987,123.316-142.73,179.614-217.913C491.1,171.52,518.569,132.831,544.721,93.26c20.321-30.739,39.013-62.431,64.092-88.782-18.7-6.327-39.385-6.306-60.064-5.465Q512.381.583,475.991,2.589c-57.412-5-115.221-3.1-173.551,5.178-9.915,1.424-17.143,5.66-22.243,11.361-37.416,21.65-29.564,87.422,22.242,93.572q32.569,3.813,65.134,7.681C269.445,168.868,178.011,231.289,94.633,306.61c-37.771,34.142,2.573,89.876,44.511,81.612q45.46-8.99,89.606-22.251Q114.745,480.9,11.343,606.827c-35.22,42.9,7.966,105.868,57.692,78.817,117.809-64.181,224.551-146,320.743-239.977-16.169,46.289-30.892,93.089-43.657,140.473-9.285,34.232,22.539,73.813,57.606,61.445,83.85-29.689,112.8-154.608,131.081-238.323A364.251,364.251,0,0,0,545.991,477.6c10.3,38.416,52.893,47.664,80.514,22.86,101.17-90.947,56.869-263.715,44.379-381.876M283.156,266.554A360.042,360.042,0,0,0,228.72,297.69c-15.95,11.236-31.862-12.218-17.356-24.943a251.558,251.558,0,0,1,58.8-39.058,217.9,217.9,0,0,1,30.554-12.042c11.428-3.428,24.108-7.774,36.018-8.28,5.038-.191,11.286,1.59,13.977,6.53,2.254,4.154,3.251,7.315,2.758,11.989a16.019,16.019,0,0,1-9.89,12.569C333.539,248.5,322.7,250.64,312.5,254.506c-9.871,3.72-19.75,7.551-29.344,12.048M476.444,423.543c-.2,3.925-.439,7.79-.734,11.655-1.168,15.182-3.013,30.225-5.484,45.231-1.043,6.286-7.219,11.5-13.492,10.209a12.431,12.431,0,0,1-9.726-14.025q3.128-21.969,4.33-44.143l.394-8.012c0-.107-.011-.816.011-1.308s.045-1.962.054-2.129c.043-.817.081-1.633.071-2.454.035-2.894-.18-5.907.634-8.654.265-1.078.738-2.2,1-3.285,0-.051.083-.65.1-1.031.139-1.8.438-3.639.684-5.43.477-4.344.874-8.15,2.855-12.147,2.5-5.012,10.58-7.458,13.8-1.561a26.319,26.319,0,0,1,2.881,6.312,59.569,59.569,0,0,1,.9,6.162c.266,2.034.479,4.069.7,6.1.072.607.145,1.265.217,1.923.045.167.317,1,.4,1.44,1.334,4.819.654,10.138.406,15.149M626.361,267.1a13.7,13.7,0,0,1-.433,1.4c-.124.321-.194.7-.314,1.022l-.062.163a13.665,13.665,0,0,1-6.292,7.555,12.847,12.847,0,0,1-9.435,1.282,4.409,4.409,0,0,1-.827-.2c-.565-.191-1.086-.271-1.655-.462a15.433,15.433,0,0,1-6.38-3.371,27.776,27.776,0,0,0-2.254-2.081,26.529,26.529,0,0,1-4.045-3.966c-.544-.627-1.088-1.31-1.632-1.937a22.633,22.633,0,0,1-2.448-3.453c-2.213-3.988-5.028-8.44-6.6-12.668-2.588-6.958-5.368-14.3-6.1-21.766A16.6,16.6,0,0,1,586.1,212.9a14.922,14.922,0,0,1,16.952,1.432c5.63,4.758,9.97,11.25,14.171,17.358,2.493,3.619,4.352,8.352,6.356,12.331a33.082,33.082,0,0,1,3.154,12.445,20.82,20.82,0,0,0,.423,3.133,17.4,17.4,0,0,1-.791,7.5" transform="translate(0.113 0.106)" fill="#d8f263"/>
        </g>
      </g>
      <g id="Grupo_1101160" data-name="Grupo 1101160" transform="translate(524.839 -195.301)" opacity="0.24" style="mix-blend-mode: multiply;isolation: isolate">
        <g id="Grupo_1101159" data-name="Grupo 1101159" transform="translate(0 0)" clip-path="url(#clip-path-4)">
          <path id="Trazado_878254" data-name="Trazado 878254" d="M64.255,199.123c11.488,2.181,22.845,4.263,34.281,6.045,11.437,1.663,22.851,3.2,34.287,4.043,5.718.479,11.442.632,17.155.851,5.752.213,11.352.14,17.178.1,11.357-.266,22.9-.825,34.367-2.015,11.482-1.224,23-2.614,34.48-4.582,5.747-.891,11.476-2.035,17.223-3.052q8.612-1.576,17.155-3.717c11.369-2.993,22.669-6.57,34.072-9.324,5.713-1.29,11.437-2.487,17.195-3.4,5.747-.984,11.544-1.563,17.325-2.288l.7-.086a7.061,7.061,0,0,1,7.114,4.256c3.784,7.761,7.885,15.482,12.038,23.076l13.014,22.418c8.725,14.91,17.932,29.381,26.975,43.985,9.122,14.5,18.063,29.281,28.552,42.349,2.615,3.259,5.27,6.477,8.1,9.443a83.624,83.624,0,0,0,8.9,8.186,80.1,80.1,0,0,0,9.366,6.644,44.848,44.848,0,0,0,8.884,4.376l-8.878,11.086L450.672,347.1c-.522-1.729-.936-3.5-1.413-5.254a40.992,40.992,0,0,1-1.628-7.349,17.84,17.84,0,0,1,.471-5.872,16.992,16.992,0,0,1,2.218-5.041,52.84,52.84,0,0,1,3.744-4.795l6.53-7.927,6.524-7.934c2-2.507,4.839-5.732,5.684-7.122a2.734,2.734,0,0,0,.522-1.383,13.276,13.276,0,0,0-.409-3.4l-2.422-10.514-2.5-10.906a28.456,28.456,0,0,1,.352-14.5c3.341-9.576,9.372-14.105,13.155-18.973,4-4.748,7.256-10.561,10.461-16.805a43.5,43.5,0,0,0,1.951-4.2,3.531,3.531,0,0,0,.221-2.195c-.187-1.523-1.5-5.6-2.451-8.991-2.042-7.1-4.05-13.646-5.962-21.228a36.313,36.313,0,0,1-.964-7.495,23.333,23.333,0,0,1,1.662-9.084c2.258-5.42,4.89-8.193,6.66-10.747a164.871,164.871,0,0,0,10.637-16.592,13.049,13.049,0,0,0,1.135-2.52c.057-.173.062-.18.091-.12-.057-.479.062.18.017-.14-.045-.938-2.15-3.4-4.64-8.093l-.6-1.257-.8-2.042a31.52,31.52,0,0,1-1.061-3.744,36.551,36.551,0,0,1-.777-7.329,44.774,44.774,0,0,1,2.212-13.36c2.57-8.319,7.324-14.85,11.692-20.316l6.422-7.947c1.015-1.284,2.025-2.567,2.95-3.877l1.361-1.962c.187-.253.17-.279.057.173a4.117,4.117,0,0,0-.079,1.124c-.017-.372.028.4.062.452a2.881,2.881,0,0,0,.119.419c.17.432.233.386.114.18l-.664-1.151c-.55-.991-1-1.875-1.407-2.733-.828-1.742-1.56-3.465-2.258-5.207a74.634,74.634,0,0,1-3.54-11.073,3.788,3.788,0,0,1,2.212-4.516,3.034,3.034,0,0,1,3.7,2.075l.1.286a82.962,82.962,0,0,0,4.283,8.931c.8,1.483,1.628,2.946,2.473,4.309.431.7.862,1.33,1.225,1.829l.766,1.031a9.283,9.283,0,0,1,1.31,2.54,9.742,9.742,0,0,1,.272,1.077,10.693,10.693,0,0,1,.125,1.137,8.576,8.576,0,0,1-.255,2.481,11.946,11.946,0,0,1-1.044,2.6l-1.35,2.527c-.913,1.669-1.878,3.239-2.842,4.795-1.929,3.092-3.954,5.952-5.8,8.785-3.7,5.666-6.813,11-8.18,16.739-1.424,5.779-1.18,11.265.987,14.837.7,1.616,3.614,4.057,6.008,9.975a19.456,19.456,0,0,1,.806,10.527,28.987,28.987,0,0,1-2.706,7.482A182.465,182.465,0,0,1,504.826,166.8c-2.139,3.139-4.045,5.639-4.476,6.91a5.09,5.09,0,0,0-.352,1.583,15.544,15.544,0,0,0,.295,3.4c1.242,6.63,2.575,14.231,3.772,21.327.5,3.731,1.5,6.617,1.691,12.449a20.383,20.383,0,0,1-1.844,8.432,53.586,53.586,0,0,1-2.9,5.227c-3.551,6.092-7.233,12.629-11.97,18.461-4.731,5.646-9.519,10.135-10.58,14.664a13.647,13.647,0,0,0,.278,7.169c.743,3.033,1.844,6.843,2.774,10.241l2.927,10.607a29.6,29.6,0,0,1,1.072,7.428,19.116,19.116,0,0,1-2.258,8.978c-2.723,4.662-4.544,6.444-6.649,9.47l-6.183,8.3-6.172,8.313a40.179,40.179,0,0,0-2.445,3.485c-.119.193-.131.512.079-.173.023.066.1-.579.108-.419-.017.106.4,1.343.97,3.212.5,1.742,1.067,3.451,1.526,5.207l2.814,10.521.25.944c1.163,4.323-.891,8.931-4.578,10.288a6.005,6.005,0,0,1-4.55-.146,40.634,40.634,0,0,1-11.822-7.847,115.369,115.369,0,0,1-9.173-9.782l-16.514-20.124c-10.8-13.374-21.614-26.661-31.627-40.746-10.081-14.019-19.282-28.8-28.512-43.526l-13.564-22.338L333.43,196.044l7.812,4.17c-5.718,1.217-11.42,2.587-17.178,3.545-5.741,1.031-11.516,1.776-17.308,2.427-11.6,1.137-23.3,1.443-34.934,2.334-11.618,1-23.106,3.013-34.627,4.881-11.533,1.849-23.043,4.13-34.679,5.752a323.682,323.682,0,0,1-35.166,3.6c-5.8.266-11.817.206-17.682.013-5.9-.219-11.788-.712-17.648-1.35a295.194,295.194,0,0,1-34.911-5.746,349.87,349.87,0,0,1-34.179-9.344,3.8,3.8,0,0,1-2.212-4.536,3.2,3.2,0,0,1,3.54-2.673" transform="translate(283.194 246.484)" fill="#d8f263"/>
          <path id="Trazado_878255" data-name="Trazado 878255" d="M800.782,251.288c-3.336.725-6.768,1.31-10.03,2.155-3.262.9-6.484,1.589-9.752,2.66-6.53,1.915-12.991,4.2-19.458,6.477-6.456,2.3-12.872,4.821-19.254,7.435s-12.713,5.447-19.055,8.233q-18.984,8.449-37.577,18.122c-12.356,6.5-24.689,13.081-36.732,20.2l-.04.02a4.868,4.868,0,0,1-6.722-1.929L614.6,269.816q-13.845-22.335-28.285-44.1c-9.621-14.511-19.85-28.436-30.276-42.1a364.336,364.336,0,0,0-33.4-38.472c-6-5.832-11.873-11.824-18.182-17.151-6.178-5.52-12.361-10.973-18.749-16.054l-9.389-7.92-9.65-7.415c-3.239-2.421-6.314-5.154-9.6-7.482l-9.814-7.069a279.228,279.228,0,0,0-40.907-24.905,327.054,327.054,0,0,0-44.05-17.111A441.419,441.419,0,0,0,316.882,28.28c-7.63-1.742-15.351-2.693-23.021-4.136-3.841-.758-7.7-1.19-11.573-1.576l-11.6-1.377a282.807,282.807,0,0,0-46.62-1.084c-15.527.911-31.048,3.159-46.081,7.861-7.619,1.722-14.9,5.107-22.363,7.382-7.488,2.228-14.716,5.433-22.085,8.08-7.409,2.527-14.568,5.879-21.8,9.044-3.591,1.636-7.273,3.046-10.807,4.861L90.407,62.98,79.872,68.66,69.7,75.17c-6.756,4.416-13.672,8.539-20.048,13.719-6.422,5.081-13.2,9.57-19.345,15.129L11.724,120.5l.5-9.1c9.343,12.183,18.942,24.08,28.4,36.131l.023.033a6.858,6.858,0,0,1-.306,8.612,5.309,5.309,0,0,1-1.651,1.2c-10.342,4.675-20.6,9.6-30.821,14.657l2.558-10.195,10.381,14.79,10.83,14.3c3.75,4.629,7.568,9.164,11.232,13.846,3.852,4.5,7.675,9,11.425,13.606,3.937,4.382,7.795,8.865,11.652,13.34l12,12.941,12.4,12.456,12.758,11.95,13.1,11.465,13.354,11.093,13.615,10.694,13.9,10.221q14.092,9.866,28.478,19.252l14.545,9.051,14.716,8.745.074.04a4.021,4.021,0,0,1,1.384,4.961,2.979,2.979,0,0,1-3.971,1.756L196.8,349.093l-15.283-7.867-15.113-8.373-14.835-9.071-14.613-9.576-14.381-10.1Q115.49,298.854,108.5,293.4L94.781,282.039l-13.4-11.9L68.328,257.706l-12.69-12.981Q49.468,238,43.43,231.1c-3.926-4.715-7.749-9.55-11.567-14.378-3.687-4.974-7.216-10.115-10.818-15.156L10.81,185.883,1.166,169.717l-.159-.266a7.3,7.3,0,0,1,1.379-9.124,5.351,5.351,0,0,1,1.344-.811c10.455-4.336,20.865-8.8,31.2-13.527l-1.934,9.842c-9.553-11.95-18.959-24.054-28.631-35.885l-.023-.027a6.928,6.928,0,0,1,.159-8.705l.363-.372L23.591,93.379c6.183-5.939,13.031-10.82,19.526-16.28,6.45-5.566,13.473-10.088,20.349-14.9,3.46-2.361,6.881-4.815,10.376-7.1L84.6,48.815,95.365,42.5c3.614-2.042,7.38-3.678,11.068-5.533,7.432-3.565,14.784-7.415,22.544-9.916,15.209-6.125,31.1-9.649,46.966-11.964,15.913-2.141,31.712-4.2,47.6-5.546l11.93-.685a111.829,111.829,0,0,1,11.93-.545l11.953-.093a117.574,117.574,0,0,1,11.959.18,335.014,335.014,0,0,1,47.636,5.067,449.024,449.024,0,0,1,46.921,11.325A352.112,352.112,0,0,1,411.6,41.76c7.443,3.565,15.079,6.67,22.266,10.926,7.29,4,14.716,7.787,21.625,12.655l10.54,6.963c3.46,2.427,6.751,5.147,10.081,7.8l9.916,8.08,9.394,8.858c3.063,3.052,6.269,5.885,9.2,9.1l8.719,9.709c5.906,6.331,11.329,13.214,16.866,19.937,10.954,13.56,21.659,27.259,32.313,41,5.338,6.863,10.347,14.052,15.532,21.061l15.141,21.407c9.984,14.364,19.725,28.942,29.363,43.6l14.3,22.1,13.967,22.358-6.762-1.9c12.276-7.375,24.723-14.218,37.4-20.423q18.984-9.4,38.36-17.616c12.963-5.353,26.09-10.181,39.4-14.371,6.643-2.128,13.394-3.864,20.173-5.427,3.353-.865,6.881-1.39,10.3-2.095,3.438-.638,6.79-.984,10.189-1.49a3.28,3.28,0,0,1,3.517,3.192,3.664,3.664,0,0,1-2.536,4.09Z" transform="translate(0.002 46.038)" fill="#d8f263"/>
          <path id="Trazado_878256" data-name="Trazado 878256" d="M64.2,34.077c5.611,13.427.874,29.633-10.574,36.211s-25.284,1.024-30.895-12.4-.874-29.64,10.58-36.211S58.586,20.657,64.2,34.077Z" transform="translate(95.19 106.876)" fill="#d8f263" stroke="#40433e" stroke-linecap="round" stroke-linejoin="round" stroke-width="1.482"/>
          <path id="Trazado_878257" data-name="Trazado 878257" d="M43.969,54.941C111.443,15.219,187.851-3.4,263.239,1.513c9.321.605,20.916,3.811,22.748,14.537.675,3.944-.278,8.047-1.759,11.678-6.3,15.4-20.825,23.09-32.7,33s-22.5,27.738-16.049,43.054" transform="translate(205.464 4.187)" fill="#d8f263" stroke="#40433e" stroke-linecap="round" stroke-linejoin="round" stroke-width="1.482"/>
          <path id="Trazado_878258" data-name="Trazado 878258" d="M85.437,59.132A130.33,130.33,0,0,1,100.215,65.6c4.862,2.421,9.536,5.314,14.194,8.226a145.787,145.787,0,0,1,13.473,9.776c4.311,3.591,8.441,7.448,12.554,11.312l12.078,11.95a125.364,125.364,0,0,0,12.446,11.565l6.456,5.653a84.234,84.234,0,0,1,5.843,6.437c3.665,4.555,6.5,9.935,9.525,15.063l.374.638a6.715,6.715,0,0,1-.976,8.014,38.835,38.835,0,0,1-12.878,8.406A40.7,40.7,0,0,1,159.44,165.2a45.41,45.41,0,0,1-13.422-1.722c-4.4-1.21-8.447-3.146-11.936-3.651-3.7-.465-5.985.6-8.515,4.649a26.875,26.875,0,0,1-5.259,6.118,13.647,13.647,0,0,1-3.943,2.228,14.011,14.011,0,0,1-4.153.951c-5.65.565-10.432-1.9-14.636-4.3A59.315,59.315,0,0,1,86.345,160.4c-3.16-3.032-6.632-6.73-9.644-10.255-3.08-3.571-6.155-7.149-9-10.966-5.73-7.508-12.605-14.345-16.945-23.349A146.559,146.559,0,0,1,40.326,87.669c-1.259-4.9-2.235-9.882-3.012-14.89a151.141,151.141,0,0,1-1.265-15.156,2.632,2.632,0,0,1,2.332-2.846,2.429,2.429,0,0,1,2.3,1.875l.028.1c.686,2.321,1.316,4.629,1.889,6.943l2.082,6.816q2.136,6.763,4.584,13.294c1.713,4.323,3.387,8.639,5.333,12.8,1.878,4.19,3.909,8.273,6.047,12.276,2.184,3.95,3.965,8.22,6.013,12.356a69.868,69.868,0,0,0,6.881,11.857,97.36,97.36,0,0,0,8.64,10.142,102.6,102.6,0,0,0,9.65,8.758,47.546,47.546,0,0,0,10.03,6.723,22.085,22.085,0,0,0,9.706,2.208,20.15,20.15,0,0,0,2.059-.219c.868-.233.749.086,1.917-.426a13.459,13.459,0,0,0,4.8-2.707c1.832-1.27,3.937-3.239,6.518-4.343a15.971,15.971,0,0,1,7.67-1.35c4.918.226,8.935,1.45,12.861,1.663a71.255,71.255,0,0,0,11.7.273c7.59-.525,14.931-3.146,19.583-8.991l-.6,8.645c-3.375-4.476-7.154-8.492-10.325-13.108-3.336-4.449-6.093-9.543-9.088-14.5a81.178,81.178,0,0,0-4.822-7.083c-1.77-2.175-3.67-4.2-5.537-6.258-1.917-2-3.92-3.877-5.877-5.812l-6.183-5.367c-4.17-3.491-8.487-6.723-12.792-9.955l-13-9.53c-4.368-3.119-8.855-5.979-13.286-9.018L83.559,64.207a3.032,3.032,0,0,1-.953-3.764,2.231,2.231,0,0,1,2.774-1.33Z" transform="translate(168.449 309.498)" fill="#d8f263"/>
          <path id="Trazado_878259" data-name="Trazado 878259" d="M246.1,57.754c.028.033-.539-.319-1.288-.632a14.08,14.08,0,0,0-3.653-1c-3.347-.585-8.248.259-14.392,1.656-3.063.645-6.257,1.6-9.7,2.494-3.432.984-7.04,2.075-10.739,3.385-7.431,2.461-15.289,5.427-23.208,8.366a230.978,230.978,0,0,1-23.719,7.4,98.883,98.883,0,0,1-21.517,2.953,67.353,67.353,0,0,1-8.719-.446,51.877,51.877,0,0,1-6.654-1.19c-3.659-.951-5.684-1.7-5.684-1.7a2.206,2.206,0,0,1-1.174-2.66,1.9,1.9,0,0,1,1.5-1.463l.13-.02s2.088-.3,5.627-.459c1.764-.033,3.926-.352,6.365-.532,2.439-.04,5.2-.6,8.186-.791,2.99-.452,6.24-.7,9.661-1.317,3.438-.432,7.051-1.117,10.807-1.822,7.494-1.5,15.549-3.166,23.611-5.174,8.078-1.882,16.156-4.037,23.758-5.979,7.59-1.855,14.738-3.757,20.888-4.881,6.008-1.35,11.431-2.208,15.317-1.762a16.757,16.757,0,0,1,4.521,1.084,9.174,9.174,0,0,1,1.43.652l.238.12a2.265,2.265,0,0,1,.794,2.793,1.661,1.661,0,0,1-2.383.931Z" transform="translate(540.039 294.131)" fill="#d8f263"/>
          <path id="Trazado_878260" data-name="Trazado 878260" d="M234.1,90.174a64.259,64.259,0,0,0-14.591-3.305,126.349,126.349,0,0,0-14.988-.638c-5.032-.027-10.081.333-15.175.4-5.111.047-10.211.113-15.351-.146a140.1,140.1,0,0,1-30.566-4.609,65.51,65.51,0,0,1-14.988-5.719A37.42,37.42,0,0,1,115.43,64.777l-.46-.665a3.124,3.124,0,0,1,.357-3.917,2.105,2.105,0,0,1,2.956-.027c.97.884,1.917,1.815,2.853,2.773a2.39,2.39,0,0,1,.17,3.006,1.653,1.653,0,0,1-1.917.632c-1.18-.439-2.349-.9-3.5-1.41l2.854-4.609c7.953,6.018,17.013,8.965,26.629,11.811a261.546,261.546,0,0,0,29.182,6.923c9.837,1.822,19.872,2.168,30.015,2.6,5.077.173,10.166.579,15.266,1.124A92.506,92.506,0,0,1,235,86.138l.062.02a2.146,2.146,0,0,1,1.271,2.547,1.776,1.776,0,0,1-2.178,1.49l-.062-.02" transform="translate(534.789 336.619)" fill="#d8f263"/>
          <path id="Trazado_878261" data-name="Trazado 878261" d="M221.885,144.372s-1.946-.572-5.344-1.576c-3.358-1.051-8.362-2.514-14.092-4.755-2.91-.991-6.013-2.268-9.281-3.658-3.279-1.35-6.66-3.019-10.223-4.589-7.006-3.438-14.364-7.488-21.6-11.924-3.54-2.361-7.114-4.688-10.478-7.275-3.46-2.427-6.632-5.207-9.746-7.847-3.007-2.78-5.934-5.466-8.549-8.226-2.587-2.8-5.055-5.413-7.091-8.127a94.409,94.409,0,0,1-9.253-13.586c-1.969-3.518-2.939-5.646-2.939-5.646a2.33,2.33,0,0,1,.743-2.88,1.608,1.608,0,0,1,1.94.166l.062.06s1.645,1.43,4.255,4.136c2.587,2.68,6.286,6.517,10.722,11.119,2.2,2.3,4.555,4.808,7.12,7.368,2.456,2.7,5.281,5.24,8.061,8.067,2.893,2.653,5.815,5.52,8.918,8.233,3.035,2.833,6.325,5.353,9.531,8.067,3.313,2.5,6.581,5.127,9.967,7.388,3.347,2.354,6.791,4.336,10.081,6.364,3.358,1.855,6.592,3.737,9.786,5.134,3.165,1.49,6.172,2.866,9,3.957a115.73,115.73,0,0,0,13.831,4.589c3.426.878,5.389,1.377,5.389,1.377a2.113,2.113,0,0,1,1.356,2.487,1.8,1.8,0,0,1-2.116,1.589l-.057-.013" transform="translate(528.416 361.799)" fill="#d8f263"/>
          <path id="Trazado_878262" data-name="Trazado 878262" d="M46.81,13.473s1.248,1.762,3.432,4.841c2.218,3.072,5.384,7.462,9.19,12.735,3.92,5.147,8.192,11.445,13.014,17.989,4.76,6.637,9.831,13.719,14.9,20.8,4.975,7.2,9.814,14.551,13.916,21.793A178.981,178.981,0,0,1,111.487,112.1a96.314,96.314,0,0,1,6.62,22.065,3.277,3.277,0,0,1-2.332,3.784,2.556,2.556,0,0,1-2.354-.831l-.045-.053a52.85,52.85,0,0,1-3.727-4.755,144.912,144.912,0,0,1-8.453-13.28c-3.262-5.626-6.694-12.423-10.353-19.745C87.23,91.92,83.372,84.059,79.509,76.2c-3.9-7.861-7.925-15.668-12.055-22.7-4.1-7.063-8.288-13.34-11.868-18.734C48.28,24.174,42.8,17.61,42.8,17.61a3.533,3.533,0,0,1,.04-4.436,2.409,2.409,0,0,1,3.784.047c.045.06.1.12.142.186Z" transform="translate(196.433 69.383)" fill="#d8f263"/>
          <path id="Trazado_878263" data-name="Trazado 878263" d="M178.546,41.955s-2.144,1.842-5.894,5.067c-3.767,3.146-9.122,7.94-15.68,13.294-3.222,2.793-6.773,5.713-10.546,8.778l-11.885,9.623c-8.322,6.557-17.274,13.447-26.339,20.2-9.179,6.524-18.448,12.941-27.491,18.175-4.527,2.594-8.935,5.021-13.167,7.2-4.272,2.055-8.277,4.1-12.123,5.553-15.209,6.4-26.181,7.615-26.181,7.615a2.91,2.91,0,0,1-3-2.913,3.461,3.461,0,0,1,1.186-2.966l.04-.033s2.264-1.8,6.354-4.422c4.079-2.667,9.962-6.225,17.093-10.155,3.557-2.015,7.477-3.983,11.567-6.211,4.13-2.135,8.481-4.383,12.985-6.7,4.5-2.354,9.156-4.781,13.882-7.249,4.76-2.407,9.474-5.147,14.279-7.7,4.743-2.7,9.525-5.333,14.137-8.147,4.618-2.793,9.06-5.772,13.394-8.585,8.64-5.7,16.366-11.684,22.953-16.852,6.53-5.314,11.834-9.8,15.464-13.241,3.648-3.378,5.735-5.314,5.735-5.314a2.415,2.415,0,0,1,3.75.512,3.516,3.516,0,0,1-.437,4.4l-.079.066" transform="translate(122.584 205.096)" fill="#d8f263"/>
          <path id="Trazado_878264" data-name="Trazado 878264" d="M124.312,22.568l2.178-.426c.908,0,1.849,0,2.774.06a16.183,16.183,0,0,1,5.038,1.45,22.348,22.348,0,0,1,8.305,6.943,32.82,32.82,0,0,1,5.134,10.334,35.578,35.578,0,0,1,1.044,6,31.211,31.211,0,0,1-.238,6.391l-.511,2.547c-.278,1.017-.539,2.075-.857,3.033a39.167,39.167,0,0,1-2.264,5.26,37.952,37.952,0,0,1-6.325,8.705,45.976,45.976,0,0,1-7.761,6.6c-2.78,1.849-5.571,3.837-8.7,5.52l2.6-9.024a47.406,47.406,0,0,1,4.629,4.768,36.611,36.611,0,0,1,3.721,5.739c2.133,4.15,3.285,8.918,4.38,13.573a81.028,81.028,0,0,1,2.468,14.291,51.889,51.889,0,0,1-.817,14.717c-.357,1.6-.59,2.248-.891,3.418-.357,1.184-.851,2.461-1.31,3.651a62.661,62.661,0,0,1-3.234,6.338c-1.225,1.968-2.473,3.87-3.773,5.739-1.367,1.8-2.678,3.631-4.011,5.58a37.662,37.662,0,0,1-4.482,5.58,18.76,18.76,0,0,1-5.894,3.717,22.8,22.8,0,0,1-6.745,1.3,28.6,28.6,0,0,1-6.819-.572l3.988-9.869a24.681,24.681,0,0,1,5.542,13.48,36.8,36.8,0,0,1-1.259,13.9,37.463,37.463,0,0,1-2.519,6.185c-1.084,2.115-2.1,3.884-3.285,5.739a34.206,34.206,0,0,1-8.305,9.324,26.605,26.605,0,0,1-5.049,2.893,45.9,45.9,0,0,1-5.316,1.982,35.4,35.4,0,0,1-11.187,1.523,28.249,28.249,0,0,1-11.153-2.56,24.6,24.6,0,0,1-9.247-7.661,3.14,3.14,0,0,1,.318-3.95,2.1,2.1,0,0,1,2.661-.306l.074.047c5.344,3.385,11.17,3.884,16.905,2.979a35.917,35.917,0,0,0,8.436-2.434,37.557,37.557,0,0,0,4.079-1.955l3.914-2.221a42.8,42.8,0,0,0,7.545-4.755,14.293,14.293,0,0,0,2.876-3.438,17.932,17.932,0,0,0,1.821-4.323c1.8-6.045,0-13.061-3.4-15.994a6.154,6.154,0,0,1-1-7.7,4.471,4.471,0,0,1,4.016-2.234l.976.067a17.557,17.557,0,0,0,4.379-.259,37.425,37.425,0,0,0,4.215-1.49c2.695-1.284,5.832-2.055,8.952-3.791,3.024-1.855,5.128-5.254,6.564-8.785a33.139,33.139,0,0,0,1.634-5.506c.131-.9.272-1.689.454-2.6.119-.971.346-2.447.369-3,.1-1.929.278-3.817.255-5.746-.04-1.922-.1-3.837-.312-5.759a49.2,49.2,0,0,0-2.61-11.3c-1.413-3.611-3.512-6.8-5.185-10.208-.834-1.722-1.656-3.458-2.394-5.3-.806-1.782-1.424-3.777-2.246-5.639l-1.044-2.348a4.982,4.982,0,0,1,1.668-6.165,3.43,3.43,0,0,1,1.98-.512,17.544,17.544,0,0,0,3.9-.2,15.152,15.152,0,0,0,3.773-1.343,24.222,24.222,0,0,0,6.49-5.181,27.814,27.814,0,0,0,4.5-7.282,29.464,29.464,0,0,0,1.322-4.083l.369-1.889.3-2.481a30.489,30.489,0,0,0-.051-3.837,26.569,26.569,0,0,0-.7-4.03A23.683,23.683,0,0,0,136.8,36.24a20.807,20.807,0,0,0-5.287-5.7,20.717,20.717,0,0,0-3.256-1.722l-1.571-.492-2.19-.233a2.7,2.7,0,0,1-2.161-3.026,2.653,2.653,0,0,1,1.98-2.5" transform="translate(250.566 125.109)" fill="#d8f263"/>
          <path id="Trazado_878265" data-name="Trazado 878265" d="M126.895,29.842l2.315-.253,2.865.286a19.184,19.184,0,0,1,5.145,1.9,24.046,24.046,0,0,1,8.362,7.774A30.325,30.325,0,0,1,150.3,50.783a32.7,32.7,0,0,1,.584,6.324,36.631,36.631,0,0,1-.72,6.524l-.686,2.614c-.346,1.024-.686,2.075-1.066,3.046A48.232,48.232,0,0,1,145.82,74.6c-1.906,3.418-4.306,6.251-6.615,9.45-2.349,3.146-5.168,6.284-8.663,7.927a16.68,16.68,0,0,1-5.452,1.569,22.793,22.793,0,0,1-5.667-.286l5.055-10.108c1.985,5.586,4.691,11,5.945,17.716a29.456,29.456,0,0,1,.125,10.76,21.6,21.6,0,0,1-1.849,5.26,20.087,20.087,0,0,1-1.31,2.261,19,19,0,0,1-1.583,2.081c-2.133,2.461-4.34,4.276-6.246,6.145-2.025,1.942-3.563,4.609-5.559,6.75a20.175,20.175,0,0,1-6.864,4.562c-2.513.991-5,1.982-7.528,2.786l2.785-7.827c2.082,5.979,4.124,12.536,4.669,20.017a42.879,42.879,0,0,1-.068,5.779c-.147.971-.2,1.975-.38,2.966l-.516,2.813a22.653,22.653,0,0,1-5.645,10.68,22.806,22.806,0,0,1-9.031,5.181,21.066,21.066,0,0,1-4.839.951,25.988,25.988,0,0,1-4.663.053,43.11,43.11,0,0,1-16.61-5.22,3.038,3.038,0,0,1-1.231-3.737,2.457,2.457,0,0,1,2.122-1.689c5.531-.239,10.8.027,15.481-.751a30.657,30.657,0,0,0,3.392-.738,21.753,21.753,0,0,0,3.046-1.15,22.992,22.992,0,0,0,5.264-3.491,24.788,24.788,0,0,0,4.391-3.964l.545-1.024c.062.047.2-.432.3-.625a7.4,7.4,0,0,0,.516-1.663,14.9,14.9,0,0,0,.187-3.684c-.363-5.214-2.978-10.408-5.576-15.741a5.83,5.83,0,0,1,1.69-7.242l.46-.266.635-.319a44.239,44.239,0,0,0,6.127-3.558,28.243,28.243,0,0,1,6.149-3.412c2.212-.785,4.771-1.283,6.683-2.76a16.4,16.4,0,0,0,4.7-5.274,9,9,0,0,0,.584-1.4,10.026,10.026,0,0,0,.414-1.536,17.823,17.823,0,0,0,.306-2.939,25.139,25.139,0,0,0-.743-6.318,40.515,40.515,0,0,0-6.064-13.573,6.73,6.73,0,0,1,.692-8.433,4.839,4.839,0,0,1,2.354-1.277l2.008-.406c1.2-.246,2.354-.638,3.5-.944a30.544,30.544,0,0,1,3.489-.884,34.93,34.93,0,0,1,3.727-.7,22.741,22.741,0,0,0,3.937-1.1c2.644-1.011,4.635-3.338,6.189-5.859a22.055,22.055,0,0,0,1.838-4.116l.516-2.008.437-2.614a28.238,28.238,0,0,0-.034-4.2,39.2,39.2,0,0,0-.8-4.309,32.36,32.36,0,0,0-3.3-8.014,25.187,25.187,0,0,0-5.338-6.358,22.809,22.809,0,0,0-3.358-2.141l-1.645-.745-2.269-.552a2.816,2.816,0,0,1-1.855-3.305,2.562,2.562,0,0,1,2.116-2.215" transform="translate(298.456 167.186)" fill="#d8f263"/>
          <path id="Trazado_878266" data-name="Trazado 878266" d="M156.474,34.666l2.02.718,2.326,1.343a20.569,20.569,0,0,1,3.869,3.485,26.733,26.733,0,0,1,5.281,9.49,34.032,34.032,0,0,1,1.821,11.119,33.663,33.663,0,0,1-.55,5.693,32.923,32.923,0,0,1-1.645,5.619l-.981,2.181-1.327,2.527a38.368,38.368,0,0,1-2.927,4.309,52.078,52.078,0,0,1-6.932,7.116c-5,4.183-10.387,7.335-16.6,10.787l-.062.033,4.47-11.545A51.167,51.167,0,0,1,148.9,97.97q.6,2.693.919,5.413c.159,1.822.369,3.618.414,5.44.159,7.209-1.015,14.664-4.414,20.835l-1.242,2.075-1.583,2.2c-1.061,1.29-2.133,2.527-3.251,3.678-2.275,2.288-4.646,4.243-6.995,6.364-2.315,2.121-4.629,4.915-7.613,6.211a17.256,17.256,0,0,1-9.338,1.3l5.145-7.149a53.538,53.538,0,0,1-.108,11.246,57.686,57.686,0,0,1-2.456,10.627,62.3,62.3,0,0,1-4.141,9.736c-1.645,3.066-3.2,6.311-5.219,9.337l-1.458,2.062c-.63.7-1.237,1.456-1.923,2.108a22.35,22.35,0,0,1-4.1,3.126,32.7,32.7,0,0,1-9.167,3.584,27.808,27.808,0,0,1-18.658-2.155l-1-.505a2.816,2.816,0,0,1-1.43-2.321c-.165-2.155-.357-4.3-.4-6.491a2.686,2.686,0,0,1,2.366-2.913,2.4,2.4,0,0,1,2.19,1.49c.891,1.922,1.634,3.9,2.411,5.859L75.425,186.3a34.865,34.865,0,0,0,7.38-.3,32.972,32.972,0,0,0,6.978-1.915,30.776,30.776,0,0,0,6.359-3.412c1-.678,1.969-1.377,3-2a12.378,12.378,0,0,1,1.4-.838,16.073,16.073,0,0,1,1.7-1.144,26.245,26.245,0,0,0,2.99-2.434,18.991,18.991,0,0,0,2.428-3.219,30.689,30.689,0,0,0,3.018-7.867,39.162,39.162,0,0,0,.045-16.712c-.664-3.013.879-6.085,3.449-6.863a5.247,5.247,0,0,1,.624-.14l1.072-.146c2.15-.293,4.181-.938,6.348-1.23,2.122-.4,4.709-.093,6.938-1.164a12.252,12.252,0,0,0,3-2.175,16.968,16.968,0,0,0,2.428-2.993,25.914,25.914,0,0,0,1.866-3.438l1.39-3.611a46.073,46.073,0,0,0,1.781-7.448,32.6,32.6,0,0,0,.261-7.728,26.187,26.187,0,0,0-1.656-7.388,21.622,21.622,0,0,0-3.37-6.2,6.642,6.642,0,0,1,.193-8.339,5.648,5.648,0,0,1,.828-.745L139.33,84.4l.045.007c4.828,1.942,10.194.559,14.438-2.481a20.92,20.92,0,0,0,5.531-5.786,32.263,32.263,0,0,0,1.963-3.584l.7-1.749.732-2.268c.221-.971.5-2.507.675-3.751.153-1.337.193-2.673.233-4.023a33.84,33.84,0,0,0-.936-8.06,30.14,30.14,0,0,0-3.024-7.329A33.2,33.2,0,0,0,157.4,42.3l-1.2-1.264-1.747-1.37a3.112,3.112,0,0,1-.664-3.877,2.222,2.222,0,0,1,2.678-1.124" transform="translate(331.244 195.201)" fill="#d8f263"/>
          <path id="Trazado_878267" data-name="Trazado 878267" d="M132.647,43.439a30.468,30.468,0,0,1,7.1,4.449,26.779,26.779,0,0,1,3.285,3.3c.488.6,1.044,1.37,1.441,1.942a19.371,19.371,0,0,1,1.35,2.321,20.784,20.784,0,0,1,2.218,10.893,19.61,19.61,0,0,1-.408,2.919,12.1,12.1,0,0,1-.329,1.277l-.471,1.476a27.545,27.545,0,0,1-2.354,4.762,46.167,46.167,0,0,1-2.774,4,34.14,34.14,0,0,0-2.507,4.183,33.43,33.43,0,0,1-2.439,4.2,12.133,12.133,0,0,1-3.188,3.066c-2.417,1.563-5.276,2.095-7.687,3.491-2.513,1.2-4.969,2.514-7.551,3.458l-1.515-11.106a10.121,10.121,0,0,1,6.586,3.438,18.322,18.322,0,0,1,3.336,6.005,55.148,55.148,0,0,1,1.849,6.211c.448,1.363,1.611,3.99,2.161,6.058a13.7,13.7,0,0,1-.13,6.61,42.276,42.276,0,0,1-2.269,5.945,31.525,31.525,0,0,1-6.893,9.636,49.178,49.178,0,0,1-4.294,3.691l-2.417,1.716c-.7.485-1.118.971-2.076,1.623a17.684,17.684,0,0,1-5.236,2.78,12.591,12.591,0,0,1-5.542.193A22.813,22.813,0,0,1,84.359,129.2a3.159,3.159,0,0,1,.959-3.917,2.128,2.128,0,0,1,2.144-.133l.2.1a29.892,29.892,0,0,0,14.84,3.6,26.221,26.221,0,0,1,3.443-.2l3.506.352a4.989,4.989,0,0,0,2.1-.339,5.442,5.442,0,0,0,1.554-.778,11.137,11.137,0,0,0,2.808-2.76,21.931,21.931,0,0,0,3.421-7.5c.794-2.72.323-5.387,1.475-7.9.607-1.45,1.4-2.341,1.186-4.409a7.148,7.148,0,0,0-1.413-3.578,5.959,5.959,0,0,0-2.507-1.929,3.386,3.386,0,0,0-1.708-.253c-2.61.326-4.941-1.889-5.219-4.948a5.791,5.791,0,0,1,2.7-5.613l1-.545a61.065,61.065,0,0,0,6.4-3.691c2.144-1.237,3.716-3.618,5.628-5.181a10.57,10.57,0,0,1,3.183-1.822c1.055-.352,2.587-.751,3.727-1.037a8.83,8.83,0,0,0,5.542-4.289,9.651,9.651,0,0,0,1.259-3.066l.1-.658a5.606,5.606,0,0,0,.079-.9,9.694,9.694,0,0,0-.062-1.516,20.836,20.836,0,0,0-1.929-6.072l-.715-1.436c-.357-.618-.59-1.017-.942-1.536-.624-1.011-1.356-1.975-2.122-2.979-1.56-1.962-3.313-4.023-5.06-6.3a3.191,3.191,0,0,1,.182-4,2.16,2.16,0,0,1,2.524-.525" transform="translate(392.762 244.298)" fill="#d8f263"/>
          <path id="Trazado_878268" data-name="Trazado 878268" d="M113.711,48.174A21.74,21.74,0,0,1,120.4,51.5a26.5,26.5,0,0,1,5.662,5.294,72.409,72.409,0,0,1,4.5,6.969,26.279,26.279,0,0,1,2.2,4.476l1.883,5.227a15.371,15.371,0,0,1,.9,6.045,10.129,10.129,0,0,1-1.991,5.24,41.7,41.7,0,0,1-3.54,3.717c-.6.625-1.123,1.124-1.838,1.749l-1.7,1.383a16.291,16.291,0,0,1-7.454,3.392c-1.282.173-2.541.213-3.716.459a6.135,6.135,0,0,0-3.268,1.5l1.2-7.654a15.291,15.291,0,0,1,3.478,1.463,7.887,7.887,0,0,1,2.405,3.026,31.378,31.378,0,0,1,1.878,7.7,30.582,30.582,0,0,1-.278,7.7c-.221,1.257-.448,2.494-.715,3.737l-1.027,3.977a13.751,13.751,0,0,0-.244,1.569l-.7,2.234a11.165,11.165,0,0,1-1.94,3.538,15.8,15.8,0,0,1-6.081,3.9A12.509,12.509,0,0,1,97.2,125.975a3.313,3.313,0,0,1-.414-4.15,2.517,2.517,0,0,1,1.367-1.037l.391-.113a19.367,19.367,0,0,0,7.278-3.89l1.344-1.25c.426-.432.749-.951,1.186-1.31a5.1,5.1,0,0,1,1.549-.871l.766-.233a10.553,10.553,0,0,0,1.021-1.051c.312-.06.7-1.031.834-1.629a7.7,7.7,0,0,0,.238-2.175,14.9,14.9,0,0,0-1.844-6.112,17.427,17.427,0,0,0-1.152-1.523,3.688,3.688,0,0,1-.681-1.776,15.417,15.417,0,0,0-.306-2.6l-1.259-4.223a2.743,2.743,0,0,1,1.367-3.318,1.937,1.937,0,0,1,1.089-.113,5.021,5.021,0,0,0,3.285-.785,15.337,15.337,0,0,0,2.751-2.128c1.679-1.569,3.336-2.587,4.7-3.831a14.581,14.581,0,0,0,1.021-1.044,10.4,10.4,0,0,0,.664-.971,6.854,6.854,0,0,0,.641-2.594,3.33,3.33,0,0,1,.828-2.035c.494-.539,1.356-1.051,2.008-1.822a3.482,3.482,0,0,0,.7-1.257,1.642,1.642,0,0,0,.017-1.37,5.892,5.892,0,0,0-1.146-2.467,45,45,0,0,0-4.85-4.688c-1.679-1.563-3.217-3.292-4.771-5.054a72.791,72.791,0,0,1-4.6-5.673,3.257,3.257,0,0,1,.272-4.1,2.258,2.258,0,0,1,2.2-.612" transform="translate(449.752 271.763)" fill="#d8f263"/>
          <path id="Trazado_878269" data-name="Trazado 878269" d="M41.667,56.921s2.961,6.5,8.078,15.715A310.089,310.089,0,0,0,70.23,105c8.033,11.239,16.616,21.833,22.936,29.933,3.171,4.03,5.786,7.442,7.6,9.849s2.808,3.857,2.808,3.857a1.183,1.183,0,0,1-.113,1.483.814.814,0,0,1-1.1.04s-1.288-1.084-3.443-3.112-5.174-5.028-8.549-8.918c-3.432-3.837-7.21-8.572-11.074-13.833-3.914-5.2-7.761-11.086-11.573-16.971-7.551-11.857-14.4-24.253-19.458-33.59-4.964-9.423-8.135-15.768-8.135-15.768l-.017-.033a1.138,1.138,0,0,1,.318-1.423.822.822,0,0,1,1.22.372l.017.033" transform="translate(186.867 318.512)" fill="#d8f263"/>
          <path id="Trazado_878270" data-name="Trazado 878270" d="M44.987,57.924s3.772,5.959,10.058,14.2a270.6,270.6,0,0,0,24.7,28.357c9.531,9.616,19.566,18.428,27.014,25.164,3.721,3.392,6.825,6.218,9,8.2,2.167,2,3.364,3.232,3.364,3.232a1.183,1.183,0,0,1,.108,1.483.829.829,0,0,1-1.078.273s-1.435-.811-3.875-2.381a108.032,108.032,0,0,1-9.8-7.1,167.7,167.7,0,0,1-12.991-11.5c-4.629-4.4-9.281-9.483-13.887-14.6-9.15-10.335-17.62-21.4-23.866-29.773C47.551,64.993,43.6,59.234,43.6,59.234L43.58,59.2a1.172,1.172,0,0,1,.13-1.47.81.81,0,0,1,1.254.16l.023.033" transform="translate(202.715 324.905)" fill="#d8f263"/>
          <path id="Trazado_878271" data-name="Trazado 878271" d="M55.239,62.672s2.178-1.483,5.985-4.09c3.869-2.527,9.338-6.3,16.043-10.454,6.626-4.349,14.591-8.891,23.106-13.826,8.566-4.815,17.819-9.7,27.213-14.258A260.922,260.922,0,0,1,155.752,8.366c9.162-3.172,17.739-5.852,25.5-7.089a53.674,53.674,0,0,1,19-.173,32.778,32.778,0,0,1,7.057,2l.085.04a2.242,2.242,0,0,1,1.015,2.733,1.829,1.829,0,0,1-1.742,1.337s-2.473-.106-6.694.146a110.415,110.415,0,0,0-17.348,3.052c-7.114,1.909-15.652,4.3-24.694,7.076-9,2.953-18.664,5.925-28.183,9.556a284.959,284.959,0,0,0-27.639,11.8c-8.708,4.163-16.593,8.712-23.293,12.729C72.155,55.7,66.7,59.287,62.965,61.987s-5.894,4.263-5.894,4.263a1.639,1.639,0,0,1-2.451-.678A2.308,2.308,0,0,1,55.2,62.7l.04-.027" transform="translate(253.998 1.95)" fill="#d8f263"/>
          <path id="Trazado_878272" data-name="Trazado 878272" d="M62.071,66.835s7.84-5.613,19.923-13.626c5.962-4.143,13.161-8.452,20.78-13.3,7.7-4.662,16-9.47,24.4-14.112a277.85,277.85,0,0,1,25.239-12.064A179.9,179.9,0,0,1,175.2,5.72a107.233,107.233,0,0,1,16.6-3.385c4.056-.532,6.393-.638,6.393-.638a1.956,1.956,0,0,1,1.878,2.035,2.159,2.159,0,0,1-1.084,2.022l-.045.027s-2.139,1.084-5.934,2.66c-3.772,1.669-9.2,3.777-15.714,6.225-6.53,2.354-14.148,5.107-22.306,8.053-4.062,1.563-8.26,3.172-12.52,4.808-4.289,1.583-8.56,3.451-12.895,5.174-8.611,3.591-17.11,7.575-24.944,11.7-7.846,4.077-14.971,8.4-21.024,12.216-6.025,3.89-10.937,7.242-14.33,9.809l-5.338,3.97a1.639,1.639,0,0,1-2.462-.645,2.309,2.309,0,0,1,.556-2.88l.04-.033" transform="translate(285.991 9.577)" fill="#d8f263"/>
          <path id="Trazado_878273" data-name="Trazado 878273" d="M67.739,58.848S74.1,54.6,83.646,48.221C93.182,41.79,106.1,33.651,119.221,25.77c6.62-3.777,13.286-7.5,19.719-10.467a147.043,147.043,0,0,1,17.887-7.109,74.369,74.369,0,0,1,18.227-3.757,1.983,1.983,0,0,1,1.889,2.075A2.293,2.293,0,0,1,176,8.459s-1.634,1.091-4.555,2.64c-2.91,1.583-7.1,3.664-12.18,5.919-10.143,4.549-23.894,9.7-37.521,15.588-6.824,2.913-13.564,6.1-19.781,9.383-6.24,3.212-11.885,6.67-16.712,9.636-4.794,3.079-8.719,5.679-11.42,7.7-2.717,1.975-4.266,3.106-4.266,3.106a1.638,1.638,0,0,1-2.456-.665,2.3,2.3,0,0,1,.567-2.873l.062-.047" transform="translate(312.33 25.059)" fill="#d8f263"/>
          <path id="Trazado_878274" data-name="Trazado 878274" d="M192.79,68.091s-7.318,2.068-18.562,4.516C168.652,74,162.06,74.981,155,76.251c-7.074,1.057-14.659,1.955-22.295,2.607a176.564,176.564,0,0,1-22.487.106,116.008,116.008,0,0,1-19.475-2.946,71.093,71.093,0,0,1-18.284-6.843,2.331,2.331,0,0,1-.8-2.886,1.823,1.823,0,0,1,1.6-1.177H73.3s1.934-.027,5.219.266c3.29.266,7.942.771,13.479,1.483,11.068,1.443,25.749,3.731,40.664,4.542a174.481,174.481,0,0,0,21.937-.113,160.908,160.908,0,0,0,19.061-2.514,135.941,135.941,0,0,0,13.28-3.225c3.2-.964,5.021-1.516,5.021-1.516a1.776,1.776,0,0,1,2.173,1.5,2.137,2.137,0,0,1-1.282,2.54l-.017.007Z" transform="translate(333.935 361.422)" fill="#d8f263"/>
          <path id="Trazado_878275" data-name="Trazado 878275" d="M115.045,69.149a51.33,51.33,0,0,0-5.293.047,79.716,79.716,0,0,0-11.692,1.716c-4.283.791-8.617,1.184-11.771.166a11.038,11.038,0,0,1-5.106-3.1,3.034,3.034,0,0,1-.011-3.8,3.2,3.2,0,0,1,.369-.352,11.146,11.146,0,0,1,5.372-2c3.137-.419,7.2.559,11.335,1.636a43.047,43.047,0,0,0,11.442,1.842,33.089,33.089,0,0,0,5.219-.326,1.853,1.853,0,0,1,2.025,1.776,2.064,2.064,0,0,1-1.515,2.374,1.433,1.433,0,0,1-.335.02Z" transform="translate(376.207 348.779)" fill="#d8f263"/>
          <path id="Trazado_878276" data-name="Trazado 878276" d="M75.269,18.683s5.656,2.833,14.143,7.442c8.5,4.482,19.583,11.066,30.526,18.228A177.135,177.135,0,0,1,135.4,56.064a114.911,114.911,0,0,1,12.248,12.183,69.1,69.1,0,0,1,9.831,14.411,2.363,2.363,0,0,1-.737,2.946,1.6,1.6,0,0,1-1.753.013l-.04-.027a41.285,41.285,0,0,1-3.636-2.687c-2.246-1.782-5.344-4.422-8.923-7.728-7.165-6.584-16.259-15.927-25.965-24.613a180.155,180.155,0,0,0-14.733-12,155.425,155.425,0,0,0-13.711-8.925c-4.147-2.348-7.585-4.17-10.126-5.294L73.9,22.54a2.221,2.221,0,0,1-1.01-2.707A1.713,1.713,0,0,1,75.2,18.65l.068.033" transform="translate(340.046 104.567)" fill="#d8f263"/>
          <path id="Trazado_878277" data-name="Trazado 878277" d="M77.552,22.532s2.5,1.829,6.41,4.343c3.931,2.447,9.207,5.626,14.738,8.479,5.423,3.026,10.682,6.511,13.927,10.215a22.642,22.642,0,0,1,4.623,7.3A2.574,2.574,0,0,1,116.116,56a1.819,1.819,0,0,1-1.049.153,19.251,19.251,0,0,1-7.131-3.119c-3.863-2.461-8.26-6.923-12.707-11.438A88.663,88.663,0,0,0,82.311,30.253,65.11,65.11,0,0,0,75.844,26.2a2.254,2.254,0,0,1-.9-2.766,1.691,1.691,0,0,1,2.36-1.057,2.29,2.29,0,0,1,.2.133Z" transform="translate(349.495 125.377)" fill="#d8f263"/>
        </g>
      </g>
    </g>
  </g>
</svg>
