<svg xmlns="http://www.w3.org/2000/svg" xmlns:xlink="http://www.w3.org/1999/xlink" width="1240" height="382.856" viewBox="0 0 1240 382.856">
  <defs>
    <clipPath id="clip-path">
      <path id="Trazado_878278" data-name="Trazado 878278" d="M17.848,0h1204.3C1232.009,0,1240,6.424,1240,14.348V368.509c0,7.924-7.991,14.348-17.849,14.348H17.848C7.991,382.857,0,376.433,0,368.509V14.348C0,6.424,7.991,0,17.848,0Z" fill="#ac9afc"/>
    </clipPath>
    <linearGradient id="linear-gradient" x1="0.165" y1="0.202" x2="0.98" y2="0.647" gradientUnits="objectBoundingBox">
      <stop offset="0" stop-color="#d8f263"/>
      <stop offset="1" stop-color="#e4f3a0"/>
    </linearGradient>
    <clipPath id="clip-path-2">
      <rect id="Rectángulo_402190" data-name="Rectángulo 402190" width="756.597" height="583.458" fill="#567d56"/>
    </clipPath>
    <clipPath id="clip-path-3">
      <path id="Trazado_878253" data-name="Trazado 878253" d="M3.247,3.787l580.639-7.4-7.1,692.1-580.639,7.4Z" fill="#d8f263"/>
    </clipPath>
    <clipPath id="clip-path-4">
      <rect id="Rectángulo_402191" data-name="Rectángulo 402191" width="813.798" height="511.195" fill="#d8f263"/>
    </clipPath>
  </defs>
  <g id="fnd-4" transform="translate(-1548.449 -10525.924)">
    <g id="Enmascarar_grupo_1098828" data-name="Enmascarar grupo 1098828" transform="translate(1548.449 10525.924)" clip-path="url(#clip-path)">
      <path id="Trazado_878250" data-name="Trazado 878250" d="M17.848,0h1204.3C1232.009,0,1240,6.424,1240,14.348V368.509c0,7.924-7.991,14.348-17.849,14.348H17.848C7.991,382.857,0,376.433,0,368.509V14.348C0,6.424,7.991,0,17.848,0Z" fill="url(#linear-gradient)"/>
      <line id="Línea_2117" data-name="Línea 2117" y1="3.747" transform="translate(291.845 -48.493)" fill="none" stroke="#fff" stroke-miterlimit="10" stroke-width="1"/>
      <line id="Línea_2118" data-name="Línea 2118" x2="4.661" transform="translate(278.263 -38.894)" fill="none" stroke="#fff" stroke-miterlimit="10" stroke-width="1"/>
      <g id="Grupo_1101156" data-name="Grupo 1101156" transform="translate(661.266 -129.896)" opacity="0.36" style="mix-blend-mode: color-dodge;isolation: isolate">
        <g id="Grupo_1101155" data-name="Grupo 1101155" transform="translate(0 0)" opacity="0.54" clip-path="url(#clip-path-2)">
          <path id="Trazado_878251" data-name="Trazado 878251" d="M733.787,101.29c-3.692-26.567-6.144-53.818-28.218-74.8-12.5,29.189-34.277,54.79-56.517,80.42-30.069,34.661-61.845,68.245-95.83,100.539C486.573,270.989,410.822,325.2,332.67,379.262c-13.627,9.4-35.043-8.292-22.047-18.548,71.072-56.325,134.467-120.042,195.833-183.29,30.925-31.866,60.859-64.416,89.355-97.711,22.142-25.864,42.5-52.535,69.853-74.693C645.207-.348,622.595-.369,599.992.3q-39.753,1.254-79.528,2.875A1076.968,1076.968,0,0,0,330.757,7.21c-10.836,1.182-18.727,4.737-24.288,9.532C265.618,34.915,274.357,90.353,331,95.634q35.612,3.274,71.22,6.6c-107.154,40.673-206.96,93.1-297.928,156.414-41.209,28.7,3.025,75.741,48.85,68.857q49.674-7.489,97.9-18.58Q126.692,405.549,13.954,511.472c-38.4,36.08,8.958,89.228,63.252,66.527,128.633-53.861,245.126-122.607,350.058-201.615-17.566,38.976-33.551,78.385-47.393,118.291-10.069,28.829,24.812,62.243,63.118,51.887C534.58,521.7,565.935,416.491,585.719,345.98a243.961,243.961,0,0,0,12.386,57.607c11.351,32.392,57.933,40.266,88.069,19.416,110.381-76.447,61.545-222.119,47.613-321.714m-423.5,123.957a433.518,433.518,0,0,0-59.434,26.134c-17.409,9.438-34.859-10.356-19.032-21.052a290.413,290.413,0,0,1,64.189-32.8,282.872,282.872,0,0,1,33.372-10.09c12.485-2.867,26.336-6.506,39.354-6.909,5.507-.151,12.341,1.362,15.294,5.53,2.474,3.5,3.572,6.171,3.043,10.108-.69,4.759-5.3,8.9-10.782,10.573-10.97,3.386-22.818,5.173-33.954,8.411-10.782,3.116-21.572,6.325-32.05,10.1M521.952,357.9c-.206,3.307-.462,6.563-.775,9.82a346.466,346.466,0,0,1-5.888,38.1c-1.125,5.3-7.865,9.676-14.725,8.577-6.856-1.146-11.7-6.124-10.665-11.837a328.34,328.34,0,0,0,4.629-37.19l.412-6.751c0-.09-.013-.688.009-1.1s.045-1.653.054-1.794c.045-.688.085-1.376.072-2.068.031-2.439-.211-4.978.672-7.291.287-.908.8-1.855,1.089-2.766,0-.043.09-.548.112-.868.148-1.513.471-3.066.735-4.575.511-3.66.937-6.866,3.092-10.23,2.72-4.218,11.548-6.264,15.079-1.29a20.341,20.341,0,0,1,3.164,5.324,39.614,39.614,0,0,1,1,5.194c.3,1.715.533,3.429.775,5.14.081.512.161,1.066.242,1.621.049.14.349.843.439,1.214,1.47,4.063.739,8.545.479,12.766M685.466,226.357a9.671,9.671,0,0,1-.47,1.178c-.134.27-.211.591-.341.861l-.067.137a12.722,12.722,0,0,1-6.861,6.354,17.748,17.748,0,0,1-10.311,1.063,6.043,6.043,0,0,1-.905-.173c-.619-.162-1.188-.231-1.81-.393a19.058,19.058,0,0,1-6.982-2.853,29.05,29.05,0,0,0-2.469-1.758,27.2,27.2,0,0,1-4.432-3.35c-.6-.53-1.192-1.106-1.788-1.635a20.169,20.169,0,0,1-2.684-2.914c-2.429-3.365-5.516-7.122-7.246-10.688-2.846-5.868-5.9-12.064-6.717-18.353-.641-5.411,3.056-10.652,8.94-13.224,5.826-2.532,13.3-2.19,18.534,1.239,6.166,4.02,10.925,9.5,15.532,14.654,2.734,3.055,4.777,7.046,6.977,10.4a23.049,23.049,0,0,1,3.477,10.493,13.825,13.825,0,0,0,.471,2.641,11.5,11.5,0,0,1-.847,6.318" transform="translate(0 -0.002)" fill="#567d56"/>
        </g>
      </g>
      <g id="Grupo_1101158" data-name="Grupo 1101158" transform="translate(537.074 -116.306) rotate(87)" opacity="0.17" style="mix-blend-mode: multiply;isolation: isolate">
        <g id="Grupo_1101157" data-name="Grupo 1101157" transform="translate(0 0)" clip-path="url(#clip-path-3)">
          <path id="Trazado_878252" data-name="Trazado 878252" d="M564.913,116.066c-2.511-31.477-4.06-63.778-20.745-88.457-9.947,34.746-26.972,65.327-44.352,95.947-23.5,41.409-48.292,81.557-74.767,120.2C373.128,319.78,314.335,384.821,253.7,449.719c-10.572,11.286-26.792-9.494-16.694-21.786C292.234,360.425,341.661,284.224,389.525,208.6c24.12-38.1,47.489-77,69.763-116.779,17.307-30.9,33.255-62.733,54.516-89.284C498.17-3.63,480.817-3.434,463.463-2.418Q432.94-.543,402.4,1.769C354.274-2.749,305.762-.353,256.758,8.41A29.368,29.368,0,0,0,238,19.954c-31.571,21.957-25.54,87.633,17.869,93.343,18.193,2.357,36.383,4.77,54.576,7.127C227.719,169.719,150.487,232.884,79.9,308.875c-31.974,34.446,1.4,89.814,36.651,81.2a710.06,710.06,0,0,0,75.358-23Q95.306,482.915,7.5,609.663c-29.908,43.174,5.789,105.754,47.733,78.295C154.6,622.81,244.84,540.125,326.33,445.379c-13.955,46.405-26.7,93.308-37.81,140.78-8.078,34.3,18.285,73.59,47.808,60.931C406.92,616.706,432.263,491.6,448.3,407.766a425.411,425.411,0,0,0,8.8,68.212c8.317,38.311,43.97,47.2,67.351,22.17,85.64-91.761,49.934-264.079,40.454-382.082M238.4,267.246a301.576,301.576,0,0,0-45.93,31.582c-13.475,11.365-26.626-11.944-14.349-24.785,15.242-15.972,31.58-29.216,49.66-39.538a170.25,170.25,0,0,1,25.733-12.3c9.616-3.523,20.29-7.975,30.286-8.58,4.228-.233,9.454,1.495,11.67,6.409,1.856,4.133,2.666,7.285,2.212,11.96-.587,5.651-4.173,10.615-8.4,12.647-8.46,4.124-17.574,6.359-26.16,10.309-8.312,3.8-16.633,7.714-24.719,12.291M399.221,422.533c-.2,3.925-.434,7.79-.714,11.656-1.108,15.186-2.782,30.237-4.982,45.257-.928,6.292-6.153,11.554-11.405,10.318-5.248-1.292-8.908-7.15-8.041-13.937q2.81-21.985,4-44.16l.4-8.012c0-.107,0-.816.02-1.308s.054-1.962.063-2.128c.043-.817.082-1.633.08-2.453.054-2.893-.1-5.9.6-8.655.231-1.08.638-2.208.869-3.292,0-.051.075-.65.1-1.031.132-1.8.4-3.641.62-5.434.437-4.346.8-8.153,2.5-12.165,2.139-5.03,8.939-7.544,11.588-1.677a28.43,28.43,0,0,1,2.363,6.285c.385,1.986.5,4.121.7,6.152s.367,4.063.532,6.09c.056.606.111,1.263.166,1.921.036.166.258,1,.322,1.436,1.079,4.806.463,10.128.213,15.139m127.087-157.64c-.067.488-.264.918-.375,1.4-.106.322-.169.7-.272,1.025l-.053.163a13.717,13.717,0,0,1-5.342,7.6,9.349,9.349,0,0,1-7.926,1.361,3.177,3.177,0,0,1-.692-.2c-.473-.186-.909-.262-1.385-.448a12.116,12.116,0,0,1-5.323-3.316,24.779,24.779,0,0,0-1.873-2.061,24.05,24.05,0,0,1-3.36-3.931c-.451-.622-.9-1.3-1.352-1.922a22.493,22.493,0,0,1-2.024-3.431c-1.823-3.967-4.147-8.394-5.431-12.607-2.112-6.933-4.382-14.252-4.932-21.705-.426-6.412,2.475-12.665,7.022-15.774a10.891,10.891,0,0,1,14.209,1.289c4.683,4.708,8.269,11.161,11.741,17.231,2.061,3.6,3.58,8.311,5.228,12.272a37.817,37.817,0,0,1,2.541,12.413,24.458,24.458,0,0,0,.329,3.128,20.65,20.65,0,0,1-.727,7.5" transform="translate(0.235 0.692)" fill="#d8f263"/>
        </g>
      </g>
      <g id="Grupo_1101160" data-name="Grupo 1101160" transform="translate(524.839 -163.753)" opacity="0.24" style="mix-blend-mode: multiply;isolation: isolate">
        <g id="Grupo_1101159" data-name="Grupo 1101159" transform="translate(0 0)" clip-path="url(#clip-path-4)">
          <path id="Trazado_878254" data-name="Trazado 878254" d="M64.255,174c11.488,1.829,22.845,3.574,34.281,5.069,11.437,1.394,22.851,2.682,34.287,3.39,5.718.4,11.442.53,17.155.714,5.752.178,11.352.117,17.178.084,11.357-.223,22.9-.691,34.367-1.69,11.482-1.026,23-2.191,34.48-3.842,5.747-.747,11.476-1.706,17.223-2.559q8.612-1.321,17.155-3.117c11.369-2.509,22.669-5.509,34.072-7.818,5.713-1.082,11.437-2.085,17.195-2.855,5.747-.825,11.544-1.31,17.325-1.918l.7-.073a7.332,7.332,0,0,1,7.114,3.569c3.784,6.507,7.885,12.981,12.038,19.349l13.014,18.8c8.725,12.5,17.932,24.635,26.975,36.88,9.122,12.161,18.063,24.551,28.552,35.508,2.615,2.732,5.27,5.431,8.1,7.918a80.083,80.083,0,0,0,8.9,6.864,81.649,81.649,0,0,0,9.366,5.57,48.915,48.915,0,0,0,8.884,3.669l-8.878,9.3-3.063-8.726c-.522-1.45-.936-2.939-1.413-4.405a29.745,29.745,0,0,1-1.628-6.161,12.628,12.628,0,0,1,.471-4.924,13.256,13.256,0,0,1,2.218-4.227,46.479,46.479,0,0,1,3.744-4.02l6.53-6.647,6.524-6.652c2-2.1,4.839-4.806,5.684-5.972a2.076,2.076,0,0,0,.522-1.16,9.422,9.422,0,0,0-.409-2.855l-2.422-8.816-2.5-9.145a20.15,20.15,0,0,1,.352-12.161c3.341-8.029,9.372-11.827,13.155-15.908,4-3.981,7.256-8.855,10.461-14.09a34.062,34.062,0,0,0,1.951-3.518,2.52,2.52,0,0,0,.221-1.84c-.187-1.277-1.5-4.7-2.451-7.539-2.042-5.95-4.05-11.442-5.962-17.8a25.832,25.832,0,0,1-.964-6.284,16.8,16.8,0,0,1,1.662-7.617c2.258-4.544,4.89-6.87,6.66-9.011a137.951,137.951,0,0,0,10.637-13.912,10.134,10.134,0,0,0,1.135-2.113c.057-.145.062-.151.091-.1-.057-.4.062.151.017-.117-.045-.786-2.15-2.849-4.64-6.786l-.6-1.054-.8-1.712a23.213,23.213,0,0,1-1.061-3.139,25.9,25.9,0,0,1-.777-6.145,32.091,32.091,0,0,1,2.212-11.2c2.57-6.976,7.324-12.451,11.692-17.035l6.422-6.663c1.015-1.076,2.025-2.152,2.95-3.251l1.361-1.645c.187-.212.17-.234.057.145a2.912,2.912,0,0,0-.079.942c-.017-.312.028.335.062.379a2.125,2.125,0,0,0,.119.351c.17.362.233.323.114.151l-.664-.965c-.55-.831-1-1.572-1.407-2.292-.828-1.461-1.56-2.905-2.258-4.366a55.624,55.624,0,0,1-3.54-9.284,3.083,3.083,0,0,1,2.212-3.786,3.158,3.158,0,0,1,3.7,1.74l.1.24A65.364,65.364,0,0,0,524.42,53.2c.8,1.243,1.628,2.47,2.473,3.613.431.585.862,1.115,1.225,1.533l.766.864a7.456,7.456,0,0,1,1.31,2.13,7.115,7.115,0,0,1,.272.9,7.571,7.571,0,0,1,.125.954,6.086,6.086,0,0,1-.255,2.08,9.187,9.187,0,0,1-1.044,2.18l-1.35,2.119c-.913,1.4-1.878,2.716-2.842,4.02-1.929,2.593-3.954,4.991-5.8,7.366-3.7,4.751-6.813,9.223-8.18,14.035-1.424,4.845-1.18,9.446.987,12.44.7,1.355,3.614,3.4,6.008,8.364a14.672,14.672,0,0,1,1.129,4.349,14.377,14.377,0,0,1-.323,4.478,21.96,21.96,0,0,1-2.706,6.273,150.236,150.236,0,0,1-11.386,16c-2.139,2.632-4.045,4.728-4.476,5.793A3.7,3.7,0,0,0,500,154.02a10.986,10.986,0,0,0,.295,2.849c1.242,5.559,2.575,11.933,3.772,17.882.5,3.128,1.5,5.548,1.691,10.438a14.818,14.818,0,0,1-1.844,7.07,43.464,43.464,0,0,1-2.9,4.383c-3.551,5.108-7.233,10.589-11.97,15.479-4.731,4.734-9.519,8.5-10.58,12.295-.55,1.656-.477,3.463.278,6.011s1.844,5.738,2.774,8.587l2.927,8.894a21.128,21.128,0,0,1,1.072,6.228,14.031,14.031,0,0,1-2.258,7.528c-2.723,3.909-4.544,5.4-6.649,7.94l-6.183,6.959-6.172,6.97a34.288,34.288,0,0,0-2.445,2.922c-.119.162-.131.429.079-.145.023.056.1-.485.108-.351-.017.089.4,1.126.97,2.693.5,1.461,1.067,2.894,1.526,4.366l2.814,8.821.25.792a6.854,6.854,0,0,1-4.578,8.626,7.08,7.08,0,0,1-4.55-.123,41.927,41.927,0,0,1-11.822-6.58,106.28,106.28,0,0,1-9.173-8.2l-16.514-16.873c-10.8-11.213-21.614-22.354-31.627-34.164-10.081-11.754-19.282-24.15-28.512-36.495l-13.564-18.73L333.43,171.422l7.812,3.5c-5.718,1.02-11.42,2.169-17.178,2.972-5.741.864-11.516,1.489-17.308,2.035-11.6.953-23.3,1.21-34.934,1.957-11.618.836-23.106,2.526-34.627,4.093-11.533,1.55-23.043,3.463-34.679,4.823-11.635,1.433-23.293,2.654-35.166,3.022-5.8.223-11.817.173-17.682.011-5.9-.184-11.788-.6-17.648-1.132a347.852,347.852,0,0,1-34.911-4.818c-11.516-2.1-22.97-4.767-34.179-7.834a3.091,3.091,0,0,1-2.212-3.8A3.171,3.171,0,0,1,64.255,174" transform="translate(283.194 199.621)" fill="#d8f263"/>
          <path id="Trazado_878255" data-name="Trazado 878255" d="M800.782,212.012c-3.336.608-6.768,1.1-10.03,1.807-3.262.758-6.484,1.333-9.752,2.23-6.53,1.606-12.991,3.524-19.458,5.431-6.456,1.929-12.872,4.043-19.254,6.234s-12.713,4.567-19.055,6.9q-18.984,7.084-37.577,15.195c-12.356,5.453-24.689,10.968-36.732,16.94l-.04.017a5.386,5.386,0,0,1-6.722-1.617l-27.565-37.6q-13.845-18.727-28.285-36.98c-9.621-12.167-19.85-23.843-30.276-35.3a328.99,328.99,0,0,0-33.4-32.257c-6-4.89-11.873-9.914-18.182-14.38-6.178-4.628-12.361-9.2-18.749-13.46l-9.389-6.641-9.65-6.217c-3.239-2.03-6.314-4.321-9.6-6.273l-9.814-5.927a293.638,293.638,0,0,0-40.907-20.882,367.377,367.377,0,0,0-44.05-14.347c-15.1-3.987-30.021-7.243-45.412-9.853-7.63-1.461-15.351-2.258-23.021-3.468-3.841-.636-7.7-1-11.573-1.322l-11.6-1.154a337.041,337.041,0,0,0-46.62-.909,225.188,225.188,0,0,0-46.081,6.591c-7.619,1.444-14.9,4.282-22.363,6.189-7.488,1.868-14.716,4.556-22.085,6.775-7.409,2.119-14.568,4.929-21.8,7.583-3.591,1.372-7.273,2.554-10.807,4.076L90.407,54.123,79.872,58.885,69.7,64.344c-6.756,3.7-13.672,7.16-20.048,11.5-6.422,4.26-13.2,8.024-19.345,12.685L11.724,102.35l.5-7.634c9.343,10.215,18.942,20.191,28.4,30.294l.023.028a5.05,5.05,0,0,1-.306,7.221,5.382,5.382,0,0,1-1.651,1c-10.342,3.92-20.6,8.046-30.821,12.289L10.425,137l10.381,12.4L31.636,161.4c3.75,3.881,7.568,7.684,11.232,11.609,3.852,3.769,7.675,7.55,11.425,11.408,3.937,3.675,7.795,7.433,11.652,11.185l12,10.851,12.4,10.444,12.758,10.02,13.1,9.613,13.354,9.3,13.615,8.966,13.9,8.57q14.092,8.272,28.478,16.142l14.545,7.589,14.716,7.332.074.033a3.076,3.076,0,0,1,1.384,4.16A3.187,3.187,0,0,1,212.3,300.1L196.8,294.018l-15.283-6.6-15.113-7.02L151.573,272.8l-14.613-8.029L122.578,256.3q-7.088-4.408-14.075-8.983L94.781,237.8l-13.4-9.975L68.328,217.393l-12.69-10.884q-6.169-5.637-12.208-11.42c-3.926-3.953-7.749-8.007-11.567-12.055-3.687-4.171-7.216-8.481-10.818-12.708L10.81,157.173,1.166,143.617l-.159-.223a5.438,5.438,0,0,1,1.379-7.65,5.634,5.634,0,0,1,1.344-.68c10.455-3.636,20.865-7.383,31.2-11.342l-1.934,8.252c-9.553-10.02-18.959-20.168-28.631-30.088l-.023-.022a5.1,5.1,0,0,1,.159-7.3l.363-.312L23.591,79.611c6.183-4.979,13.031-9.072,19.526-13.65,6.45-4.667,13.473-8.459,20.349-12.49,3.46-1.979,6.881-4.037,10.376-5.955L84.6,42.246l10.762-5.3c3.614-1.712,7.38-3.084,11.068-4.639,7.432-2.989,14.784-6.217,22.544-8.314,15.209-5.135,31.1-8.091,46.966-10.031,15.913-1.8,31.712-3.524,47.6-4.65l11.93-.574c3.971-.3,7.953-.513,11.93-.457L259.352,8.2c3.988-.084,7.982-.106,11.959.151A397.419,397.419,0,0,1,318.946,12.6c15.68,2.42,31.564,5.648,46.921,9.5A397.411,397.411,0,0,1,411.6,36.33c7.443,2.989,15.079,5.593,22.266,9.161,7.29,3.357,14.716,6.529,21.625,10.611l10.54,5.838c3.46,2.035,6.751,4.316,10.081,6.541l9.916,6.775,9.394,7.427c3.063,2.559,6.269,4.935,9.2,7.634l8.719,8.141c5.906,5.308,11.329,11.079,16.866,16.717,10.954,11.369,21.659,22.856,32.313,34.376,5.338,5.754,10.347,11.782,15.532,17.659l15.141,17.949c9.984,12.044,19.725,24.267,29.363,36.556l14.3,18.529,13.967,18.746-6.762-1.595q18.414-9.276,37.4-17.124,18.984-7.879,38.36-14.771c12.963-4.489,26.09-8.537,39.4-12.05,6.643-1.784,13.394-3.24,20.173-4.55,3.353-.725,6.881-1.165,10.3-1.756,3.438-.535,6.79-.825,10.189-1.249a3.092,3.092,0,0,1,.981,6.106Z" transform="translate(0.002 37.285)" fill="#d8f263"/>
          <path id="Trazado_878256" data-name="Trazado 878256" d="M64.2,31.628A22.517,22.517,0,0,1,53.622,61.989,23.277,23.277,0,0,1,22.728,51.6a22.518,22.518,0,0,1,10.58-30.361A23.272,23.272,0,0,1,64.2,31.628Z" transform="translate(95.19 86.556)" fill="#d8f263" stroke="#40433e" stroke-linecap="round" stroke-linejoin="round" stroke-width="1.482"/>
          <path id="Trazado_878257" data-name="Trazado 878257" d="M43.969,46.186a443.622,443.622,0,0,1,219.27-44.8c9.321.507,20.916,3.2,22.748,12.189.675,3.307-.278,6.747-1.759,9.791-6.3,12.914-20.825,19.36-32.7,27.668s-22.5,23.257-16.049,36.1" transform="translate(205.464 3.391)" fill="#d8f263" stroke="#40433e" stroke-linecap="round" stroke-linejoin="round" stroke-width="1.482"/>
          <path id="Trazado_878258" data-name="Trazado 878258" d="M85.437,58.429a144.414,144.414,0,0,1,14.778,5.425c4.862,2.03,9.536,4.455,14.194,6.9a147.839,147.839,0,0,1,13.473,8.2c4.311,3.011,8.441,6.245,12.554,9.485l12.078,10.02a119.73,119.73,0,0,0,12.446,9.7l6.456,4.74a76.955,76.955,0,0,1,5.843,5.4c3.665,3.819,6.5,8.331,9.525,12.63l.374.535a4.959,4.959,0,0,1-.976,6.719,40.25,40.25,0,0,1-12.878,7.048,47.742,47.742,0,0,1-13.865,2.141,53.679,53.679,0,0,1-13.422-1.444c-4.4-1.015-8.447-2.637-11.936-3.061-3.7-.39-5.985.5-8.515,3.9a24.163,24.163,0,0,1-5.259,5.13,14.519,14.519,0,0,1-3.943,1.868,16.316,16.316,0,0,1-4.153.8c-5.65.474-10.432-1.595-14.636-3.6a58.633,58.633,0,0,1-11.232-7.606c-3.16-2.543-6.632-5.643-9.644-8.6-3.08-2.994-6.155-5.994-9-9.195-5.73-6.3-12.605-12.027-16.945-19.577A111.091,111.091,0,0,1,40.326,82.355a112.38,112.38,0,0,1-3.012-12.485,106.749,106.749,0,0,1-1.265-12.708,2.386,2.386,0,0,1,4.629-.814l.028.084c.686,1.946,1.316,3.881,1.889,5.821l2.082,5.715q2.136,5.671,4.584,11.146c1.713,3.624,3.387,7.243,5.333,10.728,1.878,3.513,3.909,6.937,6.047,10.293,2.184,3.312,3.965,6.892,6.013,10.36a57.19,57.19,0,0,0,6.881,9.942,87.477,87.477,0,0,0,8.64,8.5,98.567,98.567,0,0,0,9.65,7.344,49.052,49.052,0,0,0,10.03,5.637,25.7,25.7,0,0,0,9.706,1.851q1.064-.05,2.059-.184a7.147,7.147,0,0,0,1.917-.357,14.374,14.374,0,0,0,4.8-2.269c1.832-1.065,3.937-2.716,6.518-3.641a18.721,18.721,0,0,1,7.67-1.132c4.918.19,8.935,1.216,12.861,1.394a84.923,84.923,0,0,0,11.7.229c7.59-.441,14.931-2.637,19.583-7.539l-.6,7.249c-3.375-3.753-7.154-7.121-10.325-10.99-3.336-3.73-6.093-8-9.088-12.161a68.9,68.9,0,0,0-4.822-5.938c-1.77-1.823-3.67-3.518-5.537-5.247-1.917-1.673-3.92-3.251-5.877-4.873l-6.183-4.5c-4.17-2.927-8.487-5.637-12.792-8.347l-13-7.99c-4.368-2.615-8.855-5.013-13.286-7.561L83.559,62.683a2.305,2.305,0,0,1-.953-3.156,2.376,2.376,0,0,1,2.774-1.115Z" transform="translate(168.449 250.654)" fill="#d8f263"/>
          <path id="Trazado_878259" data-name="Trazado 878259" d="M246.1,56.834c.028.028-.539-.268-1.288-.53a16.221,16.221,0,0,0-3.653-.842c-3.347-.491-8.248.217-14.392,1.388-3.063.541-6.257,1.344-9.7,2.091-3.432.825-7.04,1.74-10.739,2.838-7.431,2.063-15.289,4.55-23.208,7.015C175.175,71.153,167.148,73.478,159.4,75a116.888,116.888,0,0,1-21.517,2.476,80.2,80.2,0,0,1-8.719-.374,60.984,60.984,0,0,1-6.654-1c-3.659-.8-5.684-1.427-5.684-1.427a1.768,1.768,0,0,1-1.174-2.23,1.792,1.792,0,0,1,1.5-1.227l.13-.017s2.088-.251,5.627-.385c1.764-.028,3.926-.3,6.365-.446,2.439-.033,5.2-.5,8.186-.664,2.99-.379,6.24-.591,9.661-1.1,3.438-.362,7.051-.937,10.807-1.528,7.494-1.255,15.549-2.654,23.611-4.338,8.078-1.578,16.156-3.385,23.758-5.013,7.59-1.556,14.738-3.15,20.888-4.093,6.008-1.132,11.431-1.851,15.317-1.478a19.453,19.453,0,0,1,4.521.909,10.052,10.052,0,0,1,1.43.546l.238.1a1.735,1.735,0,0,1,.794,2.342,1.787,1.787,0,0,1-2.383.781Z" transform="translate(540.039 238.209)" fill="#d8f263"/>
          <path id="Trazado_878260" data-name="Trazado 878260" d="M234.1,85.232a74.91,74.91,0,0,0-14.591-2.771c-4.952-.507-9.967-.524-14.988-.535s-10.081.279-15.175.335c-5.111.039-10.211.095-15.351-.123a165.3,165.3,0,0,1-30.566-3.864,73.694,73.694,0,0,1-14.988-4.8,36.276,36.276,0,0,1-13.008-9.54l-.46-.558a2.309,2.309,0,0,1,.357-3.284,2.4,2.4,0,0,1,2.956-.022c.97.742,1.917,1.522,2.853,2.325a1.763,1.763,0,0,1,.17,2.52,1.839,1.839,0,0,1-1.917.53c-1.18-.368-2.349-.758-3.5-1.182l2.854-3.864c7.953,5.046,17.013,7.516,26.629,9.9,9.61,2.314,19.311,4.427,29.182,5.8,9.837,1.528,19.872,1.818,30.015,2.18,5.077.145,10.166.485,15.266.942A108.287,108.287,0,0,1,235,81.847l.062.017A1.751,1.751,0,0,1,236.337,84a1.786,1.786,0,0,1-2.178,1.249l-.062-.017" transform="translate(534.789 272.619)" fill="#d8f263"/>
          <path id="Trazado_878261" data-name="Trazado 878261" d="M221.885,131.394s-1.946-.48-5.344-1.322c-3.358-.881-8.362-2.108-14.092-3.987-2.91-.831-6.013-1.9-9.281-3.067-3.279-1.132-6.66-2.532-10.223-3.847-7.006-2.883-14.364-6.279-21.6-10-3.54-1.979-7.114-3.931-10.478-6.1-3.46-2.035-6.632-4.366-9.746-6.58-3.007-2.331-5.934-4.583-8.549-6.9a97.918,97.918,0,0,1-7.091-6.814,80,80,0,0,1-9.253-11.392c-1.969-2.95-2.939-4.734-2.939-4.734a1.773,1.773,0,0,1,.743-2.414,1.853,1.853,0,0,1,1.94.139l.062.05s1.645,1.2,4.255,3.468c2.587,2.247,6.286,5.464,10.722,9.323,2.2,1.929,4.555,4.031,7.12,6.178,2.456,2.264,5.281,4.394,8.061,6.764,2.893,2.225,5.815,4.628,8.918,6.9,3.035,2.375,6.325,4.489,9.531,6.764,3.313,2.1,6.581,4.3,9.967,6.195,3.347,1.974,6.791,3.636,10.081,5.336,3.358,1.556,6.592,3.134,9.786,4.3,3.165,1.249,6.172,2.4,9,3.318a132.038,132.038,0,0,0,13.831,3.847c3.426.736,5.389,1.154,5.389,1.154a1.75,1.75,0,0,1,1.356,2.085,1.777,1.777,0,0,1-2.116,1.333l-.057-.011" transform="translate(528.416 293.012)" fill="#d8f263"/>
          <path id="Trazado_878262" data-name="Trazado 878262" d="M46.81,13.281s1.248,1.478,3.432,4.059c2.218,2.576,5.384,6.256,9.19,10.678,3.92,4.316,8.192,9.6,13.014,15.083,4.76,5.565,9.831,11.5,14.9,17.436,4.975,6.033,9.814,12.2,13.916,18.272a142.023,142.023,0,0,1,10.223,17.168,70.966,70.966,0,0,1,6.62,18.5,2.774,2.774,0,0,1-2.332,3.173,2.852,2.852,0,0,1-2.354-.7l-.045-.045a46.691,46.691,0,0,1-3.727-3.987,121.2,121.2,0,0,1-8.453-11.135C97.935,97.071,94.5,91.372,90.844,85.233c-3.614-6.178-7.471-12.769-11.334-19.36-3.9-6.591-7.925-13.137-12.055-19.031-4.1-5.922-8.288-11.185-11.868-15.708C48.28,22.252,42.8,16.749,42.8,16.749a2.6,2.6,0,0,1,.04-3.719,2.711,2.711,0,0,1,3.784.039c.045.05.1.1.142.156Z" transform="translate(196.433 56.192)" fill="#d8f263"/>
          <path id="Trazado_878263" data-name="Trazado 878263" d="M178.546,41.041s-2.144,1.545-5.894,4.249c-3.767,2.637-9.122,6.658-15.68,11.146-3.222,2.342-6.773,4.79-10.546,7.36l-11.885,8.068c-8.322,5.5-17.274,11.275-26.339,16.94-9.179,5.47-18.448,10.851-27.491,15.239-4.527,2.175-8.935,4.21-13.167,6.039-4.272,1.723-8.277,3.435-12.123,4.656-15.209,5.37-26.181,6.384-26.181,6.384a2.737,2.737,0,0,1-3-2.442,2.693,2.693,0,0,1,1.186-2.487l.04-.028s2.264-1.511,6.354-3.708c4.079-2.236,9.962-5.219,17.093-8.515,3.557-1.69,7.477-3.34,11.567-5.208,4.13-1.79,8.481-3.675,12.985-5.621,4.5-1.974,9.156-4.009,13.882-6.078,4.76-2.019,9.474-4.316,14.279-6.457,4.743-2.264,9.525-4.472,14.137-6.831,4.618-2.342,9.06-4.84,13.394-7.2,8.64-4.779,16.366-9.8,22.953-14.13,6.53-4.455,11.834-8.219,15.464-11.1l5.735-4.455a2.7,2.7,0,0,1,3.75.429,2.6,2.6,0,0,1-.437,3.691l-.079.056" transform="translate(122.584 166.102)" fill="#d8f263"/>
          <path id="Trazado_878264" data-name="Trazado 878264" d="M124.312,22.5l2.178-.357c.908,0,1.849,0,2.774.05a18.615,18.615,0,0,1,5.038,1.216,21.9,21.9,0,0,1,8.305,5.821,26.076,26.076,0,0,1,5.134,8.665,25.5,25.5,0,0,1,1.044,5.03,21.985,21.985,0,0,1-.238,5.359l-.511,2.136c-.278.853-.539,1.74-.857,2.543a30.318,30.318,0,0,1-2.264,4.411,32.755,32.755,0,0,1-6.325,7.3,44.9,44.9,0,0,1-7.761,5.537c-2.78,1.55-5.571,3.217-8.7,4.628l2.6-7.567a44.085,44.085,0,0,1,4.629,4,30.723,30.723,0,0,1,3.721,4.812c2.133,3.479,3.285,7.477,4.38,11.381a58.059,58.059,0,0,1,2.468,11.983,36.627,36.627,0,0,1-.817,12.34c-.357,1.338-.59,1.885-.891,2.866-.357.993-.851,2.063-1.31,3.061a49.951,49.951,0,0,1-3.234,5.314c-1.225,1.65-2.473,3.245-3.773,4.812-1.367,1.511-2.678,3.045-4.011,4.678a33.321,33.321,0,0,1-4.482,4.678,19.571,19.571,0,0,1-5.894,3.117,26.71,26.71,0,0,1-6.745,1.093,33.972,33.972,0,0,1-6.819-.48l3.988-8.275a19.065,19.065,0,0,1,5.542,11.3,26.105,26.105,0,0,1-1.259,11.654,28.772,28.772,0,0,1-2.519,5.186,54.705,54.705,0,0,1-3.285,4.812,31.11,31.11,0,0,1-8.305,7.818,28.29,28.29,0,0,1-5.049,2.426,51.791,51.791,0,0,1-5.316,1.662,41.8,41.8,0,0,1-11.187,1.277,32.851,32.851,0,0,1-11.153-2.147,24.152,24.152,0,0,1-9.247-6.424,2.32,2.32,0,0,1,.318-3.312,2.414,2.414,0,0,1,2.661-.257l.074.039c5.344,2.838,11.17,3.256,16.905,2.5a45.205,45.205,0,0,0,12.514-3.68l3.914-1.862a44.7,44.7,0,0,0,7.545-3.987,12.774,12.774,0,0,0,2.876-2.883,13.836,13.836,0,0,0,1.821-3.624c1.8-5.069,0-10.951-3.4-13.41a4.57,4.57,0,0,1-1-6.457,4.727,4.727,0,0,1,4.016-1.874l.976.056a20.883,20.883,0,0,0,4.379-.217,42.439,42.439,0,0,0,4.215-1.249c2.695-1.076,5.832-1.723,8.952-3.178a15.7,15.7,0,0,0,6.564-7.366,24.516,24.516,0,0,0,1.634-4.617c.131-.753.272-1.416.454-2.18.119-.814.346-2.052.369-2.515.1-1.617.278-3.2.255-4.818a46,46,0,0,0-.312-4.829,35.75,35.75,0,0,0-2.61-9.474c-1.413-3.028-3.512-5.7-5.185-8.559-.834-1.444-1.656-2.9-2.394-4.444-.806-1.494-1.424-3.167-2.246-4.728l-1.044-1.968a3.8,3.8,0,0,1,1.668-5.169,3.955,3.955,0,0,1,1.98-.429,20.881,20.881,0,0,0,3.9-.167,17.155,17.155,0,0,0,3.773-1.126,24.012,24.012,0,0,0,6.49-4.344,23.1,23.1,0,0,0,4.5-6.106,21.98,21.98,0,0,0,1.322-3.424l.369-1.584.3-2.08a21.445,21.445,0,0,0-.051-3.217,19.035,19.035,0,0,0-.7-3.379,18.308,18.308,0,0,0-3.188-6.329,19.124,19.124,0,0,0-5.287-4.779,22.333,22.333,0,0,0-3.256-1.444l-1.571-.413-2.19-.2a2.332,2.332,0,0,1-.181-4.634" transform="translate(250.566 101.322)" fill="#d8f263"/>
          <path id="Trazado_878265" data-name="Trazado 878265" d="M126.895,29.8l2.315-.212,2.865.24a21.639,21.639,0,0,1,5.145,1.595,22.953,22.953,0,0,1,8.362,6.518A23.44,23.44,0,0,1,150.3,47.36a23.132,23.132,0,0,1,.584,5.3,25.967,25.967,0,0,1-.72,5.47l-.686,2.191c-.346.859-.686,1.74-1.066,2.554a38.126,38.126,0,0,1-2.587,4.45,83.221,83.221,0,0,1-6.615,7.923c-2.349,2.637-5.168,5.269-8.663,6.647a19.182,19.182,0,0,1-5.452,1.316,27.122,27.122,0,0,1-5.667-.24l5.055-8.475c1.985,4.684,4.691,9.223,5.945,14.854a20.784,20.784,0,0,1,.125,9.022,17.1,17.1,0,0,1-3.16,6.306,16.586,16.586,0,0,1-1.583,1.745c-2.133,2.063-4.34,3.585-6.246,5.152-2.025,1.628-3.563,3.864-5.559,5.66a20.825,20.825,0,0,1-6.864,3.825c-2.513.831-5,1.662-7.528,2.336l2.785-6.563c2.082,5.013,4.124,10.511,4.669,16.784a30.161,30.161,0,0,1-.068,4.846c-.147.814-.2,1.656-.38,2.487l-.516,2.359a18.268,18.268,0,0,1-5.645,8.955,24.212,24.212,0,0,1-9.031,4.344,24.689,24.689,0,0,1-4.839.8,30.976,30.976,0,0,1-4.663.045,49.221,49.221,0,0,1-16.61-4.377,2.356,2.356,0,0,1-1.231-3.134,2.425,2.425,0,0,1,2.122-1.416c5.531-.2,10.8.022,15.481-.63,1.276-.19,2.122-.318,3.392-.619a24.507,24.507,0,0,0,3.046-.965,23.749,23.749,0,0,0,5.264-2.927,23.833,23.833,0,0,0,4.391-3.323l.545-.859c.062.039.2-.362.3-.524a5.5,5.5,0,0,0,.516-1.394,10.506,10.506,0,0,0,.187-3.089c-.363-4.372-2.978-8.726-5.576-13.2a4.412,4.412,0,0,1,1.69-6.072l.46-.223.635-.268a46.936,46.936,0,0,0,6.127-2.983,30.193,30.193,0,0,1,6.149-2.86c2.212-.658,4.771-1.076,6.683-2.314a14.887,14.887,0,0,0,4.7-4.422,6.929,6.929,0,0,0,.584-1.171,7.353,7.353,0,0,0,.414-1.288,12.624,12.624,0,0,0,.306-2.465,17.851,17.851,0,0,0-.743-5.3,31.573,31.573,0,0,0-6.064-11.381,4.971,4.971,0,0,1,.692-7.07,5.182,5.182,0,0,1,2.354-1.071l2.008-.34c1.2-.206,2.354-.535,3.5-.792a35.445,35.445,0,0,1,3.489-.742c1.186-.24,2.4-.441,3.727-.586a26.243,26.243,0,0,0,3.937-.92,12.786,12.786,0,0,0,6.189-4.912,17.177,17.177,0,0,0,1.838-3.452l.516-1.684.437-2.191a19.864,19.864,0,0,0-.034-3.518,28.152,28.152,0,0,0-.8-3.613,24.9,24.9,0,0,0-3.3-6.719,22.553,22.553,0,0,0-5.338-5.331,23.768,23.768,0,0,0-3.358-1.8l-1.645-.624-2.269-.463a2.344,2.344,0,0,1-1.855-2.771,2.376,2.376,0,0,1,2.116-1.857" transform="translate(298.456 135.4)" fill="#d8f263"/>
          <path id="Trazado_878266" data-name="Trazado 878266" d="M156.474,34.647l2.02.6,2.326,1.126a19.8,19.8,0,0,1,3.869,2.922,21.723,21.723,0,0,1,5.281,7.957,24.389,24.389,0,0,1,1.821,9.323,23.822,23.822,0,0,1-.55,4.773,24.322,24.322,0,0,1-1.645,4.712l-.981,1.829-1.327,2.119a32.551,32.551,0,0,1-2.927,3.613,48.474,48.474,0,0,1-6.932,5.966,106.575,106.575,0,0,1-16.6,9.044l-.062.028,4.47-9.68a38.543,38.543,0,0,1,3.67,8.743,39.475,39.475,0,0,1,.919,4.539c.159,1.528.369,3.033.414,4.561.159,6.044-1.015,12.3-4.414,17.47l-1.242,1.74L143,117.879c-1.061,1.082-2.133,2.119-3.251,3.084-2.275,1.918-4.646,3.558-6.995,5.336-2.315,1.779-4.629,4.121-7.613,5.208A20.293,20.293,0,0,1,115.8,132.6l5.145-5.994a37.685,37.685,0,0,1-.108,9.429,41.9,41.9,0,0,1-2.456,8.91,48.144,48.144,0,0,1-4.141,8.163,89.455,89.455,0,0,1-5.219,7.829l-1.458,1.729c-.63.586-1.237,1.221-1.923,1.768a22.4,22.4,0,0,1-4.1,2.621,36.677,36.677,0,0,1-9.167,3.005,32.687,32.687,0,0,1-18.658-1.807l-1-.424a2.356,2.356,0,0,1-1.43-1.946c-.165-1.807-.357-3.6-.4-5.442A2.4,2.4,0,0,1,73.252,158a2.436,2.436,0,0,1,2.19,1.249c.891,1.611,1.634,3.268,2.411,4.912l-2.428-2.37a41.515,41.515,0,0,0,7.38-.251,38.069,38.069,0,0,0,6.978-1.606,33.089,33.089,0,0,0,6.359-2.86c1-.569,1.969-1.154,3-1.673a13.064,13.064,0,0,1,1.4-.7,16.576,16.576,0,0,1,1.7-.959,25.906,25.906,0,0,0,2.99-2.041,16.537,16.537,0,0,0,2.428-2.7,23.385,23.385,0,0,0,3.018-6.6,27.665,27.665,0,0,0,.045-14.012,4.716,4.716,0,0,1,3.449-5.754,6.118,6.118,0,0,1,.624-.117l1.072-.123c2.15-.245,4.181-.786,6.348-1.032,2.122-.335,4.709-.078,6.938-.976a12.421,12.421,0,0,0,3-1.823,15.054,15.054,0,0,0,2.428-2.509,20.913,20.913,0,0,0,1.866-2.883l1.39-3.028a33.529,33.529,0,0,0,1.781-6.245,22.969,22.969,0,0,0,.261-6.479,19.01,19.01,0,0,0-1.656-6.195,17.476,17.476,0,0,0-3.37-5.2,4.889,4.889,0,0,1,.193-6.992,5.441,5.441,0,0,1,.828-.625l3.455-2.058.045.006c4.828,1.628,10.194.468,14.438-2.08a19.373,19.373,0,0,0,5.531-4.851,26.079,26.079,0,0,0,1.963-3.005l.7-1.466.732-1.9c.221-.814.5-2.1.675-3.145a33.453,33.453,0,0,0,.233-3.373,24.026,24.026,0,0,0-.936-6.758,23.2,23.2,0,0,0-3.024-6.145,28.793,28.793,0,0,0-2.286-2.582l-1.2-1.059L154.46,38.84a2.325,2.325,0,0,1-.664-3.251,2.41,2.41,0,0,1,2.678-.942" transform="translate(331.244 158.088)" fill="#d8f263"/>
          <path id="Trazado_878267" data-name="Trazado 878267" d="M132.647,43.406a31.863,31.863,0,0,1,7.1,3.73,25.074,25.074,0,0,1,3.285,2.766c.488.5,1.044,1.149,1.441,1.628a15.856,15.856,0,0,1,1.35,1.946,15.092,15.092,0,0,1,2.218,9.133,13.962,13.962,0,0,1-.408,2.448,8.856,8.856,0,0,1-.329,1.071l-.471,1.238a21.842,21.842,0,0,1-2.354,3.992,39.357,39.357,0,0,1-2.774,3.357,28.14,28.14,0,0,0-2.507,3.507,27.361,27.361,0,0,1-2.439,3.524,11.488,11.488,0,0,1-3.188,2.571c-2.417,1.31-5.276,1.756-7.687,2.927-2.513,1-4.969,2.108-7.551,2.9l-1.515-9.312a10.849,10.849,0,0,1,6.586,2.883,14.86,14.86,0,0,1,3.336,5.035,40.8,40.8,0,0,1,1.849,5.208c.448,1.143,1.611,3.346,2.161,5.08a9.694,9.694,0,0,1-.13,5.543,32.163,32.163,0,0,1-2.269,4.985,27.115,27.115,0,0,1-6.893,8.08,47.906,47.906,0,0,1-4.294,3.095l-2.417,1.439c-.7.407-1.118.814-2.076,1.361a19.046,19.046,0,0,1-5.236,2.331,14.954,14.954,0,0,1-5.542.162c-7.267-.792-14.143-4.7-17.535-10.717a2.4,2.4,0,0,1,.959-3.284,2.483,2.483,0,0,1,2.144-.112l.2.084a34.647,34.647,0,0,0,14.84,3.017,31.217,31.217,0,0,1,3.443-.167l3.506.3a7.261,7.261,0,0,0,3.653-.937,10.485,10.485,0,0,0,2.808-2.314,17.164,17.164,0,0,0,3.421-6.29c.794-2.281.323-4.517,1.475-6.624.607-1.216,1.4-1.963,1.186-3.7a5.486,5.486,0,0,0-1.413-3,5.974,5.974,0,0,0-2.507-1.617,3.987,3.987,0,0,0-1.708-.212,4.723,4.723,0,0,1-5.219-4.149,4.654,4.654,0,0,1,2.7-4.706l1-.457a64.882,64.882,0,0,0,6.4-3.095c2.144-1.037,3.716-3.033,5.628-4.344a11.228,11.228,0,0,1,3.183-1.528c1.055-.3,2.587-.63,3.727-.87a8.764,8.764,0,0,0,5.542-3.6,7.425,7.425,0,0,0,1.259-2.571l.1-.552c.017-.229.136-.8.079-.753a6.827,6.827,0,0,0-.062-1.271,15.529,15.529,0,0,0-1.929-5.091l-.715-1.2c-.357-.519-.59-.853-.942-1.288a32.063,32.063,0,0,0-2.122-2.5c-1.56-1.645-3.313-3.373-5.06-5.28a2.351,2.351,0,0,1,.182-3.357,2.46,2.46,0,0,1,2.524-.441" transform="translate(392.762 197.851)" fill="#d8f263"/>
          <path id="Trazado_878268" data-name="Trazado 878268" d="M113.711,48.162A23.642,23.642,0,0,1,120.4,50.95a25.262,25.262,0,0,1,5.662,4.438,60.72,60.72,0,0,1,4.5,5.844,20.817,20.817,0,0,1,2.2,3.753l1.883,4.383a11,11,0,0,1,.9,5.069,7.745,7.745,0,0,1-1.991,4.394,38.585,38.585,0,0,1-3.54,3.117c-.6.524-1.123.942-1.838,1.466l-1.7,1.16a17.918,17.918,0,0,1-7.454,2.844c-1.282.145-2.541.178-3.716.385a6.725,6.725,0,0,0-3.268,1.26l1.2-6.418a17.018,17.018,0,0,1,3.478,1.227,6.965,6.965,0,0,1,2.405,2.537A22.878,22.878,0,0,1,121,92.864a21.554,21.554,0,0,1-.278,6.457c-.221,1.054-.448,2.091-.715,3.134l-1.027,3.334a9.816,9.816,0,0,0-.244,1.316l-.7,1.874a9.043,9.043,0,0,1-1.94,2.966,16.419,16.419,0,0,1-6.081,3.273c-4.334,1.31-9.332.87-12.809-1.823a2.451,2.451,0,0,1-.414-3.479,2.521,2.521,0,0,1,1.367-.87l.391-.095a20.763,20.763,0,0,0,7.278-3.262l1.344-1.048c.426-.362.749-.8,1.186-1.1a5.429,5.429,0,0,1,1.549-.73l.766-.2a9.814,9.814,0,0,0,1.021-.881c.312-.05.7-.864.834-1.366a5.467,5.467,0,0,0,.238-1.823,9.323,9.323,0,0,0-.97-3.569,10.153,10.153,0,0,0-.874-1.556,15.186,15.186,0,0,0-1.152-1.277,2.824,2.824,0,0,1-.681-1.489,10.939,10.939,0,0,0-.306-2.18l-1.259-3.541a2.179,2.179,0,0,1,1.367-2.782,2.286,2.286,0,0,1,1.089-.095,5.8,5.8,0,0,0,3.285-.658,15.323,15.323,0,0,0,2.751-1.784c1.679-1.316,3.336-2.169,4.7-3.212.233-.2.562-.424,1.021-.875a8.841,8.841,0,0,0,.664-.814,5.012,5.012,0,0,0,.641-2.175,2.578,2.578,0,0,1,.828-1.706c.494-.452,1.356-.881,2.008-1.528a2.83,2.83,0,0,0,.7-1.054A1.178,1.178,0,0,0,126.6,67.1a4.618,4.618,0,0,0-1.146-2.069A42.529,42.529,0,0,0,120.6,61.1c-1.679-1.31-3.217-2.76-4.771-4.238a64.559,64.559,0,0,1-4.6-4.756,2.4,2.4,0,0,1,.272-3.435,2.562,2.562,0,0,1,2.2-.513" transform="translate(449.752 220.094)" fill="#d8f263"/>
          <path id="Trazado_878269" data-name="Trazado 878269" d="M41.667,56.832s2.961,5.453,8.078,13.176A258.53,258.53,0,0,0,70.23,97.147c8.033,9.423,16.616,18.306,22.936,25.1,3.171,3.379,5.786,6.24,7.6,8.258s2.808,3.234,2.808,3.234a.873.873,0,0,1-.113,1.243.933.933,0,0,1-1.1.033s-1.288-.909-3.443-2.61-5.174-4.215-8.549-7.477c-3.432-3.217-7.21-7.187-11.074-11.6-3.914-4.36-7.761-9.3-11.573-14.23-7.551-9.942-14.4-20.336-19.458-28.164-4.964-7.9-8.135-13.221-8.135-13.221l-.017-.028a.86.86,0,0,1,.318-1.193.9.9,0,0,1,1.22.312l.017.028" transform="translate(186.867 257.955)" fill="#d8f263"/>
          <path id="Trazado_878270" data-name="Trazado 878270" d="M44.987,57.856s3.772,5,10.058,11.9a244.351,244.351,0,0,0,24.7,23.776c9.531,8.063,19.566,15.451,27.014,21.1,3.721,2.844,6.825,5.214,9,6.875,2.167,1.678,3.364,2.71,3.364,2.71a.873.873,0,0,1,.108,1.243.929.929,0,0,1-1.078.229s-1.435-.68-3.875-2a109.743,109.743,0,0,1-9.8-5.95c-3.965-2.6-8.4-5.911-12.991-9.646C86.853,104.415,82.2,100.15,77.6,95.862,68.445,87.2,59.975,77.918,53.729,70.9,47.551,63.783,43.6,58.954,43.6,58.954l-.017-.028a.866.866,0,0,1,.13-1.232.907.907,0,0,1,1.254.134l.023.028" transform="translate(202.715 263.132)" fill="#d8f263"/>
          <path id="Trazado_878271" data-name="Trazado 878271" d="M55.239,52.6s2.178-1.243,5.985-3.429c3.869-2.119,9.338-5.28,16.043-8.765,6.626-3.647,14.591-7.455,23.106-11.592,8.566-4.037,17.819-8.135,27.213-11.955A291.055,291.055,0,0,1,155.752,7.07c9.162-2.66,17.739-4.907,25.5-5.944a63.863,63.863,0,0,1,19-.145,37.6,37.6,0,0,1,7.057,1.678l.085.033a1.76,1.76,0,0,1,1.015,2.292,1.816,1.816,0,0,1-1.742,1.121s-2.473-.089-6.694.123A129.939,129.939,0,0,0,182.63,8.788c-7.114,1.6-15.652,3.608-24.694,5.933-9,2.476-18.664,4.968-28.183,8.013-9.553,2.927-18.97,6.318-27.639,9.892-8.708,3.491-16.593,7.3-23.293,10.672-6.666,3.457-12.117,6.468-15.856,8.732S57.071,55.6,57.071,55.6a1.8,1.8,0,0,1-2.451-.569,1.735,1.735,0,0,1,.579-2.409l.04-.022" transform="translate(253.998 1.579)" fill="#d8f263"/>
          <path id="Trazado_878272" data-name="Trazado 878272" d="M62.071,56.313s7.84-4.706,19.923-11.425c5.962-3.474,13.161-7.087,20.78-11.152,7.7-3.909,16-7.94,24.4-11.832,8.464-3.708,16.99-7.366,25.239-10.115A204.134,204.134,0,0,1,175.2,5.07a125.645,125.645,0,0,1,16.6-2.838c4.056-.446,6.393-.535,6.393-.535A1.8,1.8,0,0,1,200.071,3.4a1.766,1.766,0,0,1-1.084,1.7l-.045.022s-2.139.909-5.934,2.23c-3.772,1.4-9.2,3.167-15.714,5.219-6.53,1.974-14.148,4.282-22.306,6.753-4.062,1.31-8.26,2.66-12.52,4.031-4.289,1.327-8.56,2.894-12.895,4.338-8.611,3.011-17.11,6.351-24.944,9.808-7.846,3.418-14.971,7.042-21.024,10.243C77.581,51,72.668,53.815,69.276,55.967L63.938,59.3a1.805,1.805,0,0,1-2.462-.541,1.733,1.733,0,0,1,.556-2.414l.04-.028" transform="translate(285.991 7.756)" fill="#d8f263"/>
          <path id="Trazado_878273" data-name="Trazado 878273" d="M67.739,50.058S74.1,46.5,83.646,41.148c9.536-5.392,22.453-12.217,35.575-18.824,6.62-3.167,13.286-6.29,19.719-8.777a164.845,164.845,0,0,1,17.887-5.961,87.265,87.265,0,0,1,18.227-3.15A1.8,1.8,0,0,1,176,7.809s-1.634.914-4.555,2.214c-2.91,1.327-7.1,3.072-12.18,4.963-10.143,3.814-23.894,8.135-37.521,13.07-6.824,2.442-13.564,5.119-19.781,7.868-6.24,2.693-11.885,5.593-16.712,8.08-4.794,2.582-8.719,4.762-11.42,6.457-2.717,1.656-4.266,2.6-4.266,2.6a1.8,1.8,0,0,1-2.456-.558,1.729,1.729,0,0,1,.567-2.409l.062-.039" transform="translate(312.33 20.295)" fill="#d8f263"/>
          <path id="Trazado_878274" data-name="Trazado 878274" d="M192.79,67.425s-7.318,1.734-18.562,3.786C168.652,72.382,162.06,73.2,155,74.266c-7.074.887-14.659,1.639-22.295,2.186a210.516,210.516,0,0,1-22.487.089,136.885,136.885,0,0,1-19.475-2.47,79.589,79.589,0,0,1-18.284-5.738,1.783,1.783,0,0,1-.8-2.42,1.829,1.829,0,0,1,1.6-.987H73.3s1.934-.022,5.219.223c3.29.223,7.942.647,13.479,1.243,11.068,1.21,25.749,3.128,40.664,3.808a208.033,208.033,0,0,0,21.937-.095A190.376,190.376,0,0,0,173.656,68c5.554-.937,10.075-1.857,13.28-2.7,3.2-.809,5.021-1.271,5.021-1.271a1.783,1.783,0,0,1,2.173,1.255,1.747,1.747,0,0,1-1.282,2.13l-.017.006Z" transform="translate(333.935 292.707)" fill="#d8f263"/>
          <path id="Trazado_878275" data-name="Trazado 878275" d="M115.045,67.95s-2.1-.106-5.293.039a94.168,94.168,0,0,0-11.692,1.439c-4.283.664-8.617.992-11.771.139a11.4,11.4,0,0,1-5.106-2.6,2.233,2.233,0,0,1-.011-3.189,3.034,3.034,0,0,1,.369-.3,12.4,12.4,0,0,1,5.372-1.673c3.137-.351,7.2.468,11.335,1.372a50.72,50.72,0,0,0,11.442,1.545,39.349,39.349,0,0,0,5.219-.273,1.78,1.78,0,0,1,2.025,1.489,1.759,1.759,0,0,1-1.515,1.991,1.705,1.705,0,0,1-.335.017Z" transform="translate(376.207 282.467)" fill="#d8f263"/>
          <path id="Trazado_878276" data-name="Trazado 878276" d="M75.269,18.654s5.656,2.375,14.143,6.24c8.5,3.758,19.583,9.278,30.526,15.284A177.857,177.857,0,0,1,135.4,50a107.758,107.758,0,0,1,12.248,10.215A58.146,58.146,0,0,1,157.475,72.3a1.8,1.8,0,0,1-.737,2.47,1.86,1.86,0,0,1-1.753.011l-.04-.022a41.867,41.867,0,0,1-3.636-2.253c-2.246-1.494-5.344-3.708-8.923-6.479-7.165-5.52-16.259-13.354-25.965-20.637a177.866,177.866,0,0,0-14.733-10.059c-4.85-3.017-9.61-5.448-13.711-7.483-4.147-1.968-7.585-3.5-10.126-4.438L73.9,21.888a1.744,1.744,0,0,1-1.01-2.269,1.794,1.794,0,0,1,2.309-.993l.068.028" transform="translate(340.046 84.686)" fill="#d8f263"/>
          <path id="Trazado_878277" data-name="Trazado 878277" d="M77.552,22.477s2.5,1.533,6.41,3.641c3.931,2.052,9.207,4.717,14.738,7.109,5.423,2.537,10.682,5.459,13.927,8.565a18.666,18.666,0,0,1,4.623,6.117,2.014,2.014,0,0,1-1.135,2.632,2.137,2.137,0,0,1-1.049.128,21.487,21.487,0,0,1-7.131-2.615c-3.863-2.063-8.26-5.8-12.707-9.591a86,86,0,0,0-12.917-9.513,68.344,68.344,0,0,0-6.467-3.4,1.745,1.745,0,0,1-.9-2.32,1.8,1.8,0,0,1,2.36-.887c.068.033.142.072.2.112Z" transform="translate(349.495 101.54)" fill="#d8f263"/>
        </g>
      </g>
    </g>
  </g>
</svg>
