<svg xmlns="http://www.w3.org/2000/svg" xmlns:xlink="http://www.w3.org/1999/xlink" width="1240" height="490.306" viewBox="0 0 1240 490.306">
  <defs>
    <clipPath id="clip-path">
      <path id="Trazado_879583" data-name="Trazado 879583" d="M17.848,0h1204.3A18.117,18.117,0,0,1,1240,18.374V471.931a18.117,18.117,0,0,1-17.849,18.374H17.848A18.117,18.117,0,0,1,0,471.931V18.374A18.117,18.117,0,0,1,17.848,0Z" transform="translate(0 0)" fill="#ac9afc"/>
    </clipPath>
    <linearGradient id="linear-gradient" x1="0.165" y1="0.202" x2="0.98" y2="0.647" gradientUnits="objectBoundingBox">
      <stop offset="0" stop-color="#fcc59a"/>
      <stop offset="1" stop-color="#fde7d6"/>
    </linearGradient>
    <clipPath id="clip-path-2">
      <rect id="Rectángulo_402393" data-name="Rectángulo 402393" width="756.597" height="747.205" fill="#fcc59a"/>
    </clipPath>
    <clipPath id="clip-path-3">
      <path id="Trazado_879558" data-name="Trazado 879558" d="M6.517,5.635,749.556,6.747l1.066,692.524L7.583,698.159Z" fill="#fcc59a"/>
    </clipPath>
    <clipPath id="clip-path-4">
      <rect id="Rectángulo_402394" data-name="Rectángulo 402394" width="813.798" height="654.661" fill="#fcc59a"/>
    </clipPath>
  </defs>
  <g id="fnd-3" transform="translate(-1612.449 -9196.585)">
    <g id="Enmascarar_grupo_1098888" data-name="Enmascarar grupo 1098888" transform="translate(1612.449 9196.585)" clip-path="url(#clip-path)">
      <path id="Trazado_879555" data-name="Trazado 879555" d="M17.848,0h1204.3A18.117,18.117,0,0,1,1240,18.374V471.931a18.117,18.117,0,0,1-17.849,18.374H17.848A18.117,18.117,0,0,1,0,471.931V18.374A18.117,18.117,0,0,1,17.848,0Z" transform="translate(0 0)" fill="url(#linear-gradient)"/>
      <line id="Línea_2196" data-name="Línea 2196" y1="4.799" transform="translate(291.845 -62.102)" fill="none" stroke="#fff" stroke-miterlimit="10" stroke-width="1"/>
      <line id="Línea_2197" data-name="Línea 2197" x2="4.661" transform="translate(278.263 -49.809)" fill="none" stroke="#fff" stroke-miterlimit="10" stroke-width="1"/>
      <g id="Grupo_1101625" data-name="Grupo 1101625" transform="translate(661.266 -166.351)" opacity="0.36" style="mix-blend-mode: color-dodge;isolation: isolate">
        <g id="Grupo_1101624" data-name="Grupo 1101624" transform="translate(0 0)" opacity="0.54" clip-path="url(#clip-path-2)">
          <path id="Trazado_879556" data-name="Trazado 879556" d="M733.787,129.717c-3.692-34.023-6.144-68.922-28.218-95.8-12.5,37.381-34.277,70.167-56.517,102.99-30.069,44.388-61.845,87.4-95.83,128.755-66.649,81.377-142.4,150.8-220.551,220.037-13.627,12.041-35.043-10.62-22.047-23.754,71.072-72.132,134.467-153.731,195.833-234.73,30.925-40.809,60.859-82.494,89.355-125.134,22.142-33.123,42.5-67.279,69.853-95.655C645.207-.445,622.595-.473,599.992.385Q560.239,1.99,520.464,4.066C457.691-1.474,394.5.445,330.757,9.233,319.921,10.746,312.03,15.3,306.469,21.44,265.618,44.713,274.357,115.711,331,122.474q35.612,4.193,71.22,8.447C295.069,183.009,195.263,250.15,104.295,331.232c-41.209,36.754,3.025,97,48.85,88.182q49.674-9.591,97.9-23.8Q126.692,519.366,13.954,655.016c-38.4,46.206,8.958,114.27,63.252,85.2,128.633-68.977,245.126-157.016,350.058-258.2C409.7,531.93,393.713,582.4,379.871,633.5c-10.069,36.92,24.812,79.712,63.118,66.449C534.58,668.118,565.935,533.379,585.719,443.08a389.31,389.31,0,0,0,12.386,73.775c11.351,41.482,57.933,51.567,88.069,24.865,110.381-97.9,61.545-284.456,47.613-412m-423.5,158.746a392.722,392.722,0,0,0-59.434,33.469c-17.409,12.087-34.859-13.263-19.032-26.96a273.649,273.649,0,0,1,64.189-42.008,239,239,0,0,1,33.372-12.922c12.485-3.672,26.336-8.331,39.354-8.848,5.507-.194,12.341,1.744,15.294,7.081,2.474,4.489,3.572,7.9,3.043,12.945-.69,6.094-5.3,11.4-10.782,13.54-10.97,4.336-22.818,6.625-33.954,10.772-10.782,3.99-21.572,8.1-32.05,12.931M521.952,458.349c-.206,4.235-.462,8.405-.775,12.576-1.241,16.382-3.222,32.611-5.888,48.8-1.125,6.781-7.865,12.391-14.725,10.984A13.5,13.5,0,0,1,489.9,515.549q3.368-23.7,4.629-47.627l.412-8.645c0-.115-.013-.881.009-1.412s.045-2.117.054-2.3c.045-.881.085-1.762.072-2.648.031-3.123-.211-6.376.672-9.337.287-1.163.8-2.376,1.089-3.543,0-.055.09-.7.112-1.112.148-1.938.471-3.926.735-5.859.511-4.687.937-8.793,3.092-13.1,2.72-5.4,11.548-8.022,15.079-1.652a28.369,28.369,0,0,1,3.164,6.818,63.591,63.591,0,0,1,1,6.652c.3,2.2.533,4.392.775,6.583.081.655.161,1.366.242,2.076.049.18.349,1.079.439,1.555,1.47,5.2.739,10.943.479,16.349M685.466,289.884a14.593,14.593,0,0,1-.47,1.509c-.134.346-.211.757-.341,1.1l-.067.175a14.7,14.7,0,0,1-6.861,8.138,14.182,14.182,0,0,1-10.311,1.361,4.889,4.889,0,0,1-.905-.221c-.619-.208-1.188-.3-1.81-.5a17.034,17.034,0,0,1-6.982-3.654,30.4,30.4,0,0,0-2.469-2.251,29.048,29.048,0,0,1-4.432-4.29c-.6-.678-1.192-1.416-1.788-2.094a24.6,24.6,0,0,1-2.684-3.732c-2.429-4.309-5.516-9.12-7.246-13.687-2.846-7.515-5.9-15.45-6.717-23.5a17.77,17.77,0,0,1,8.94-16.935,16.5,16.5,0,0,1,18.534,1.587c6.166,5.148,10.925,12.165,15.532,18.767,2.734,3.912,4.777,9.023,6.977,13.323a35.448,35.448,0,0,1,3.477,13.438,22.247,22.247,0,0,0,.471,3.382,18.526,18.526,0,0,1-.847,8.092" transform="translate(0 -0.002)" fill="#fcc59a"/>
        </g>
      </g>
      <g id="Grupo_1101627" data-name="Grupo 1101627" transform="translate(538.748 -151.343) rotate(87)" opacity="0.17" style="mix-blend-mode: multiply;isolation: isolate">
        <g id="Grupo_1101626" data-name="Grupo 1101626" transform="translate(0 0)" clip-path="url(#clip-path-3)">
          <path id="Trazado_879557" data-name="Trazado 879557" d="M726.858,125.917c-3.675-31.538-6.132-63.887-27.849-88.829-12.221,34.627-33.562,64.982-55.357,95.37-29.467,41.1-60.612,80.911-93.929,119.192C484.384,326.974,410.09,391.2,333.437,455.261c-13.366,11.139-34.43-9.894-21.686-22.048,69.7-66.749,131.838-142.284,191.989-217.265,30.312-37.777,59.651-76.367,87.575-115.845,21.7-30.666,41.642-62.293,68.465-88.553-20.1-6.4-42.307-6.46-64.5-5.7q-39.038,1.43-78.1,3.3a875.984,875.984,0,0,0-186.3,4.51c-10.639,1.386-18.383,5.595-23.835,11.278-40.085,21.511-31.4,87.325,24.239,93.677q34.98,3.939,69.956,7.933a1283.159,1283.159,0,0,0-292.3,185.214c-40.418,34,3.109,89.9,48.1,81.8q48.77-8.816,96.113-21.91Q131.2,486.159,20.673,611.717c-37.645,42.768,8.96,105.921,62.24,79.055,126.229-63.74,240.51-145.165,343.417-238.788C409.15,498.22,393.524,544.972,380,592.317c-9.836,34.2,24.482,73.915,62.082,61.679,89.9-29.372,120.505-154.2,139.807-237.866a342.854,342.854,0,0,0,12.269,68.394c11.207,38.463,56.968,47.878,86.526,23.175,108.264-90.575,60.036-263.549,46.172-381.782M311.173,272.423a391.126,391.126,0,0,0-58.321,30.932c-17.08,11.177-34.254-12.344-18.729-25.015A269.718,269.718,0,0,1,297.1,239.5a242.657,242.657,0,0,1,32.755-11.927c12.256-3.385,25.852-7.683,38.636-8.143,5.408-.171,12.123,1.634,15.03,6.586,2.436,4.164,3.519,7.329,3.007,12-.669,5.647-5.186,10.562-10.569,12.533-10.767,4-22.4,6.106-33.33,9.934-10.583,3.683-21.174,7.476-31.457,11.938M519.288,430.189c-.2,3.925-.441,7.79-.743,11.654-1.2,15.181-3.118,30.22-5.713,45.219-1.1,6.284-7.706,11.473-14.446,10.159-6.735-1.37-11.506-7.286-10.5-14.065q3.274-21.961,4.478-44.135l.392-8.012c0-.107-.014-.817.007-1.308s.041-1.962.049-2.129c.043-.817.081-1.633.067-2.454.026-2.895-.216-5.909.647-8.653.28-1.077.784-2.2,1.064-3.282,0-.051.087-.65.108-1.03.142-1.8.456-3.638.713-5.429.5-4.343.907-8.148,3.018-12.138,2.664-5,11.33-7.418,14.807-1.509a25.733,25.733,0,0,1,3.117,6.324,55.954,55.954,0,0,1,.991,6.167c.294,2.036.53,4.071.771,6.1.08.607.16,1.266.241,1.924.049.167.345,1,.433,1.441,1.451,4.825.742,10.143.494,15.154m160.344-155.9a12.946,12.946,0,0,1-.46,1.4c-.132.321-.206.7-.333,1.021l-.066.162a13.794,13.794,0,0,1-6.726,7.532,14.648,14.648,0,0,1-10.125,1.246,5.044,5.044,0,0,1-.889-.206c-.608-.193-1.167-.275-1.779-.469a17.152,17.152,0,0,1-6.862-3.4,29.426,29.426,0,0,0-2.428-2.09,27.984,27.984,0,0,1-4.358-3.983c-.586-.629-1.173-1.314-1.759-1.944a22.974,22.974,0,0,1-2.641-3.463c-2.392-4-5.431-8.461-7.136-12.7-2.805-6.969-5.818-14.328-6.63-21.794a16.2,16.2,0,0,1,8.756-15.683,17,17,0,0,1,18.2,1.5c6.063,4.781,10.747,11.291,15.28,17.416,2.69,3.63,4.7,8.37,6.871,12.358a31.473,31.473,0,0,1,3.434,12.46,19.542,19.542,0,0,0,.467,3.135,16.242,16.242,0,0,1-.82,7.5" transform="translate(0.483 1.019)" fill="#fcc59a"/>
        </g>
      </g>
      <g id="Grupo_1101629" data-name="Grupo 1101629" transform="translate(524.839 -209.71)" opacity="0.24" style="mix-blend-mode: multiply;isolation: isolate">
        <g id="Grupo_1101628" data-name="Grupo 1101628" transform="translate(0 0)" clip-path="url(#clip-path-4)">
          <path id="Trazado_879559" data-name="Trazado 879559" d="M64.255,210.595c11.488,2.342,22.845,4.577,34.281,6.491,11.437,1.785,22.851,3.435,34.287,4.342,5.718.514,11.442.678,17.155.914,5.752.228,11.352.15,17.178.107,11.357-.286,22.9-.885,34.367-2.164,11.482-1.314,23-2.806,34.48-4.92,5.747-.957,11.476-2.185,17.223-3.278q8.612-1.692,17.155-3.992c11.369-3.213,22.669-7.055,34.072-10.011,5.713-1.385,11.437-2.671,17.195-3.656,5.747-1.057,11.544-1.678,17.325-2.456l.7-.093c2.973-.407,5.718,1.507,7.114,4.57,3.784,8.333,7.885,16.624,12.038,24.779L371.836,245.3c8.725,16.01,17.932,31.548,26.975,47.23,9.122,15.574,18.063,31.441,28.552,45.473,2.615,3.5,5.27,6.955,8.1,10.14a86.211,86.211,0,0,0,8.9,8.79,80.392,80.392,0,0,0,9.366,7.134,43.649,43.649,0,0,0,8.884,4.7l-8.878,11.9-3.063-11.175c-.522-1.857-.936-3.763-1.413-5.641a46.787,46.787,0,0,1-1.628-7.891,20.525,20.525,0,0,1,.471-6.305,18.93,18.93,0,0,1,2.218-5.413,56.368,56.368,0,0,1,3.744-5.149l6.53-8.512,6.524-8.519c2-2.692,4.839-6.155,5.684-7.648a3.074,3.074,0,0,0,.522-1.485,15.261,15.261,0,0,0-.409-3.656l-2.422-11.29-2.5-11.711c-.879-4.306-1.293-10.219.352-15.574,3.341-10.283,9.372-15.146,13.155-20.373,4-5.1,7.256-11.34,10.461-18.045a48.4,48.4,0,0,0,1.951-4.506,4.052,4.052,0,0,0,.221-2.357c-.187-1.635-1.5-6.013-2.451-9.654-2.042-7.619-4.05-14.653-5.962-22.794a41.714,41.714,0,0,1-.964-8.048,26.7,26.7,0,0,1,1.662-9.754c2.258-5.82,4.89-8.8,6.66-11.54a179.173,179.173,0,0,0,10.637-17.816,14.563,14.563,0,0,0,1.135-2.706c.057-.186.062-.193.091-.129-.057-.514.062.193.017-.15-.045-1.007-2.15-3.649-4.64-8.69l-.6-1.35-.8-2.192a35.8,35.8,0,0,1-1.061-4.02,42.036,42.036,0,0,1-.777-7.869,51.309,51.309,0,0,1,2.212-14.346c2.57-8.933,7.324-15.946,11.692-21.815l6.422-8.533c1.015-1.378,2.025-2.756,2.95-4.163l1.361-2.107c.187-.271.17-.3.057.186a4.738,4.738,0,0,0-.079,1.207c-.017-.4.028.428.062.486a3.272,3.272,0,0,0,.119.45c.17.464.233.414.114.193l-.664-1.235c-.55-1.064-1-2.014-1.407-2.935-.828-1.871-1.56-3.72-2.258-5.591a84.447,84.447,0,0,1-3.54-11.89c-.454-2.107.539-4.277,2.212-4.849,1.52-.521,3.086.464,3.7,2.228l.1.307a92.116,92.116,0,0,0,4.283,9.59c.8,1.592,1.628,3.163,2.473,4.627.431.75.862,1.428,1.225,1.964l.766,1.107a10.236,10.236,0,0,1,1.31,2.728,11.1,11.1,0,0,1,.272,1.157c.074.307.136,1.378.125,1.221a9.859,9.859,0,0,1-.255,2.664,13.374,13.374,0,0,1-1.044,2.792l-1.35,2.714c-.913,1.792-1.878,3.478-2.842,5.149-1.929,3.321-3.954,6.391-5.8,9.433-3.7,6.084-6.813,11.811-8.18,17.974-1.424,6.205-1.18,12.1.987,15.931.7,1.735,3.614,4.356,6.008,10.711a23.137,23.137,0,0,1,1.129,5.57,23.448,23.448,0,0,1-.323,5.734,32.617,32.617,0,0,1-2.706,8.033,199.462,199.462,0,0,1-11.386,20.487c-2.139,3.371-4.045,6.055-4.476,7.419A5.807,5.807,0,0,0,500,185a17.891,17.891,0,0,0,.295,3.649c1.242,7.119,2.575,15.281,3.772,22.9.5,4.006,1.5,7.105,1.691,13.368a23.25,23.25,0,0,1-1.844,9.055,58.889,58.889,0,0,1-2.9,5.613c-3.551,6.541-7.233,13.56-11.97,19.823-4.731,6.063-9.519,10.883-10.58,15.746a15.7,15.7,0,0,0,.278,7.7c.743,3.256,1.844,7.348,2.774,11l2.927,11.39a33.964,33.964,0,0,1,1.072,7.976,21.735,21.735,0,0,1-2.258,9.64c-2.723,5.006-4.544,6.919-6.649,10.169l-6.183,8.912-6.172,8.926a43.32,43.32,0,0,0-2.445,3.742c-.119.207-.131.55.079-.186.023.071.1-.621.108-.45-.017.114.4,1.442.97,3.449.5,1.871,1.067,3.706,1.526,5.591l2.814,11.3.25,1.014c1.163,4.642-.891,9.59-4.578,11.047a5.626,5.626,0,0,1-4.55-.157,40.558,40.558,0,0,1-11.822-8.426,120.823,120.823,0,0,1-9.173-10.5l-16.514-21.608c-10.8-14.36-21.614-28.628-31.627-43.752-10.081-15.053-19.282-30.927-28.512-46.737L347.215,231.2,333.43,207.289l7.812,4.477c-5.718,1.307-11.42,2.778-17.178,3.806-5.741,1.107-11.516,1.907-17.308,2.606-11.6,1.221-23.3,1.55-34.934,2.506-11.618,1.071-23.106,3.235-34.627,5.241-11.533,1.985-23.043,4.435-34.679,6.177a302.2,302.2,0,0,1-35.166,3.87c-5.8.286-11.817.221-17.682.014-5.9-.236-11.788-.764-17.648-1.45a276.6,276.6,0,0,1-34.911-6.17,331.064,331.064,0,0,1-34.179-10.033c-1.679-.578-2.672-2.756-2.212-4.87.425-1.964,1.974-3.178,3.54-2.871" transform="translate(283.194 267.888)" fill="#fcc59a"/>
          <path id="Trazado_879560" data-name="Trazado 879560" d="M800.782,269.227c-3.336.778-6.768,1.407-10.03,2.314-3.262.971-6.484,1.707-9.752,2.856-6.53,2.057-12.991,4.513-19.458,6.955-6.456,2.471-12.872,5.177-19.254,7.983s-12.713,5.848-19.055,8.84q-18.984,9.073-37.577,19.459c-12.356,6.984-24.689,14.046-36.732,21.694l-.04.021c-2.377,1.507-5.219.564-6.722-2.071L614.6,289.121q-13.845-23.983-28.285-47.358c-9.621-15.581-19.85-30.534-30.276-45.209a384.631,384.631,0,0,0-33.4-41.31c-6-6.263-11.873-12.7-18.182-18.416-6.178-5.927-12.361-11.782-18.749-17.238l-9.389-8.5-9.65-7.962c-3.239-2.6-6.314-5.534-9.6-8.033L447.251,87.5a276.369,276.369,0,0,0-40.907-26.743,313.838,313.838,0,0,0-44.05-18.373,417.061,417.061,0,0,0-45.412-12.618c-7.63-1.871-15.351-2.892-23.021-4.442a114.126,114.126,0,0,0-11.573-1.692l-11.6-1.478c-15.487-1.592-31.082-2.328-46.62-1.164-15.527.978-31.048,3.392-46.081,8.441-7.619,1.849-14.9,5.484-22.363,7.926-7.488,2.392-14.716,5.834-22.085,8.676-7.409,2.714-14.568,6.313-21.8,9.712-3.591,1.757-7.273,3.271-10.807,5.22L90.407,67.026l-10.535,6.1L69.7,80.115c-6.756,4.742-13.672,9.169-20.048,14.732-6.422,5.456-13.2,10.276-19.345,16.245l-18.579,17.7.5-9.776c9.343,13.082,18.942,25.857,28.4,38.8l.023.036a7.788,7.788,0,0,1-.306,9.247,5.341,5.341,0,0,1-1.651,1.285c-10.342,5.02-20.6,10.3-30.821,15.738l2.558-10.947,10.381,15.881,10.83,15.36c3.75,4.97,7.568,9.84,11.232,14.867,3.852,4.827,7.675,9.669,11.425,14.61,3.937,4.706,7.795,9.519,11.652,14.325l12,13.9,12.4,13.375L103.1,288.314l13.1,12.311,13.354,11.911,13.615,11.483,13.9,10.975q14.092,10.593,28.478,20.673l14.545,9.719,14.716,9.39.074.043a4.5,4.5,0,0,1,1.384,5.327c-.743,1.835-2.479,2.628-3.971,1.885L196.8,374.247,181.52,365.8l-15.113-8.99-14.835-9.74-14.613-10.283-14.381-10.84q-7.088-5.645-14.075-11.5l-13.723-12.2-13.4-12.775L68.328,276.118l-12.69-13.939q-6.169-7.219-12.208-14.624C39.5,242.491,35.68,237.3,31.863,232.116c-3.687-5.341-7.216-10.861-10.818-16.274L10.81,199,1.166,181.637l-.159-.286c-1.764-3.185-1.152-7.569,1.379-9.8a5.292,5.292,0,0,1,1.344-.871c10.455-4.656,20.865-9.455,31.2-14.525l-1.934,10.568C23.438,153.895,14.033,140.9,4.36,128.195l-.023-.029a7.87,7.87,0,0,1,.159-9.347l.363-.4L23.591,99.667c6.183-6.377,13.031-11.618,19.526-17.481,6.45-5.977,13.473-10.833,20.349-16,3.46-2.535,6.881-5.17,10.376-7.626L84.6,51.816l10.762-6.784c3.614-2.192,7.38-3.949,11.068-5.941,7.432-3.828,14.784-7.962,22.544-10.647,15.209-6.577,31.1-10.361,46.966-12.846,15.913-2.3,31.712-4.513,47.6-5.955l11.93-.736a104.206,104.206,0,0,1,11.93-.586l11.953-.1a109.512,109.512,0,0,1,11.959.193,312.857,312.857,0,0,1,47.636,5.441,423.506,423.506,0,0,1,46.921,12.161A337.106,337.106,0,0,1,411.6,44.239c7.443,3.827,15.079,7.162,22.266,11.732,7.29,4.3,14.716,8.362,21.625,13.589l10.54,7.477c3.46,2.606,6.751,5.527,10.081,8.376l9.916,8.676,9.394,9.512c3.063,3.278,6.269,6.32,9.2,9.776l8.719,10.426c5.906,6.8,11.329,14.189,16.866,21.408,10.954,14.56,21.659,29.27,32.313,44.023,5.338,7.369,10.347,15.089,15.532,22.615l15.141,22.986c9.984,15.424,19.725,31.077,29.363,46.816l14.3,23.729,13.967,24.008-6.762-2.042c12.276-7.919,24.723-15.267,37.4-21.93q18.984-10.09,38.36-18.916c12.963-5.748,26.09-10.933,39.4-15.431,6.643-2.285,13.394-4.149,20.173-5.827,3.353-.928,6.881-1.492,10.3-2.249,3.438-.685,6.79-1.057,10.189-1.6,1.725-.278,3.3,1.257,3.517,3.428.21,2.092-.913,4.006-2.536,4.392Z" transform="translate(0.002 50.036)" fill="#fcc59a"/>
          <path id="Trazado_879561" data-name="Trazado 879561" d="M64.2,35.2c5.611,14.417.874,31.82-10.574,38.882s-25.284,1.1-30.895-13.311-.874-31.827,10.58-38.882S58.586,20.786,64.2,35.2Z" transform="translate(95.19 116.156)" fill="#fcc59a" stroke="#40433e" stroke-linecap="round" stroke-linejoin="round" stroke-width="1.482"/>
          <path id="Trazado_879562" data-name="Trazado 879562" d="M43.969,58.94C111.443,16.288,187.851-3.707,263.239,1.57c9.321.65,20.916,4.092,22.748,15.61a24.908,24.908,0,0,1-1.759,12.539c-6.3,16.538-20.825,24.793-32.7,35.433s-22.5,29.785-16.049,46.23" transform="translate(205.464 4.551)" fill="#fcc59a" stroke="#40433e" stroke-linecap="round" stroke-linejoin="round" stroke-width="1.482"/>
          <path id="Trazado_879563" data-name="Trazado 879563" d="M85.437,59.454A125.892,125.892,0,0,1,100.215,66.4c4.862,2.6,9.536,5.706,14.194,8.833a146.656,146.656,0,0,1,13.473,10.5c4.311,3.856,8.441,8,12.554,12.147l12.078,12.832a129.385,129.385,0,0,0,12.446,12.418l6.456,6.07a88.515,88.515,0,0,1,5.843,6.912c3.665,4.891,6.5,10.668,9.525,16.174l.374.686a7.618,7.618,0,0,1-.976,8.6A38.682,38.682,0,0,1,173.3,170.6a38.23,38.23,0,0,1-13.865,2.742,42.481,42.481,0,0,1-13.422-1.849c-4.4-1.3-8.447-3.378-11.936-3.92-3.7-.5-5.985.643-8.515,4.992a28.416,28.416,0,0,1-5.259,6.57,13.434,13.434,0,0,1-3.943,2.392,13.208,13.208,0,0,1-4.153,1.021c-5.65.607-10.432-2.042-14.636-4.613a60.329,60.329,0,0,1-11.232-9.74c-3.16-3.256-6.632-7.227-9.644-11.011-3.08-3.835-6.155-7.676-9-11.775-5.73-8.062-12.605-15.4-16.945-25.072A164.9,164.9,0,0,1,40.326,90.1c-1.259-5.263-2.235-10.611-3.012-15.988-.607-5.427-1.169-10.826-1.265-16.274-.028-1.65,1.015-3.021,2.332-3.056a2.474,2.474,0,0,1,2.3,2.014l.028.107c.686,2.492,1.316,4.97,1.889,7.455l2.082,7.319q2.136,7.262,4.584,14.275c1.713,4.642,3.387,9.276,5.333,13.739,1.878,4.5,3.909,8.883,6.047,13.182,2.184,4.242,3.965,8.826,6.013,13.268a76.533,76.533,0,0,0,6.881,12.732,102.981,102.981,0,0,0,8.64,10.89,105.616,105.616,0,0,0,9.65,9.4,47.462,47.462,0,0,0,10.03,7.219,20.826,20.826,0,0,0,9.706,2.371,18.83,18.83,0,0,0,2.059-.236c.868-.25.749.093,1.917-.457a13.224,13.224,0,0,0,4.8-2.906c1.832-1.364,3.937-3.478,6.518-4.663a15.005,15.005,0,0,1,7.67-1.45c4.918.243,8.935,1.557,12.861,1.785a66.385,66.385,0,0,0,11.7.293c7.59-.564,14.931-3.378,19.583-9.654l-.6,9.283c-3.375-4.806-7.154-9.119-10.325-14.075-3.336-4.777-6.093-10.247-9.088-15.574a87.749,87.749,0,0,0-4.822-7.605c-1.77-2.335-3.67-4.506-5.537-6.72-1.917-2.142-3.92-4.163-5.877-6.241l-6.183-5.763c-4.17-3.749-8.487-7.219-12.792-10.69l-13-10.233c-4.368-3.349-8.855-6.42-13.286-9.683L83.559,64.9a3.4,3.4,0,0,1-.953-4.042,2.191,2.191,0,0,1,2.774-1.428Z" transform="translate(168.449 336.373)" fill="#fcc59a"/>
          <path id="Trazado_879564" data-name="Trazado 879564" d="M246.1,58.175c.028.036-.539-.343-1.288-.678a13.343,13.343,0,0,0-3.653-1.078c-3.347-.628-8.248.278-14.392,1.778-3.063.693-6.257,1.721-9.7,2.678-3.432,1.057-7.04,2.228-10.739,3.635-7.431,2.642-15.289,5.827-23.208,8.983A219.518,219.518,0,0,1,159.4,81.44a92.51,92.51,0,0,1-21.517,3.171,62.778,62.778,0,0,1-8.719-.478,48.674,48.674,0,0,1-6.654-1.278c-3.659-1.021-5.684-1.828-5.684-1.828a2.429,2.429,0,0,1-1.174-2.856,1.968,1.968,0,0,1,1.5-1.571l.13-.021s2.088-.321,5.627-.493c1.764-.036,3.926-.378,6.365-.571,2.439-.043,5.2-.643,8.186-.85,2.99-.486,6.24-.757,9.661-1.414,3.438-.464,7.051-1.2,10.807-1.957,7.494-1.607,15.549-3.4,23.611-5.556,8.078-2.021,16.156-4.334,23.758-6.42,7.59-1.992,14.738-4.035,20.888-5.241,6.008-1.45,11.431-2.371,15.317-1.892a15.82,15.82,0,0,1,4.521,1.164,8.909,8.909,0,0,1,1.43.7l.238.129a2.536,2.536,0,0,1,.794,3,1.623,1.623,0,0,1-2.383,1Z" transform="translate(540.039 319.671)" fill="#fcc59a"/>
          <path id="Trazado_879565" data-name="Trazado 879565" d="M234.1,92.432a60.542,60.542,0,0,0-14.591-3.549,117.731,117.731,0,0,0-14.988-.686c-5.032-.029-10.081.357-15.175.428-5.111.05-10.211.121-15.351-.157a131.2,131.2,0,0,1-30.566-4.949,62.816,62.816,0,0,1-14.988-6.141A38.365,38.365,0,0,1,115.43,65.161l-.46-.714a3.543,3.543,0,0,1,.357-4.206,2,2,0,0,1,2.956-.029c.97.95,1.917,1.949,2.853,2.978a2.714,2.714,0,0,1,.17,3.228,1.592,1.592,0,0,1-1.917.678c-1.18-.471-2.349-.971-3.5-1.514l2.854-4.949c7.953,6.463,17.013,9.626,26.629,12.682a246.59,246.59,0,0,0,29.182,7.434c9.837,1.957,19.872,2.328,30.015,2.792,5.077.186,10.166.621,15.266,1.207A86.975,86.975,0,0,1,235,88.1l.062.021a2.347,2.347,0,0,1,1.271,2.735,1.786,1.786,0,0,1-2.178,1.6l-.062-.021" transform="translate(534.789 365.849)" fill="#fcc59a"/>
          <path id="Trazado_879566" data-name="Trazado 879566" d="M221.885,150.3s-1.946-.614-5.344-1.692c-3.358-1.128-8.362-2.7-14.092-5.106-2.91-1.064-6.013-2.435-9.281-3.928-3.279-1.45-6.66-3.242-10.223-4.927-7.006-3.692-14.364-8.041-21.6-12.8-3.54-2.535-7.114-5.034-10.478-7.812-3.46-2.606-6.632-5.591-9.746-8.426-3.007-2.985-5.934-5.87-8.549-8.833-2.587-3.006-5.055-5.813-7.091-8.726a102.12,102.12,0,0,1-9.253-14.589c-1.969-3.778-2.939-6.063-2.939-6.063a2.615,2.615,0,0,1,.743-3.092,1.523,1.523,0,0,1,1.94.179l.062.064s1.645,1.535,4.255,4.442c2.587,2.878,6.286,7,10.722,11.94,2.2,2.471,4.555,5.163,7.12,7.912,2.456,2.9,5.281,5.627,8.061,8.662,2.893,2.849,5.815,5.927,8.918,8.84,3.035,3.042,6.325,5.748,9.531,8.662,3.313,2.685,6.581,5.506,9.967,7.933,3.347,2.528,6.791,4.656,10.081,6.834,3.358,1.992,6.592,4.013,9.786,5.513,3.165,1.6,6.172,3.078,9,4.249a110.211,110.211,0,0,0,13.831,4.927c3.426.943,5.389,1.478,5.389,1.478a2.3,2.3,0,0,1,1.356,2.671c-.21,1.207-1.157,1.971-2.116,1.707l-.057-.014" transform="translate(528.416 393.215)" fill="#fcc59a"/>
          <path id="Trazado_879567" data-name="Trazado 879567" d="M46.81,13.561s1.248,1.892,3.432,5.2c2.218,3.3,5.384,8.012,9.19,13.675,3.92,5.527,8.192,12.289,13.014,19.316,4.76,7.127,9.831,14.732,14.9,22.33,4.975,7.726,9.814,15.624,13.916,23.4a198.24,198.24,0,0,1,10.223,21.987,109.386,109.386,0,0,1,6.62,23.693c.25,1.928-.794,3.749-2.332,4.063a2.459,2.459,0,0,1-2.354-.893l-.045-.057a56.276,56.276,0,0,1-3.727-5.106,157.514,157.514,0,0,1-8.453-14.26c-3.262-6.041-6.694-13.339-10.353-21.2C87.23,97.8,83.372,89.355,79.509,80.914c-3.9-8.441-7.925-16.824-12.055-24.372-4.1-7.584-8.288-14.325-11.868-20.116C48.28,25.051,42.8,18,42.8,18a4.014,4.014,0,0,1,.04-4.763,2.309,2.309,0,0,1,3.784.05c.045.064.1.129.142.2Z" transform="translate(196.433 75.408)" fill="#fcc59a"/>
          <path id="Trazado_879568" data-name="Trazado 879568" d="M178.546,42.372s-2.144,1.978-5.894,5.441c-3.767,3.378-9.122,8.526-15.68,14.275-3.222,3-6.773,6.134-10.546,9.426L134.541,81.847c-8.322,7.041-17.274,14.439-26.339,21.694-9.179,7.005-18.448,13.9-27.491,19.516-4.527,2.785-8.935,5.391-13.167,7.734-4.272,2.207-8.277,4.4-12.123,5.963-15.209,6.877-26.181,8.176-26.181,8.176-1.515.179-2.853-1.221-3-3.128a3.855,3.855,0,0,1,1.186-3.185l.04-.036s2.264-1.935,6.354-4.749c4.079-2.864,9.962-6.684,17.093-10.9,3.557-2.164,7.477-4.277,11.567-6.67,4.13-2.292,8.481-4.706,12.985-7.2,4.5-2.528,9.156-5.134,13.882-7.784,4.76-2.585,9.474-5.527,14.279-8.269,4.743-2.9,9.525-5.727,14.137-8.748,4.618-3,9.06-6.2,13.394-9.219,8.64-6.12,16.366-12.547,22.953-18.095,6.53-5.706,11.834-10.526,15.464-14.217,3.648-3.628,5.735-5.706,5.735-5.706a2.321,2.321,0,0,1,3.75.55,3.986,3.986,0,0,1-.437,4.727l-.079.071" transform="translate(122.584 222.906)" fill="#fcc59a"/>
          <path id="Trazado_879569" data-name="Trazado 879569" d="M124.312,22.6l2.178-.457c.908,0,1.849,0,2.774.064a15.348,15.348,0,0,1,5.038,1.557,22.808,22.808,0,0,1,8.305,7.455,36.33,36.33,0,0,1,5.134,11.1,40.772,40.772,0,0,1,1.044,6.441,35.965,35.965,0,0,1-.238,6.862l-.511,2.735c-.278,1.093-.539,2.228-.857,3.256a43.755,43.755,0,0,1-2.264,5.648,40.766,40.766,0,0,1-6.325,9.347,47.008,47.008,0,0,1-7.761,7.091c-2.78,1.985-5.571,4.12-8.7,5.927l2.6-9.69a49.464,49.464,0,0,1,4.629,5.12,39.743,39.743,0,0,1,3.721,6.163c2.133,4.456,3.285,9.576,4.38,14.574a92.862,92.862,0,0,1,2.468,15.346,59.751,59.751,0,0,1-.817,15.8c-.357,1.714-.59,2.414-.891,3.67-.357,1.271-.851,2.642-1.31,3.92a69.284,69.284,0,0,1-3.234,6.805c-1.225,2.114-2.473,4.156-3.773,6.163-1.367,1.935-2.678,3.9-4.011,5.991a40.076,40.076,0,0,1-4.482,5.991,18.631,18.631,0,0,1-5.894,3.992,21.423,21.423,0,0,1-6.745,1.4,26.7,26.7,0,0,1-6.819-.614l3.988-10.6a27.582,27.582,0,0,1,5.542,14.475,39.844,39.844,0,0,1-3.778,21.565c-1.084,2.271-2.1,4.17-3.285,6.163a36,36,0,0,1-8.305,10.012,26.2,26.2,0,0,1-5.049,3.106,43.955,43.955,0,0,1-5.316,2.128,33.135,33.135,0,0,1-11.187,1.635,26.646,26.646,0,0,1-11.153-2.749,25.085,25.085,0,0,1-9.247-8.226,3.563,3.563,0,0,1,.318-4.242,2,2,0,0,1,2.661-.328l.074.05c5.344,3.635,11.17,4.17,16.905,3.2a34.056,34.056,0,0,0,8.436-2.614,36.481,36.481,0,0,0,4.079-2.1l3.914-2.385a42.488,42.488,0,0,0,7.545-5.106,15.147,15.147,0,0,0,2.876-3.692,20.053,20.053,0,0,0,1.821-4.642c1.8-6.491,0-14.025-3.4-17.174a6.968,6.968,0,0,1-1-8.269,4.408,4.408,0,0,1,4.016-2.4l.976.071a16.376,16.376,0,0,0,4.379-.279,35.755,35.755,0,0,0,4.215-1.6c2.695-1.378,5.832-2.207,8.952-4.07,3.024-1.992,5.128-5.641,6.564-9.433a37.587,37.587,0,0,0,1.634-5.913c.131-.964.272-1.814.454-2.792.119-1.043.346-2.628.369-3.221.1-2.071.278-4.1.255-6.17-.04-2.064-.1-4.12-.312-6.184a56.135,56.135,0,0,0-2.61-12.132c-1.413-3.877-3.512-7.3-5.185-10.961-.834-1.849-1.656-3.713-2.394-5.691-.806-1.914-1.424-4.056-2.246-6.055l-1.044-2.521c-.993-2.406-.244-5.37,1.668-6.62a3.25,3.25,0,0,1,1.98-.55,16.356,16.356,0,0,0,3.9-.214,14.483,14.483,0,0,0,3.773-1.442,24.6,24.6,0,0,0,6.49-5.563,30.306,30.306,0,0,0,4.5-7.819,33.328,33.328,0,0,0,1.322-4.385l.369-2.028.3-2.664a35.148,35.148,0,0,0-.051-4.12,30.451,30.451,0,0,0-.7-4.327,26.467,26.467,0,0,0-3.188-8.1,21.806,21.806,0,0,0-5.287-6.12,20.273,20.273,0,0,0-3.256-1.849l-1.571-.528-2.19-.25a2.881,2.881,0,0,1-2.161-3.249,2.81,2.81,0,0,1,1.98-2.685" transform="translate(250.566 135.973)" fill="#fcc59a"/>
          <path id="Trazado_879570" data-name="Trazado 879570" d="M126.895,29.86l2.315-.271,2.865.307a18.37,18.37,0,0,1,5.145,2.042,24.812,24.812,0,0,1,8.362,8.348A33.888,33.888,0,0,1,150.3,52.347a37.624,37.624,0,0,1,.584,6.791,42.125,42.125,0,0,1-.72,7.005l-.686,2.806c-.346,1.1-.686,2.228-1.066,3.27a53.5,53.5,0,0,1-2.587,5.7c-1.906,3.67-4.306,6.712-6.615,10.147-2.349,3.378-5.168,6.748-8.663,8.512a15.821,15.821,0,0,1-5.452,1.685,21.252,21.252,0,0,1-5.667-.307L124.478,87.1c1.985,6,4.691,11.811,5.945,19.023a33.924,33.924,0,0,1,.125,11.554,24.35,24.35,0,0,1-1.849,5.648,22,22,0,0,1-1.31,2.428,20.325,20.325,0,0,1-1.583,2.235c-2.133,2.642-4.34,4.592-6.246,6.6-2.025,2.085-3.563,4.949-5.559,7.248a20.13,20.13,0,0,1-6.864,4.9c-2.513,1.064-5,2.128-7.528,2.992l2.785-8.4c2.082,6.42,4.124,13.461,4.669,21.494a49.43,49.43,0,0,1-.068,6.205c-.147,1.043-.2,2.121-.38,3.185l-.516,3.021c-1.14,4.706-2.922,8.562-5.645,11.468a22.468,22.468,0,0,1-9.031,5.563,19.8,19.8,0,0,1-4.839,1.021,24.21,24.21,0,0,1-4.663.057c-6.132-.514-11.561-2.792-16.61-5.606a3.387,3.387,0,0,1-1.231-4.013A2.5,2.5,0,0,1,66.2,181.9c5.531-.257,10.8.029,15.481-.807a28.85,28.85,0,0,0,3.392-.793,20.843,20.843,0,0,0,3.046-1.235,22.938,22.938,0,0,0,5.264-3.749,25.508,25.508,0,0,0,4.391-4.256l.545-1.1c.062.05.2-.464.3-.671a8.382,8.382,0,0,0,.516-1.785,17.156,17.156,0,0,0,.187-3.956c-.363-5.6-2.978-11.175-5.576-16.9-1.237-2.735-.482-6.22,1.69-7.776l.46-.286.635-.343a43.612,43.612,0,0,0,6.127-3.82,27.743,27.743,0,0,1,6.149-3.663c2.212-.843,4.771-1.378,6.683-2.963a17.278,17.278,0,0,0,4.7-5.663,10.07,10.07,0,0,0,.584-1.5,11.406,11.406,0,0,0,.414-1.65,20.5,20.5,0,0,0,.306-3.156,28.893,28.893,0,0,0-.743-6.784,45.15,45.15,0,0,0-6.064-14.575,7.636,7.636,0,0,1,.692-9.055,4.748,4.748,0,0,1,2.354-1.371l2.008-.436c1.2-.264,2.354-.686,3.5-1.014a28.841,28.841,0,0,1,3.489-.95,32.786,32.786,0,0,1,3.727-.75,21.535,21.535,0,0,0,3.937-1.178c2.644-1.085,4.635-3.585,6.189-6.291a24.586,24.586,0,0,0,1.838-4.42l.516-2.157.437-2.806a32.552,32.552,0,0,0-.034-4.506,44.9,44.9,0,0,0-.8-4.627,36.224,36.224,0,0,0-3.3-8.6,26.674,26.674,0,0,0-5.338-6.827,22.667,22.667,0,0,0-3.358-2.3l-1.645-.8-2.269-.593a3.057,3.057,0,0,1-1.855-3.549,2.668,2.668,0,0,1,2.116-2.378" transform="translate(298.456 181.704)" fill="#fcc59a"/>
          <path id="Trazado_879571" data-name="Trazado 879571" d="M156.474,34.675l2.02.771,2.326,1.442a21.156,21.156,0,0,1,3.869,3.742,29.356,29.356,0,0,1,5.281,10.19,37.891,37.891,0,0,1,1.271,18.052,37.361,37.361,0,0,1-1.645,6.034l-.981,2.342-1.327,2.714a41.481,41.481,0,0,1-2.927,4.627,54.314,54.314,0,0,1-6.932,7.641c-5,4.492-10.387,7.876-16.6,11.583l-.062.036,4.47-12.4a57.689,57.689,0,0,1,3.67,11.2q.6,2.892.919,5.813c.159,1.957.369,3.885.414,5.841.159,7.741-1.015,15.746-4.414,22.372l-1.242,2.228L143,141.267c-1.061,1.385-2.133,2.714-3.251,3.949-2.275,2.456-4.646,4.556-6.995,6.834-2.315,2.278-4.629,5.277-7.613,6.67a16.185,16.185,0,0,1-9.338,1.4l5.145-7.676a61.705,61.705,0,0,1-.108,12.075,65.823,65.823,0,0,1-2.456,11.411,69.642,69.642,0,0,1-4.141,10.454c-1.645,3.292-3.2,6.777-5.219,10.026l-1.458,2.214c-.63.75-1.237,1.564-1.923,2.264a22.6,22.6,0,0,1-4.1,3.356,31.4,31.4,0,0,1-9.167,3.849,26.089,26.089,0,0,1-18.658-2.314l-1-.543a3.056,3.056,0,0,1-1.43-2.492c-.165-2.314-.357-4.613-.4-6.97-.034-1.685,1.027-3.085,2.366-3.128a2.4,2.4,0,0,1,2.19,1.6c.891,2.064,1.634,4.185,2.411,6.291L75.425,197.5a32.494,32.494,0,0,0,7.38-.321,31.213,31.213,0,0,0,6.978-2.057,30.152,30.152,0,0,0,6.359-3.663c1-.728,1.969-1.478,3-2.142a12.233,12.233,0,0,1,1.4-.9,16.056,16.056,0,0,1,1.7-1.228,26.708,26.708,0,0,0,2.99-2.614,20.33,20.33,0,0,0,2.428-3.456,34.466,34.466,0,0,0,3.018-8.448,45.084,45.084,0,0,0,.045-17.945c-.664-3.235.879-6.534,3.449-7.369a4.94,4.94,0,0,1,.624-.15l1.072-.157c2.15-.314,4.181-1.007,6.348-1.321,2.122-.428,4.709-.1,6.938-1.25a12.325,12.325,0,0,0,3-2.335,18.034,18.034,0,0,0,2.428-3.213,28.532,28.532,0,0,0,1.866-3.692l1.39-3.877a52.542,52.542,0,0,0,1.781-8,37.561,37.561,0,0,0,.261-8.3,29.886,29.886,0,0,0-1.656-7.933,23.791,23.791,0,0,0-3.37-6.662,7.545,7.545,0,0,1,.193-8.955,5.81,5.81,0,0,1,.828-.8l3.455-2.635.045.007c4.828,2.085,10.194.6,14.438-2.664a21.859,21.859,0,0,0,5.531-6.213,35.5,35.5,0,0,0,1.963-3.849l.7-1.878.732-2.435c.221-1.043.5-2.692.675-4.027.153-1.435.193-2.871.233-4.32a38.9,38.9,0,0,0-.936-8.655,33.733,33.733,0,0,0-3.024-7.869,35.607,35.607,0,0,0-2.286-3.306l-1.2-1.357-1.747-1.471a3.516,3.516,0,0,1-.664-4.163,2.165,2.165,0,0,1,2.678-1.207" transform="translate(331.244 212.151)" fill="#fcc59a"/>
          <path id="Trazado_879572" data-name="Trazado 879572" d="M132.647,43.454a30.23,30.23,0,0,1,7.1,4.777,27.863,27.863,0,0,1,3.285,3.542c.488.643,1.044,1.471,1.441,2.085a21.221,21.221,0,0,1,1.35,2.492,23.716,23.716,0,0,1,2.218,11.7,22.52,22.52,0,0,1-.408,3.135,13.772,13.772,0,0,1-.329,1.371l-.471,1.585a30.515,30.515,0,0,1-2.354,5.113,49.825,49.825,0,0,1-2.774,4.3,37.3,37.3,0,0,0-2.507,4.492,36.621,36.621,0,0,1-2.439,4.513,12.564,12.564,0,0,1-3.188,3.292c-2.417,1.678-5.276,2.249-7.687,3.749-2.513,1.285-4.969,2.7-7.551,3.713l-1.515-11.925a9.922,9.922,0,0,1,6.586,3.692,20.134,20.134,0,0,1,3.336,6.448,62.551,62.551,0,0,1,1.849,6.67c.448,1.464,1.611,4.284,2.161,6.505a15.764,15.764,0,0,1-.13,7.1,47.507,47.507,0,0,1-2.269,6.384,33.9,33.9,0,0,1-6.893,10.347,50.339,50.339,0,0,1-4.294,3.963l-2.417,1.842c-.7.521-1.118,1.043-2.076,1.742a17.311,17.311,0,0,1-5.236,2.985,11.751,11.751,0,0,1-5.542.207,23,23,0,0,1-17.535-13.725,3.549,3.549,0,0,1,.959-4.206,2,2,0,0,1,2.144-.143l.2.107c5.247,2.828,10.121,4.085,14.84,3.863a24.441,24.441,0,0,1,3.443-.214l3.506.378a4.679,4.679,0,0,0,2.1-.364,5.3,5.3,0,0,0,1.554-.835,11.56,11.56,0,0,0,2.808-2.963,24.4,24.4,0,0,0,3.421-8.055c.794-2.921.323-5.784,1.475-8.483.607-1.557,1.4-2.514,1.186-4.734a8.007,8.007,0,0,0-1.413-3.842,6.021,6.021,0,0,0-2.507-2.071,3.174,3.174,0,0,0-1.708-.271c-2.61.35-4.941-2.028-5.219-5.313a6.375,6.375,0,0,1,2.7-6.027l1-.586a60.155,60.155,0,0,0,6.4-3.963c2.144-1.328,3.716-3.885,5.628-5.563A10.413,10.413,0,0,1,130.06,80.3c1.055-.378,2.587-.807,3.727-1.114a8.955,8.955,0,0,0,5.542-4.606,10.8,10.8,0,0,0,1.259-3.292l.1-.707a6.454,6.454,0,0,0,.079-.964,11.171,11.171,0,0,0-.062-1.628,23.574,23.574,0,0,0-1.929-6.52l-.715-1.542c-.357-.664-.59-1.093-.942-1.65-.624-1.085-1.356-2.121-2.122-3.2-1.56-2.107-3.313-4.32-5.06-6.762a3.624,3.624,0,0,1,.182-4.3,2.057,2.057,0,0,1,2.524-.564" transform="translate(392.762 265.511)" fill="#fcc59a"/>
          <path id="Trazado_879573" data-name="Trazado 879573" d="M113.711,48.18a21.184,21.184,0,0,1,6.694,3.57,27.36,27.36,0,0,1,5.662,5.684,78.628,78.628,0,0,1,4.5,7.484,29.123,29.123,0,0,1,2.2,4.806l1.883,5.613a17.625,17.625,0,0,1,.9,6.491,11.359,11.359,0,0,1-1.991,5.627,43.6,43.6,0,0,1-3.54,3.992c-.6.671-1.123,1.207-1.838,1.878l-1.7,1.485a15.788,15.788,0,0,1-7.454,3.642c-1.282.186-2.541.229-3.716.493a5.954,5.954,0,0,0-3.268,1.614l1.2-8.219a14.739,14.739,0,0,1,3.478,1.571,8.4,8.4,0,0,1,2.405,3.249A35.76,35.76,0,0,1,121,105.428a35.233,35.233,0,0,1-.278,8.269c-.221,1.35-.448,2.678-.715,4.013l-1.027,4.27a15.779,15.779,0,0,0-.244,1.685l-.7,2.4a12.274,12.274,0,0,1-1.94,3.8,15.713,15.713,0,0,1-6.081,4.192A11.847,11.847,0,0,1,97.2,131.721a3.757,3.757,0,0,1-.414-4.456,2.543,2.543,0,0,1,1.367-1.114l.391-.121a19,19,0,0,0,7.278-4.177l1.344-1.342c.426-.464.749-1.021,1.186-1.407a5.022,5.022,0,0,1,1.549-.935l.766-.25a11.012,11.012,0,0,0,1.021-1.128c.312-.064.7-1.107.834-1.75a8.853,8.853,0,0,0,.238-2.335,14.624,14.624,0,0,0-.97-4.57,14.359,14.359,0,0,0-.874-1.992,18.653,18.653,0,0,0-1.152-1.635,4.135,4.135,0,0,1-.681-1.907,17.724,17.724,0,0,0-.306-2.792l-1.259-4.534a3.031,3.031,0,0,1,1.367-3.563,1.814,1.814,0,0,1,1.089-.121,4.753,4.753,0,0,0,3.285-.843,15.529,15.529,0,0,0,2.751-2.285c1.679-1.685,3.336-2.778,4.7-4.113.233-.257.562-.543,1.021-1.121a11.232,11.232,0,0,0,.664-1.043,7.8,7.8,0,0,0,.641-2.785,3.718,3.718,0,0,1,.828-2.185c.494-.578,1.356-1.128,2.008-1.957a3.823,3.823,0,0,0,.7-1.35,1.881,1.881,0,0,0,.017-1.471,6.553,6.553,0,0,0-1.146-2.649,46.647,46.647,0,0,0-4.85-5.034c-1.679-1.678-3.217-3.535-4.771-5.427-1.577-1.9-3.052-3.82-4.6-6.091a3.7,3.7,0,0,1,.272-4.4,2.155,2.155,0,0,1,2.2-.657" transform="translate(449.752 295.362)" fill="#fcc59a"/>
          <path id="Trazado_879574" data-name="Trazado 879574" d="M41.667,56.962s2.961,6.984,8.078,16.874A337.434,337.434,0,0,0,70.23,108.59c8.033,12.068,16.616,23.443,22.936,32.141,3.171,4.327,5.786,7.991,7.6,10.576s2.808,4.142,2.808,4.142a1.342,1.342,0,0,1-.113,1.592.774.774,0,0,1-1.1.043s-1.288-1.164-3.443-3.342-5.174-5.4-8.549-9.576c-3.432-4.12-7.21-9.2-11.074-14.853-3.914-5.584-7.761-11.9-11.573-18.223-7.551-12.732-14.4-26.043-19.458-36.069C43.3,64.9,40.129,58.09,40.129,58.09l-.017-.036a1.281,1.281,0,0,1,.318-1.528.8.8,0,0,1,1.22.4l.017.036" transform="translate(186.867 346.17)" fill="#fcc59a"/>
          <path id="Trazado_879575" data-name="Trazado 879575" d="M44.987,57.955s3.772,6.4,10.058,15.246a285.671,285.671,0,0,0,24.7,30.449c9.531,10.326,19.566,19.787,27.014,27.021,3.721,3.642,6.825,6.677,9,8.8,2.167,2.149,3.364,3.47,3.364,3.47a1.343,1.343,0,0,1,.108,1.592.8.8,0,0,1-1.078.293s-1.435-.871-3.875-2.556a108.6,108.6,0,0,1-9.8-7.619A172.151,172.151,0,0,1,91.482,122.3c-4.629-4.72-9.281-10.183-13.887-15.674-9.15-11.1-17.62-22.979-23.866-31.97-6.178-9.112-10.132-15.3-10.132-15.3l-.017-.036a1.329,1.329,0,0,1,.13-1.578.778.778,0,0,1,1.254.171l.023.036" transform="translate(202.715 353.118)" fill="#fcc59a"/>
          <path id="Trazado_879576" data-name="Trazado 879576" d="M55.239,67.27s2.178-1.592,5.985-4.392c3.869-2.714,9.338-6.762,16.043-11.225,6.626-4.67,14.591-9.547,23.106-14.846,8.566-5.17,17.819-10.419,27.213-15.31A251.227,251.227,0,0,1,155.752,8.958c9.162-3.406,17.739-6.284,25.5-7.612a50.047,50.047,0,0,1,19-.186,31.129,31.129,0,0,1,7.057,2.149l.085.043a2.489,2.489,0,0,1,1.015,2.935,1.852,1.852,0,0,1-1.742,1.435s-2.473-.114-6.694.157a103.533,103.533,0,0,0-17.348,3.278c-7.114,2.049-15.652,4.62-24.694,7.6-9,3.171-18.664,6.363-28.183,10.261a274.851,274.851,0,0,0-27.639,12.668c-8.708,4.47-16.593,9.355-23.293,13.668C72.155,59.779,66.7,63.635,62.965,66.535s-5.894,4.577-5.894,4.577a1.587,1.587,0,0,1-2.451-.728A2.6,2.6,0,0,1,55.2,67.3l.04-.029" transform="translate(253.998 2.119)" fill="#fcc59a"/>
          <path id="Trazado_879577" data-name="Trazado 879577" d="M62.071,71.641s7.84-6.027,19.923-14.632c5.962-4.449,13.161-9.076,20.78-14.282,7.7-5.006,16-10.169,24.4-15.153a269.881,269.881,0,0,1,25.239-12.954c8.22-3.6,15.964-6.762,22.782-8.6a100.773,100.773,0,0,1,16.6-3.635c4.056-.571,6.393-.686,6.393-.686a2.041,2.041,0,0,1,1.878,2.185,2.361,2.361,0,0,1-1.084,2.171l-.045.029s-2.139,1.164-5.934,2.856c-3.772,1.792-9.2,4.056-15.714,6.684-6.53,2.528-14.148,5.484-22.306,8.648-4.062,1.678-8.26,3.406-12.52,5.163-4.289,1.7-8.56,3.706-12.895,5.556-8.611,3.856-17.11,8.133-24.944,12.561-7.846,4.377-14.971,9.019-21.024,13.118-6.025,4.177-10.937,7.776-14.33,10.533l-5.338,4.263a1.585,1.585,0,0,1-2.462-.693,2.6,2.6,0,0,1,.556-3.092l.04-.036" transform="translate(285.991 10.409)" fill="#fcc59a"/>
          <path id="Trazado_879578" data-name="Trazado 879578" d="M67.739,62.863S74.1,58.3,83.646,51.452c9.536-6.905,22.453-15.646,35.575-24.108,6.62-4.056,13.286-8.055,19.719-11.24a141.237,141.237,0,0,1,17.887-7.634,69.837,69.837,0,0,1,18.227-4.035,2.072,2.072,0,0,1,1.889,2.228A2.528,2.528,0,0,1,176,8.756s-1.634,1.171-4.555,2.835c-2.91,1.7-7.1,3.935-12.18,6.355-10.143,4.884-23.894,10.419-37.521,16.738-6.824,3.128-13.564,6.555-19.781,10.076-6.24,3.449-11.885,7.162-16.712,10.347-4.794,3.306-8.719,6.1-11.42,8.269-2.717,2.121-4.266,3.335-4.266,3.335A1.585,1.585,0,0,1,67.109,66a2.6,2.6,0,0,1,.567-3.085l.062-.05" transform="translate(312.33 27.235)" fill="#fcc59a"/>
          <path id="Trazado_879579" data-name="Trazado 879579" d="M192.79,68.4s-7.318,2.221-18.562,4.849c-5.576,1.5-12.168,2.549-19.226,3.913-7.074,1.135-14.659,2.1-22.295,2.8a164.462,164.462,0,0,1-22.487.114,108.633,108.633,0,0,1-19.475-3.163,68.328,68.328,0,0,1-18.284-7.348,2.612,2.612,0,0,1-.8-3.1,1.838,1.838,0,0,1,1.6-1.264H73.3s1.934-.029,5.219.286c3.29.286,7.942.828,13.479,1.592,11.068,1.55,25.749,4.006,40.664,4.877a162.52,162.52,0,0,0,21.937-.121,150.472,150.472,0,0,0,19.061-2.7,128.262,128.262,0,0,0,13.28-3.463c3.2-1.035,5.021-1.628,5.021-1.628.953-.314,1.923.407,2.173,1.607a2.335,2.335,0,0,1-1.282,2.728l-.017.007Z" transform="translate(333.935 392.806)" fill="#fcc59a"/>
          <path id="Trazado_879580" data-name="Trazado 879580" d="M115.045,69.7a47.806,47.806,0,0,0-5.293.05,74.6,74.6,0,0,0-11.692,1.842c-4.283.85-8.617,1.271-11.771.178a11.009,11.009,0,0,1-5.106-3.328,3.447,3.447,0,0,1-.011-4.085,3.312,3.312,0,0,1,.369-.378,10.744,10.744,0,0,1,5.372-2.142c3.137-.45,7.2.6,11.335,1.757a40.34,40.34,0,0,0,11.442,1.978,30.863,30.863,0,0,0,5.219-.35c.981-.179,1.889.678,2.025,1.907a2.22,2.22,0,0,1-1.515,2.549,1.336,1.336,0,0,1-.335.021Z" transform="translate(376.207 379.066)" fill="#fcc59a"/>
          <path id="Trazado_879581" data-name="Trazado 879581" d="M75.269,18.7s5.656,3.042,14.143,7.991c8.5,4.813,19.583,11.882,30.526,19.573A178.972,178.972,0,0,1,135.4,58.835a119.49,119.49,0,0,1,12.248,13.082,74.938,74.938,0,0,1,9.831,15.474,2.654,2.654,0,0,1-.737,3.163,1.507,1.507,0,0,1-1.753.014l-.04-.029a41.529,41.529,0,0,1-3.636-2.885c-2.246-1.914-5.344-4.749-8.923-8.3-7.165-7.069-16.259-17.1-25.965-26.428a183.349,183.349,0,0,0-14.733-12.882,154.719,154.719,0,0,0-13.711-9.583c-4.147-2.521-7.585-4.477-10.126-5.684L73.9,22.838a2.465,2.465,0,0,1-1.01-2.906A1.693,1.693,0,0,1,75.2,18.66l.068.036" transform="translate(340.046 113.647)" fill="#fcc59a"/>
          <path id="Trazado_879582" data-name="Trazado 879582" d="M77.552,22.557s2.5,1.964,6.41,4.663c3.931,2.628,9.207,6.041,14.738,9.1,5.423,3.249,10.682,6.991,13.927,10.968a24.734,24.734,0,0,1,4.623,7.834,2.86,2.86,0,0,1-1.135,3.37,1.707,1.707,0,0,1-1.049.164,18.527,18.527,0,0,1-7.131-3.349c-3.863-2.642-8.26-7.434-12.707-12.282A90.913,90.913,0,0,0,82.311,30.848a64.5,64.5,0,0,0-6.467-4.356,2.514,2.514,0,0,1-.9-2.971,1.661,1.661,0,0,1,2.36-1.135,2.279,2.279,0,0,1,.2.143Z" transform="translate(349.495 136.264)" fill="#fcc59a"/>
        </g>
      </g>
    </g>
  </g>
</svg>
