<svg xmlns="http://www.w3.org/2000/svg" xmlns:xlink="http://www.w3.org/1999/xlink" width="1030" height="210.949" viewBox="0 0 1030 210.949">
  <defs>
    <linearGradient id="linear-gradient" x1="-0.006" y1="0.956" x2="0.978" y2="0.092" gradientUnits="objectBoundingBox">
      <stop offset="0" stop-color="#f6f4fe"/>
      <stop offset="0.516" stop-color="#e4defb"/>
      <stop offset="1" stop-color="#f6f4fe"/>
    </linearGradient>
    <clipPath id="clip-path">
      <rect id="Rectángulo_402134" data-name="Rectángulo 402134" width="991.051" height="195.318" rx="20" transform="translate(0 36)" opacity="0.38" fill="url(#linear-gradient)"/>
    </clipPath>
    <clipPath id="clip-path-2">
      <path id="Trazado_878018" data-name="Trazado 878018" d="M0,0,600.286,60l57.56,642.332-600.286-60Z" fill="#ac9afc"/>
    </clipPath>
    <clipPath id="clip-path-3">
      <path id="Trazado_878018-2" data-name="Trazado 878018" d="M15.324,16.543,658.682,4.538,647.524,598.705,4.166,610.711Z" fill="#ac9afc"/>
    </clipPath>
    <linearGradient id="linear-gradient-2" x1="0.757" y1="0.582" x2="0.018" y2="1.051" gradientUnits="objectBoundingBox">
      <stop offset="0" stop-color="#ac9afc"/>
      <stop offset="1" stop-color="#ded6fd"/>
    </linearGradient>
    <linearGradient id="linear-gradient-3" y1="0.436" x2="1.139" y2="0.428" gradientUnits="objectBoundingBox">
      <stop offset="0" stop-color="#87de87"/>
      <stop offset="1" stop-color="#567d56"/>
    </linearGradient>
    <linearGradient id="linear-gradient-4" y1="0.436" x2="1.139" y2="0.428" gradientUnits="objectBoundingBox">
      <stop offset="0" stop-color="#ac9afc"/>
      <stop offset="1" stop-color="#7b6eb4"/>
    </linearGradient>
    <linearGradient id="linear-gradient-5" y1="0.436" x2="1.139" y2="0.428" gradientUnits="objectBoundingBox">
      <stop offset="0" stop-color="#fcc59a"/>
      <stop offset="1" stop-color="#af886b"/>
    </linearGradient>
  </defs>
  <g id="img-6" transform="translate(4084 14498.02)">
    <g id="Enmascarar_grupo_1098810" data-name="Enmascarar grupo 1098810" transform="translate(-4064 -14518.389)" opacity="0.17" clip-path="url(#clip-path)">
      <g id="Rectángulo_402182" data-name="Rectángulo 402182" transform="translate(-29.062 -14.092)" fill="#e8e8e8" stroke="#707070" stroke-width="1">
        <rect width="1020.112" height="531.41" stroke="none"/>
        <rect x="0.5" y="0.5" width="1019.112" height="530.41" fill="none"/>
      </g>
      <rect id="Rectángulo_402133" data-name="Rectángulo 402133" width="528.466" height="482.117" transform="translate(0 15.832)" fill="#e6f8e6" opacity="0.38"/>
      <g id="Grupo_1101058" data-name="Grupo 1101058" transform="translate(293.425 780.58) rotate(-150)" opacity="0.25" style="isolation: isolate">
        <g id="Grupo_1101057" data-name="Grupo 1101057" clip-path="url(#clip-path-2)">
          <path id="Trazado_878017" data-name="Trazado 878017" d="M534.958,134.611c-5.551-29.54-10.183-59.735-29.768-84.591-7.036,31.143-21.79,57.6-36.907,84.053A1140.475,1140.475,0,0,1,402.17,237.158c-46.611,64.67-101.363,118.34-158.035,171.664-9.884,9.27-28.621-11.908-19.322-22.168C275.644,330.281,319.656,265.163,362.1,200.4,383.5,167.77,404.035,134.31,423.359,99.914,438.375,73.2,451.9,45.448,471.412,23.224c-16.76-7.531-34.7-9.348-52.57-10.4q-31.417-1.772-62.814-3.142A621.717,621.717,0,0,0,205.912-.924c-8.48.441-14.391,3.73-18.33,8.567-30.618,16.768-18.216,78.493,27.249,88.8q28.578,6.429,57.157,12.909c-81,36.28-155.018,86.082-220.946,148.57-29.864,28.327,9.872,83.624,45.55,79.679a693.992,693.992,0,0,0,75.842-12.691A2336.051,2336.051,0,0,0,4.307,529.1c-26.907,36.676,15.91,98.942,56.747,78.256C157.8,558.258,243.443,491.814,318.9,413.155c-10.092,41.516-18.886,83.634-25.932,126.469-5.145,30.939,25.827,70.492,55.2,62.128,70.216-20.1,84.714-133.445,93.455-209.5a399.65,399.65,0,0,0,15.51,64.4c12.2,36.56,49.936,48.923,71.79,28.36,80.035-75.407,26.917-239.651,6.038-350.4M211.181,237.491A238.181,238.181,0,0,0,166.6,261.549c-12.882,9.01-28.679-14.166-17.177-24.685a165.56,165.56,0,0,1,47.691-31.022,149.438,149.438,0,0,1,25.482-8.462c9.622-2.167,20.253-5.074,30.542-4.485,4.355.27,9.926,2.478,12.68,7.3,2.308,4.055,3.442,7.077,3.411,11.369a11.426,11.426,0,0,1-7.511,10.784c-8.37,2.858-17.594,3.885-26.109,6.567-8.247,2.575-16.492,5.253-24.432,8.574M392.2,400.319c.163,3.624.281,7.189.354,10.749.277,13.984-.044,27.778-.913,41.483-.37,5.74-5.285,10.028-10.837,8.275a14.416,14.416,0,0,1-9.63-13.877q.846-20.107,0-40.575l-.339-7.4c-.005-.1-.079-.759-.1-1.213s-.128-1.817-.134-1.971c-.032-.754-.068-1.508-.147-2.271-.216-2.682-.658-5.5-.186-7.974.138-.977.453-1.979.591-2.959,0-.048.017-.6,0-.947-.032-1.654.071-3.337.132-4.978.044-3.989.066-7.484,1.444-11.018,1.742-4.428,8.544-5.981,11.837-.224a31.373,31.373,0,0,1,3.035,6.112c.585,1.89.9,3.887,1.305,5.8s.761,3.818,1.122,5.721c.115.57.233,1.187.352,1.8.053.158.36.956.468,1.371,1.567,4.59,1.43,9.465,1.64,14.093M508.959,268.465a11.61,11.61,0,0,1-.257,1.26c-.08.287-.109.634-.185.921l-.04.145a9.546,9.546,0,0,1-4.816,6.452,9.943,9.943,0,0,1-8.076.352,4.243,4.243,0,0,1-.735-.262c-.507-.228-.965-.348-1.475-.576a16.814,16.814,0,0,1-5.821-3.695c-.708-.711-1.332-1.458-2.132-2.131a31.73,31.73,0,0,1-3.847-4.04c-.525-.63-1.055-1.312-1.58-1.942a27.523,27.523,0,0,1-2.417-3.421c-2.259-3.9-5.079-8.278-6.8-12.341-2.837-6.686-5.873-13.749-7.14-20.738-1.042-6.007,1.374-11.484,5.788-13.849,4.372-2.326,10.34-1.356,14.827,2.834,5.289,4.915,9.605,11.324,13.769,17.364,2.47,3.58,4.485,8.136,6.562,12.006a37.472,37.472,0,0,1,3.794,11.828,22.636,22.636,0,0,0,.634,2.944,16.6,16.6,0,0,1-.048,6.889" transform="translate(57.223 35.09)" fill="#ac9afc"/>
        </g>
      </g>
      <g id="Grupo_1101141" data-name="Grupo 1101141" transform="matrix(-0.454, 0.891, -0.891, -0.454, 1314.001, -155.643)" opacity="0.25" style="isolation: isolate">
        <g id="Grupo_1101057-2" data-name="Grupo 1101057" transform="translate(0 0)" clip-path="url(#clip-path-3)">
          <path id="Trazado_878017-2" data-name="Trazado 878017" d="M636.228,105.1c-2.632-27-4.2-54.708-22.564-75.73-11.186,29.923-30.194,56.34-49.6,82.793-26.231,35.774-53.894,70.479-83.41,103.905C422.768,281.84,357.319,338.244,289.829,394.543c-11.768,9.791-29.64-7.889-18.393-18.539,61.512-58.487,116.638-124.379,170.028-189.762,26.906-32.941,52.983-66.564,77.85-100.923,19.323-26.69,37.143-54.174,60.827-77.172-17.292-5.141-36.52-4.8-55.753-3.764q-33.827,1.907-67.68,4.189a768.378,768.378,0,0,0-161.391,7.119c-9.236,1.375-16.015,5.121-20.835,10.092-35.084,19.155-28.714,75.473,19.354,79.952q30.219,2.77,60.434,5.587A1174.677,1174.677,0,0,0,97.941,275.334c-35.59,29.88,1.124,77.083,40.222,69.346q42.383-8.415,83.6-20.475Q114.176,424.581,16.286,534.236C-17.056,571.588,22.2,624.96,68.8,600.98,179.21,544.09,279.582,472.234,370.32,390.111c-15.683,39.97-30.028,80.356-42.562,121.214-9.114,29.518,19.908,62.992,52.679,51.838,78.358-26.769,107.033-134.409,125.2-206.528a285.888,285.888,0,0,0,9.431,58.468c9.033,32.806,48.492,40.086,74.517,18.375,95.323-79.6,56.581-227.173,46.639-328.375M273.741,238.056A357.166,357.166,0,0,0,222.7,265.613c-14.984,9.887-29.444-9.994-15.781-21.136a246.834,246.834,0,0,1,55.209-34.423,219.824,219.824,0,0,1,28.57-10.8c10.671-3.118,22.519-7.043,33.6-7.66,4.686-.242,10.468,1.191,12.9,5.388,2.036,3.53,2.919,6.227,2.394,10.245-.678,4.857-4.674,9.152-9.37,10.938-9.393,3.622-19.5,5.63-29.033,9.1-9.228,3.344-18.465,6.784-27.446,10.791M451.19,369.789c-.239,3.371-.518,6.691-.847,10.012-1.3,13.046-3.227,25.983-5.736,38.9-1.058,5.41-6.872,9.978-12.685,8.968-5.808-1.058-9.836-6.051-8.843-11.885q3.218-18.9,4.647-37.946l.48-6.881c.006-.092,0-.7.029-1.123s.07-1.684.08-1.828c.051-.7.1-1.4.1-2.107.073-2.484-.084-5.066.711-7.436.261-.929.718-1.9.979-2.835,0-.044.087-.559.112-.886.155-1.543.459-3.129.712-4.671.5-3.735.928-7.007,2.825-10.467,2.394-4.339,9.939-6.563,12.847-1.553a20.967,20.967,0,0,1,2.588,5.372,46.734,46.734,0,0,1,.75,5.274c.219,1.741.388,3.484.561,5.222.059.52.117,1.083.175,1.647.039.142.281.853.35,1.229,1.172,4.115.465,8.69.164,12.993M592.747,233.233a11.376,11.376,0,0,1-.423,1.207c-.119.277-.19.6-.306.882l-.06.141a12.573,12.573,0,0,1-5.955,6.58,12.976,12.976,0,0,1-8.788,1.246,4.288,4.288,0,0,1-.766-.162c-.523-.155-1.005-.216-1.532-.371a14.224,14.224,0,0,1-5.882-2.795,23.947,23.947,0,0,0-2.066-1.751,22.741,22.741,0,0,1-3.7-3.341c-.5-.53-.992-1.107-1.489-1.637a18.628,18.628,0,0,1-2.227-2.925c-2-3.388-4.555-7.165-5.957-10.769-2.307-5.931-4.788-12.192-5.361-18.584a14.529,14.529,0,0,1,7.855-13.609c5-2.671,11.355-2.441,15.736.968,5.167,4,9.108,9.5,12.927,14.677,2.266,3.067,3.927,7.1,5.734,10.484a26.01,26.01,0,0,1,2.756,10.631,16.354,16.354,0,0,0,.35,2.682,14.014,14.014,0,0,1-.841,6.448" transform="translate(1.122 2.944)" fill="#ac9afc"/>
        </g>
      </g>
      <path id="Trazado_878245" data-name="Trazado 878245" d="M1150.3,1107.219c10.685,9.967,22.014,19.489,35.783,22.27,9.809,1.981,18,2.246,27.793-.349,4.383-1.162,8.747-3.581,12.726-5.907a46.01,46.01,0,0,0,7.7-6.244c9.156-8.426,16.646-31.216,30.875-20.9,6.56,4.755,11.846,12.068,18.366,17.064a98.552,98.552,0,0,0,26.077,14.329,43.922,43.922,0,0,0,6.915,1.88c4.836.919,10.353,2.106,15.4,1.7,9.661-.775,19.763-3.276,27.9-9.934a69,69,0,0,0,18.608-22.885c2.656-5.183,3.519-13.36,8.411-16.293,7.151-4.287,11.075,4.967,14.57,10.4a70.84,70.84,0,0,0,17.955,19.435c8.7,6.228,17.583,8.206,27.5,9.381a63.316,63.316,0,0,0,12.871.325c9.133-.8,16.645-2.518,24.767-7.623a39.53,39.53,0,0,0,9.513-8.532c5.471-6.772,7.393-12.007,10.178-20.615a34.068,34.068,0,0,0,.557-15.187,32.175,32.175,0,0,0-3.818-14.155c-3.9-7.895-11.531-15.418-19.174-17.476a30.887,30.887,0,0,0-19.354.763c-4.038,1.55-8.306,5.438-12.436,2.489-5.718-4.082-6.281-17.31-9.16-23.644a98.827,98.827,0,0,0-12.873-20.824c-4.838-6.005-10.719-11.449-17.106-14.914-9-4.882-18.514-8.586-28.609-7.62-9.345.894-18.931,3.368-26.679,10.067-7.472,6.461-13.491,13.336-18.2,22.968a111.439,111.439,0,0,0-7.776,22.317c-1.375,5.645-.935,14.821-6.74,16.892-10.213,3.643-16.985-18.949-21.96-25.945-2.723-3.829-6.375-6.771-9.734-9.686a26.6,26.6,0,0,0-4.625-3.238c-5.312-2.928-10.6-5.7-16.4-6.728-6.027-1.073-11.818-2.205-17.865-1.346-4.162.592-8.479,1.021-12.552,2.347a68.032,68.032,0,0,0-11.768,5.6,26.552,26.552,0,0,0-3.988,2.719,59.8,59.8,0,0,0-9.632,9.275c-3.9,5.12-6.727,11.143-10.531,16.3-2.734,3.7-6.051,10.2-9.52,12.643-3.414,2.408-5.918-1.712-9.01-2.9a21.041,21.041,0,0,0-12.353-3.263,30.246,30.246,0,0,0-22.653,11.186c-5.6,7.266-9.753,16.8-9.36,26.943.364,9.388,2.894,20.833,9.416,26.917" transform="translate(-711.668 -677.427)" fill="url(#linear-gradient-2)"/>
    </g>
    <path id="Trazado_878222" data-name="Trazado 878222" d="M1782.687,514.763a14.124,14.124,0,0,0-3.673-3.593c-3.881-2.626-8.937-3.1-12.311.606-1.371,1.506-2.408,3.293-3.8,4.781a11.891,11.891,0,0,0-3.439,5.925,9.623,9.623,0,0,0,1.464,6.859c3.355,5,10.977,5.461,16.11,3.317a13.694,13.694,0,0,0,2.107-1.1,12.094,12.094,0,0,0,5.6-8.095,11.766,11.766,0,0,0-2.059-8.705m-6.085,8.183a3.68,3.68,0,0,1-.7,1.642,5.608,5.608,0,0,1-3.041,1.937,4.423,4.423,0,0,1-4.109-.681,3.525,3.525,0,0,1-1.092-2.539c-.039-2.291,2.046-5.137,4.4-5.441a3.545,3.545,0,0,1,2.016.4,4.634,4.634,0,0,1,2.529,4.682" transform="translate(-5839.203 -14932.453)" fill="#567d56"/>
    <path id="Trazado_878246" data-name="Trazado 878246" d="M23.347,5.665a14.124,14.124,0,0,0-3.673-3.593c-3.881-2.626-8.937-3.1-12.311.606C5.992,4.185,4.955,5.972,3.565,7.46A11.891,11.891,0,0,0,.126,13.385a9.623,9.623,0,0,0,1.464,6.859c3.355,5,10.977,5.461,16.11,3.317a13.694,13.694,0,0,0,2.107-1.1,12.094,12.094,0,0,0,5.6-8.095,11.766,11.766,0,0,0-2.059-8.705m-6.085,8.183a3.68,3.68,0,0,1-.7,1.642,5.608,5.608,0,0,1-3.041,1.937,4.423,4.423,0,0,1-4.109-.681,3.525,3.525,0,0,1-1.092-2.539c-.039-2.291,2.046-5.137,4.4-5.441a3.545,3.545,0,0,1,2.016.4,4.634,4.634,0,0,1,2.529,4.682" transform="matrix(-0.899, 0.438, -0.438, -0.899, -4050.168, -14375.433)" fill="#fcc59a"/>
    <g id="Grupo_1101140" data-name="Grupo 1101140" transform="translate(-3127.687 -14499.421)">
      <ellipse id="Elipse_11585" data-name="Elipse 11585" cx="30.947" cy="31.62" rx="30.947" ry="31.62" transform="translate(0.13 1.4)" fill="#fff"/>
      <ellipse id="Elipse_11586" data-name="Elipse 11586" cx="10.091" cy="10.091" rx="10.091" ry="10.091" transform="translate(13.585 21.583)" fill="#d8f263"/>
      <g id="Grupo_1101139" data-name="Grupo 1101139" transform="matrix(-0.966, 0.259, -0.259, -0.966, 73.687, 41.969)">
        <path id="Trazado_878224" data-name="Trazado 878224" d="M53.691,19.806c-8.205-3-16.949-8.143-25.861-5.011-5.719,1.94-10.349,6.141-14.084,10.781-1.89,2.334-3.685,4.748-5.572,7.1-.973,1.191-2.112,2.455-3.741,2.7C-.251,35.7-.434,26.7.36,23.587a25.438,25.438,0,0,1,2.847-7.407C12.469-.029,32.875-4.5,48.731,4.766a35.309,35.309,0,0,1,9.518,8.154c.181,2.83-.435,8.454-4.558,6.886m.076-.208c4.115,1.485,4.188-4.377,4.169-6.551A37.055,37.055,0,0,0,34.754.553,32.408,32.408,0,0,0,4.088,15.387c-3.023,4.992-4.845,11.4-2.731,17.052.473,1.286,1.518,2.633,3.011,2.418,1.42-.238,2.474-1.453,3.355-2.538,5.5-6.974,11.265-14.8,20-17.844,9-3.267,17.809,2.028,26.045,5.122" transform="translate(0)" fill="#567d56"/>
        <path id="Trazado_878225" data-name="Trazado 878225" d="M44.553,1.7c-5.7-1.321-11.669-2.4-17.04.633A23.507,23.507,0,0,0,23.89,4.772a74.9,74.9,0,0,0-9.657,8.906A69.351,69.351,0,0,0,7.6,22.405c-.824,1.216-1.779,2.629-3.355,2.909A3.557,3.557,0,0,1,.609,22.972c-1.767-4.885.518-10.839,4.181-14.256a.111.111,0,0,1,.155.159,15.944,15.944,0,0,0-4.4,11.864c-.019,2.011,1.338,4.527,3.632,4.188,1.422-.272,2.275-1.633,3.028-2.779a78.762,78.762,0,0,1,6.735-8.731c3.921-4.353,8.14-8.688,13.428-11.358A18.5,18.5,0,0,1,40.306.5c1.449.269,2.877.618,4.3.986a.111.111,0,0,1-.051.216" transform="translate(8.384 18.097)" fill="#567d56"/>
        <path id="Trazado_878226" data-name="Trazado 878226" d="M1.334,18.518c-.127,2.175-1.485,4.194-.789,6.341a2.258,2.258,0,0,0,3.088,1.7C4.92,25.926,5.662,24.579,6.41,23.4c1.18-1.843,2.371-3.675,3.61-5.482,4.6-6.494,8.6-8.66,16.341-9.994a45.833,45.833,0,0,1,6.563-.58,13.619,13.619,0,0,1,4.255,1.2,15.033,15.033,0,0,0,1.936.951c2.306.827,3.589-1.984,2.577-3.809a9.221,9.221,0,0,0-2.857-3.091,15.818,15.818,0,0,0-3.6-2.372c-.138-.045-.045-.262.081-.206a14.749,14.749,0,0,1,3.769,2.252c1.721,1.224,3.806,3.062,3.453,5.472a2.693,2.693,0,0,1-2.4,2.317c-1.161.043-2.159-.719-3.12-1.175A10.48,10.48,0,0,0,31.838,7.81l-1.085.1c-3.537.386-7.322.588-10.628,2a18.784,18.784,0,0,0-3.783,2.044c-2.384,1.655-4.1,4.036-5.886,6.289A81.785,81.785,0,0,0,5.47,25.4C2.933,28.893-.577,26.581.081,22.73c.243-1.469.877-2.8,1.033-4.231a.111.111,0,0,1,.221.019" transform="translate(22.065 12.203)" fill="#567d56"/>
        <path id="Trazado_878227" data-name="Trazado 878227" d="M.024,28.05a24.466,24.466,0,0,1,4.32-14.343A30.725,30.725,0,0,1,30.2,0,34.528,34.528,0,0,1,44.963,3.281a.126.126,0,0,1-.1.23A38.916,38.916,0,0,0,30.2.589a31.983,31.983,0,0,0-14.49,3.382C6.906,8.45-.124,17.883.275,28.032a.125.125,0,1,1-.25.018" transform="translate(2.922 6.506)" fill="#567d56"/>
        <path id="Trazado_878228" data-name="Trazado 878228" d="M.012,24.591A25.4,25.4,0,0,1,9.95,3.575,21.67,21.67,0,0,1,17.137,0a.126.126,0,0,1,.079.238,29.529,29.529,0,0,0-6.914,3.8A24.5,24.5,0,0,0,.263,24.583a.126.126,0,1,1-.251.009" transform="translate(11.53 18.003)" fill="#567d56"/>
        <path id="Trazado_878229" data-name="Trazado 878229" d="M0,20.761A29.426,29.426,0,0,1,13.155,2.717,22.673,22.673,0,0,1,20.276,0a.126.126,0,0,1,.061.243A29.141,29.141,0,0,0,3.012,13.816,28.892,28.892,0,0,0,.247,20.823.126.126,0,1,1,0,20.761" transform="translate(24.075 18.156)" fill="#567d56"/>
        <path id="Trazado_878230" data-name="Trazado 878230" d="M.859,1.778A.89.89,0,0,0,.859,0a.89.89,0,0,0,0,1.778" transform="translate(50.288 16.077)" fill="#567d56"/>
        <path id="Trazado_878231" data-name="Trazado 878231" d="M.859,1.778A.89.89,0,0,0,.859,0a.89.89,0,0,0,0,1.778" transform="translate(47.82 14.311)" fill="#567d56"/>
        <path id="Trazado_878232" data-name="Trazado 878232" d="M.859,1.778A.89.89,0,0,0,.859,0a.89.89,0,0,0,0,1.778" transform="translate(49.429 13.734)" fill="#567d56"/>
        <path id="Trazado_878233" data-name="Trazado 878233" d="M.859,1.778A.89.89,0,0,0,.859,0a.89.89,0,0,0,0,1.778" transform="translate(4.501 30.243)" fill="#567d56"/>
        <path id="Trazado_878234" data-name="Trazado 878234" d="M.859,1.778A.89.89,0,0,0,.859,0a.89.89,0,0,0,0,1.778" transform="translate(4.274 27.281)" fill="#567d56"/>
        <path id="Trazado_878235" data-name="Trazado 878235" d="M.859,1.778A.89.89,0,0,0,.859,0a.89.89,0,0,0,0,1.778" transform="translate(6.501 27.336)" fill="#567d56"/>
        <path id="Trazado_878236" data-name="Trazado 878236" d="M.859,1.778A.89.89,0,0,0,.859,0a.89.89,0,0,0,0,1.778" transform="translate(20.041 29.45)" fill="#567d56"/>
        <path id="Trazado_878237" data-name="Trazado 878237" d="M.859,1.778A.89.89,0,0,0,.859,0a.89.89,0,0,0,0,1.778" transform="translate(20.811 26.04)" fill="#567d56"/>
        <path id="Trazado_878238" data-name="Trazado 878238" d="M.859,1.778A.89.89,0,0,0,.859,0a.89.89,0,0,0,0,1.778" transform="translate(23.319 25.443)" fill="#567d56"/>
        <path id="Trazado_878239" data-name="Trazado 878239" d="M.859,1.778A.89.89,0,0,0,.859,0a.89.89,0,0,0,0,1.778" transform="translate(26.722 33.779)" fill="#567d56"/>
        <path id="Trazado_878240" data-name="Trazado 878240" d="M.859,1.778A.89.89,0,0,0,.859,0a.89.89,0,0,0,0,1.778" transform="translate(27.416 31.696)" fill="#567d56"/>
        <path id="Trazado_878241" data-name="Trazado 878241" d="M1.458,2.638A1.793,1.793,0,0,0,.609.734,4.18,4.18,0,0,1,.038.243a.14.14,0,0,1,.006-.2C.681-.175,1.285.454,1.516.991A3.2,3.2,0,0,1,1.7,2.69a.126.126,0,1,1-.246-.051" transform="translate(61.27 16.806)" fill="#567d56"/>
        <path id="Trazado_878242" data-name="Trazado 878242" d="M.835,1.435C.926,1.034.557.758.259.588A.691.691,0,0,1,.011.267C-.084-.072.464-.045.606.11a1.779,1.779,0,0,1,.48,1.347.127.127,0,1,1-.251-.022" transform="translate(61.037 17.594)" fill="#567d56"/>
        <path id="Trazado_878243" data-name="Trazado 878243" d="M.026,8.4C2.521,5.062,5.413,1.677,9.332.01a.127.127,0,0,1,.122.22C6.925,2.066,4.278,3.751,2.175,6.092A22.845,22.845,0,0,0,.232,8.545C.144,8.682-.075,8.536.026,8.4" transform="translate(6.779 6.009)" fill="#567d56"/>
        <path id="Trazado_878244" data-name="Trazado 878244" d="M.034,4.122C1.512,2.605,2.767.332,5.057,0A.13.13,0,0,1,5.2.119.132.132,0,0,1,5.14.237c-.452.312-.895.57-1.337.852a13.952,13.952,0,0,0-3.578,3.2c-.1.13-.306-.04-.19-.164" transform="translate(9.836 8.652)" fill="#567d56"/>
      </g>
    </g>
    <path id="Trazado_878023" data-name="Trazado 878023" d="M16.819,12.582A9.167,9.167,0,0,0,14.4,1.984,8.612,8.612,0,0,0,9.14,0,9.718,9.718,0,0,0,3.64,1.49C.563,3.432-1.22,7.942.973,11.4A6.49,6.49,0,0,0,6.146,14.4a6.6,6.6,0,0,0,5.356-2.29,4.685,4.685,0,0,0,.141-5.839A4.509,4.509,0,0,0,8.7,4.537,3.383,3.383,0,0,0,5.56,5.867a3.133,3.133,0,0,0-.592,1.649A1.749,1.749,0,0,0,6.475,9.3,1.516,1.516,0,0,0,8.2,7.939a.573.573,0,0,1,.008-.112c0-.012,0-.025,0-.037q-.028.126-.056.252c-.021-.06.06-.184.079-.243,0-.012.033-.1.045-.1.047-.01-.22.328-.1.209.022-.022.122-.212.153-.2S8,8,8.195,7.845c.029-.023.056-.048.084-.071.057-.046.124-.082.181-.128.121-.1-.2.14-.191.11a.394.394,0,0,1,.1-.046.98.98,0,0,0,.1-.041c.228-.105-.281.037-.142.032a1.205,1.205,0,0,0,.223-.029c.163-.043-.258.024-.224,0a.378.378,0,0,1,.114.01c.052.009.106.019.158.025.159.019-.207-.041-.2-.057s.255.086.278.1c.077.031.15.067.224.1.185.086-.338-.218-.178-.095.031.024.068.043.1.066.066.045.125.1.19.144.2.146-.287-.315-.066-.061.06.069.122.136.177.209.024.03.044.067.07.094.121.131-.154-.224-.121-.2.119.1.182.356.243.488.109.238-.089-.351-.029-.1.018.076.04.15.055.227s.029.179.043.268c.05.318.009-.29,0-.057-.011.168-.031.334-.042.5-.01.141.04-.205.044-.208-.012.006-.026.1-.03.112-.025.087-.054.173-.087.257-.024.059-.177.365-.036.1s-.005,0-.04.059a4.2,4.2,0,0,1-.318.45q-.074.091-.152.178a.512.512,0,0,0-.08.086c-.008.018.273-.265.153-.16-.138.12-.269.243-.415.353-.079.06-.4.2-.42.283,0,.007.316-.171.183-.1l-.1.055c-.081.042-.164.081-.247.119a5.074,5.074,0,0,1-.476.184c-.075.025-.15.046-.226.069-.237.071.157-.047.165-.042-.018-.011-.132.029-.154.033q-.232.046-.47.072c-.092.01-.184.017-.277.022l-.119,0c-.216.014.146.008.175,0a3.191,3.191,0,0,1-1.03-.124c-.251-.049.388.122.062.013-.077-.026-.154-.049-.23-.077-.179-.065-.348-.149-.523-.227-.154-.069.223.132.207.118a.689.689,0,0,0-.107-.063q-.126-.075-.245-.158c-.152-.105-.29-.225-.435-.34s.192.177.164.158a.993.993,0,0,1-.123-.124q-.093-.1-.18-.2A5.58,5.58,0,0,1,3.6,9.754c.009-.006.188.317.117.179C3.7,9.9,3.678,9.86,3.658,9.824Q3.6,9.714,3.544,9.6t-.1-.226c-.021-.05-.039-.1-.059-.152-.088-.214.066.146.051.162.006-.006-.206-1.032-.195-1.028s.015.352.013.205c0-.04,0-.08,0-.12,0-.094,0-.188,0-.281.006-.188.022-.376.046-.561.011-.08.023-.16.037-.239a.893.893,0,0,0,.022-.119s-.078.343-.041.2c.047-.182.091-.364.149-.543a8.451,8.451,0,0,1,.391-.959c.072-.157-.115.224-.1.192A1.03,1.03,0,0,1,3.828,6q.057-.1.12-.2.143-.23.307-.446.14-.185.294-.359c.046-.052.28-.3.066-.078s.024-.02.076-.069a6.881,6.881,0,0,1,.789-.636c.14-.1.285-.184.429-.276s-.2.1-.182.1a.432.432,0,0,0,.1-.057c.093-.05.187-.1.282-.144a7.771,7.771,0,0,1,.958-.388c.141-.047.71-.183.183-.066.17-.038.339-.078.511-.109a7.884,7.884,0,0,1,1.083-.118c.037,0,.223.017.243-.006,0,0-.364-.007-.21,0L9,3.15q.284.01.568.041c.175.019.351.045.525.076.08.015.161.031.241.048l.12.027c.22.048-.149-.028-.173-.047a2.139,2.139,0,0,0,.512.159c.183.064.363.136.54.216.077.034.152.07.227.107s.338.18.067.029.031.02.1.062c.087.053.173.109.258.166q.236.16.457.339c.067.055.134.111.2.168l.1.087c.155.136-.277-.277-.137-.126a8.791,8.791,0,0,1,.744.874c.049.069.1.139.144.209.158.233-.189-.317-.049-.074.1.171.194.341.281.517s.154.33.223.5c.031.078.061.156.09.235l.042.118c.074.205-.033-.119-.05-.154a4.121,4.121,0,0,1,.256,1.1q.039.247.062.5c0,.041.008.083.011.124.024.259-.008-.157-.009-.157.03.026.008.247.008.29A7.763,7.763,0,0,1,14.29,9.64c-.013.095-.026.189-.042.283-.007.04-.016.08-.021.12-.023.149.036-.2.042-.2a4.909,4.909,0,0,1-.141.549,6.839,6.839,0,0,1-.376.971,1.575,1.575,0,0,0,.071,1.2,1.8,1.8,0,0,0,.94.878,1.58,1.58,0,0,0,2.057-.856" transform="matrix(0.809, 0.588, -0.588, 0.809, -3114.325, -14451.924)" fill="#ac9afc"/>
    <g id="Trazado_885406" data-name="Trazado 885406" transform="translate(-3925.949 -14433.582)" fill="none">
      <path d="M20,0H697.95a20,20,0,0,1,20,20V73.771a20,20,0,0,1-20,20H20a20,20,0,0,1-20-20V20A20,20,0,0,1,20,0Z" stroke="none"/>
      <path d="M 19.99993896484375 1.999984741210938 C 15.1920166015625 1.999984741210938 10.671875 3.872344970703125 7.27203369140625 7.272071838378906 C 3.872314453125 10.67189025878906 1.99993896484375 15.19207000732422 1.99993896484375 19.99998474121094 L 1.99993896484375 73.77052307128906 C 1.99993896484375 78.57843780517578 3.872314453125 83.09861755371094 7.27203369140625 86.49843597412109 C 10.671875 89.89816284179688 15.1920166015625 91.77052307128906 19.99993896484375 91.77052307128906 L 697.9496459960938 91.77052307128906 C 702.7576904296875 91.77052307128906 707.27783203125 89.89816284179688 710.6775512695312 86.49843597412109 C 714.0773315429688 83.09870910644531 715.9496459960938 78.57852935791016 715.9496459960938 73.77052307128906 L 715.9496459960938 19.99998474121094 C 715.9496459960938 15.19197845458984 714.0773315429688 10.67179870605469 710.6775512695312 7.272071838378906 C 707.27783203125 3.872344970703125 702.7576904296875 1.999984741210938 697.9496459960938 1.999984741210938 L 19.99993896484375 1.999984741210938 M 19.99993896484375 -1.52587890625e-05 L 697.9496459960938 -1.52587890625e-05 C 708.9954223632812 -1.52587890625e-05 717.9496459960938 8.954345703125 717.9496459960938 19.99998474121094 L 717.9496459960938 73.77052307128906 C 717.9496459960938 84.816162109375 708.9954223632812 93.77052307128906 697.9496459960938 93.77052307128906 L 19.99993896484375 93.77052307128906 C 8.95428466796875 93.77052307128906 -6.103515625e-05 84.816162109375 -6.103515625e-05 73.77052307128906 L -6.103515625e-05 19.99998474121094 C -6.103515625e-05 8.954345703125 8.95428466796875 -1.52587890625e-05 19.99993896484375 -1.52587890625e-05 Z" stroke="none" fill="#567d56"/>
    </g>
    <path id="Trazado_885407" data-name="Trazado 885407" d="M20,0h85a20,20,0,0,1,20,20V33a20,20,0,0,1-20,20H20A20,20,0,0,1,0,33V20A20,20,0,0,1,20,0Z" transform="translate(-3706.95 -14367.312)" fill="url(#linear-gradient-3)"/>
    <path id="Trazado_885408" data-name="Trazado 885408" d="M14,0h86a14,14,0,0,1,14,14V27a14,14,0,0,1-14,14H14A14,14,0,0,1,0,27V14A14,14,0,0,1,14,0Z" transform="translate(-3701.95 -14361.312)" fill="#fff"/>
    <g id="Grupo_1101616" data-name="Grupo 1101616" transform="translate(-4092.574 -25751.922)">
      <rect id="Rectángulo_402235" data-name="Rectángulo 402235" width="133" height="52.408" rx="20" transform="translate(533.574 11384)" fill="url(#linear-gradient-4)"/>
      <rect id="Rectángulo_402236" data-name="Rectángulo 402236" width="122" height="40.408" rx="14" transform="translate(539.565 11390)" fill="#fff"/>
    </g>
    <path id="Trazado_885409" data-name="Trazado 885409" d="M14,0H129.4a14,14,0,0,1,14,14V26.37a14,14,0,0,1-14,14H14a14,14,0,0,1-14-14V14A14,14,0,0,1,14,0Z" transform="translate(-3874 -14452.885)" fill="#567d56"/>
    <path id="Trazado_885410" data-name="Trazado 885410" d="M14,0H129.4a14,14,0,0,1,14,14V26.37a14,14,0,0,1-14,14H14a14,14,0,0,1-14-14V14A14,14,0,0,1,14,0Z" transform="translate(-3874 -14361.904)" fill="#d8f263"/>
    <path id="Trazado_885411" data-name="Trazado 885411" d="M12.432,14.264a5.031,5.031,0,0,1-1.694,3.613A5.951,5.951,0,0,1,6.709,19.2a5.351,5.351,0,0,1-4.3-1.841A7.548,7.548,0,0,1,.84,12.3v-.869a8.523,8.523,0,0,1,.723-3.613,5.416,5.416,0,0,1,2.065-2.4,5.786,5.786,0,0,1,3.12-.835A5.8,5.8,0,0,1,10.713,5.9a5.407,5.407,0,0,1,1.738,3.7H9.521a2.97,2.97,0,0,0-.767-2,2.839,2.839,0,0,0-2.007-.62,2.489,2.489,0,0,0-2.192,1.05,5.883,5.883,0,0,0-.747,3.257v1.074a6.3,6.3,0,0,0,.7,3.369,2.443,2.443,0,0,0,2.2,1.064,2.892,2.892,0,0,0,2.026-.62A2.8,2.8,0,0,0,9.5,14.264Zm1.3-.645a6.267,6.267,0,0,1,.605-2.8,4.432,4.432,0,0,1,1.743-1.9,5.086,5.086,0,0,1,2.642-.674,4.812,4.812,0,0,1,3.491,1.309A5.252,5.252,0,0,1,23.721,13.1l.02.723a5.523,5.523,0,0,1-1.357,3.9A4.718,4.718,0,0,1,18.74,19.2a4.742,4.742,0,0,1-3.647-1.465,5.62,5.62,0,0,1-1.362-3.984Zm2.822.2a3.95,3.95,0,0,0,.566,2.3,2.035,2.035,0,0,0,3.223.01,4.322,4.322,0,0,0,.576-2.518,3.91,3.91,0,0,0-.576-2.289,1.873,1.873,0,0,0-1.621-.812,1.842,1.842,0,0,0-1.6.807A4.395,4.395,0,0,0,16.553,13.819ZM28.125,8.434l.088,1.182A3.713,3.713,0,0,1,31.25,8.238a2.818,2.818,0,0,1,2.8,1.611,3.628,3.628,0,0,1,3.174-1.611,3.152,3.152,0,0,1,2.559,1,4.6,4.6,0,0,1,.84,3.013V19H37.793V12.262a2.012,2.012,0,0,0-.352-1.313,1.558,1.558,0,0,0-1.24-.415,1.761,1.761,0,0,0-1.758,1.211L34.453,19H31.631V12.271a1.988,1.988,0,0,0-.361-1.328,1.573,1.573,0,0,0-1.23-.41,1.829,1.829,0,0,0-1.738,1V19H25.479V8.434ZM52.3,13.814A6.337,6.337,0,0,1,51.2,17.726,3.554,3.554,0,0,1,48.2,19.2a3.292,3.292,0,0,1-2.588-1.113v4.98H42.793V8.434H45.41l.1,1.035a3.317,3.317,0,0,1,2.676-1.23,3.578,3.578,0,0,1,3.037,1.445A6.509,6.509,0,0,1,52.3,13.668Zm-2.822-.205a4.159,4.159,0,0,0-.522-2.275,1.7,1.7,0,0,0-1.519-.8,1.848,1.848,0,0,0-1.826,1.016v4.326a1.879,1.879,0,0,0,1.846,1.045Q49.482,16.92,49.482,13.609Zm4.131.01a6.267,6.267,0,0,1,.605-2.8,4.432,4.432,0,0,1,1.743-1.9A5.086,5.086,0,0,1,58.6,8.238a4.812,4.812,0,0,1,3.491,1.309A5.252,5.252,0,0,1,63.6,13.1l.02.723a5.523,5.523,0,0,1-1.357,3.9,5.261,5.261,0,0,1-7.29,0,5.62,5.62,0,0,1-1.362-3.984Zm2.822.2a3.95,3.95,0,0,0,.566,2.3,2.035,2.035,0,0,0,3.223.01,4.322,4.322,0,0,0,.576-2.518,3.91,3.91,0,0,0-.576-2.289,1.873,1.873,0,0,0-1.621-.812,1.842,1.842,0,0,0-1.6.807A4.395,4.395,0,0,0,56.436,13.819ZM67.959,8.434l.088,1.221a3.689,3.689,0,0,1,3.037-1.416,3.066,3.066,0,0,1,2.5.986,4.6,4.6,0,0,1,.84,2.949V19H71.6V12.242a1.831,1.831,0,0,0-.391-1.3,1.749,1.749,0,0,0-1.3-.405,1.942,1.942,0,0,0-1.787,1.016V19H65.3V8.434ZM81.426,19.2a5.187,5.187,0,0,1-3.784-1.426,5.068,5.068,0,0,1-1.46-3.8V13.7a6.383,6.383,0,0,1,.615-2.847A4.515,4.515,0,0,1,78.54,8.917a4.893,4.893,0,0,1,2.573-.679,4.385,4.385,0,0,1,3.413,1.367,5.555,5.555,0,0,1,1.245,3.877v1.152H79.043a2.622,2.622,0,0,0,.825,1.66,2.5,2.5,0,0,0,1.743.625,3.046,3.046,0,0,0,2.549-1.182l1.387,1.553a4.237,4.237,0,0,1-1.719,1.4A5.639,5.639,0,0,1,81.426,19.2ZM81.1,10.514a1.764,1.764,0,0,0-1.362.569,2.946,2.946,0,0,0-.669,1.628H83v-.226a2.1,2.1,0,0,0-.508-1.457A1.819,1.819,0,0,0,81.1,10.514Zm8.867-2.08.088,1.221A3.689,3.689,0,0,1,93.1,8.238a3.066,3.066,0,0,1,2.5.986,4.6,4.6,0,0,1,.84,2.949V19H93.613V12.242a1.831,1.831,0,0,0-.391-1.3,1.749,1.749,0,0,0-1.3-.405,1.942,1.942,0,0,0-1.787,1.016V19H87.314V8.434Zm11.982-2.6v2.6h1.807V10.5h-1.807v5.273a1.259,1.259,0,0,0,.225.84,1.128,1.128,0,0,0,.859.254,4.5,4.5,0,0,0,.83-.068v2.139a5.81,5.81,0,0,1-1.709.254q-2.969,0-3.027-3V10.5H97.588V8.434h1.543v-2.6ZM110.2,19.2a5.187,5.187,0,0,1-3.784-1.426,5.068,5.068,0,0,1-1.46-3.8V13.7a6.383,6.383,0,0,1,.615-2.847,4.515,4.515,0,0,1,1.743-1.934,4.893,4.893,0,0,1,2.573-.679A4.385,4.385,0,0,1,113.3,9.605a5.555,5.555,0,0,1,1.245,3.877v1.152h-6.729a2.622,2.622,0,0,0,.825,1.66,2.5,2.5,0,0,0,1.743.625,3.046,3.046,0,0,0,2.549-1.182l1.387,1.553a4.237,4.237,0,0,1-1.719,1.4A5.639,5.639,0,0,1,110.2,19.2Zm-.322-8.682a1.764,1.764,0,0,0-1.362.569,2.946,2.946,0,0,0-.669,1.628h3.926v-.226a2.1,2.1,0,0,0-.508-1.457A1.819,1.819,0,0,0,109.873,10.514Z" transform="translate(-3861.6 -14444.23)" fill="#fff"/>
    <path id="Trazado_885412" data-name="Trazado 885412" d="M4.2,13.99V19H1.27V4.781H6.816a6.417,6.417,0,0,1,2.817.586A4.318,4.318,0,0,1,11.5,7.032a4.643,4.643,0,0,1,.654,2.456,4.083,4.083,0,0,1-1.431,3.3,5.959,5.959,0,0,1-3.96,1.206Zm0-2.373H6.816a2.573,2.573,0,0,0,1.772-.547A1.989,1.989,0,0,0,9.2,9.508a2.345,2.345,0,0,0-.615-1.689,2.3,2.3,0,0,0-1.7-.664H4.2Zm9.219,2a6.267,6.267,0,0,1,.605-2.8,4.432,4.432,0,0,1,1.743-1.9,5.086,5.086,0,0,1,2.642-.674A4.812,4.812,0,0,1,21.9,9.547,5.252,5.252,0,0,1,23.408,13.1l.02.723a5.523,5.523,0,0,1-1.357,3.9,4.718,4.718,0,0,1-3.643,1.47A4.742,4.742,0,0,1,14.78,17.73a5.62,5.62,0,0,1-1.362-3.984Zm2.822.2a3.95,3.95,0,0,0,.566,2.3,2.035,2.035,0,0,0,3.223.01,4.322,4.322,0,0,0,.576-2.518,3.91,3.91,0,0,0-.576-2.289,1.873,1.873,0,0,0-1.621-.812,1.842,1.842,0,0,0-1.6.807A4.395,4.395,0,0,0,16.24,13.819ZM31.1,11.08A7.667,7.667,0,0,0,30.088,11a2.067,2.067,0,0,0-2.1,1.084V19H25.166V8.434h2.666l.078,1.26a2.615,2.615,0,0,1,2.354-1.455,2.957,2.957,0,0,1,.879.127Zm5.566,5.84a1.851,1.851,0,0,0,1.27-.43,1.506,1.506,0,0,0,.508-1.143h2.646a3.62,3.62,0,0,1-.586,1.968A3.866,3.866,0,0,1,38.931,18.7a4.936,4.936,0,0,1-2.212.493,4.587,4.587,0,0,1-3.574-1.44,5.7,5.7,0,0,1-1.309-3.979V13.59a5.635,5.635,0,0,1,1.3-3.9A4.534,4.534,0,0,1,36.7,8.238a4.444,4.444,0,0,1,3.179,1.128,3.994,3.994,0,0,1,1.216,3H38.447a1.939,1.939,0,0,0-.508-1.34,1.887,1.887,0,0,0-2.778.2,4.166,4.166,0,0,0-.5,2.333v.293a4.219,4.219,0,0,0,.5,2.347A1.721,1.721,0,0,0,36.67,16.92Zm10.9,2.275a5.187,5.187,0,0,1-3.784-1.426,5.068,5.068,0,0,1-1.46-3.8V13.7a6.383,6.383,0,0,1,.615-2.847,4.515,4.515,0,0,1,1.743-1.934,4.893,4.893,0,0,1,2.573-.679,4.385,4.385,0,0,1,3.413,1.367,5.555,5.555,0,0,1,1.245,3.877v1.152H45.186a2.622,2.622,0,0,0,.825,1.66,2.5,2.5,0,0,0,1.743.625A3.046,3.046,0,0,0,50.3,15.738l1.387,1.553a4.237,4.237,0,0,1-1.719,1.4A5.639,5.639,0,0,1,47.568,19.2Zm-.322-8.682a1.764,1.764,0,0,0-1.362.569,2.946,2.946,0,0,0-.669,1.628h3.926v-.226a2.1,2.1,0,0,0-.508-1.457A1.819,1.819,0,0,0,47.246,10.514Zm8.867-2.08L56.2,9.654a3.689,3.689,0,0,1,3.037-1.416,3.066,3.066,0,0,1,2.5.986,4.6,4.6,0,0,1,.84,2.949V19H59.756V12.242a1.831,1.831,0,0,0-.391-1.3,1.749,1.749,0,0,0-1.3-.405,1.942,1.942,0,0,0-1.787,1.016V19H53.457V8.434ZM68.1,5.836v2.6H69.9V10.5H68.1v5.273a1.259,1.259,0,0,0,.225.84,1.128,1.128,0,0,0,.859.254,4.5,4.5,0,0,0,.83-.068v2.139A5.81,5.81,0,0,1,68.3,19.2q-2.969,0-3.027-3V10.5H63.73V8.434h1.543v-2.6ZM77.6,19a3.134,3.134,0,0,1-.283-.947A3.415,3.415,0,0,1,74.648,19.2a3.752,3.752,0,0,1-2.573-.9,2.89,2.89,0,0,1-1.021-2.266A2.986,2.986,0,0,1,72.3,13.453a6.144,6.144,0,0,1,3.6-.908h1.3v-.605a1.741,1.741,0,0,0-.376-1.172,1.479,1.479,0,0,0-1.187-.439,1.682,1.682,0,0,0-1.118.342,1.161,1.161,0,0,0-.405.938H71.289a2.835,2.835,0,0,1,.566-1.7,3.744,3.744,0,0,1,1.6-1.226,5.837,5.837,0,0,1,2.324-.444,4.611,4.611,0,0,1,3.1.981,3.433,3.433,0,0,1,1.147,2.759v4.58a5.052,5.052,0,0,0,.42,2.275V19Zm-2.334-1.963a2.431,2.431,0,0,0,1.152-.278,1.828,1.828,0,0,0,.781-.747V14.2H76.143q-2.119,0-2.256,1.465l-.01.166a1.13,1.13,0,0,0,.371.869A1.441,1.441,0,0,0,75.264,17.037Zm9.922-8.6V19.576a3.78,3.78,0,0,1-.928,2.72,3.526,3.526,0,0,1-2.676.972,5.738,5.738,0,0,1-1.4-.166V20.865a5.3,5.3,0,0,0,.889.088q1.279,0,1.279-1.357V8.434ZM82.129,5.7a1.39,1.39,0,0,1,.425-1.045,1.838,1.838,0,0,1,2.314,0A1.39,1.39,0,0,1,85.293,5.7a1.386,1.386,0,0,1-.435,1.055,1.81,1.81,0,0,1-2.295,0A1.386,1.386,0,0,1,82.129,5.7ZM92.256,19.2a5.187,5.187,0,0,1-3.784-1.426,5.068,5.068,0,0,1-1.46-3.8V13.7a6.383,6.383,0,0,1,.615-2.847A4.515,4.515,0,0,1,89.37,8.917a4.893,4.893,0,0,1,2.573-.679,4.385,4.385,0,0,1,3.413,1.367A5.555,5.555,0,0,1,96.6,13.482v1.152H89.873a2.622,2.622,0,0,0,.825,1.66,2.5,2.5,0,0,0,1.743.625,3.046,3.046,0,0,0,2.549-1.182l1.387,1.553a4.237,4.237,0,0,1-1.719,1.4A5.639,5.639,0,0,1,92.256,19.2Zm-.322-8.682a1.764,1.764,0,0,0-1.362.569,2.946,2.946,0,0,0-.669,1.628h3.926v-.226a2.1,2.1,0,0,0-.508-1.457A1.819,1.819,0,0,0,91.934,10.514Z" transform="translate(-3854 -14355.219)" fill="#12263f"/>
    <path id="Trazado_885413" data-name="Trazado 885413" d="M-26.727,0h-7.8V-1.547l3.68-3.922a9.078,9.078,0,0,0,1.121-1.445,2.322,2.322,0,0,0,.363-1.172,1.738,1.738,0,0,0-.383-1.191,1.382,1.382,0,0,0-1.094-.434,1.49,1.49,0,0,0-1.207.527A2.089,2.089,0,0,0-32.484-7.8H-34.75a3.729,3.729,0,0,1,.5-1.9,3.5,3.5,0,0,1,1.4-1.348,4.262,4.262,0,0,1,2.055-.488,4.036,4.036,0,0,1,2.73.844A2.985,2.985,0,0,1-27.094-8.3a3.825,3.825,0,0,1-.437,1.719,9.551,9.551,0,0,1-1.5,2.039L-31.617-1.82h4.891Zm1.719-5.594.656-5.781h6.375v1.883H-22.5l-.281,2.445a3.58,3.58,0,0,1,1.711-.43,3.279,3.279,0,0,1,2.547,1.008,4.026,4.026,0,0,1,.922,2.82,4.124,4.124,0,0,1-.465,1.973A3.281,3.281,0,0,1-19.4-.324a4.158,4.158,0,0,1-2.047.48,4.416,4.416,0,0,1-1.914-.418,3.4,3.4,0,0,1-1.395-1.176A3.2,3.2,0,0,1-25.3-3.164h2.234a1.669,1.669,0,0,0,.5,1.105,1.573,1.573,0,0,0,1.113.395,1.388,1.388,0,0,0,1.18-.551,2.551,2.551,0,0,0,.414-1.559,2.11,2.11,0,0,0-.477-1.484,1.749,1.749,0,0,0-1.352-.516,1.954,1.954,0,0,0-1.3.422l-.219.2Zm21.336.938h-8.091V-6.5h8.091ZM4.211-6.687h1.2a1.7,1.7,0,0,0,1.273-.43A1.574,1.574,0,0,0,7.1-8.258a1.392,1.392,0,0,0-.41-1.07,1.59,1.59,0,0,0-1.129-.383,1.666,1.666,0,0,0-1.086.355,1.137,1.137,0,0,0-.437.926H1.781a2.777,2.777,0,0,1,.48-1.6,3.2,3.2,0,0,1,1.344-1.105,4.485,4.485,0,0,1,1.9-.4,4.253,4.253,0,0,1,2.828.863A2.945,2.945,0,0,1,9.359-8.289a2.394,2.394,0,0,1-.477,1.438,3.1,3.1,0,0,1-1.25,1.008A2.826,2.826,0,0,1,9.066-4.812a2.8,2.8,0,0,1,.473,1.625A2.994,2.994,0,0,1,8.434-.758,4.445,4.445,0,0,1,5.508.156a4.214,4.214,0,0,1-2.785-.9A2.934,2.934,0,0,1,1.641-3.117H3.9a1.308,1.308,0,0,0,.48,1.047,1.771,1.771,0,0,0,1.184.406A1.779,1.779,0,0,0,6.824-2.09a1.47,1.47,0,0,0,.457-1.129q0-1.7-1.875-1.7h-1.2ZM11.43-5.594l.656-5.781h6.375v1.883H13.938l-.281,2.445a3.58,3.58,0,0,1,1.711-.43,3.279,3.279,0,0,1,2.547,1.008,4.026,4.026,0,0,1,.922,2.82,4.124,4.124,0,0,1-.465,1.973A3.281,3.281,0,0,1,17.039-.324a4.158,4.158,0,0,1-2.047.48,4.416,4.416,0,0,1-1.914-.418,3.4,3.4,0,0,1-1.395-1.176,3.2,3.2,0,0,1-.543-1.727h2.234a1.669,1.669,0,0,0,.5,1.105,1.573,1.573,0,0,0,1.113.395,1.388,1.388,0,0,0,1.18-.551,2.551,2.551,0,0,0,.414-1.559A2.11,2.11,0,0,0,16.1-5.258a1.749,1.749,0,0,0-1.352-.516,1.954,1.954,0,0,0-1.3.422l-.219.2Zm12.8-3.594a2.249,2.249,0,0,1,.68-1.7,2.465,2.465,0,0,1,1.781-.652,2.5,2.5,0,0,1,1.8.645,2.292,2.292,0,0,1,.68,1.746v.563a2.221,2.221,0,0,1-.68,1.7A2.491,2.491,0,0,1,26.7-6.25a2.507,2.507,0,0,1-1.793-.645,2.275,2.275,0,0,1-.684-1.738Zm1.5.6a1.053,1.053,0,0,0,.27.754.928.928,0,0,0,.707.285.885.885,0,0,0,.7-.289,1.119,1.119,0,0,0,.258-.773v-.578a1.1,1.1,0,0,0-.258-.758.9.9,0,0,0-.711-.289.906.906,0,0,0-.7.285,1.119,1.119,0,0,0-.266.793Zm3.938,5.8a2.22,2.22,0,0,1,.688-1.7,2.5,2.5,0,0,1,1.781-.645,2.525,2.525,0,0,1,1.793.637,2.279,2.279,0,0,1,.684,1.754v.563a2.237,2.237,0,0,1-.672,1.691,2.476,2.476,0,0,1-1.789.645,2.506,2.506,0,0,1-1.8-.648,2.265,2.265,0,0,1-.68-1.719Zm1.5.609a1.044,1.044,0,0,0,.281.734.917.917,0,0,0,.7.3q.953,0,.953-1.055v-.594a1.062,1.062,0,0,0-.266-.754.915.915,0,0,0-.7-.285.915.915,0,0,0-.7.285,1.1,1.1,0,0,0-.266.777ZM27.148-.852l-1.1-.594L31.6-10.336l1.1.594Z" transform="translate(-3489 -14336.923)" fill="#12263f"/>
    <path id="Trazado_885414" data-name="Trazado 885414" d="M-34.187-5.594l.656-5.781h6.375v1.883H-31.68l-.281,2.445a3.58,3.58,0,0,1,1.711-.43A3.279,3.279,0,0,1-27.7-6.469a4.026,4.026,0,0,1,.922,2.82,4.124,4.124,0,0,1-.465,1.973A3.281,3.281,0,0,1-28.578-.324a4.158,4.158,0,0,1-2.047.48,4.416,4.416,0,0,1-1.914-.418,3.4,3.4,0,0,1-1.395-1.176,3.2,3.2,0,0,1-.543-1.727h2.234a1.669,1.669,0,0,0,.5,1.105,1.573,1.573,0,0,0,1.113.395,1.388,1.388,0,0,0,1.18-.551,2.551,2.551,0,0,0,.414-1.559,2.11,2.11,0,0,0-.477-1.484,1.749,1.749,0,0,0-1.352-.516,1.954,1.954,0,0,0-1.3.422l-.219.2Zm16.5.891a5.763,5.763,0,0,1-.977,3.609A3.409,3.409,0,0,1-21.523.156,3.433,3.433,0,0,1-24.367-1.07a5.594,5.594,0,0,1-1.008-3.516V-6.68a5.687,5.687,0,0,1,.988-3.617,3.434,3.434,0,0,1,2.848-1.234A3.437,3.437,0,0,1-18.7-10.309,5.576,5.576,0,0,1-17.687-6.8Zm-2.258-2.3a4.165,4.165,0,0,0-.387-2.061,1.307,1.307,0,0,0-1.207-.645,1.284,1.284,0,0,0-1.176.614,3.9,3.9,0,0,0-.4,1.92v2.768a4.373,4.373,0,0,0,.379,2.068,1.29,1.29,0,0,0,1.215.676,1.268,1.268,0,0,0,1.2-.649A4.268,4.268,0,0,0-19.945-4.3ZM-3.672-4.656h-8.091V-6.5h8.091Zm13.32-5.458L5.25,0H2.867L7.273-9.555H1.617v-1.82H9.648ZM18.75-4.7a5.763,5.763,0,0,1-.977,3.609A3.409,3.409,0,0,1,14.914.156,3.433,3.433,0,0,1,12.07-1.07a5.594,5.594,0,0,1-1.008-3.516V-6.68a5.687,5.687,0,0,1,.988-3.617A3.434,3.434,0,0,1,14.9-11.531a3.437,3.437,0,0,1,2.844,1.223A5.576,5.576,0,0,1,18.75-6.8Zm-2.258-2.3a4.165,4.165,0,0,0-.387-2.061A1.307,1.307,0,0,0,14.9-9.711a1.284,1.284,0,0,0-1.176.614,3.9,3.9,0,0,0-.4,1.92v2.768A4.372,4.372,0,0,0,13.7-2.341a1.29,1.29,0,0,0,1.215.676,1.268,1.268,0,0,0,1.2-.649A4.268,4.268,0,0,0,16.492-4.3Zm7.734-2.182a2.249,2.249,0,0,1,.68-1.7,2.465,2.465,0,0,1,1.781-.652,2.5,2.5,0,0,1,1.8.645,2.292,2.292,0,0,1,.68,1.746v.563a2.221,2.221,0,0,1-.68,1.7A2.491,2.491,0,0,1,26.7-6.25a2.507,2.507,0,0,1-1.793-.645,2.275,2.275,0,0,1-.684-1.738Zm1.5.6a1.053,1.053,0,0,0,.27.754.928.928,0,0,0,.707.285.885.885,0,0,0,.7-.289,1.119,1.119,0,0,0,.258-.773v-.578a1.1,1.1,0,0,0-.258-.758.9.9,0,0,0-.711-.289.906.906,0,0,0-.7.285,1.119,1.119,0,0,0-.266.793Zm3.938,5.8a2.22,2.22,0,0,1,.688-1.7,2.5,2.5,0,0,1,1.781-.645,2.525,2.525,0,0,1,1.793.637,2.279,2.279,0,0,1,.684,1.754v.563a2.237,2.237,0,0,1-.672,1.691,2.476,2.476,0,0,1-1.789.645,2.506,2.506,0,0,1-1.8-.648,2.265,2.265,0,0,1-.68-1.719Zm1.5.609a1.044,1.044,0,0,0,.281.734.917.917,0,0,0,.7.3q.953,0,.953-1.055v-.594a1.062,1.062,0,0,0-.266-.754.915.915,0,0,0-.7-.285.915.915,0,0,0-.7.285,1.1,1.1,0,0,0-.266.777ZM27.148-.852l-1.1-.594L31.6-10.336l1.1.594Z" transform="translate(-3643.95 -14334.312)" fill="#12263f"/>
    <path id="Trazado_885415" data-name="Trazado 885415" d="M20,0H124.518a20,20,0,0,1,20,20V33.128a20,20,0,0,1-20,20H20a20,20,0,0,1-20-20V20A20,20,0,0,1,20,0Z" transform="translate(-3411.259 -14368.923)" fill="url(#linear-gradient-5)"/>
    <path id="Trazado_885416" data-name="Trazado 885416" d="M14,0H119.518a14,14,0,0,1,14,14V27.128a14,14,0,0,1-14,14H14a14,14,0,0,1-14-14V14A14,14,0,0,1,14,0Z" transform="translate(-3405.259 -14362.923)" fill="#fff"/>
    <path id="Trazado_885417" data-name="Trazado 885417" d="M-29.039,0H-31.3V-8.7l-2.7.836V-9.7l4.711-1.687h.242Zm5.992-6.687h1.2a1.7,1.7,0,0,0,1.273-.43,1.574,1.574,0,0,0,.414-1.141,1.392,1.392,0,0,0-.41-1.07A1.59,1.59,0,0,0-21.7-9.711a1.666,1.666,0,0,0-1.086.355,1.137,1.137,0,0,0-.437.926h-2.258a2.777,2.777,0,0,1,.48-1.6,3.2,3.2,0,0,1,1.344-1.105,4.485,4.485,0,0,1,1.9-.4,4.253,4.253,0,0,1,2.828.863A2.945,2.945,0,0,1-17.9-8.289a2.394,2.394,0,0,1-.477,1.438,3.1,3.1,0,0,1-1.25,1.008,2.826,2.826,0,0,1,1.434,1.031,2.8,2.8,0,0,1,.473,1.625,2.994,2.994,0,0,1-1.105,2.43A4.445,4.445,0,0,1-21.75.156a4.214,4.214,0,0,1-2.785-.9,2.934,2.934,0,0,1-1.082-2.375h2.258a1.308,1.308,0,0,0,.48,1.047,1.771,1.771,0,0,0,1.184.406,1.779,1.779,0,0,0,1.262-.426,1.47,1.47,0,0,0,.457-1.129q0-1.7-1.875-1.7h-1.2ZM-3.672-4.656h-8.091V-6.5h8.091ZM7.4,0H5.141V-8.7l-2.7.836V-9.7l4.711-1.687H7.4ZM18.508-8.352a2.646,2.646,0,0,1-.414,1.469,2.98,2.98,0,0,1-1.141,1.023,3.3,3.3,0,0,1,1.313,1.1,2.816,2.816,0,0,1,.484,1.645A2.981,2.981,0,0,1,17.719-.723a4.183,4.183,0,0,1-2.8.879A4.2,4.2,0,0,1,12.1-.727a2.974,2.974,0,0,1-1.039-2.391,2.834,2.834,0,0,1,.484-1.648,3.239,3.239,0,0,1,1.3-1.094,2.95,2.95,0,0,1-1.137-1.023,2.664,2.664,0,0,1-.41-1.469,2.948,2.948,0,0,1,.969-2.316,3.814,3.814,0,0,1,2.633-.863,3.839,3.839,0,0,1,2.629.855A2.937,2.937,0,0,1,18.508-8.352Zm-2.023,5.07a1.638,1.638,0,0,0-.43-1.187A1.532,1.532,0,0,0,14.9-4.914a1.529,1.529,0,0,0-1.148.441,1.635,1.635,0,0,0-.43,1.191,1.634,1.634,0,0,0,.422,1.172,1.537,1.537,0,0,0,1.172.445,1.533,1.533,0,0,0,1.152-.43A1.631,1.631,0,0,0,16.484-3.281ZM16.25-8.242A1.563,1.563,0,0,0,15.9-9.309a1.247,1.247,0,0,0-.992-.4,1.256,1.256,0,0,0-.984.391,1.553,1.553,0,0,0-.352,1.078,1.633,1.633,0,0,0,.352,1.094,1.23,1.23,0,0,0,.992.414,1.219,1.219,0,0,0,.988-.414A1.645,1.645,0,0,0,16.25-8.242Zm7.977-.945a2.249,2.249,0,0,1,.68-1.7,2.465,2.465,0,0,1,1.781-.652,2.5,2.5,0,0,1,1.8.645,2.292,2.292,0,0,1,.68,1.746v.563a2.221,2.221,0,0,1-.68,1.7A2.491,2.491,0,0,1,26.7-6.25a2.507,2.507,0,0,1-1.793-.645,2.275,2.275,0,0,1-.684-1.738Zm1.5.6a1.053,1.053,0,0,0,.27.754.928.928,0,0,0,.707.285.885.885,0,0,0,.7-.289,1.119,1.119,0,0,0,.258-.773v-.578a1.1,1.1,0,0,0-.258-.758.9.9,0,0,0-.711-.289.906.906,0,0,0-.7.285,1.119,1.119,0,0,0-.266.793Zm3.938,5.8a2.22,2.22,0,0,1,.688-1.7,2.5,2.5,0,0,1,1.781-.645,2.525,2.525,0,0,1,1.793.637,2.279,2.279,0,0,1,.684,1.754v.563a2.237,2.237,0,0,1-.672,1.691,2.476,2.476,0,0,1-1.789.645,2.506,2.506,0,0,1-1.8-.648,2.265,2.265,0,0,1-.68-1.719Zm1.5.609a1.044,1.044,0,0,0,.281.734.917.917,0,0,0,.7.3q.953,0,.953-1.055v-.594a1.062,1.062,0,0,0-.266-.754.915.915,0,0,0-.7-.285.915.915,0,0,0-.7.285,1.1,1.1,0,0,0-.266.777ZM27.148-.852l-1.1-.594L31.6-10.336l1.1.594Z" transform="translate(-3339 -14336.923)" fill="#12263f"/>
    <path id="Trazado_885418" data-name="Trazado 885418" d="M20,0h85a20,20,0,0,1,20,20V33a20,20,0,0,1-20,20H20A20,20,0,0,1,0,33V20A20,20,0,0,1,20,0Z" transform="translate(-3705.95 -14459.738)" fill="url(#linear-gradient-3)"/>
    <path id="Trazado_885419" data-name="Trazado 885419" d="M14,0h86a14,14,0,0,1,14,14V27a14,14,0,0,1-14,14H14A14,14,0,0,1,0,27V14A14,14,0,0,1,14,0Z" transform="translate(-3700.95 -14453.738)" fill="#fff"/>
    <g id="Grupo_1101591" data-name="Grupo 1101591" transform="translate(-4092.574 -25842.738)">
      <rect id="Rectángulo_402235-2" data-name="Rectángulo 402235" width="133" height="52.408" rx="20" transform="translate(533.574 11384)" fill="url(#linear-gradient-4)"/>
      <rect id="Rectángulo_402236-2" data-name="Rectángulo 402236" width="122" height="40.408" rx="14" transform="translate(539.565 11390)" fill="#fff"/>
    </g>
    <path id="Trazado_885420" data-name="Trazado 885420" d="M-23.461-1.437A4.068,4.068,0,0,1-25.25-.262a7.492,7.492,0,0,1-2.562.418A5.076,5.076,0,0,1-30.4-.488a4.3,4.3,0,0,1-1.719-1.871,6.585,6.585,0,0,1-.621-2.883v-.773a6.994,6.994,0,0,1,.574-2.949,4.248,4.248,0,0,1,1.656-1.906,4.771,4.771,0,0,1,2.535-.66,4.751,4.751,0,0,1,3.164.965,4.123,4.123,0,0,1,1.352,2.809h-2.281a2.268,2.268,0,0,0-.691-1.43,2.208,2.208,0,0,0-1.473-.453,2.078,2.078,0,0,0-1.82.9,4.724,4.724,0,0,0-.633,2.672v.727a4.5,4.5,0,0,0,.68,2.7,2.327,2.327,0,0,0,1.992.914A2.6,2.6,0,0,0-25.8-2.289V-4.25h-2.133V-5.977h4.477ZM-19.328,0h-2.266V-12h2.266Zm6.922-.859A2.831,2.831,0,0,1-14.719.156a2.67,2.67,0,0,1-2.074-.781,3.335,3.335,0,0,1-.73-2.289V-8.453h2.258v5.467q0,1.322,1.2,1.322a1.63,1.63,0,0,0,1.578-.8V-8.453h2.266V0h-2.125ZM-13.414-12h2.461l-2.164,2.422h-1.836ZM-5-1.664a1.481,1.481,0,0,0,1.016-.344,1.2,1.2,0,0,0,.406-.914h2.117A2.9,2.9,0,0,1-1.93-1.348,3.093,3.093,0,0,1-3.191-.238a3.949,3.949,0,0,1-1.77.395A3.67,3.67,0,0,1-7.82-1,4.56,4.56,0,0,1-8.867-4.18v-.148A4.508,4.508,0,0,1-7.828-7.445,3.627,3.627,0,0,1-4.977-8.609a3.555,3.555,0,0,1,2.543.9,3.2,3.2,0,0,1,.973,2.4H-3.578a1.551,1.551,0,0,0-.406-1.072,1.354,1.354,0,0,0-1.031-.412,1.36,1.36,0,0,0-1.191.575,3.333,3.333,0,0,0-.4,1.866v.235a3.375,3.375,0,0,0,.4,1.878A1.377,1.377,0,0,0-5-1.664ZM2.211,0H-.055V-8.453H2.211Zm-2.4-10.641a1.112,1.112,0,0,1,.34-.836,1.277,1.277,0,0,1,.926-.328A1.28,1.28,0,0,1,2-11.477a1.105,1.105,0,0,1,.344.836A1.108,1.108,0,0,1,2-9.8a1.283,1.283,0,0,1-.918.328A1.283,1.283,0,0,1,.16-9.8,1.108,1.108,0,0,1-.187-10.641ZM3.719-4.289a5.094,5.094,0,0,1,.887-3.148A2.877,2.877,0,0,1,7.031-8.609a2.589,2.589,0,0,1,2.039.922V-12h2.266V0H9.3L9.188-.9A2.657,2.657,0,0,1,7.016.156,2.869,2.869,0,0,1,4.621-1.02,5.258,5.258,0,0,1,3.719-4.289Zm2.258.168A3.337,3.337,0,0,0,6.391-2.3a1.349,1.349,0,0,0,1.2.634A1.511,1.511,0,0,0,9.07-2.548V-5.889a1.489,1.489,0,0,0-1.461-.884Q5.977-6.773,5.977-4.121ZM12.734-4.3a5.013,5.013,0,0,1,.484-2.242A3.546,3.546,0,0,1,14.613-8.07a4.069,4.069,0,0,1,2.113-.539A3.849,3.849,0,0,1,19.52-7.562a4.2,4.2,0,0,1,1.207,2.844l.016.578A4.418,4.418,0,0,1,19.656-1.02,3.775,3.775,0,0,1,16.742.156a3.793,3.793,0,0,1-2.918-1.172A4.5,4.5,0,0,1,12.734-4.2Zm2.258.16A3.16,3.16,0,0,0,15.445-2.3a1.5,1.5,0,0,0,1.3.638,1.5,1.5,0,0,0,1.281-.63,3.457,3.457,0,0,0,.461-2.015,3.128,3.128,0,0,0-.461-1.831,1.5,1.5,0,0,0-1.3-.649,1.474,1.474,0,0,0-1.281.646A3.516,3.516,0,0,0,14.992-4.144ZM26.711-2.336a.727.727,0,0,0-.41-.652,4.659,4.659,0,0,0-1.316-.426q-3.016-.633-3.016-2.562A2.323,2.323,0,0,1,22.9-7.855a3.766,3.766,0,0,1,2.441-.754,4.053,4.053,0,0,1,2.574.758,2.388,2.388,0,0,1,.965,1.969H26.625a1.092,1.092,0,0,0-.312-.8A1.322,1.322,0,0,0,25.336-7a1.351,1.351,0,0,0-.883.258.814.814,0,0,0-.312.656.7.7,0,0,0,.355.605,3.657,3.657,0,0,0,1.2.4,9.8,9.8,0,0,1,1.422.379A2.336,2.336,0,0,1,28.906-2.43a2.2,2.2,0,0,1-.992,1.871,4.28,4.28,0,0,1-2.562.715,4.47,4.47,0,0,1-1.887-.379,3.166,3.166,0,0,1-1.293-1.039A2.414,2.414,0,0,1,21.7-2.687h2.141a1.179,1.179,0,0,0,.445.922,1.766,1.766,0,0,0,1.109.32,1.635,1.635,0,0,0,.98-.246A.766.766,0,0,0,26.711-2.336Z" transform="translate(-3643.95 -14427.738)" fill="#12263f"/>
    <path id="Trazado_885421" data-name="Trazado 885421" d="M-24.926-1.883h4.977V0h-7.32V-11.375h2.344ZM-16.316,0h-2.258V-8.453h2.258Zm-.664-11.883h2.461l-2.164,2.422H-18.52ZM-6.762-4.148A5.07,5.07,0,0,1-7.648-1.02,2.843,2.843,0,0,1-10.043.156a2.633,2.633,0,0,1-2.07-.891V3.25h-2.258v-11.7h2.094l.078.828a2.654,2.654,0,0,1,2.141-.984,2.862,2.862,0,0,1,2.43,1.156,5.207,5.207,0,0,1,.867,3.188ZM-9.02-4.312a3.327,3.327,0,0,0-.418-1.82,1.361,1.361,0,0,0-1.215-.641,1.478,1.478,0,0,0-1.461.813V-2.5a1.5,1.5,0,0,0,1.477.836Q-9.02-1.664-9.02-4.312ZM-2.98,0H-5.246V-8.453H-2.98Zm-2.4-10.641a1.112,1.112,0,0,1,.34-.836,1.277,1.277,0,0,1,.926-.328,1.28,1.28,0,0,1,.922.328,1.105,1.105,0,0,1,.344.836A1.108,1.108,0,0,1-3.2-9.8a1.283,1.283,0,0,1-.918.328A1.283,1.283,0,0,1-5.031-9.8,1.108,1.108,0,0,1-5.379-10.641Zm3.906,6.352A5.094,5.094,0,0,1-.586-7.437,2.877,2.877,0,0,1,1.84-8.609a2.589,2.589,0,0,1,2.039.922V-12H6.145V0H4.105L4-.9A2.657,2.657,0,0,1,1.824.156,2.869,2.869,0,0,1-.57-1.02,5.258,5.258,0,0,1-1.473-4.289Zm2.258.168A3.337,3.337,0,0,0,1.2-2.3a1.349,1.349,0,0,0,1.2.634,1.511,1.511,0,0,0,1.477-.884V-5.889a1.489,1.489,0,0,0-1.461-.884Q.785-6.773.785-4.121ZM7.543-4.3a5.013,5.013,0,0,1,.484-2.242A3.546,3.546,0,0,1,9.422-8.07a4.069,4.069,0,0,1,2.113-.539,3.849,3.849,0,0,1,2.793,1.047,4.2,4.2,0,0,1,1.207,2.844l.016.578A4.418,4.418,0,0,1,14.465-1.02,3.775,3.775,0,0,1,11.551.156,3.793,3.793,0,0,1,8.633-1.016,4.5,4.5,0,0,1,7.543-4.2Zm2.258.16A3.16,3.16,0,0,0,10.254-2.3a1.5,1.5,0,0,0,1.3.638,1.5,1.5,0,0,0,1.281-.63,3.457,3.457,0,0,0,.461-2.015,3.128,3.128,0,0,0-.461-1.831,1.5,1.5,0,0,0-1.3-.649,1.474,1.474,0,0,0-1.281.646A3.516,3.516,0,0,0,9.8-4.144ZM21.52-2.336a.727.727,0,0,0-.41-.652,4.659,4.659,0,0,0-1.316-.426q-3.016-.633-3.016-2.562a2.323,2.323,0,0,1,.934-1.879,3.766,3.766,0,0,1,2.441-.754,4.053,4.053,0,0,1,2.574.758,2.388,2.388,0,0,1,.965,1.969H21.434a1.092,1.092,0,0,0-.312-.8A1.322,1.322,0,0,0,20.145-7a1.351,1.351,0,0,0-.883.258.814.814,0,0,0-.312.656.7.7,0,0,0,.355.605,3.657,3.657,0,0,0,1.2.4,9.8,9.8,0,0,1,1.422.379A2.336,2.336,0,0,1,23.715-2.43a2.2,2.2,0,0,1-.992,1.871A4.28,4.28,0,0,1,20.16.156a4.47,4.47,0,0,1-1.887-.379A3.166,3.166,0,0,1,16.98-1.262a2.414,2.414,0,0,1-.469-1.426h2.141a1.179,1.179,0,0,0,.445.922,1.766,1.766,0,0,0,1.109.32,1.635,1.635,0,0,0,.98-.246A.766.766,0,0,0,21.52-2.336Z" transform="translate(-3489 -14427.738)" fill="#12263f"/>
    <path id="Trazado_885422" data-name="Trazado 885422" d="M20,0H124.518a20,20,0,0,1,20,20V33.128a20,20,0,0,1-20,20H20a20,20,0,0,1-20-20V20A20,20,0,0,1,20,0Z" transform="translate(-3411.259 -14459.738)" fill="url(#linear-gradient-5)"/>
    <path id="Trazado_885423" data-name="Trazado 885423" d="M14,0H119.518a14,14,0,0,1,14,14V27.128a14,14,0,0,1-14,14H14a14,14,0,0,1-14-14V14A14,14,0,0,1,14,0Z" transform="translate(-3405.259 -14453.738)" fill="#fff"/>
    <path id="Trazado_885424" data-name="Trazado 885424" d="M-31.2-4.008V0h-2.344V-11.375h4.438a5.134,5.134,0,0,1,2.254.469,3.454,3.454,0,0,1,1.5,1.332,3.714,3.714,0,0,1,.523,1.965A3.266,3.266,0,0,1-25.98-4.973a4.767,4.767,0,0,1-3.168.965Zm0-1.9h2.094a2.059,2.059,0,0,0,1.418-.437,1.591,1.591,0,0,0,.488-1.25A1.876,1.876,0,0,0-27.7-8.945a1.839,1.839,0,0,0-1.359-.531H-31.2Zm12.578-.43a6.134,6.134,0,0,0-.812-.062,1.654,1.654,0,0,0-1.68.867V0h-2.258V-8.453h2.133l.063,1.008A2.092,2.092,0,0,1-19.3-8.609a2.366,2.366,0,0,1,.7.1Zm.453,2.031a5.013,5.013,0,0,1,.484-2.242A3.546,3.546,0,0,1-16.293-8.07a4.069,4.069,0,0,1,2.113-.539,3.849,3.849,0,0,1,2.793,1.047A4.2,4.2,0,0,1-10.18-4.719l.016.578A4.418,4.418,0,0,1-11.25-1.02,3.775,3.775,0,0,1-14.164.156a3.793,3.793,0,0,1-2.918-1.172A4.5,4.5,0,0,1-18.172-4.2Zm2.258.16A3.16,3.16,0,0,0-15.461-2.3a1.5,1.5,0,0,0,1.3.638,1.5,1.5,0,0,0,1.281-.63,3.457,3.457,0,0,0,.461-2.015,3.128,3.128,0,0,0-.461-1.831,1.5,1.5,0,0,0-1.3-.649,1.474,1.474,0,0,0-1.281.646A3.516,3.516,0,0,0-15.914-4.144Zm9.844-6.387v2.078h1.445V-6.8H-6.07v4.219a1.007,1.007,0,0,0,.18.672.9.9,0,0,0,.688.2,3.6,3.6,0,0,0,.664-.055V-.047a4.648,4.648,0,0,1-1.367.2,2.156,2.156,0,0,1-2.422-2.4V-6.8H-9.562V-8.453h1.234v-2.078ZM.523.156A4.15,4.15,0,0,1-2.5-.984,4.054,4.054,0,0,1-3.672-4.023v-.219A5.106,5.106,0,0,1-3.18-6.52,3.612,3.612,0,0,1-1.785-8.066,3.914,3.914,0,0,1,.273-8.609,3.508,3.508,0,0,1,3-7.516a4.444,4.444,0,0,1,1,3.1v.922H-1.383a2.1,2.1,0,0,0,.66,1.328,2,2,0,0,0,1.395.5,2.437,2.437,0,0,0,2.039-.945L3.82-1.367A3.389,3.389,0,0,1,2.445-.246,4.511,4.511,0,0,1,.523.156ZM.266-6.789a1.411,1.411,0,0,0-1.09.455,2.357,2.357,0,0,0-.535,1.3H1.781v-.181a1.681,1.681,0,0,0-.406-1.165A1.456,1.456,0,0,0,.266-6.789ZM7.719,0H5.461V-8.453H7.719ZM7.055-11.883H9.516L7.352-9.461H5.516Zm4.688,3.43.07.977a2.951,2.951,0,0,1,2.43-1.133,2.453,2.453,0,0,1,2,.789,3.682,3.682,0,0,1,.672,2.359V0H14.656V-5.406a1.465,1.465,0,0,0-.312-1.043A1.4,1.4,0,0,0,13.3-6.773a1.553,1.553,0,0,0-1.43.813V0H9.617V-8.453ZM23.523,0A2.507,2.507,0,0,1,23.3-.758a2.732,2.732,0,0,1-2.133.914,3,3,0,0,1-2.059-.719,2.312,2.312,0,0,1-.816-1.812,2.389,2.389,0,0,1,1-2.062,4.915,4.915,0,0,1,2.879-.727H23.2v-.484a1.393,1.393,0,0,0-.3-.937,1.183,1.183,0,0,0-.949-.352,1.345,1.345,0,0,0-.895.273.929.929,0,0,0-.324.75H18.477a2.268,2.268,0,0,1,.453-1.359,3,3,0,0,1,1.281-.98,4.669,4.669,0,0,1,1.859-.355,3.689,3.689,0,0,1,2.48.785,2.747,2.747,0,0,1,.918,2.207v3.664A4.041,4.041,0,0,0,25.8-.133V0ZM21.656-1.57a1.945,1.945,0,0,0,.922-.223,1.462,1.462,0,0,0,.625-.6V-3.844h-.844q-1.7,0-1.8,1.172l-.008.133a.9.9,0,0,0,.3.7A1.153,1.153,0,0,0,21.656-1.57Zm10.125-.766a.727.727,0,0,0-.41-.652,4.659,4.659,0,0,0-1.316-.426q-3.016-.633-3.016-2.562a2.323,2.323,0,0,1,.934-1.879,3.766,3.766,0,0,1,2.441-.754,4.053,4.053,0,0,1,2.574.758,2.388,2.388,0,0,1,.965,1.969H31.7a1.092,1.092,0,0,0-.312-.8A1.322,1.322,0,0,0,30.406-7a1.351,1.351,0,0,0-.883.258.814.814,0,0,0-.312.656.7.7,0,0,0,.355.605,3.657,3.657,0,0,0,1.2.4,9.8,9.8,0,0,1,1.422.379A2.336,2.336,0,0,1,33.977-2.43a2.2,2.2,0,0,1-.992,1.871,4.28,4.28,0,0,1-2.562.715,4.47,4.47,0,0,1-1.887-.379,3.166,3.166,0,0,1-1.293-1.039,2.414,2.414,0,0,1-.469-1.426h2.141a1.179,1.179,0,0,0,.445.922,1.766,1.766,0,0,0,1.109.32,1.635,1.635,0,0,0,.98-.246A.766.766,0,0,0,31.781-2.336Z" transform="translate(-3339 -14427.738)" fill="#12263f"/>
  </g>
</svg>
