<svg xmlns="http://www.w3.org/2000/svg" width="58" height="58" viewBox="0 0 58 58">
  <g id="img-9" transform="translate(-810.051 -10570.988)">
    <circle id="Elipse_11666" data-name="Elipse 11666" cx="29" cy="29" r="29" transform="translate(810.051 10570.988)" fill="#fcc59a"/>
    <g id="zapatos" transform="translate(819.14 10540.9)">
      <g id="Grupo_1102139" data-name="Grupo 1102139" transform="translate(0 39.049)">
        <path id="Trazado_882290" data-name="Trazado 882290" d="M57.49,64.424a7.069,7.069,0,0,0-3.625-2.575l-1.687-.522a4.836,4.836,0,0,1-3.1-2.894l-4.633-12a3.651,3.651,0,0,0-4.4-2.2h0a4.5,4.5,0,0,1-5.594-3.134l-.4-1.473a.778.778,0,0,0-.75-.572,9.924,9.924,0,0,0-9.776,8.216,4.954,4.954,0,0,0-1.23,8.157L29.66,62.1H21.97a.778.778,0,1,0,0,1.556h9.406l6.164,5.588a13.653,13.653,0,0,0,2.832,1.979H30.854a.778.778,0,0,0,0,1.556l23.867.02h.011a4.148,4.148,0,0,0,4.147-4.148,7.069,7.069,0,0,0-1.389-4.224Zm-4.084-1.089a5.53,5.53,0,0,1,3.863,4.535H51.856a17.919,17.919,0,0,1-9.149-2.522,35.248,35.248,0,0,0,6.7-3.819,6.417,6.417,0,0,0,2.315,1.284ZM42.994,46.99l.459,1.19-1.063.483a.778.778,0,1,0,.644,1.416l.98-.445.934,2.421-1.137.517a.778.778,0,1,0,.644,1.416l1.054-.479.965,2.5-.747.34a.778.778,0,1,0,.644,1.416l.665-.3.591,1.531a6.468,6.468,0,0,0,.729,1.372q-1.285.923-2.647,1.72L38.847,50.239a3.135,3.135,0,0,1,1.639-4.517A2.087,2.087,0,0,1,42.994,46.99Zm-15.531-4a5.621,5.621,0,0,1,1.469,8.427l-3.817-4.176a8.328,8.328,0,0,1,2.348-4.251Zm29.1,27.494a2.574,2.574,0,0,1-1.831.757h-.007l-8.055-.02a12.063,12.063,0,0,1-8.085-3.131L23.34,54.269a3.4,3.4,0,0,1,.94-5.636l7.712,8.437h0a.777.777,0,0,0,1.147-1.048h0l-3.149-3.445a7.178,7.178,0,0,0-1.25-10.609,8.338,8.338,0,0,1,3.973-1.34l.241.88a6.074,6.074,0,0,0,4.832,4.374,4.691,4.691,0,0,0-.286,5.139L44.349,62.84a33.557,33.557,0,0,1-3.2,1.47,17.811,17.811,0,0,1-2.5-2.259l-.791-.866a.778.778,0,1,0-1.148,1.049l.791.866a19.487,19.487,0,0,0,14.351,6.325h5.349a2.58,2.58,0,0,1-.644,1.057Z" transform="translate(-19.058 -39.049)" fill="#af886b"/>
        <path id="Trazado_882291" data-name="Trazado 882291" d="M26.825,452.689H21.377a.778.778,0,0,0,0,1.556h5.449a.778.778,0,0,0,0-1.556Z" transform="translate(-18.997 -420.518)" fill="#af886b"/>
        <path id="Trazado_882292" data-name="Trazado 882292" d="M3.69,394.823a.778.778,0,0,0-.778-.778H.778a.778.778,0,0,0,0,1.556H2.912A.778.778,0,0,0,3.69,394.823Z" transform="translate(0 -366.435)" fill="#af886b"/>
        <path id="Trazado_882293" data-name="Trazado 882293" d="M80.518,395.6a.778.778,0,0,0,0-1.556H75.55a.778.778,0,0,0,0,1.556Z" transform="translate(-68.957 -366.435)" fill="#af886b"/>
        <circle id="Elipse_11694" data-name="Elipse 11694" cx="0.778" cy="0.778" r="0.778" transform="translate(15.092 19.3)" fill="#af886b"/>
      </g>
    </g>
  </g>
</svg>
