<svg xmlns="http://www.w3.org/2000/svg" xmlns:xlink="http://www.w3.org/1999/xlink" width="166.61" height="281.079" viewBox="0 0 166.61 281.079">
  <defs>
    <clipPath id="clip-path">
      <rect id="Rect치ngulo_402096" data-name="Rect치ngulo 402096" width="137.145" height="100.776" transform="translate(-10)" fill="none"/>
    </clipPath>
    <clipPath id="clip-path-2">
      <rect id="Rect치ngulo_402104" data-name="Rect치ngulo 402104" width="25.896" height="53.879" transform="translate(0 0)" fill="none"/>
    </clipPath>
  </defs>
  <g id="Grupo_1102157" data-name="Grupo 1102157" transform="translate(10597.29 13511.561)">
    <path id="Trazado_874590" data-name="Trazado 874590" d="M137.183,45.315A49.165,49.165,0,1,1,83.166,1.538a49.164,49.164,0,0,1,54.017,43.777" transform="translate(-10619.787 -13461.292)" fill="#fff"/>
    <path id="Trazado_882297" data-name="Trazado 882297" d="M11.119,0A11.119,11.119,0,1,1,0,11.119,11.119,11.119,0,0,1,11.119,0Z" transform="translate(-10518.258 -13436.851)" fill="#fca675"/>
    <path id="Trazado_874591" data-name="Trazado 874591" d="M64.63,28.624c-1.983-8.891,1.318-16.09,7.58-22.041,8.231-7.822,21.442-8.717,31.25-2.457a26.482,26.482,0,0,1-.679,44.981c-1.2.718-2.445,1.355-3.816,2.11a24.164,24.164,0,0,0,.692,3.821c.154.463,1.072.872,1.687.95,2.887.363,5.8.537,8.685.9,6.137.766,12.262,1.629,18.4,2.4,2.526.32,5.065.549,7.6.756.952.077,1.361.354,1.316,1.417-.365,8.68-4,15.452-11.463,20.085-9.3,5.771-18.855,6.221-28.67,1.452a16,16,0,0,1-2.6-1.7c-.823-.622-1.569-1.347-2.378-2.052a3.745,3.745,0,0,0-.47.377c-7.371,7.928-16.612,10.143-26.918,8.406A31.651,31.651,0,0,1,42.179,72.719c-3.942-6.5-4.351-13.466-2.385-20.765A36.023,36.023,0,0,1,51.131,33.688c3.442-3,7.567-4.237,11.979-4.781.413-.051.829-.073,1.242-.126a.951.951,0,0,0,.278-.157m2.817,1.828C59.358,29.7,52.87,33.111,47.472,39.2c-3.769,4.25-5.453,9.432-6.772,14.738a23.389,23.389,0,0,0,4.32,20.658A30.9,30.9,0,0,0,66.783,86.969c7.868.9,15.16-.59,21.3-5.911a27.782,27.782,0,0,0,9.7-17.315c1.318-8.838-.554-16.657-6.859-23.327-6.359-6.724-14.109-9.9-23.479-9.964m31.169,19.2c1.449-.824,2.767-1.524,4.033-2.3a24.907,24.907,0,0,0,9.068-31.869C104.751.75,86.591-2.058,76,5.423,69.112,10.286,65.118,16.9,65.6,25.553c.228,4.039-.2,3.1,3.409,3.3a.781.781,0,0,0,.278-.1c.091-.714.137-1.433.282-2.129.656-3.151,1.965-3.984,5.1-3.238,1.517.362,3.03.752,4.524,1.2a8,8,0,0,1,1.449.771q-.114.319-.225.637c-1.476-.274-2.965-.487-4.423-.835-4.552-1.086-4.547-1.106-5.5,3.408-.016.08.063.18.148.4,11.572.843,20.032,6.848,26.181,16.554.826-.84,1.545-1.517,2.2-2.251a1.8,1.8,0,0,0-.1-2.858q-1.606-1.479-3.145-3.028c-.583-.584-1.105-1.228-1.654-1.845.453-.269.684-.288.8-.181a74.342,74.342,0,0,1,5.49,5.053,2.889,2.889,0,0,1,.193,2.675A27.121,27.121,0,0,1,97.48,46.91l1.135,2.739m1.3,7.291c-.056,7.036-1.31,13.642-5.733,19.6a38.488,38.488,0,0,0,5.384,3.588,27.656,27.656,0,0,0,13.96,2.584,7.875,7.875,0,0,1,1.957.319c-.056.217-.111.434-.166.651-7.975.735-15.4-.5-21.722-6.39a2.355,2.355,0,0,0,.086,1.646,5.368,5.368,0,0,0,1.495,1.345A28.1,28.1,0,0,0,108.9,84.924c8.3.75,21.7-4.766,25.446-15.412.913-2.59,1.366-5.341,2.039-8.061L99.915,56.939" transform="translate(-10619.912 -13461.627)" fill="#393351"/>
    <path id="Trazado_874592" data-name="Trazado 874592" d="M78.518,57.859a5.109,5.109,0,0,1,.558,1.027c.7,2.339,1.32,4.7,2.037,7.033a1.879,1.879,0,0,1-.694,2.29C73.8,73.8,62.191,74.519,54.134,67.136,42.07,56.082,47.736,39,57.948,33.228,62.439,30.693,67.1,28.79,72.34,29.84A21.486,21.486,0,0,1,78,32.281a2.16,2.16,0,0,1,.9,3.093c-1.081,2.3-2.1,4.629-3.176,6.933-.439.943-1.079.786-1.933.434-3.777-1.556-7.619-2.179-11.44-.159a10.275,10.275,0,0,0-5.8,10.1,10.085,10.085,0,0,0,6.271,9.168c4.654,2.106,9.3,2.267,13.48-1.228a18.864,18.864,0,0,0,2.218-2.759M78.258,34.2a11.459,11.459,0,0,0-5.95-2.916c-4.831-.856-9.1.757-13.25,3.017-10.034,5.465-15.1,21.609-3.979,31.75a18.66,18.66,0,0,0,23.782,1.506,1.838,1.838,0,0,0,.724-1.455c-.348-1.607-.9-3.17-1.374-4.743a2.047,2.047,0,0,0-.4.1,2.278,2.278,0,0,0-.389.257c-4.21,3.395-8.838,3.714-13.821,2.023a12.351,12.351,0,0,1-8.3-14.271,12.141,12.141,0,0,1,13.439-9.52c1.931.235,3.822.781,5.723,1.183l3.8-6.934" transform="translate(-10617.617 -13453.814)" fill="#393351"/>
    <path id="Trazado_874593" data-name="Trazado 874593" d="M83.161,47.081a14.151,14.151,0,0,1-.885-2.232,35.363,35.363,0,0,1-.516-3.83c-.024-.273.279-.577.432-.866a2.106,2.106,0,0,1,.631.348c.664.765,1.042,5.305.338,6.58" transform="translate(-10608.512 -13451.01)" fill="#393351"/>
    <path id="Trazado_874594" data-name="Trazado 874594" d="M81.839,55.23c.47-2.314.867-4.261,1.295-6.364,1.835,1.5,1.178,5.286-1.295,6.364" transform="translate(-10608.491 -13448.706)" fill="#393351"/>
    <path id="Trazado_874595" data-name="Trazado 874595" d="M78.829,50.683c.3-1.779.611-3.558.958-5.58a3.73,3.73,0,0,1-.408,5.7l-.55-.119" transform="translate(-10609.287 -13449.701)" fill="#393351"/>
    <path id="Trazado_874596" data-name="Trazado 874596" d="M102.639,37.432c.167-.57.295-1.157.507-1.709,1.969-5.13,2.811-10.435,1.082-15.705a23.346,23.346,0,0,0-4.32-7.642C94.6,6.122,87.859,3,79.466,4.126c-4.757.639-8.191,3.356-11.126,6.883-3.6,4.329-5.866,9.183-5.677,14.96a1.833,1.833,0,0,1-.058.771,4.66,4.66,0,0,1-.587.813c-.236-.283-.678-.569-.676-.851a25.411,25.411,0,0,1,.235-4.973A24.871,24.871,0,0,1,73.2,4.883c6.25-3.794,12.945-3.161,19.309-.2A25.045,25.045,0,0,1,104.721,17.35a19.578,19.578,0,0,1,1.216,12.38,65.945,65.945,0,0,1-1.988,6.681,5.3,5.3,0,0,1-.816,1.215l-.5-.195" transform="translate(-10613.913 -13461.032)" fill="#393351"/>
    <path id="Trazado_874597" data-name="Trazado 874597" d="M82.047,24.579c.722-.449,1.359-.867,2.018-1.248,3.314-1.917,6.7-3.717,9.924-5.776,1.85-1.182,1.921-2.1.693-3.912A14.643,14.643,0,0,0,87.761,7.8c-2.285-.864-3.925-.336-4.852,1.921-1.436,3.5-2.651,7.095-3.965,10.648-.185.5-.389.993-.584,1.488l-.615-.075a5.519,5.519,0,0,1,.027-1.754c1.371-3.86,2.679-7.751,4.277-11.517.929-2.194,3.353-2.932,5.737-2.084a16.112,16.112,0,0,1,8.532,7.407,2.985,2.985,0,0,1-.54,3.982,32.132,32.132,0,0,1-12.618,7.2,1.428,1.428,0,0,1-.612,0c-.082-.011-.149-.124-.5-.437" transform="translate(-10609.591 -13460.018)" fill="#393351"/>
    <path id="Trazado_874598" data-name="Trazado 874598" d="M78.482,20.554c0-.77-.058-1.544.011-2.308.215-2.381.486-4.757.721-7.135.336-3.4-.468-4.071-3.856-3.568-3.813.566-6.2,2.925-7.971,6.086a1.612,1.612,0,0,0,.29,1.467c1.369,1.415,2.873,2.7,4.26,4.1a6.407,6.407,0,0,1,.857,1.565c-.553-.143-1.253-.12-1.63-.458a56.117,56.117,0,0,1-4.886-4.783,2.641,2.641,0,0,1-.258-2.376A12.274,12.274,0,0,1,76.53,5.919c2.578-.2,4.137.958,4.012,3.5-.169,3.418-.631,6.821-1,10.227a3.247,3.247,0,0,1-.5.991l-.555-.086" transform="translate(-10612.719 -13460.067)" fill="#393351"/>
    <path id="Trazado_874599" data-name="Trazado 874599" d="M82.847,22.976a5.25,5.25,0,0,1,1.216-.764c3.384-.988,6.756-2.033,10.184-2.844,2.257-.532,3.162.186,3.673,2.442a16.337,16.337,0,0,1-1.186,9.9c-.876,2.162-1.7,2.5-3.93,1.778-2.117-.68-4.176-1.554-6.217-2.443-.45-.2-.713-.818-1.062-1.244a5.161,5.161,0,0,1,1.55.058c2.144.769,4.271,1.593,6.383,2.448a1.3,1.3,0,0,0,1.893-.775c1.35-3.157,2.113-6.4,1.243-9.846a1.478,1.478,0,0,0-2.034-1.122c-2.674.626-5.34,1.3-8,1.99-1.173.3-2.323.7-3.483,1.052l-.231-.626" transform="translate(-10608.225 -13456.549)" fill="#393351"/>
    <path id="Trazado_874600" data-name="Trazado 874600" d="M87.109,38.051,93.665,32.1c.077,2.635-4.377,6.628-6.556,5.946" transform="translate(-10607.098 -13453.138)" fill="#393351"/>
    <path id="Trazado_874601" data-name="Trazado 874601" d="M85.173,16.911c-.914.665-1.564,1.182-2.273,1.6-.085.049-.5-.46-.756-.711.636-.612,1.258-1.242,1.937-1.8a8.52,8.52,0,0,1,1.092.915" transform="translate(-10608.411 -13457.397)" fill="#393351"/>
    <path id="Trazado_874602" data-name="Trazado 874602" d="M82.71,15.715,80.318,17.48c-.177-.26-.558-.687-.5-.757.584-.719,1.239-1.382,1.874-2.06l1.019,1.052" transform="translate(-10609.027 -13457.749)" fill="#393351"/>
    <path id="Trazado_874603" data-name="Trazado 874603" d="M89.8,12.472c-.741.722-1.266,1.275-1.856,1.746a2.908,2.908,0,0,1-.754-.616,17.791,17.791,0,0,1,1.5-1.955c.019-.02.527.389,1.111.824" transform="translate(-10607.077 -13458.547)" fill="#393351"/>
    <path id="Trazado_874604" data-name="Trazado 874604" d="M88.5,22.715c-.353,1.8-1.419,1.673-2.444,1.493-.164-.028-.244-.551-.363-.846l2.807-.647" transform="translate(-10607.472 -13455.62)" fill="#393351"/>
    <path id="Trazado_874605" data-name="Trazado 874605" d="M74.3,15.021l-1.106.962a14.4,14.4,0,0,1-1.024-1.875c-.056-.14.445-.5.689-.759L74.3,15.021" transform="translate(-10611.05 -13458.098)" fill="#393351"/>
    <path id="Trazado_874606" data-name="Trazado 874606" d="M84.733,11.556c.339.746.69,1.191.589,1.355a13.506,13.506,0,0,1-1.349,1.621c-.235-.276-.726-.675-.663-.808a19.424,19.424,0,0,1,1.422-2.168" transform="translate(-10608.104 -13458.571)" fill="#393351"/>
    <path id="Trazado_874607" data-name="Trazado 874607" d="M75.672,9.82c-.465.655-.821,1.153-1.176,1.653-.238-.326-.719-.7-.665-.969a8.824,8.824,0,0,1,.79-1.819L75.672,9.82" transform="translate(-10610.61 -13459.33)" fill="#393351"/>
    <path id="Trazado_874608" data-name="Trazado 874608" d="M90.15,27.662c-.322.143-.745.486-.947.386a12.749,12.749,0,0,1-1.725-1.2c.254-.185.569-.569.754-.515a15.743,15.743,0,0,1,1.959.828c-.013.167-.027.333-.04.5" transform="translate(-10607 -13454.664)" fill="#393351"/>
    <path id="Trazado_874609" data-name="Trazado 874609" d="M79.929,23.944c-.357-1.57.573-1.95,1.435-2.344a.542.542,0,0,1,.587.886c-.645.522-1.343.979-2.022,1.458" transform="translate(-10609.017 -13455.922)" fill="#393351"/>
    <path id="Trazado_874610" data-name="Trazado 874610" d="M91.286,23.633c-.48-.42-.8-.694-1.111-.969a7.423,7.423,0,0,1,1.581-.984c.206-.07.617.465.933.725l-1.4,1.228" transform="translate(-10606.287 -13455.896)" fill="#393351"/>
    <path id="Trazado_874611" data-name="Trazado 874611" d="M89.822,24.883h3.093c-.842,1.5-1.941,1.529-3.093,0" transform="translate(-10606.381 -13455.048)" fill="#393351"/>
    <path id="Trazado_874612" data-name="Trazado 874612" d="M67.26,20.862l1.311,1.043c-.345.224-.745.682-1.024.618a5.427,5.427,0,0,1-1.455-.838l1.168-.823" transform="translate(-10612.655 -13456.11)" fill="#393351"/>
    <path id="Trazado_874613" data-name="Trazado 874613" d="M78.661,19.433c0,.813.04,1.63-.029,2.437-.016.2-.4.36-.608.539-.162-.23-.47-.469-.458-.69.046-.773.2-1.539.315-2.308l.78.023" transform="translate(-10609.621 -13456.494)" fill="#393351"/>
    <path id="Trazado_874614" data-name="Trazado 874614" d="M76.192,22.451c-.176-.955-.353-1.909-.578-3.129,1.493.853,1.723,1.75,1.089,3.033l-.511.1" transform="translate(-10610.137 -13456.518)" fill="#393351"/>
    <path id="Trazado_874615" data-name="Trazado 874615" d="M71.224,12.6l-.869.771a7.746,7.746,0,0,1-1.023-1.326c-.068-.138.382-.536.594-.814l1.3,1.369" transform="translate(-10611.8 -13458.658)" fill="#393351"/>
    <path id="Trazado_874616" data-name="Trazado 874616" d="M83.685,10.713c-.3-.6-.62-.972-.536-1.142a5.446,5.446,0,0,1,.915-1.084c.195.25.6.566.541.74a7.5,7.5,0,0,1-.92,1.486" transform="translate(-10608.148 -13459.382)" fill="#393351"/>
    <path id="Trazado_874617" data-name="Trazado 874617" d="M73.848,20.955c.536.322,1.081.63,1.586,1a3.823,3.823,0,0,1-.329.7l-1.693-.914.436-.784" transform="translate(-10610.719 -13456.086)" fill="#393351"/>
    <path id="Trazado_874618" data-name="Trazado 874618" d="M100.564,47.29a5.035,5.035,0,0,1,1.009,1.214c2.352,6.1,3.81,12.3,2.082,18.873a2.786,2.786,0,0,1-2.974,2.412,32.909,32.909,0,0,1-6.168-.644c-3.17-.741-6.11-3.891-4.561-7.986,1.744-4.611,3.758-9.121,5.667-13.669.109-.258.348-.462.876-.58a10.417,10.417,0,0,1-.379,1.8c-1.381,3.475-2.815,6.93-4.209,10.4-.33.817-.58,1.665-.869,2.5a4.76,4.76,0,0,0,3.376,6.226,32.649,32.649,0,0,0,6.153.73c1.033.068,1.637-.536,1.924-1.64,1.379-5.307.377-10.419-1.14-15.494-.389-1.3-.91-2.565-1.373-3.846l.585-.3" transform="translate(-10606.459 -13449.224)" fill="#393351"/>
    <path id="Trazado_874619" data-name="Trazado 874619" d="M100.711,48.73c2.112,4.245,2.742,8.946,3.8,13.36l1.428-.851c.192.45.655,1.029.516,1.323-.217.455-.843.716-1.4,1.139.374,1.51.971,1.8,2.281.6a27.41,27.41,0,0,0,6.928-9.865c.742-1.821.434-2.394-1.513-2.951-2.2-.628-4.457-1.022-6.657-1.634a28.062,28.062,0,0,1-3.227-1.326c.059-.207.12-.415.18-.622a3.439,3.439,0,0,1,1.1-.094c2.818.712,5.639,1.421,8.434,2.218,3.4.97,4.3,2.4,2.606,5.471a52.726,52.726,0,0,1-6.617,9.354c-2.213,2.509-4.1,1.831-4.931-1.407-1.173-4.576-2.252-9.176-3.358-13.768a3.886,3.886,0,0,1-.008-.875l.444-.07" transform="translate(-10603.625 -13448.993)" fill="#393351"/>
    <path id="Trazado_874620" data-name="Trazado 874620" d="M102.587,68.76c3.7-2.053,7.311-4.35,9.673-7.857,2.3-3.411,3.953-7.256,5.925-10.979.556,1.235-1.7,7.449-3.963,10.5-2.966,4-6.546,7.261-11.635,8.34" transform="translate(-10603.005 -13448.426)" fill="#393351"/>
    <path id="Trazado_874621" data-name="Trazado 874621" d="M96.046,47.041a17.267,17.267,0,0,1-.673,1.792c-2.047,4.08-4.126,8.144-6.175,12.223A4.809,4.809,0,0,1,86,64c-.5.1-1.092-.276-1.644-.432a9.637,9.637,0,0,0,1.208-.8,11.385,11.385,0,0,0,2.559-2.473c2.114-3.745,4.03-7.6,6.06-11.4a19.675,19.675,0,0,1,1.465-2.075l.4.217" transform="translate(-10607.825 -13449.246)" fill="#393351"/>
    <path id="Trazado_874622" data-name="Trazado 874622" d="M93.255,59.681c-.7-.818-.673-2.88.086-3.289.21-.113,1.008.287,1.03.5a2.557,2.557,0,0,1-1.116,2.785" transform="translate(-10605.606 -13446.721)" fill="#393351"/>
    <path id="Trazado_874623" data-name="Trazado 874623" d="M108.769,52.725c-.314.139-.773.484-.914.383-.745-.532-1.407-1.176-2.1-1.782.257-.183.62-.582.752-.516.814.4,1.575.913,2.356,1.386l-.095.529" transform="translate(-10602.167 -13448.194)" fill="#393351"/>
    <path id="Trazado_874624" data-name="Trazado 874624" d="M95.516,53.054c-.235-.125-.3-.138-.321-.174a2.276,2.276,0,0,1,.7-2.851c.1-.086.692.132.709.257a2.6,2.6,0,0,1-1.087,2.769" transform="translate(-10605.023 -13448.403)" fill="#393351"/>
    <path id="Trazado_874625" data-name="Trazado 874625" d="M97.238,57.117c1.359.51,1.873,1.754,1.275,2.59-.132.185-.44.407-.6.365-.253-.064-.62-.325-.641-.532-.077-.746-.03-1.5-.03-2.423" transform="translate(-10604.424 -13446.524)" fill="#393351"/>
    <path id="Trazado_874626" data-name="Trazado 874626" d="M106.226,54.788a15.84,15.84,0,0,1,1.09,2.348c.051.182-.525.536-.813.812a13.9,13.9,0,0,1-1.089-1.889c-.076-.187.353-.579.812-1.271" transform="translate(-10602.26 -13447.14)" fill="#393351"/>
    <path id="Trazado_874627" data-name="Trazado 874627" d="M98.153,54.45c-.167-.118-.394-.2-.393-.288.009-.81.057-1.62.094-2.43.309.068.81.047.893.223a1.712,1.712,0,0,1-.593,2.5" transform="translate(-10604.282 -13447.948)" fill="#393351"/>
    <path id="Trazado_874628" data-name="Trazado 874628" d="M95.438,62.773a1.689,1.689,0,0,1-.02-2.447c.135-.168.612-.059.931-.078l-.243,2.6-.668-.078" transform="translate(-10605.037 -13445.701)" fill="#393351"/>
    <path id="Trazado_874629" data-name="Trazado 874629" d="M103.674,51.257a10.362,10.362,0,0,1,.939,1.74c.068.2-.379.578-.592.874a14.881,14.881,0,0,1-1.1-1.687c-.091-.187.187-.553.3-.837l.456-.09" transform="translate(-10602.921 -13448.074)" fill="#393351"/>
    <path id="Trazado_874630" data-name="Trazado 874630" d="M97.526,55.457l-1.409,1.192c-.207-.358-.645-.778-.57-1.06a5.289,5.289,0,0,1,.894-1.4c.3.348.593.7,1.085,1.271" transform="translate(-10604.869 -13447.299)" fill="#393351"/>
    <path id="Trazado_874631" data-name="Trazado 874631" d="M90.765,47.171a5.99,5.99,0,0,1,.558.479c-.3.74-.594,1.483-.941,2.2a5.029,5.029,0,0,1-.738-.233l1.122-2.448" transform="translate(-10606.428 -13449.154)" fill="#393351"/>
    <g id="Grupo_1100972" data-name="Grupo 1100972" transform="translate(-10557.825 -13331.257)" clip-path="url(#clip-path)">
      <path id="Trazado_874716" data-name="Trazado 874716" d="M119.26,17.845a11.838,11.838,0,0,0-3.184-2.62,12.044,12.044,0,0,0-10.757-.514,12.891,12.891,0,0,0-1.807-1.726A11.951,11.951,0,0,0,91.825,11.1a13.056,13.056,0,0,0-9.538,2.389,12.138,12.138,0,0,0-5.019,10.954,11.236,11.236,0,0,0-1.806,1.2q-2.908-1.351-5.811-2.715a14.548,14.548,0,0,0-12.5-.075c-.364.159-.728.315-1.093.471a15.229,15.229,0,0,0-2.239-3.819c-.535-.671-1.078-1.337-1.62-2-1.2-1.474-2.329-2.866-3.347-4.252-.707-.963-1.409-1.789-2.031-2.517-.445-.523-1.038-1.219-1.279-1.589a11.027,11.027,0,0,0-5.386-7.755A11.247,11.247,0,0,0,30.283.885l-.566.213C26.146,2.444,22.455,3.835,18.8,5.356c-5.923,2.463-8.56,6.288-8.371,12.343-2.293,3.382-4.631,6.88-6.972,10.43a13.124,13.124,0,0,0-2.164,7.21c.006,1.378.071,2.662.134,3.9.018.361.032.722.049,1.082A9.909,9.909,0,0,0,0,45.761l.01.417A9.93,9.93,0,0,0,3.3,53.333c.159,1.857.319,3.716.466,5.575.11,1.372.2,2.746.3,4.118.118,1.725.236,3.448.381,5.16a11.034,11.034,0,0,0,.17,1.2,9.972,9.972,0,0,0,9.972,9.9c.431,0,.854,0,1.268.011.828.011,1.738.023,2.7,0a21.292,21.292,0,0,0,12.458,5.859,18.955,18.955,0,0,0,7.852-.775,20.631,20.631,0,0,0,7.654,1.395,26.177,26.177,0,0,0,2.75-.15,19.725,19.725,0,0,0,12.65-6.437c1.367-.113,2.821-.228,4.4-.344,10.207,3.673,20.157,2.472,28.931-3.5a37.615,37.615,0,0,0,6.224.652,10.9,10.9,0,0,0,9.676-4.438c.069-.095.14-.2.212-.3l.088-.061a12.09,12.09,0,0,0,5.3-10.536,11.262,11.262,0,0,0-.465-2.586,15.016,15.016,0,0,0,.61-2.338,56.453,56.453,0,0,0,.683-8.668l.012-1.044a17.878,17.878,0,0,1,.112-2.389c.138-.312.253-.617.354-.918.664-.377,1.345-.773,2.029-1.194a14.672,14.672,0,0,0,6.986-11.212,11.555,11.555,0,0,0-7.81-12.462" transform="translate(0 0)" fill="#fff"/>
      <circle id="Elipse_11562" data-name="Elipse 11562" cx="8.139" cy="8.139" r="8.139" transform="translate(26.397 35.247)" fill="#87de87"/>
      <path id="Trazado_874717" data-name="Trazado 874717" d="M5.966,41.429c0-1.211.032-2.354-.006-3.494-.068-2.034-.226-4.066-.237-6.1a3.516,3.516,0,0,1,.571-1.844q4.487-6.8,9.075-13.537a2.52,2.52,0,0,0,.551-2.315,4.678,4.678,0,0,1-.078-.834c-.344-2.99-.389-3.1,2.363-4.242,4.053-1.687,8.166-3.227,12.275-4.777,1.412-.532,1.918-.346,2.175,1.092.662,3.69,3.49,5.954,5.525,8.727,1.818,2.475,3.809,4.824,5.728,7.225a5.727,5.727,0,0,1,1.267,3.9c-.069,2-.162,3.992-.221,5.988-.028.978,0,1.959,0,3.063a8.431,8.431,0,0,0,.87-.221c4.908-1.925,9.865-3.74,14.693-5.85a5.158,5.158,0,0,1,4.684-.044c5.486,2.585,11,5.113,16.5,7.671.492.228.858.514.2,1.03a1.468,1.468,0,0,0-.386.74c-.793,2.84-1.62,5.674-2.338,8.534-.735,2.928-1.441,5.871-1.975,8.842-.135.752.434,1.631.778,2.778.9-1,1.649-1.706,2.238-2.525A30.743,30.743,0,0,0,84.6,46.757a6.268,6.268,0,0,0-.156-3.119c-.365-2.485-.675-4.98-1.086-7.458-.2-1.216-.646-2.393-.847-3.608-.263-1.587.259-2.814,1.171-3.114.891-.293,2.043.456,2.8,1.832.189.346.35.707.6,1.215.487-.634.8-1.356,1.348-1.694A8,8,0,0,0,91.3,27.5a2.421,2.421,0,0,0,.267-2.438c-.51-1.125-1.067-2.227-1.583-3.348a9.585,9.585,0,0,1-.663-1.662c-.3-1.2-.4-2.412.785-3.257a3.078,3.078,0,0,1,3.8-.156,1.6,1.6,0,0,0,2.2-.1c1.258-.867,2.671-1.788,4.161-.612,1.408,1.111,1.232,2.808.7,4.211A24.765,24.765,0,0,1,98.5,24.483c-.578.905-1.283,1.669-.581,2.87.3.518.162,1.28.4,1.856.869,2.068,1.816,4.1,2.836,6.381,1.447-.764,2.6-1.365,3.745-1.979,3.128-1.677,4.53-4.449,5.043-7.83.288-1.894.587-3.819,1.976-5.306a5.219,5.219,0,0,1,1.359-1.139,2.173,2.173,0,0,1,3.271,1.763,1.287,1.287,0,0,0,1.178,1.357c.86.173,1.738.256,2.593.439a1.849,1.849,0,0,1,1.722,2.3,5.3,5.3,0,0,1-2.514,4.151c-1.395.856-2.834,1.642-4.272,2.425a7.567,7.567,0,0,0-3.756,3.989c-.064.175-.383.43-.481.389-.825-.335-1.627-.728-2.435-1.107-.067-.032-.142-.134-.185-.119-1.722.613-1.239-.738-1.322-2.032-2.887,3.864-7.564,3.594-10.593,6.145A7.337,7.337,0,0,1,95.4,41.27C93.673,42.923,91.781,44.4,90.009,46a2.024,2.024,0,0,0-.514,1.292c-.19,3.587-.262,7.182-.52,10.762a22.622,22.622,0,0,1-1.01,3.87c.961-.321,1.808-.543,2.607-.882,2.612-1.114,2.6-1.128,2.051-3.885a11.156,11.156,0,0,1-.258-2.013c-.023-2.009.895-2.617,2.843-1.771.092-.8.13-1.577.28-2.329a12.882,12.882,0,0,1,.725-2.758,1.6,1.6,0,0,1,3-.263,16.872,16.872,0,0,1,1.24,3.1,19.358,19.358,0,0,1,1.5-1.255,8.31,8.31,0,0,1,1.958-1.122c1.443-.492,2.294.331,1.919,1.81-.184.724-.494,1.417-.781,2.216,1.079.254,2.7-.112,2.617,1.547A10.6,10.6,0,0,1,106.5,57.39a21.753,21.753,0,0,1,2.683,1.07c1.872,1.02,2,2.647.269,3.871a21.794,21.794,0,0,1-2.967,1.5c.489,1.345.223,1.811-1.312,1.762A20.891,20.891,0,0,1,95.7,63.529c-1.044.914-2.019,1.912-3.131,2.72-7.468,5.429-15.478,6.073-23.936,2.63a3.44,3.44,0,0,0-1.493-.253c-3.7.267-7.4.556-11.1.907a1.725,1.725,0,0,0-1,.818c-2.052,3.246-4.842,5.47-8.725,5.884-3.606.383-7.022-.206-9.7-3.006a2.536,2.536,0,0,0-.368-.275c-4.224,4.931-13.523,3.314-17.555-4.131-1.449.8-3.018.287-4.533.372-1.549.086-3.107.019-4.793.019M21.431,51.206c2.2-.635,2.2-.634,3.723,1.083a.93.93,0,0,0,.376.269c2.021.669,4.045,1.328,6.074,1.99,1.32-3.818,6.313-5.878,9.157-3.639.251-.178.512-.358.77-.545A16.034,16.034,0,0,1,48.479,47.3a5.411,5.411,0,0,1,5.675,2.234c.346.478.664.976,1.036,1.526.248-.144.445-.268.65-.376a3.658,3.658,0,0,1,5.147,1.735c1.653,4.056.3,7.685-3.3,8.582L56.3,68.7l10.063-1.092c-.364-.427-.512-.608-.667-.784-4.4-4.987-2.342-12.4,1.884-15.4.533-.378,1.1-.753,1.787-.18-3.055,2.332-3.634,3.119-4.687,6.332-1.284,3.918.344,8.439,3.886,10.066A22.28,22.28,0,0,0,90.036,66.7a10.649,10.649,0,0,0,4.752-4.755,3.179,3.179,0,0,0,.088-1.015,2.818,2.818,0,0,0-1.006-.046c-.9.309-1.791.678-2.664,1.071A11.215,11.215,0,0,1,76.146,56.03a9.64,9.64,0,0,0-.434-.986c-1.093-1.976-2.267-3.846-4.982-3.572-.122.012-.26-.133-.755-.405a7.528,7.528,0,0,1,1.538-.593c2.417-.264,3.573,1.52,4.773,3.185.567-2.361,1.005-4.625,1.672-6.819a3.946,3.946,0,0,0-.886-3.652,1.326,1.326,0,0,0-2.247-.04,3.622,3.622,0,0,0-.08,4.245,3.738,3.738,0,0,1,.324.994c-.365-.135-.846-.168-1.077-.424a4.63,4.63,0,0,1,.166-5.545,2.3,2.3,0,0,1,3.795.226c.305.4.537.865.96,1.558.54-2.009,1.014-3.774,1.513-5.629a6.194,6.194,0,0,0-.708,0C74,39.5,68.289,40.439,62.569,41.336A1.565,1.565,0,0,0,61.2,42.419a6.392,6.392,0,0,1-5.324,4.112c-2.435.3-4.277-.963-5.909-2.619a1.447,1.447,0,0,0-.952-.5q-7.26.8-14.507,1.722a2.071,2.071,0,0,0-1.286.815,3.841,3.841,0,0,1-6.3.59,1.048,1.048,0,0,0-.686-.331c-1.939.14-3.874.323-5.906.5.381,1.558.73,2.983,1.1,4.492M56.2,60.9a20.323,20.323,0,0,0-2.318-9.434c-1.334-2.72-3.058-3.488-5.989-2.77-5.571,1.365-9.039,5.15-11.408,10.119a2.335,2.335,0,0,0,.071,1.686c1.5,3.624,2.261,7.244.428,11.005-.131.269.133.893.4,1.168,2.887,2.956,10.006,3.994,14.351-.161,3.19-3.051,4.556-6.858,4.464-11.614m-.443-19.644L81.069,37.17c.013-.158.027-.316.039-.476-1.732-.863-3.46-1.732-5.2-2.575-.14-.068-.363.047-.548.06a19.751,19.751,0,0,1-3.5.186,1.933,1.933,0,0,1-1.787-2.286.989.989,0,0,0-.744-1.152,35.267,35.267,0,0,1-4.194-1.75c-1.936-1.1-3.473-.269-5.072.6.326,2.131-.045,2.859-1.895,3.809-2.5,1.283-4.266,1.062-6.122-.819-4.681,1.854-9.394,3.716-14.1,5.6-.223.09-.378.36-.551.557a15.483,15.483,0,0,1-2.488,2.77,5.231,5.231,0,0,1-5.027.594,2.432,2.432,0,0,0-1.617-.108C25.71,43.216,23.2,44.35,20.675,45.46a4.224,4.224,0,0,0-.63.483c2.148-.247,4.05-.459,5.95-.685q9.159-1.086,18.318-2.178a1.977,1.977,0,0,0,2.012-1.417,6.081,6.081,0,0,1,5.595-3.82c2.183.012,3.356,1.23,3.836,3.412m-26.1,33.368a6.032,6.032,0,0,0,5.288-2.139,8.587,8.587,0,0,0,1.886-6.039A13.05,13.05,0,0,0,31.06,56.071a12.668,12.668,0,0,0-10.589-2.1,3.557,3.557,0,0,0-3.079,3.569A19.632,19.632,0,0,0,20.641,69.7a10.281,10.281,0,0,0,9.012,4.923m-12.1-59.07c4.639,4.616,8.01,9.682,11.3,14.914,4.7-2.411,9.274-4.757,13.846-7.11.313-.161.6-.368.989-.609-.359-.538-.657-1.049-1.016-1.513-1.415-1.83-2.834-3.658-4.279-5.464-1.67-2.088-3.346-4.171-5.077-6.207a1.452,1.452,0,0,0-1.247-.443c-4.754,2.057-9.478,4.183-14.518,6.431m-.411,49.034c-.23-1.005-.518-2-.672-3.01-.162-1.061-.118-2.155-.3-3.212a4.042,4.042,0,0,1,1.666-4.312c.831-.589,1.76-1.039,2.651-1.555-.406-3.56-.892-5.267-2.012-6.936.346-.195.675-.408,1.026-.573,2.093-.991,4.2-1.946,6.274-2.982a1.386,1.386,0,0,0,.66-1.033,5.64,5.64,0,0,0-4.908-5.5,18.838,18.838,0,0,0-5.423.383,5.768,5.768,0,0,0-5.042,5.6,98.674,98.674,0,0,0-.078,11.586,52.063,52.063,0,0,0,1.583,8.924c.473,1.94,2.433,2.9,4.574,2.617m1.266,3.621c-.344-1.043-.629-1.9-.912-2.757A4.923,4.923,0,0,1,11.6,62.345a14.517,14.517,0,0,1-.742-2.524A64.164,64.164,0,0,1,9.889,42.3c.4-4.072,2.2-6.594,5.849-7.369a23.652,23.652,0,0,1,6.046-.253c2.595.133,4.182,1.78,5.132,4.082.316.768.52,1.581.8,2.452l.924-.392c-.161-2.952-.315-5.81-.46-8.49H6.527c.2,3.1.341,5.967.566,8.824.415,5.254.9,10.5,1.316,15.754.27,3.383.455,6.773.74,10.155.034.4.45,1.092.7,1.1,2.787.079,5.578.05,8.553.05M16.878,16.741l-.316-.1L6.9,30.784c2.7-1.732,5.261-3.571,7.851-5.368a3.159,3.159,0,0,1,1.132-.251,3.3,3.3,0,0,1-.533,1.044,19.5,19.5,0,0,1-1.93,1.415Q10.8,29.441,8.159,31.243l.08.215,19.489-.364c-1.123-3.011-8.395-12.908-9.947-13.607-.161,1.956-.3,3.9-.5,5.848-.023.234-.319.441-.489.66-.141-.214-.4-.425-.4-.643a20.472,20.472,0,0,1,.1-2.149c.119-1.488.258-2.976.388-4.462m27.4,7.161c-5.009,2.492-9.731,4.819-14.415,7.219a1.7,1.7,0,0,0-.647,1.344c.111,2.585.329,5.165.516,7.835a9.29,9.29,0,0,0,.9-.24q5.577-2.185,11.15-4.386c2.053-.812,2.042-.821,2.014-2.984-.006-.517.04-1.037.069-1.555.133-2.344.269-4.688.415-7.233M87.343,40.8c-.1.051-.209.1-.313.155-.684,2.854-1.367,5.708-2.057,8.593.6.477,1.852.13,2.086,1.586a10.188,10.188,0,0,1-1.307-.357c-.9-.391-1.423-.315-1.964.7a18.96,18.96,0,0,1-5.287,6.77c.295.342.505.628.757.873,1.726,1.666,3.986,2.084,6.191,2.63a1.293,1.293,0,0,0,1.827-1.09,23.975,23.975,0,0,0,.913-3.7c.24-4.023.432-8.058.385-12.085-.016-1.364-.8-2.72-1.23-4.078m28.915-17.544c.2.837.377,1.54.523,2.247a3.02,3.02,0,0,1-.01.662c-.254-.023-.641.047-.735-.086a3,3,0,0,1-.634-1.352c-.067-.908.141-1.836.057-2.739-.055-.6-.284-1.493-.682-1.659a1.843,1.843,0,0,0-1.71.553,11.864,11.864,0,0,0-1.734,3.716,21.831,21.831,0,0,1-2.657,7.506,3.486,3.486,0,0,0-.3,1.161,5.087,5.087,0,0,1,1.183.669.906.906,0,0,0,1.575-.088,13.869,13.869,0,0,1,4.83-3.83q1.486-.772,2.932-1.621a4.255,4.255,0,0,0,2.035-3.091,1.06,1.06,0,0,0-1.025-1.412c-1.1-.151-2.183-.376-3.65-.635M96.1,60.6c.9-.178,1.675-.377,2.46-.475a10.7,10.7,0,0,0,7.4-4.408,5.776,5.776,0,0,0,.574-1.391,6.776,6.776,0,0,0-1.425-.3c-1.426.007-1.733-.43-1.157-1.74.34-.775.649-1.563.972-2.345l-.291-.26a5.787,5.787,0,0,0-1.34.578c-.821.628-1.546,1.381-2.363,2.015a6.444,6.444,0,0,1-1.307.616,10.616,10.616,0,0,1-.494-1.273,18.464,18.464,0,0,0-.646-2.755c-.357-.832-1-.778-1.347.057a7.6,7.6,0,0,0-.5,1.957c-.376,2.911-.155,5.937-1.791,8.52L96.1,60.6M93.888,27.082c1.07-.521,2.028-.692,2.477-1.264a29.782,29.782,0,0,0,3.126-4.8,8.021,8.021,0,0,0,.668-3.309A1.219,1.219,0,0,0,98.5,16.481a18.528,18.528,0,0,0-2.7,1.2l.113.426a7.27,7.27,0,0,1,1.109.119,2.3,2.3,0,0,1,.613.4c-.167.2-.346.567-.5.556a4.934,4.934,0,0,1-1.8-.355c-.668-.33-1.206-.913-1.845-1.314a2.33,2.33,0,0,0-2.7.037c-.879.591-.689,1.452-.472,2.268a9.145,9.145,0,0,0,.582,1.434c.562,1.228,1.112,2.463,1.717,3.67.364.727.821,1.407,1.266,2.155m-.959,8.728,3.1-.118V37.6l4.23-2.087a6.882,6.882,0,0,0-.673-1.146,10.759,10.759,0,0,1-2.372-5.9,1.172,1.172,0,0,0-1.923-.953,5.735,5.735,0,0,0-.885.784c-.467.409-.851.419-1.076-.246-.084-.248-.163-.5-.245-.751-1.648.563-2.5,3.227-2.077,6.252,1.8-.276,2.051.045,1.917,2.255M32.362,7.56c-.221-.617-.449-1.132-.589-1.67-.174-.672-.526-.807-1.145-.559-4.48,1.8-8.968,3.579-13.441,5.4a.994.994,0,0,0-.528.753c.1,1.1.3,2.189.466,3.263,5.083-2.4,10.117-4.772,15.237-7.186m57.373,23.7-.4-.069c-.475.716-.922,1.451-1.434,2.137a7.649,7.649,0,0,1-.968.922c-.234-.341-.492-.667-.7-1.025-.452-.787-.835-1.619-1.335-2.372A1.009,1.009,0,0,0,84,30.5a1.125,1.125,0,0,0-.5.857,7.511,7.511,0,0,0,.151,1.895c.447,2.148.964,4.28,1.4,6.429a23.388,23.388,0,0,1,.248,2.413,6.129,6.129,0,0,0,.452-1.485c.158-.449.433-1.082.783-1.177s.961.267,1.284.6A14.726,14.726,0,0,1,89.158,41.9c1.084-2.458,2.394-4.67,2.659-7.287a5.646,5.646,0,0,0-1.06.633,5.718,5.718,0,0,1-1.043.354,3.883,3.883,0,0,1-.183-1.1c.08-.671.332-1.32.4-1.991a4.756,4.756,0,0,0-.2-1.247m15.441,33.43c-1.056-1.516-.91-1.715.727-2.1a12.727,12.727,0,0,0,3.038-1.243,1.39,1.39,0,0,0,.459-1.19c-.112-.666-3.4-2.115-4.064-1.889a.966.966,0,0,0-.293.2,11.38,11.38,0,0,1-8.75,2.877c-.54.834-.543,1.374.422,1.742a27.562,27.562,0,0,0,8.462,1.6M57.74,59.867a6.978,6.978,0,0,0,1.353-.748,5.38,5.38,0,0,0,.621-6.965,2.772,2.772,0,0,0-3.453-.656,1.272,1.272,0,0,0-.507,1.02c.6,2.413,1.286,4.8,1.986,7.349m-22.634-1.7c1.593-2.27,3.111-4.434,4.766-6.791a4.153,4.153,0,0,0-1.524-.493,8.174,8.174,0,0,0-4.976,2.356,2.2,2.2,0,0,0-.445,2.7c.7.753,1.442,1.475,2.18,2.225M60.347,41.7,50.268,43.125c1.8,1.961,3.7,2.969,6.056,2.339A5.734,5.734,0,0,0,60.347,41.7m29.195,3.838,5.868-5.421c-2.965-1.245-.145-2.456-.386-3.688-1.481.381-2.839.716-3.352,2.525a8.543,8.543,0,0,1-1.817,3.58c-.91.937-.791,1.655-.314,3M54.617,41.327a2.409,2.409,0,0,0-1.724-2.333,4.933,4.933,0,0,0-5.685,3.573l7.409-1.24m-1.631-8.922c1.222,1.235,3.331,1.135,5.093-.1.75-.525,1.2-1.121.6-2.144l-5.7,2.244M93.726,53.932c-.818,1.529.021,2.889.284,4.291,1.273-2.053,1.417-3.664-.284-4.291m-58-14.712-5.349,2.1a4.907,4.907,0,0,0,5.349-2.1m-3.649,6.227-4.563.615a2.861,2.861,0,0,0,4.563-.615m41.951-12.37-3.131-1.37c.348,1.571,1.163,1.944,3.131,1.37" transform="translate(1.242 0.872)" fill="#393351"/>
      <path id="Trazado_874718" data-name="Trazado 874718" d="M89.552,51.7a4.758,4.758,0,0,1,.484-1.368C91.814,48,92.021,45.243,92.16,42.49c.107-2.11-.049-4.234.074-6.342a22.476,22.476,0,0,1,.717-4.224,9.525,9.525,0,0,1,1.1-2.047l.405.09a2.6,2.6,0,0,1-.017.988c-1.161,2.565-1.019,5.279-1.069,8a51.73,51.73,0,0,1-.593,7.856,16.149,16.149,0,0,1-1.931,4.3c-.179.349-.662.543-1.005.808l-.285-.212" transform="translate(19.433 6.484)" fill="#393351"/>
      <path id="Trazado_874719" data-name="Trazado 874719" d="M86.555,33.647c.3.5.664.882.59,1.008a4.235,4.235,0,0,1-.91.858c-.19-.252-.581-.559-.528-.742.1-.348.448-.624.848-1.123" transform="translate(18.598 7.302)" fill="#393351"/>
      <path id="Trazado_874720" data-name="Trazado 874720" d="M85.073,32.776c-.458.372-.711.72-1.011.769-.194.033-.688-.443-.649-.571a1.239,1.239,0,0,1,.667-.752c.191-.066.52.274.993.554" transform="translate(18.101 6.991)" fill="#393351"/>
      <path id="Trazado_874721" data-name="Trazado 874721" d="M86.449,31.141c.335.437.695.7.671.932a.936.936,0,0,1-.619.671c-.213.024-.634-.357-.663-.6s.3-.535.612-1.008" transform="translate(18.627 6.758)" fill="#393351"/>
      <path id="Trazado_874722" data-name="Trazado 874722" d="M4.558,36.113c0,.152.007.305.01.458" transform="translate(0.989 7.837)" fill="#393351"/>
      <path id="Trazado_874723" data-name="Trazado 874723" d="M55.256,51.609a3.886,3.886,0,0,0,.125,1.14c.292.579.593,1.464,1.045,1.571a2.309,2.309,0,0,0,1.875-.684,9.358,9.358,0,0,0,2.366-6.95c-.057-.985-.55-1.031-1.269-.567-.309.2-.632.382-1.025.619a1.948,1.948,0,0,1,1.6-2.115,1.533,1.533,0,0,1,1.774,1.249c.741,2.43-.989,7.447-3.064,8.917a2.5,2.5,0,0,1-3.185.124,2.633,2.633,0,0,1-.245-3.3" transform="translate(11.889 9.68)" fill="#393351"/>
      <path id="Trazado_874724" data-name="Trazado 874724" d="M63.052,48.377c1.2,1.117-.574,5.8-2.9,7.4.051-1.516.882-2.546,1.4-3.691.534-1.188.983-2.413,1.5-3.711" transform="translate(13.053 10.498)" fill="#393351"/>
      <path id="Trazado_874725" data-name="Trazado 874725" d="M62.3,55.877c.713-1.784,1.337-3.349,1.985-4.97,1.144,1.07-.03,4.211-1.985,4.97" transform="translate(13.52 11.047)" fill="#393351"/>
      <path id="Trazado_874726" data-name="Trazado 874726" d="M66.9,52.656A5.154,5.154,0,0,1,65.577,56.9c-.651-1.058.112-3.561,1.324-4.249" transform="translate(14.179 11.427)" fill="#393351"/>
      <path id="Trazado_874727" data-name="Trazado 874727" d="M71.537,54.177c-.246.606-.443,1.135-.691,1.639a.955.955,0,0,1-.522-.068,7.316,7.316,0,0,1-.027-1.694c.039-.253.394-.458.606-.684l.634.807" transform="translate(15.246 11.582)" fill="#393351"/>
      <path id="Trazado_874728" data-name="Trazado 874728" d="M36.523,45.527a8.066,8.066,0,0,0-1.325,1.66,5.3,5.3,0,0,0-.12,1.8,4.226,4.226,0,0,0,1.537-.145,13.012,13.012,0,0,0,2.026-1.456c1.126-.89,2.219-1.822,3.352-2.7,1.178-.913,1.167-1.117-.179-1.733a1.911,1.911,0,0,1-.381-.325c.556-.836,1.291-.522,1.757-.156a1.829,1.829,0,0,1,.6,1.449c-.073.469-.587.92-1,1.273-1.329,1.143-2.66,2.292-4.07,3.331a14.529,14.529,0,0,1-2.7,1.466,1.618,1.618,0,0,1-1.143-.054,2.01,2.01,0,0,1-.746-2.619c.458-1.334,1.3-1.992,2.39-1.793" transform="translate(7.37 9.136)" fill="#393351"/>
      <path id="Trazado_874729" data-name="Trazado 874729" d="M39.262,58.773c.331.316.775.654.738.719-.186.331-.5.815-.768.815-.3,0-.594-.465-.892-.728l.922-.807" transform="translate(8.32 12.754)" fill="#393351"/>
      <path id="Trazado_874730" data-name="Trazado 874730" d="M18.627,52.131c.325,1.844.069,4,2.637,4.614.484-2.495-.393-4.743-1.126-7.006l.449-.209c.319.338.842.635.924,1.025a53.367,53.367,0,0,1,.986,5.832c.094.964-.8,1.5-1.718,1.3-1.961-.409-3.454-3.451-2.59-5.3.039-.082.183-.114.438-.263" transform="translate(3.893 10.748)" fill="#393351"/>
      <path id="Trazado_874731" data-name="Trazado 874731" d="M29.7,21.728c.964-.452,1.923-.916,2.9-1.339a.54.54,0,0,1,.477.224.764.764,0,0,1-.15.627,3.728,3.728,0,0,1-3,1.009l-.229-.521" transform="translate(6.444 4.423)" fill="#393351"/>
      <path id="Trazado_874732" data-name="Trazado 874732" d="M25.754,23.646c.88-.363,1.751-.746,2.646-1.066.128-.045.421.178.527.346.055.085-.1.43-.224.479-.882.343-1.784.64-2.679.95l-.27-.71" transform="translate(5.589 4.899)" fill="#393351"/>
      <path id="Trazado_874733" data-name="Trazado 874733" d="M28.958,21.793a3.112,3.112,0,0,1-.184-.553c.458-.361.925-.711,1.39-1.062a2.438,2.438,0,0,1,.254.438c-.445.389-.918.75-1.46,1.177" transform="translate(6.243 4.379)" fill="#393351"/>
      <path id="Trazado_874734" data-name="Trazado 874734" d="M28.426,27.918l-.9.717c-.217-.284-.639-.6-.6-.846a1.25,1.25,0,0,1,.727-.86c.29-.077.688.259,1.038.414-.086.192-.174.385-.26.576" transform="translate(5.842 5.842)" fill="#393351"/>
      <path id="Trazado_874735" data-name="Trazado 874735" d="M29.43,30.432c-.287-.438-.662-.819-.59-.941a3.31,3.31,0,0,1,.857-.744c.19.249.57.539.527.736-.065.3-.425.534-.793.948" transform="translate(6.256 6.239)" fill="#393351"/>
      <path id="Trazado_874736" data-name="Trazado 874736" d="M28.064,31c-.4.28-.685.613-.849.562-.265-.082-.452-.416-.671-.645.217-.181.431-.5.652-.505s.461.295.868.588" transform="translate(5.76 6.601)" fill="#393351"/>
      <path id="Trazado_874737" data-name="Trazado 874737" d="M70.63,48.474c-1.322.87-1.961.672-2.438-.688l2.438.688" transform="translate(14.798 10.37)" fill="#393351"/>
      <path id="Trazado_874738" data-name="Trazado 874738" d="M71.951,46.067l-1.964-.986c1.073-.6,1.676-.333,1.964.986" transform="translate(15.187 9.718)" fill="#393351"/>
      <path id="Trazado_874739" data-name="Trazado 874739" d="M95.151,24.561l-1.5,1.429q-.192-.2-.382-.393c.146-.825.768-1.188,1.492-1.453q.2.21.393.417" transform="translate(20.239 5.24)" fill="#393351"/>
      <path id="Trazado_874740" data-name="Trazado 874740" d="M77.919,19.818c-.135-.69-.27-1.381-.442-2.262,1.238.56,1.414,1.277.814,2.214l-.372.049" transform="translate(16.813 3.81)" fill="#393351"/>
      <path id="Trazado_874741" data-name="Trazado 874741" d="M80.49,19.327l-.792.845c-.178-.313-.481-.618-.494-.938-.012-.259.323-.533.5-.8l.783.894" transform="translate(17.188 4)" fill="#393351"/>
    </g>
    <g id="Grupo_1100987" data-name="Grupo 1100987" transform="translate(-10597.29 -13486.668) rotate(-74)" clip-path="url(#clip-path-2)">
      <path id="Trazado_875576" data-name="Trazado 875576" d="M25.847,13.777A32.494,32.494,0,0,0,22.132.231c-.3-.566-1.115.016-.816.579a33.385,33.385,0,0,1,2.4,23.983A40.338,40.338,0,0,1,11.339,44.361,49.853,49.853,0,0,1,1.631,51.1c.192-.454.376-.912.543-1.376a28.491,28.491,0,0,0,.919-3.1c.147-.628-.836-.8-.985-.181a25.4,25.4,0,0,1-.861,2.909q-.258.714-.559,1.413c-.2.468-.466.924-.636,1.4a.715.715,0,0,0,.526.989c.509.116,1.049.157,1.567.234l3.243.478c.636.094.817-.89.181-.984L3.12,52.528l-1.193-.176-.408-.06A48.238,48.238,0,0,0,18.986,37.241a37.851,37.851,0,0,0,6.861-23.464" fill="#434a56"/>
    </g>
  </g>
</svg>
