<svg xmlns="http://www.w3.org/2000/svg" xmlns:xlink="http://www.w3.org/1999/xlink" width="181.787" height="413.064" viewBox="0 0 181.787 413.064">
  <defs>
    <clipPath id="clip-path">
      <rect id="Rectángulo_402095" data-name="Rectángulo 402095" width="102.307" height="76.911" fill="none"/>
    </clipPath>
    <clipPath id="clip-path-2">
      <rect id="Rectángulo_402098" data-name="Rectángulo 402098" width="24.714" height="40.899" fill="#393351"/>
    </clipPath>
    <clipPath id="clip-path-3">
      <rect id="Rectángulo_402103" data-name="Rectángulo 402103" width="53.266" height="72.511" transform="translate(0 0)" fill="none"/>
    </clipPath>
  </defs>
  <g id="Grupo_1102156" data-name="Grupo 1102156" transform="translate(11894.787 12238.555)">
    <path id="Trazado_876371" data-name="Trazado 876371" d="M3535.239,1056.236a.054.054,0,0,0,.011.017l.051-.036c-.011-.018-.021-.037-.031-.056a.058.058,0,0,0-.031.075" transform="translate(-15345.354 -12881.755)" fill="#040504"/>
    <path id="Trazado_876372" data-name="Trazado 876372" d="M3474.321,999.222a.108.108,0,0,0-.2-.081c-.024.059-.086.072-.154.083-.144.023-.318.013-.448.046l.059.219c.151-.041.361-.021.51-.067a.339.339,0,0,0,.233-.2" transform="translate(-15290.485 -12831)" fill="#040504"/>
    <path id="Trazado_876373" data-name="Trazado 876373" d="M3472.762,1000.983a.113.113,0,0,0,.136.081l-.056-.22a.114.114,0,0,0-.08.139" transform="translate(-15289.811 -12832.574)" fill="#040504"/>
    <path id="Trazado_876374" data-name="Trazado 876374" d="M3536.094,1057.1h0Z" transform="translate(-15346.119 -12882.589)" fill="#040504"/>
    <path id="Trazado_876375" data-name="Trazado 876375" d="M3232.191,901.047c-.015-.027-.027-.054-.044-.08l-.224.148c.009.02.021.038.031.057.04-.023.078-.045.117-.065s.079-.04.12-.06" transform="translate(-15075.692 -12743.778)" fill="#040504"/>
    <path id="Trazado_876376" data-name="Trazado 876376" d="M3231.754,900.9c0,.01.006.019.01.029l0,.008.219-.15-.006-.007c-.039.019-.078.038-.115.058l-.113.062" transform="translate(-15075.541 -12743.608)" fill="#040504"/>
    <path id="Trazado_876377" data-name="Trazado 876377" d="M3279.074,1007.293c.1-.016.2-.032.3-.046,0-.007,0-.014,0-.02a.211.211,0,0,0-.06-.027.218.218,0,0,0-.238.093" transform="translate(-15117.612 -12838.219)" fill="#040504"/>
    <g id="Grupo_1101004" data-name="Grupo 1101004" transform="translate(-11834.641 -12238.555)">
      <g id="Grupo_1100970" data-name="Grupo 1100970" transform="translate(0 0)" clip-path="url(#clip-path)">
        <path id="Trazado_874703" data-name="Trazado 874703" d="M88.024,7.523C79.449,1.246,69.015-1.118,57.008.487A30.071,30.071,0,0,0,45.461,4.3a9.937,9.937,0,0,0-2.437-1.486,10.883,10.883,0,0,0-9.719.8,12,12,0,0,0-4.126,3.651,10.278,10.278,0,0,0-8.915,4.921c-.139.007-.279.017-.42.028a6.762,6.762,0,0,1-2.614-.085c-5.805-2.052-11.445.084-14.726,5.58C-1.944,25.17-.71,36.766,8.173,42.278a18.313,18.313,0,0,0-1.327,2.27,11.976,11.976,0,0,0-.358,10.326,12.392,12.392,0,0,0,8.275,6.747l.054.015a19,19,0,0,0,.026,2.337,11.243,11.243,0,0,0,3.906,7.792,11.364,11.364,0,0,0,8.412,2.627,18.359,18.359,0,0,0,4.845-1.217l.353-.127a11.014,11.014,0,0,0,5.072,3.385,10.516,10.516,0,0,0,3.141.476,15.079,15.079,0,0,0,7.9-2.631c.211-.133.581-.367.912-.548.416-.063.822-.137,1.171-.225l.128-.026a9.093,9.093,0,0,0,5.26-2.776c.118-.131.232-.265.341-.4q.966.255,1.981.481c12.864,2.863,24.323-.183,33.129-8.811,5.188-5.082,8.517-11.729,10.178-20.318,2.684-13.88-2-25.684-13.546-34.134" transform="translate(0 0)" fill="#fff"/>
        <path id="Trazado_874705" data-name="Trazado 874705" d="M71.97,21.091c2.046,1.875,3.182,8.022,1.887,9.9-.629-3.3-1.222-6.409-1.887-9.9" transform="translate(16.852 4.939)" fill="#393351"/>
        <path id="Trazado_874707" data-name="Trazado 874707" d="M19.171,31.572a3.125,3.125,0,0,1,1.382,3.19,5.8,5.8,0,0,1-2.518,4.17,17.579,17.579,0,0,0-2.229,1.829,2.173,2.173,0,0,0,1.1,3.767c.992.276,1.994.521,3.289.855-3.231,1.071-5.734.1-6.121-2.351a6.333,6.333,0,0,1,.8-3.046c.193-.469.749-.812,1.184-1.156,3.468-2.748,3.483-2.771,3.105-7.258" transform="translate(3.291 7.393)" fill="#393351"/>
        <path id="Trazado_874708" data-name="Trazado 874708" d="M11.527,18.821c-.149.564-.275,1.137-.453,1.692-1.3,4.063.009,7,3.889,8.735a3,3,0,0,1,.929.5,2.574,2.574,0,0,1,.371.868,2.232,2.232,0,0,1-.816.136,7.788,7.788,0,0,1-5.137-11.1,7.506,7.506,0,0,1,.747-1.024l.469.191" transform="translate(2.217 4.363)" fill="#393351"/>
        <path id="Trazado_874709" data-name="Trazado 874709" d="M22.39,45.972c.627,2.581-1.659,6.007,2.56,7.4a2.229,2.229,0,0,1-2.9-.541c-1.276-1.392-1.135-5.239.339-6.861" transform="translate(4.96 10.765)" fill="#393351"/>
        <path id="Trazado_874710" data-name="Trazado 874710" d="M33.136,51.8c.585.455,1.175.907,1.751,1.374.057.046.035.188.117.729a6.944,6.944,0,0,1-1.718-.66c-.325-.246-.429-.78-.632-1.187l.481-.255" transform="translate(7.646 12.129)" fill="#393351"/>
        <path id="Trazado_874711" data-name="Trazado 874711" d="M28.469,14.226c-.85.944-2.013,1.735-2.4,2.806-.413,1.134-.093,2.536-.093,3.8-1.2-.37-1.773-2.515-1.113-4.469.676-2,1.989-2.735,3.609-2.133" transform="translate(5.756 3.283)" fill="#393351"/>
        <path id="Trazado_874712" data-name="Trazado 874712" d="M57.532,29.208c5.246,2.516,7.2,6.081,6.251,11.283a11.42,11.42,0,0,1-10.59,9.547,42.645,42.645,0,0,1-6.52-.334,2.044,2.044,0,0,1-1.813-2.121c-.328-3.483-.706-6.962-.95-10.451-.447-6.374-.792-12.755-1.222-19.129-.144-2.134.149-2.776,2.057-3.757,4.382-2.255,11.536-1.293,15.2,2.043,3.282,2.99,2.887,8.465-.852,11.687-.492.425-1.019.807-1.56,1.233M45.977,48.133c1.675.149,2.887.236,4.094.37a12.179,12.179,0,0,0,7.887-1.665,10.16,10.16,0,0,0,4.415-10.013c-.433-2.9-2.252-5.978-6.434-6.188a1.44,1.44,0,0,1-1.107-.769,1.628,1.628,0,0,1,.645-1.219c.786-.634,1.727-1.077,2.511-1.712,3.767-3.04,3.826-8.226.017-10.588a13.644,13.644,0,0,0-13.667-.736c-.765.357-.832.81-.769,1.556.51,6.012.977,12.027,1.444,18.042.331,4.289.639,8.579.963,12.92" transform="translate(9.988 3.049)" fill="#393351"/>
        <path id="Trazado_874713" data-name="Trazado 874713" d="M55.262,36.189c-.011,2.535-3.131,4.75-5.52,3.846a1.641,1.641,0,0,1-.863-1.182c-.115-1.967-.126-3.942-.1-5.912.019-1.5.911-2.131,2.389-1.817a5.548,5.548,0,0,1,4.094,5.065M50.3,38.635c2.273-.03,3.741-1.228,3.643-2.862a3.619,3.619,0,0,0-4.078-3.382c.144,2.072.29,4.162.434,6.244" transform="translate(11.419 7.27)" fill="#393351"/>
        <path id="Trazado_874714" data-name="Trazado 874714" d="M47.118,21.526c0-.913-.016-1.828,0-2.741.023-1.092.695-1.524,1.692-1.523a4.939,4.939,0,0,1,4.607,3.957,4.4,4.4,0,0,1-2.994,5.29c-1.732.574-2.968-.153-3.194-1.944-.126-1-.131-2.024-.19-3.037h.075m1.638,3.8c2.545-.491,3.438-1.423,3.44-3.377a3.446,3.446,0,0,0-2.814-3.484c-.417-.074-1.34.4-1.328.563.158,2.1.446,4.191.7,6.3" transform="translate(11.015 4.042)" fill="#393351"/>
        <circle id="Elipse_11558" data-name="Elipse 11558" cx="13.439" cy="13.439" r="13.439" transform="translate(75.258 2.468)" fill="#d8f263"/>
        <path id="Trazado_874704" data-name="Trazado 874704" d="M46.93,56.807c.142,2.219.638,4.034,2.245,5.371.72.6,1.07,1.35.407,2.086-.333.371-1.053.418-1.612.558a13.254,13.254,0,0,0-1.9.4,16.56,16.56,0,0,0-2.4,1.309c-4.028,2.537-6.228,1.9-8.09-2.433-.418-.975-1.047-1.4-2-1.119-1.354.4-2.657.971-4,1.418a17.674,17.674,0,0,1-3.9,1.135,3.809,3.809,0,0,1-4.3-3.6,19.211,19.211,0,0,1,.5-5.092c.415-2.087.3-2.455-1.827-2.958-1.382-.327-2.8-.507-4.168-.885-3.337-.919-4.748-3.581-3.232-6.688A21.582,21.582,0,0,1,16.3,41.542c1.253-1.377,1.49-1.886.107-3.141a32.956,32.956,0,0,0-5.086-3.833C6.009,31.36,5.527,24.174,8,20.026c1.408-2.36,3.314-3.305,5.9-2.392a13.179,13.179,0,0,0,5.672.486,41.826,41.826,0,0,1,5.763.3c-.023-.181-.116-.748-.163-1.319-.185-2.267,1.185-4.112,3.417-3.889,2.776.278,4.529-.62,5.74-3.069a4.421,4.421,0,0,1,1.8-1.58c2.33-1.339,4.358-.474,5.008,2.128.289,1.155.4,2.354.627,3.717a31.943,31.943,0,0,0,3-2.379c3.419-3.457,7.706-5.06,12.367-5.683,9.219-1.234,17.941.022,25.66,5.671C91.932,18.7,95.6,27.586,93.44,38.768c-1.2,6.208-3.533,11.97-8.09,16.435-7.4,7.249-16.4,9.083-26.338,6.872a28.061,28.061,0,0,1-11.364-4.951,4,4,0,0,0-.718-.316M46.7,55.777a7.167,7.167,0,0,1,1.959.569,29.551,29.551,0,0,0,10.872,4.592c10.371,2.524,21.267-1.23,27.092-9.467a32.218,32.218,0,0,0,5.908-19.045,21.329,21.329,0,0,0-4.445-13.189C79.443,7.914,64.779,5.116,52.524,9.091a26.481,26.481,0,0,0-6.638,3.843,19.7,19.7,0,0,0-4.816,4.286c-2.85,3.954-4.015,8.6-4.535,13.407a.828.828,0,0,0,.088.557c1.73,2.059,1.925,4.638,2.457,7.107.692,3.205,2.323,4.36,5.552,3.985.454-.052.908-.112,1.365-.128,2.03-.067,3.32,1.077,3.245,3.126a17.587,17.587,0,0,1-.732,3.553c-.589,2.349-1.219,4.687-1.812,6.949m-7.975,1.25.072-.458c-1.968-2.753-3.983-5.476-5.879-8.277a3.346,3.346,0,0,0-2.779-1.906,8,8,0,0,1-3.319-1.013,17.681,17.681,0,0,1-2.7-2.244l.257-.217c2.047.849,4.1,1.7,6.505,2.694a35.108,35.108,0,0,0-7.121-10.837c-1.586-1.574-3.177-3.143-4.735-4.743a8.815,8.815,0,0,1-.871-1.264l.36-.284c4.515,3.669,8.848,7.513,11.854,13.134a23.221,23.221,0,0,0-2.055-10.925,1.554,1.554,0,0,1,1.086.771c.687,1.935,1.734,3.868,1.86,5.852.29,4.575,1.124,8.836,4.171,12.449,1.144,1.356,2.141,2.836,3.222,4.245.292.381.648.715,1.112,1.221-.123-3.187-1.338-6.014-.724-9.017a1.718,1.718,0,0,1,.591.974,38.6,38.6,0,0,1,.834,5.1,8.878,8.878,0,0,0,5.3,8.177,59.38,59.38,0,0,1,.065-7.032,37.225,37.225,0,0,1,1.6-5.861c.95-3.268.317-4.068-2.99-3.752-3.615.346-5.907-1.338-6.7-4.929-.33-1.486-.568-3-1-4.454-.649-2.209-1.159-2.641-3.442-2.713a4.862,4.862,0,0,1-4.732-3.405c-.534-1.37-.945-2.788-1.453-4.169-1.449-3.948-3.3-5.156-7.416-4.617a12.1,12.1,0,0,1-6.123-.51c-1.975-.757-3.241-.1-4.344,1.714C7.075,24.273,7.272,30.673,12.4,33.672a26.7,26.7,0,0,1,5.06,3.858c1.955,1.9,1.729,3.3-.228,5.174a17.746,17.746,0,0,0-2.856,3.325c-1.77,2.842-.8,5.028,2.446,5.787,1.382.325,2.8.5,4.17.873,2.318.628,2.932,1.778,2.382,4.089a22.044,22.044,0,0,0-.707,3.573c-.21,3.174,1.809,4.612,4.8,3.463,1.324-.51,2.576-1.211,3.9-1.712,3.25-1.224,4.317-.785,5.861,2.273,1.193,2.365,2.505,2.778,4.8,1.5,1.575-.88,3.141-1.777,4.806-2.72-1.822-1.445-3.68-2.842-5.444-4.352a3.116,3.116,0,0,0-2.608-.8c-2.836.3-5.693.416-8.406-.722a12.845,12.845,0,0,1-1.852-1.161l10.2.908M35.253,30.393a4.435,4.435,0,0,0,.146-.533,27.923,27.923,0,0,1,4.87-13.594,1.3,1.3,0,0,0,.259-.834c-.194-1.507-.363-3.025-.694-4.5-.35-1.567-1.532-2.144-2.848-1.3A6.993,6.993,0,0,0,34.7,11.965a4.108,4.108,0,0,1-4.912,2.319,3.971,3.971,0,0,0-1.209-.046,2.211,2.211,0,0,0-2.279,2.341,7.849,7.849,0,0,0,.432,2.224c.774,2.352,1.622,4.68,2.413,7.026,1.364,4.046,1.694,4.307,6.114,4.564" transform="translate(1.537 1.384)" fill="#393351"/>
        <path id="Trazado_874715" data-name="Trazado 874715" d="M68.741,36.19c-.214-.984-.436-1.967-.6-2.959a10.351,10.351,0,0,0-.467-2.6.652.652,0,0,0-.977-.239,2.231,2.231,0,0,0-1.181-.318.619.619,0,0,0-.253-.12,2.868,2.868,0,0,0-2.27.959,5.4,5.4,0,0,0-1.62,2.358,3.2,3.2,0,0,0,.168,2.621,2.729,2.729,0,0,0,1.7,1.217,3.311,3.311,0,0,0,3.527-1.324,5.553,5.553,0,0,0,.462-.848c.111.523.216,1.048.33,1.571.415,1.918.816,3.838,1.149,5.771.133.778,1.365.676,1.229-.107-.346-2-.764-3.995-1.195-5.983m-2.255-3.31c0,.058-.01.116-.016.174-.015.125-.035.251-.058.374s-.044.217-.072.325c-.015.057-.031.115-.047.173-.009.031-.019.062-.028.093a5.647,5.647,0,0,1-.274.664c-.049.1-.1.194-.158.29l-.026.042c-.033.047-.065.1-.1.142a2.7,2.7,0,0,1-.188.225c-.031.035-.063.068-.1.1.075-.069-.086.065-.106.08-.054.041-.11.078-.168.115l-.106.059a2.588,2.588,0,0,1-.349.142c-.017.006-.107.032-.138.041l-.144.027a3.241,3.241,0,0,1-.423.032H63.93a.154.154,0,0,0-.031,0c-.064-.009-.13-.015-.194-.025s-.127-.023-.189-.038l-.08-.021c-.014,0-.014,0-.015,0l-.016-.006a2.784,2.784,0,0,1-.344-.157c-.026-.014-.031-.016-.031-.014l-.039-.031c-.057-.042-.112-.085-.167-.133-.016-.015-.078-.079-.085-.085q-.041-.046-.078-.1c-.038-.052-.072-.106-.1-.16h0v0c-.02-.043-.039-.086-.057-.131s-.038-.11-.056-.165a.133.133,0,0,0-.009-.028c0-.026-.01-.052-.012-.078a2.192,2.192,0,0,1-.023-.475,3.726,3.726,0,0,1,1.188-2.292l.042-.039.052-.048c.064-.056.13-.111.195-.165a5.589,5.589,0,0,1,.459-.341,1.959,1.959,0,0,1,.359-.2.521.521,0,0,0,.394.11,3.021,3.021,0,0,1,.395-.044c.019,0,.1,0,.126,0s.1.012.126.017c.039.006.077.016.115.025a.339.339,0,0,1,.065.022c.043.02.085.046.128.063.007,0,0,0,.007,0a.309.309,0,0,0,.025.022,1.024,1.024,0,0,0,.088.077c.009,0,.006,0,.009,0l.017.025c.023.031.047.062.069.1s.033.054.044.073a2.259,2.259,0,0,1,.093.225c.016.046.027.093.041.139,0,.02.009.038.011.058a3.863,3.863,0,0,1,.044.675v.015c0,.009,0,.014,0,.041" transform="translate(14.322 7.007)" fill="#393351"/>
        <path id="Trazado_874706" data-name="Trazado 874706" d="M73.552,32.949a9.363,9.363,0,0,1-1.164,6.082.949.949,0,0,1-.769.3c-.158-.01-.46-.4-.417-.526.68-1.983.895-4.155,2.35-5.857" transform="translate(16.671 7.715)" fill="#393351"/>
      </g>
    </g>
    <g id="Grupo_1101006" data-name="Grupo 1101006" transform="translate(221.133 -257.762)">
      <path id="Trazado_874632" data-name="Trazado 874632" d="M101.719,148.4A51,51,0,1,1,45.69,102.995,51,51,0,0,1,101.719,148.4" transform="translate(-12115.92 -11949.768)" fill="#fff"/>
      <path id="Trazado_874633" data-name="Trazado 874633" d="M63.113,121.786c.821.855,1.595,1.765,2.476,2.556a7.151,7.151,0,0,1,2.087,8.266,108.776,108.776,0,0,1-5.718,12.1c-1.767,3.319-3.9,6.445-5.97,9.82a4.255,4.255,0,0,0,.862-.055c10.5-3.313,17.749.084,24.014,9.194,2.925,4.256,3.333,9.141,2.717,14.147a24.967,24.967,0,0,1-5.111,12.917,16.923,16.923,0,0,1-6.985,5.334,22.186,22.186,0,0,1-29.409-12.42c-.851-2.1-1.04-4.474-1.566-6.855-.269.323-.631.723-.952,1.153-6.286,8.383-12.783,16.592-20.349,23.88a34.808,34.808,0,0,1-4.626,3.781,11.694,11.694,0,0,1-3.814,1.67c-3.317.774-5.455-.834-5.5-4.256a35.265,35.265,0,0,1,.665-7.068A264.765,264.765,0,0,1,23.442,139.5c2.953-6.738,6.876-13.059,10.488-19.5a17.548,17.548,0,0,1,3.2-3.616,6.94,6.94,0,0,1,5.469-2c1.987.125,3.974.341,5.942.648.508.079.939.645,1.407.988a5.6,5.6,0,0,1-1.584.395,34.988,34.988,0,0,1-3.858-.425,8.047,8.047,0,0,0-8.319,3.49,72.373,72.373,0,0,0-4.291,6.466c-6.6,11.527-11.444,23.806-15.506,36.418-.117.359-.228.72-.345,1.079-1.033,3.2-.891,3.681,2.16,5.237,2.209,1.125,4.517,2.055,6.766,3.1a13.444,13.444,0,0,1,1.519,1c-2.269.511-8.285-2.218-11.9-5.243-.59,2.1-1.17,4.072-1.7,6.058-.913,3.42-.894,3.413,2.3,5.1a22.609,22.609,0,0,1,3.475,2.2c-2.7.087-4.63-1.687-7.062-2.838-.355,1.294-.754,2.509-1.019,3.752-1.247,5.855-2.492,11.708-3.651,17.581a14.616,14.616,0,0,0-.147,3.868c.161,2.184,1.382,3.119,3.523,2.62a8.025,8.025,0,0,0,3.372-1.465c3.74-3.228,7.346-6.613,11.2-10.121-1.936-.96-3.677-1.393-3.927-3.549l1.781,1.175c1.928,1.272,2.773,1.2,4.244-.532a372.085,372.085,0,0,0,22.44-29.894A207.936,207.936,0,0,0,64.62,136.662a13.967,13.967,0,0,0,1.907-7.26c-.2-3.022-2.438-4.647-4.46-6.241a84.21,84.21,0,0,0-7.337-4.721,6.105,6.105,0,0,1-1.1-.681,5.67,5.67,0,0,1-.7-1.1c.429-.052.858-.115,1.288-.153.243-.022.488,0,.942,0-2.721-3.1-1.51-6.472-1.209-9.735.072-.767.273-1.382-.611-1.924-.451-.277-.6-1.1-.811-1.7a45.127,45.127,0,0,0-1.8-4.776c-1.664,6.11.21,11.96,1.315,17.856-.156.072-.312.146-.471.218-.342-.38-.87-.706-1-1.15-1.66-5.516-2.809-11.094-1.662-16.889a4.571,4.571,0,0,1,.351-1.073c.62-1.276,1.656-1.414,2.491-.258a10.545,10.545,0,0,1,1.058,2.168c.3.729.531,1.487.96,2.711.556-1.8.925-3.166,1.4-4.491a15.163,15.163,0,0,1,1.389-3.083,2.288,2.288,0,0,1,1.645-.984c.433.009,1.052.736,1.233,1.266a37.216,37.216,0,0,1,.894,3.9c.783-1.554,1.464-2.906,2.143-4.257a.914.914,0,0,1,.159-.281c.833-.746,1.781-2.188,2.494-2.08,1.531.23.9,1.87.963,2.99a1.876,1.876,0,0,0,.135.39A38.207,38.207,0,0,1,69.2,92.917c1.928-1.267,3.434-.664,3.413,1.609a37.709,37.709,0,0,1-1.127,6.623,9.987,9.987,0,0,1-.652,1.579c1.321-.841,2.3-1.574,3.381-2.127,2.252-1.161,4.159.08,3.8,2.582a23.408,23.408,0,0,1-1.426,4.226,9.373,9.373,0,0,1,1.894-.151,2.2,2.2,0,0,1,1.479.647,1.556,1.556,0,0,1-.31,1.433,79.347,79.347,0,0,1-6.693,6.53,85.83,85.83,0,0,1-7.918,5.312,8.133,8.133,0,0,1-1.969.643,7.674,7.674,0,0,1,1.151-1.377c3.957-2.978,7.967-5.883,11.9-8.9a18.271,18.271,0,0,0,2.311-2.573,12.865,12.865,0,0,0-3.031.033,1.542,1.542,0,0,1-1.225-.472c-.161-.294.056-.91.283-1.279.42-.685,1.054-1.245,1.44-1.944.591-1.073,1.457-2.412.4-3.41-1.035-.985-2.028.329-2.981.833a1.859,1.859,0,0,0-.519.383c-2.632,2.91-5.372,5.733-7.843,8.773-1.681,2.067-2.985,4.441-4.458,6.677l.042-.045c-.745.475-.952.951-.06,1.513s1.753,1.162,2.627,1.747m-1.023,74.5c.594,0,1.188.039,1.778-.007,6.4-.5,11.542-3,14.946-8.766,2.043-3.465,2.786-7.194,3.3-11.052,1.629-12.146-10.888-26.424-25.989-20.007a7.448,7.448,0,0,0-2.957,2.334c-3.115,4.265-6.032,8.676-9.129,12.955a9.044,9.044,0,0,0-1.729,4.939c-.6,9.876,9.335,19.764,19.776,19.6m-5.485-78.647c2.411-4.091,4.1-8.472,6.508-12.445l.757.383c-1.655,4.392-3.979,8.487-6.054,12.824a1.739,1.739,0,0,0,1.275-.547c2.494-3.378,4.87-6.847,7.439-10.168,2.354-3.045,3.516-6.59,4.547-10.18.344-1.191.054-2.564.054-4.182a10.074,10.074,0,0,0-1.822,1.094c-1.176,1.179-2.248,2.466-3.431,3.639a5.14,5.14,0,0,1-1.431.72A8.356,8.356,0,0,1,64.4,97.3c.17-1.273.412-2.539.624-3.807l-.618-.144c-4.222,7.371-6.125,15.642-8.982,23.634.4.222.751.416,1.184.657M55,114.783c1.009-3.087,1.771-6.074,2.957-8.878,1.376-3.253.947-6.5.6-9.785a5.4,5.4,0,0,0-.452-1.2c-.233.19-.4.261-.459.384a14.2,14.2,0,0,0-.681,1.462A26.52,26.52,0,0,0,54.973,108.1c.138,2.193.025,4.4.025,6.682" transform="translate(-12114.279 -11953.128)" fill="#393351"/>
      <path id="Trazado_874634" data-name="Trazado 874634" d="M43.854,131.227c-3.873.3-16.24-7.761-16.093-10.758,4.7,4.615,10.378,7.316,15.956,10.179.088.045.073.287.138.58" transform="translate(-12107.272 -11944.236)" fill="#393351"/>
      <path id="Trazado_874635" data-name="Trazado 874635" d="M33.665,112.1c2.855,5.8,8.954,7.246,13.743,10.425-5.523.126-14.324-6.411-13.743-10.425" transform="translate(-12105.442 -11946.845)" fill="#393351"/>
      <path id="Trazado_874636" data-name="Trazado 874636" d="M30.3,129.726c.428.3.835.633,1.285.893,3.074,1.771,6.168,3.5,9.221,5.309.456.269.73.846,1.089,1.281-.542-.02-1.188.148-1.605-.089q-4.556-2.579-9.018-5.325a7.513,7.513,0,0,1-1.457-1.672l.485-.4" transform="translate(-12106.634 -11941.354)" fill="#393351"/>
      <path id="Trazado_874637" data-name="Trazado 874637" d="M19.5,135.433c.355-.731.682-1.475,1.073-2.186.8-1.461,1.614-2.917,2.484-4.336.152-.248.611-.308.929-.455.093.325.367.746.254.96-1.032,1.941-2.1,3.864-3.238,5.747-.19.317-.734.421-1.116.624l-.386-.354" transform="translate(-12109.846 -11941.749)" fill="#393351"/>
      <path id="Trazado_874638" data-name="Trazado 874638" d="M39.739,144.052c-2.973.325-8.742-3.171-9.6-5.735l9.6,5.735" transform="translate(-12106.531 -11938.678)" fill="#393351"/>
      <path id="Trazado_874639" data-name="Trazado 874639" d="M47.425,127.392c-2.411.4-6.706-1.739-7.838-4.182l8.02,3.742c-.06.147-.122.294-.182.441" transform="translate(-12103.589 -11943.384)" fill="#393351"/>
      <path id="Trazado_874640" data-name="Trazado 874640" d="M16.555,143.544c1.182-2.813,2.244-5.343,3.437-8.186.968,2.216-1.145,7.1-3.437,8.186" transform="translate(-12110.764 -11939.599)" fill="#393351"/>
      <path id="Trazado_874641" data-name="Trazado 874641" d="M24.142,143.36l7.974,4c-2.3.581-7.237-1.862-7.974-4" transform="translate(-12108.399 -11937.106)" fill="#393351"/>
      <path id="Trazado_874642" data-name="Trazado 874642" d="M20.874,160.007l5.8,3.491c-2.064.706-5.284-1.192-6.074-3.07l.271-.421" transform="translate(-12109.502 -11931.921)" fill="#393351"/>
      <path id="Trazado_874643" data-name="Trazado 874643" d="M45.772,130.524c.172.191.578.521.531.611-.673,1.288-1.409,2.543-2.129,3.807a7.237,7.237,0,0,1-.9-.677c.661-1.212,1.386-2.39,2.112-3.565.045-.073.188-.089.391-.177" transform="translate(-12102.442 -11941.104)" fill="#393351"/>
      <path id="Trazado_874644" data-name="Trazado 874644" d="M21.9,138.069c-1.356-1.714-.374-3.873,2.035-4.936-.775,1.879-1.4,3.409-2.035,4.936" transform="translate(-12109.288 -11940.292)" fill="#393351"/>
      <path id="Trazado_874645" data-name="Trazado 874645" d="M46.458,144.282c1.445-.085,2.715-.118,3.975-.244,3.688-.365,4.348.021,5.637,3.55,1.409,3.848,2.741,7.723,4.19,11.556,1.256,3.326,2.632,6.606,3.942,9.911a7.487,7.487,0,0,1,.334,1.249c.445,2.151,0,2.821-2.163,3.3-4.007.884-4,.883-5.478-3.031-.59-1.565-1.233-3.11-1.8-4.683a1.269,1.269,0,0,0-1.7-.985c-1.407.33-3.267.126-4.129.97-.771.757-.455,2.623-.618,4-.2,1.662-.388,3.323-.591,4.984-.182,1.485-1.079,1.987-2.5,1.853-3.31-.312-4.449-1.778-3.955-5.458.729-5.452,1.492-10.9,2.382-16.331.513-3.133,1.292-6.223,1.978-9.326a8.726,8.726,0,0,1,.492-1.313m-3.75,27.475.189.041a15.551,15.551,0,0,0,.109,1.769c.258,1.5,1.572,1.521,2.633,1.57.317.014.91-1,.988-1.588.311-2.4.534-4.822.664-7.242a2.218,2.218,0,0,1,2.274-2.38c1.338-.146,2.668-.374,3.994-.6a2.235,2.235,0,0,1,2.793,1.563c.675,1.818,1.39,3.621,2.079,5.434.9,2.37.906,2.324,3.4,1.828,1.179-.235,1.4-.8,1.068-1.809-.471-1.431-.889-2.883-1.428-4.287-2.215-5.78-4.535-11.52-6.678-17.325-1.18-3.193-1.2-3.339-4.565-3.083-.644.05-1.287.167-1.931.168-1.064,0-1.481.552-1.639,1.546q-1.95,12.2-3.949,24.4" transform="translate(-12102.994 -11936.93)" fill="#393351"/>
      <path id="Trazado_874646" data-name="Trazado 874646" d="M60.753,148.248a14.923,14.923,0,0,1,2.34,7.491c0,.207-.354.506-.6.6-.142.052-.55-.2-.593-.374-.577-2.277-1.113-4.564-1.639-6.854-.025-.106.139-.256.5-.862" transform="translate(-12097.151 -11935.584)" fill="#393351"/>
      <path id="Trazado_874647" data-name="Trazado 874647" d="M36.093,155.223c.313,1.786.6,3.267.8,4.758.028.2-.294.547-.531.654-.159.072-.517-.1-.679-.264-.7-.715-.606-3.9.407-5.149" transform="translate(-12104.944 -11933.411)" fill="#393351"/>
      <path id="Trazado_874648" data-name="Trazado 874648" d="M39.3,164.019c-.265.362-.4.733-.619.795a.932.932,0,0,1-.834-.248,17.157,17.157,0,0,1-1.285-2.376c-.085-.19.11-.61.3-.783a.723.723,0,0,1,.707.1c.6.8,1.141,1.641,1.727,2.508" transform="translate(-12104.537 -11931.502)" fill="#393351"/>
      <path id="Trazado_874649" data-name="Trazado 874649" d="M47.386,114.187c1.83-1.9,3.651-3.8,5.5-5.684.761-.778,1.571-1.506,2.618-2.5-.135,1.878-5.885,8.106-7.978,9.041-.034-.327-.063-.614-.093-.9l-.042.046" transform="translate(-12101.159 -11948.743)" fill="#393351"/>
      <path id="Trazado_874650" data-name="Trazado 874650" d="M46.73,153.986a28.047,28.047,0,0,1,.046-3.548,2.108,2.108,0,0,1,1.018-1.424c.268-.129,1.124.407,1.335.831,1.169,2.361,2.325,4.738,3.276,7.192.636,1.638-.029,2.332-1.759,2.22-4.142-.266-4.14-.266-3.99-4.464.009-.269,0-.539,0-.808h.072m4.373,3.554-2.734-6.311c-.139.046-.279.09-.42.135,0,1.33-.016,2.661,0,3.991.038,2.462.268,2.631,3.15,2.185" transform="translate(-12101.4 -11935.351)" fill="#393351"/>
    </g>
    <g id="Grupo_1101008" data-name="Grupo 1101008" transform="translate(-12779.333 -12381)">
      <circle id="Elipse_11560" data-name="Elipse 11560" cx="27" cy="27" r="27" transform="translate(1012.333 488)" fill="#f6f6f6"/>
      <circle id="Elipse_11561" data-name="Elipse 11561" cx="8.5" cy="8.5" r="8.5" transform="translate(1023.333 497)" fill="#ac9afc"/>
      <g id="Grupo_1100977" data-name="Grupo 1100977" transform="translate(1031.104 491.948) rotate(11)">
        <g id="Grupo_1100976" data-name="Grupo 1100976" transform="translate(0.001 0)" clip-path="url(#clip-path-2)">
          <path id="Trazado_874774" data-name="Trazado 874774" d="M23.738,22.6a36.51,36.51,0,0,0-3.395-7.027c-1.346-2.265-2.8-4.466-4.09-6.764a27.317,27.317,0,0,1-3.018-7.329q-.111-.483-.2-.971a.719.719,0,0,0-1.377,0c-.75,4.308-2.974,8.033-5.258,11.728C4.2,15.8,1.85,19.4.7,23.471a14.862,14.862,0,0,0,.843,11.194,12.4,12.4,0,0,0,9.391,6.149,12.623,12.623,0,0,0,10.1-3.389,11.03,11.03,0,0,0,1.076-1.189c.018-.024.035-.048.052-.074s.041-.046.06-.071a12.38,12.38,0,0,0,2.44-6.573,17.514,17.514,0,0,0-.927-6.917m-9.9,16.776c.116-.017.036,0,0,0m9.441-10.884q0,.414-.032.827-.015.214-.036.428-.01.1-.021.2c0,.03-.017.137-.018.149a12.3,12.3,0,0,1-.332,1.6q-.111.4-.249.785-.067.187-.14.371-.03.076-.062.152c-.006.012-.061.139-.074.167a10.983,10.983,0,0,1-.827,1.5c-.138.21-.283.414-.435.613a10.988,10.988,0,0,1-1.031,1.132q-.281.268-.579.516-.113.094-.228.185l-.067.052-.123.093a11.808,11.808,0,0,1-2.258,1.306l-.109.046-.068.028q-.146.058-.293.113-.323.12-.652.22a11.911,11.911,0,0,1-1.208.3c-.2.039-.4.07-.6.1h-.006l-.185.022q-.169.018-.339.032a11.956,11.956,0,0,1-1.268.035q-.309-.008-.618-.032-.154-.012-.308-.028l-.123-.013-.161-.02-.08-.012-.123-.019q-.153-.025-.306-.054-.336-.063-.668-.146a11.876,11.876,0,0,1-1.223-.376q-.132-.049-.264-.1l-.115-.046L8,38.6l-.007,0L8,38.6l-.009,0c-.212-.093-.422-.19-.629-.294a11.812,11.812,0,0,1-1.1-.634q-.27-.175-.531-.365l-.156-.116-.034-.026q-.142-.111-.281-.227A11.432,11.432,0,0,1,4.14,35.866q-.246-.27-.474-.557l-.06-.077-.1-.139q-.121-.167-.236-.338a10.252,10.252,0,0,1-1.181-2.34,11.852,11.852,0,0,1-.365-1.265q-.074-.321-.13-.645-.028-.162-.052-.325L1.529,30.1c0-.009-.017-.135-.019-.157a14.6,14.6,0,0,1-.049-2.716q.023-.317.058-.633.016-.145.035-.29l.017-.119q.015-.1.031-.2.109-.682.27-1.354A20.412,20.412,0,0,1,2.7,22q.13-.337.27-.67l.056-.131.06-.138q.091-.207.184-.412.314-.686.658-1.358c.95-1.859,2.045-3.639,3.144-5.413a47.832,47.832,0,0,0,5.28-10.236A30.738,30.738,0,0,0,14.416,8.42c1.213,2.312,2.641,4.5,4,6.728.677,1.107,1.34,2.224,1.954,3.367.3.566.6,1.139.872,1.72q.21.442.405.89l.08.186.054.128q.093.225.182.452a20.219,20.219,0,0,1,1,3.335q.084.412.149.828c.012.077.022.155.035.233l0,.01.008.066q.027.216.049.433a15.559,15.559,0,0,1,.077,1.7" transform="translate(0 0)" fill="#393351"/>
          <path id="Trazado_874775" data-name="Trazado 874775" d="M188.639,909.98l.053.021-.054-.022h0" transform="translate(-180.637 -871.382)" fill="#393351"/>
          <path id="Trazado_874776" data-name="Trazado 874776" d="M162.088,841.477q-.453-.247-.879-.539a.46.46,0,1,0-.465.795,10.277,10.277,0,0,0,.879.539c.52.284.985-.511.465-.8" transform="translate(-153.709 -805.206)" fill="#393351"/>
          <path id="Trazado_874777" data-name="Trazado 874777" d="M60.093,564.721a9.768,9.768,0,0,1,.593-2.241.464.464,0,0,0-.322-.566.471.471,0,0,0-.566.322,10.459,10.459,0,0,0,.412,8.479,10.68,10.68,0,0,0,1.383,2.056.464.464,0,0,0,.651,0,.47.47,0,0,0,0-.651,9.5,9.5,0,0,1-2.151-7.4" transform="translate(-56.586 -538.063)" fill="#393351"/>
        </g>
      </g>
    </g>
    <g id="Grupo_1101010" data-name="Grupo 1101010" transform="translate(-11836.753 -11960.135)">
      <g id="Grupo_1100985" data-name="Grupo 1100985" clip-path="url(#clip-path-3)">
        <path id="Trazado_875575" data-name="Trazado 875575" d="M52.623,70.286c-8.122,2.14-17.169,1.578-24.681-2.337-7.623-3.972-14.295-12.317-12.408-21.373a13.4,13.4,0,0,1,.347-1.307,17.186,17.186,0,0,0,3.3.189,15.037,15.037,0,0,0,6.476-1.645c1.786-.967,3.526-3.079,2.083-5.084-1.265-1.757-3.734-2.092-5.694-1.555a9.712,9.712,0,0,0-5.254,3.906,13.681,13.681,0,0,0-1.585,3.042,15.522,15.522,0,0,1-6.348-2.834C5.139,38.435,2.877,33.9,1.765,29.426-.452,20.514,2.33,10.673,9.657,4.91a21.623,21.623,0,0,1,1.851-1.289,35.326,35.326,0,0,0-1.1,4.222c-.119.632.854.865.974.232a35.168,35.168,0,0,1,1.38-5.137.509.509,0,0,0-.37-.6A18.532,18.532,0,0,1,8.069.088c-.528-.369-1,.516-.474.88a18.913,18.913,0,0,0,3.326,1.847,23.576,23.576,0,0,0-8.454,9.517A25.227,25.227,0,0,0,.3,27.144a24.369,24.369,0,0,0,6.49,13.665,16.416,16.416,0,0,0,8.1,4.26,16.9,16.9,0,0,0,.194,9.916,23.622,23.622,0,0,0,8.406,11.329c7.362,5.539,17.126,7.186,26.091,5.653q1.69-.29,3.348-.726c.622-.164.323-1.118-.3-.955M23.855,37.926a4.043,4.043,0,0,1,2.818,1.082,1.966,1.966,0,0,1-.083,2.857C25.2,43.381,22.8,44.016,20.827,44.3a16.352,16.352,0,0,1-4.608,0c1.3-3.285,3.941-6.4,7.636-6.382" fill="#434a56"/>
      </g>
    </g>
  </g>
</svg>
