<svg xmlns="http://www.w3.org/2000/svg" xmlns:xlink="http://www.w3.org/1999/xlink" width="122.03" height="107.64" viewBox="0 0 122.03 107.64">
  <defs>
    <clipPath id="clip-path">
      <rect id="Rect치ngulo_402099" data-name="Rect치ngulo 402099" width="122.03" height="107.64" fill="none"/>
    </clipPath>
    <clipPath id="clip-path-2">
      <rect id="Rect치ngulo_402104" data-name="Rect치ngulo 402104" width="25.896" height="53.879" transform="translate(0 0)" fill="none"/>
    </clipPath>
  </defs>
  <g id="Grupo_1102158" data-name="Grupo 1102158" transform="translate(10624.363 13193.64)">
    <g id="Grupo_1100979" data-name="Grupo 1100979" transform="translate(-10624.363 -13193.64)" clip-path="url(#clip-path)">
      <path id="Trazado_874778" data-name="Trazado 874778" d="M103.745,46.6A52.012,52.012,0,1,1,46.6.287,52.013,52.013,0,0,1,103.745,46.6" transform="translate(0 0)" fill="#fff"/>
      <path id="Trazado_874795" data-name="Trazado 874795" d="M14.325,0A14.325,14.325,0,1,1,0,14.325,14.325,14.325,0,0,1,14.325,0Z" transform="translate(68.219 72.041)" fill="#87de87"/>
      <path id="Trazado_874779" data-name="Trazado 874779" d="M87.487,49.317c.2,16.54-6.122,31.091-17.779,43.356-8.029,8.448-17.8,13.564-29.754,13.21-8.489-.25-16.545-2.66-23.109-8.049-2.767-2.272-4.059-6.359-5.953-9.662-.312-.545-.145-1.348-.4-1.944-4.3-9.984-.621-18.973,3.4-27.945,1.907-4.252,4.094-8.446,5.379-12.891,1.258-4.358,1.622-8.99,2.2-13.523.311-2.416.062-4.906.4-7.315C23.4,13.681,32.85,5.613,43.987,4.079c8.653-1.192,16.525,1,24.6,3.044,3.791.961,6.062,3.618,8.073,6.545A58.787,58.787,0,0,1,87.487,49.317m-6.548,2.032c-.05-12.823-4.267-23.411-10.639-33.17C65.42,10.706,58.834,6.246,49.292,5.922c-10.942-.371-24.983,6.2-25.781,20.3-.1,1.7-.18,3.406-.151,5.106.13,7.714-1.843,14.922-4.958,21.914-2.376,5.336-4.689,10.714-6.7,16.2a17.4,17.4,0,0,0-1.185,7.6A46.387,46.387,0,0,0,13.2,87.061a9.754,9.754,0,0,0,2.752,3.712,34.468,34.468,0,0,0,5.977,4.557c12.686,7.124,31.053,4.579,42.409-5.917,11.339-10.482,15.976-23.895,16.6-38.065M16.745,94.213l-.51.7a49.378,49.378,0,0,0,4.578,3.246c12.549,6.977,25.488,8.342,38.005.6,13.455-8.316,21.725-20.8,25.3-36.179,3.94-16.926,1.2-32.761-8.423-47.375A16.371,16.371,0,0,0,62.773,7.4c1.56,1.288,3.016,2.372,4.339,3.6,4.2,3.9,6.97,8.81,9.45,13.887,10.091,20.663,8.549,40.6-4.775,59.175-9.929,13.843-24.044,18.869-40.793,16.525-5.307-.744-9.943-3.236-14.249-6.378" transform="translate(3.981 1.739)" fill="#393351"/>
      <path id="Trazado_874780" data-name="Trazado 874780" d="M40.909,47.812c6.152,3.1,8.581,6.932,7.488,12.5-.967,4.913-4.535,7.834-8.7,10.078-4.792,2.584-9.94,1.89-15.016,1.332a2.629,2.629,0,0,1-2.313-2.829c-.283-11.1-.542-22.207-.959-33.3-.094-2.509,1-3.636,3.186-4.258a18.454,18.454,0,0,1,11.783.057A10.647,10.647,0,0,1,42.954,43.8a21.186,21.186,0,0,1-2.045,4.017M23.654,51.376h.661c0,4.359-.034,8.72.016,13.078.019,1.608-.344,3.756.516,4.666s3.026.539,4.619.743A15.656,15.656,0,0,0,42.74,65.57a12.258,12.258,0,0,0,3.53-5.922c1.039-5.042-1.811-8.678-6.9-9.813-.667-.149-1.767-.576-1.787-.921-.037-.668.543-1.378.9-2.055a1.387,1.387,0,0,1,.45-.486c4.251-2.9,2.341-10.939-2.808-13a16.519,16.519,0,0,0-11.936.075,2.252,2.252,0,0,0-1.138,1.739c.127,5.4.385,10.8.6,16.2" transform="translate(9.951 14.125)" fill="#393351"/>
      <path id="Trazado_874781" data-name="Trazado 874781" d="M46.969,19.5c-.064,9.157-8.515,14.618-15.98,10.326C25.512,26.68,23.924,18.991,27.9,13.577a14.672,14.672,0,0,1,5.246-4.591C39.838,5.862,47.025,11.459,46.969,19.5m-19.206.913a8.372,8.372,0,0,0,8.19,8.66c5.013.035,8.533-3.886,8.583-9.56.042-4.827-3.467-8.982-7.585-9.148-3.7-.149-9.76,4.427-9.187,10.047" transform="translate(11.94 3.768)" fill="#393351"/>
      <path id="Trazado_874782" data-name="Trazado 874782" d="M46.089,58.174a31.512,31.512,0,0,1,4.355.053,8.086,8.086,0,0,1,2.287,1.156,7.375,7.375,0,0,1-2.18,1.255,41.773,41.773,0,0,1-4.644.306c-2.9.173-3.627-.949-2.3-3.614,1.088-2.184,2.259-4.326,3.34-6.514a16.65,16.65,0,0,0,1.329-3.272A6.949,6.949,0,0,0,48.09,45.3a8.53,8.53,0,0,0-2.265.53c-.757.413-1.3,1.2-2.03,1.69a4.617,4.617,0,0,1-1.518.369c.028-.543-.164-1.351.117-1.582a15.329,15.329,0,0,1,4.261-2.968c2.566-.892,4.5.857,4,3.555a30.806,30.806,0,0,1-2.019,5.829c-.718,1.762-1.605,3.456-2.544,5.449" transform="translate(19.634 20.037)" fill="#393351"/>
      <path id="Trazado_874783" data-name="Trazado 874783" d="M25.4,11.716c-.277,3.674-.521,6.917-.771,10.229-2.514-1.251-2.161-7.917.771-10.229" transform="translate(10.667 5.446)" fill="#393351"/>
      <path id="Trazado_874784" data-name="Trazado 874784" d="M20.521,66.457c-2.241.047-3.749-1.642-5.372-2.909a2.72,2.72,0,0,1-1-3.628l6.872,5.755q-.25.391-.5.782" transform="translate(6.423 27.853)" fill="#393351"/>
      <path id="Trazado_874785" data-name="Trazado 874785" d="M28.818,67.346c-1.925.986-5.606.6-6.829-.609a1.53,1.53,0,0,1-.385-1.112c.022-.2.571-.513.853-.483a11.773,11.773,0,0,1,6.362,2.2" transform="translate(10.04 30.28)" fill="#393351"/>
      <path id="Trazado_874786" data-name="Trazado 874786" d="M53.651,25.6c1.989.57,3.606,3.942,2.845,5.353a1.173,1.173,0,0,1-.826.573,1.054,1.054,0,0,1-.82-.571c-.435-1.714-.784-3.45-1.2-5.354" transform="translate(24.939 11.898)" fill="#393351"/>
      <path id="Trazado_874787" data-name="Trazado 874787" d="M55.968,34.753c1.468,1.992,1.119,3.79.788,5.539a3.6,3.6,0,0,1-1.523.107c-.4-1.8-.854-3.656.735-5.646" transform="translate(25.497 16.155)" fill="#393351"/>
      <path id="Trazado_874788" data-name="Trazado 874788" d="M52.737,31.751c1.853.911,2.377,3.46,1.607,4.605a1.154,1.154,0,0,1-.864.488,1,1,0,0,1-.709-.661c-.067-1.475-.034-2.955-.034-4.433" transform="translate(24.51 14.759)" fill="#393351"/>
      <path id="Trazado_874789" data-name="Trazado 874789" d="M35.449,66.551c-.754,1.677-2.156,2.016-3.778,1.727-.209-.038-.309-.684-.463-1.047l3.964-1.455c.094.259.183.517.277.775" transform="translate(14.507 30.576)" fill="#393351"/>
      <path id="Trazado_874790" data-name="Trazado 874790" d="M24.513,21.379a18.353,18.353,0,0,1,1.837,1.8c.249.316.183.877.264,1.329-.476-.038-1.162.107-1.383-.149A18.974,18.974,0,0,1,23.65,21.9c.289-.173.574-.347.863-.52" transform="translate(10.994 9.938)" fill="#393351"/>
      <path id="Trazado_874791" data-name="Trazado 874791" d="M22,19.985c.182.111.491.195.523.34.237,1.077.419,2.164.618,3.249-.33,0-.914.1-.951,0-.393-1.107-.7-2.246-1.031-3.375L22,19.985" transform="translate(9.837 9.29)" fill="#393351"/>
      <path id="Trazado_874792" data-name="Trazado 874792" d="M27.216,52.674c0-1.036-.009-2.071,0-3.107.023-2.585.554-3.034,3.209-2.726,4.554.524,7.355,4.367,5.988,8.21a5.831,5.831,0,0,1-7.951,3.469,2.361,2.361,0,0,1-1.1-1.635,36.676,36.676,0,0,1-.051-4.211Zm1.8-4.085c.167,2.543.274,4.894.523,7.23.041.394.85,1.1,1.04,1.021,1.3-.538,3.012-.951,3.636-1.982a4.9,4.9,0,0,0-.034-4.055c-.905-1.843-2.842-2.445-5.165-2.215" transform="translate(12.65 21.734)" fill="#393351"/>
      <path id="Trazado_874793" data-name="Trazado 874793" d="M29.123,34.742A4.551,4.551,0,0,1,33.3,37.372a4.7,4.7,0,0,1-.9,5.158,1.78,1.78,0,0,1-.448.488c-1.5.781-3.022,1.54-4.535,2.3-.633-1.485-1.321-2.95-1.875-4.463a11.365,11.365,0,0,1-.331-2.187c-.461-3.059.371-3.976,3.907-3.93m-1.184,8.44c3.1-1.458,4.415-3.4,3.734-5.125-.621-1.569-2.316-2.02-5.016-1.175.409,2.005.822,4.04,1.282,6.3" transform="translate(11.667 16.149)" fill="#393351"/>
      <path id="Trazado_874794" data-name="Trazado 874794" d="M37.868,17.825c-.023,2.572-1.551,4.381-3.7,4.387-2.1.006-3.948-2.087-3.977-4.51a3.946,3.946,0,0,1,3.961-3.916c2.2-.032,3.741,1.641,3.721,4.039m-3.913,2.21,1,.309a10.892,10.892,0,0,0,.8-2.991c-.006-.568-.869-1.129-1.345-1.693l-.456.354Z" transform="translate(14.032 6.408)" fill="#393351"/>
    </g>
    <g id="Grupo_1100987" data-name="Grupo 1100987" transform="translate(-10551.382 -13179.573) rotate(31)" clip-path="url(#clip-path-2)">
      <path id="Trazado_875576" data-name="Trazado 875576" d="M25.847,13.777A32.494,32.494,0,0,0,22.132.231c-.3-.566-1.115.016-.816.579a33.385,33.385,0,0,1,2.4,23.983A40.338,40.338,0,0,1,11.339,44.361,49.853,49.853,0,0,1,1.631,51.1c.192-.454.376-.912.543-1.376a28.491,28.491,0,0,0,.919-3.1c.147-.628-.836-.8-.985-.181a25.4,25.4,0,0,1-.861,2.909q-.258.714-.559,1.413c-.2.468-.466.924-.636,1.4a.715.715,0,0,0,.526.989c.509.116,1.049.157,1.567.234l3.243.478c.636.094.817-.89.181-.984L3.12,52.528l-1.193-.176-.408-.06A48.238,48.238,0,0,0,18.986,37.241a37.851,37.851,0,0,0,6.861-23.464" fill="#434a56"/>
    </g>
  </g>
</svg>
