<svg xmlns="http://www.w3.org/2000/svg" xmlns:xlink="http://www.w3.org/1999/xlink" width="820" height="164.843" viewBox="0 0 820 164.843">
  <defs>
    <clipPath id="clip-path">
      <path id="Rect치ngulo_401268" data-name="Rect치ngulo 401268" d="M30,0H820a0,0,0,0,1,0,0V134.843a30,30,0,0,1-30,30H0a0,0,0,0,1,0,0V30A30,30,0,0,1,30,0Z" fill="#567d56"/>
    </clipPath>
    <linearGradient id="linear-gradient" x1="1.017" y1="0.118" x2="0.163" y2="0.422" gradientUnits="objectBoundingBox">
      <stop offset="0" stop-color="#d8f263"/>
      <stop offset="0.123" stop-color="#d7f163"/>
      <stop offset="1" stop-color="#b3c853"/>
    </linearGradient>
    <clipPath id="clip-path-2">
      <rect id="Rect치ngulo_402113" data-name="Rect치ngulo 402113" width="458.93" height="482.983" fill="#d8f263"/>
    </clipPath>
  </defs>
  <g id="fnd-1" transform="translate(1365.126 7449.421)">
    <g id="Grupo_1101236" data-name="Grupo 1101236" transform="translate(-1708.825 -9018.994)">
      <g id="Grupo_1101151" data-name="Grupo 1101151" transform="translate(343.699 1569.573)">
        <g id="Enmascarar_grupo_1098728" data-name="Enmascarar grupo 1098728" clip-path="url(#clip-path)">
          <path id="Recurso_1" data-name="Recurso 1" d="M0,0H832.833V228.084H0Z" transform="translate(832.833 176.247) rotate(180)" fill="url(#linear-gradient)"/>
          <g id="Grupo_1101017" data-name="Grupo 1101017" transform="translate(44.522 -181.36)" opacity="0.25" style="mix-blend-mode: multiply;isolation: isolate">
            <g id="Grupo_1101016" data-name="Grupo 1101016" transform="translate(0 0)" clip-path="url(#clip-path-2)">
              <path id="Trazado_876378" data-name="Trazado 876378" d="M403.717,62.971a40.465,40.465,0,0,1,3.828,1.626A41.085,41.085,0,0,1,417.9,71.99a71.85,71.85,0,0,1,12.026,15.985c.972,1.687,1.944,3.449,2.886,5.3.477.97.954,1.959,1.449,2.967q.635,1.428,1.288,2.905c1.711,3.981,3.685,8.023,5.473,12.628,7.494,18.544,13.844,41.81,16.593,69.421a242.037,242.037,0,0,1,.548,44.035,247.437,247.437,0,0,1-7.959,48.108,268.292,268.292,0,0,1-18.65,49.357q-3.211,6.017-6.475,12.14-3.613,5.832-7.292,11.757a268.4,268.4,0,0,1-16.813,23.044c-12.139,14.866-26.376,28.44-41.818,41.216-15.418,12.807-32.583,24.465-51.584,33.317a185.126,185.126,0,0,1-61.261,16.4,236.214,236.214,0,0,1-32.529.5c-5.282-.532-10.279-.569-15.841-1.5-5.432-.89-11.1-1.279-16.348-2.646-42.731-8.771-83.774-30.473-114.849-62.943a240.66,240.66,0,0,1-39.016-54.667A320.54,320.54,0,0,1,14.145,308.5a233.979,233.979,0,0,1-9.963-32.334c-4.925-22.073-5.271-44.987-2.242-66.955,3.035-21.9,8.973-43.46,19.264-62.6,10.064-19.137,25.011-35.789,43.84-45.395,18.59-9.1,37.877-11.744,53.188-19.829,15.507-8.147,27.986-21.931,42.534-32.637A207.991,207.991,0,0,1,205.78,22.422,234.051,234.051,0,0,1,294.1,4.163c27.074.142,50.8,6.348,68.177,15.985A102.148,102.148,0,0,1,396.8,50.423a79.834,79.834,0,0,1,6.481,10.347c1.341,2.411,2.039,3.653,2.039,3.653a3.453,3.453,0,0,1-1.192,4.624,3.193,3.193,0,0,1-4.293-.958l-.2-.284s-.751-1.1-2.206-3.227a78.3,78.3,0,0,0-6.791-9.018,94.529,94.529,0,0,0-33.149-25.3c-16.1-8.011-38.08-12.381-63.223-11.621-25.244.692-53.659,6.657-82.415,19.125q-10.794,4.571-21.66,10.255a224.91,224.91,0,0,0-21.613,12.418c-7.327,4.71-14.16,9.76-21.565,15.311-7.339,5.458-15.12,11.176-23.849,15.645-17.719,9.266-37.007,11.522-53.212,20.33C54.091,120.253,41.118,135.285,32.5,152.9c-8.854,17.6-13.856,37.613-15.967,58.2s-1.389,41.55,1.169,62.542a205.555,205.555,0,0,0,6.046,31.339,155.076,155.076,0,0,0,12.2,29.725c9.885,19.051,23.479,35.975,38.915,50.476,30.884,28.984,69.185,49.561,109.405,57.053,40.763,8.147,80.62-.655,117.1-13.963a238.031,238.031,0,0,0,51.59-26.239c15.824-10.848,29.417-24.243,41.169-38.435A219.242,219.242,0,0,0,410.2,341.646q3.47-5.86,6.892-11.627,3.014-5.943,5.974-11.781a250.949,250.949,0,0,0,16.783-47.731,275.979,275.979,0,0,0,6.916-88.256,267.224,267.224,0,0,0-14.327-66.683c-1.556-4.469-3.458-8.722-5.02-12.715q-.6-1.493-1.192-2.948c-.393-.878-.781-1.737-1.169-2.59q-1.261-2.624-2.432-5.069a64.433,64.433,0,0,0-9.885-14.785,34.537,34.537,0,0,0-8.126-6.546,35.829,35.829,0,0,0-3.369-1.657,3.439,3.439,0,0,1-1.795-4.426,3.233,3.233,0,0,1,4.269-1.861" transform="translate(-0.003 21.571)" fill="#d8f263"/>
              <path id="Trazado_876379" data-name="Trazado 876379" d="M359.588,60.655a35.772,35.772,0,0,1,3.375,1.428,36.229,36.229,0,0,1,9.176,6.515,63.55,63.55,0,0,1,10.636,14.068q1.288,2.225,2.546,4.661c.423.859.847,1.731,1.282,2.621.376.834.751,1.681,1.133,2.547,1.508,3.486,3.243,7.022,4.823,11.071a220.925,220.925,0,0,1,14.643,61,211.11,211.11,0,0,1,.495,38.7,216.633,216.633,0,0,1-7.017,42.28A235.026,235.026,0,0,1,384.242,288.9q-2.817,5.285-5.694,10.663-3.184,5.118-6.415,10.316a237.365,237.365,0,0,1-14.774,20.256c-10.666,13.067-23.181,24.978-36.7,36.265-13.51,11.312-28.553,21.659-45.253,29.509a162.634,162.634,0,0,1-53.9,14.446,209.312,209.312,0,0,1-28.648.371,218.479,218.479,0,0,1-28.308-3.678c-37.579-7.745-73.692-26.827-100.957-55.446a213.673,213.673,0,0,1-34.223-48.121c-4.424-8.87-8.46-17.833-11.972-27.074a206.971,206.971,0,0,1-8.9-28.4c-4.412-19.4-4.7-39.585-2.009-58.907,2.7-19.261,7.948-38.237,17.034-55.087C32.41,117.164,45.6,102.5,62.239,94.027c16.4-8,33.316-10.329,46.648-17.375,13.522-7.1,24.427-19.23,37.186-28.693a180.493,180.493,0,0,1,39.559-23.241,205.673,205.673,0,0,1,77.7-15.972c23.831.155,44.7,5.674,60,14.192A89.842,89.842,0,0,1,353.668,49.7a70.139,70.139,0,0,1,5.676,9.13c1.175,2.126,1.777,3.22,1.777,3.22a3.309,3.309,0,0,1-1.157,4.426,3.057,3.057,0,0,1-4.09-.909l-.191-.278-1.944-2.812a69.737,69.737,0,0,0-5.968-7.856,82.685,82.685,0,0,0-29.024-21.987c-14.065-6.96-33.275-10.718-55.251-10.014-22.078.63-46.91,5.885-72.046,16.807a267.983,267.983,0,0,0-37.883,19.737c-6.439,4.111-12.413,8.493-18.942,13.351-6.451,4.772-13.308,9.8-21,13.735C97.982,94.423,81.061,96.382,66.943,104.1c-13.79,7.436-25.095,20.559-32.6,35.95-7.7,15.373-12.049,32.859-13.868,50.865s-1.169,36.309.984,54.679a178.307,178.307,0,0,0,5.145,27.451,132.46,132.46,0,0,0,10.636,26.023c8.645,16.677,20.6,31.456,34.133,44.109,27.08,25.275,60.563,43.281,95.734,49.8,4.388,1.088,8.669,1.255,12.986,1.947,4.2.674,9.092.482,13.588.76a164.565,164.565,0,0,0,25.989-1.885,247.744,247.744,0,0,0,49.79-13.117,208.887,208.887,0,0,0,45.253-22.728c13.892-9.433,25.792-21.177,36.083-33.6a189.79,189.79,0,0,0,14.059-19.211q3.041-5.137,6.028-10.193,2.638-5.2,5.223-10.323a219.645,219.645,0,0,0,14.649-41.8,243.084,243.084,0,0,0,6.046-77.247A235.329,235.329,0,0,0,384.331,107.2c-1.359-3.913-3.023-7.652-4.382-11.157-.358-.878-.7-1.737-1.043-2.584-.346-.766-.686-1.521-1.014-2.262q-1.1-2.3-2.123-4.438a56.551,56.551,0,0,0-8.58-12.919,27.633,27.633,0,0,0-9.975-7.164l-1.52-3.443a2.46,2.46,0,0,1,1.151-3.208,2.285,2.285,0,0,1,2.743.63" transform="translate(23.64 45.312)" fill="#d8f263"/>
              <path id="Trazado_876380" data-name="Trazado 876380" d="M165.658,263.107a22.647,22.647,0,0,0,5.831,2.571,21.919,21.919,0,0,0,7.345.841,22.465,22.465,0,0,0,4.317-.68l2.886-.921c.71-.352,1.437-.7,2.188-1.076,6.427-3.523,12.532-11.6,16.05-22.778a85.956,85.956,0,0,0,3.649-18.476c.423-3.579.763-7.146.888-10.6.286-3.5.274-7.189.31-10.972a176.9,176.9,0,0,0-6.785-48.436c-2.54-8.351-5.306-16.937-9.522-25.108-4.162-8.184-9.212-16.084-14.166-24.132-4.853-8.1-9.569-16.417-14.106-25.114-4.49-8.518-9.492-16.949-15.651-24.224a87.908,87.908,0,0,0-20.707-18.8,64.131,64.131,0,0,0-6.01-3.282l-1.538-.754-1.491-.581-3.452-1.36a66.357,66.357,0,0,0-13.027-3.01A55.636,55.636,0,0,0,75.231,29.7c-8.83,3.3-16.205,10-21.017,17.7a51.871,51.871,0,0,0-6.195,10.966,19.51,19.51,0,0,0-1.043,10.409c1.234,7.5,6.749,15.849,12.073,22.951,11.131,14.582,25.393,26.721,37.436,40.067,12.121,13.358,24,26.11,31.385,40.512,7.518,14.235,12.276,28.366,15.9,40.524,3.619,12.134,6.743,22.333,10.07,30.344a87.969,87.969,0,0,0,9.295,17.536c1.264,1.91,2.355,3.27,3.094,4.2s1.109,1.415,1.109,1.415l.167.21a3.338,3.338,0,0,1-.459,4.574,3.053,3.053,0,0,1-4-.037s-.5-.445-1.479-1.3a48.1,48.1,0,0,1-4.2-3.962,89.784,89.784,0,0,1-12.86-17.771c-4.609-8.24-8.955-18.779-13.391-30.554-4.412-11.751-9.45-24.471-16.658-37.477-7.2-12.863-14.136-27.995-25.518-40.8-11.31-12.956-26.031-24.076-39.29-39.263a118.119,118.119,0,0,1-9.3-12.338,53.133,53.133,0,0,1-7.077-15.62,30.7,30.7,0,0,1,1.151-19.267,39.773,39.773,0,0,1,9.969-14.408,65.939,65.939,0,0,1,13.272-9.754,110.639,110.639,0,0,1,14.285-7.368,80.946,80.946,0,0,1,31.361-6.62c22.99-.1,42.188,14.019,55.967,29.973,6.874,8.11,13.081,16.411,18.906,24.849a147.865,147.865,0,0,1,14.5,26.295,273.087,273.087,0,0,1,9.45,27.778c2.862,9.1,5.861,17.895,8.287,26.647,4.895,17.462,8.347,34.516,8.967,50.63a113.528,113.528,0,0,1,.083,11.911q-.107,2.939-.215,5.81-.3,2.717-.572,5.365a81.45,81.45,0,0,1-4.561,20.862c-4.358,12.733-12.425,23.291-22.06,27.525l-3.744,1.428c-1.008.247-1.991.482-2.939.717a24.25,24.25,0,0,1-6.582.513,29.4,29.4,0,0,1-9.641-2.176,26.067,26.067,0,0,1-5.414-2.973c-1.163-.835-1.514-1.187-1.562-1.2a3.292,3.292,0,0,1-.28-4.531,3.031,3.031,0,0,1,2.844-1.045Z" transform="translate(160.018 75.471)" fill="#d8f263"/>
              <path id="Trazado_876381" data-name="Trazado 876381" d="M250.172,202s.2.68.6,2c.191.674.459,1.446.721,2.485q.286,1.734.662,3.993a47.231,47.231,0,0,1-3.917,24.781,59.532,59.532,0,0,1-25.446,28.094c-1.693.828-3.255,1.786-5.139,2.522-1.586.674-3.178,1.372-5.163,2.009a69.3,69.3,0,0,1-11.561,2.85,87.192,87.192,0,0,1-24.94.155c-17.177-2.207-34.527-8.326-52.252-16.065-8.89-3.839-17.69-8.5-26.83-13.117a212.6,212.6,0,0,1-27.378-15.824c-2.212-1.564-4.346-3.251-6.469-4.982-1.1-.89-2.039-1.663-3.226-2.72l-2.951-2.676a132.96,132.96,0,0,1-11.447-12.4,229.726,229.726,0,0,1-19.472-28.452c-11.435-20.176-19.037-44.53-15.9-68.933A109.506,109.506,0,0,1,20.219,71.382a126.748,126.748,0,0,1,8.937-15.465A76.085,76.085,0,0,1,40.877,41.73a51.85,51.85,0,0,1,15.239-9.507,58.546,58.546,0,0,1,17.326-4.018,66.98,66.98,0,0,1,33.942,5.582,59.439,59.439,0,0,1,14.422,9.439,59.633,59.633,0,0,1,10.625,13.209c5.658,10.051,8.556,20.108,10.917,29.781a160.2,160.2,0,0,0,8.556,26.462A126.225,126.225,0,0,0,163.775,133.9a71.944,71.944,0,0,0,6.946,8.474l.924.946c-.167-.13.6.532.847.754l2.212,1.953a45.837,45.837,0,0,0,4.084,3.208,130.419,130.419,0,0,0,17.35,10.4c11.751,5.953,22.752,11.1,31.254,16.77a67.417,67.417,0,0,1,17.761,16.312,39.986,39.986,0,0,1,3.494,5.452c.733,1.261,1.109,1.916,1.109,1.916a3.3,3.3,0,0,1-1.067,4.438,3.042,3.042,0,0,1-3.965-.643l-.274-.334s-.423-.507-1.246-1.483a39.027,39.027,0,0,0-3.732-4.154c-3.315-3.567-8.967-7.98-17.237-12.09-8.216-4.265-18.96-8.141-31.671-13.518-12.383-5.433-28.243-13.339-39.159-29.021-5.5-7.572-9.182-16.59-11.847-25.912-2.7-9.433-4-19.125-6.272-28.483-2.307-9.247-5.008-18.766-9.843-26.27a45.277,45.277,0,0,0-8.991-10.261,47.5,47.5,0,0,0-11.793-6.812,52.826,52.826,0,0,0-27.6-2.874c-4.722.606-9.217,2.231-13.707,3.733A81.434,81.434,0,0,0,48.336,52.98a58.048,58.048,0,0,0-11.584,9.3,50.465,50.465,0,0,0-8.6,13.154,65.133,65.133,0,0,0-5.02,15.218A79.279,79.279,0,0,0,21.3,106.645a97.1,97.1,0,0,0,.763,15.91c.2,1.261.352,2.516.495,3.8l.763,4.191c.435,2.4,1.151,5.137,1.824,7.652a121.942,121.942,0,0,0,32.088,53.579c3.625,3.771,7.31,7.115,11,10.675q5.607,5.3,11.119,10.533a251.152,251.152,0,0,0,22.686,19.724c7.965,5.817,16.557,10.193,25.023,14.087,17.046,7.485,34.288,12.2,49.969,13.512a95.944,95.944,0,0,0,22.257-.655,71.588,71.588,0,0,0,9.79-2.337,47.98,47.98,0,0,0,4.74-1.675c1.377-.47,2.778-1.28,4.144-1.879A53.824,53.824,0,0,0,240.2,231.216a42.541,42.541,0,0,0,4.829-20.064c-.066-1.144-.119-2.157-.173-3.029-.113-.952-.3-1.836-.411-2.5-.238-1.36-.364-2.058-.364-2.058a3.26,3.26,0,0,1,2.528-3.8A3.141,3.141,0,0,1,250.172,202" transform="translate(46.438 144.611)" fill="#d8f263"/>
              <path id="Trazado_876382" data-name="Trazado 876382" d="M42.491,69.064A134.991,134.991,0,0,1,52.978,28.911c1.246-2.868,2.76-5.878,5.467-7.294,3.911-2.046,9.039.334,11.1,4.339s1.5,9.018-.364,13.123-4.907,7.492-7.894,10.811Q55.64,56.158,50,62.42c-2.2,2.448-5.306,4.2-7.506,6.645" transform="translate(210.846 108.128)" fill="#d8f263"/>
              <path id="Trazado_876383" data-name="Trazado 876383" d="M47.191,57.067A72.952,72.952,0,0,1,65.876,31.681c2.236-1.947,4.7-3.8,7.56-4.407s6.213.334,7.709,2.93a9.013,9.013,0,0,1,.668,6.021c-1.157,6.5-5.783,11.942-11.334,15.2s-16.318,5.155-22.662,5.854" transform="translate(234.168 140.382)" fill="#d8f263"/>
              <path id="Trazado_876384" data-name="Trazado 876384" d="M50.69,44.881c7.023-3.758,14.178-7.56,21.953-9.043s16.4-.34,22.441,4.939a7.75,7.75,0,0,1,2.689,3.9,8.977,8.977,0,0,1-.286,4.123c-.864,3.554-2.236,7.226-5.074,9.408-3.339,2.565-7.87,2.5-12.008,2.065a105.823,105.823,0,0,1-19.508-3.9c-4.871-1.459-10.416-4.185-11.137-9.4" transform="translate(246.916 182.59)" fill="#d8f263"/>
              <path id="Trazado_876385" data-name="Trazado 876385" d="M52.037,45.508c6.427-.451,12.878-.612,19.317-.494,5.622.105,11.3.433,16.688,2.114C93.48,48.833,99.2,53.135,98.9,59.02c-.238,4.617-4.382,8.264-8.77,9.093s-8.884-.575-12.962-2.442c-8.741-4-19.18-12.412-25.13-20.163" transform="translate(258.215 233.033)" fill="#d8f263"/>
              <path id="Trazado_876386" data-name="Trazado 876386" d="M69.1,41.683a122.4,122.4,0,0,0-40.113-.964c-3,.427-6.219,1.088-8.293,3.375-3,3.307-2.254,9.074.87,12.257S29.48,60.406,33.8,59.707s8.323-2.751,12.24-4.778q7.4-3.839,14.786-7.665c2.886-1.5,5.39-4.086,8.275-5.582" transform="translate(93.262 204.715)" fill="#d8f263"/>
              <path id="Trazado_876387" data-name="Trazado 876387" d="M59.005,45.3A69.066,69.066,0,0,0,30.226,56.671c-2.433,1.675-4.841,3.6-6.219,6.268s-1.455,6.274.531,8.5a8.233,8.233,0,0,0,5.372,2.367c6.344.692,12.687-2.361,17.278-6.954s9.39-14.761,11.835-20.874" transform="translate(114.159 234.701)" fill="#d8f263"/>
              <path id="Trazado_876388" data-name="Trazado 876388" d="M48.031,49.562c-5.467,5.922-11.012,11.955-14.589,19.261s-4.955,16.2-1.789,23.711A7.7,7.7,0,0,0,34.5,96.31a8.1,8.1,0,0,0,3.893.884c3.536.148,7.316-.173,10.142-2.38,3.321-2.59,4.537-7.115,5.318-11.349a118.128,118.128,0,0,0,1.92-20.5c.03-5.26-.924-11.547-5.539-13.735" transform="translate(148.29 255.094)" fill="#d8f263"/>
              <path id="Trazado_876389" data-name="Trazado 876389" d="M47.5,53.663q-3.354,9.392-5.932,19.063c-1.5,5.619-2.8,11.361-2.772,17.184.036,5.9,2.391,12.8,7.924,14.167,4.34,1.076,8.884-2.009,10.893-6.138s1.985-8.994,1.419-13.574A79.018,79.018,0,0,0,47.5,53.663" transform="translate(192.481 278.042)" fill="#d8f263"/>
              <path id="Trazado_876390" data-name="Trazado 876390" d="M95.688,80.876c1.175-3.165,2.337-6.249,3.327-9.284.966-3.122,1.985-6.212,2.838-9.358s1.532-6.323,2.289-9.482q1.028-4.766,1.789-9.581c.495-3.208.793-6.441,1.192-9.661q.5-4.84.739-9.7a174.469,174.469,0,0,0-.173-19.5l7.244.365-4.048,17.011C109.532,27.341,108.137,33,106.891,38.7c-1.222,5.705-1.932,11.584-2.987,17.394a100.461,100.461,0,0,1-4.37,17.048l-.048.142a6.522,6.522,0,0,1-8.436,4.08,6.676,6.676,0,0,1-3.691-3.486c-2.975-6.478-5.366-13.2-8.454-19.5A179.5,179.5,0,0,0,68.584,36.31Q65.749,32.017,62.634,28c-2.134-2.627-4.227-5.266-6.487-7.757C53.84,17.8,51.521,15.38,49,13.161A62.251,62.251,0,0,0,40.89,7.332l4.99-4.247c.8,3.078,1.663,6.138,2.731,9.13A84.855,84.855,0,0,0,52.5,20.925a130.308,130.308,0,0,1,7.6,17.351A334.068,334.068,0,0,0,74.719,73.193l.119.253a4.526,4.526,0,0,1-1.9,5.983,4.158,4.158,0,0,1-3.226.272,121.627,121.627,0,0,0-26.347-5.724,124.185,124.185,0,0,0-13.48-.13c-4.484.167-8.931.4-13.379.389l5.843-7.028a22.424,22.424,0,0,0,.62,2.862,13.009,13.009,0,0,0,1.145,2.751,19.186,19.186,0,0,0,3.917,5.025,36.814,36.814,0,0,0,12.1,7.319c1.145.457,2.313.841,3.5,1.2,1.234.334,2.284.637,3.679.921,2.558.556,5.324,1.063,8.114,1.774a39.083,39.083,0,0,1,8.4,3.258,18.932,18.932,0,0,1,7.089,6.459,2.607,2.607,0,0,1-.692,3.536,2.389,2.389,0,0,1-3.029-.247l-.1-.1c-3.369-3.214-7.977-4.4-13.1-4.834L46,96.4c-1.288-.1-2.91-.321-4.334-.538-1.467-.253-2.927-.544-4.382-.921a42.228,42.228,0,0,1-16.557-8.2A28.924,28.924,0,0,1,10.448,68.829a6.128,6.128,0,0,1,5.032-6.966c.215-.031.429-.049.638-.062H16.3c9.51-.34,18.93,1.687,28.159,3.461,4.627.865,9.265,1.6,13.868,2.565,4.591,1.014,9.2,1.972,13.761,3.19l-5.008,6.5Q57.5,60.664,49.583,42.781c-1.318-2.979-2.4-6.058-3.416-9.154A81.9,81.9,0,0,1,43.9,24.058c-.65-3.22-1.192-6.466-2.039-9.6-.811-3.14-1.771-6.237-2.713-9.34A3.623,3.623,0,0,1,41.4.6a3.393,3.393,0,0,1,2.737.278c1.6.915,3.226,1.78,4.865,2.639l4.71,2.948a81.394,81.394,0,0,1,8.836,6.806,83.485,83.485,0,0,1,7.763,8.017q3.559,4.284,6.761,8.821A211.9,211.9,0,0,1,88.617,48.845c3.607,6.33,7.441,12.511,10.619,18.958l-12.181.742a152.472,152.472,0,0,1,6.314-15.917,172.289,172.289,0,0,0,6.594-15.941,247.824,247.824,0,0,0,7.781-33.558A3.674,3.674,0,0,1,111.977.057,3.739,3.739,0,0,1,114.97,3.3l.018.192a127.467,127.467,0,0,1,1.169,20.621q-.179,5.174-.644,10.329c-.334,3.431-.942,6.83-1.544,10.218A125.454,125.454,0,0,1,108.6,64.527c-1.192,3.208-2.4,6.4-3.834,9.5-1.491,3.146-2.981,6.169-4.639,9.025l-.03.056a2.42,2.42,0,0,1-3.381.872,2.6,2.6,0,0,1-1.025-3.1" transform="translate(51.541 0.001)" fill="#d8f263"/>
            </g>
          </g>
        </g>
      </g>
    </g>
  </g>
</svg>
