<svg xmlns="http://www.w3.org/2000/svg" xmlns:xlink="http://www.w3.org/1999/xlink" width="1030" height="180.24" viewBox="0 0 1030 180.24">
  <defs>
    <clipPath id="clip-path">
      <path id="Rect치ngulo_401268" data-name="Rect치ngulo 401268" d="M30,0H1030a0,0,0,0,1,0,0V150.24a30,30,0,0,1-30,30H0a0,0,0,0,1,0,0V30A30,30,0,0,1,30,0Z" fill="#567d56" stroke="#707070" stroke-width="1"/>
    </clipPath>
    <linearGradient id="linear-gradient" x1="0.787" y1="0.406" x2="0.352" y2="0.464" gradientUnits="objectBoundingBox">
      <stop offset="0" stop-color="#ded6fd"/>
      <stop offset="1" stop-color="#ac9afc"/>
    </linearGradient>
    <clipPath id="clip-path-2">
      <rect id="Rect치ngulo_402113" data-name="Rect치ngulo 402113" width="576.46" height="528.097" fill="#ac9afc"/>
    </clipPath>
  </defs>
  <g id="fnd-4" transform="translate(12741.133 -6576.998)">
    <g id="Grupo_1101236" data-name="Grupo 1101236" transform="translate(-12995.832 4949.425)">
      <g id="Grupo_1101151" data-name="Grupo 1101151" transform="translate(-46.301 -61.746)">
        <g id="Enmascarar_grupo_1098728" data-name="Enmascarar grupo 1098728" transform="translate(301 1689.319)" clip-path="url(#clip-path)">
          <path id="Recurso_1" data-name="Recurso 1" d="M0,0H1046.12V249.389H0Z" transform="translate(1046.12 192.71) rotate(180)" fill="url(#linear-gradient)"/>
          <g id="Grupo_1101017" data-name="Grupo 1101017" transform="translate(55.924 -198.301)" opacity="0.08" style="mix-blend-mode: multiply;isolation: isolate">
            <g id="Grupo_1101016" data-name="Grupo 1101016" transform="translate(0 0)" clip-path="url(#clip-path-2)">
              <path id="Trazado_876378" data-name="Trazado 876378" d="M507.108,68.464c.082.095,1.4.331,4.808,1.778a52.275,52.275,0,0,1,13.008,8.083A80.723,80.723,0,0,1,540.03,95.8c1.221,1.845,2.441,3.771,3.625,5.8.6,1.061,1.2,2.142,1.82,3.244q.8,1.561,1.618,3.177c2.149,4.353,4.628,8.773,6.875,13.808a246.813,246.813,0,0,1,20.842,75.906,230.536,230.536,0,0,1,.689,48.148c-1.468,16.91-4.254,34.692-10,52.6a270.9,270.9,0,0,1-23.426,53.967q-4.033,6.58-8.133,13.274-4.538,6.377-9.159,12.855c-6.538,8.435-13.405,17.234-21.119,25.2-15.248,16.254-33.131,31.1-52.528,45.066a309.21,309.21,0,0,1-64.8,36.429,260.223,260.223,0,0,1-76.95,17.937,340.724,340.724,0,0,1-40.86.547c-6.635-.581-12.911-.622-19.9-1.642-6.823-.973-13.937-1.4-20.535-2.893-53.674-9.59-105.228-33.32-144.261-68.823a267.189,267.189,0,0,1-49.008-59.773,329.224,329.224,0,0,1-17.06-33.7A232.1,232.1,0,0,1,5.254,301.575c-6.186-24.135-6.62-49.189-2.816-73.209,3.812-23.946,11.271-47.52,24.2-68.451C39.276,138.99,58.051,120.783,81.7,110.28c23.351-9.949,47.578-12.841,66.81-21.682,19.479-8.908,35.153-23.98,53.427-35.685A272.687,272.687,0,0,1,258.48,24.128,332.162,332.162,0,0,1,369.423,4.163c34.008.155,63.807,6.941,85.637,17.478a124.074,124.074,0,0,1,43.361,33.1,86.351,86.351,0,0,1,8.141,11.314c1.685,2.636,2.561,3.994,2.561,3.994a3.51,3.51,0,0,1-1.5,5.055,4.388,4.388,0,0,1-5.392-1.048l-.247-.311s-.944-1.2-2.771-3.528a87.7,87.7,0,0,0-8.53-9.861A117.945,117.945,0,0,0,449.046,32.7c-20.22-8.759-47.832-13.537-79.414-12.706-31.708.757-67.4,7.279-103.521,20.911q-13.559,5-27.208,11.213a295.692,295.692,0,0,0-27.148,13.578c-9.2,5.15-17.786,10.672-27.088,16.741-9.219,5.968-18.992,12.22-29.956,17.106-22.257,10.131-46.484,12.6-66.84,22.229C67.944,131.1,51.648,147.533,40.827,166.8c-11.121,19.248-17.4,41.126-20.056,63.639s-1.745,45.431,1.468,68.384a199.106,199.106,0,0,0,7.594,34.266c3.617,11.307,9.137,22.155,15.323,32.5,12.417,20.83,29.492,39.335,48.881,55.191,38.793,31.691,86.9,54.19,137.424,62.382,51.2,8.908,101.267-.716,147.092-15.268,22.939-7.414,44.927-16.856,64.8-28.69,19.876-11.861,36.951-26.507,51.712-42.025a244.526,244.526,0,0,0,20.183-24.007q4.359-6.407,8.657-12.713,3.786-6.5,7.5-12.882a251.664,251.664,0,0,0,21.082-52.19,263.927,263.927,0,0,0,8.687-96.5,260.22,260.22,0,0,0-18-72.912c-1.955-4.886-4.344-9.536-6.306-13.9q-.753-1.632-1.5-3.224c-.494-.96-.981-1.9-1.468-2.832q-1.584-2.869-3.055-5.542a70.794,70.794,0,0,0-12.417-16.167,43.009,43.009,0,0,0-10.207-7.157c-2.4-1.217-4.359-1.8-4.231-1.811a3.6,3.6,0,0,1-2.254-4.839,4.275,4.275,0,0,1,5.362-2.034" transform="translate(-0.004 23.975)" fill="#ac9afc"/>
              <path id="Trazado_876379" data-name="Trazado 876379" d="M450.458,65.5c.075.081,1.206.284,4.239,1.561a46.14,46.14,0,0,1,11.526,7.124,71.465,71.465,0,0,1,13.36,15.383c1.078,1.622,2.149,3.318,3.2,5.1.532.939,1.063,1.892,1.61,2.866.472.912.944,1.838,1.423,2.785,1.895,3.812,4.074,7.678,6.059,12.1a216.264,216.264,0,0,1,18.393,66.7,201.086,201.086,0,0,1,.622,42.316c-1.3,14.855-3.737,30.488-8.815,46.229a237.393,237.393,0,0,1-20.647,47.4q-3.539,5.779-7.152,11.659-4,5.6-8.058,11.28a264.57,264.57,0,0,1-18.558,22.148c-13.4,14.288-29.117,27.311-46.1,39.653a271.14,271.14,0,0,1-56.842,32.266,228.6,228.6,0,0,1-67.7,15.795,301.938,301.938,0,0,1-35.985.406,313.294,313.294,0,0,1-35.558-4.021c-47.2-8.469-92.564-29.332-126.812-60.625a237.064,237.064,0,0,1-42.987-52.616,305.137,305.137,0,0,1-15.038-29.6A205.555,205.555,0,0,1,9.459,270.357c-5.542-21.215-5.9-43.282-2.524-64.409,3.393-21.06,9.983-41.809,21.4-60.233,11.159-18.424,27.724-34.462,48.626-43.721,20.595-8.746,41.849-11.294,58.594-19,16.985-7.759,30.683-21.026,46.709-31.373a236.474,236.474,0,0,1,49.69-25.412,291.934,291.934,0,0,1,97.6-17.464c29.934.169,56.153,6.2,75.362,15.518a109,109,0,0,1,38.1,29.258,75.764,75.764,0,0,1,7.13,9.982c1.475,2.325,2.232,3.521,2.232,3.521a3.366,3.366,0,0,1-1.453,4.839,4.2,4.2,0,0,1-5.137-.994l-.24-.3-2.441-3.075a78.245,78.245,0,0,0-7.5-8.59,103.311,103.311,0,0,0-36.457-24.04c-17.667-7.61-41.8-11.719-69.4-10.949-27.732.689-58.924,6.434-90.5,18.377-15.682,5.961-32,12.862-47.585,21.58-8.088,4.494-15.592,9.286-23.793,14.6-8.1,5.218-16.716,10.719-26.384,15.018-19.644,8.942-40.9,11.084-58.632,19.519-17.322,8.131-31.521,22.479-40.943,39.308C32.248,169.12,26.789,188.24,24.5,207.928s-1.468,39.7,1.236,59.787A172.554,172.554,0,0,0,32.2,297.729c3.108,9.9,7.946,19.4,13.36,28.454,10.859,18.235,25.875,34.395,42.875,48.229,34.015,27.636,76.074,47.324,120.251,54.447,5.512,1.19,10.889,1.372,16.311,2.129,5.28.737,11.421.527,17.067.831a236.925,236.925,0,0,0,32.645-2.061,348.873,348.873,0,0,0,62.541-14.342c20.078-6.414,39.385-14.558,56.842-24.851,17.449-10.314,32.4-23.155,45.324-36.74a211.673,211.673,0,0,0,17.659-21.006q3.819-5.616,7.571-11.145,3.314-5.687,6.56-11.287a220.2,220.2,0,0,0,18.4-45.7,232.461,232.461,0,0,0,7.594-84.462A229.105,229.105,0,0,0,481.537,116.4c-1.708-4.278-3.8-8.367-5.5-12.2-.449-.96-.884-1.9-1.311-2.825-.434-.838-.861-1.663-1.273-2.474q-1.382-2.514-2.666-4.853A62.059,62.059,0,0,0,460.006,79.92a35.442,35.442,0,0,0-12.529-7.833l-1.91-3.765a2.549,2.549,0,0,1,1.445-3.508,3.159,3.159,0,0,1,3.445.689" transform="translate(30.914 50.361)" fill="#ac9afc"/>
              <path id="Trazado_876380" data-name="Trazado 876380" d="M199.824,286.323a30.547,30.547,0,0,0,7.324,2.812,31.414,31.414,0,0,0,9.227.919,32.113,32.113,0,0,0,5.422-.743l3.625-1.007c.891-.385,1.8-.77,2.748-1.176,8.073-3.852,15.742-12.686,20.16-24.905a83.38,83.38,0,0,0,4.583-20.2c.532-3.913.959-7.813,1.116-11.591.359-3.825.345-7.86.389-12a170.137,170.137,0,0,0-8.523-52.96c-3.19-9.131-6.665-18.519-11.96-27.453-5.227-8.948-11.571-17.586-17.794-26.386-6.1-8.861-12.02-17.951-17.719-27.46-5.639-9.313-11.923-18.532-19.659-26.487a106.587,106.587,0,0,0-26.009-20.553c-2.471-1.271-4.95-2.562-7.549-3.589l-1.932-.825-1.872-.635L137.066,30.6A93.928,93.928,0,0,0,120.7,27.306c-11.436-1.122-23.538-.142-34.464,3.812a53.3,53.3,0,0,0-26.4,19.35,55.189,55.189,0,0,0-7.781,11.99,18.765,18.765,0,0,0-1.311,11.381c1.55,8.2,8.478,17.329,15.165,25.095,13.982,15.944,31.9,29.217,47.024,43.809,15.225,14.605,30.143,28.548,39.422,44.3,9.444,15.565,15.42,31.015,19.973,44.309,4.546,13.267,8.47,24.419,12.649,33.178A92.929,92.929,0,0,0,196.656,283.7c1.588,2.088,2.958,3.575,3.887,4.589s1.393,1.548,1.393,1.548l.21.23a3.329,3.329,0,0,1-.577,5,4.275,4.275,0,0,1-5.025-.041s-.629-.487-1.857-1.419a57.944,57.944,0,0,1-5.272-4.332,100.191,100.191,0,0,1-16.154-19.431c-5.789-9.009-11.249-20.533-16.82-33.408-5.542-12.848-11.87-26.757-20.924-40.977-9.039-14.065-17.756-30.61-32.053-44.614-14.207-14.166-32.7-26.325-49.353-42.931a132.532,132.532,0,0,1-11.683-13.49,54.857,54.857,0,0,1-8.889-17.079,29.5,29.5,0,0,1,1.445-21.067A43.962,43.962,0,0,1,47.505,40.526,83.259,83.259,0,0,1,64.176,29.861,147.588,147.588,0,0,1,82.119,21.8a114.733,114.733,0,0,1,39.392-7.238c28.878-.108,52.992,15.328,70.3,32.772a353.584,353.584,0,0,1,23.748,27.17,156.807,156.807,0,0,1,18.213,28.751,272.991,272.991,0,0,1,11.87,30.373c3.595,9.949,7.362,19.566,10.41,29.136,6.148,19.093,10.485,37.74,11.264,55.36a108.085,108.085,0,0,1,.1,13.024q-.135,3.214-.27,6.353-.371,2.97-.719,5.866a79.335,79.335,0,0,1-5.729,22.81c-5.474,13.923-15.607,25.466-27.709,30.1l-4.7,1.561c-1.266.27-2.5.527-3.692.784a34.883,34.883,0,0,1-8.268.561,41.577,41.577,0,0,1-12.11-2.379,34.408,34.408,0,0,1-6.8-3.251c-1.46-.912-1.9-1.3-1.962-1.311a3.276,3.276,0,0,1-.352-4.954,4.133,4.133,0,0,1,3.572-1.142Z" transform="translate(209.256 83.881)" fill="#ac9afc"/>
              <path id="Trazado_876381" data-name="Trazado 876381" d="M311.844,218.265s.255.743.756,2.19c.24.737.577,1.582.906,2.717q.359,1.9.831,4.366c.989,6.38.547,16.173-4.92,27.1-5.317,10.827-15.637,22.682-31.963,30.718-2.127.906-4.089,1.953-6.456,2.758-1.992.737-3.992,1.5-6.485,2.2a97.874,97.874,0,0,1-14.521,3.116,125.658,125.658,0,0,1-31.327.169c-21.576-2.413-43.369-9.1-65.634-17.566-11.166-4.2-22.22-9.293-33.7-14.342-11.488-5.028-23.268-10.476-34.39-17.3-2.778-1.71-5.459-3.555-8.126-5.447-1.385-.973-2.561-1.818-4.052-2.974l-3.707-2.926a155.482,155.482,0,0,1-14.379-13.558,252.982,252.982,0,0,1-24.459-31.11C15.855,166.3,6.307,139.676,10.253,112.993A108.452,108.452,0,0,1,23,75.442c3.123-5.934,7.167-11.4,11.226-16.91A86.927,86.927,0,0,1,48.949,43.021C53.5,39.2,61.366,34.945,68.091,32.626a82.815,82.815,0,0,1,21.763-4.393,95.348,95.348,0,0,1,42.635,6.1,76.541,76.541,0,0,1,18.116,10.32c5.137,4.312,10.11,9.374,13.345,14.443,7.107,10.989,10.747,21.986,13.712,32.563,2.988,10.516,6.343,20.33,10.747,28.934a134.221,134.221,0,0,0,14.911,23.209,82.1,82.1,0,0,0,8.725,9.266l1.161,1.034c-.21-.142.749.581,1.063.825l2.778,2.136a57.21,57.21,0,0,0,5.13,3.508,170.371,170.371,0,0,0,21.793,11.375c14.761,6.509,28.578,12.132,39.257,18.336,10.769,6.1,18.161,12.808,22.31,17.836a43.429,43.429,0,0,1,4.389,5.961c.921,1.379,1.393,2.1,1.393,2.1a3.341,3.341,0,0,1-1.341,4.853,4.222,4.222,0,0,1-4.98-.7l-.344-.365s-.532-.554-1.565-1.622A45.311,45.311,0,0,0,298.4,213.8c-4.164-3.9-11.263-8.725-21.651-13.22-10.32-4.663-23.815-8.9-39.782-14.781-15.555-5.941-35.476-14.585-49.188-31.732-6.9-8.279-11.533-18.14-14.881-28.332-3.393-10.314-5.025-20.911-7.878-31.144-2.9-10.111-6.291-20.519-12.364-28.724a52.392,52.392,0,0,0-11.293-11.219A62.358,62.358,0,0,0,126.551,47.2a75.609,75.609,0,0,0-34.674-3.143c-5.931.662-11.578,2.44-17.217,4.082a108.95,108.95,0,0,0-16.341,7.184A72.132,72.132,0,0,0,43.767,65.493a55.125,55.125,0,0,0-10.8,14.382,64.993,64.993,0,0,0-6.306,16.64A75.989,75.989,0,0,0,24.355,114a92.574,92.574,0,0,0,.959,17.4c.247,1.379.442,2.751.622,4.15l.959,4.582c.547,2.629,1.445,5.616,2.292,8.367a123.676,123.676,0,0,0,15.907,31.772,137.92,137.92,0,0,0,24.4,26.811c4.553,4.123,9.182,7.779,13.817,11.672q7.043,5.8,13.967,11.517a307.218,307.218,0,0,0,28.5,21.567c10.005,6.36,20.8,11.145,31.431,15.4,21.411,8.185,43.069,13.335,62.766,14.774a138.286,138.286,0,0,0,27.957-.716,101.246,101.246,0,0,0,12.3-2.555c1.8-.419,3.909-1.135,5.954-1.832,1.73-.514,3.49-1.4,5.2-2.055a63.581,63.581,0,0,0,27.934-24.649c5.048-8.833,6.306-16.768,6.066-21.938-.082-1.25-.15-2.359-.217-3.312-.142-1.041-.382-2.007-.517-2.737-.3-1.487-.457-2.251-.457-2.251a3.617,3.617,0,0,1,3.175-4.15,4,4,0,0,1,4.478,2.447" transform="translate(60.728 160.726)" fill="#ac9afc"/>
              <path id="Trazado_876382" data-name="Trazado 876382" d="M42.491,73.566a132.646,132.646,0,0,1,13.173-43.9c1.565-3.136,3.467-6.427,6.867-7.975,4.913-2.237,11.353.365,13.937,4.745s1.887,9.861-.457,14.349S69.848,48.972,66.1,52.6Q59.008,59.454,51.92,66.3c-2.763,2.676-6.665,4.6-9.429,7.265" transform="translate(275.725 120.178)" fill="#ac9afc"/>
              <path id="Trazado_876383" data-name="Trazado 876383" d="M47.191,59.867A81.514,81.514,0,0,1,70.662,32.109c2.808-2.129,5.9-4.15,9.5-4.819s7.8.365,9.683,3.2a8.707,8.707,0,0,1,.839,6.583c-1.453,7.11-7.264,13.058-14.237,16.619s-20.5,5.637-28.466,6.4" transform="translate(306.224 156.025)" fill="#ac9afc"/>
              <path id="Trazado_876384" data-name="Trazado 876384" d="M50.928,45.782c8.822-4.109,17.809-8.266,27.575-9.888s20.595-.372,28.189,5.4a8.557,8.557,0,0,1,3.378,4.265,8.6,8.6,0,0,1-.359,4.508c-1.086,3.886-2.808,7.9-6.373,10.287-4.194,2.8-9.886,2.73-15.083,2.257a150.5,150.5,0,0,1-24.5-4.265c-6.119-1.6-13.083-4.576-13.989-10.273" transform="translate(322.894 202.937)" fill="#ac9afc"/>
              <path id="Trazado_876385" data-name="Trazado 876385" d="M52.037,45.557c8.073-.493,16.176-.669,24.264-.541,7.062.115,14.2.473,20.962,2.311,6.83,1.865,14.012,6.569,13.638,13-.3,5.049-5.5,9.036-11.016,9.942S88.726,69.645,83.6,67.6C72.624,63.231,59.511,54.033,52.037,45.557" transform="translate(337.669 259.001)" fill="#ac9afc"/>
              <path id="Trazado_876386" data-name="Trazado 876386" d="M81.989,41.886A176.29,176.29,0,0,0,31.6,40.831c-3.774.466-7.811,1.19-10.417,3.69-3.774,3.616-2.831,9.922,1.093,13.4s9.938,4.434,15.367,3.67S48.1,58.586,53.021,56.369q9.29-4.2,18.573-8.381c3.625-1.636,6.77-4.467,10.395-6.1" transform="translate(121.96 227.528)" fill="#ac9afc"/>
              <path id="Trazado_876387" data-name="Trazado 876387" d="M68.225,45.3a94.577,94.577,0,0,0-36.15,12.436c-3.056,1.832-6.081,3.934-7.811,6.853s-1.827,6.86.667,9.293c1.693,1.656,4.261,2.352,6.748,2.589,7.968.757,15.937-2.582,21.7-7.6s11.8-16.14,14.866-22.824" transform="translate(149.287 260.855)" fill="#ac9afc"/>
              <path id="Trazado_876388" data-name="Trazado 876388" d="M52.678,49.592c-6.867,6.475-13.832,13.071-18.326,21.06s-6.223,17.714-2.247,25.926a8.652,8.652,0,0,0,3.572,4.129,11.434,11.434,0,0,0,4.89.966c4.441.162,9.189-.189,12.739-2.6,4.171-2.832,5.7-7.779,6.68-12.409A112.969,112.969,0,0,0,62.4,64.252c.037-5.752-1.161-12.625-6.957-15.018" transform="translate(193.921 283.521)" fill="#ac9afc"/>
              <path id="Trazado_876389" data-name="Trazado 876389" d="M49.725,53.663q-4.213,10.27-7.452,20.844c-1.887,6.144-3.52,12.422-3.482,18.789.045,6.448,3,14,9.953,15.491,5.452,1.176,11.159-2.2,13.682-6.711s2.494-9.834,1.782-14.842c-1.535-10.746-7.6-24.7-14.484-33.57" transform="translate(251.709 309.026)" fill="#ac9afc"/>
              <path id="Trazado_876390" data-name="Trazado 876390" d="M117.534,88.431c1.475-3.46,2.936-6.833,4.179-10.151,1.213-3.413,2.494-6.792,3.565-10.233s1.925-6.914,2.876-10.368q1.292-5.211,2.247-10.476c.622-3.508,1-7.042,1.5-10.564q.629-5.292.929-10.611a166.106,166.106,0,0,0-.217-21.323l9.1.4-5.085,18.6c-1.7,6.191-3.452,12.375-5.018,18.606-1.535,6.238-2.426,12.666-3.752,19.019a98.509,98.509,0,0,1-5.489,18.64l-.06.155c-1.558,3.873-6.306,5.866-10.6,4.461a8.011,8.011,0,0,1-4.636-3.812c-3.737-7.083-6.74-14.43-10.619-21.323A191.436,191.436,0,0,0,83.489,39.7q-3.561-4.694-7.474-9.09c-2.681-2.872-5.31-5.758-8.148-8.482-2.9-2.663-5.811-5.312-8.972-7.739A78.936,78.936,0,0,0,48.7,8.017L54.97,3.374c1.011,3.366,2.089,6.711,3.43,9.982a87.311,87.311,0,0,0,4.89,9.523A133.743,133.743,0,0,1,72.832,41.85,341.023,341.023,0,0,0,91.195,80.03l.15.277a4.651,4.651,0,0,1-2.389,6.542,5.929,5.929,0,0,1-4.052.3A172.52,172.52,0,0,0,51.81,80.888c-5.632-.439-11.316-.237-16.933-.142-5.632.182-11.219.433-16.805.426l7.339-7.685a21.81,21.81,0,0,0,.779,3.129,13.275,13.275,0,0,0,1.438,3.008,21.661,21.661,0,0,0,4.92,5.495c4.052,3.454,9.489,6.008,15.2,8,1.438.5,2.906.919,4.4,1.311,1.55.365,2.868.7,4.621,1.007,3.213.608,6.688,1.162,10.193,1.94a53.713,53.713,0,0,1,10.552,3.562,22.925,22.925,0,0,1,8.9,7.063,2.626,2.626,0,0,1-.869,3.866,3.345,3.345,0,0,1-3.8-.27l-.127-.108c-4.231-3.514-10.02-4.812-16.453-5.285l-10.043-.8c-1.618-.108-3.655-.351-5.445-.588-1.842-.277-3.677-.595-5.5-1.007a56.531,56.531,0,0,1-20.8-8.969c-6.291-4.488-11.623-11.53-12.911-19.58-.584-3.677,2.247-7.083,6.321-7.617.27-.034.539-.054.8-.068h.225c11.945-.372,23.778,1.845,35.371,3.785,5.811.946,11.638,1.75,17.419,2.8,5.767,1.108,11.556,2.156,17.285,3.487l-6.291,7.11A409.67,409.67,0,0,1,59.621,46.777,100.22,100.22,0,0,1,55.33,36.768a79.973,79.973,0,0,1-2.853-10.462c-.816-3.521-1.5-7.069-2.561-10.5C48.9,12.376,47.691,8.99,46.508,5.6A3.869,3.869,0,0,1,49.339.657a4.828,4.828,0,0,1,3.437.3c2.007,1,4.052,1.946,6.111,2.886L64.8,7.071a101.911,101.911,0,0,1,11.1,7.441,98.592,98.592,0,0,1,9.751,8.766q4.471,4.684,8.493,9.645a228.9,228.9,0,0,1,14.506,20.485c4.531,6.921,9.346,13.679,13.338,20.729l-15.3.811a154.71,154.71,0,0,1,7.931-17.4c2.913-5.738,6.044-11.463,8.283-17.43a241.753,241.753,0,0,0,9.773-36.692A4.58,4.58,0,0,1,137.994.062a4.366,4.366,0,0,1,3.759,3.548l.022.21a121.57,121.57,0,0,1,1.468,22.547q-.225,5.657-.809,11.294c-.419,3.751-1.183,7.468-1.94,11.172a123.383,123.383,0,0,1-6.748,21.722c-1.5,3.508-3.011,7-4.815,10.388-1.872,3.44-3.745,6.745-5.826,9.868l-.037.061a3.3,3.3,0,0,1-4.246.953,2.663,2.663,0,0,1-1.288-3.393" transform="translate(67.4 0.001)" fill="#ac9afc"/>
            </g>
          </g>
        </g>
      </g>
    </g>
  </g>
</svg>
