<svg xmlns="http://www.w3.org/2000/svg" xmlns:xlink="http://www.w3.org/1999/xlink" width="1030" height="261.814" viewBox="0 0 1030 261.814">
  <defs>
    <clipPath id="clip-path">
      <path id="Rect치ngulo_401268" data-name="Rect치ngulo 401268" d="M30,0H1030a0,0,0,0,1,0,0V231.814a30,30,0,0,1-30,30H0a0,0,0,0,1,0,0V30A30,30,0,0,1,30,0Z" fill="#567d56" stroke="#707070" stroke-width="1"/>
    </clipPath>
    <linearGradient id="linear-gradient" x1="0.912" y1="0.402" x2="0.352" y2="0.464" gradientUnits="objectBoundingBox">
      <stop offset="0" stop-color="#fde7d6"/>
      <stop offset="1" stop-color="#fcc59a"/>
    </linearGradient>
    <clipPath id="clip-path-2">
      <rect id="Rect치ngulo_402113" data-name="Rect치ngulo 402113" width="576.46" height="595.197" fill="#fcc59a"/>
    </clipPath>
  </defs>
  <g id="fnd-1" transform="translate(13290.551 986.985)">
    <g id="Grupo_1101236" data-name="Grupo 1101236" transform="translate(-13529.25 -2552.558)">
      <g id="Grupo_1101151" data-name="Grupo 1101151" transform="translate(-46.301 -61.746)">
        <g id="Enmascarar_grupo_1098728" data-name="Enmascarar grupo 1098728" transform="translate(285 1627.319)" clip-path="url(#clip-path)">
          <path id="Recurso_1" data-name="Recurso 1" d="M0,0H1046.12V362.259H0Z" transform="translate(0 -82.331)" fill="url(#linear-gradient)"/>
          <g id="Grupo_1101017" data-name="Grupo 1101017" transform="translate(55.924 -288.049)" opacity="0.21" style="mix-blend-mode: multiply;isolation: isolate">
            <g id="Grupo_1101016" data-name="Grupo 1101016" transform="translate(0 0)" clip-path="url(#clip-path-2)">
              <path id="Trazado_876378" data-name="Trazado 876378" d="M507.108,76.634a48.953,48.953,0,0,1,17.816,11.114,88.732,88.732,0,0,1,15.105,19.7c1.221,2.08,2.441,4.251,3.625,6.536.6,1.2,1.2,2.415,1.82,3.656q.8,1.76,1.618,3.58c2.149,4.906,4.628,9.887,6.875,15.562,9.414,22.852,17.389,51.524,20.842,85.55A292.65,292.65,0,0,1,575.5,276.6c-1.468,19.059-4.254,39.1-10,59.286a326.757,326.757,0,0,1-23.426,60.825q-4.033,7.416-8.133,14.961-4.538,7.187-9.159,14.488c-6.538,9.506-13.405,19.424-21.119,28.4-15.248,18.32-33.131,35.047-52.528,50.793-19.367,15.783-40.927,30.149-64.8,41.057a236.07,236.07,0,0,1-76.95,20.216,302.411,302.411,0,0,1-40.86.617c-6.635-.655-12.911-.7-19.9-1.851-6.823-1.1-13.937-1.577-20.535-3.26-53.674-10.809-105.228-37.554-144.261-77.567a296.734,296.734,0,0,1-49.008-67.368,391.228,391.228,0,0,1-17.06-37.98A284.33,284.33,0,0,1,5.254,339.364c-6.186-27.2-6.62-55.439-2.816-82.511C6.25,229.865,13.709,203.3,26.635,179.7c12.641-23.583,31.416-44.1,55.067-55.942,23.351-11.213,47.578-14.473,66.81-24.436,19.479-10.04,35.153-27.026,53.427-40.22,18.273-13.528,37.146-24.513,56.542-32.442,38.7-15.791,77.107-22.372,110.942-22.5,34.008.175,63.807,7.823,85.637,19.7a127.51,127.51,0,0,1,43.361,37.31,98.092,98.092,0,0,1,8.141,12.751c1.685,2.971,2.561,4.5,2.561,4.5a4.209,4.209,0,0,1-1.5,5.7,4.058,4.058,0,0,1-5.392-1.181l-.247-.35s-.944-1.356-2.771-3.976a96.662,96.662,0,0,0-8.53-11.114,118.447,118.447,0,0,0-41.639-31.178C428.826,26.451,401.214,21.066,369.632,22c-31.708.853-67.4,8.2-103.521,23.568Q252.553,51.2,238.9,58.208a283.945,283.945,0,0,0-27.148,15.3c-9.2,5.8-17.786,12.028-27.088,18.868-9.219,6.726-18.992,13.772-29.956,19.28-22.257,11.418-46.484,14.2-66.84,25.053-19.928,10.512-36.224,29.037-47.046,50.747-11.121,21.694-17.4,46.352-20.056,71.725-2.659,25.358-1.745,51.2,1.468,77.072a249.056,249.056,0,0,0,7.594,38.62c3.617,12.744,9.137,24.97,15.323,36.632,12.417,23.477,29.492,44.333,48.881,62.2,38.793,35.718,86.9,61.076,137.424,70.308,51.2,10.04,101.267-.807,147.092-17.208,22.939-8.356,44.927-19,64.8-32.336,19.876-13.368,36.951-29.875,51.712-47.365a270.488,270.488,0,0,0,20.183-27.057q4.359-7.221,8.657-14.328,3.786-7.324,7.5-14.519a305.373,305.373,0,0,0,21.082-58.821,333.859,333.859,0,0,0,8.687-108.76,323.987,323.987,0,0,0-18-82.176c-1.955-5.507-4.344-10.748-6.306-15.669q-.753-1.84-1.5-3.633c-.494-1.082-.981-2.14-1.468-3.192q-1.584-3.234-3.055-6.246A79.334,79.334,0,0,0,518.439,94.49a43.263,43.263,0,0,0-10.207-8.067A45.382,45.382,0,0,0,504,84.381a4.208,4.208,0,0,1-2.254-5.454,4.087,4.087,0,0,1,5.362-2.293" transform="translate(-0.004 27.55)" fill="#fcc59a"/>
              <path id="Trazado_876379" data-name="Trazado 876379" d="M450.458,72.715A43.5,43.5,0,0,1,466.222,82.5a78.491,78.491,0,0,1,13.36,17.337q1.618,2.742,3.2,5.743c.532,1.059,1.063,2.133,1.61,3.23.472,1.028.944,2.072,1.423,3.138,1.895,4.3,4.074,8.653,6.059,13.643,8.313,20.095,15.338,45.262,18.393,75.176a255.261,255.261,0,0,1,.622,47.692c-1.3,16.743-3.737,34.362-8.815,52.1a286.255,286.255,0,0,1-20.647,53.428q-3.539,6.513-7.152,13.14-4,6.307-8.058,12.713c-5.744,8.341-11.78,17.078-18.558,24.962-13.4,16.1-29.117,30.782-46.1,44.691-16.97,13.94-35.865,26.691-56.842,36.365a207.386,207.386,0,0,1-67.7,17.8,267.98,267.98,0,0,1-35.985.457,279.46,279.46,0,0,1-35.558-4.532c-47.2-9.545-92.564-33.059-126.812-68.328a263.435,263.435,0,0,1-42.987-59.3A362.47,362.47,0,0,1,20.633,338.6a251.548,251.548,0,0,1-11.174-35C3.917,279.686,3.558,254.816,6.935,231c3.393-23.736,9.983-47.121,21.4-67.886,11.159-20.765,27.724-38.841,48.626-49.277,20.595-9.857,41.849-12.729,58.594-21.412,16.985-8.745,30.683-23.7,46.709-35.36C198.317,45.11,214.875,35.4,231.95,28.428a262.661,262.661,0,0,1,97.6-19.683c29.934.19,56.153,6.993,75.362,17.489a112.131,112.131,0,0,1,38.1,32.975,86.164,86.164,0,0,1,7.13,11.251c1.475,2.62,2.232,3.969,2.232,3.969a4.034,4.034,0,0,1-1.453,5.454,3.885,3.885,0,0,1-5.137-1.12l-.24-.343-2.441-3.466a86.11,86.11,0,0,0-7.5-9.682,103.628,103.628,0,0,0-36.457-27.095c-17.667-8.577-41.8-13.208-69.4-12.34-27.732.777-58.924,7.252-90.5,20.712-15.682,6.719-32,14.5-47.585,24.322-8.088,5.066-15.592,10.466-23.793,16.453-8.1,5.881-16.716,12.081-26.384,16.926-19.644,10.078-40.9,12.492-58.632,22-17.322,9.164-31.521,25.335-40.943,44.3C32.248,189.5,26.789,211.047,24.5,233.236c-2.284,22.174-1.468,44.744,1.236,67.383A216.014,216.014,0,0,0,32.2,334.448c3.108,11.159,7.946,21.869,13.36,32.069,10.859,20.552,25.875,38.765,42.875,54.357,34.015,31.147,76.074,53.337,120.251,61.365,5.512,1.341,10.889,1.546,16.311,2.4,5.28.83,11.421.594,17.067.937a210.612,210.612,0,0,0,32.645-2.323,316,316,0,0,0,62.541-16.164c20.078-7.229,39.385-16.408,56.842-28.009,17.449-11.624,32.4-26.1,45.324-41.408A234.142,234.142,0,0,0,457.078,374q3.819-6.33,7.571-12.561,3.314-6.41,6.56-12.721a267.267,267.267,0,0,0,18.4-51.509,294.064,294.064,0,0,0,7.594-95.194,285.307,285.307,0,0,0-15.667-71.938c-1.708-4.822-3.8-9.43-5.5-13.749-.449-1.082-.884-2.14-1.311-3.184-.434-.945-.861-1.874-1.273-2.788q-1.382-2.834-2.666-5.469a69.621,69.621,0,0,0-10.777-15.92c-7.062-7.351-12.394-8.524-12.529-8.828l-1.91-4.243a3.007,3.007,0,0,1,1.445-3.953,2.907,2.907,0,0,1,3.445.777" transform="translate(30.914 57.871)" fill="#fcc59a"/>
              <path id="Trazado_876380" data-name="Trazado 876380" d="M199.824,320.853a28.7,28.7,0,0,0,7.324,3.169,28.033,28.033,0,0,0,9.227,1.036,28.724,28.724,0,0,0,5.422-.838l3.625-1.135c.891-.434,1.8-.868,2.748-1.325,8.073-4.342,15.742-14.3,20.16-28.07a104.164,104.164,0,0,0,4.583-22.768c.532-4.411.959-8.806,1.116-13.064.359-4.311.345-8.859.389-13.521a214.15,214.15,0,0,0-8.523-59.69c-3.19-10.291-6.665-20.872-11.96-30.942-5.227-10.085-11.571-19.82-17.794-29.738-6.1-9.986-12.02-20.232-17.719-30.949-5.639-10.5-11.923-20.887-19.659-29.852A109.7,109.7,0,0,0,152.756,40a81.049,81.049,0,0,0-7.549-4.045l-1.932-.929-1.872-.716-4.336-1.676a84.707,84.707,0,0,0-16.364-3.71c-11.436-1.264-23.538-.16-34.464,4.3-11.091,4.068-20.355,12.325-26.4,21.808a63.6,63.6,0,0,0-7.781,13.513,23.619,23.619,0,0,0-1.311,12.828c1.55,9.247,8.478,19.531,15.165,28.283,13.982,17.969,31.9,32.93,47.024,49.376,15.225,16.461,30.143,32.176,39.422,49.924,9.444,17.543,15.42,34.956,19.973,49.939,4.546,14.953,8.47,27.521,12.649,37.394a107.759,107.759,0,0,0,11.675,21.61c1.588,2.354,2.958,4.03,3.887,5.172s1.393,1.744,1.393,1.744l.21.259a4.06,4.06,0,0,1-.577,5.637,3.891,3.891,0,0,1-5.025-.046s-.629-.548-1.857-1.6a59.966,59.966,0,0,1-5.272-4.883,110.78,110.78,0,0,1-16.154-21.9c-5.789-10.154-11.249-23.141-16.82-37.653-5.542-14.481-11.87-30.157-20.924-46.184-9.039-15.852-17.756-34.5-32.053-50.282-14.207-15.966-32.7-29.67-49.353-48.385a145.846,145.846,0,0,1-11.683-15.2,64.9,64.9,0,0,1-8.889-19.249,37.161,37.161,0,0,1,1.445-23.743A49.012,49.012,0,0,1,47.505,43.825,82.762,82.762,0,0,1,64.176,31.8a139.98,139.98,0,0,1,17.944-9.08,103.353,103.353,0,0,1,39.392-8.158c28.878-.122,52.992,17.276,70.3,36.937,8.635,9.994,16.431,20.224,23.748,30.622a181.22,181.22,0,0,1,18.213,32.4,332.179,332.179,0,0,1,11.87,34.232c3.595,11.213,7.362,22.052,10.41,32.838,6.148,21.519,10.485,42.535,11.264,62.394a137.266,137.266,0,0,1,.1,14.679q-.135,3.622-.27,7.16-.371,3.348-.719,6.612a98.754,98.754,0,0,1-5.729,25.709c-5.474,15.692-15.607,28.7-27.709,33.92l-4.7,1.76c-1.266.3-2.5.594-3.692.884a31.031,31.031,0,0,1-8.268.632,37.523,37.523,0,0,1-12.11-2.681,32.93,32.93,0,0,1-6.8-3.664c-1.46-1.028-1.9-1.463-1.962-1.478a4,4,0,0,1-.352-5.584,3.848,3.848,0,0,1,3.572-1.287Z" transform="translate(209.256 96.39)" fill="#fcc59a"/>
              <path id="Trazado_876381" data-name="Trazado 876381" d="M311.844,242.451s.255.838.756,2.468c.24.83.577,1.782.906,3.062q.359,2.137.831,4.921c.989,7.191.547,18.228-4.92,30.538a73.85,73.85,0,0,1-31.963,34.621c-2.127,1.021-4.089,2.2-6.456,3.108-1.992.83-3.992,1.691-6.485,2.476a88.419,88.419,0,0,1-14.521,3.512,111.609,111.609,0,0,1-31.327.19c-21.576-2.719-43.369-10.261-65.634-19.8-11.166-4.73-22.22-10.474-33.7-16.164-11.488-5.667-23.268-11.807-34.39-19.5-2.778-1.927-5.459-4.007-8.126-6.14-1.385-1.1-2.561-2.049-4.052-3.352l-3.707-3.3a165.09,165.09,0,0,1-14.379-15.28,282.943,282.943,0,0,1-24.459-35.063C15.855,183.889,6.307,153.877,10.253,123.8A133.047,133.047,0,0,1,23,81.482c3.123-6.688,7.167-12.85,11.226-19.059A94.174,94.174,0,0,1,48.949,44.941c4.546-4.311,12.417-9.1,19.142-11.715a74.728,74.728,0,0,1,21.763-4.951,85.577,85.577,0,0,1,42.635,6.878,74.815,74.815,0,0,1,18.116,11.632,73.758,73.758,0,0,1,13.345,16.278c7.107,12.386,10.747,24.779,13.712,36.7,2.988,11.853,6.343,22.913,10.747,32.61a154.753,154.753,0,0,0,14.911,26.158,89.034,89.034,0,0,0,8.725,10.443l1.161,1.165c-.21-.16.749.655,1.063.929l2.778,2.407a57.436,57.436,0,0,0,5.13,3.953,164.5,164.5,0,0,0,21.793,12.82c14.761,7.336,28.578,13.673,39.257,20.666,10.769,6.878,18.161,14.435,22.31,20.1a49.158,49.158,0,0,1,4.389,6.719c.921,1.554,1.393,2.361,1.393,2.361a4.016,4.016,0,0,1-1.341,5.469,3.872,3.872,0,0,1-4.98-.792l-.344-.411s-.532-.625-1.565-1.828a48.414,48.414,0,0,0-4.688-5.119c-4.164-4.4-11.263-9.834-21.651-14.9-10.32-5.256-23.815-10.032-39.782-16.659-15.555-6.7-35.476-16.438-49.188-35.763-6.9-9.331-11.533-20.445-14.881-31.932-3.393-11.624-5.025-23.568-7.878-35.1-2.9-11.4-6.291-23.126-12.364-32.374a56.139,56.139,0,0,0-11.293-12.645,59.96,59.96,0,0,0-14.813-8.394,67.549,67.549,0,0,0-34.674-3.542c-5.931.747-11.578,2.75-17.217,4.6a103.075,103.075,0,0,0-16.341,8.1A72.691,72.691,0,0,0,43.767,70.269a62.09,62.09,0,0,0-10.8,16.21,79.209,79.209,0,0,0-6.306,18.754,95.933,95.933,0,0,0-2.307,19.706,117.424,117.424,0,0,0,.959,19.607c.247,1.554.442,3.1.622,4.677l.959,5.165c.547,2.963,1.445,6.33,2.292,9.43a147.057,147.057,0,0,0,15.907,35.809,150.463,150.463,0,0,0,24.4,30.218c4.553,4.647,9.182,8.768,13.817,13.155q7.043,6.536,13.967,12.98c9.212,8.615,18.558,17.032,28.5,24.307,10.005,7.168,20.8,12.561,31.431,17.36,21.411,9.225,43.069,15.029,62.766,16.652a122.816,122.816,0,0,0,27.957-.807,91.37,91.37,0,0,0,12.3-2.879,61.057,61.057,0,0,0,5.954-2.064c1.73-.579,3.49-1.577,5.2-2.316a66.931,66.931,0,0,0,27.934-27.78c5.048-9.956,6.306-18.9,6.066-24.726-.082-1.409-.15-2.658-.217-3.733-.142-1.173-.382-2.262-.517-3.085-.3-1.676-.457-2.537-.457-2.537a4.022,4.022,0,0,1,3.175-4.677,3.95,3.95,0,0,1,4.478,2.757" transform="translate(60.728 184.694)" fill="#fcc59a"/>
              <path id="Trazado_876382" data-name="Trazado 876382" d="M42.491,80.262A163.85,163.85,0,0,1,55.664,30.78c1.565-3.534,3.467-7.244,6.867-8.988,4.913-2.521,11.353.411,13.937,5.347s1.887,11.114-.457,16.172S69.848,52.542,66.1,56.633q-7.088,7.724-14.177,15.44c-2.763,3.016-6.665,5.18-9.429,8.189" transform="translate(275.725 138.099)" fill="#fcc59a"/>
              <path id="Trazado_876383" data-name="Trazado 876383" d="M47.191,64.031A90.029,90.029,0,0,1,70.662,32.746c2.808-2.4,5.9-4.677,9.5-5.431s7.8.411,9.683,3.611c1.281,2.186,1.288,4.913.839,7.419-1.453,8.013-7.264,14.717-14.237,18.731s-20.5,6.353-28.466,7.214" transform="translate(306.224 179.292)" fill="#fcc59a"/>
              <path id="Trazado_876384" data-name="Trazado 876384" d="M50.928,47.121C59.75,42.49,68.737,37.805,78.5,35.977s20.595-.419,28.189,6.086a9.549,9.549,0,0,1,3.378,4.807,10.862,10.862,0,0,1-.359,5.081c-1.086,4.38-2.808,8.9-6.373,11.594-4.194,3.161-9.886,3.077-15.083,2.544a135.184,135.184,0,0,1-24.5-4.807c-6.119-1.8-13.083-5.157-13.989-11.578" transform="translate(322.894 233.199)" fill="#fcc59a"/>
              <path id="Trazado_876385" data-name="Trazado 876385" d="M52.037,45.631c8.073-.556,16.176-.754,24.264-.609,7.062.129,14.2.533,20.962,2.605,6.83,2.1,14.012,7.4,13.638,14.656-.3,5.69-5.5,10.184-11.016,11.205S88.726,72.779,83.6,70.479c-10.979-4.928-24.092-15.3-31.566-24.848" transform="translate(337.669 297.624)" fill="#fcc59a"/>
              <path id="Trazado_876386" data-name="Trazado 876386" d="M81.989,42.188A156.66,156.66,0,0,0,31.6,41c-3.774.526-7.811,1.341-10.417,4.159-3.774,4.075-2.831,11.182,1.093,15.105s9.938,5,15.367,4.136S48.1,61.01,53.021,58.512q9.29-4.73,18.573-9.446c3.625-1.843,6.77-5.035,10.395-6.878" transform="translate(121.96 261.457)" fill="#fcc59a"/>
              <path id="Trazado_876387" data-name="Trazado 876387" d="M68.225,45.3a87.726,87.726,0,0,0-36.15,14.016c-3.056,2.064-6.081,4.433-7.811,7.724s-1.827,7.732.667,10.474a10.435,10.435,0,0,0,6.748,2.917c7.968.853,15.937-2.91,21.7-8.569s11.8-18.19,14.866-25.724" transform="translate(149.287 299.755)" fill="#fcc59a"/>
              <path id="Trazado_876388" data-name="Trazado 876388" d="M52.678,49.638c-6.867,7.3-13.832,14.732-18.326,23.736s-6.223,19.965-2.247,29.22a9.512,9.512,0,0,0,3.572,4.654,10.331,10.331,0,0,0,4.89,1.089c4.441.183,9.189-.213,12.739-2.933,4.171-3.192,5.7-8.768,6.68-13.985A142.9,142.9,0,0,0,62.4,66.16c.037-6.482-1.161-14.229-6.957-16.926" transform="translate(193.921 325.801)" fill="#fcc59a"/>
              <path id="Trazado_876389" data-name="Trazado 876389" d="M49.725,53.663q-4.213,11.575-7.452,23.492c-1.887,6.924-3.52,14-3.482,21.176.045,7.267,3,15.776,9.953,17.459,5.452,1.325,11.159-2.476,13.682-7.564S64.92,97.143,64.208,91.5c-1.535-12.112-7.6-27.834-14.484-37.835" transform="translate(251.709 355.109)" fill="#fcc59a"/>
              <path id="Trazado_876390" data-name="Trazado 876390" d="M117.534,99.667c1.475-3.9,2.936-7.7,4.179-11.441,1.213-3.847,2.494-7.655,3.565-11.533s1.925-7.793,2.876-11.685q1.292-5.873,2.247-11.807c.622-3.953,1-7.937,1.5-11.906q.629-5.964.929-11.959A210.945,210.945,0,0,0,132.609,5.3l9.1.449-5.085,20.963c-1.7,6.977-3.452,13.947-5.018,20.971-1.535,7.031-2.426,14.275-3.752,21.435a121.9,121.9,0,0,1-5.489,21.009l-.06.175a8.232,8.232,0,0,1-10.6,5.027,8.321,8.321,0,0,1-4.636-4.3c-3.737-7.983-6.74-16.263-10.619-24.033A220.156,220.156,0,0,0,83.489,44.746q-3.561-5.29-7.474-10.245c-2.681-3.237-5.31-6.49-8.148-9.56-2.9-3-5.811-5.987-8.972-8.722A78.179,78.179,0,0,0,48.7,9.036L54.97,3.8C55.981,7.6,57.06,11.366,58.4,15.053a103.593,103.593,0,0,0,4.89,10.733,159.033,159.033,0,0,1,9.541,21.382A407.424,407.424,0,0,0,91.195,90.2l.15.312a5.526,5.526,0,0,1-2.389,7.374,5.314,5.314,0,0,1-4.052.335A155.311,155.311,0,0,0,51.81,91.166a158.986,158.986,0,0,0-16.933-.16c-5.632.206-11.219.488-16.805.48l7.339-8.661a27.183,27.183,0,0,0,.779,3.527,15.865,15.865,0,0,0,1.438,3.39,23.71,23.71,0,0,0,4.92,6.193c4.052,3.892,9.489,6.772,15.2,9.019,1.438.564,2.906,1.036,4.4,1.478,1.55.411,2.868.785,4.621,1.135,3.213.686,6.688,1.31,10.193,2.186a49.668,49.668,0,0,1,10.552,4.014,23.623,23.623,0,0,1,8.9,7.96,3.175,3.175,0,0,1-.869,4.357,3.045,3.045,0,0,1-3.8-.3l-.127-.122c-4.231-3.961-10.02-5.424-16.453-5.957l-10.043-.906c-1.618-.122-3.655-.4-5.445-.663-1.842-.312-3.677-.67-5.5-1.135a53.456,53.456,0,0,1-20.8-10.108A35.5,35.5,0,0,1,10.463,84.821a7.571,7.571,0,0,1,6.321-8.585c.27-.038.539-.061.8-.076h.225c11.945-.419,23.778,2.08,35.371,4.266C58.992,81.492,64.819,82.4,70.6,83.587c5.767,1.249,11.556,2.43,17.285,3.931l-6.291,8.013a479.263,479.263,0,0,1-21.973-42.81c-1.655-3.672-3.011-7.465-4.291-11.281a99.328,99.328,0,0,1-2.853-11.792c-.816-3.969-1.5-7.968-2.561-11.83-1.019-3.87-2.224-7.686-3.408-11.51A4.446,4.446,0,0,1,49.339.74a4.335,4.335,0,0,1,3.437.343c2.007,1.127,4.052,2.194,6.111,3.253L64.8,7.969a102.034,102.034,0,0,1,11.1,8.387,103.8,103.8,0,0,1,9.751,9.88q4.471,5.279,8.493,10.87a260.322,260.322,0,0,1,14.506,23.088c4.531,7.8,9.346,15.418,13.338,23.362l-15.3.914a185.812,185.812,0,0,1,7.931-19.615c2.913-6.467,6.044-12.919,8.283-19.645a300.534,300.534,0,0,0,9.773-41.355,4.582,4.582,0,0,1,9.077.213l.022.236a154.148,154.148,0,0,1,1.468,25.411q-.225,6.376-.809,12.729c-.419,4.228-1.183,8.417-1.94,12.591a152.289,152.289,0,0,1-6.748,24.482c-1.5,3.953-3.011,7.892-4.815,11.708-1.872,3.877-3.745,7.6-5.826,11.121l-.037.069a3.072,3.072,0,0,1-4.246,1.074,3.176,3.176,0,0,1-1.288-3.824" transform="translate(67.4 0.001)" fill="#fcc59a"/>
            </g>
          </g>
        </g>
      </g>
    </g>
  </g>
</svg>
