<svg xmlns="http://www.w3.org/2000/svg" xmlns:xlink="http://www.w3.org/1999/xlink" width="1240" height="405.903" viewBox="0 0 1240 405.903">
  <defs>
    <clipPath id="clip-path">
      <path id="Trazado_878318" data-name="Trazado 878318" d="M17.848,0h1204.3C1232.009,0,1240,6.81,1240,15.211v375.48c0,8.4-7.991,15.211-17.849,15.211H17.848C7.991,405.9,0,399.092,0,390.691V15.211C0,6.81,7.991,0,17.848,0Z" transform="translate(0 0)" fill="#ac9afc"/>
    </clipPath>
    <linearGradient id="linear-gradient" x1="0.165" y1="0.202" x2="0.98" y2="0.647" gradientUnits="objectBoundingBox">
      <stop offset="0" stop-color="#fcc59a"/>
      <stop offset="1" stop-color="#fde7d6"/>
    </linearGradient>
    <clipPath id="clip-path-2">
      <rect id="Rectángulo_402203" data-name="Rectángulo 402203" width="756.597" height="618.579" fill="#fcc59a"/>
    </clipPath>
    <clipPath id="clip-path-3">
      <path id="Trazado_878293" data-name="Trazado 878293" d="M1.079,1.276,616.55-4.3,611.2,687.89-4.268,693.464Z" fill="#fcc59a"/>
    </clipPath>
    <clipPath id="clip-path-4">
      <rect id="Rectángulo_402204" data-name="Rectángulo 402204" width="813.798" height="541.965" fill="#fcc59a"/>
    </clipPath>
  </defs>
  <g id="Grupo_1102462" data-name="Grupo 1102462" transform="translate(13955.051 -454.537)">
    <g id="Enmascarar_grupo_1098835" data-name="Enmascarar grupo 1098835" transform="translate(-13955.051 454.537)" clip-path="url(#clip-path)">
      <path id="Trazado_878290" data-name="Trazado 878290" d="M17.848,0h1204.3C1232.009,0,1240,6.81,1240,15.211v375.48c0,8.4-7.991,15.211-17.849,15.211H17.848C7.991,405.9,0,399.092,0,390.691V15.211C0,6.81,7.991,0,17.848,0Z" transform="translate(0 0)" fill="url(#linear-gradient)"/>
      <line id="Línea_2122" data-name="Línea 2122" y1="3.973" transform="translate(291.845 -51.412)" fill="none" stroke="#fff" stroke-miterlimit="10" stroke-width="1"/>
      <line id="Línea_2123" data-name="Línea 2123" x2="4.661" transform="translate(278.263 -41.235)" fill="none" stroke="#fff" stroke-miterlimit="10" stroke-width="1"/>
      <g id="Grupo_1101177" data-name="Grupo 1101177" transform="translate(661.266 -137.715)" opacity="0.36" style="mix-blend-mode: color-dodge;isolation: isolate">
        <g id="Grupo_1101176" data-name="Grupo 1101176" transform="translate(0 0)" opacity="0.54" clip-path="url(#clip-path-2)">
          <path id="Trazado_878291" data-name="Trazado 878291" d="M733.787,107.387c-3.692-28.166-6.144-57.057-28.218-79.307-12.5,30.946-34.277,58.088-56.517,85.261-30.069,36.747-61.845,72.353-95.83,106.591C486.573,287.3,410.822,344.77,332.67,402.091c-13.627,9.968-35.043-8.792-22.047-19.665C381.695,322.711,445.09,255.159,506.456,188.1c30.925-33.784,60.859-68.293,89.355-103.593,22.142-27.421,42.5-55.7,69.853-79.189-20.457-5.69-43.069-5.713-65.672-5q-39.753,1.329-79.528,3.048A1016.15,1016.15,0,0,0,330.757,7.644C319.921,8.9,312.03,12.666,306.469,17.749,265.618,37.016,274.357,95.792,331,101.391q35.612,3.472,71.22,6.993A1348.872,1348.872,0,0,0,104.295,274.213c-41.209,30.427,3.025,80.3,48.85,73q49.674-7.94,97.9-19.7Q126.692,429.961,13.954,542.26c-38.4,38.252,8.958,94.6,63.252,70.531C205.839,555.688,322.332,482.8,427.264,399.04c-17.566,41.323-33.551,83.1-47.393,125.411-10.069,30.564,24.812,65.99,63.118,55.01,91.591-26.356,122.946-137.9,142.731-212.655a272.119,272.119,0,0,0,12.386,61.075c11.351,34.341,57.933,42.69,88.069,20.585,110.381-81.049,61.545-235.489,47.613-341.08m-423.5,131.419a421.343,421.343,0,0,0-59.434,27.708c-17.409,10.006-34.859-10.98-19.032-22.319a284.636,284.636,0,0,1,64.189-34.777,271.01,271.01,0,0,1,33.372-10.7c12.485-3.04,26.336-6.9,39.354-7.325,5.507-.16,12.341,1.444,15.294,5.862,2.474,3.716,3.572,6.542,3.043,10.716-.69,5.045-5.3,9.441-10.782,11.209-10.97,3.59-22.818,5.484-33.954,8.918-10.782,3.3-21.572,6.706-32.05,10.7M521.952,379.448c-.206,3.506-.462,6.958-.775,10.411a387.9,387.9,0,0,1-5.888,40.4c-1.125,5.614-7.865,10.258-14.725,9.093-6.856-1.214-11.7-6.492-10.665-12.55a368.1,368.1,0,0,0,4.629-39.428l.412-7.157c0-.1-.013-.729.009-1.169s.045-1.753.054-1.9c.045-.729.085-1.459.072-2.192.031-2.586-.211-5.278.672-7.73.287-.962.8-1.967,1.089-2.933,0-.046.09-.58.112-.92.148-1.6.471-3.25.735-4.85.511-3.88.937-7.279,3.092-10.846,2.72-4.472,11.548-6.641,15.079-1.367a21.879,21.879,0,0,1,3.164,5.645,44.259,44.259,0,0,1,1,5.507c.3,1.818.533,3.636.775,5.45.081.542.161,1.13.242,1.719.049.149.349.894.439,1.287,1.47,4.308.739,9.059.479,13.535M685.466,239.982a10.622,10.622,0,0,1-.47,1.249c-.134.286-.211.626-.341.913l-.067.145a13.065,13.065,0,0,1-6.861,6.737,16.816,16.816,0,0,1-10.311,1.127,5.745,5.745,0,0,1-.905-.183c-.619-.172-1.188-.244-1.81-.416a18.473,18.473,0,0,1-6.982-3.025,29.134,29.134,0,0,0-2.469-1.864,27.4,27.4,0,0,1-4.432-3.552c-.6-.561-1.192-1.172-1.788-1.734a20.969,20.969,0,0,1-2.684-3.09c-2.429-3.567-5.516-7.55-7.246-11.331-2.846-6.221-5.9-12.79-6.717-19.458-.641-5.736,3.056-11.293,8.94-14.02,5.826-2.685,13.3-2.322,18.534,1.314,6.166,4.262,10.925,10.071,15.532,15.536,2.734,3.239,4.777,7.47,6.977,11.03a25.45,25.45,0,0,1,3.477,11.125,15.457,15.457,0,0,0,.471,2.8,12.862,12.862,0,0,1-.847,6.7" transform="translate(0 -0.002)" fill="#fcc59a"/>
        </g>
      </g>
      <g id="Grupo_1101179" data-name="Grupo 1101179" transform="translate(534.68 -120.804) rotate(87)" opacity="0.17" style="mix-blend-mode: multiply;isolation: isolate">
        <g id="Grupo_1101178" data-name="Grupo 1101178" transform="translate(0 0)" clip-path="url(#clip-path-3)">
          <path id="Trazado_878292" data-name="Trazado 878292" d="M596.988,115.8c-2.76-31.49-4.5-63.8-22.269-88.537-10.434,34.721-28.385,65.253-46.712,95.823-24.778,41.342-50.935,81.418-78.877,119.981-54.8,75.877-116.917,140.743-180.987,205.461-11.172,11.254-28.431-9.579-17.765-21.842,58.331-67.345,110.486-143.4,160.985-218.89,25.448-38.032,50.1-76.868,73.583-116.578C503.2,60.372,520,28.58,542.454,2.092c-16.592-6.217-34.986-6.076-53.379-5.115q-32.349,1.78-64.72,4C373.331-3.7,321.915-1.453,270,7.158a31.187,31.187,0,0,0-19.845,11.487c-33.4,21.861-26.8,87.567,19.235,93.414,19.293,2.415,38.582,4.885,57.875,7.3C239.722,168.4,158.052,231.334,83.472,307.116c-33.786,34.351,1.766,89.833,39.107,81.329a782.677,782.677,0,0,0,79.81-22.764Q100.345,481.233,7.665,607.725c-31.568,43.087,6.469,105.79,50.844,78.458,105.133-64.846,200.527-147.261,286.61-241.765-14.647,46.369-28.011,93.24-39.637,140.684-8.455,34.275,19.614,73.66,50.869,61.091C431.086,616.026,457.556,490.978,474.3,407.181a403.747,403.747,0,0,0,9.548,68.251c8.937,38.344,46.758,47.343,71.464,22.386,90.493-91.506,52.1-263.965,41.68-382.018M251.347,265.978a318.388,318.388,0,0,0-48.588,31.442c-14.249,11.325-28.262-12.03-15.289-24.834,16.107-15.927,33.384-29.121,52.516-39.388a184.165,184.165,0,0,1,27.239-12.216c10.182-3.494,21.483-7.912,32.077-8.487,4.482-.22,10.027,1.524,12.391,6.447,1.98,4.14,2.849,7.294,2.383,11.969a16.059,16.059,0,0,1-8.868,12.622c-8.955,4.1-18.609,6.3-27.7,10.229-8.8,3.776-17.607,7.663-26.164,12.215M422.315,421.8c-.2,3.925-.436,7.79-.721,11.655-1.127,15.185-2.854,30.233-5.139,45.249-.964,6.29-6.486,11.537-12.057,10.284-5.567-1.309-9.465-7.179-8.567-13.964q2.909-21.98,4.107-44.154l.4-8.012c0-.107,0-.816.017-1.308s.052-1.962.06-2.129c.043-.817.082-1.633.077-2.454.048-2.893-.126-5.9.614-8.655.242-1.079.669-2.207.911-3.29,0-.051.078-.65.1-1.031.134-1.8.411-3.64.64-5.433.449-4.346.825-8.152,2.609-12.16,2.251-5.024,9.451-7.517,12.278-1.641a27.626,27.626,0,0,1,2.525,6.293c.415,1.988.54,4.123.765,6.155s.4,4.065.583,6.093c.061.606.121,1.264.182,1.921.039.166.277,1,.346,1.437,1.158,4.81.523,10.132.273,15.142M556.535,264.53c-.069.488-.277.917-.393,1.4-.112.322-.177.7-.285,1.024l-.056.163a13.643,13.643,0,0,1-5.639,7.589,10.376,10.376,0,0,1-8.4,1.337,3.532,3.532,0,0,1-.735-.2c-.5-.188-.964-.265-1.469-.453a13.085,13.085,0,0,1-5.653-3.333,25.6,25.6,0,0,0-1.992-2.067,24.725,24.725,0,0,1-3.574-3.942c-.48-.624-.96-1.3-1.44-1.927a22.445,22.445,0,0,1-2.157-3.437c-1.945-3.974-4.422-8.408-5.8-12.626-2.261-6.941-4.69-14.269-5.3-21.724-.472-6.414,2.584-12.659,7.394-15.754a12.074,12.074,0,0,1,15.066,1.334c4.979,4.724,8.8,11.189,12.5,17.27,2.2,3.6,3.821,8.324,5.58,12.291a36.127,36.127,0,0,1,2.733,12.423,23.155,23.155,0,0,0,.358,3.129,19.507,19.507,0,0,1-.747,7.5" transform="translate(0.079 0.233)" fill="#fcc59a"/>
        </g>
      </g>
      <g id="Grupo_1101181" data-name="Grupo 1101181" transform="translate(524.839 -173.609)" opacity="0.24" style="mix-blend-mode: multiply;isolation: isolate">
        <g id="Grupo_1101180" data-name="Grupo 1101180" transform="translate(0 0)" clip-path="url(#clip-path-4)">
          <path id="Trazado_878294" data-name="Trazado 878294" d="M64.255,181.852c11.488,1.939,22.845,3.789,34.281,5.374,11.437,1.478,22.851,2.844,34.287,3.594,5.718.426,11.442.562,17.155.757,5.752.189,11.352.124,17.178.089,11.357-.236,22.9-.733,34.367-1.791,11.482-1.088,23-2.323,34.48-4.073,5.747-.792,11.476-1.809,17.223-2.713q8.612-1.4,17.155-3.3c11.369-2.66,22.669-5.841,34.072-8.288,5.713-1.147,11.437-2.211,17.195-3.027,5.747-.875,11.544-1.389,17.325-2.034l.7-.077a7.218,7.218,0,0,1,7.114,3.783c3.784,6.9,7.885,13.762,12.038,20.513l13.014,19.928c8.725,13.254,17.932,26.118,26.975,39.1,9.122,12.893,18.063,26.029,28.552,37.645,2.615,2.9,5.27,5.758,8.1,8.395A91.958,91.958,0,0,0,453.73,308.9a47.4,47.4,0,0,0,8.884,3.89l-8.878,9.855-3.063-9.252c-.522-1.537-.936-3.115-1.413-4.67a33.045,33.045,0,0,1-1.628-6.532,14.158,14.158,0,0,1,.471-5.22,14.347,14.347,0,0,1,2.218-4.481,48.268,48.268,0,0,1,3.744-4.262l6.53-7.047,6.524-7.053c2-2.229,4.839-5.1,5.684-6.331a2.269,2.269,0,0,0,.522-1.23,10.553,10.553,0,0,0-.409-3.027l-2.422-9.346-2.5-9.7a22.588,22.588,0,0,1,.352-12.893c3.341-8.513,9.372-12.539,13.155-16.866,4-4.221,7.256-9.388,10.461-14.939a36.814,36.814,0,0,0,1.951-3.73,2.817,2.817,0,0,0,.221-1.951c-.187-1.354-1.5-4.978-2.451-7.992-2.042-6.308-4.05-12.131-5.962-18.87a28.909,28.909,0,0,1-.964-6.662,18.72,18.72,0,0,1,1.662-8.075c2.258-4.818,4.89-7.283,6.66-9.553a145.689,145.689,0,0,0,10.637-14.749,10.987,10.987,0,0,0,1.135-2.241c.057-.154.062-.16.091-.106-.057-.426.062.16.017-.124-.045-.834-2.15-3.021-4.64-7.194l-.6-1.117-.8-1.815a25.649,25.649,0,0,1-1.061-3.328,29.029,29.029,0,0,1-.777-6.515A35.814,35.814,0,0,1,499.295,93.9c2.57-7.4,7.324-13.2,11.692-18.06l6.422-7.064c1.015-1.141,2.025-2.282,2.95-3.446l1.361-1.744c.187-.225.17-.248.057.154a3.266,3.266,0,0,0-.079,1c-.017-.331.028.355.062.4a2.347,2.347,0,0,0,.119.372c.17.384.233.343.114.16l-.664-1.023c-.55-.881-1-1.667-1.407-2.43-.828-1.549-1.56-3.08-2.258-4.629a61.2,61.2,0,0,1-3.54-9.843,3.291,3.291,0,0,1,2.212-4.014,3.107,3.107,0,0,1,3.7,1.844l.1.254a70.5,70.5,0,0,0,4.283,7.939c.8,1.318,1.628,2.619,2.473,3.831.431.621.862,1.182,1.225,1.626l.766.916a7.988,7.988,0,0,1,1.31,2.258,7.885,7.885,0,0,1,.272.958,8.488,8.488,0,0,1,.125,1.011,6.817,6.817,0,0,1-.255,2.205,9.994,9.994,0,0,1-1.044,2.311l-1.35,2.246c-.913,1.484-1.878,2.879-2.842,4.262-1.929,2.749-3.954,5.291-5.8,7.809-3.7,5.037-6.813,9.778-8.18,14.88-1.424,5.137-1.18,10.014.987,13.189.7,1.437,3.614,3.606,6.008,8.867a16.312,16.312,0,0,1,1.129,4.611,16.134,16.134,0,0,1-.323,4.747,24.018,24.018,0,0,1-2.706,6.651,159.548,159.548,0,0,1-11.386,16.96c-2.139,2.79-4.045,5.013-4.476,6.142a4.107,4.107,0,0,0-.352,1.407,12.324,12.324,0,0,0,.295,3.021c1.242,5.894,2.575,12.651,3.772,18.959.5,3.316,1.5,5.882,1.691,11.067a16.452,16.452,0,0,1-1.844,7.5,46.4,46.4,0,0,1-2.9,4.646c-3.551,5.415-7.233,11.226-11.97,16.411-4.731,5.019-9.519,9.009-10.58,13.035a10.838,10.838,0,0,0,.278,6.373c.743,2.7,1.844,6.083,2.774,9.1l2.927,9.429a23.614,23.614,0,0,1,1.072,6.6,15.524,15.524,0,0,1-2.258,7.981c-2.723,4.144-4.544,5.728-6.649,8.418l-6.183,7.378-6.172,7.39a35.948,35.948,0,0,0-2.445,3.1c-.119.171-.131.455.079-.154.023.059.1-.514.108-.372-.017.095.4,1.194.97,2.855.5,1.549,1.067,3.068,1.526,4.629l2.814,9.352.25.839a7.353,7.353,0,0,1-4.578,9.145,6.7,6.7,0,0,1-4.55-.13,41.33,41.33,0,0,1-11.822-6.976,108.66,108.66,0,0,1-9.173-8.7l-16.514-17.889c-10.8-11.888-21.614-23.7-31.627-36.22-10.081-12.462-19.282-25.6-28.512-38.692l-13.564-19.857L333.43,179.115l7.812,3.707c-5.718,1.082-11.42,2.3-17.178,3.151-5.741.916-11.516,1.578-17.308,2.158-11.6,1.011-23.3,1.283-34.934,2.075-11.618.887-23.106,2.678-34.627,4.339-11.533,1.643-23.043,3.671-34.679,5.114-11.635,1.519-23.293,2.814-35.166,3.2-5.8.236-11.817.183-17.682.012-5.9-.2-11.788-.633-17.648-1.2a329.257,329.257,0,0,1-34.911-5.108c-11.516-2.223-22.97-5.054-34.179-8.306a3.3,3.3,0,0,1-2.212-4.032,3.17,3.17,0,0,1,3.54-2.376" transform="translate(283.194 214.263)" fill="#fcc59a"/>
          <path id="Trazado_878295" data-name="Trazado 878295" d="M800.782,224.284c-3.336.644-6.768,1.165-10.03,1.915-3.262.8-6.484,1.413-9.752,2.365-6.53,1.7-12.991,3.736-19.458,5.758-6.456,2.045-12.872,4.286-19.254,6.609s-12.713,4.842-19.055,7.319q-18.984,7.511-37.577,16.109c-12.356,5.782-24.689,11.628-36.732,17.96l-.04.018a5.2,5.2,0,0,1-6.722-1.714L614.6,240.754q-13.845-19.854-28.285-39.206c-9.621-12.9-19.85-25.278-30.276-37.426a338.58,338.58,0,0,0-33.4-34.2c-6-5.184-11.873-10.511-18.182-15.246-6.178-4.907-12.361-9.754-18.749-14.271l-9.389-7.041-9.65-6.591c-3.239-2.152-6.314-4.582-9.6-6.651l-9.814-6.284A287.714,287.714,0,0,0,406.344,51.7a352.756,352.756,0,0,0-44.05-15.211c-15.1-4.227-30.021-7.679-45.412-10.446-7.63-1.549-15.351-2.394-23.021-3.677-3.841-.674-7.7-1.058-11.573-1.4l-11.6-1.224a317.975,317.975,0,0,0-46.62-.964c-15.527.81-31.048,2.808-46.081,6.988-7.619,1.531-14.9,4.54-22.363,6.562-7.488,1.98-14.716,4.83-22.085,7.183-7.409,2.246-14.568,5.226-21.8,8.04-3.591,1.454-7.273,2.708-10.807,4.321L90.407,56.89,79.872,61.939,69.7,67.726c-6.756,3.925-13.672,7.591-20.048,12.2-6.422,4.516-13.2,8.507-19.345,13.449L11.724,108.02l.5-8.093c9.343,10.83,18.942,21.406,28.4,32.118l.023.03a5.581,5.581,0,0,1-.306,7.656,5.335,5.335,0,0,1-1.651,1.064c-10.342,4.156-20.6,8.53-30.821,13.029l2.558-9.063,10.381,13.147,10.83,12.716c3.75,4.114,7.568,8.146,11.232,12.308,3.852,4,7.675,8,11.425,12.1,3.937,3.9,7.795,7.88,11.652,11.859l12,11.5,12.4,11.072L103.1,240.086l13.1,10.192,13.354,9.861,13.615,9.506,13.9,9.086q14.092,8.77,28.478,17.114l14.545,8.046,14.716,7.774.074.035a3.354,3.354,0,0,1,1.384,4.41,3.108,3.108,0,0,1-3.971,1.561L196.8,311.226l-15.283-6.993-15.113-7.443-14.835-8.063-14.613-8.513-14.381-8.974q-7.088-4.673-14.075-9.524l-13.723-10.1-13.4-10.576L68.328,229.989l-12.69-11.539q-6.169-5.977-12.208-12.107c-3.926-4.191-7.749-8.489-11.567-12.781-3.687-4.422-7.216-8.992-10.818-13.473L10.81,166.143,1.166,151.772l-.159-.236a5.986,5.986,0,0,1,1.379-8.111A5.518,5.518,0,0,1,3.73,142.7c10.455-3.854,20.865-7.827,31.2-12.024l-1.934,8.749c-9.553-10.623-18.959-21.382-28.631-31.9l-.023-.024A5.637,5.637,0,0,1,4.5,99.767l.363-.331L23.591,83.912c6.183-5.279,13.031-9.618,19.526-14.472,6.45-4.948,13.473-8.968,20.349-13.242,3.46-2.1,6.881-4.28,10.376-6.314L84.6,44.3l10.762-5.616c3.614-1.815,7.38-3.269,11.068-4.918,7.432-3.169,14.784-6.591,22.544-8.814,15.209-5.445,31.1-8.578,46.966-10.635,15.913-1.9,31.712-3.736,47.6-4.93l11.93-.609c3.971-.319,7.953-.544,11.93-.485l11.953-.083c3.988-.089,7.982-.112,11.959.16a375.447,375.447,0,0,1,47.636,4.5c15.68,2.566,31.564,5.988,46.921,10.067A381.051,381.051,0,0,1,411.6,38.026c7.443,3.169,15.079,5.929,22.266,9.713,7.29,3.559,14.716,6.923,21.625,11.25l10.54,6.189c3.46,2.158,6.751,4.576,10.081,6.934l9.916,7.183,9.394,7.874c3.063,2.713,6.269,5.232,9.2,8.093l8.719,8.631c5.906,5.628,11.329,11.746,16.866,17.723,10.954,12.054,21.659,24.232,32.313,36.445,5.338,6.1,10.347,12.491,15.532,18.722l15.141,19.029c9.984,12.769,19.725,25.727,29.363,38.757l14.3,19.644,13.967,19.875-6.762-1.691c12.276-6.556,24.723-12.639,37.4-18.155q18.984-8.353,38.36-15.66c12.963-4.759,26.09-9.051,39.4-12.775,6.643-1.892,13.394-3.435,20.173-4.824,3.353-.769,6.881-1.236,10.3-1.862,3.438-.568,6.79-.875,10.189-1.324a3.169,3.169,0,0,1,3.517,2.838,3.266,3.266,0,0,1-2.536,3.636Z" transform="translate(0.002 40.02)" fill="#fcc59a"/>
          <path id="Trazado_878296" data-name="Trazado 878296" d="M64.2,32.393c5.611,11.936.874,26.342-10.574,32.189s-25.284.91-30.895-11.019-.874-26.348,10.58-32.189S58.586,20.464,64.2,32.393Z" transform="translate(95.19 92.905)" fill="#fcc59a" stroke="#40433e" stroke-linecap="round" stroke-linejoin="round" stroke-width="1.482"/>
          <path id="Trazado_878297" data-name="Trazado 878297" d="M43.969,48.921A422.325,422.325,0,0,1,263.239,1.428c9.321.538,20.916,3.387,22.748,12.923.675,3.506-.278,7.153-1.759,10.381-6.3,13.691-20.825,20.525-32.7,29.333s-22.5,24.657-16.049,38.272" transform="translate(205.464 3.64)" fill="#fcc59a" stroke="#40433e" stroke-linecap="round" stroke-linejoin="round" stroke-width="1.482"/>
          <path id="Trazado_878298" data-name="Trazado 878298" d="M85.437,58.649A139.241,139.241,0,0,1,100.215,64.4c4.862,2.152,9.536,4.723,14.194,7.313a146.517,146.517,0,0,1,13.473,8.69c4.311,3.192,8.441,6.621,12.554,10.056l12.078,10.623a120.968,120.968,0,0,0,12.446,10.28l6.456,5.025a78.888,78.888,0,0,1,5.843,5.722c3.665,4.049,6.5,8.832,9.525,13.39l.374.568a5.475,5.475,0,0,1-.976,7.124,39.621,39.621,0,0,1-12.878,7.472,45.253,45.253,0,0,1-13.865,2.27,50.763,50.763,0,0,1-13.422-1.531c-4.4-1.076-8.447-2.8-11.936-3.245-3.7-.414-5.985.532-8.515,4.132a24.9,24.9,0,0,1-5.259,5.439,14.174,14.174,0,0,1-3.943,1.98,15.5,15.5,0,0,1-4.153.845c-5.65.5-10.432-1.691-14.636-3.819a58.586,58.586,0,0,1-11.232-8.063c-3.16-2.7-6.632-5.983-9.644-9.116-3.08-3.174-6.155-6.355-9-9.748-5.73-6.674-12.605-12.751-16.945-20.756A121.479,121.479,0,0,1,40.326,84.015a125.158,125.158,0,0,1-3.012-13.236,119.781,119.781,0,0,1-1.265-13.473,2.438,2.438,0,0,1,2.332-2.53,2.384,2.384,0,0,1,2.3,1.667l.028.089c.686,2.063,1.316,4.114,1.889,6.172l2.082,6.059q2.136,6.012,4.584,11.817c1.713,3.843,3.387,7.679,5.333,11.374,1.878,3.724,3.909,7.354,6.047,10.913,2.184,3.512,3.965,7.307,6.013,10.984a60.86,60.86,0,0,0,6.881,10.54,90.175,90.175,0,0,0,8.64,9.015,99.388,99.388,0,0,0,9.65,7.786,48.354,48.354,0,0,0,10.03,5.977,24.417,24.417,0,0,0,9.706,1.963q1.064-.053,2.059-.2c.868-.207.749.077,1.917-.378a14.018,14.018,0,0,0,4.8-2.406c1.832-1.129,3.937-2.879,6.518-3.86a17.749,17.749,0,0,1,7.67-1.2c4.918.2,8.935,1.289,12.861,1.478a80.118,80.118,0,0,0,11.7.242c7.59-.467,14.931-2.8,19.583-7.993l-.6,7.685c-3.375-3.979-7.154-7.549-10.325-11.652-3.336-3.955-6.093-8.483-9.088-12.893a72.408,72.408,0,0,0-4.822-6.3c-1.77-1.933-3.67-3.73-5.537-5.563-1.917-1.774-3.92-3.446-5.877-5.167l-6.183-4.771c-4.17-3.1-8.487-5.977-12.792-8.85l-13-8.471c-4.368-2.773-8.855-5.315-13.286-8.016L83.559,63.159a2.519,2.519,0,0,1-.953-3.346,2.321,2.321,0,0,1,2.774-1.182Z" transform="translate(168.449 269.04)" fill="#fcc59a"/>
          <path id="Trazado_878299" data-name="Trazado 878299" d="M246.1,57.121c.028.03-.539-.284-1.288-.562a15.457,15.457,0,0,0-3.653-.893c-3.347-.52-8.248.231-14.392,1.472-3.063.573-6.257,1.425-9.7,2.217-3.432.875-7.04,1.844-10.739,3.009-7.431,2.187-15.289,4.824-23.208,7.437-7.948,2.5-15.975,4.966-23.719,6.58a110.542,110.542,0,0,1-21.517,2.625,75.691,75.691,0,0,1-8.719-.4,57.77,57.77,0,0,1-6.654-1.058c-3.659-.845-5.684-1.513-5.684-1.513a1.9,1.9,0,0,1-1.174-2.365,1.82,1.82,0,0,1,1.5-1.3l.13-.018s2.088-.266,5.627-.408c1.764-.03,3.926-.313,6.365-.473,2.439-.035,5.2-.532,8.186-.7,2.99-.4,6.24-.627,9.661-1.171,3.438-.384,7.051-.993,10.807-1.62,7.494-1.33,15.549-2.814,23.611-4.6,8.078-1.673,16.156-3.588,23.758-5.315,7.59-1.649,14.738-3.34,20.888-4.339,6.008-1.2,11.431-1.963,15.317-1.567a18.5,18.5,0,0,1,4.521.964,9.725,9.725,0,0,1,1.43.579l.238.106a1.891,1.891,0,0,1,.794,2.483,1.74,1.74,0,0,1-2.383.828Z" transform="translate(540.039 255.681)" fill="#fcc59a"/>
          <path id="Trazado_878300" data-name="Trazado 878300" d="M234.1,86.776a71.135,71.135,0,0,0-14.591-2.938,142.024,142.024,0,0,0-14.988-.568c-5.032-.024-10.081.3-15.175.355-5.111.041-10.211.1-15.351-.13a156.414,156.414,0,0,1-30.566-4.1,70.731,70.731,0,0,1-14.988-5.084A36.479,36.479,0,0,1,115.43,64.2l-.46-.591a2.549,2.549,0,0,1,.357-3.482,2.3,2.3,0,0,1,2.956-.024c.97.786,1.917,1.614,2.853,2.465a1.947,1.947,0,0,1,.17,2.672,1.771,1.771,0,0,1-1.917.562c-1.18-.39-2.349-.8-3.5-1.253l2.854-4.1c7.953,5.35,17.013,7.969,26.629,10.5A289.26,289.26,0,0,0,174.553,77.1c9.837,1.62,19.872,1.927,30.015,2.311,5.077.154,10.166.514,15.266,1A102.7,102.7,0,0,1,235,83.188l.062.018a1.868,1.868,0,0,1,1.271,2.264,1.777,1.777,0,0,1-2.178,1.324l-.062-.018" transform="translate(534.789 292.615)" fill="#fcc59a"/>
          <path id="Trazado_878301" data-name="Trazado 878301" d="M221.885,135.449s-1.946-.508-5.344-1.4c-3.358-.934-8.362-2.235-14.092-4.227-2.91-.881-6.013-2.016-9.281-3.251-3.279-1.2-6.66-2.684-10.223-4.079-7.006-3.056-14.364-6.656-21.6-10.6-3.54-2.1-7.114-4.168-10.478-6.467-3.46-2.158-6.632-4.629-9.746-6.976-3.007-2.471-5.934-4.859-8.549-7.313a100.739,100.739,0,0,1-7.091-7.224,84.121,84.121,0,0,1-9.253-12.077c-1.969-3.127-2.939-5.019-2.939-5.019a1.937,1.937,0,0,1,.743-2.56,1.766,1.766,0,0,1,1.94.148l.062.053s1.645,1.271,4.255,3.677c2.587,2.382,6.286,5.793,10.722,9.884,2.2,2.045,4.555,4.274,7.12,6.55,2.456,2.4,5.281,4.658,8.061,7.171,2.893,2.359,5.815,4.907,8.918,7.319,3.035,2.518,6.325,4.759,9.531,7.171,3.313,2.223,6.581,4.558,9.967,6.568,3.347,2.093,6.791,3.854,10.081,5.657,3.358,1.649,6.592,3.322,9.786,4.564,3.165,1.324,6.172,2.548,9,3.517a126.19,126.19,0,0,0,13.831,4.079c3.426.78,5.389,1.224,5.389,1.224a1.857,1.857,0,0,1,1.356,2.211,1.778,1.778,0,0,1-2.116,1.413l-.057-.012" transform="translate(528.416 314.503)" fill="#fcc59a"/>
          <path id="Trazado_878302" data-name="Trazado 878302" d="M46.81,13.341s1.248,1.567,3.432,4.3c2.218,2.731,5.384,6.633,9.19,11.321,3.92,4.576,8.192,10.174,13.014,15.991,4.76,5.9,9.831,12.2,14.9,18.486,4.975,6.4,9.814,12.935,13.916,19.372a152.787,152.787,0,0,1,10.223,18.2,78.4,78.4,0,0,1,6.62,19.615,2.922,2.922,0,0,1-2.332,3.364,2.745,2.745,0,0,1-2.354-.739l-.045-.047a48.407,48.407,0,0,1-3.727-4.227,128.014,128.014,0,0,1-8.453-11.805c-3.262-5-6.694-11.043-10.353-17.552C87.23,83.074,83.372,76.087,79.509,69.1c-3.9-6.988-7.925-13.928-12.055-20.176-4.1-6.278-8.288-11.859-11.868-16.653C48.28,22.853,42.8,17.018,42.8,17.018a2.874,2.874,0,0,1,.04-3.943,2.6,2.6,0,0,1,3.784.041c.045.053.1.106.142.166Z" transform="translate(196.433 60.313)" fill="#fcc59a"/>
          <path id="Trazado_878303" data-name="Trazado 878303" d="M178.546,41.326s-2.144,1.638-5.894,4.5c-3.767,2.8-9.122,7.058-15.68,11.817-3.222,2.483-6.773,5.078-10.546,7.8l-11.885,8.554c-8.322,5.829-17.274,11.953-26.339,17.96-9.179,5.8-18.448,11.5-27.491,16.156-4.527,2.306-8.935,4.463-13.167,6.4-4.272,1.827-8.277,3.642-12.123,4.936-15.209,5.693-26.181,6.769-26.181,6.769a2.784,2.784,0,0,1-3-2.589A2.919,2.919,0,0,1,27.431,121l.04-.03s2.264-1.6,6.354-3.931c4.079-2.371,9.962-5.533,17.093-9.027,3.557-1.791,7.477-3.541,11.567-5.521,4.13-1.9,8.481-3.9,12.985-5.959,4.5-2.093,9.156-4.25,13.882-6.444,4.76-2.14,9.474-4.576,14.279-6.846,4.743-2.4,9.525-4.741,14.137-7.242,4.618-2.483,9.06-5.131,13.394-7.632,8.64-5.066,16.366-10.387,22.953-14.98,6.53-4.723,11.834-8.714,15.464-11.77l5.735-4.723a2.6,2.6,0,0,1,3.75.455,2.87,2.87,0,0,1-.437,3.913l-.079.059" transform="translate(122.584 178.285)" fill="#fcc59a"/>
          <path id="Trazado_878304" data-name="Trazado 878304" d="M124.312,22.52l2.178-.378c.908,0,1.849,0,2.774.053a17.747,17.747,0,0,1,5.038,1.289,21.944,21.944,0,0,1,8.305,6.172,28.042,28.042,0,0,1,5.134,9.187,28.457,28.457,0,0,1,1.044,5.332,24.693,24.693,0,0,1-.238,5.681l-.511,2.264c-.278.9-.539,1.844-.857,2.7a32.9,32.9,0,0,1-2.264,4.676,34.229,34.229,0,0,1-6.325,7.738,45.034,45.034,0,0,1-7.761,5.87c-2.78,1.643-5.571,3.411-8.7,4.907l2.6-8.022a44.929,44.929,0,0,1,4.629,4.239,32.414,32.414,0,0,1,3.721,5.1c2.133,3.689,3.285,7.927,4.38,12.066a64.8,64.8,0,0,1,2.468,12.7,41.108,41.108,0,0,1-.817,13.082c-.357,1.419-.59,2-.891,3.039-.357,1.052-.851,2.187-1.31,3.245a53.651,53.651,0,0,1-3.234,5.634c-1.225,1.75-2.473,3.441-3.773,5.1-1.367,1.6-2.678,3.228-4.011,4.96a34.527,34.527,0,0,1-4.482,4.96,19.225,19.225,0,0,1-5.894,3.3,25.326,25.326,0,0,1-6.745,1.159,32.08,32.08,0,0,1-6.819-.508l3.988-8.773a20.71,20.71,0,0,1,5.542,11.983,29.246,29.246,0,0,1-1.259,12.355,31.314,31.314,0,0,1-2.519,5.5,58.277,58.277,0,0,1-3.285,5.1,31.944,31.944,0,0,1-8.305,8.288,27.625,27.625,0,0,1-5.049,2.572,49.66,49.66,0,0,1-5.316,1.762,39.544,39.544,0,0,1-11.187,1.354,31.219,31.219,0,0,1-11.153-2.276,24.188,24.188,0,0,1-9.247-6.81,2.561,2.561,0,0,1,.318-3.511,2.3,2.3,0,0,1,2.661-.272l.074.041c5.344,3.009,11.17,3.452,16.905,2.648a43.363,43.363,0,0,0,12.514-3.9l3.914-1.974a43.888,43.888,0,0,0,7.545-4.227,13.192,13.192,0,0,0,2.876-3.056,15.034,15.034,0,0,0,1.821-3.843c1.8-5.374,0-11.61-3.4-14.217a5.035,5.035,0,0,1-1-6.846,4.626,4.626,0,0,1,4.016-1.986l.976.059a19.714,19.714,0,0,0,4.379-.231,40.638,40.638,0,0,0,4.215-1.324c2.695-1.141,5.832-1.827,8.952-3.37,3.024-1.649,5.128-4.67,6.564-7.809a27.044,27.044,0,0,0,1.634-4.895c.131-.8.272-1.5.454-2.311.119-.863.346-2.175.369-2.666.1-1.714.278-3.393.255-5.108-.04-1.708-.1-3.411-.312-5.119a39.7,39.7,0,0,0-2.61-10.044c-1.413-3.21-3.512-6.042-5.185-9.074-.834-1.531-1.656-3.074-2.394-4.712-.806-1.584-1.424-3.358-2.246-5.013l-1.044-2.087a4.15,4.15,0,0,1,1.668-5.48,3.768,3.768,0,0,1,1.98-.455,19.707,19.707,0,0,0,3.9-.177,16.433,16.433,0,0,0,3.773-1.194,23.971,23.971,0,0,0,6.49-4.605,24.458,24.458,0,0,0,4.5-6.473,24.174,24.174,0,0,0,1.322-3.63l.369-1.679.3-2.205a24.1,24.1,0,0,0-.051-3.411,21.246,21.246,0,0,0-.7-3.582,19.88,19.88,0,0,0-3.188-6.71,19.568,19.568,0,0,0-5.287-5.066,21.715,21.715,0,0,0-3.256-1.531l-1.571-.437-2.19-.207a2.492,2.492,0,0,1-.181-4.913" transform="translate(250.566 108.754)" fill="#fcc59a"/>
          <path id="Trazado_878305" data-name="Trazado 878305" d="M126.895,29.814l2.315-.225,2.865.254a20.752,20.752,0,0,1,5.145,1.691,23.2,23.2,0,0,1,8.362,6.911,25.455,25.455,0,0,1,4.714,9.985,25.94,25.94,0,0,1,.584,5.622,29.1,29.1,0,0,1-.72,5.8l-.686,2.323c-.346.91-.686,1.844-1.066,2.707A41.072,41.072,0,0,1,145.82,69.6,87.256,87.256,0,0,1,139.2,78c-2.349,2.8-5.168,5.586-8.663,7.047a18.289,18.289,0,0,1-5.452,1.4,25.6,25.6,0,0,1-5.667-.254l5.055-8.986c1.985,4.966,4.691,9.778,5.945,15.749a23.33,23.33,0,0,1,.125,9.565,17.838,17.838,0,0,1-1.849,4.676,17.5,17.5,0,0,1-1.31,2.01,17.267,17.267,0,0,1-1.583,1.85c-2.133,2.187-4.34,3.8-6.246,5.462-2.025,1.726-3.563,4.1-5.559,6a20.525,20.525,0,0,1-6.864,4.055c-2.513.881-5,1.762-7.528,2.477l2.785-6.958c2.082,5.315,4.124,11.143,4.669,17.794a33.9,33.9,0,0,1-.068,5.137c-.147.863-.2,1.756-.38,2.637l-.516,2.5a19.545,19.545,0,0,1-5.645,9.494,23.656,23.656,0,0,1-9.031,4.605,23.406,23.406,0,0,1-4.839.845,29.22,29.22,0,0,1-4.663.047,47.032,47.032,0,0,1-16.61-4.641,2.558,2.558,0,0,1-1.231-3.322,2.426,2.426,0,0,1,2.122-1.5c5.531-.213,10.8.024,15.481-.668a34,34,0,0,0,3.392-.656,22.382,22.382,0,0,0,8.311-4.126,24.026,24.026,0,0,0,4.391-3.523l.545-.91c.062.041.2-.384.3-.556a6.06,6.06,0,0,0,.516-1.478,11.794,11.794,0,0,0,.187-3.275c-.363-4.635-2.978-9.252-5.576-13.993a4.83,4.83,0,0,1,1.69-6.438l.46-.236.635-.284a45.864,45.864,0,0,0,6.127-3.163,29.434,29.434,0,0,1,6.149-3.033c2.212-.7,4.771-1.141,6.683-2.453a15.3,15.3,0,0,0,4.7-4.688,7.535,7.535,0,0,0,.584-1.241,8.138,8.138,0,0,0,.414-1.366,14.15,14.15,0,0,0,.306-2.613,19.99,19.99,0,0,0-.743-5.616A34.187,34.187,0,0,0,114.687,83.3a5.487,5.487,0,0,1,.692-7.5,5.05,5.05,0,0,1,2.354-1.135l2.008-.361c1.2-.219,2.354-.568,3.5-.839a33.7,33.7,0,0,1,3.489-.786c1.186-.254,2.4-.467,3.727-.621a25,25,0,0,0,3.937-.975,12.945,12.945,0,0,0,6.189-5.208,18.6,18.6,0,0,0,1.838-3.659l.516-1.785.437-2.323a22.322,22.322,0,0,0-.034-3.73,31.4,31.4,0,0,0-.8-3.831,27.08,27.08,0,0,0-3.3-7.123,23.278,23.278,0,0,0-5.338-5.651,23.354,23.354,0,0,0-3.358-1.9l-1.645-.662-2.269-.491a2.483,2.483,0,0,1-1.855-2.938,2.426,2.426,0,0,1,2.116-1.969" transform="translate(298.456 145.331)" fill="#fcc59a"/>
          <path id="Trazado_878306" data-name="Trazado 878306" d="M156.474,34.653l2.02.638,2.326,1.194a19.954,19.954,0,0,1,3.869,3.1,23.178,23.178,0,0,1,5.281,8.436,27.22,27.22,0,0,1,1.821,9.884,24.707,24.707,0,0,1-2.2,10.056l-.981,1.939-1.327,2.246a34.213,34.213,0,0,1-2.927,3.831,49.389,49.389,0,0,1-6.932,6.325c-5,3.718-10.387,6.521-16.6,9.589l-.062.03,4.47-10.263a42.243,42.243,0,0,1,3.67,9.269,44.078,44.078,0,0,1,.919,4.812c.159,1.62.369,3.216.414,4.836.159,6.408-1.015,13.035-4.414,18.521l-1.242,1.844L143,122.9c-1.061,1.147-2.133,2.246-3.251,3.269-2.275,2.034-4.646,3.772-6.995,5.657-2.315,1.886-4.629,4.369-7.613,5.521A19.22,19.22,0,0,1,115.8,138.5l5.145-6.355a42.338,42.338,0,0,1-.108,10,46.534,46.534,0,0,1-2.456,9.447,52.284,52.284,0,0,1-4.141,8.655,95.472,95.472,0,0,1-5.219,8.3l-1.458,1.833c-.63.621-1.237,1.295-1.923,1.874a22.283,22.283,0,0,1-4.1,2.778,35.235,35.235,0,0,1-9.167,3.186A30.964,30.964,0,0,1,73.717,176.3l-1-.449a2.49,2.49,0,0,1-1.43-2.063c-.165-1.915-.357-3.819-.4-5.77a2.485,2.485,0,0,1,2.366-2.589,2.415,2.415,0,0,1,2.19,1.324c.891,1.708,1.634,3.464,2.411,5.208l-2.428-2.512a39.176,39.176,0,0,0,7.38-.266,36.255,36.255,0,0,0,6.978-1.7,32.2,32.2,0,0,0,6.359-3.033c1-.6,1.969-1.224,3-1.774a12.784,12.784,0,0,1,1.4-.745,16.346,16.346,0,0,1,1.7-1.017,25.9,25.9,0,0,0,2.99-2.164,17.229,17.229,0,0,0,2.428-2.861,25.524,25.524,0,0,0,3.018-6.993,31.04,31.04,0,0,0,.045-14.856,5.027,5.027,0,0,1,3.449-6.1,5.81,5.81,0,0,1,.624-.124l1.072-.13c2.15-.26,4.181-.834,6.348-1.094,2.122-.355,4.709-.083,6.938-1.035a12.312,12.312,0,0,0,3-1.933,15.584,15.584,0,0,0,2.428-2.66,22.365,22.365,0,0,0,1.866-3.056l1.39-3.21a37.21,37.21,0,0,0,1.781-6.621,25.8,25.8,0,0,0,.261-6.869,21.116,21.116,0,0,0-1.656-6.568,18.681,18.681,0,0,0-3.37-5.516,5.4,5.4,0,0,1,.193-7.413,5.484,5.484,0,0,1,.828-.662l3.455-2.181.045.006c4.828,1.726,10.194.5,14.438-2.205a19.774,19.774,0,0,0,5.531-5.143,27.875,27.875,0,0,0,1.963-3.186l.7-1.555.732-2.016c.221-.863.5-2.229.675-3.334.153-1.188.193-2.376.233-3.577a26.907,26.907,0,0,0-.936-7.165,25.231,25.231,0,0,0-3.024-6.515,30.038,30.038,0,0,0-2.286-2.737l-1.2-1.123L154.46,39.1a2.557,2.557,0,0,1-.664-3.446,2.34,2.34,0,0,1,2.678-1" transform="translate(331.244 169.683)" fill="#fcc59a"/>
          <path id="Trazado_878307" data-name="Trazado 878307" d="M132.647,43.417a31.275,31.275,0,0,1,7.1,3.955,25.5,25.5,0,0,1,3.285,2.932c.488.532,1.044,1.218,1.441,1.726a17.694,17.694,0,0,1,3.568,11.746,15.62,15.62,0,0,1-.408,2.6,9.808,9.808,0,0,1-.329,1.135l-.471,1.312a23.5,23.5,0,0,1-2.354,4.233,41.3,41.3,0,0,1-2.774,3.559,29.873,29.873,0,0,0-2.507,3.718,29.117,29.117,0,0,1-2.439,3.736,11.64,11.64,0,0,1-3.188,2.725c-2.417,1.389-5.276,1.862-7.687,3.1-2.513,1.064-4.969,2.235-7.551,3.074L116.819,83.1a10.57,10.57,0,0,1,6.586,3.056,15.866,15.866,0,0,1,3.336,5.338,45.01,45.01,0,0,1,1.849,5.521c.448,1.212,1.611,3.547,2.161,5.385a10.87,10.87,0,0,1-.13,5.876,35.125,35.125,0,0,1-2.269,5.285,28.369,28.369,0,0,1-6.893,8.566,48.093,48.093,0,0,1-4.294,3.281l-2.417,1.525c-.7.432-1.118.863-2.076,1.442a18.525,18.525,0,0,1-5.236,2.471,14.122,14.122,0,0,1-5.542.171c-7.267-.839-14.143-4.983-17.535-11.362a2.621,2.621,0,0,1,.959-3.482,2.358,2.358,0,0,1,2.144-.118l.2.089a32.958,32.958,0,0,0,14.84,3.2,29.458,29.458,0,0,1,3.443-.177l3.506.313a5.558,5.558,0,0,0,2.1-.3,5.742,5.742,0,0,0,1.554-.692,10.644,10.644,0,0,0,2.808-2.453,18.557,18.557,0,0,0,3.421-6.668c.794-2.418.323-4.788,1.475-7.023.607-1.289,1.4-2.081,1.186-3.919a5.969,5.969,0,0,0-3.92-4.895,3.775,3.775,0,0,0-1.708-.225,4.8,4.8,0,0,1-5.219-4.4,4.988,4.988,0,0,1,2.7-4.989l1-.485a63.368,63.368,0,0,0,6.4-3.281c2.144-1.1,3.716-3.216,5.628-4.605a10.968,10.968,0,0,1,3.183-1.62c1.055-.313,2.587-.668,3.727-.922a8.749,8.749,0,0,0,5.542-3.813,8.076,8.076,0,0,0,1.259-2.725l.1-.585a4.443,4.443,0,0,0,.079-.8,7.669,7.669,0,0,0-.062-1.348,17.085,17.085,0,0,0-1.929-5.4l-.715-1.277c-.357-.55-.59-.9-.942-1.366A33.57,33.57,0,0,0,135,53.041c-1.56-1.744-3.313-3.577-5.06-5.6a2.6,2.6,0,0,1,.182-3.559,2.353,2.353,0,0,1,2.524-.467" transform="translate(392.762 212.363)" fill="#fcc59a"/>
          <path id="Trazado_878308" data-name="Trazado 878308" d="M113.711,48.166a22.927,22.927,0,0,1,6.694,2.956,25.538,25.538,0,0,1,5.662,4.706,64.078,64.078,0,0,1,4.5,6.2,22.409,22.409,0,0,1,2.2,3.979l1.883,4.647a12.281,12.281,0,0,1,.9,5.374,8.444,8.444,0,0,1-1.991,4.658,39.387,39.387,0,0,1-3.54,3.3c-.6.556-1.123,1-1.838,1.555l-1.7,1.23a17.317,17.317,0,0,1-7.454,3.015c-1.282.154-2.541.189-3.716.408a6.506,6.506,0,0,0-3.268,1.336l1.2-6.8a16.387,16.387,0,0,1,3.478,1.3,7.223,7.223,0,0,1,2.405,2.69A25.372,25.372,0,0,1,121,95.559a24.2,24.2,0,0,1-.278,6.846c-.221,1.117-.448,2.217-.715,3.322l-1.027,3.535a10.971,10.971,0,0,0-.244,1.4l-.7,1.986a9.659,9.659,0,0,1-1.94,3.145,16.148,16.148,0,0,1-6.081,3.47c-4.334,1.389-9.332.922-12.809-1.933a2.7,2.7,0,0,1-.414-3.689,2.509,2.509,0,0,1,1.367-.922l.391-.1a20.224,20.224,0,0,0,7.278-3.458l1.344-1.111c.426-.384.749-.845,1.186-1.165a5.3,5.3,0,0,1,1.549-.774l.766-.207a10,10,0,0,0,1.021-.934c.312-.053.7-.916.834-1.448a6.123,6.123,0,0,0,.238-1.933,10.35,10.35,0,0,0-.97-3.783,10.96,10.96,0,0,0-.874-1.649,15.816,15.816,0,0,0-1.152-1.354,3.078,3.078,0,0,1-.681-1.578,12.254,12.254,0,0,0-.306-2.311l-1.259-3.754a2.345,2.345,0,0,1,1.367-2.95,2.163,2.163,0,0,1,1.089-.1,5.52,5.52,0,0,0,3.285-.7,15.258,15.258,0,0,0,2.751-1.892c1.679-1.4,3.336-2.3,4.7-3.405.233-.213.562-.449,1.021-.928a9.283,9.283,0,0,0,.664-.863,5.553,5.553,0,0,0,.641-2.306,2.8,2.8,0,0,1,.828-1.809c.494-.479,1.356-.934,2.008-1.62a3.019,3.019,0,0,0,.7-1.117,1.314,1.314,0,0,0,.017-1.218,4.991,4.991,0,0,0-1.146-2.193,43.117,43.117,0,0,0-4.85-4.168c-1.679-1.389-3.217-2.926-4.771-4.493a66.84,66.84,0,0,1-4.6-5.043,2.654,2.654,0,0,1,.272-3.642,2.453,2.453,0,0,1,2.2-.544" transform="translate(449.752 236.238)" fill="#fcc59a"/>
          <path id="Trazado_878309" data-name="Trazado 878309" d="M41.667,56.86s2.961,5.782,8.078,13.969A273.368,273.368,0,0,0,70.23,99.6c8.033,9.991,16.616,19.408,22.936,26.608,3.171,3.582,5.786,6.615,7.6,8.755s2.808,3.429,2.808,3.429a.964.964,0,0,1-.113,1.318.89.89,0,0,1-1.1.035s-1.288-.964-3.443-2.767-5.174-4.469-8.549-7.928c-3.432-3.411-7.21-7.62-11.074-12.3-3.914-4.623-7.761-9.855-11.573-15.086-7.551-10.54-14.4-21.56-19.458-29.86-4.964-8.377-8.135-14.016-8.135-14.016l-.017-.03A.942.942,0,0,1,40.43,56.5a.87.87,0,0,1,1.22.331l.017.03" transform="translate(186.867 276.875)" fill="#fcc59a"/>
          <path id="Trazado_878310" data-name="Trazado 878310" d="M44.987,57.877s3.772,5.3,10.058,12.621a251.471,251.471,0,0,0,24.7,25.207c9.531,8.548,19.566,16.381,27.014,22.37,3.721,3.015,6.825,5.527,9,7.289,2.167,1.779,3.364,2.873,3.364,2.873a.964.964,0,0,1,.108,1.318.893.893,0,0,1-1.078.242s-1.435-.721-3.875-2.116a108.7,108.7,0,0,1-9.8-6.308,163.212,163.212,0,0,1-12.991-10.227c-4.629-3.908-9.281-8.43-13.887-12.976-9.15-9.187-17.62-19.024-23.866-26.466C47.551,64.161,43.6,59.042,43.6,59.042l-.017-.03a.956.956,0,0,1,.13-1.306.872.872,0,0,1,1.254.142l.023.03" transform="translate(202.715 282.432)" fill="#fcc59a"/>
          <path id="Trazado_878311" data-name="Trazado 878311" d="M55.239,55.749s2.178-1.318,5.985-3.636c3.869-2.246,9.338-5.6,16.043-9.293,6.626-3.866,14.591-7.9,23.106-12.29,8.566-4.28,17.819-8.625,27.213-12.675A280.062,280.062,0,0,1,155.752,7.475c9.162-2.82,17.739-5.2,25.5-6.3a60.279,60.279,0,0,1,19-.154A35.88,35.88,0,0,1,207.313,2.8l.085.035a1.9,1.9,0,0,1,1.015,2.43,1.814,1.814,0,0,1-1.742,1.188s-2.473-.095-6.694.13A123.045,123.045,0,0,0,182.63,9.3c-7.114,1.7-15.652,3.825-24.694,6.29-9,2.625-18.664,5.267-28.183,8.495-9.553,3.1-18.97,6.7-27.639,10.487-8.708,3.7-16.593,7.744-23.293,11.315C72.155,49.548,66.7,52.74,62.965,55.14s-5.894,3.789-5.894,3.789a1.741,1.741,0,0,1-2.451-.6,1.9,1.9,0,0,1,.579-2.554l.04-.024" transform="translate(253.998 1.695)" fill="#fcc59a"/>
          <path id="Trazado_878312" data-name="Trazado 878312" d="M62.071,59.6s7.84-4.989,19.923-12.113c5.962-3.683,13.161-7.514,20.78-11.823,7.7-4.144,16-8.418,24.4-12.544,8.464-3.931,16.99-7.809,25.239-10.724A195.413,195.413,0,0,1,175.2,5.273a119.133,119.133,0,0,1,16.6-3.009c4.056-.473,6.393-.568,6.393-.568a1.843,1.843,0,0,1,1.878,1.809,1.881,1.881,0,0,1-1.084,1.8l-.045.024s-2.139.964-5.934,2.365c-3.772,1.484-9.2,3.358-15.714,5.533-6.53,2.093-14.148,4.54-22.306,7.159-4.062,1.389-8.26,2.82-12.52,4.274-4.289,1.407-8.56,3.068-12.895,4.6-8.611,3.192-17.11,6.733-24.944,10.4-7.846,3.624-14.971,7.466-21.024,10.86-6.025,3.458-10.937,6.438-14.33,8.72l-5.338,3.529a1.745,1.745,0,0,1-2.462-.573,1.9,1.9,0,0,1,.556-2.56l.04-.03" transform="translate(285.991 8.325)" fill="#fcc59a"/>
          <path id="Trazado_878313" data-name="Trazado 878313" d="M67.739,52.8s6.365-3.778,15.907-9.447C93.182,37.641,106.1,30.406,119.221,23.4c6.62-3.358,13.286-6.668,19.719-9.3a158.38,158.38,0,0,1,17.887-6.32,82.706,82.706,0,0,1,18.227-3.34,1.865,1.865,0,0,1,1.889,1.844A1.97,1.97,0,0,1,176,8.012s-1.634.97-4.555,2.347c-2.91,1.407-7.1,3.257-12.18,5.261-10.143,4.044-23.894,8.625-37.521,13.857-6.824,2.589-13.564,5.427-19.781,8.341-6.24,2.855-11.885,5.929-16.712,8.566-4.794,2.737-8.719,5.049-11.42,6.846-2.717,1.756-4.266,2.761-4.266,2.761a1.742,1.742,0,0,1-2.456-.591,1.9,1.9,0,0,1,.567-2.554l.062-.041" transform="translate(312.33 21.783)" fill="#fcc59a"/>
          <path id="Trazado_878314" data-name="Trazado 878314" d="M192.79,67.633s-7.318,1.839-18.562,4.014c-5.576,1.241-12.168,2.11-19.226,3.24-7.074.94-14.659,1.738-22.295,2.317a198.585,198.585,0,0,1-22.487.095,129.52,129.52,0,0,1-19.475-2.619A76.5,76.5,0,0,1,72.462,68.6a1.945,1.945,0,0,1-.8-2.566,1.82,1.82,0,0,1,1.6-1.046H73.3s1.934-.024,5.219.236c3.29.236,7.942.686,13.479,1.318,11.068,1.283,25.749,3.316,40.664,4.038a196.24,196.24,0,0,0,21.937-.1,179.993,179.993,0,0,0,19.061-2.235c5.554-.993,10.075-1.969,13.28-2.867,3.2-.857,5.021-1.348,5.021-1.348a1.775,1.775,0,0,1,2.173,1.33,1.862,1.862,0,0,1-1.282,2.258l-.017.006Z" transform="translate(333.935 314.176)" fill="#fcc59a"/>
          <path id="Trazado_878315" data-name="Trazado 878315" d="M115.045,68.325s-2.1-.112-5.293.041a89.071,89.071,0,0,0-11.692,1.525c-4.283.7-8.617,1.052-11.771.148a11.235,11.235,0,0,1-5.106-2.755,2.468,2.468,0,0,1-.011-3.381,3.073,3.073,0,0,1,.369-.313,11.94,11.94,0,0,1,5.372-1.773c3.137-.372,7.2.5,11.335,1.454a48.013,48.013,0,0,0,11.442,1.638,37.147,37.147,0,0,0,5.219-.29,1.8,1.8,0,0,1,2.025,1.578,1.849,1.849,0,0,1-1.515,2.11,1.609,1.609,0,0,1-.335.018Z" transform="translate(376.207 303.186)" fill="#fcc59a"/>
          <path id="Trazado_878316" data-name="Trazado 878316" d="M75.269,18.663s5.656,2.518,14.143,6.615c8.5,3.984,19.583,9.837,30.526,16.2A176.821,176.821,0,0,1,135.4,51.893a109.522,109.522,0,0,1,12.248,10.83,61.291,61.291,0,0,1,9.831,12.81,1.963,1.963,0,0,1-.737,2.619,1.767,1.767,0,0,1-1.753.012l-.04-.024a41.488,41.488,0,0,1-3.636-2.388c-2.246-1.584-5.344-3.931-8.923-6.869C135.22,63.03,126.126,54.724,116.42,47a177.785,177.785,0,0,0-14.733-10.665c-4.85-3.2-9.61-5.776-13.711-7.933C83.829,26.319,80.391,24.7,77.85,23.7L73.9,22.092a1.885,1.885,0,0,1-1.01-2.406A1.762,1.762,0,0,1,75.2,18.634l.068.03" transform="translate(340.046 90.898)" fill="#fcc59a"/>
          <path id="Trazado_878317" data-name="Trazado 878317" d="M77.552,22.494s2.5,1.626,6.41,3.86c3.931,2.175,9.207,5,14.738,7.537,5.423,2.69,10.682,5.787,13.927,9.08a19.817,19.817,0,0,1,4.623,6.485,2.179,2.179,0,0,1-1.135,2.79,2.024,2.024,0,0,1-1.049.136,20.672,20.672,0,0,1-7.131-2.773c-3.863-2.187-8.26-6.154-12.707-10.168A86.452,86.452,0,0,0,82.311,29.358a67,67,0,0,0-6.467-3.606,1.9,1.9,0,0,1-.9-2.459,1.757,1.757,0,0,1,2.36-.94,2.337,2.337,0,0,1,.2.118Z" transform="translate(349.495 108.987)" fill="#fcc59a"/>
        </g>
      </g>
    </g>
  </g>
</svg>
