<svg xmlns="http://www.w3.org/2000/svg" xmlns:xlink="http://www.w3.org/1999/xlink" width="1240" height="355.215" viewBox="0 0 1240 355.215">
  <defs>
    <clipPath id="clip-path">
      <path id="Trazado_878278" data-name="Trazado 878278" d="M17.848,0h1204.3C1232.009,0,1240,5.96,1240,13.312V341.9c0,7.352-7.991,13.312-17.849,13.312H17.848C7.991,355.215,0,349.255,0,341.9V13.312C0,5.96,7.991,0,17.848,0Z" transform="translate(0 0)" fill="#ac9afc"/>
    </clipPath>
    <linearGradient id="linear-gradient" x1="0.165" y1="0.202" x2="0.98" y2="0.647" gradientUnits="objectBoundingBox">
      <stop offset="0" stop-color="#d8f263"/>
      <stop offset="1" stop-color="#e4f3a0"/>
    </linearGradient>
    <clipPath id="clip-path-2">
      <rect id="Rectángulo_402190" data-name="Rectángulo 402190" width="756.597" height="541.334" fill="#567d56"/>
    </clipPath>
    <clipPath id="clip-path-3">
      <path id="Trazado_878253" data-name="Trazado 878253" d="M0,0,538.861-9.589l-9.2,691.986L-9.2,691.986Z" fill="#d8f263"/>
    </clipPath>
    <clipPath id="clip-path-4">
      <rect id="Rectángulo_402191" data-name="Rectángulo 402191" width="813.798" height="474.287" fill="#d8f263"/>
    </clipPath>
  </defs>
  <g id="fnd-3" transform="translate(12543.07 -5948.118)">
    <g id="Enmascarar_grupo_1098828" data-name="Enmascarar grupo 1098828" transform="translate(-12543.07 5948.118)" clip-path="url(#clip-path)">
      <path id="Trazado_878250" data-name="Trazado 878250" d="M17.848,0h1204.3C1232.009,0,1240,5.96,1240,13.312V341.9c0,7.352-7.991,13.312-17.849,13.312H17.848C7.991,355.215,0,349.255,0,341.9V13.312C0,5.96,7.991,0,17.848,0Z" transform="translate(0 0)" fill="url(#linear-gradient)"/>
      <line id="Línea_2117" data-name="Línea 2117" y1="3.477" transform="translate(291.845 -44.992)" fill="none" stroke="#fff" stroke-miterlimit="10" stroke-width="1"/>
      <line id="Línea_2118" data-name="Línea 2118" x2="4.661" transform="translate(278.263 -36.086)" fill="none" stroke="#fff" stroke-miterlimit="10" stroke-width="1"/>
      <g id="Grupo_1101156" data-name="Grupo 1101156" transform="translate(661.266 -120.518)" opacity="0.36" style="mix-blend-mode: color-dodge;isolation: isolate">
        <g id="Grupo_1101155" data-name="Grupo 1101155" transform="translate(0 0)" opacity="0.54" clip-path="url(#clip-path-2)">
          <path id="Trazado_878251" data-name="Trazado 878251" d="M733.787,93.977c-3.692-24.649-6.144-49.932-28.218-69.4-12.5,27.082-34.277,50.835-56.517,74.614-30.069,32.158-61.845,63.318-95.83,93.28-66.649,58.956-142.4,109.249-220.551,159.412-13.627,8.723-35.043-7.694-22.047-17.209C381.695,282.413,445.09,223.3,506.456,164.614c30.925-29.565,60.859-59.765,89.355-90.657,22.142-24,42.5-48.742,69.853-69.3-20.457-4.98-43.069-5-65.672-4.378q-39.753,1.163-79.528,2.667A1160.351,1160.351,0,0,0,330.757,6.689c-10.836,1.1-18.727,4.395-24.288,8.843C265.618,32.394,274.357,83.83,331,88.73q35.612,3.038,71.22,6.12c-107.154,37.737-206.96,86.379-297.928,145.121-41.209,26.627,3.025,70.273,48.85,63.886q49.674-6.948,97.9-17.239Q126.692,376.269,13.954,474.545c-38.4,33.475,8.958,82.786,63.252,61.723A1659.34,1659.34,0,0,0,427.264,349.21c-17.566,36.162-33.551,72.726-47.393,109.751-10.069,26.748,24.812,57.75,63.118,48.141C534.58,484.037,565.935,386.421,585.719,321a212.364,212.364,0,0,0,12.386,53.448c11.351,30.053,57.933,37.359,88.069,18.014,110.381-70.928,61.545-206.082,47.613-298.487m-423.5,115.008a451.457,451.457,0,0,0-59.434,24.248c-17.409,8.757-34.859-9.609-19.032-19.532a312.766,312.766,0,0,1,97.56-39.8c12.485-2.66,26.336-6.036,39.354-6.41,5.507-.14,12.341,1.263,15.294,5.13,2.474,3.252,3.572,5.725,3.043,9.378-.69,4.415-5.3,8.262-10.782,9.809-10.97,3.142-22.818,4.8-33.954,7.8-10.782,2.891-21.572,5.869-32.05,9.368M521.952,332.064c-.206,3.068-.462,6.089-.775,9.111a299.968,299.968,0,0,1-5.888,35.354c-1.125,4.913-7.865,8.977-14.725,7.958-6.856-1.063-11.7-5.682-10.665-10.982a283.723,283.723,0,0,0,4.629-34.5l.412-6.263c0-.084-.013-.638.009-1.023s.045-1.534.054-1.664c.045-.638.085-1.277.072-1.918.031-2.263-.211-4.619.672-6.765.287-.842.8-1.721,1.089-2.567,0-.04.09-.508.112-.805.148-1.4.471-2.844.735-4.245.511-3.4.937-6.37,3.092-9.492,2.72-3.914,11.548-5.812,15.079-1.2a18.632,18.632,0,0,1,3.164,4.94,34.4,34.4,0,0,1,1,4.819c.3,1.591.533,3.182.775,4.769.081.475.161.989.242,1.5a11.952,11.952,0,0,1,.439,1.126c1.47,3.77.739,7.928.479,11.845m163.514-122.05a8.6,8.6,0,0,1-.47,1.093c-.134.251-.211.548-.341.8l-.067.127a12.378,12.378,0,0,1-6.861,5.9,19.031,19.031,0,0,1-10.311.986,6.471,6.471,0,0,1-.905-.16c-.619-.15-1.188-.214-1.81-.364a19.908,19.908,0,0,1-6.982-2.647,29.136,29.136,0,0,0-2.469-1.631A27.117,27.117,0,0,1,650.818,211c-.6-.491-1.192-1.026-1.788-1.517a19.327,19.327,0,0,1-2.684-2.7c-2.429-3.122-5.516-6.607-7.246-9.916-2.846-5.444-5.9-11.193-6.717-17.028-.641-5.02,3.056-9.883,8.94-12.269,5.826-2.35,13.3-2.032,18.534,1.15,6.166,3.73,10.925,8.813,15.532,13.6,2.734,2.834,4.777,6.537,6.977,9.652a20.356,20.356,0,0,1,3.477,9.736,11.994,11.994,0,0,0,.471,2.45,9.973,9.973,0,0,1-.847,5.862" transform="translate(0 -0.001)" fill="#567d56"/>
        </g>
      </g>
      <g id="Grupo_1101158" data-name="Grupo 1101158" transform="translate(533.462 -104.717) rotate(87)" opacity="0.17" style="mix-blend-mode: multiply;isolation: isolate">
        <g id="Grupo_1101157" data-name="Grupo 1101157" transform="translate(0 0)" clip-path="url(#clip-path-3)">
          <path id="Trazado_878252" data-name="Trazado 878252" d="M515.848,104.2c-2.211-31.461-3.527-63.75-18.918-88.361-9.362,34.777-25.276,65.416-41.52,96.1-21.962,41.489-45.123,81.723-69.837,120.455C337.1,308.594,282.3,373.843,225.783,438.957c-9.854,11.323-24.827-9.391-15.41-21.719,51.507-67.7,97.662-144.075,142.365-219.866C375.266,159.188,397.1,120.2,417.919,80.354,434.1,49.4,449.016,17.508,468.847-9.118c-14.485-6.106-30.589-5.846-46.7-4.764q-28.332,1.991-56.686,4.417c-44.639-4.335-89.668-1.757-135.176,7.189A27.356,27.356,0,0,0,212.838,9.337c-29.381,22.072-24.031,87.712,16.23,93.257,16.875,2.288,33.745,4.632,50.62,6.92C202.729,159.11,130.82,222.554,65.032,298.8c-29.8,34.56.96,89.791,33.706,81.046a628.644,628.644,0,0,0,70.019-23.277Q78.668,472.745-3.3,599.8c-27.918,43.278,4.973,105.711,44,78.1,92.464-65.51,176.516-148.519,252.5-243.553-13.125,46.449-25.131,93.391-35.619,140.895-7.626,34.319,16.69,73.507,44.135,60.739,65.625-30.644,89.615-155.823,104.817-239.7a455.345,455.345,0,0,0,7.913,68.166c7.574,38.273,40.626,47.021,62.418,21.912C556.685,394.289,524.2,222.14,515.848,104.2M212.27,256.578a283.3,283.3,0,0,0-42.742,31.749c-12.548,11.414-24.664-11.841-13.223-24.726,14.2-16.027,29.417-29.329,46.233-39.717a154.754,154.754,0,0,1,23.927-12.39c8.937-3.559,18.86-8.05,28.137-8.693a10.693,10.693,0,0,1,10.806,6.364,22.588,22.588,0,0,1,2.008,11.95c-.566,5.652-3.913,10.628-7.846,12.676-7.866,4.155-16.333,6.424-24.315,10.406-7.728,3.832-15.464,7.776-22.985,12.382m148.66,154.649c-.2,3.925-.432,7.79-.707,11.656-1.086,15.187-2.7,30.242-4.794,45.267-.885,6.295-5.754,11.575-10.623,10.359-4.865-1.272-8.24-7.115-7.409-13.9q2.69-21.992,3.883-44.166l.4-8.012c0-.107,0-.816.024-1.307s.058-1.961.066-2.128c.043-.817.082-1.633.084-2.453.061-2.893-.071-5.9.594-8.656.219-1.08.6-2.21.819-3.295,0-.051.072-.651.093-1.031.129-1.8.383-3.642.6-5.435.422-4.347.775-8.155,2.364-12.172,2-5.037,8.323-7.576,10.76-1.721a29.611,29.611,0,0,1,2.169,6.274c.35,1.984.446,4.118.63,6.148s.326,4.061.471,6.087c.049.606.1,1.263.147,1.919.033.166.235,1,.294,1.434.983,4.8.392,10.125.14,15.135M479.461,253.139c-.064.488-.248.919-.354,1.4-.1.322-.159.7-.256,1.025l-.05.163a13.891,13.891,0,0,1-4.986,7.623,8.2,8.2,0,0,1-7.361,1.391,2.767,2.767,0,0,1-.642-.194c-.438-.184-.842-.258-1.283-.443a11.035,11.035,0,0,1-4.928-3.3,23.952,23.952,0,0,0-1.731-2.054,23.383,23.383,0,0,1-3.1-3.917c-.416-.621-.832-1.3-1.248-1.917a22.714,22.714,0,0,1-1.866-3.422c-1.677-3.96-3.817-8.376-4.992-12.584-1.934-6.924-4.013-14.233-4.495-21.682-.371-6.409,2.345-12.672,6.576-15.8a9.563,9.563,0,0,1,13.181,1.235c4.328,4.69,7.631,11.128,10.831,17.183,1.9,3.588,3.291,8.3,4.805,12.25a40.184,40.184,0,0,1,2.311,12.4,26.215,26.215,0,0,0,.293,3.126,22.219,22.219,0,0,1-.7,7.5" transform="translate(5.171 6.633)" fill="#d8f263"/>
        </g>
      </g>
      <g id="Grupo_1101160" data-name="Grupo 1101160" transform="translate(524.839 -151.93)" opacity="0.24" style="mix-blend-mode: multiply;isolation: isolate">
        <g id="Grupo_1101159" data-name="Grupo 1101159" transform="translate(0 0)" clip-path="url(#clip-path-4)">
          <path id="Trazado_878254" data-name="Trazado 878254" d="M64.255,164.591c11.488,1.7,22.845,3.316,34.281,4.7,11.437,1.293,22.851,2.488,34.287,3.145,5.718.372,11.442.491,17.155.662,5.752.166,11.352.109,17.178.078,11.357-.207,22.9-.642,34.367-1.568,11.482-.952,23-2.033,34.48-3.564,5.747-.693,11.476-1.583,17.223-2.375q8.612-1.226,17.155-2.892c11.369-2.328,22.669-5.111,34.072-7.253,5.713-1,11.437-1.935,17.195-2.649,5.747-.766,11.544-1.216,17.325-1.78l.7-.067a7.514,7.514,0,0,1,7.114,3.311c3.784,6.037,7.885,12.044,12.038,17.952l13.014,17.439c8.725,11.6,17.932,22.856,26.975,34.217,9.122,11.283,18.063,22.778,28.552,32.944,2.615,2.535,5.27,5.039,8.1,7.346a79.681,79.681,0,0,0,8.9,6.368,83.243,83.243,0,0,0,9.366,5.168,51.129,51.129,0,0,0,8.884,3.4l-8.878,8.624-3.063-8.1c-.522-1.345-.936-2.726-1.413-4.087a26.042,26.042,0,0,1-1.628-5.717,10.91,10.91,0,0,1,.471-4.568,12.039,12.039,0,0,1,2.218-3.922,44.631,44.631,0,0,1,3.744-3.73l6.53-6.167,6.524-6.172c2-1.95,4.839-4.459,5.684-5.541a1.86,1.86,0,0,0,.522-1.076,8.152,8.152,0,0,0-.409-2.649l-2.422-8.179-2.5-8.484a17.413,17.413,0,0,1,.352-11.283c3.341-7.45,9.372-10.973,13.155-14.76A69.585,69.585,0,0,0,491.96,180.3a31,31,0,0,0,1.951-3.264,2.187,2.187,0,0,0,.221-1.707c-.187-1.185-1.5-4.356-2.451-6.994-2.042-5.52-4.05-10.616-5.962-16.514a22.379,22.379,0,0,1-.964-5.83,14.651,14.651,0,0,1,1.662-7.067c2.258-4.216,4.89-6.374,6.66-8.36a129.535,129.535,0,0,0,10.637-12.908,9.184,9.184,0,0,0,1.135-1.961c.057-.135.062-.14.091-.093-.057-.372.062.14.017-.109-.045-.729-2.15-2.644-4.64-6.3l-.6-.978-.8-1.588a20.482,20.482,0,0,1-1.061-2.913,22.4,22.4,0,0,1-.777-5.7,27.912,27.912,0,0,1,2.212-10.393c2.57-6.472,7.324-11.552,11.692-15.8l6.422-6.182c1.015-1,2.025-2,2.95-3.016L521.72,61.1c.187-.2.17-.217.057.135a2.515,2.515,0,0,0-.079.874c-.017-.29.028.31.062.352a1.876,1.876,0,0,0,.119.326c.17.336.233.3.114.14l-.664-.9c-.55-.771-1-1.459-1.407-2.126-.828-1.355-1.56-2.7-2.258-4.051a49.381,49.381,0,0,1-3.54-8.614,2.847,2.847,0,0,1,2.212-3.513,3.237,3.237,0,0,1,3.7,1.614l.1.222a59.659,59.659,0,0,0,4.283,6.948c.8,1.154,1.628,2.292,2.473,3.352.431.543.862,1.035,1.225,1.423l.766.8a6.868,6.868,0,0,1,1.31,1.976,6.25,6.25,0,0,1,.272.838,6.543,6.543,0,0,1,.125.885,5.266,5.266,0,0,1-.255,1.93,8.286,8.286,0,0,1-1.044,2.023l-1.35,1.966c-.913,1.3-1.878,2.519-2.842,3.73-1.929,2.406-3.954,4.63-5.8,6.834-3.7,4.408-6.813,8.557-8.18,13.021-1.424,4.5-1.18,8.764.987,11.542.7,1.257,3.614,3.156,6.008,7.76a12.832,12.832,0,0,1,1.129,4.035,12.4,12.4,0,0,1-.323,4.154,19.656,19.656,0,0,1-2.706,5.82,140.023,140.023,0,0,1-11.386,14.842c-2.139,2.442-4.045,4.387-4.476,5.375a3.24,3.24,0,0,0-.352,1.231,9.485,9.485,0,0,0,.295,2.644c1.242,5.158,2.575,11.071,3.772,16.591.5,2.9,1.5,5.148,1.691,9.685a12.984,12.984,0,0,1-1.844,6.56,40.228,40.228,0,0,1-2.9,4.066c-3.551,4.739-7.233,9.824-11.97,14.361-4.731,4.392-9.519,7.884-10.58,11.407-.55,1.537-.477,3.213.278,5.577s1.844,5.323,2.774,7.967l2.927,8.252a18.336,18.336,0,0,1,1.072,5.779,12.356,12.356,0,0,1-2.258,6.984c-2.723,3.627-4.544,5.013-6.649,7.367l-6.183,6.456-6.172,6.467a32.481,32.481,0,0,0-2.445,2.711c-.119.15-.131.4.079-.134.023.052.1-.45.108-.326-.017.083.4,1.045.97,2.5.5,1.355,1.067,2.685,1.526,4.051l2.814,8.184.25.735c1.163,3.363-.891,6.948-4.578,8a7.6,7.6,0,0,1-4.55-.114,42.937,42.937,0,0,1-11.822-6.1,104.092,104.092,0,0,1-9.173-7.61l-16.514-15.655c-10.8-10.4-21.614-20.74-31.627-31.7-10.081-10.906-19.282-22.406-28.512-33.86l-13.564-17.377L333.43,162.2l7.812,3.244c-5.718.947-11.42,2.012-17.178,2.757-5.741.8-11.516,1.381-17.308,1.888-11.6.885-23.3,1.123-34.934,1.816-11.618.776-23.106,2.344-34.627,3.8-11.533,1.438-23.043,3.213-34.679,4.475-11.635,1.33-23.293,2.463-35.166,2.8-5.8.207-11.817.16-17.682.01-5.9-.171-11.788-.553-17.648-1.05-11.737-.978-23.4-2.406-34.911-4.47-11.516-1.945-22.97-4.423-34.179-7.269a2.855,2.855,0,0,1-2.212-3.528,3.188,3.188,0,0,1,3.54-2.08" transform="translate(283.194 182.059)" fill="#d8f263"/>
          <path id="Trazado_878255" data-name="Trazado 878255" d="M800.782,197.294c-3.336.564-6.768,1.019-10.03,1.676-3.262.7-6.484,1.236-9.752,2.069-6.53,1.49-12.991,3.27-19.458,5.039-6.456,1.79-12.872,3.751-19.254,5.784s-12.713,4.237-19.055,6.4q-18.984,6.573-37.577,14.1c-12.356,5.06-24.689,10.176-36.732,15.717l-.04.016a5.653,5.653,0,0,1-6.722-1.5L614.6,211.707q-13.845-17.375-28.285-34.31c-9.621-11.288-19.85-22.121-30.276-32.753a319.47,319.47,0,0,0-33.4-29.928c-6-4.537-11.873-9.2-18.182-13.342-6.178-4.294-12.361-8.536-18.749-12.489l-9.389-6.162-9.65-5.768c-3.239-1.883-6.314-4.009-9.6-5.82l-9.814-5.5a302.885,302.885,0,0,0-40.907-19.374,388.01,388.01,0,0,0-44.05-13.311c-15.1-3.7-30.021-6.72-45.412-9.141-7.63-1.355-15.351-2.1-23.021-3.218-3.841-.59-7.7-.926-11.573-1.226l-11.6-1.071a363.179,363.179,0,0,0-46.62-.843,241.609,241.609,0,0,0-46.081,6.115c-7.619,1.34-14.9,3.973-22.363,5.742-7.488,1.733-14.716,4.227-22.085,6.286-7.409,1.966-14.568,4.573-21.8,7.036-3.591,1.273-7.273,2.369-10.807,3.782L90.407,50.8,79.872,55.222,69.7,60.286c-6.756,3.435-13.672,6.643-20.048,10.673-6.422,3.952-13.2,7.445-19.345,11.77L11.724,95.548l.5-7.082c9.343,9.478,18.942,18.733,28.4,28.107l.023.026a4.455,4.455,0,0,1-.306,6.7,5.475,5.475,0,0,1-1.651.931c-10.342,3.637-20.6,7.465-30.821,11.4l2.558-7.931,10.381,11.506,10.83,11.128c3.75,3.6,7.568,7.129,11.232,10.771,3.852,3.5,7.675,7,11.425,10.585,3.937,3.409,7.795,6.9,11.652,10.378l12,10.067,12.4,9.69,12.758,9.3,13.1,8.919,13.354,8.629,13.615,8.319,13.9,7.952q14.092,7.675,28.478,14.977l14.545,7.041,14.716,6.8.074.031a2.762,2.762,0,0,1,1.384,3.859,3.3,3.3,0,0,1-3.971,1.366L196.8,273.379l-15.283-6.12-15.113-6.513-14.835-7.057-14.613-7.45-14.381-7.853q-7.088-4.09-14.075-8.334l-13.723-8.836-13.4-9.255-13.053-9.674-12.69-10.1q-6.169-5.23-12.208-10.6c-3.926-3.668-7.749-7.429-11.567-11.185-3.687-3.87-7.216-7.869-10.818-11.79l-10.234-12.2L1.166,133.837l-.159-.207a4.823,4.823,0,0,1,1.379-7.1A5.814,5.814,0,0,1,3.73,125.9c10.455-3.373,20.865-6.85,31.2-10.523l-1.934,7.657c-9.553-9.3-18.959-18.712-28.631-27.916L4.337,95.1A4.5,4.5,0,0,1,4.5,88.326l.363-.29L23.591,74.451c6.183-4.62,13.031-8.417,19.526-12.664,6.45-4.33,13.473-7.848,20.349-11.588,3.46-1.837,6.881-3.746,10.376-5.525L84.6,39.784,95.365,34.87c3.614-1.588,7.38-2.861,11.068-4.3,7.432-2.773,14.784-5.768,22.544-7.714,15.209-4.765,31.1-7.507,46.966-9.307,15.913-1.666,31.712-3.27,47.6-4.315l11.93-.533c3.971-.279,7.953-.476,11.93-.424L259.352,8.2c3.988-.078,7.982-.1,11.959.14a427.586,427.586,0,0,1,47.636,3.942c15.68,2.245,31.564,5.241,46.921,8.81A420.426,420.426,0,0,1,411.6,34.3c7.443,2.773,15.079,5.189,22.266,8.5,7.29,3.114,14.716,6.058,21.625,9.845l10.54,5.417c3.46,1.888,6.751,4,10.081,6.068l9.916,6.286L495.42,77.3c3.063,2.375,6.269,4.578,9.2,7.082l8.719,7.553c5.906,4.925,11.329,10.28,16.866,15.51,10.954,10.549,21.659,21.206,32.313,31.894,5.338,5.339,10.347,10.931,15.532,16.384l15.141,16.653c9.984,11.175,19.725,22.515,29.363,33.917l14.3,17.191,13.967,17.393-6.762-1.48q18.414-8.606,37.4-15.888,18.984-7.31,38.36-13.7c12.963-4.165,26.09-7.92,39.4-11.18,6.643-1.655,13.394-3.006,20.173-4.222,3.353-.673,6.881-1.081,10.3-1.63,3.438-.5,6.79-.766,10.189-1.159a3.1,3.1,0,0,1,3.517,2.483,2.915,2.915,0,0,1-2.536,3.182Z" transform="translate(0.002 34.005)" fill="#d8f263"/>
          <path id="Trazado_878256" data-name="Trazado 878256" d="M64.2,30.71c5.611,10.445.874,23.053-10.574,28.169s-25.284.8-30.895-9.643-.874-23.058,10.58-28.169S58.586,20.27,64.2,30.71Z" transform="translate(95.19 78.941)" fill="#d8f263" stroke="#40433e" stroke-linecap="round" stroke-linejoin="round" stroke-width="1.482"/>
          <path id="Trazado_878257" data-name="Trazado 878257" d="M43.969,42.9C111.443,12,187.851-2.481,263.239,1.342c9.321.471,20.916,2.964,22.748,11.309.675,3.068-.278,6.26-1.759,9.084-6.3,11.982-20.825,17.962-32.7,25.67s-22.5,21.578-16.049,33.493" transform="translate(205.464 3.093)" fill="#d8f263" stroke="#40433e" stroke-linecap="round" stroke-linejoin="round" stroke-width="1.482"/>
          <path id="Trazado_878258" data-name="Trazado 878258" d="M85.437,58.165A151.8,151.8,0,0,1,100.215,63.2c4.862,1.883,9.536,4.134,14.194,6.4a150.436,150.436,0,0,1,13.473,7.6C132.193,80,136.323,83,140.436,86l12.078,9.3a119,119,0,0,0,12.446,9l6.456,4.4a75.1,75.1,0,0,1,5.843,5.008c3.665,3.544,6.5,7.729,9.525,11.718l.374.5a4.38,4.38,0,0,1-.976,6.234,41.287,41.287,0,0,1-12.878,6.539,51.171,51.171,0,0,1-13.865,1.987,57.686,57.686,0,0,1-13.422-1.34c-4.4-.942-8.447-2.447-11.936-2.84-3.7-.362-5.985.466-8.515,3.616a23.416,23.416,0,0,1-5.259,4.76,15.038,15.038,0,0,1-3.943,1.733,17.446,17.446,0,0,1-4.153.74c-5.65.44-10.432-1.48-14.636-3.342a59.073,59.073,0,0,1-11.232-7.057c-3.16-2.359-6.632-5.235-9.644-7.977-3.08-2.778-6.155-5.561-9-8.531-5.73-5.841-12.605-11.159-16.945-18.164A99.47,99.47,0,0,1,40.326,80.364a98.042,98.042,0,0,1-3.012-11.583,92.123,92.123,0,0,1-1.265-11.79,2.273,2.273,0,0,1,2.332-2.214,2.376,2.376,0,0,1,2.3,1.459l.028.078c.686,1.806,1.316,3.6,1.889,5.4l2.082,5.3q2.136,5.261,4.584,10.342c1.713,3.363,3.387,6.72,5.333,9.954,1.878,3.259,3.909,6.436,6.047,9.55,2.184,3.073,3.965,6.394,6.013,9.612a53.155,53.155,0,0,0,6.881,9.224,84.766,84.766,0,0,0,8.64,7.889,98.2,98.2,0,0,0,9.65,6.813,50.237,50.237,0,0,0,10.03,5.23,27.469,27.469,0,0,0,9.706,1.718q1.064-.047,2.059-.171a7.647,7.647,0,0,0,1.917-.331,14.908,14.908,0,0,0,4.8-2.106,39.041,39.041,0,0,1,6.518-3.378,20.061,20.061,0,0,1,7.67-1.05c4.918.176,8.935,1.128,12.861,1.293a91.509,91.509,0,0,0,11.7.212c7.59-.409,14.931-2.447,19.583-6.994l-.6,6.725c-3.375-3.482-7.154-6.606-10.325-10.2a135.948,135.948,0,0,1-9.088-11.283,65.12,65.12,0,0,0-4.822-5.51c-1.77-1.692-3.67-3.264-5.537-4.868-1.917-1.552-3.92-3.016-5.877-4.522L136.244,91c-4.17-2.716-8.487-5.23-12.792-7.745l-13-7.413c-4.368-2.426-8.855-4.651-13.286-7.015l-13.609-6.71a2.064,2.064,0,0,1-.953-2.928,2.457,2.457,0,0,1,2.774-1.035Z" transform="translate(168.449 228.603)" fill="#d8f263"/>
          <path id="Trazado_878259" data-name="Trazado 878259" d="M246.1,56.489c.028.026-.539-.248-1.288-.491a17.281,17.281,0,0,0-3.653-.781c-3.347-.455-8.248.2-14.392,1.288-3.063.5-6.257,1.247-9.7,1.94-3.432.766-7.04,1.614-10.739,2.633-7.431,1.914-15.289,4.222-23.208,6.508-7.948,2.188-15.975,4.346-23.719,5.758a125.612,125.612,0,0,1-21.517,2.3,86.4,86.4,0,0,1-8.719-.347,65.415,65.415,0,0,1-6.654-.926c-3.659-.74-5.684-1.324-5.684-1.324a1.622,1.622,0,0,1-1.174-2.069,1.767,1.767,0,0,1,1.5-1.138l.13-.016s2.088-.233,5.627-.357c1.764-.026,3.926-.274,6.365-.414,2.439-.031,5.2-.466,8.186-.616,2.99-.352,6.24-.548,9.661-1.024,3.438-.336,7.051-.869,10.807-1.418,7.494-1.164,15.549-2.463,23.611-4.025,8.078-1.464,16.156-3.14,23.758-4.651,7.59-1.443,14.738-2.923,20.888-3.8,6.008-1.05,11.431-1.718,15.317-1.371a20.778,20.778,0,0,1,4.521.843,10.524,10.524,0,0,1,1.43.507l.238.093a1.559,1.559,0,0,1,.794,2.173,1.856,1.856,0,0,1-2.383.724Z" transform="translate(540.039 217.252)" fill="#d8f263"/>
          <path id="Trazado_878260" data-name="Trazado 878260" d="M234.1,83.379a80.127,80.127,0,0,0-14.591-2.571c-4.952-.471-9.967-.486-14.988-.5s-10.081.259-15.175.31c-5.111.036-10.211.088-15.351-.114a177.527,177.527,0,0,1-30.566-3.585,77.872,77.872,0,0,1-14.988-4.449,36.255,36.255,0,0,1-13.008-8.852l-.46-.517a2.041,2.041,0,0,1,.357-3.047,2.552,2.552,0,0,1,2.956-.021c.97.688,1.917,1.412,2.853,2.157a1.556,1.556,0,0,1,.17,2.338,1.934,1.934,0,0,1-1.917.491c-1.18-.341-2.349-.7-3.5-1.1l2.854-3.585c7.953,4.682,17.013,6.974,26.629,9.188,9.61,2.147,19.311,4.108,29.182,5.386,9.837,1.417,19.872,1.687,30.015,2.023,5.077.135,10.166.45,15.266.874A115.991,115.991,0,0,1,235,80.239l.062.016a1.619,1.619,0,0,1,1.271,1.981,1.805,1.805,0,0,1-2.178,1.159l-.062-.015" transform="translate(534.789 248.635)" fill="#d8f263"/>
          <path id="Trazado_878261" data-name="Trazado 878261" d="M221.885,126.531s-1.946-.445-5.344-1.226c-3.358-.817-8.362-1.956-14.092-3.7-2.91-.771-6.013-1.764-9.281-2.845-3.279-1.05-6.66-2.349-10.223-3.57-7.006-2.675-14.364-5.825-21.6-9.276-3.54-1.837-7.114-3.647-10.478-5.66-3.46-1.888-6.632-4.051-9.746-6.1-3.007-2.162-5.934-4.253-8.549-6.4-2.587-2.178-5.055-4.211-7.091-6.322a75.545,75.545,0,0,1-9.253-10.569c-1.969-2.737-2.939-4.392-2.939-4.392a1.588,1.588,0,0,1,.743-2.24,1.975,1.975,0,0,1,1.94.129l.062.047s1.645,1.112,4.255,3.218c2.587,2.085,6.286,5.07,10.722,8.65,2.2,1.79,4.555,3.74,7.12,5.732,2.456,2.1,5.281,4.077,8.061,6.275,2.893,2.064,5.815,4.294,8.918,6.4,3.035,2.2,6.325,4.165,9.531,6.275,3.313,1.945,6.581,3.989,9.967,5.748,3.347,1.831,6.791,3.373,10.081,4.951,3.358,1.443,6.592,2.907,9.786,3.994,3.165,1.159,6.172,2.23,9,3.078a140.205,140.205,0,0,0,13.831,3.57c3.426.683,5.389,1.071,5.389,1.071a1.629,1.629,0,0,1,1.356,1.935,1.785,1.785,0,0,1-2.116,1.236l-.057-.01" transform="translate(528.416 267.234)" fill="#d8f263"/>
          <path id="Trazado_878262" data-name="Trazado 878262" d="M46.81,13.208s1.248,1.371,3.432,3.766c2.218,2.39,5.384,5.8,9.19,9.907,3.92,4,8.192,8.9,13.014,13.994,4.76,5.163,9.831,10.673,14.9,16.177,4.975,5.6,9.814,11.319,13.916,16.953a130.073,130.073,0,0,1,10.223,15.929,62.629,62.629,0,0,1,6.62,17.165,2.607,2.607,0,0,1-2.332,2.944,3,3,0,0,1-2.354-.647l-.045-.041a44.914,44.914,0,0,1-3.727-3.7A113.775,113.775,0,0,1,101.2,95.326c-3.262-4.377-6.694-9.664-10.353-15.36C87.23,74.234,83.372,68.119,79.509,62c-3.9-6.115-7.925-12.189-12.055-17.657-4.1-5.494-8.288-10.378-11.868-14.573C48.28,21.532,42.8,16.426,42.8,16.426a2.293,2.293,0,0,1,.04-3.451,2.864,2.864,0,0,1,3.784.036c.045.047.1.093.142.145Z" transform="translate(196.433 51.248)" fill="#d8f263"/>
          <path id="Trazado_878263" data-name="Trazado 878263" d="M178.546,40.7s-2.144,1.433-5.894,3.942c-3.767,2.447-9.122,6.177-15.68,10.342-3.222,2.173-6.773,4.444-10.546,6.829L134.541,69.3c-8.322,5.1-17.274,10.461-26.339,15.717-9.179,5.075-18.448,10.067-27.491,14.139-4.527,2.018-8.935,3.906-13.167,5.6-4.272,1.6-8.277,3.187-12.123,4.32A128.559,128.559,0,0,1,29.24,115a2.692,2.692,0,0,1-3-2.266,2.44,2.44,0,0,1,1.186-2.307l.04-.026s2.264-1.4,6.354-3.44c4.079-2.075,9.962-4.842,17.093-7.9,3.557-1.568,7.477-3.1,11.567-4.832,4.13-1.661,8.481-3.409,12.985-5.215,4.5-1.831,9.156-3.72,13.882-5.639,4.76-1.873,9.474-4,14.279-5.991,4.743-2.1,9.525-4.149,14.137-6.337,4.618-2.173,9.06-4.491,13.394-6.679,8.64-4.434,16.366-9.09,22.953-13.109,6.53-4.134,11.834-7.626,15.464-10.3l5.735-4.134a2.847,2.847,0,0,1,3.75.4,2.3,2.3,0,0,1-.437,3.425l-.079.052" transform="translate(122.584 151.489)" fill="#d8f263"/>
          <path id="Trazado_878264" data-name="Trazado 878264" d="M124.312,22.473l2.178-.331c.908,0,1.849,0,2.774.047a19.821,19.821,0,0,1,5.038,1.128,21.977,21.977,0,0,1,8.305,5.4,23.891,23.891,0,0,1,5.134,8.039,22.178,22.178,0,0,1,1.044,4.666,18.945,18.945,0,0,1-.238,4.972l-.511,1.981c-.278.792-.539,1.614-.857,2.359a27.433,27.433,0,0,1-2.264,4.092,31.184,31.184,0,0,1-6.325,6.772,45.013,45.013,0,0,1-7.761,5.137c-2.78,1.438-5.571,2.985-8.7,4.294l2.6-7.02a43.339,43.339,0,0,1,4.629,3.709,28.885,28.885,0,0,1,3.721,4.465c2.133,3.228,3.285,6.938,4.38,10.559a50.493,50.493,0,0,1,2.468,11.118,31.6,31.6,0,0,1-.817,11.449c-.357,1.242-.59,1.749-.891,2.659-.357.921-.851,1.914-1.31,2.84a45.853,45.853,0,0,1-3.234,4.93c-1.225,1.531-2.473,3.011-3.773,4.465-1.367,1.4-2.678,2.825-4.011,4.34a32.073,32.073,0,0,1-4.482,4.34,20.125,20.125,0,0,1-5.894,2.892,28.618,28.618,0,0,1-6.745,1.014,36.564,36.564,0,0,1-6.819-.445l3.988-7.677a17.222,17.222,0,0,1,5.542,10.487,22.581,22.581,0,0,1-1.259,10.812,25.933,25.933,0,0,1-2.519,4.811,50.772,50.772,0,0,1-3.285,4.465,30.294,30.294,0,0,1-8.305,7.253,29.3,29.3,0,0,1-5.049,2.25,54.777,54.777,0,0,1-5.316,1.542,44.9,44.9,0,0,1-11.187,1.185,35.11,35.11,0,0,1-11.153-1.992,24.258,24.258,0,0,1-9.247-5.96,2.049,2.049,0,0,1,.318-3.073,2.567,2.567,0,0,1,2.661-.238l.074.036c5.344,2.633,11.17,3.021,16.905,2.318a44.024,44.024,0,0,0,8.436-1.893,43.024,43.024,0,0,0,4.079-1.521l3.914-1.728a45.987,45.987,0,0,0,7.545-3.7,12.348,12.348,0,0,0,2.876-2.675,12.5,12.5,0,0,0,1.821-3.363c1.8-4.7,0-10.161-3.4-12.442a4.047,4.047,0,0,1-1-5.991,4.88,4.88,0,0,1,4.016-1.738l.976.052a22.489,22.489,0,0,0,4.379-.2c1.435-.321,2.825-.7,4.215-1.159,2.695-1,5.832-1.6,8.952-2.949a14.99,14.99,0,0,0,6.564-6.834,21.681,21.681,0,0,0,1.634-4.284c.131-.7.272-1.314.454-2.023.119-.755.346-1.9.369-2.333.1-1.5.278-2.97.255-4.47a39.64,39.64,0,0,0-.312-4.48,31.321,31.321,0,0,0-2.61-8.79c-1.413-2.809-3.512-5.287-5.185-7.941-.834-1.34-1.656-2.69-2.394-4.123-.806-1.386-1.424-2.938-2.246-4.387l-1.044-1.826a3.412,3.412,0,0,1,1.668-4.8,4.214,4.214,0,0,1,1.98-.4,22.49,22.49,0,0,0,3.9-.155,18.168,18.168,0,0,0,3.773-1.045,24.216,24.216,0,0,0,6.49-4.03,21.608,21.608,0,0,0,4.5-5.665,19.522,19.522,0,0,0,1.322-3.176l.369-1.469.3-1.93a18.465,18.465,0,0,0-.051-2.985A17.846,17.846,0,0,0,136.8,33.11a18.7,18.7,0,0,0-5.287-4.434,23.245,23.245,0,0,0-3.256-1.34l-1.571-.383-2.19-.181a2.241,2.241,0,0,1-2.161-2.354,2.266,2.266,0,0,1,1.98-1.945" transform="translate(250.566 92.409)" fill="#d8f263"/>
          <path id="Trazado_878265" data-name="Trazado 878265" d="M126.895,29.786l2.315-.2,2.865.222a22.788,22.788,0,0,1,13.507,7.527,21.19,21.19,0,0,1,4.714,8.738A19.981,19.981,0,0,1,150.88,51a22.454,22.454,0,0,1-.72,5.075l-.686,2.033c-.346.8-.686,1.614-1.066,2.369A34.854,34.854,0,0,1,145.82,64.6a78.889,78.889,0,0,1-6.615,7.351,23.6,23.6,0,0,1-8.663,6.167,20.423,20.423,0,0,1-5.452,1.221,29.211,29.211,0,0,1-5.667-.222l5.055-7.864c1.985,4.346,4.691,8.557,5.945,13.782a17.927,17.927,0,0,1,.125,8.371A14.533,14.533,0,0,1,128.7,97.5a15.281,15.281,0,0,1-1.31,1.759,15.872,15.872,0,0,1-1.583,1.619c-2.133,1.914-4.34,3.327-6.246,4.78-2.025,1.511-3.563,3.585-5.559,5.251a21.328,21.328,0,0,1-6.864,3.549c-2.513.771-5,1.542-7.528,2.168l2.785-6.089c2.082,4.651,4.124,9.752,4.669,15.572a25.972,25.972,0,0,1-.068,4.5c-.147.755-.2,1.536-.38,2.307L106.1,135.1a16.851,16.851,0,0,1-5.645,8.309,25.057,25.057,0,0,1-9.031,4.03,26.454,26.454,0,0,1-4.839.74,33.377,33.377,0,0,1-4.663.041,52.276,52.276,0,0,1-16.61-4.061,2.129,2.129,0,0,1-1.231-2.907,2.436,2.436,0,0,1,2.122-1.314c5.531-.186,10.8.021,15.481-.585,1.276-.176,2.122-.295,3.392-.574a25.906,25.906,0,0,0,3.046-.895,24.334,24.334,0,0,0,5.264-2.716,23.749,23.749,0,0,0,4.391-3.083l.545-.8c.062.036.2-.336.3-.486a4.879,4.879,0,0,0,.516-1.293,9.06,9.06,0,0,0,.187-2.866c-.363-4.056-2.978-8.1-5.576-12.245a3.942,3.942,0,0,1,1.69-5.634l.46-.207.635-.248a48.571,48.571,0,0,0,6.127-2.768,31.331,31.331,0,0,1,6.149-2.654c2.212-.61,4.771-1,6.683-2.147a14.481,14.481,0,0,0,4.7-4.1,6.253,6.253,0,0,0,.584-1.086,6.474,6.474,0,0,0,.414-1.2,10.911,10.911,0,0,0,.306-2.287,15.45,15.45,0,0,0-.743-4.915,28.657,28.657,0,0,0-6.064-10.559,4.39,4.39,0,0,1,.692-6.56,5.38,5.38,0,0,1,2.354-.993l2.008-.316c1.2-.191,2.354-.5,3.5-.735,1.152-.279,2.286-.512,3.489-.688,1.186-.222,2.4-.409,3.727-.543a27.977,27.977,0,0,0,3.937-.854,12.669,12.669,0,0,0,6.189-4.558,15.589,15.589,0,0,0,1.838-3.2l.516-1.562.437-2.033a17.1,17.1,0,0,0-.034-3.264,24.513,24.513,0,0,0-.8-3.352,22.458,22.458,0,0,0-3.3-6.234,21.817,21.817,0,0,0-5.338-4.946,24.434,24.434,0,0,0-3.358-1.666l-1.645-.579-2.269-.429a2.186,2.186,0,0,1-1.855-2.571,2.325,2.325,0,0,1,2.116-1.723" transform="translate(298.456 123.488)" fill="#d8f263"/>
          <path id="Trazado_878266" data-name="Trazado 878266" d="M156.474,34.64l2.02.559,2.326,1.045a19.74,19.74,0,0,1,3.869,2.711,20.114,20.114,0,0,1,5.281,7.382,21.212,21.212,0,0,1,1.821,8.65,20.58,20.58,0,0,1-.55,4.428,21.494,21.494,0,0,1-1.645,4.372l-.981,1.7-1.327,1.966a30.758,30.758,0,0,1-2.927,3.352,47.672,47.672,0,0,1-6.932,5.536,109.389,109.389,0,0,1-16.6,8.391l-.062.026,4.47-8.981A31.536,31.536,0,0,1,149.82,88.1c.159,1.418.369,2.814.414,4.232a26.5,26.5,0,0,1-4.414,16.208l-1.242,1.614L143,111.863c-1.061,1-2.133,1.966-3.251,2.861-2.275,1.78-4.646,3.3-6.995,4.951-2.315,1.65-4.629,3.823-7.613,4.832a21.769,21.769,0,0,1-9.338,1.014l5.145-5.561a32.461,32.461,0,0,1-.108,8.748,36.7,36.7,0,0,1-2.456,8.267,43.527,43.527,0,0,1-4.141,7.574,82.82,82.82,0,0,1-5.219,7.263l-1.458,1.6c-.63.543-1.237,1.133-1.923,1.64a22.69,22.69,0,0,1-4.1,2.431,38.714,38.714,0,0,1-9.167,2.788A35.061,35.061,0,0,1,73.717,158.6l-1-.393a2.207,2.207,0,0,1-1.43-1.806c-.165-1.676-.357-3.342-.4-5.049a2.314,2.314,0,0,1,2.366-2.266,2.477,2.477,0,0,1,2.19,1.159c.891,1.5,1.634,3.032,2.411,4.558l-2.428-2.2a44.723,44.723,0,0,0,7.38-.233,40.591,40.591,0,0,0,6.978-1.49,34.408,34.408,0,0,0,6.359-2.654c1-.528,1.969-1.071,3-1.552a13.489,13.489,0,0,1,1.4-.652,16.975,16.975,0,0,1,1.7-.89,26.094,26.094,0,0,0,2.99-1.893,15.808,15.808,0,0,0,2.428-2.5,20.993,20.993,0,0,0,3.018-6.12,23.878,23.878,0,0,0,.045-13,4.363,4.363,0,0,1,3.449-5.339c.21-.047.414-.083.624-.109l1.072-.114c2.15-.228,4.181-.729,6.348-.957,2.122-.31,4.709-.072,6.938-.905a12.637,12.637,0,0,0,3-1.692,14.507,14.507,0,0,0,2.428-2.328,19.308,19.308,0,0,0,1.866-2.675l1.39-2.809a29.4,29.4,0,0,0,1.781-5.794,19.8,19.8,0,0,0,.261-6.011,16.646,16.646,0,0,0-1.656-5.748,16.144,16.144,0,0,0-3.37-4.827,4.312,4.312,0,0,1,.193-6.487,5.426,5.426,0,0,1,.828-.579l3.455-1.909.045.005c4.828,1.511,10.194.435,14.438-1.93a19.007,19.007,0,0,0,5.531-4.5,24.1,24.1,0,0,0,1.963-2.788l.7-1.361.732-1.764c.221-.755.5-1.95.675-2.918a28.833,28.833,0,0,0,.233-3.13,20.793,20.793,0,0,0-.936-6.27,20.933,20.933,0,0,0-3.024-5.7,27.473,27.473,0,0,0-2.286-2.4l-1.2-.983L154.46,38.53a2.065,2.065,0,0,1-.664-3.016,2.511,2.511,0,0,1,2.678-.874" transform="translate(331.244 144.18)" fill="#d8f263"/>
          <path id="Trazado_878267" data-name="Trazado 878267" d="M132.647,43.394a32.8,32.8,0,0,1,7.1,3.461,24.719,24.719,0,0,1,3.285,2.566c.488.466,1.044,1.066,1.441,1.511a14.737,14.737,0,0,1,1.35,1.806,13.216,13.216,0,0,1,2.218,8.474,12.1,12.1,0,0,1-.408,2.271,7.789,7.789,0,0,1-.329.993l-.471,1.149a20,20,0,0,1-2.354,3.7,37.273,37.273,0,0,1-2.774,3.114A26.24,26.24,0,0,0,139.2,75.7a25.43,25.43,0,0,1-2.439,3.27,11.374,11.374,0,0,1-3.188,2.385c-2.417,1.216-5.276,1.63-7.687,2.716-2.513.931-4.969,1.956-7.551,2.69l-1.515-8.64a11.264,11.264,0,0,1,6.586,2.675,13.749,13.749,0,0,1,3.336,4.672,36.087,36.087,0,0,1,1.849,4.832c.448,1.061,1.611,3.1,2.161,4.713a8.374,8.374,0,0,1-.13,5.142,28.853,28.853,0,0,1-2.269,4.625,25.77,25.77,0,0,1-6.893,7.5,47.991,47.991,0,0,1-4.294,2.871l-2.417,1.335c-.7.378-1.118.755-2.076,1.262a19.815,19.815,0,0,1-5.236,2.162,16.1,16.1,0,0,1-5.542.15c-7.267-.735-14.143-4.361-17.535-9.943a2.143,2.143,0,0,1,.959-3.047,2.657,2.657,0,0,1,2.144-.1l.2.078a36.987,36.987,0,0,0,14.84,2.8,33.624,33.624,0,0,1,3.443-.155l3.506.274a6.3,6.3,0,0,0,2.1-.264,6.185,6.185,0,0,0,1.554-.605,10.357,10.357,0,0,0,2.808-2.147,15.612,15.612,0,0,0,3.421-5.836c.794-2.116.323-4.19,1.475-6.146.607-1.128,1.4-1.821,1.186-3.43a4.94,4.94,0,0,0-1.413-2.783,6.049,6.049,0,0,0-2.507-1.5,4.28,4.28,0,0,0-1.708-.2,4.655,4.655,0,0,1-5.219-3.849,4.278,4.278,0,0,1,2.7-4.366l1-.424a67.18,67.18,0,0,0,6.4-2.871c2.144-.962,3.716-2.814,5.628-4.03a11.624,11.624,0,0,1,3.183-1.418c1.055-.274,2.587-.585,3.727-.807a8.834,8.834,0,0,0,5.542-3.337,6.7,6.7,0,0,0,1.259-2.385l.1-.512c.017-.212.136-.74.079-.7a5.882,5.882,0,0,0-.062-1.18,13.785,13.785,0,0,0-1.929-4.723l-.715-1.117c-.357-.481-.59-.792-.942-1.2A30.451,30.451,0,0,0,135,51.816c-1.56-1.526-3.313-3.13-5.06-4.9a2.074,2.074,0,0,1,.182-3.114,2.61,2.61,0,0,1,2.524-.409" transform="translate(392.762 180.445)" fill="#d8f263"/>
          <path id="Trazado_878268" data-name="Trazado 878268" d="M113.711,48.157a24.683,24.683,0,0,1,6.694,2.587,25.087,25.087,0,0,1,5.662,4.118,57.073,57.073,0,0,1,4.5,5.422,19.049,19.049,0,0,1,2.2,3.482l1.883,4.066a9.555,9.555,0,0,1,.9,4.7,6.963,6.963,0,0,1-1.991,4.077,37.855,37.855,0,0,1-3.54,2.892c-.6.486-1.123.874-1.838,1.361l-1.7,1.076a18.782,18.782,0,0,1-7.454,2.638c-1.282.135-2.541.166-3.716.357a7.04,7.04,0,0,0-3.268,1.169l1.2-5.955a17.915,17.915,0,0,1,3.478,1.138,6.7,6.7,0,0,1,2.405,2.354A20.08,20.08,0,0,1,121,89.632a18.579,18.579,0,0,1-.278,5.991c-.221.978-.448,1.94-.715,2.907l-1.027,3.094a8.519,8.519,0,0,0-.244,1.221l-.7,1.738a8.361,8.361,0,0,1-1.94,2.752,16.859,16.859,0,0,1-6.081,3.037c-4.334,1.216-9.332.807-12.809-1.692a2.167,2.167,0,0,1-.414-3.228,2.552,2.552,0,0,1,1.367-.807l.391-.088a21.565,21.565,0,0,0,7.278-3.026l1.344-.973c.426-.336.749-.74,1.186-1.019a5.625,5.625,0,0,1,1.549-.678l.766-.181a9.648,9.648,0,0,0,1.021-.817c.312-.047.7-.8.834-1.267a4.73,4.73,0,0,0,.238-1.692,8.171,8.171,0,0,0-.97-3.311,9.254,9.254,0,0,0-.874-1.443,14.521,14.521,0,0,0-1.152-1.185,2.541,2.541,0,0,1-.681-1.381,9.464,9.464,0,0,0-.306-2.023l-1.259-3.285a1.99,1.99,0,0,1,1.367-2.582,2.456,2.456,0,0,1,1.089-.088,6.178,6.178,0,0,0,3.285-.61,15.5,15.5,0,0,0,2.751-1.655c1.679-1.221,3.336-2.012,4.7-2.98.233-.186.562-.393,1.021-.812a8.361,8.361,0,0,0,.664-.755,4.406,4.406,0,0,0,.641-2.018,2.331,2.331,0,0,1,.828-1.583c.494-.419,1.356-.817,2.008-1.418a2.62,2.62,0,0,0,.7-.978,1.025,1.025,0,0,0,.017-1.066,4.2,4.2,0,0,0-1.146-1.919,42.088,42.088,0,0,0-4.85-3.647c-1.679-1.216-3.217-2.561-4.771-3.932a62.211,62.211,0,0,1-4.6-4.413,2.122,2.122,0,0,1,.272-3.187,2.714,2.714,0,0,1,2.2-.476" transform="translate(449.752 200.731)" fill="#d8f263"/>
          <path id="Trazado_878269" data-name="Trazado 878269" d="M41.667,56.8s2.961,5.06,8.078,12.225A242.351,242.351,0,0,0,70.23,94.2c8.033,8.743,16.616,16.984,22.936,23.285,3.171,3.135,5.786,5.789,7.6,7.662s2.808,3,2.808,3a.771.771,0,0,1-.113,1.154.992.992,0,0,1-1.1.031s-1.288-.843-3.443-2.421-5.174-3.911-8.549-6.938c-3.432-2.985-7.21-6.669-11.074-10.761-3.914-4.046-7.761-8.624-11.573-13.2-7.551-9.224-14.4-18.867-19.458-26.131-4.964-7.331-8.135-12.266-8.135-12.266l-.017-.026a.768.768,0,0,1,.318-1.107.939.939,0,0,1,1.22.29l.017.026" transform="translate(186.867 235.261)" fill="#d8f263"/>
          <path id="Trazado_878270" data-name="Trazado 878270" d="M44.987,57.83s3.772,4.635,10.058,11.045a237.28,237.28,0,0,0,24.7,22.059c9.531,7.481,19.566,14.335,27.014,19.576,3.721,2.638,6.825,4.837,9,6.379,2.167,1.557,3.364,2.514,3.364,2.514a.771.771,0,0,1,.108,1.154.98.98,0,0,1-1.078.212s-1.435-.631-3.875-1.852a111.739,111.739,0,0,1-9.8-5.52c-3.965-2.416-8.4-5.484-12.991-8.95-4.629-3.42-9.281-7.377-13.887-11.356-9.15-8.04-17.62-16.648-23.866-23.161C47.551,63.33,43.6,58.849,43.6,58.849l-.017-.026a.765.765,0,0,1,.13-1.143.957.957,0,0,1,1.254.124l.023.026" transform="translate(202.715 239.983)" fill="#d8f263"/>
          <path id="Trazado_878271" data-name="Trazado 878271" d="M55.239,48.831s2.178-1.154,5.985-3.182c3.869-1.966,9.338-4.9,16.043-8.133,6.626-3.383,14.591-6.917,23.106-10.756,8.566-3.746,17.819-7.548,27.213-11.092,9.434-3.445,18.982-6.72,28.166-9.084a192.821,192.821,0,0,1,25.5-5.515,68.779,68.779,0,0,1,19-.135,40.006,40.006,0,0,1,7.057,1.557l.085.031a1.6,1.6,0,0,1,1.015,2.126,1.828,1.828,0,0,1-1.742,1.04s-2.473-.083-6.694.114A139.431,139.431,0,0,0,182.63,8.178c-7.114,1.485-15.652,3.347-24.694,5.5-9,2.3-18.664,4.61-28.183,7.434-9.553,2.716-18.97,5.861-27.639,9.178-8.708,3.239-16.593,6.777-23.293,9.9-6.666,3.208-12.117,6-15.856,8.1s-5.894,3.316-5.894,3.316a1.885,1.885,0,0,1-2.451-.528,1.545,1.545,0,0,1,.579-2.235l.04-.021" transform="translate(253.998 1.44)" fill="#d8f263"/>
          <path id="Trazado_878272" data-name="Trazado 878272" d="M62.071,52.37s7.84-4.366,19.923-10.6c5.962-3.223,13.161-6.575,20.78-10.347,7.7-3.627,16-7.367,24.4-10.978,8.464-3.44,16.99-6.834,25.239-9.385A216.357,216.357,0,0,1,175.2,4.826a134.627,134.627,0,0,1,16.6-2.633c4.056-.414,6.393-.5,6.393-.5a1.752,1.752,0,0,1,1.878,1.583,1.637,1.637,0,0,1-1.084,1.573l-.045.021s-2.139.843-5.934,2.069c-3.772,1.3-9.2,2.938-15.714,4.842-6.53,1.831-14.148,3.973-22.306,6.265-4.062,1.216-8.26,2.468-12.52,3.74-4.289,1.231-8.56,2.685-12.895,4.025-8.611,2.794-17.11,5.893-24.944,9.1-7.846,3.171-14.971,6.534-21.024,9.5-6.025,3.026-10.937,5.634-14.33,7.631l-5.338,3.089a1.892,1.892,0,0,1-2.462-.5,1.542,1.542,0,0,1,.556-2.24l.04-.026" transform="translate(285.991 7.074)" fill="#d8f263"/>
          <path id="Trazado_878273" data-name="Trazado 878273" d="M67.739,46.765S74.1,43.459,83.646,38.5c9.536-5,22.453-11.335,35.575-17.465,6.62-2.938,13.286-5.836,19.719-8.143a173.985,173.985,0,0,1,17.887-5.53,93.548,93.548,0,0,1,18.227-2.923,1.769,1.769,0,0,1,1.889,1.614A1.686,1.686,0,0,1,176,7.566s-1.634.848-4.555,2.054c-2.91,1.231-7.1,2.851-12.18,4.6-10.143,3.539-23.894,7.548-37.521,12.126-6.824,2.266-13.564,4.749-19.781,7.3-6.24,2.5-11.885,5.189-16.712,7.5-4.794,2.4-8.719,4.418-11.42,5.991-2.717,1.536-4.266,2.416-4.266,2.416a1.887,1.887,0,0,1-2.456-.517,1.54,1.54,0,0,1,.567-2.235l.062-.036" transform="translate(312.33 18.509)" fill="#d8f263"/>
          <path id="Trazado_878274" data-name="Trazado 878274" d="M192.79,67.175s-7.318,1.609-18.562,3.513c-5.576,1.086-12.168,1.847-19.226,2.835-7.074.823-14.659,1.521-22.295,2.028-7.636.336-15.311.491-22.487.083a147.01,147.01,0,0,1-19.475-2.292,83.956,83.956,0,0,1-18.284-5.323,1.6,1.6,0,0,1-.8-2.245,1.85,1.85,0,0,1,1.6-.916H73.3s1.934-.021,5.219.207c3.29.207,7.942.6,13.479,1.154,11.068,1.123,25.749,2.9,40.664,3.533,7.454.326,14.937.3,21.937-.088,7.006-.357,13.513-1.148,19.061-1.956,5.554-.869,10.075-1.723,13.28-2.509,3.2-.75,5.021-1.18,5.021-1.18a1.8,1.8,0,0,1,2.173,1.164,1.617,1.617,0,0,1-1.282,1.976l-.017.005Z" transform="translate(333.935 266.956)" fill="#d8f263"/>
          <path id="Trazado_878275" data-name="Trazado 878275" d="M115.045,67.5s-2.1-.1-5.293.036a101.174,101.174,0,0,0-11.692,1.335c-4.283.616-8.617.921-11.771.129a11.675,11.675,0,0,1-5.106-2.411,1.969,1.969,0,0,1-.011-2.959,3.007,3.007,0,0,1,.369-.274,13.044,13.044,0,0,1,5.372-1.552c3.137-.326,7.2.435,11.335,1.273a54.447,54.447,0,0,0,11.442,1.433,42.368,42.368,0,0,0,5.219-.253,1.765,1.765,0,0,1,2.025,1.381,1.658,1.658,0,0,1-1.515,1.847,1.836,1.836,0,0,1-.335.016Z" transform="translate(376.207 257.617)" fill="#d8f263"/>
          <path id="Trazado_878276" data-name="Trazado 878276" d="M75.269,18.644s5.656,2.2,14.143,5.789c8.5,3.487,19.583,8.609,30.526,14.18,5.384,2.9,10.739,5.908,15.459,9.11A106.3,106.3,0,0,1,147.644,57.2a54.729,54.729,0,0,1,9.831,11.211,1.608,1.608,0,0,1-.737,2.292,1.988,1.988,0,0,1-1.753.01l-.04-.021s-1.413-.688-3.636-2.09c-2.246-1.386-5.344-3.44-8.923-6.011C135.22,57.47,126.126,50.2,116.42,43.445c-4.833-3.394-9.854-6.581-14.733-9.333-4.85-2.8-9.61-5.054-13.711-6.943-4.147-1.826-7.585-3.244-10.126-4.118L73.9,21.644a1.585,1.585,0,0,1-1.01-2.106,1.843,1.843,0,0,1,2.309-.921l.068.026" transform="translate(340.046 77.236)" fill="#d8f263"/>
          <path id="Trazado_878277" data-name="Trazado 878277" d="M77.552,22.456s2.5,1.423,6.41,3.378c3.931,1.9,9.207,4.377,14.738,6.6,5.423,2.354,10.682,5.065,13.927,7.946a17.4,17.4,0,0,1,4.623,5.675,1.827,1.827,0,0,1-1.135,2.442,2.291,2.291,0,0,1-1.049.119,22.641,22.641,0,0,1-7.131-2.426c-3.863-1.914-8.26-5.386-12.707-8.9a86,86,0,0,0-12.917-8.826,70.449,70.449,0,0,0-6.467-3.156,1.575,1.575,0,0,1-.9-2.152,1.857,1.857,0,0,1,2.36-.823c.068.031.142.067.2.1Z" transform="translate(349.495 92.607)" fill="#d8f263"/>
        </g>
      </g>
    </g>
  </g>
</svg>
