<svg xmlns="http://www.w3.org/2000/svg" xmlns:xlink="http://www.w3.org/1999/xlink" width="820" height="180.24" viewBox="0 0 820 180.24">
  <defs>
    <clipPath id="clip-path">
      <path id="Rect치ngulo_401268" data-name="Rect치ngulo 401268" d="M30,0H820a0,0,0,0,1,0,0V150.24a30,30,0,0,1-30,30H0a0,0,0,0,1,0,0V30A30,30,0,0,1,30,0Z" fill="#567d56" stroke="#707070" stroke-width="1"/>
    </clipPath>
    <linearGradient id="linear-gradient" x1="0.787" y1="0.406" x2="0.352" y2="0.464" gradientUnits="objectBoundingBox">
      <stop offset="0" stop-color="#ded6fd"/>
      <stop offset="1" stop-color="#ac9afc"/>
    </linearGradient>
    <clipPath id="clip-path-2">
      <rect id="Rect치ngulo_402113" data-name="Rect치ngulo 402113" width="566.132" height="528.097" fill="#ac9afc"/>
    </clipPath>
  </defs>
  <g id="fnd-1" transform="translate(-2481 -4593.186)">
    <g id="Grupo_1101600" data-name="Grupo 1101600" transform="translate(2091 884.936)">
      <g id="Grupo_1101236" data-name="Grupo 1101236" transform="translate(-58.699 2142.677)">
        <g id="Grupo_1101151" data-name="Grupo 1101151" transform="translate(448.699 1565.573)">
          <g id="Enmascarar_grupo_1098728" data-name="Enmascarar grupo 1098728" clip-path="url(#clip-path)">
            <path id="Recurso_1" data-name="Recurso 1" d="M0,0H832.833V249.389H0Z" transform="translate(832.833 192.71) rotate(180)" fill="url(#linear-gradient)"/>
            <g id="Grupo_1101017" data-name="Grupo 1101017" transform="translate(75.535 -196.033)" opacity="0.08" style="mix-blend-mode: multiply;isolation: isolate">
              <g id="Grupo_1101016" data-name="Grupo 1101016" transform="translate(0 0)" clip-path="url(#clip-path-2)">
                <path id="Trazado_876378" data-name="Trazado 876378" d="M498.022,68.464c.081.095,1.375.331,4.722,1.778a51.182,51.182,0,0,1,12.775,8.083A80.313,80.313,0,0,1,530.354,95.8c1.2,1.845,2.4,3.771,3.56,5.8.588,1.061,1.177,2.142,1.787,3.244q.783,1.561,1.589,3.177c2.111,4.353,4.545,8.773,6.752,13.808,9.245,20.276,17.078,45.715,20.469,75.906a234.716,234.716,0,0,1,.677,48.148c-1.441,16.91-4.177,34.692-9.819,52.6a273.5,273.5,0,0,1-23.006,53.967q-3.961,6.58-7.987,13.274-4.457,6.377-8.995,12.855c-6.421,8.435-13.165,17.234-20.741,25.2-14.974,16.254-32.538,31.1-51.587,45.066a302.225,302.225,0,0,1-63.634,36.429,251.748,251.748,0,0,1-75.571,17.937,328.638,328.638,0,0,1-40.128.547c-6.516-.581-12.68-.622-19.542-1.642-6.7-.973-13.687-1.4-20.167-2.893C171.3,489.633,120.667,465.9,82.334,430.4A266.254,266.254,0,0,1,34.2,370.628a331.588,331.588,0,0,1-16.754-33.7A234.919,234.919,0,0,1,5.16,301.575c-6.075-24.135-6.5-49.189-2.765-73.209,3.744-23.946,11.069-47.52,23.763-68.451,12.415-20.925,30.854-39.132,54.08-49.635,22.932-9.949,46.725-12.841,65.613-21.682,19.13-8.908,34.524-23.98,52.469-35.685a266.011,266.011,0,0,1,55.529-28.785A320.984,320.984,0,0,1,362.8,4.163c33.4.155,62.663,6.941,84.1,17.478a122.2,122.2,0,0,1,42.585,33.1,86.362,86.362,0,0,1,7.995,11.314C499.14,68.694,500,70.053,500,70.053a3.541,3.541,0,0,1-1.471,5.055,4.257,4.257,0,0,1-5.3-1.048l-.243-.311s-.927-1.2-2.721-3.528a87.288,87.288,0,0,0-8.377-9.861A115.768,115.768,0,0,0,441,32.7c-19.858-8.759-46.975-13.537-77.991-12.706-31.14.757-66.194,7.279-101.666,20.911q-13.316,5-26.72,11.213a288.35,288.35,0,0,0-26.661,13.578c-9.039,5.15-17.468,10.672-26.6,16.741-9.054,5.968-18.652,12.22-29.419,17.106-21.859,10.131-45.652,12.6-65.642,22.229C66.727,131.1,50.723,147.533,40.1,166.8,29.173,186.044,23,207.921,20.4,230.434s-1.714,45.431,1.442,68.384A202.221,202.221,0,0,0,29.3,333.084c3.552,11.307,8.973,22.155,15.048,32.5,12.194,20.83,28.963,39.335,48.005,55.191,38.1,31.691,85.346,54.19,134.961,62.382,50.285,8.908,99.452-.716,144.456-15.268,22.528-7.414,44.122-16.856,63.641-28.69,19.52-11.861,36.289-26.507,50.785-42.025a243.514,243.514,0,0,0,19.821-24.007q4.28-6.407,8.5-12.713,3.718-6.5,7.37-12.882a254.332,254.332,0,0,0,20.7-52.19,268.556,268.556,0,0,0,8.532-96.5,264.087,264.087,0,0,0-17.674-72.912c-1.92-4.886-4.266-9.536-6.193-13.9q-.739-1.632-1.471-3.224c-.485-.96-.963-1.9-1.442-2.832q-1.556-2.869-3-5.542A70.649,70.649,0,0,0,509.15,84.306a42.224,42.224,0,0,0-10.025-7.157c-2.361-1.217-4.28-1.8-4.155-1.811a3.615,3.615,0,0,1-2.214-4.839,4.167,4.167,0,0,1,5.266-2.034" transform="translate(-0.004 23.975)" fill="#ac9afc"/>
                <path id="Trazado_876379" data-name="Trazado 876379" d="M442.472,65.5c.074.081,1.184.284,4.163,1.561a45.171,45.171,0,0,1,11.319,7.124,71.091,71.091,0,0,1,13.121,15.383c1.059,1.622,2.111,3.318,3.141,5.1.522.939,1.044,1.892,1.581,2.866.463.912.927,1.838,1.4,2.785,1.861,3.812,4,7.678,5.95,12.1a219.314,219.314,0,0,1,18.063,66.7,204.735,204.735,0,0,1,.61,42.316c-1.28,14.855-3.67,30.488-8.657,46.229a239.664,239.664,0,0,1-20.277,47.4q-3.475,5.779-7.024,11.659-3.928,5.6-7.914,11.28a263.5,263.5,0,0,1-18.225,22.148c-13.158,14.288-28.6,27.311-45.276,39.653a265.065,265.065,0,0,1-55.823,32.266,221.152,221.152,0,0,1-66.488,15.795,291.228,291.228,0,0,1-35.34.406,302.386,302.386,0,0,1-34.921-4.021c-46.358-8.469-90.906-29.332-124.54-60.625a236.256,236.256,0,0,1-42.217-52.616,307.31,307.31,0,0,1-14.769-29.6A208.019,208.019,0,0,1,9.375,270.357c-5.443-21.215-5.8-43.282-2.479-64.409,3.332-21.06,9.8-41.809,21.013-60.233,10.959-18.424,27.228-34.462,47.755-43.721,20.226-8.746,41.1-11.294,57.544-19,16.681-7.759,30.133-21.026,45.872-31.373a230.7,230.7,0,0,1,48.8-25.412A282.105,282.105,0,0,1,323.735,8.745c29.4.169,55.147,6.2,74.012,15.518a107.369,107.369,0,0,1,37.421,29.258,75.777,75.777,0,0,1,7,9.982c1.449,2.325,2.192,3.521,2.192,3.521a3.4,3.4,0,0,1-1.427,4.839,4.076,4.076,0,0,1-5.045-.994l-.235-.3-2.4-3.075a77.86,77.86,0,0,0-7.362-8.59,101.386,101.386,0,0,0-35.8-24.04c-17.35-7.61-41.047-11.719-68.157-10.949-27.235.689-57.868,6.434-88.876,18.377-15.4,5.961-31.427,12.862-46.733,21.58-7.943,4.494-15.313,9.286-23.366,14.6C157,83.684,148.543,89.186,139.048,93.484,119.756,102.426,98.883,104.568,81.467,113c-17.012,8.131-30.957,22.479-40.209,39.308-9.5,16.809-14.864,35.929-17.107,55.617s-1.442,39.7,1.214,59.787a175.277,175.277,0,0,0,6.347,30.015c3.052,9.9,7.8,19.4,13.121,28.454,10.665,18.235,25.411,34.395,42.106,48.229,33.406,27.636,74.71,47.324,118.1,54.447,5.413,1.19,10.694,1.372,16.019,2.129,5.185.737,11.216.527,16.762.831a228.571,228.571,0,0,0,32.06-2.061,337.437,337.437,0,0,0,61.42-14.342c19.718-6.414,38.679-14.558,55.823-24.851,17.137-10.314,31.817-23.155,44.512-36.74a210.8,210.8,0,0,0,17.343-21.006q3.751-5.616,7.436-11.145,3.255-5.687,6.443-11.287a222.546,222.546,0,0,0,18.071-45.7,236.539,236.539,0,0,0,7.458-84.462A232.518,232.518,0,0,0,472.995,116.4c-1.677-4.278-3.729-8.367-5.406-12.2-.441-.96-.868-1.9-1.287-2.825-.427-.838-.846-1.663-1.25-2.474q-1.357-2.514-2.618-4.853A61.939,61.939,0,0,0,451.849,79.92a34.669,34.669,0,0,0-12.3-7.833l-1.876-3.765a2.565,2.565,0,0,1,1.419-3.508,3.062,3.062,0,0,1,3.383.689" transform="translate(30.275 50.361)" fill="#ac9afc"/>
                <path id="Trazado_876380" data-name="Trazado 876380" d="M196.822,286.323a29.7,29.7,0,0,0,7.193,2.812,30.322,30.322,0,0,0,9.061.919,31.006,31.006,0,0,0,5.325-.743l3.56-1.007c.875-.385,1.773-.77,2.7-1.176,7.929-3.852,15.46-12.686,19.8-24.905a84.667,84.667,0,0,0,4.5-20.2c.522-3.913.941-7.813,1.1-11.591.353-3.825.338-7.86.382-12a172.977,172.977,0,0,0-8.37-52.96c-3.133-9.131-6.546-18.519-11.746-27.453-5.134-8.948-11.363-17.586-17.475-26.386-5.987-8.861-11.8-17.951-17.4-27.46-5.538-9.313-11.709-18.532-19.306-26.487A105,105,0,0,0,150.6,37.133c-2.427-1.271-4.862-2.562-7.414-3.589l-1.9-.825-1.839-.635L135.188,30.6a90.794,90.794,0,0,0-16.07-3.291C107.887,26.185,96,27.165,85.271,31.118a52.428,52.428,0,0,0-25.926,19.35A55.314,55.314,0,0,0,51.7,62.458a19.078,19.078,0,0,0-1.287,11.381c1.522,8.2,8.326,17.329,14.894,25.095,13.731,15.944,31.324,29.217,46.181,43.809,14.952,14.605,29.6,28.548,38.716,44.3,9.275,15.565,15.144,31.015,19.615,44.309,4.464,13.267,8.318,24.419,12.422,33.178A93.231,93.231,0,0,0,193.711,283.7c1.559,2.088,2.905,3.575,3.817,4.589s1.368,1.548,1.368,1.548l.206.23a3.367,3.367,0,0,1-.566,5,4.138,4.138,0,0,1-4.935-.041s-.618-.487-1.824-1.419a57.133,57.133,0,0,1-5.178-4.332,99.773,99.773,0,0,1-15.864-19.431c-5.685-9.009-11.047-20.533-16.519-33.408-5.443-12.848-11.657-26.757-20.549-40.977-8.877-14.065-17.438-30.61-31.479-44.614-13.952-14.166-32.111-26.325-48.468-42.931a131.88,131.88,0,0,1-11.474-13.49,55.212,55.212,0,0,1-8.73-17.079,30,30,0,0,1,1.419-21.067,43.835,43.835,0,0,1,12.3-15.754A81.6,81.6,0,0,1,63.6,29.861,143.671,143.671,0,0,1,81.226,21.8a110.889,110.889,0,0,1,38.686-7.238c28.36-.108,52.043,15.328,69.04,32.772a351.767,351.767,0,0,1,23.322,27.17,157.235,157.235,0,0,1,17.887,28.751,276.007,276.007,0,0,1,11.657,30.373c3.53,9.949,7.23,19.566,10.223,29.136,6.038,19.093,10.3,37.74,11.062,55.36a110.048,110.048,0,0,1,.1,13.024q-.133,3.214-.265,6.353-.364,2.97-.706,5.866a80.512,80.512,0,0,1-5.626,22.81c-5.376,13.923-15.328,25.466-27.213,30.1l-4.619,1.561c-1.243.27-2.457.527-3.626.784a33.656,33.656,0,0,1-8.12.561,40.2,40.2,0,0,1-11.893-2.379,33.538,33.538,0,0,1-6.678-3.251c-1.434-.912-1.868-1.3-1.927-1.311a3.315,3.315,0,0,1-.346-4.954,4.013,4.013,0,0,1,3.508-1.142Z" transform="translate(204.929 83.881)" fill="#ac9afc"/>
                <path id="Trazado_876381" data-name="Trazado 876381" d="M306.424,218.265s.25.743.743,2.19c.235.737.566,1.582.89,2.717q.353,1.9.816,4.366c.971,6.38.537,16.173-4.832,27.1-5.222,10.827-15.357,22.682-31.39,30.718-2.089.906-4.016,1.953-6.34,2.758-1.956.737-3.92,1.5-6.369,2.2a94.633,94.633,0,0,1-14.261,3.116,121.213,121.213,0,0,1-30.765.169c-21.189-2.413-42.592-9.1-64.458-17.566-10.966-4.2-21.822-9.293-33.1-14.342-11.282-5.028-22.851-10.476-33.773-17.3-2.729-1.71-5.362-3.555-7.98-5.447-1.361-.973-2.515-1.818-3.979-2.974l-3.641-2.926a153.876,153.876,0,0,1-14.121-13.558,252.369,252.369,0,0,1-24.021-31.11C15.739,166.3,6.361,139.676,10.237,112.993A109.8,109.8,0,0,1,22.755,75.442c3.067-5.934,7.039-11.4,11.025-16.91A86.293,86.293,0,0,1,48.24,43.021c4.464-3.825,12.194-8.077,18.8-10.395a80.059,80.059,0,0,1,21.373-4.393,92.107,92.107,0,0,1,41.871,6.1,74.832,74.832,0,0,1,17.791,10.32C153.12,48.969,158,54.031,161.181,59.1c6.98,10.989,10.554,21.986,13.467,32.563,2.935,10.516,6.23,20.33,10.554,28.934a134.536,134.536,0,0,0,14.644,23.209,81.518,81.518,0,0,0,8.568,9.266l1.14,1.034c-.206-.142.736.581,1.044.825l2.729,2.136a56.148,56.148,0,0,0,5.038,3.508,166.269,166.269,0,0,0,21.4,11.375c14.5,6.509,28.066,12.132,38.554,18.336,10.576,6.1,17.835,12.808,21.91,17.836a43.4,43.4,0,0,1,4.31,5.961c.9,1.379,1.368,2.1,1.368,2.1a3.372,3.372,0,0,1-1.316,4.853,4.091,4.091,0,0,1-4.891-.7l-.338-.365s-.522-.554-1.537-1.622a44.882,44.882,0,0,0-4.6-4.542c-4.089-3.9-11.062-8.725-21.263-13.22-10.135-4.663-23.388-8.9-39.069-14.781-15.276-5.941-34.84-14.585-48.307-31.732-6.781-8.279-11.326-18.14-14.614-28.332-3.332-10.314-4.935-20.911-7.737-31.144-2.846-10.111-6.178-20.519-12.143-28.724A51.923,51.923,0,0,0,139,54.646,60.822,60.822,0,0,0,124.451,47.2,72.992,72.992,0,0,0,90.4,44.055c-5.825.662-11.371,2.44-16.909,4.082a106.02,106.02,0,0,0-16.048,7.184A70.835,70.835,0,0,0,43.15,65.493,55.053,55.053,0,0,0,32.545,79.876a65.729,65.729,0,0,0-6.193,16.64A77.3,77.3,0,0,0,24.087,114a94.241,94.241,0,0,0,.941,17.4c.243,1.379.434,2.751.61,4.15l.941,4.582c.537,2.629,1.419,5.616,2.251,8.367a124.577,124.577,0,0,0,15.622,31.772,137.06,137.06,0,0,0,23.962,26.811c4.472,4.123,9.017,7.779,13.57,11.672q6.917,5.8,13.717,11.517a302.29,302.29,0,0,0,27.985,21.567c9.826,6.36,20.424,11.145,30.868,15.4,21.027,8.185,42.3,13.335,61.641,14.774a133.392,133.392,0,0,0,27.456-.716,97.877,97.877,0,0,0,12.077-2.555c1.773-.419,3.839-1.135,5.847-1.832,1.7-.514,3.427-1.4,5.112-2.055a62.847,62.847,0,0,0,27.434-24.649c4.957-8.833,6.193-16.768,5.957-21.938-.081-1.25-.147-2.359-.213-3.312-.14-1.041-.375-2.007-.507-2.737-.294-1.487-.449-2.251-.449-2.251a3.606,3.606,0,0,1,3.118-4.15,3.922,3.922,0,0,1,4.4,2.447" transform="translate(59.472 160.726)" fill="#ac9afc"/>
                <path id="Trazado_876382" data-name="Trazado 876382" d="M42.491,73.566a134.443,134.443,0,0,1,12.937-43.9c1.537-3.136,3.405-6.427,6.744-7.975,4.825-2.237,11.15.365,13.687,4.745s1.853,9.861-.449,14.349S69.358,48.972,65.673,52.6q-6.961,6.853-13.923,13.7c-2.714,2.676-6.546,4.6-9.26,7.265" transform="translate(270.024 120.178)" fill="#ac9afc"/>
                <path id="Trazado_876383" data-name="Trazado 876383" d="M47.191,59.867a81.161,81.161,0,0,1,23.05-27.758c2.758-2.129,5.8-4.15,9.326-4.819s7.664.365,9.51,3.2a8.847,8.847,0,0,1,.824,6.583c-1.427,7.11-7.134,13.058-13.982,16.619s-20.13,5.637-27.956,6.4" transform="translate(299.891 156.025)" fill="#ac9afc"/>
                <path id="Trazado_876384" data-name="Trazado 876384" d="M50.907,45.782c8.664-4.109,17.49-8.266,27.081-9.888s20.226-.372,27.684,5.4a8.534,8.534,0,0,1,3.317,4.265,8.748,8.748,0,0,1-.353,4.508c-1.066,3.886-2.758,7.9-6.259,10.287-4.119,2.8-9.708,2.73-14.813,2.257A145.4,145.4,0,0,1,63.5,58.346c-6.009-1.6-12.849-4.576-13.739-10.273" transform="translate(316.217 202.937)" fill="#ac9afc"/>
                <path id="Trazado_876385" data-name="Trazado 876385" d="M52.037,45.557c7.929-.493,15.886-.669,23.83-.541,6.936.115,13.945.473,20.586,2.311,6.708,1.865,13.761,6.569,13.393,13-.294,5.049-5.406,9.036-10.819,9.942s-10.959-.629-15.989-2.67c-10.782-4.373-23.661-13.571-31-22.047" transform="translate(330.687 259.001)" fill="#ac9afc"/>
                <path id="Trazado_876386" data-name="Trazado 876386" d="M80.856,41.886a170.065,170.065,0,0,0-49.483-1.054c-3.707.466-7.671,1.19-10.231,3.69-3.707,3.616-2.78,9.922,1.074,13.4s9.76,4.434,15.092,3.67,10.267-3.008,15.1-5.224q9.124-4.2,18.24-8.381c3.56-1.636,6.649-4.467,10.209-6.1" transform="translate(119.438 227.528)" fill="#ac9afc"/>
                <path id="Trazado_876387" data-name="Trazado 876387" d="M67.414,45.3a91.781,91.781,0,0,0-35.5,12.436c-3,1.832-5.972,3.934-7.671,6.853s-1.795,6.86.655,9.293c1.662,1.656,4.185,2.352,6.627,2.589,7.826.757,15.651-2.582,21.314-7.6s11.584-16.14,14.6-22.824" transform="translate(146.2 260.855)" fill="#ac9afc"/>
                <path id="Trazado_876388" data-name="Trazado 876388" d="M52.27,49.592c-6.744,6.475-13.584,13.071-18,21.06s-6.112,17.714-2.206,25.926a8.609,8.609,0,0,0,3.508,4.129,11.056,11.056,0,0,0,4.8.966c4.361.162,9.024-.189,12.511-2.6,4.1-2.832,5.6-7.779,6.561-12.409a114.95,114.95,0,0,0,2.368-22.412c.037-5.752-1.14-12.625-6.833-15.018" transform="translate(189.911 283.521)" fill="#ac9afc"/>
                <path id="Trazado_876389" data-name="Trazado 876389" d="M49.529,53.663q-4.137,10.27-7.318,20.844c-1.853,6.144-3.457,12.422-3.42,18.789.044,6.448,2.949,14,9.775,15.491,5.354,1.176,10.959-2.2,13.437-6.711s2.449-9.834,1.75-14.842c-1.508-10.746-7.465-24.7-14.224-33.57" transform="translate(246.504 309.026)" fill="#ac9afc"/>
                <path id="Trazado_876390" data-name="Trazado 876390" d="M115.614,88.431c1.449-3.46,2.883-6.833,4.1-10.151,1.191-3.413,2.449-6.792,3.5-10.233s1.89-6.914,2.824-10.368q1.269-5.211,2.206-10.476c.61-3.508.978-7.042,1.471-10.564q.618-5.292.912-10.611a169.129,169.129,0,0,0-.213-21.323l8.936.4-4.994,18.6c-1.67,6.191-3.391,12.375-4.928,18.606-1.508,6.238-2.383,12.666-3.685,19.019a99.874,99.874,0,0,1-5.391,18.64l-.059.155c-1.53,3.873-6.193,5.866-10.407,4.461a7.9,7.9,0,0,1-4.553-3.812c-3.67-7.083-6.619-14.43-10.429-21.323A191.806,191.806,0,0,0,82.179,39.7q-3.5-4.694-7.34-9.09c-2.633-2.872-5.215-5.758-8-8.482-2.846-2.663-5.707-5.312-8.811-7.739a77.319,77.319,0,0,0-10.01-6.373l6.156-4.643c.993,3.366,2.052,6.711,3.369,9.982a87.918,87.918,0,0,0,4.8,9.523,134.718,134.718,0,0,1,9.37,18.971A343.769,343.769,0,0,0,89.747,80.03l.147.277a4.685,4.685,0,0,1-2.346,6.542,5.726,5.726,0,0,1-3.979.3,166.725,166.725,0,0,0-32.5-6.258c-5.531-.439-11.113-.237-16.629-.142-5.531.182-11.018.433-16.5.426l7.208-7.685a22.138,22.138,0,0,0,.765,3.129,13.383,13.383,0,0,0,1.412,3.008,21.537,21.537,0,0,0,4.832,5.495c3.979,3.454,9.319,6.008,14.93,8,1.412.5,2.854.919,4.317,1.311,1.522.365,2.817.7,4.538,1.007,3.155.608,6.568,1.162,10.01,1.94a52.1,52.1,0,0,1,10.363,3.562A22.588,22.588,0,0,1,85.055,108a2.653,2.653,0,0,1-.853,3.866,3.237,3.237,0,0,1-3.736-.27l-.125-.108c-4.155-3.514-9.841-4.812-16.159-5.285l-9.863-.8c-1.589-.108-3.589-.351-5.347-.588-1.809-.277-3.611-.595-5.406-1.007a55.008,55.008,0,0,1-20.424-8.969c-6.178-4.488-11.415-11.53-12.68-19.58-.574-3.677,2.206-7.083,6.207-7.617.265-.034.53-.054.787-.068h.221c11.731-.372,23.352,1.845,34.737,3.785,5.707.946,11.429,1.75,17.107,2.8,5.663,1.108,11.349,2.156,16.975,3.487l-6.178,7.11A411.574,411.574,0,0,1,58.739,46.777a101.206,101.206,0,0,1-4.214-10.009,81.13,81.13,0,0,1-2.8-10.462c-.8-3.521-1.471-7.069-2.515-10.5-1-3.433-2.184-6.819-3.346-10.212A3.877,3.877,0,0,1,48.641.657a4.664,4.664,0,0,1,3.376.3c1.971,1,3.979,1.946,6,2.886l5.81,3.224a99.984,99.984,0,0,1,10.9,7.441A97.449,97.449,0,0,1,84.3,23.278q4.391,4.684,8.34,9.645a228.943,228.943,0,0,1,14.246,20.485c4.45,6.921,9.179,13.679,13.1,20.729l-15.026.811a156.091,156.091,0,0,1,7.789-17.4c2.861-5.738,5.935-11.463,8.134-17.43a245.284,245.284,0,0,0,9.6-36.692A4.5,4.5,0,0,1,135.707.062,4.323,4.323,0,0,1,139.4,3.61l.022.21a123.753,123.753,0,0,1,1.442,22.547q-.221,5.657-.794,11.294c-.412,3.751-1.162,7.468-1.9,11.172a125.038,125.038,0,0,1-6.627,21.722c-1.471,3.508-2.957,7-4.729,10.388-1.839,3.44-3.677,6.745-5.722,9.868l-.037.061a3.2,3.2,0,0,1-4.17.953,2.684,2.684,0,0,1-1.265-3.393" transform="translate(66.007 0.001)" fill="#ac9afc"/>
              </g>
            </g>
          </g>
        </g>
      </g>
    </g>
  </g>
</svg>
