<svg xmlns="http://www.w3.org/2000/svg" xmlns:xlink="http://www.w3.org/1999/xlink" width="400" height="289.127" viewBox="0 0 400 289.127">
  <defs>
    <clipPath id="clip-path">
      <rect id="Rectángulo_402400" data-name="Rectángulo 402400" width="327.205" height="20.792" fill="none"/>
    </clipPath>
    <clipPath id="clip-path-2">
      <rect id="Rectángulo_402406" data-name="Rectángulo 402406" width="23.557" height="35.417" fill="none"/>
    </clipPath>
    <clipPath id="clip-path-3">
      <rect id="Rectángulo_402407" data-name="Rectángulo 402407" width="25.682" height="28.075" fill="none"/>
    </clipPath>
    <clipPath id="clip-path-4">
      <rect id="Rectángulo_402408" data-name="Rectángulo 402408" width="32.475" height="16.002" fill="none"/>
    </clipPath>
    <clipPath id="clip-path-5">
      <rect id="Rectángulo_402409" data-name="Rectángulo 402409" width="20.379" height="28.176" fill="none"/>
    </clipPath>
    <clipPath id="clip-path-6">
      <rect id="Rectángulo_402410" data-name="Rectángulo 402410" width="42.555" height="22.476" fill="none"/>
    </clipPath>
    <clipPath id="clip-path-12">
      <rect id="Rectángulo_402482" data-name="Rectángulo 402482" width="296.993" height="269.211" fill="none"/>
    </clipPath>
  </defs>
  <g id="img-16" transform="translate(11609.051 -11.539)">
    <g id="Grupo_1102460" data-name="Grupo 1102460">
      <g id="Grupo_1102213" data-name="Grupo 1102213" transform="translate(-12629.051 -6728.333)">
        <g id="Grupo_1101796" data-name="Grupo 1101796" transform="translate(6735.836 12091.095)">
          <path id="Trazado_880392" data-name="Trazado 880392" d="M335.288,447.414c16.315,3.365,32.937,4.934,49.546,3.092,16.623-1.451,32.962-5.407,49.511-7.445a1.223,1.223,0,0,1,1.233.562c5.839,9.434,12.394,18.451,19.068,27.312,6.65,8.3,13.345,18.284,23.466,22.4l-1.4,1.49c-.658-2.132-1.651-4.51-2.116-6.7-.249-1.557.99-2.8,1.887-3.717l2.313-2.458,2.309-2.464c1.37-1.628,3.126-2.484,2.291-4.851-.467-1.63-1.394-4.885-1.855-6.514-1.4-3.909,2.183-7.113,4.529-9.271a28.935,28.935,0,0,0,3.907-5.289c.618-1,1.16-1.781,1.052-2.576-.64-3.071-1.91-6.4-2.723-9.567a6,6,0,0,1,.194-4.078,13.6,13.6,0,0,1,2.162-2.965,51.077,51.077,0,0,0,3.909-5.293c.563-.909.789-1.555.516-2.177a27.138,27.138,0,0,0-1.806-2.627,8.55,8.55,0,0,1-.373-7.4c1.52-4.245,5.3-7.1,7.761-10.5a23.933,23.933,0,0,1-3.022-6.006.494.494,0,0,1,.324-.62.5.5,0,0,1,.624.33,27.448,27.448,0,0,0,3.373,5.831,1.567,1.567,0,0,1-.247,1.414c-2.142,3.448-5.753,6.308-6.962,10.176a6.776,6.776,0,0,0,.348,5.647,20.717,20.717,0,0,1,2.022,2.912,4.53,4.53,0,0,1-.615,4.194c-1.573,2.817-4.129,5.533-5.841,8.085a3.657,3.657,0,0,0-.077,2.529l1.582,6.526a20.2,20.2,0,0,1,.683,3.52,6.1,6.1,0,0,1-1.433,3.567,40.443,40.443,0,0,1-4.154,5.519c-1.6,1.663-3.428,3.059-4.046,4.861-.67,1.686.391,3.848.987,6.016l1,3.243a4.656,4.656,0,0,1-.314,4.029,30.383,30.383,0,0,1-2.293,2.7l-2.254,2.513-2.25,2.517c-.526.687-1.327,1.18-1.237,1.985.471,1.7,1.5,4.51,2.02,6.263-.086,5.807-13.468-7.967-14.686-9.4-11.617-12.155-21.245-25.92-30.732-39.753l1.237.56c-8.23,1.435-16.545,2.272-24.858,3.124-16.578,1.955-33.206,5.591-50,3.893a163.183,163.183,0,0,1-24.771-4.18.5.5,0,0,1,.214-.968" transform="translate(-5927.608 -5662.294)" fill="#ac9afc"/>
          <path id="Trazado_880393" data-name="Trazado 880393" d="M560.792,437.368c-14.458,2.307-28.276,7.714-41.685,13.453-4.465,1.983-8.913,4.009-13.268,6.2a.831.831,0,0,1-1.044-.251c-19.451-27.412-40.4-55.161-70.081-72.085-19.3-11.576-41.954-16.49-64.2-18.324-33.7-2.533-67.778,9.4-93.778,30.73l.082-1.253,10.213,11.063a.829.829,0,0,1-.306,1.331l-11.114,4.39.4-1.372a169,169,0,0,0,15.591,17.754c16.739,16.814,37.005,29.807,58.515,39.692.6.222.173,1.182-.4.909a205.984,205.984,0,0,1-21.514-10.364c-20.87-11.641-39.985-27.172-53.657-46.929a.9.9,0,0,1,.4-1.372l11.169-4.247-.306,1.331-10.274-11.008a.861.861,0,0,1,.079-1.253,145.429,145.429,0,0,1,28.556-18.608c30.775-15.118,67.3-15.72,100.09-7.272A121.747,121.747,0,0,1,462.922,403.4c16.215,15.917,29.9,34.081,43.209,52.405l-1.041-.251a239.409,239.409,0,0,1,27.074-11.664c9.245-3.3,18.677-6.326,28.511-7.508a.5.5,0,0,1,.552.432.505.505,0,0,1-.434.552" transform="translate(-5990.219 -5698.938)" fill="#ac9afc"/>
          <path id="Trazado_880394" data-name="Trazado 880394" d="M309.92,379.381a8.3,8.3,0,1,1-11.1-3.8A8.3,8.3,0,0,1,309.92,379.381Z" transform="translate(-5969.674 -5688.248)" fill="none" stroke="#ac9afc" stroke-linecap="round" stroke-linejoin="round" stroke-width="1.301"/>
          <path id="Trazado_880395" data-name="Trazado 880395" d="M317.773,373.171A157.066,157.066,0,0,1,396.549,356.8c3.349.185,7.514,1.168,8.173,4.455a5.8,5.8,0,0,1-.632,3.579c-2.264,4.72-7.482,7.076-11.748,10.113s-8.083,8.5-5.766,13.195" transform="translate(-5945.177 -5707.114)" fill="none" stroke="#ac9afc" stroke-linecap="round" stroke-linejoin="round" stroke-width="1.301"/>
          <path id="Trazado_880396" data-name="Trazado 880396" d="M327.271,412.1c10.818,3.569,19.79,10.938,28.248,18.326a35.441,35.441,0,0,1,7.722,8.442,1.115,1.115,0,0,1-.188,1.461,13.965,13.965,0,0,1-9.076,3.234c-3.051.224-6.218-.954-9.049-1.427a3.694,3.694,0,0,0-3.481,1.488,6.388,6.388,0,0,1-4.459,2.47c-6.632-.153-11.181-5.882-15.51-10.168a39.639,39.639,0,0,1-11.456-24.665.5.5,0,0,1,.978-.157,55.961,55.961,0,0,0,6.773,16.362,37.633,37.633,0,0,0,11.531,13.3c3.44,2.509,7.476,4.486,11.042,1.616,3.84-3.5,9.076-.24,13.557-.866a11.316,11.316,0,0,0,7.569-2.882l-.126,1.551c-4.392-4.694-7.993-10.247-13.154-14.2l-2.209-1.684a123.439,123.439,0,0,0-19.093-11.291.5.5,0,0,1,.379-.915" transform="translate(-5953.224 -5650.873)" fill="#ac9afc"/>
          <path id="Trazado_880397" data-name="Trazado 880397" d="M436.247,409.5c-3.475-1.4-7.71.312-11.289.978-11.424,2.766-23.173,8.745-35.157,5.546a.572.572,0,0,1,.145-1.115,122.931,122.931,0,0,0,23.128-3.035l11.621-2.544c3.993-.583,7.959-2.293,12.027-.85a.562.562,0,0,1-.475,1.019" transform="translate(-5870.817 -5653.802)" fill="#ac9afc"/>
          <path id="Trazado_880398" data-name="Trazado 880398" d="M431.171,424.622c-10.563-2.745-21.893.383-32.536-2.656-3.536-.789-7.455-2.093-10.025-5.134a.784.784,0,0,1-.031-1.192.751.751,0,0,1,.919-.035c.432.424,1.637.868,1.115,1.62-.536.514-1.28-.149-1.861-.289l.889-1.227c9.21,5.093,20.477,6.129,30.914,6.536a49.119,49.119,0,0,1,10.926,1.3.562.562,0,1,1-.31,1.08" transform="translate(-5871.945 -5645.965)" fill="#ac9afc"/>
          <path id="Trazado_880399" data-name="Trazado 880399" d="M425.975,444.373c-14.717-3.687-30.581-10.278-38.982-23.638a.567.567,0,0,1,.2-.779.576.576,0,0,1,.671.063c5.016,4.47,11.849,10.875,17.45,14.472a56.706,56.706,0,0,0,20.9,8.782.561.561,0,0,1-.232,1.1" transform="translate(-5873.404 -5641.385)" fill="#ac9afc"/>
          <path id="Trazado_880400" data-name="Trazado 880400" d="M317.039,368.507c9.434,11.519,20.373,22.674,25.564,36.914a.572.572,0,0,1-.995.52c-8.625-12.161-14.9-25.894-25.407-36.685-.5-.526.355-1.325.838-.748" transform="translate(-5946.967 -5694.92)" fill="#ac9afc"/>
          <path id="Trazado_880401" data-name="Trazado 880401" d="M354.385,393.327c-16.372,11.968-33.555,24.3-53.536,29.216a.568.568,0,0,1-.373-1.06c13.71-6.609,27.987-11.931,40.819-20.222a148.326,148.326,0,0,0,12.4-8.821c.556-.465,1.3.444.691.887" transform="translate(-5963.452 -5670)" fill="#ac9afc"/>
          <path id="Trazado_880402" data-name="Trazado 880402" d="M352.653,378.245a6.733,6.733,0,0,1,6.161,2.464c5.372,6.224-.6,13.563-7.074,15.62l.546-1.618c4.2,3.819,5.984,10.135,5.028,15.689-1.111,4.011-4.2,8.173-8.061,9.771a9.36,9.36,0,0,1-4.5.285l.838-1.765c6.069,7.219-3.01,15.989-10.816,15.593a9.7,9.7,0,0,1-7.07-2.67.5.5,0,0,1,.018-.705.507.507,0,0,1,.626-.049,9.538,9.538,0,0,0,6.334,1.374c3.921-.552,9.292-2.421,10.818-6.4a5.279,5.279,0,0,0-1.284-5.627,1.014,1.014,0,0,1,.838-1.767c8.925.226,12.493-8.169,9.447-15.769-1.054-2.34-2.466-4.421-3.742-6.669a.968.968,0,0,1,.116-1.49c3.984-.306,7.869-3.477,8.281-7.565.444-3.612-2.525-7.808-6.393-7.712a.5.5,0,0,1-.108-.986" transform="translate(-5935.011 -5684.697)" fill="#ac9afc"/>
          <path id="Trazado_880403" data-name="Trazado 880403" d="M360.139,385.63c5.03-.432,9.084,5.087,7.914,9.848-1.282,4.461-5.554,9-10.521,8.389l1.062-1.814c1.69,3.135,3.852,7.794.793,10.89-2.755,2.529-5.489,5.044-9.228,5.864l.583-1.4c3.459,6.571,1.95,13.975-6.726,13.8a20.962,20.962,0,0,1-5.882-1.217.5.5,0,0,1,.188-.972,38.1,38.1,0,0,0,5.643.149,8.462,8.462,0,0,0,6.4-3.379c1.345-2.462-.216-5.146-1.433-7.5a.976.976,0,0,1,.52-1.374c1.62-.583,3.063-1.5,4.631-2.187,6.155-1.975,5.782-6.876,2.454-11.45a1.164,1.164,0,0,1,1.064-1.814c3.85-.377,8.474-1.83,9.012-6.275.534-3.883-2.421-8.2-6.461-8.574a.5.5,0,0,1-.012-.991" transform="translate(-5924.395 -5676.961)" fill="#ac9afc"/>
          <path id="Trazado_880404" data-name="Trazado 880404" d="M375.09,390.548c4.321,1.376,6.175,6.919,4.394,10.92-1.877,4.1-5.841,6.194-9.968,7.584l.94-2.071a12.081,12.081,0,0,1,.389,12.059c-2.258,3.171-6.1,6.5-10.184,6.237l1.086-1.288c.611,4.412-1.225,8.55-4.033,11.868-2.953,3.3-8.132,4.135-12.171,2.688-.734-.465-.448-1.655-.683-2.413a.5.5,0,0,1,.436-.558c.811.057.872,1.52,1.237,2.138l-.51-.505a13.635,13.635,0,0,0,10.268-2.888c3.057-2.111,4.088-6.471,3.3-9.946a1.044,1.044,0,0,1,.781-1.255,20.785,20.785,0,0,0,5.352-1.086c3.126-1.71,4.584-5.476,4.357-8.888a8.613,8.613,0,0,0-1.8-4.655,1.308,1.308,0,0,1,.94-2.071c8.37.964,12.964-10.468,5.507-14.947a.5.5,0,0,1,.369-.921" transform="translate(-5917.063 -5671.859)" fill="#ac9afc"/>
          <path id="Trazado_880405" data-name="Trazado 880405" d="M374.979,399.258c5.646,2.751,7.064,7.37,2.156,11.917-1.751,2.374-4.789,3.088-7.358,4.19l-.318-1.979c2.395.237,3.234,2.3,3.772,4.143,1.443,2.917-.226,6.177-2.484,8.14-1.812,1.459-4.123,3-6.571,2.666a8.435,8.435,0,0,1-6.1-3.332.506.506,0,0,1,.693-.709c2.623,1.72,5.415,1.879,8.342,1.525,3.033-.528,4.225-3.862,4.555-6.53a2.888,2.888,0,0,0-2.3-3.858,1.016,1.016,0,0,1-.316-1.977c2.568-.858,4.406-2.861,6.944-3.764,5.154-2.5,1.7-7.082-1.582-9.618a.5.5,0,0,1,.569-.813" transform="translate(-5903.436 -5662.853)" fill="#ac9afc"/>
          <path id="Trazado_880406" data-name="Trazado 880406" d="M376.039,404.093c3.34,1.2,9.1,6.477,6.53,10.433a8.824,8.824,0,0,1-4.659,3.027,8.575,8.575,0,0,0-2.438.662l.253-1.374c4.1,1.429,2.831,9.815-1.139,10.743a5.088,5.088,0,0,1-4.188-.281.51.51,0,0,1-.185-.7.516.516,0,0,1,.467-.255,6.142,6.142,0,0,0,4.2-1.673,3,3,0,0,0,1.349-3.931c-.369-1.017-1.033-1.626-1.443-2.656l-.255-.436a.628.628,0,0,1,.508-.94c1.541-.167,2.89-1.217,4.133-1.979,1.194-.8,1.266-2.1,2.073-3.208.583-1.341-.987-2.438-2.136-3.434l-3.585-3.153a.505.505,0,0,1,.514-.848" transform="translate(-5890.812 -5657.812)" fill="#ac9afc"/>
          <path id="Trazado_880407" data-name="Trazado 880407" d="M314.733,412.365c5.458,10.851,14.927,18.54,22.2,28.048a.577.577,0,0,1-.766.821c-5.236-3.234-9.071-8.122-12.616-13.038-3.471-4.987-6.675-10.1-9.791-15.275a.562.562,0,0,1,.976-.556" transform="translate(-5949.435 -5649.487)" fill="#ac9afc"/>
          <path id="Trazado_880408" data-name="Trazado 880408" d="M318.079,413.429c7.056,9.987,17.695,16.091,26.573,24.2a.577.577,0,0,1-.609.944c-5.758-2.287-10.406-6.487-14.729-10.792-4.262-4.388-8.246-8.971-12.116-13.659-.473-.562.436-1.3.883-.695" transform="translate(-5945.913 -5648.315)" fill="#ac9afc"/>
          <path id="Trazado_880409" data-name="Trazado 880409" d="M328.474,375.192c12.73-7.327,40.122-22.144,54.586-18.249a.569.569,0,0,1-.2,1.107c-4.714-.188-9.218.962-13.877,2.116a151.673,151.673,0,0,0-27.245,9.114,117.92,117.92,0,0,0-12.675,6.87c-.605.406-1.247-.587-.587-.958" transform="translate(-5934.357 -5707.382)" fill="#ac9afc"/>
          <path id="Trazado_880410" data-name="Trazado 880410" d="M335.316,377.509c15.153-8.833,31.111-18.147,48.883-19.957a.57.57,0,0,1,.238,1.1c-12.41,4.415-25.258,7.364-37.071,13.319a117.274,117.274,0,0,0-11.452,6.489c-.6.412-1.251-.571-.6-.95" transform="translate(-5927.249 -5706.086)" fill="#ac9afc"/>
          <path id="Trazado_880411" data-name="Trazado 880411" d="M340.961,376.962c9.131-5.2,18.308-10.62,28.242-14.228a41.669,41.669,0,0,1,10.3-2.442.571.571,0,0,1,.3,1.082c-6.361,3-13,4.822-19.529,7.347a98.47,98.47,0,0,0-18.726,9.2.561.561,0,0,1-.583-.958" transform="translate(-5921.395 -5703.242)" fill="#ac9afc"/>
          <path id="Trazado_880412" data-name="Trazado 880412" d="M388.822,420.933c-14,2.978-29.438,5.713-43.2.334a.573.573,0,0,1,.263-1.092c14.218,1.364,28.656,3.9,42.659-.33a.562.562,0,0,1,.279,1.088" transform="translate(-5916.614 -5641.445)" fill="#ac9afc"/>
          <path id="Trazado_880413" data-name="Trazado 880413" d="M366.705,419.644c-3.045-.187-6.116.754-9.173.652-4.343-.373-4.266-2.9.171-2.635,2.967.3,5.949,1.3,8.955.86a.562.562,0,1,1,.047,1.123" transform="translate(-5907.233 -5643.707)" fill="#ac9afc"/>
          <path id="Trazado_880414" data-name="Trazado 880414" d="M347.389,374.413c10.62,4.906,22.549,9.677,29.515,19.592a.574.574,0,0,1-.8.789c-4.944-3.292-9.057-7.306-13.818-10.8a60.2,60.2,0,0,0-15.318-8.542.562.562,0,0,1,.42-1.042" transform="translate(-5915.234 -5688.636)" fill="#ac9afc"/>
          <path id="Trazado_880415" data-name="Trazado 880415" d="M349.494,378.139c4.628,3.214,11.081,4.274,14.254,9.29a.62.62,0,0,1-.689.887c-5.5-1.745-8.766-7.046-14.1-9.188a.562.562,0,1,1,.534-.989" transform="translate(-5913.127 -5684.806)" fill="#ac9afc"/>
        </g>
        <path id="Trazado_880416" data-name="Trazado 880416" d="M45.335,33.914c4.373-9.212,1.778-21.446-6.528-28.565A23.212,23.212,0,0,0,24.637.008,26.193,26.193,0,0,0,9.812,4.015c-8.3,5.236-13.1,17.391-7.188,26.7a17.494,17.494,0,0,0,13.943,8.112A17.791,17.791,0,0,0,31,32.655a12.628,12.628,0,0,0,.381-15.74,12.155,12.155,0,0,0-7.921-4.687,9.118,9.118,0,0,0-8.477,3.585,8.446,8.446,0,0,0-1.595,4.444,4.713,4.713,0,0,0,4.06,4.809A4.086,4.086,0,0,0,22.107,21.4a1.544,1.544,0,0,1,.023-.3c0-.033.007-.066.011-.1q-.075.34-.151.68c-.057-.162.161-.5.213-.655.01-.032.09-.261.121-.268.126-.027-.594.884-.281.564.059-.06.329-.572.412-.551.058.015-.9.8-.366.379.077-.061.15-.13.227-.192.154-.124.333-.221.487-.345.326-.264-.529.376-.515.3a1.063,1.063,0,0,1,.273-.124,2.641,2.641,0,0,0,.28-.109c.616-.284-.757.1-.382.086a3.249,3.249,0,0,0,.6-.079c.44-.115-.7.066-.6-.012a1.019,1.019,0,0,1,.308.026c.141.025.285.052.425.069.428.05-.557-.111-.543-.153,0-.02.687.232.75.256.206.083.4.182.6.275.5.231-.912-.588-.479-.256.084.065.183.117.27.178.177.122.338.262.512.388.539.394-.775-.848-.179-.164.162.186.328.367.477.562.064.081.118.18.188.254.327.352-.415-.6-.326-.53.321.262.491.96.654,1.314.295.641-.24-.945-.079-.264.048.2.107.406.147.611.05.241.077.482.115.724.134.858.025-.782-.012-.155-.028.452-.084.9-.113,1.35-.027.381.107-.554.118-.559-.033.017-.069.262-.082.3-.067.235-.145.467-.234.693-.065.159-.476.984-.1.272.365-.688-.014,0-.109.159a11.309,11.309,0,0,1-.857,1.212q-.2.246-.411.481a1.381,1.381,0,0,0-.215.232c-.023.048.735-.714.412-.43-.371.324-.725.656-1.119.953-.213.161-1.075.547-1.133.763-.006.02.852-.461.493-.279-.094.048-.186.1-.279.148-.219.113-.442.219-.667.319a13.675,13.675,0,0,1-1.283.5c-.2.067-.4.125-.609.186-.64.191.422-.126.443-.112-.049-.03-.355.077-.416.09q-.626.125-1.266.194c-.247.027-.5.046-.746.059-.107.006-.214.007-.321.013-.582.037.395.023.473.009a8.6,8.6,0,0,1-2.776-.334c-.676-.132,1.046.33.168.036-.206-.069-.414-.133-.619-.208-.483-.176-.939-.4-1.41-.613-.415-.186.6.356.559.317a1.857,1.857,0,0,0-.289-.169q-.339-.2-.661-.426c-.411-.284-.783-.606-1.172-.916s.517.477.442.425a2.678,2.678,0,0,1-.332-.334q-.252-.258-.484-.53a15.039,15.039,0,0,1-.984-1.309c.024-.016.507.854.316.483-.052-.1-.115-.2-.168-.3q-.163-.3-.306-.6t-.27-.609c-.056-.136-.1-.275-.16-.411-.236-.578.177.393.137.436.016-.017-.556-2.782-.525-2.77,0,0,.04.95.035.553,0-.108-.009-.217-.01-.325,0-.253,0-.506.006-.758.016-.507.059-1.012.125-1.512.029-.215.061-.43.1-.644a2.407,2.407,0,0,0,.059-.32s-.21.924-.111.539c.126-.491.246-.981.4-1.463a22.778,22.778,0,0,1,1.055-2.584c.2-.422-.311.6-.279.519a2.776,2.776,0,0,1,.2-.366q.155-.272.323-.538.386-.619.828-1.2.378-.5.792-.968c.125-.14.755-.8.177-.211-.56.573.064-.053.2-.186a18.547,18.547,0,0,1,2.125-1.714c.377-.261.769-.5,1.157-.743.356-.227-.538.281-.491.274a1.164,1.164,0,0,0,.28-.153c.25-.135.5-.264.76-.388a20.944,20.944,0,0,1,2.581-1.047c.381-.126,1.915-.492.495-.178.458-.1.913-.211,1.377-.294A21.251,21.251,0,0,1,23.844,8.5c.1,0,.6.047.656-.015.011-.012-.98-.019-.567,0,.109,0,.218,0,.327.008q.766.026,1.531.109c.473.052.946.12,1.415.206.215.04.433.083.649.129l.323.073c.594.13-.4-.075-.466-.126a5.765,5.765,0,0,0,1.379.429c.492.174.979.368,1.456.582.206.092.409.189.612.288.175.086.912.484.18.078s.083.054.269.168c.234.144.466.293.694.448q.636.431,1.232.915c.181.147.361.3.535.452.087.077.172.157.26.233.419.367-.747-.745-.369-.341a23.7,23.7,0,0,1,2.005,2.354c.132.185.259.374.388.562.426.627-.508-.855-.132-.2.263.46.524.92.757,1.394q.325.661.6,1.343c.084.21.166.421.243.633.039.106.076.213.113.319.2.553-.088-.321-.135-.416a11.109,11.109,0,0,1,.691,2.957q.105.666.168,1.335c.011.111.02.223.029.334.064.7-.023-.423-.025-.424.082.069.022.667.023.78a20.924,20.924,0,0,1-.17,2.875c-.034.255-.07.509-.113.762-.018.108-.042.216-.058.324-.062.4.1-.54.115-.533a13.232,13.232,0,0,1-.381,1.479,18.434,18.434,0,0,1-1.014,2.617,4.245,4.245,0,0,0,.192,3.224,4.848,4.848,0,0,0,2.535,2.367,4.259,4.259,0,0,0,5.544-2.308" transform="matrix(0.052, -0.999, 0.999, 0.052, 1378.734, 6961.384)" fill="#87de87"/>
        <g id="Grupo_1101799" data-name="Grupo 1101799" transform="translate(7976.477 11691.984)">
          <path id="Trazado_879609" data-name="Trazado 879609" d="M156.331,71.414c-24.4,51.68,9.724,119.025,76.218,150.419S372.727,236.782,397.127,185.1,387.4,66.077,320.909,34.683,180.731,19.734,156.331,71.414" transform="translate(-7046.908 -4911.693)" fill="#fef3ea"/>
          <g id="Grupo_1101637" data-name="Grupo 1101637" transform="translate(-6919.909 -4683.777)" opacity="0.15">
            <g id="Grupo_1101636" data-name="Grupo 1101636">
              <g id="Grupo_1101635" data-name="Grupo 1101635" clip-path="url(#clip-path)">
                <path id="Trazado_879610" data-name="Trazado 879610" d="M56.185,362.123v.071c-.1.757,1.177,1.5,3.687,2.209.157.046.34.091.5.138,1.569.425,3.609.84,6.041,1.245.235.038.471.078.732.116,1.647.269,3.5.531,5.517.789,1.281.163,2.615.324,4.027.482q2.079.232,4.315.455c.758.076,1.517.151,2.3.226s1.595.148,2.406.221c1.072.095,2.17.189,3.269.282q.9.075,1.8.148c30.776,2.486,79.018,4.112,131.7,4.16,34.907.032,66.649-.659,92.562-1.85l.209-.01c1.491-.068,2.928-.138,4.367-.209q.666-.032,1.334-.067c1.2-.06,2.353-.121,3.5-.183l.654-.035v0c6.668-.362,12.891-.761,18.538-1.189,21.389-1.614,35.326-3.663,38.829-5.9a2.221,2.221,0,0,0,.261-.174.718.718,0,0,0,.209-.181.644.644,0,0,0,.131-.126.754.754,0,0,0,.184-.242.979.979,0,0,0,.1-.243c.183-.764-1.124-1.506-3.687-2.22-.575-.159-1.2-.317-1.909-.475-.131-.023-.235-.047-.34-.07-.287-.066-.6-.133-.941-.2-.418-.081-.837-.163-1.281-.242-.418-.082-.889-.161-1.36-.241-1.412-.238-2.98-.473-4.68-.7-12.446-1.681-32.344-3.122-56.74-4.195-1.438-.063-2.9-.124-4.366-.186l-.68-.028h-.027c-27.481-1.123-60.165-1.787-94.156-1.818-47.431-.043-88.012,1.2-115.99,3.228-8.389.606-15.626,1.283-21.614,2.015l-.09.011q-2.076.254-3.941.518l-.207.029c-3.841.546-7,1.119-9.42,1.713l-.047.011c-3.152.777-5.042,1.592-5.547,2.434h0a1.552,1.552,0,0,0-.157.289" transform="translate(-56.179 -351.874)" fill="#4e1e34"/>
              </g>
            </g>
          </g>
          <g id="Grupo_1101797" data-name="Grupo 1101797" transform="translate(-6720.562 -4924.886)">
            <path id="Trazado_879645" data-name="Trazado 879645" d="M529.393,13.135c16.234,10.325-5.1,50.887-21.7,40.429-14.3-9.007,8.142-49.053,21.7-40.429" transform="translate(-465.821 -11.926)" fill="#3c7e53"/>
            <g id="Grupo_1101655" data-name="Grupo 1101655" transform="translate(37.277 7.929)" opacity="0.26" style="mix-blend-mode: multiply;isolation: isolate">
              <g id="Grupo_1101654" data-name="Grupo 1101654">
                <g id="Grupo_1101653" data-name="Grupo 1101653" clip-path="url(#clip-path-2)">
                  <path id="Trazado_879646" data-name="Trazado 879646" d="M504.8,38.564a46.471,46.471,0,0,1,7.921-14.374,35.608,35.608,0,0,0-.644,7.658,28.166,28.166,0,0,0,.906,5.424,16.138,16.138,0,0,0,.995,2.992,22.725,22.725,0,0,0,2.7,4.9,19.268,19.268,0,0,0,5.745,5.108,16.727,16.727,0,0,0,3.729,1.42c.168.049.334.089.5.123-5.392,6.536-12.532,10.14-18.964,6.09-5.157-3.248-5.536-10.532-3.278-18.113.149-.4.276-.811.386-1.222" transform="translate(-503.098 -24.191)" fill="#40df83"/>
                </g>
              </g>
            </g>
            <path id="Trazado_879647" data-name="Trazado 879647" d="M532.384,12.2a.161.161,0,0,1,.27.133l-1.26,14.606,12.362-8.345a.162.162,0,0,1,.224.043.16.16,0,0,1-.043.224l-12.643,8.535a.161.161,0,0,1-.251-.148L532.333,12.3a.159.159,0,0,1,.052-.105" transform="translate(-475.7 -12.007)" fill="#4e1e34"/>
            <path id="Trazado_879648" data-name="Trazado 879648" d="M521.507,19.891a.162.162,0,0,1,.271.114l.613,20.838,19.053-10.009a.161.161,0,1,1,.15.286l-19.281,10.13a.163.163,0,0,1-.157,0,.162.162,0,0,1-.079-.135l-.621-21.1a.162.162,0,0,1,.052-.123" transform="translate(-472.311 -14.727)" fill="#4e1e34"/>
            <path id="Trazado_879649" data-name="Trazado 879649" d="M511.588,32.933a.161.161,0,0,1,.269.1l3.165,20.684,20.322-8.6a.163.163,0,0,1,.212.086.161.161,0,0,1-.086.211L514.957,54.09a.161.161,0,0,1-.222-.125l-3.2-20.889a.161.161,0,0,1,.05-.144" transform="translate(-468.804 -19.338)" fill="#4e1e34"/>
            <path id="Trazado_879650" data-name="Trazado 879650" d="M504.255,50.59a.167.167,0,0,1,.067-.037.161.161,0,0,1,.2.114l4.537,16.83,18.693-7.478a.162.162,0,1,1,.12.3l-18.862,7.546a.162.162,0,0,1-.132-.006.158.158,0,0,1-.084-.1l-4.583-17.006a.161.161,0,0,1,.047-.161" transform="translate(-466.211 -25.58)" fill="#4e1e34"/>
            <path id="Trazado_879651" data-name="Trazado 879651" d="M453,18.24c15.895-6.01,31.457,29.172,15.71,34.7C457.578,56.852,442.5,22.21,453,18.24" transform="translate(-446.854 -13.915)" fill="#40df83"/>
            <g id="Grupo_1101658" data-name="Grupo 1101658" transform="translate(2.595 11.26)" opacity="0.26" style="mix-blend-mode: multiply;isolation: isolate">
              <g id="Grupo_1101657" data-name="Grupo 1101657">
                <g id="Grupo_1101656" data-name="Grupo 1101656" clip-path="url(#clip-path-3)">
                  <path id="Trazado_879652" data-name="Trazado 879652" d="M454.363,34.726a71.223,71.223,0,0,0,7.245,6.867,52.509,52.509,0,0,0,5.731,4,29.612,29.612,0,0,0,6.378,2.654,6.147,6.147,0,0,0,1.414.272c-.508,3.98-2.488,7.215-6.423,8.6-8.526,3-19.372-16.636-19.258-27.768,1.6,1.831,3.252,3.618,4.913,5.382" transform="translate(-449.449 -29.344)" fill="#40df83"/>
                </g>
              </g>
            </g>
            <path id="Trazado_879653" data-name="Trazado 879653" d="M449.29,24.511a.16.16,0,0,1,.2-.017l11.208,7.087-1.03-13.35a.161.161,0,1,1,.322-.025l1.055,13.671a.162.162,0,0,1-.248.149l-11.48-7.26a.161.161,0,0,1-.05-.222.169.169,0,0,1,.027-.033" transform="translate(-446.779 -14.093)" fill="#4e1e34"/>
            <path id="Trazado_879654" data-name="Trazado 879654" d="M450.527,33.078a.162.162,0,0,1,.19-.021l14.134,8.225.506-18.55a.162.162,0,0,1,.323.01l-.514,18.822a.164.164,0,0,1-.083.136.161.161,0,0,1-.159,0l-14.37-8.362a.162.162,0,0,1-.059-.221.173.173,0,0,1,.031-.037" transform="translate(-447.216 -15.691)" fill="#4e1e34"/>
            <path id="Trazado_879655" data-name="Trazado 879655" d="M455.066,45.79a.162.162,0,0,1,.169-.031l13.359,5.269,4.989-15.41a.162.162,0,1,1,.308.1l-5.042,15.573a.164.164,0,0,1-.085.1.162.162,0,0,1-.129,0L455.116,46.06a.163.163,0,0,1-.091-.21.18.18,0,0,1,.041-.06" transform="translate(-448.821 -20.262)" fill="#4e1e34"/>
            <path id="Trazado_879656" data-name="Trazado 879656" d="M461.238,58.132a.162.162,0,0,1,.16-.034l11.4,3.8,6.3-10.607a.161.161,0,1,1,.277.165l-6.364,10.718a.16.16,0,0,1-.19.071L461.3,58.4a.161.161,0,0,1-.1-.2.166.166,0,0,1,.044-.068" transform="translate(-451.003 -25.814)" fill="#4e1e34"/>
            <path id="Trazado_879657" data-name="Trazado 879657" d="M538.331,88.492c12.573,15.683-22.834,33.038-29.041,20.28s21.445-29.754,29.041-20.28" transform="translate(-467.692 -38.021)" fill="#40df83"/>
            <g id="Grupo_1101661" data-name="Grupo 1101661" transform="translate(40.698 59.172)" opacity="0.26" style="mix-blend-mode: multiply;isolation: isolate">
              <g id="Grupo_1101660" data-name="Grupo 1101660">
                <g id="Grupo_1101659" data-name="Grupo 1101659" clip-path="url(#clip-path-4)">
                  <path id="Trazado_879658" data-name="Trazado 879658" d="M511.521,108.792a39.569,39.569,0,0,0,13.149-.155,54.539,54.539,0,0,0,9.5-2.57c2.25-.8,4.484-1.686,6.693-2.61-2.1,12.387-26.521,21.97-31.575,11.58a9.465,9.465,0,0,1-.257-7.474,5.6,5.6,0,0,0,2.488,1.23" transform="translate(-508.39 -103.457)" fill="#40df83"/>
                </g>
              </g>
            </g>
            <path id="Trazado_879659" data-name="Trazado 879659" d="M546.736,86.411a.162.162,0,0,1,.252.2l-5.3,9.9,10.875.231a.162.162,0,1,1-.006.323l-11.139-.237a.161.161,0,0,1-.139-.237L546.7,86.453a.156.156,0,0,1,.033-.043" transform="translate(-479.312 -38.244)" fill="#4e1e34"/>
            <path id="Trazado_879660" data-name="Trazado 879660" d="M535.2,86.132a.161.161,0,0,1,.257.184l-6.626,14.955,17.091.811a.161.161,0,1,1-.016.323l-17.327-.822a.161.161,0,0,1-.129-.076.164.164,0,0,1-.01-.151l6.722-15.171a.158.158,0,0,1,.038-.054" transform="translate(-474.774 -38.146)" fill="#4e1e34"/>
            <path id="Trazado_879661" data-name="Trazado 879661" d="M524.581,90.56a.162.162,0,0,1,.263.169l-5.068,15.777,18.649,1.791a.161.161,0,1,1-.031.321l-18.849-1.809a.161.161,0,0,1-.138-.21l5.13-15.968a.158.158,0,0,1,.044-.07" transform="translate(-471.584 -39.711)" fill="#4e1e34"/>
            <path id="Trazado_879662" data-name="Trazado 879662" d="M514.027,100.443a.162.162,0,0,1,.27.138l-1.464,12.446,17.3,2.459a.162.162,0,1,1-.045.32l-17.458-2.481a.162.162,0,0,1-.138-.179l1.482-12.6a.159.159,0,0,1,.051-.1" transform="translate(-469.142 -43.205)" fill="#4e1e34"/>
            <path id="Trazado_879663" data-name="Trazado 879663" d="M450.348,96.618c10.32-3.759,24.809,28.111,8.856,31.025s-16.692-28.172-8.856-31.025" transform="translate(-445.453 -41.759)" fill="#40df83"/>
            <g id="Grupo_1101664" data-name="Grupo 1101664" transform="translate(0.033 57.901)" opacity="0.26" style="mix-blend-mode: multiply;isolation: isolate">
              <g id="Grupo_1101663" data-name="Grupo 1101663">
                <g id="Grupo_1101662" data-name="Grupo 1101662" clip-path="url(#clip-path-5)">
                  <path id="Trazado_879664" data-name="Trazado 879664" d="M450.324,110.313a26.21,26.21,0,0,0,12.051,12.273,7.962,7.962,0,0,0,3.49.842,7.921,7.921,0,0,1-6.661,6.046c-13.527,2.471-16.115-19.5-11.812-27.983a42.851,42.851,0,0,0,2.932,8.821" transform="translate(-445.486 -101.492)" fill="#40df83"/>
                </g>
              </g>
            </g>
            <path id="Trazado_879665" data-name="Trazado 879665" d="M448.238,99.723a.161.161,0,0,1,.223,0l5.876,5.813.943-8.566a.162.162,0,1,1,.321.036l-.979,8.9a.159.159,0,0,1-.107.135.162.162,0,0,1-.167-.038l-6.114-6.048a.162.162,0,0,1,0-.229l.005-.005" transform="translate(-446.408 -41.943)" fill="#4e1e34"/>
            <path id="Trazado_879666" data-name="Trazado 879666" d="M445.659,107.4a.162.162,0,0,1,.211-.006l10.3,8.32,2.552-13.84a.162.162,0,0,1,.318.059l-2.6,14.107a.162.162,0,0,1-.261.1l-10.507-8.491a.161.161,0,0,1-.025-.227l.017-.018" transform="translate(-445.496 -43.68)" fill="#4e1e34"/>
            <path id="Trazado_879667" data-name="Trazado 879667" d="M445.487,117.016a.162.162,0,0,1,.2-.014l12.543,8.723,4.239-15.632a.161.161,0,1,1,.312.085l-4.3,15.853a.161.161,0,0,1-.248.091L445.5,117.268a.163.163,0,0,1-.04-.226.188.188,0,0,1,.023-.027" transform="translate(-445.435 -46.589)" fill="#4e1e34"/>
            <path id="Trazado_879668" data-name="Trazado 879668" d="M447.267,126.888a.16.16,0,0,1,.2-.017l12.88,8.169,5.643-13.895a.162.162,0,1,1,.3.122l-5.716,14.074a.162.162,0,0,1-.1.093.159.159,0,0,1-.136-.017l-13.044-8.272a.162.162,0,0,1-.05-.223.148.148,0,0,1,.028-.032" transform="translate(-446.064 -50.503)" fill="#4e1e34"/>
            <path id="Trazado_879669" data-name="Trazado 879669" d="M531.567,150.65c8.977,21.059-40.87,32.339-41.468,15.414s35.569-29.251,41.468-15.414" transform="translate(-461.223 -58.859)" fill="#40df83"/>
            <g id="Grupo_1101667" data-name="Grupo 1101667" transform="translate(28.869 92.937)" opacity="0.26" style="mix-blend-mode: multiply;isolation: isolate">
              <g id="Grupo_1101666" data-name="Grupo 1101666">
                <g id="Grupo_1101665" data-name="Grupo 1101665" clip-path="url(#clip-path-6)">
                  <path id="Trazado_879670" data-name="Trazado 879670" d="M501.026,165.993c11.243,1.2,23.3-2,30.973-10.306,6.737,20.316-41.313,30.886-41.9,14.269a12.643,12.643,0,0,1,1.225-5.787,53.421,53.421,0,0,0,9.7,1.824" transform="translate(-490.091 -155.687)" fill="#40df83"/>
                </g>
              </g>
            </g>
            <path id="Trazado_879671" data-name="Trazado 879671" d="M532.179,157.016l.008-.007,11.161-8.968a.162.162,0,0,1,.228.025.165.165,0,0,1-.025.227l-10.887,8.747,14.448,2.68a.162.162,0,0,1-.059.318l-14.794-2.745a.161.161,0,0,1-.127-.12.163.163,0,0,1,.048-.158" transform="translate(-476.083 -60.035)" fill="#4e1e34"/>
            <path id="Trazado_879672" data-name="Trazado 879672" d="M531.192,144.523a.161.161,0,0,1,.232.224l-11.877,13.96,19.349,5.78a.162.162,0,1,1-.092.31l-19.587-5.851a.161.161,0,0,1-.077-.26l12.037-14.149a.1.1,0,0,1,.014-.015" transform="translate(-471.479 -58.789)" fill="#4e1e34"/>
            <path id="Trazado_879673" data-name="Trazado 879673" d="M516.973,146.566a.162.162,0,0,1,.249.2l-9.1,15.677,19.4,8.005a.162.162,0,0,1-.123.3l-19.572-8.076a.16.16,0,0,1-.092-.1.164.164,0,0,1,.014-.133l9.2-15.838a.171.171,0,0,1,.03-.037" transform="translate(-467.456 -59.511)" fill="#4e1e34"/>
            <path id="Trazado_879674" data-name="Trazado 879674" d="M503.729,152.918a.162.162,0,0,1,.257.184l-6.45,14.763,15.16,8.517a.162.162,0,1,1-.158.282l-15.288-8.589a.161.161,0,0,1-.069-.2l6.509-14.9a.157.157,0,0,1,.039-.054" transform="translate(-463.724 -61.756)" fill="#4e1e34"/>
            <path id="Trazado_879675" data-name="Trazado 879675" d="M454.146,17.787c.018-.016.037-.032.057-.047a.646.646,0,0,1,.9.141c15.743,21.543,25.487,64.626,25.584,65.058a.646.646,0,1,1-1.261.282c-.1-.43-9.784-43.253-25.367-64.578a.646.646,0,0,1,.084-.857" transform="translate(-448.441 -13.938)" fill="#4e1e34"/>
            <path id="Trazado_879676" data-name="Trazado 879676" d="M491.7,117.893c8.275-7.6,19.091-14.453,38.774-25.155a.647.647,0,0,1,.617,1.136c-27.15,14.761-37.306,22.134-47.249,34.3a.646.646,0,1,1-1-.818,89.348,89.348,0,0,1,8.858-9.459" transform="translate(-458.608 -40.468)" fill="#4e1e34"/>
            <path id="Trazado_879677" data-name="Trazado 879677" d="M452.216,95.956a.628.628,0,0,1,.22-.132.646.646,0,0,1,.826.391c8.742,24.477,12.878,40.941,13.016,51.813a.647.647,0,1,1-1.293.016c-.136-10.725-4.247-27.056-12.94-51.395a.645.645,0,0,1,.172-.694" transform="translate(-447.758 -41.574)" fill="#4e1e34"/>
            <path id="Trazado_879678" data-name="Trazado 879678" d="M515.986,12.966a.647.647,0,0,1,.982.825c-21.033,32.923-44.7,102.159-48.707,114.121,6.231-4.029,30.06-18.569,55.453-22.747a.646.646,0,1,1,.209,1.275c-29.134,4.793-56.229,23.387-56.5,23.575a.647.647,0,0,1-.983-.733c.262-.8,26.4-80.122,49.437-116.187a.626.626,0,0,1,.107-.129" transform="translate(-452.85 -12.234)" fill="#4e1e34"/>
          </g>
          <g id="Grupo_1101798" data-name="Grupo 1101798" transform="translate(-6886.568 -4698.483) rotate(-135)">
            <path id="Trazado_879645-2" data-name="Trazado 879645" d="M26.3,1.209C42.53,11.533,21.2,52.1,4.593,41.637-9.709,32.63,12.735-7.416,26.3,1.209" transform="translate(37.276 0)" fill="#3c7e53"/>
            <g id="Grupo_1101655-2" data-name="Grupo 1101655" transform="translate(37.277 7.929)" opacity="0.26" style="mix-blend-mode: multiply;isolation: isolate">
              <g id="Grupo_1101654-2" data-name="Grupo 1101654">
                <g id="Grupo_1101653-2" data-name="Grupo 1101653" clip-path="url(#clip-path-2)">
                  <path id="Trazado_879646-2" data-name="Trazado 879646" d="M1.7,14.374A46.47,46.47,0,0,1,9.623,0a35.608,35.608,0,0,0-.644,7.658,28.175,28.175,0,0,0,.906,5.424,16.132,16.132,0,0,0,.995,2.992,22.717,22.717,0,0,0,2.7,4.9,19.267,19.267,0,0,0,5.745,5.108,16.729,16.729,0,0,0,3.729,1.42c.168.049.334.089.5.123-5.392,6.536-12.532,10.14-18.964,6.09C-.564,30.461-.943,23.178,1.316,15.6c.149-.4.276-.811.386-1.222" transform="translate(0 -0.001)" fill="#40df83"/>
                </g>
              </g>
            </g>
            <path id="Trazado_879647-2" data-name="Trazado 879647" d="M1.341.043a.162.162,0,0,1,.27.133L.352,14.781,12.713,6.436a.162.162,0,0,1,.224.043.16.16,0,0,1-.043.224L.251,15.238A.161.161,0,0,1,0,15.09L1.29.148A.158.158,0,0,1,1.341.043" transform="translate(55.343 0.148)" fill="#4e1e34"/>
            <path id="Trazado_879648-2" data-name="Trazado 879648" d="M.052.043A.162.162,0,0,1,.323.157L.936,20.995,19.989,10.985a.161.161,0,1,1,.15.286L.858,21.4a.161.161,0,0,1-.237-.138L0,.166A.162.162,0,0,1,.052.043" transform="translate(49.144 5.121)" fill="#4e1e34"/>
            <path id="Trazado_879649-2" data-name="Trazado 879649" d="M.052.043a.161.161,0,0,1,.269.1L3.486,20.821l20.322-8.6a.163.163,0,0,1,.212.086.161.161,0,0,1-.086.211L3.421,21.2a.161.161,0,0,1-.222-.125L0,.186A.161.161,0,0,1,.052.043" transform="translate(42.732 13.552)" fill="#4e1e34"/>
            <path id="Trazado_879650-2" data-name="Trazado 879650" d="M.052.042A.167.167,0,0,1,.12.006a.161.161,0,0,1,.2.114L4.854,16.95,23.547,9.471a.162.162,0,1,1,.12.3L4.805,17.317a.162.162,0,0,1-.132-.006.158.158,0,0,1-.084-.1L.006.2A.161.161,0,0,1,.052.042" transform="translate(37.992 24.967)" fill="#4e1e34"/>
            <path id="Trazado_879651-2" data-name="Trazado 879651" d="M3.549.688c15.895-6.01,31.457,29.172,15.71,34.7C8.129,39.3-6.953,4.659,3.549.688" transform="translate(2.595 3.637)" fill="#40df83"/>
            <g id="Grupo_1101658-2" data-name="Grupo 1101658" transform="translate(2.595 11.26)" opacity="0.26" style="mix-blend-mode: multiply;isolation: isolate">
              <g id="Grupo_1101657-2" data-name="Grupo 1101657">
                <g id="Grupo_1101656-2" data-name="Grupo 1101656" clip-path="url(#clip-path-3)">
                  <path id="Trazado_879652-2" data-name="Trazado 879652" d="M4.913,5.382a71.221,71.221,0,0,0,7.245,6.867,52.508,52.508,0,0,0,5.731,4A29.612,29.612,0,0,0,24.267,18.9a6.147,6.147,0,0,0,1.414.272c-.508,3.98-2.488,7.215-6.423,8.6C10.732,30.763-.113,11.133,0,0,1.6,1.831,3.253,3.618,4.913,5.382" transform="translate(0 0)" fill="#40df83"/>
                </g>
              </g>
            </g>
            <path id="Trazado_879653-2" data-name="Trazado 879653" d="M.052,6.455a.16.16,0,0,1,.2-.017l11.208,7.087L10.426.174a.161.161,0,1,1,.322-.025L11.8,13.821a.162.162,0,0,1-.248.149L.076,6.71a.161.161,0,0,1-.05-.222.168.168,0,0,1,.027-.033" transform="translate(2.459 3.963)" fill="#4e1e34"/>
            <path id="Trazado_879654-2" data-name="Trazado 879654" d="M.053,10.5a.162.162,0,0,1,.19-.021l14.134,8.225L14.883.157a.162.162,0,0,1,.323.01l-.514,18.822a.164.164,0,0,1-.083.136.161.161,0,0,1-.159,0L.081,10.761a.162.162,0,0,1-.059-.221A.174.174,0,0,1,.053,10.5" transform="translate(3.258 6.885)" fill="#4e1e34"/>
            <path id="Trazado_879655-2" data-name="Trazado 879655" d="M.052,10.284a.162.162,0,0,1,.169-.031L13.58,15.522,18.569.112a.163.163,0,0,1,.2-.1.162.162,0,0,1,.1.2L13.834,15.784a.164.164,0,0,1-.085.1.162.162,0,0,1-.129,0L.1,10.554a.163.163,0,0,1-.091-.21.18.18,0,0,1,.041-.06" transform="translate(6.193 15.244)" fill="#4e1e34"/>
            <path id="Trazado_879656-2" data-name="Trazado 879656" d="M.052,6.923a.162.162,0,0,1,.16-.034l11.4,3.8L17.914.079a.161.161,0,1,1,.277.165L11.827,10.963a.16.16,0,0,1-.19.071L.111,7.195a.161.161,0,0,1-.1-.2.166.166,0,0,1,.044-.068" transform="translate(10.183 25.395)" fill="#4e1e34"/>
            <path id="Trazado_879657-2" data-name="Trazado 879657" d="M29.941,2.754C42.514,18.438,7.106,35.793.9,23.034S22.345-6.72,29.941,2.754" transform="translate(40.699 47.716)" fill="#40df83"/>
            <g id="Grupo_1101661-2" data-name="Grupo 1101661" transform="translate(40.698 59.172)" opacity="0.26" style="mix-blend-mode: multiply;isolation: isolate">
              <g id="Grupo_1101660-2" data-name="Grupo 1101660">
                <g id="Grupo_1101659-2" data-name="Grupo 1101659" clip-path="url(#clip-path-4)">
                  <path id="Trazado_879658-2" data-name="Trazado 879658" d="M3.131,5.335A39.569,39.569,0,0,0,16.28,5.18a54.54,54.54,0,0,0,9.5-2.57c2.25-.8,4.484-1.686,6.693-2.61C30.377,12.387,5.954,21.97.9,11.58A9.465,9.465,0,0,1,.643,4.105a5.6,5.6,0,0,0,2.488,1.23" transform="translate(0 0)" fill="#40df83"/>
                </g>
              </g>
            </g>
            <path id="Trazado_879659-2" data-name="Trazado 879659" d="M5.476.043a.161.161,0,0,1,.252.2l-5.3,9.9L11.3,10.37a.162.162,0,1,1-.006.323L.158,10.457a.161.161,0,0,1-.139-.237L5.443.085A.155.155,0,0,1,5.476.043" transform="translate(61.948 48.124)" fill="#4e1e34"/>
            <path id="Trazado_879660-2" data-name="Trazado 879660" d="M6.774.043A.161.161,0,0,1,7.03.227L.4,15.182l17.091.811a.161.161,0,1,1-.016.323L.153,15.494a.161.161,0,0,1-.129-.076.164.164,0,0,1-.01-.151L6.736.1A.159.159,0,0,1,6.774.043" transform="translate(53.648 47.944)" fill="#4e1e34"/>
            <path id="Trazado_879661-2" data-name="Trazado 879661" d="M5.182.043a.162.162,0,0,1,.263.169L.377,15.988l18.649,1.791A.161.161,0,1,1,19,18.1L.146,16.291a.161.161,0,0,1-.138-.21L5.138.112a.159.159,0,0,1,.044-.07" transform="translate(47.815 50.806)" fill="#4e1e34"/>
            <path id="Trazado_879662-2" data-name="Trazado 879662" d="M1.535.043A.161.161,0,0,1,1.8.18L.341,12.626l17.3,2.459a.162.162,0,1,1-.045.32L.139,12.924A.162.162,0,0,1,0,12.745L1.484.143a.158.158,0,0,1,.051-.1" transform="translate(43.35 57.196)" fill="#4e1e34"/>
            <path id="Trazado_879663-2" data-name="Trazado 879663" d="M4.863.308c10.32-3.759,24.809,28.111,8.856,31.025S-2.973,3.161,4.863.308" transform="translate(0.032 54.551)" fill="#40df83"/>
            <g id="Grupo_1101664-2" data-name="Grupo 1101664" transform="translate(0.033 57.901)" opacity="0.26" style="mix-blend-mode: multiply;isolation: isolate">
              <g id="Grupo_1101663-2" data-name="Grupo 1101663">
                <g id="Grupo_1101662-2" data-name="Grupo 1101662" clip-path="url(#clip-path-5)">
                  <path id="Trazado_879664-2" data-name="Trazado 879664" d="M4.839,8.821A26.209,26.209,0,0,0,16.889,21.094a7.962,7.962,0,0,0,3.49.842,7.921,7.921,0,0,1-6.661,6.046C.191,30.454-2.4,8.48,1.906,0A42.853,42.853,0,0,0,4.839,8.821" transform="translate(-0.001 0)" fill="#40df83"/>
                </g>
              </g>
            </g>
            <path id="Trazado_879665-2" data-name="Trazado 879665" d="M.052,2.892a.161.161,0,0,1,.223,0L6.151,8.71,7.094.144a.162.162,0,1,1,.321.036l-.979,8.9a.159.159,0,0,1-.107.135.162.162,0,0,1-.167-.038L.048,3.126a.162.162,0,0,1,0-.229l.005-.005" transform="translate(1.779 54.888)" fill="#4e1e34"/>
            <path id="Trazado_879666-2" data-name="Trazado 879666" d="M.052,5.659a.162.162,0,0,1,.211-.006l10.3,8.32L13.111.132a.162.162,0,0,1,.318.059L10.828,14.3a.162.162,0,0,1-.261.1L.06,5.9a.161.161,0,0,1-.025-.227l.017-.018" transform="translate(0.111 58.063)" fill="#4e1e34"/>
            <path id="Trazado_879667-2" data-name="Trazado 879667" d="M.052,7.043a.162.162,0,0,1,.2-.014L12.8,15.752,17.036.12A.161.161,0,1,1,17.348.2l-4.3,15.853a.161.161,0,0,1-.248.091L.069,7.295a.163.163,0,0,1-.04-.226.183.183,0,0,1,.023-.027" transform="translate(0 63.384)" fill="#4e1e34"/>
            <path id="Trazado_879668-2" data-name="Trazado 879668" d="M.053,5.844a.16.16,0,0,1,.2-.017L13.128,14,18.771.1a.162.162,0,1,1,.3.122L13.355,14.3a.162.162,0,0,1-.1.093.159.159,0,0,1-.136-.017L.075,6.1a.162.162,0,0,1-.05-.223.147.147,0,0,1,.028-.032" transform="translate(1.15 70.541)" fill="#4e1e34"/>
            <path id="Trazado_879669-2" data-name="Trazado 879669" d="M41.476,5.972C50.453,27.031.605,38.312.007,21.386S35.576-7.865,41.476,5.972" transform="translate(28.869 85.819)" fill="#40df83"/>
            <g id="Grupo_1101667-2" data-name="Grupo 1101667" transform="translate(28.869 92.937)" opacity="0.26" style="mix-blend-mode: multiply;isolation: isolate">
              <g id="Grupo_1101666-2" data-name="Grupo 1101666">
                <g id="Grupo_1101665-2" data-name="Grupo 1101665" clip-path="url(#clip-path-6)">
                  <path id="Trazado_879670-2" data-name="Trazado 879670" d="M10.935,10.306c11.243,1.2,23.3-2,30.973-10.306C48.644,20.316.594,30.886.007,14.269A12.642,12.642,0,0,1,1.232,8.482a53.419,53.419,0,0,0,9.7,1.824" transform="translate(0 0)" fill="#40df83"/>
                </g>
              </g>
            </g>
            <path id="Trazado_879671-2" data-name="Trazado 879671" d="M.053,9.01.06,9,11.221.035a.162.162,0,0,1,.228.025.165.165,0,0,1-.025.227L.537,9.035l14.448,2.68a.162.162,0,0,1-.059.318L.132,9.288A.161.161,0,0,1,0,9.169.163.163,0,0,1,.053,9.01" transform="translate(56.043 87.971)" fill="#4e1e34"/>
            <path id="Trazado_879672-2" data-name="Trazado 879672" d="M12.09.042a.161.161,0,0,1,.232.224L.445,14.227l19.349,5.78a.162.162,0,1,1-.093.31L.116,14.466a.161.161,0,0,1-.077-.26L12.076.057A.1.1,0,0,1,12.09.042" transform="translate(47.624 85.692)" fill="#4e1e34"/>
            <path id="Trazado_879673-2" data-name="Trazado 879673" d="M9.25.042a.162.162,0,0,1,.249.2L.394,15.92l19.4,8.005a.162.162,0,0,1-.123.3L.1,16.148a.16.16,0,0,1-.092-.1.164.164,0,0,1,.014-.133L9.22.08A.172.172,0,0,1,9.25.042" transform="translate(40.267 87.013)" fill="#4e1e34"/>
            <path id="Trazado_879674-2" data-name="Trazado 879674" d="M6.561.043a.162.162,0,0,1,.257.184L.368,14.99l15.16,8.517a.162.162,0,1,1-.158.282L.083,15.2a.161.161,0,0,1-.069-.2L6.523.1A.157.157,0,0,1,6.561.043" transform="translate(33.443 91.119)" fill="#4e1e34"/>
            <path id="Trazado_879675-2" data-name="Trazado 879675" d="M.209.171C.227.155.245.139.265.124a.646.646,0,0,1,.9.141C16.911,21.808,26.656,64.891,26.752,65.324a.646.646,0,1,1-1.261.282c-.1-.43-9.784-43.253-25.367-64.578A.646.646,0,0,1,.209.171" transform="translate(5.497 3.679)" fill="#4e1e34"/>
            <path id="Trazado_879676-2" data-name="Trazado 879676" d="M9,25.234C17.279,17.634,28.1,10.781,47.779.079A.647.647,0,0,1,48.4,1.215C21.246,15.976,11.09,23.349,1.147,35.511a.646.646,0,1,1-1-.818A89.345,89.345,0,0,1,9,25.234" transform="translate(24.088 52.191)" fill="#4e1e34"/>
            <path id="Trazado_879677-2" data-name="Trazado 879677" d="M.21.17A.628.628,0,0,1,.43.038a.646.646,0,0,1,.826.391C10,24.906,14.133,41.37,14.271,52.242a.647.647,0,1,1-1.293.016C12.843,41.533,8.731,25.2.038.863A.645.645,0,0,1,.21.17" transform="translate(4.248 54.213)" fill="#4e1e34"/>
            <path id="Trazado_879678-2" data-name="Trazado 879678" d="M49.576.17A.647.647,0,0,1,50.558,1C29.525,33.918,5.862,103.154,1.851,115.116c6.231-4.029,30.06-18.569,55.453-22.747a.646.646,0,1,1,.209,1.275c-29.134,4.793-56.229,23.387-56.5,23.575a.647.647,0,0,1-.983-.733c.262-.8,26.4-80.122,49.437-116.187A.628.628,0,0,1,49.576.17" transform="translate(13.56 0.562)" fill="#4e1e34"/>
          </g>
          <g id="Grupo_1101789" data-name="Grupo 1101789" transform="translate(-6880.085 -4942.592)">
            <g id="Grupo_1101788" data-name="Grupo 1101788" clip-path="url(#clip-path-12)">
              <path id="Trazado_879822" data-name="Trazado 879822" d="M215.69,192.64c-2.143-5.907-5.234-11.381-7.582-17.2a49.36,49.36,0,0,1-3.429-18.493c-.064-11.764,2.175-23.474.022-35.172-1.828-9.932-6.878-19.248-16.272-23.753-4.918-2.357-10.263-3.851-13.774-8.31-3.134-3.98-4.737-8.972-6.632-13.6q-.886-2.167-1.915-4.24A51.069,51.069,0,0,0,64.847,73.081,43.576,43.576,0,0,0,62.7,87.528c.157,6.091,1.936,12.628-.345,18.521-1.922,4.962-6.4,8.609-10.476,11.777-4.224,3.279-8.64,6.3-12.8,9.662a52.329,52.329,0,0,0-10.919,11.437,36.807,36.807,0,0,0-5.631,15.451c-1.613,11.519.658,23.253-1.272,34.728-.989,5.879-3.4,11.063-6.333,16.2a109.822,109.822,0,0,0-6.643,12.659H218.2c1.855-8.325.4-17.3-2.513-25.328" transform="translate(3.738 12.673)" fill="#ffa79a"/>
              <path id="Trazado_879823" data-name="Trazado 879823" d="M74.784,40.969c.158-.453-.527-.614-.7-.195-2.336,5.561-2.344,11.63-2.114,17.557.25,6.465.861,12.918.883,19.391.038,10.97-1.9,22.861-9.753,31.114-3.909,4.105-8.788,7.087-13.047,10.793a52.8,52.8,0,0,0-10.032,11.787,53.871,53.871,0,0,0-6.251,14.165,58.261,58.261,0,0,0-1.926,16.672c.109,6.071.845,12.1,1.354,18.148a101.693,101.693,0,0,1,.087,17.962,43.072,43.072,0,0,1-.666,4.58.336.336,0,0,0,.647.179c3.263-11.716.842-23.888.087-35.773a67.882,67.882,0,0,1,.791-17.65,52.487,52.487,0,0,1,14.773-27.19c4.008-3.9,8.771-6.865,12.935-10.574a33.823,33.823,0,0,0,9-13,51.2,51.2,0,0,0,3.221-15.769,155.417,155.417,0,0,0-.525-19.383c-.408-6.13-.968-12.468.129-18.557a27.909,27.909,0,0,1,1.106-4.256" transform="translate(14.374 18.304)" fill="#ff8174"/>
              <path id="Trazado_879824" data-name="Trazado 879824" d="M87.449,93.679c-.778-5.722-2.193-11.346-3.194-17.032a126.324,126.324,0,0,1-1.967-17.389,88.083,88.083,0,0,1,1.232-17.244,37.106,37.106,0,0,1,.993-4.23.433.433,0,0,0-.833-.231,64.16,64.16,0,0,0-2.675,16.921,105.312,105.312,0,0,0,1.166,17.309c.809,5.74,2.038,11.389,3.144,17.074s1.968,11.62.659,17.332c-2.15,9.383-9.994,15.677-16.521,22.121a57.638,57.638,0,0,0-9.26,11.447,60.953,60.953,0,0,0-6.088,14.4c-3.21,11.222-3.768,23.107-3.543,34.714q.044,2.284.123,4.57a.307.307,0,0,0,.613,0c.443-11.908.316-23.95,3.1-35.612a64.034,64.034,0,0,1,5.448-14.909,51.749,51.749,0,0,1,8.927-12.138c6.307-6.467,14.033-12.266,17.428-20.939,2.018-5.152,1.986-10.758,1.25-16.165" transform="translate(22.815 16.823)" fill="#ff8174"/>
              <path id="Trazado_879825" data-name="Trazado 879825" d="M161.2,194.7a65.344,65.344,0,0,1-8.827-14.227,67.575,67.575,0,0,1-4.583-16.082c-2.095-12.932-.878-26,.248-38.957.505-5.8.643-11.858-1.981-17.216a15.825,15.825,0,0,0-4.594-5.7,18.1,18.1,0,0,0-7.728-2.971,45.2,45.2,0,0,1-7.837-1.913,29.09,29.09,0,0,1-6.535-3.568A37.86,37.86,0,0,1,109.3,82.942c-6.268-10.274-7.728-22.414-9.041-34.137-.17-1.518-.325-3.04-.479-4.561-.048-.475-.785-.491-.755,0,.753,12.034,1.72,24.445,7.02,35.479,4.287,8.923,11.674,16.994,21.376,19.906,2.741.823,5.6,1.079,8.367,1.8a13.175,13.175,0,0,1,6.86,4.12c3.851,4.471,4.484,10.62,4.224,16.283-.15,3.24-.526,6.467-.8,9.7-.285,3.326-.527,6.656-.679,9.991a119.577,119.577,0,0,0,.54,19.65c1.334,11.118,4.857,22.269,11.791,31.2a25.453,25.453,0,0,0,2.79,3.009c.47.44,1.065-.206.688-.688" transform="translate(44.72 19.817)" fill="#ff8174"/>
              <path id="Trazado_879826" data-name="Trazado 879826" d="M136.019,161.62q-.287-8.239-1.231-16.437c-.945-8.219-2.41-17.589-9.388-23-3.236-2.508-7.154-3.86-10.967-5.214s-7.786-2.764-10.843-5.515c-3.4-3.061-5.188-7.4-6.569-11.665a155.923,155.923,0,0,1-4.044-15.124,159.424,159.424,0,0,1-3.615-31.485q-.028-1.986,0-3.973a.521.521,0,0,0-1.041,0,161.76,161.76,0,0,0,2.575,31.526A155.878,155.878,0,0,0,94.521,96.2c1.28,4.411,2.623,9,5.224,12.839a21.2,21.2,0,0,0,9.7,7.476c3.786,1.6,7.8,2.651,11.487,4.485a18.889,18.889,0,0,1,8.663,8.47,39.086,39.086,0,0,1,3.414,12.272,204.984,204.984,0,0,1,1.761,32.243c-.022,1.373-.052,2.746-.055,4.12a.551.551,0,0,0,1.1,0,136.036,136.036,0,0,0,.208-16.483" transform="translate(39.876 21.997)" fill="#ff8174"/>
              <path id="Trazado_879827" data-name="Trazado 879827" d="M110.391,159.842q.015-2.913-.048-5.828-.128-5.827-.51-11.645t-1.02-11.613c-.4-3.661-.955-7.309-1.273-10.98a31.082,31.082,0,0,1,.92-12.1c.24-.755-.936-1.071-1.182-.325-2.34,7.087-.867,14.618-.044,21.829q1.32,11.582,1.623,23.248.085,3.312.1,6.622c.006,1.061.013,2.121.015,3.18a22.044,22.044,0,0,0,.118,3.321c.08.528.944.507,1.044,0a30.8,30.8,0,0,0,.257-5.706" transform="translate(47.877 48.287)" fill="#ff8174"/>
              <path id="Trazado_879828" data-name="Trazado 879828" d="M69.117,106.742a261.983,261.983,0,0,0-8.877,42.2q-.368,2.95-.636,5.917-.142,1.544-.266,3.092a19.934,19.934,0,0,0-.148,3.1c.039.489.768.652.9.122a42.139,42.139,0,0,0,.637-5.279c.21-1.83.4-3.665.66-5.489.494-3.5.957-7.011,1.524-10.5q1.727-10.611,4.287-21.061,1.441-5.914,3.15-11.757a.639.639,0,0,0-1.231-.34" transform="translate(26.721 48.003)" fill="#ff8174"/>
              <path id="Trazado_879829" data-name="Trazado 879829" d="M88.329,104.534a144.388,144.388,0,0,0-3.205,25.335c-.308,8.348.367,16.7.025,25.045-.093,2.269-.267,4.535-.557,6.786-.3,2.363-.833,4.687-1.164,7.042a.458.458,0,0,0,.883.242,26.043,26.043,0,0,0,1.539-6.1c.3-1.973.5-3.959.626-5.95.258-4.143.206-8.3.112-12.442-.093-4.176-.237-8.353-.163-12.53q.113-6.412.8-12.8a142.4,142.4,0,0,1,2.3-14.3c.167-.78-1.028-1.113-1.2-.331" transform="translate(37.673 47.007)" fill="#ff8174"/>
              <path id="Trazado_879830" data-name="Trazado 879830" d="M89.116,156.009h0a18.053,18.053,0,0,1-18-18V102.876a18,18,0,1,1,36,0v35.133a18.053,18.053,0,0,1-18,18" transform="translate(32.116 38.331)" fill="#ffd197"/>
              <path id="Trazado_879831" data-name="Trazado 879831" d="M129.783,76.721a8.963,8.963,0,1,1-8.954-9.361,9.164,9.164,0,0,1,8.954,9.361" transform="translate(50.524 30.42)" fill="#ffd197"/>
              <path id="Trazado_879832" data-name="Trazado 879832" d="M45.854,76.721a8.963,8.963,0,1,0,8.954-9.361,9.164,9.164,0,0,0-8.954,9.361" transform="translate(20.708 30.42)" fill="#ffd197"/>
              <path id="Trazado_879833" data-name="Trazado 879833" d="M118.592,70.342a.44.44,0,0,1,.761.444c-.022.036-2.14,3.725-1.089,7.1a6,6,0,0,0,1.784,2.671c1.666-2.694-.823-4.957-.936-5.056a.441.441,0,0,1,.582-.662c.033.029,3.234,2.916,1.029,6.29a9.613,9.613,0,0,0,1.478.859.441.441,0,0,1-.373.8,7.689,7.689,0,0,1-4.4-4.639c-1.167-3.739,1.073-7.638,1.169-7.8" transform="translate(52.878 31.668)" fill="#33190f"/>
              <path id="Trazado_879834" data-name="Trazado 879834" d="M53.144,70.342a.44.44,0,0,0-.761.444c.022.036,2.14,3.725,1.089,7.1a6,6,0,0,1-1.784,2.671c-1.666-2.694.823-4.957.935-5.056a.44.44,0,1,0-.581-.662c-.033.029-3.236,2.916-1.029,6.29a9.613,9.613,0,0,1-1.478.859.441.441,0,0,0,.373.8,7.689,7.689,0,0,0,4.4-4.639c1.167-3.739-1.073-7.638-1.169-7.8" transform="translate(22.256 31.668)" fill="#33190f"/>
              <path id="Trazado_879835" data-name="Trazado 879835" d="M53.468,83.423c0,29.709,20.131,53.791,44.965,53.791S143.4,113.131,143.4,83.423,123.267,29.632,98.433,29.632,53.468,53.714,53.468,83.423" transform="translate(24.147 13.382)" fill="#ffd197"/>
              <path id="Trazado_879836" data-name="Trazado 879836" d="M89.281,79.606a3.915,3.915,0,1,0-7.829,0Z" transform="translate(36.784 34.155)" fill="#ef9e47"/>
              <path id="Trazado_879837" data-name="Trazado 879837" d="M82.364,77.679a.441.441,0,0,1-.312-.752,4.416,4.416,0,0,1,3.106-1.305h.035a4.291,4.291,0,0,1,3.06,1.264.44.44,0,0,1-.623.623,3.5,3.5,0,0,0-4.954.042.443.443,0,0,1-.312.129" transform="translate(36.997 34.151)" fill="#33190f"/>
              <path id="Trazado_879838" data-name="Trazado 879838" d="M79.634,81.646c0,2.88-3.71,5.214-8.287,5.214s-8.287-2.334-8.287-5.214,3.71-5.214,8.287-5.214,8.287,2.334,8.287,5.214" transform="translate(28.478 34.517)" fill="#ffa79a"/>
              <path id="Trazado_879839" data-name="Trazado 879839" d="M109.016,81.646c0,2.88-3.71,5.214-8.287,5.214s-8.287-2.334-8.287-5.214,3.71-5.214,8.287-5.214,8.287,2.334,8.287,5.214" transform="translate(41.747 34.517)" fill="#ffa79a"/>
              <path id="Trazado_879840" data-name="Trazado 879840" d="M65.523,69.245a.881.881,0,0,1-.588-1.537c6.46-5.782,12.069-.007,12.124.051a.881.881,0,0,1-1.277,1.214c-.181-.19-4.5-4.581-9.671.048a.875.875,0,0,1-.588.225" transform="translate(29.193 29.417)" fill="#542c00"/>
              <path id="Trazado_879841" data-name="Trazado 879841" d="M93.774,69.245a.881.881,0,0,1-.588-1.537c6.46-5.783,12.069-.007,12.124.051a.881.881,0,0,1-1.277,1.214c-.181-.19-4.5-4.581-9.671.048a.875.875,0,0,1-.588.225" transform="translate(41.951 29.417)" fill="#542c00"/>
              <path id="Trazado_879842" data-name="Trazado 879842" d="M96.544,82.75S88,90.592,77.22,82.75Z" transform="translate(34.873 37.37)" fill="#fff"/>
              <path id="Trazado_879843" data-name="Trazado 879843" d="M78.42,78.915a1.074,1.074,0,0,1-1.074-1.074,6.1,6.1,0,0,0-12.2,0,1.075,1.075,0,0,1-2.15,0,8.248,8.248,0,0,1,16.5,0,1.074,1.074,0,0,1-1.074,1.074" transform="translate(28.45 31.429)" fill="#33190f"/>
              <path id="Trazado_879844" data-name="Trazado 879844" d="M107.474,78.915a1.074,1.074,0,0,1-1.074-1.074,6.1,6.1,0,0,0-12.2,0,1.075,1.075,0,0,1-2.15,0,8.248,8.248,0,1,1,16.5,0,1.074,1.074,0,0,1-1.074,1.074" transform="translate(41.571 31.429)" fill="#33190f"/>
              <path id="Trazado_879845" data-name="Trazado 879845" d="M90.463,105.369a38.807,38.807,0,0,1-19.346-5.224s15.175,26.014,36,29.463V101.543a38.489,38.489,0,0,1-16.654,3.826" transform="translate(32.117 45.226)" fill="#ef9e47"/>
              <path id="Trazado_879846" data-name="Trazado 879846" d="M85.595,40.357s26.355,41.819,57.739,45.922c.041-.945.064-1.9.064-2.855,0-29.709-20.132-53.792-44.965-53.792S53.468,53.715,53.468,83.423c0,0,31.79-.705,32.127-43.066" transform="translate(24.147 13.382)" fill="#ffa79a"/>
              <path id="Trazado_879847" data-name="Trazado 879847" d="M76.619,36.847a.374.374,0,0,0-.748,0,49.826,49.826,0,0,1-9.543,29.64,58.7,58.7,0,0,1-5.891,6.825c-.228.232.107.547.35.35a41.979,41.979,0,0,0,10.1-12.591,48.239,48.239,0,0,0,5.175-15.107,45.644,45.644,0,0,0,.553-9.118" transform="translate(27.26 16.478)" fill="#ff8174"/>
              <path id="Trazado_879848" data-name="Trazado 879848" d="M67.294,40.276Q65.9,45.06,64.266,49.767q-.8,2.323-1.668,4.623c-.589,1.566-1.29,3.111-1.749,4.719a.489.489,0,0,0,.89.376A37.311,37.311,0,0,0,63.7,54.961q.93-2.347,1.8-4.721c1.153-3.163,2.2-6.362,3.166-9.586a.71.71,0,0,0-1.367-.377" transform="translate(27.471 17.964)" fill="#ff8174"/>
              <path id="Trazado_879849" data-name="Trazado 879849" d="M115.75,65.783c-1.511-.228-3.044-.19-4.551-.457a18.216,18.216,0,0,1-4.407-1.4,34.629,34.629,0,0,1-7.924-5.275A62.6,62.6,0,0,1,86.9,44.922a60.709,60.709,0,0,1-4.9-9.282c-.315-.748-1.553-.427-1.238.341a63.181,63.181,0,0,0,9.842,16.471,61.874,61.874,0,0,0,6.734,6.933,36.943,36.943,0,0,0,8.123,5.673,20.293,20.293,0,0,0,5.092,1.749,8.29,8.29,0,0,0,5.277-.364.365.365,0,0,0-.087-.66" transform="translate(36.453 15.904)" fill="#ff8174"/>
              <path id="Trazado_879850" data-name="Trazado 879850" d="M112.493,57.914c-.353-.225-.659-.5-1.009-.727-.405-.258-.851-.462-1.269-.7q-1.126-.636-2.206-1.35a38.507,38.507,0,0,1-4.184-3.2,38.009,38.009,0,0,1-6.854-7.978,37.209,37.209,0,0,1-2.822-5.285c-.337-.777-1.711-.21-1.38.582A38.057,38.057,0,0,0,106.494,56.1q1.285.869,2.64,1.629c.45.253.9.505,1.372.723a12.136,12.136,0,0,0,1.55.5c.631.2.964-.7.437-1.035" transform="translate(41.872 17.3)" fill="#ff8174"/>
              <path id="Trazado_879851" data-name="Trazado 879851" d="M246.192,46.68s-37.624,88.329-119.676,92.807a17.929,17.929,0,1,1-35.3-.112S38.283,115.7,30.535,166.117l-.012-.009s-.1.727-.264,2.021c-.028.225-.062.44-.089.668l.006,0c-1.479,12.022-6.611,60.314,6.146,61.808,2.793.328,11.627.826,23.336,1.391l1.073,15.908h97.837l4.025-59.7s90.85-59.268,101.971-133.263Z" transform="translate(12.602 21.081)" fill="#ac9afc"/>
              <path id="Trazado_879852" data-name="Trazado 879852" d="M111.8,165.311c-7.563-.295-23.4,2.807-23.4,2.807l-.271-.058.605,12.8c22.861.92,41.674,1.624,41.674,1.624s-11.042-16.879-18.605-17.174" transform="translate(39.799 74.647)" fill="#ffbdab"/>
              <path id="Trazado_879853" data-name="Trazado 879853" d="M106.418,183.569a.68.68,0,0,1-.152-.016L48.807,171.294a.726.726,0,0,1-.575-.685c-.03-.923,3.75-31.223,4.507-37.287a.737.737,0,0,1,.811-.63.726.726,0,0,1,.63.81c-1.661,13.281-4.075,32.843-4.449,36.506l56.838,12.125a.726.726,0,0,1-.151,1.436" transform="translate(21.782 59.922)" fill="#471006"/>
              <path id="Trazado_879854" data-name="Trazado 879854" d="M106.278,177.725h-.03L49.975,175.3a.726.726,0,0,1-.7-.756.7.7,0,0,1,.758-.694l56.272,2.429a.725.725,0,0,1-.03,1.45" transform="translate(22.255 78.508)" fill="#471006"/>
              <path id="Trazado_879855" data-name="Trazado 879855" d="M215.859,26.313c-2.381,7-8.858,10.648-13.774,10.423a1.306,1.306,0,0,0-1.006.562,20.82,20.82,0,0,0-1.8,3.937c-.922,3.329-1.635,6.715-2.468,10.07-2,8.056-3.947,16.13-6.079,24.152-1.311,4.931-2.79,9.827-4.458,14.647a80.633,80.633,0,0,1-3.767,8.265,5.979,5.979,0,0,1-1.135,1.437,3.218,3.218,0,0,1-3.678.958,2.962,2.962,0,0,1-2.28-3.011,33.953,33.953,0,0,1,.781-6.5,113.554,113.554,0,0,1,6.325-17.794c3.815-8.945,7.788-17.82,11.672-26.733,1.173-2.693,2.279-5.413,3.4-8.126a6.443,6.443,0,0,0,.264-1.032,2.62,2.62,0,0,0-1.045-2.98c-4.44-3.583-6.267-10.5-4.075-16.175A40.185,40.185,0,0,1,202.959,3.066,13.953,13.953,0,0,1,206.486.72a7.271,7.271,0,0,1,9.8,3.594,17.171,17.171,0,0,1,1.479,7.059,57.106,57.106,0,0,1-1.9,14.94" transform="translate(79.218 0)" fill="#3f3f3f"/>
              <path id="Trazado_879856" data-name="Trazado 879856" d="M194.392,30.265s-6.831-7.67-10.126-5.14-9.11,14.818-7.016,16.13a6.293,6.293,0,0,0,4.562.636s5.073-10.807,8.016-13.051Z" transform="translate(79.847 11.116)" fill="#ef9e47"/>
              <path id="Trazado_879857" data-name="Trazado 879857" d="M195.453,66.016s6.846-2.08,12.218-14.638-.106-18.225-.106-18.225L189.55,27.525s-9.171,7.416-12.127,29.958Z" transform="translate(80.125 12.43)" fill="#ffd197"/>
              <path id="Trazado_879858" data-name="Trazado 879858" d="M177.928,42.836a.678.678,0,0,0,.395.83l15.695,6.3a.678.678,0,0,0,.5-1.259l-15.695-6.3a.678.678,0,0,0-.88.377l-.019.051" transform="translate(80.339 19.13)" fill="#ef9e47"/>
              <path id="Trazado_879859" data-name="Trazado 879859" d="M179.97,36.3a.678.678,0,0,0,.444.849c.652.2,10.645,3.842,15.837,5.737a.678.678,0,0,0,.465-1.273c-.614-.224-15.052-5.493-15.9-5.757a.678.678,0,0,0-.849.444" transform="translate(81.262 16.178)" fill="#ef9e47"/>
              <path id="Trazado_879860" data-name="Trazado 879860" d="M182.942,30.69a.679.679,0,0,0,.369.82l14.4,6.474a.678.678,0,0,0,.554-1.237l-14.4-6.474a.676.676,0,0,0-.9.341.682.682,0,0,0-.029.075" transform="translate(82.604 13.645)" fill="#ef9e47"/>
              <path id="Trazado_879861" data-name="Trazado 879861" d="M174.48,158.185s-71.034-12.519-140.267.846c0,0,64.893,31,140.267-.846" transform="translate(15.451 69.034)" fill="#e2c9c9"/>
              <path id="Trazado_879862" data-name="Trazado 879862" d="M37.951,160.807l-.222-1.051c48.575-10.257,131.235-2.273,132.064-2.19l-.1,1.07c-.827-.083-83.329-8.049-131.738,2.172" transform="translate(17.039 69.786)" fill="#b7a3a3"/>
              <path id="Trazado_879863" data-name="Trazado 879863" d="M138.53,164.773c-35.106,3.506-70,3.519-104.424-7.93,4.329,5.1,9.72,8.059,15.393,10.447a141.149,141.149,0,0,0,33.516,9.552c10.065,6.709,31.748,6.635,41.069-.065h-.017A153.85,153.85,0,0,0,146.7,171.53c7.609-2.368,14.706-6.479,21.842-10.16,2.267-1.17,3.9-3.549,5.827-5.375-11.646,5.211-23.655,7.561-35.843,8.778" transform="translate(15.403 70.448)" fill="#fff"/>
              <path id="Trazado_879864" data-name="Trazado 879864" d="M84.242,154.842l74.46-36.528s22.343,37.517-13.819,56.248-60.641-19.72-60.641-19.72" transform="translate(38.044 53.431)" fill="#567d56"/>
              <path id="Trazado_879865" data-name="Trazado 879865" d="M87.5,151.815l63.609-31.205s19.086,32.049-11.8,48.051-51.8-16.846-51.8-16.846" transform="translate(39.517 54.468)" fill="#e84b18"/>
              <path id="Trazado_879866" data-name="Trazado 879866" d="M112.261,138.628s-13.432,8.546-11.794,12.654,12.989-3.77,11.794-12.654" transform="translate(45.309 62.605)" fill="#301f17"/>
              <path id="Trazado_879867" data-name="Trazado 879867" d="M115.775,136.339s7.007,14.377,11.439,13.278-2.164-13.334-11.439-13.278" transform="translate(52.285 61.572)" fill="#301f17"/>
              <path id="Trazado_879868" data-name="Trazado 879868" d="M118.885,133.08s14.178,8.09,17.2,4.776-9.565-9.852-17.2-4.776" transform="translate(53.689 59.258)" fill="#301f17"/>
              <path id="Trazado_879869" data-name="Trazado 879869" d="M113.13,138.949s-2.49,15.724,1.674,17.218,5.774-12.23-1.674-17.218" transform="translate(50.757 62.75)" fill="#301f17"/>
              <path id="Trazado_879870" data-name="Trazado 879870" d="M101.6,160.913A17.577,17.577,0,0,0,112.4,150.2l4.433,3.1s-4.972,10.722-12.175,13.937c0,0-4.922-2.564-3.06-6.325" transform="translate(45.694 67.831)" fill="#c9b3b3"/>
              <path id="Trazado_879871" data-name="Trazado 879871" d="M121.67,164.149l-20.4-14.274s.576-11.045,10.964-11.26,16.41,7.852,17.424,12.854c.578,2.857.475,13.321-7.993,12.68" transform="translate(45.737 62.598)" fill="#c9b3b3"/>
              <path id="Trazado_879872" data-name="Trazado 879872" d="M103.141,158.89a14.013,14.013,0,0,0,8.611-8.543l3.535,2.474s-3.963,8.549-9.707,11.112c0,0-3.924-2.044-2.439-5.043" transform="translate(46.428 67.898)" fill="#ffd0b6"/>
              <path id="Trazado_879873" data-name="Trazado 879873" d="M119.141,161.47l-16.259-11.379s.459-8.807,8.742-8.98a13.979,13.979,0,0,1,13.89,10.25c.462,2.276.379,10.621-6.373,10.109" transform="translate(46.462 63.725)" fill="#ffd0b6"/>
              <path id="Trazado_879874" data-name="Trazado 879874" d="M108.016,143.3q-.089,1.859-.18,3.718c-.029.621-.038,1.237-.029,1.859a9.031,9.031,0,0,0,.139,1.77.2.2,0,0,0,.389,0,9.1,9.1,0,0,0,.3-1.77c.067-.621.118-1.235.147-1.859q.085-1.859.173-3.718c.028-.605-.912-.6-.941,0" transform="translate(48.685 64.51)" fill="#301f17"/>
              <path id="Trazado_879875" data-name="Trazado 879875" d="M110.318,145.18c-.28,1.041-.543,2.083-.787,3.134a.215.215,0,0,0,.414.113c.181-.508.376-1.013.546-1.524s.327-1.026.491-1.54c.135-.422-.549-.611-.663-.183" transform="translate(49.462 65.455)" fill="#301f17"/>
              <path id="Trazado_879876" data-name="Trazado 879876" d="M115.874,144.55a34.1,34.1,0,0,1-2.144,3.36c-.372.525-.746,1.052-1.142,1.558a19.755,19.755,0,0,0-1.2,1.614.334.334,0,0,0,.454.453,12.752,12.752,0,0,0,2.858-2.88,24.368,24.368,0,0,0,2.23-3.491c.373-.688-.675-1.3-1.051-.614" transform="translate(50.28 65.143)" fill="#301f17"/>
              <path id="Trazado_879877" data-name="Trazado 879877" d="M117.7,147.959a.544.544,0,0,0-.729-.192c-.708.345-1.423.682-2.125,1.038-.345.174-.684.359-1.022.547A4.054,4.054,0,0,0,112.8,150c-.19.2-.07.62.247.6a4.087,4.087,0,0,0,1.173-.4c.372-.154.742-.309,1.108-.476.73-.335,1.452-.688,2.174-1.035a.537.537,0,0,0,.192-.729" transform="translate(50.902 66.703)" fill="#301f17"/>
              <path id="Trazado_879878" data-name="Trazado 879878" d="M116.738,151.144a18.578,18.578,0,0,0-2.07.01c-.164.012-.327.029-.491.048a2.906,2.906,0,0,0-.594.091c-.164.057-.331.094-.5.145a.809.809,0,0,0-.446.315.315.315,0,0,0,.11.42c.271.2.6.11.9.174a2.954,2.954,0,0,0,.6.009l.489,0a18.334,18.334,0,0,1,2,.093.651.651,0,0,0,.65-.65.665.665,0,0,0-.65-.65" transform="translate(50.848 68.247)" fill="#301f17"/>
              <path id="Trazado_879879" data-name="Trazado 879879" d="M91.98,159.8a17.58,17.58,0,0,1-14-5.962l-2.971,4.523s8.583,8.123,16.466,8.445c0,0,3.625-4.2.5-7.007" transform="translate(33.875 69.477)" fill="#c9b3b3"/>
              <path id="Trazado_879880" data-name="Trazado 879880" d="M77.142,170.508l13.671-20.8s-4.619-10.049-14.351-6.409-12.344,13.365-11.436,18.386c.518,2.868,4.485,12.553,12.115,8.826" transform="translate(29.29 64.355)" fill="#c9b3b3"/>
              <path id="Trazado_879881" data-name="Trazado 879881" d="M88.956,158.757A14.017,14.017,0,0,1,77.8,154l-2.369,3.606s6.843,6.476,13.127,6.734c0,0,2.89-3.35.4-5.587" transform="translate(34.063 69.549)" fill="#ffd0b6"/>
              <path id="Trazado_879882" data-name="Trazado 879882" d="M77.125,167.291l10.9-16.586s-3.683-8.013-11.442-5.11a13.981,13.981,0,0,0-9.118,14.66c.414,2.286,3.575,10.007,9.659,7.036" transform="translate(30.407 65.466)" fill="#ffd0b6"/>
              <path id="Trazado_879883" data-name="Trazado 879883" d="M75.634,147.034l1.542,3.388c.258.566.492,1.135.716,1.716a9.035,9.035,0,0,1,.524,1.7.2.2,0,0,1-.361.144,9.164,9.164,0,0,1-.935-1.533c-.292-.552-.566-1.1-.823-1.674q-.769-1.694-1.536-3.39c-.25-.553.624-.9.874-.348" transform="translate(33.742 66.276)" fill="#301f17"/>
              <path id="Trazado_879884" data-name="Trazado 879884" d="M74.292,149.583q.969,1.3,1.889,2.62a.214.214,0,0,1-.341.258c-.357-.4-.723-.8-1.07-1.215s-.685-.832-1.026-1.248c-.282-.343.283-.771.549-.415" transform="translate(33.268 67.492)" fill="#301f17"/>
              <path id="Trazado_879885" data-name="Trazado 879885" d="M70.079,150.6a34.441,34.441,0,0,0,3.234,2.33c.54.351,1.081.7,1.639,1.025a19.377,19.377,0,0,1,1.714,1.054.334.334,0,0,1-.253.589,12.75,12.75,0,0,1-3.722-1.62,24.56,24.56,0,0,1-3.362-2.418c-.6-.5.145-1.46.749-.96" transform="translate(31.21 67.951)" fill="#301f17"/>
              <path id="Trazado_879886" data-name="Trazado 879886" d="M69.48,154.5a.543.543,0,0,1,.607-.447c.785.058,1.574.107,2.357.179.386.035.768.081,1.153.131a4.021,4.021,0,0,1,1.185.225.352.352,0,0,1-.009.643,4.006,4.006,0,0,1-1.237.065c-.4,0-.8-.012-1.2-.032-.8-.041-1.6-.1-2.4-.157a.537.537,0,0,1-.447-.607" transform="translate(31.375 69.572)" fill="#301f17"/>
              <path id="Trazado_879887" data-name="Trazado 879887" d="M71.458,157.47a18.426,18.426,0,0,1,1.928-.756c.155-.051.314-.094.472-.136a2.959,2.959,0,0,1,.586-.135c.173-.009.343-.035.518-.051a.817.817,0,0,1,.53.129.313.313,0,0,1,.052.431c-.176.29-.512.322-.777.495a2.85,2.85,0,0,1-.553.231c-.152.058-.3.118-.456.177a18.291,18.291,0,0,0-1.82.825.654.654,0,0,1-.845-.364.665.665,0,0,1,.364-.845" transform="translate(32.088 70.626)" fill="#301f17"/>
              <path id="Trazado_879888" data-name="Trazado 879888" d="M51.332,158.186l-4.562-.84s.679,9.123-5.976,5.889c0,0-3.1,6.416-8.794,2.224,0,0-4.416,2.157-5.838-.552,0,0-11.17,5.631-13.941-5.885,0,0-11.6,4.2-9.543-7,.109-.592-7.966-10.813,3.423-11.948,0,0,3.253-8.66,11.743-1.157,0,0,3.43-4.873,9.4.158,0,0,2.7-3.259,6.114.951,0,0,6.83-2.935,8.659,4.215,0,0,10.9-3.234,6.217,9.88l4.668,1.208Z" transform="translate(0 61.355)" fill="#d8f263"/>
              <path id="Trazado_879889" data-name="Trazado 879889" d="M17.994,141.421q2.069,1.624,4.056,3.347c.652.566,1.3,1.141,1.944,1.711.314.277.621.562.944.829.03.025.062.054.093.08-3.156-.8-6.329-1.545-9.52-2.193q-4.553-.925-9.139-1.678a.391.391,0,0,0-.141.769q8.048,1.354,15.982,3.292t15.712,4.4q2.177.7,4.34,1.437,1.108.379,2.217.762a10.894,10.894,0,0,0,2.186.618.256.256,0,0,0,.157-.479,8.965,8.965,0,0,0-1.83-.827q-.986-.361-1.977-.707-1.9-.658-3.806-1.282-3.906-1.276-7.856-2.411c-1.7-.488-3.408-.948-5.12-1.395a5.732,5.732,0,0,0-.764-.89c-.287-.306-.592-.594-.9-.884-.643-.615-1.3-1.209-1.974-1.8q-1.977-1.733-4.041-3.366c-.437-.347-1.006.314-.566.659" transform="translate(2.674 63.525)" fill="#489300"/>
              <path id="Trazado_879890" data-name="Trazado 879890" d="M16.764,145.116l-4.25,1.668c-.7.273-1.4.541-2.089.825a5.889,5.889,0,0,0-1.945.961c-.193.19.019.45.234.457a3.141,3.141,0,0,0,1.093-.269c.33-.115.656-.238.983-.36.7-.261,1.4-.537,2.095-.809l4.188-1.623c.541-.211.237-1.064-.308-.851" transform="translate(3.795 65.52)" fill="#489300"/>
              <path id="Trazado_879891" data-name="Trazado 879891" d="M28,148.028c-.232.044-.46.1-.688.161-.508.132-1.012.287-1.513.446-.977.309-1.942.655-2.9,1.02a55,55,0,0,0-5.564,2.513c-.411.21-.046.932.373.724,1.813-.9,3.673-1.706,5.564-2.423.936-.356,1.881-.679,2.832-.99.475-.155.954-.3,1.428-.454.238-.077.476-.151.708-.241a1.387,1.387,0,0,0,.537-.369c.129-.119.019-.325-.126-.357a1.342,1.342,0,0,0-.653-.03" transform="translate(7.75 66.838)" fill="#489300"/>
              <path id="Trazado_879892" data-name="Trazado 879892" d="M23.5,143.458q1.912,2.134,3.906,4.188c.659.679,1.321,1.359,2,2.013.341.327.679.66,1.036.97a3.882,3.882,0,0,0,1.154.807c.181.062.415-.084.33-.3a3.65,3.65,0,0,0-.746-1.006c-.316-.353-.659-.684-.991-1.022-.663-.675-1.338-1.341-2-2.021q-1.995-2.049-3.9-4.182c-.409-.459-1.209.087-.8.549" transform="translate(10.562 64.46)" fill="#489300"/>
              <path id="Trazado_879893" data-name="Trazado 879893" d="M40.436,142.852s-10.9,10.848-4.365,19.671l61.068,9.762s3.294-2.969,1.244-4.827Z" transform="translate(15.348 64.513)" fill="#ff7c00"/>
              <path id="Trazado_879894" data-name="Trazado 879894" d="M41.621,144.542a53,53,0,0,0-1.931,6.413c-.25,1.074-.48,2.157-.658,3.246a15.814,15.814,0,0,0-.38,3.3.258.258,0,0,0,.5.077,29.1,29.1,0,0,0,.639-3.231c.221-1.081.443-2.16.7-3.233q.786-3.216,1.836-6.357c.154-.457-.549-.656-.714-.21" transform="translate(17.452 65.163)" fill="#b75300"/>
              <path id="Trazado_879895" data-name="Trazado 879895" d="M43.051,145.361c-.418,1.675-.8,3.356-1.131,5.052a28.719,28.719,0,0,0-.7,5.055.227.227,0,0,0,.443.068,49.835,49.835,0,0,0,1.067-4.969c.331-1.666.674-3.333,1.045-4.992.106-.47-.605-.688-.724-.213" transform="translate(18.616 65.526)" fill="#b75300"/>
              <path id="Trazado_879896" data-name="Trazado 879896" d="M46.064,145.748q-.984,3.425-1.658,6.926a39.023,39.023,0,0,0-.846,7c0,.282.453.376.51.078.44-2.3.717-4.625,1.144-6.927s.962-4.6,1.594-6.862a.388.388,0,0,0-.743-.219" transform="translate(19.672 65.699)" fill="#b75300"/>
              <path id="Trazado_879897" data-name="Trazado 879897" d="M46.42,148.613a35.249,35.249,0,0,1-.139,3.63c-.055.581-.129,1.158-.2,1.738a10.967,10.967,0,0,0-.147,1.861c.009.164.258.285.345.1a7.339,7.339,0,0,0,.482-1.723A17.194,17.194,0,0,0,47,152.39a35.417,35.417,0,0,0,.158-3.764c-.007-.475-.746-.491-.74-.013" transform="translate(20.743 66.956)" fill="#b75300"/>
              <path id="Trazado_879898" data-name="Trazado 879898" d="M48.939,149.669q-.235,2.831-.469,5.663-.113,1.376-.224,2.751c-.039.485-.062.971-.073,1.456a4.859,4.859,0,0,0,.084,1.362c.051.184.356.276.45.071a8.376,8.376,0,0,0,.476-2.629c.089-.97.165-1.942.245-2.912q.237-2.872.476-5.744c.051-.62-.916-.636-.967-.017" transform="translate(21.752 67.386)" fill="#b75300"/>
              <path id="Trazado_879899" data-name="Trazado 879899" d="M75.623,153.256a11.577,11.577,0,1,1-14.817-6.969,11.58,11.58,0,0,1,14.817,6.969" transform="translate(24.003 65.753)" fill="#e84b18"/>
              <path id="Trazado_879900" data-name="Trazado 879900" d="M58.766,150.865l25.7-14.259s-7.069-5.487-10.621-.38c0,0-10.007-5.188-11.1,5.954,0,0-7.789.809-3.977,8.685" transform="translate(26.065 60.538)" fill="#87de87"/>
              <path id="Trazado_879901" data-name="Trazado 879901" d="M59.351,131.779c-.9-6.923-7.239-6.09-7.239-6.09s-5.417,3.4-1.7,9.308c0,0-5.978,7.95,5.078,12.086,0,0,1.923,6.294,6.394,5.756,3.787-2.436,1.257-8.512,1.257-8.512,5.88-10.234-3.795-12.548-3.795-12.548" transform="translate(22.04 56.748)" fill="#5d9a5d"/>
              <path id="Trazado_879902" data-name="Trazado 879902" d="M59.446,148.79h0a.879.879,0,0,1-1.121-.527l-1.225-3.4a.876.876,0,1,1,1.649-.594l1.225,3.4a.881.881,0,0,1-.528,1.122" transform="translate(25.763 64.891)" fill="#321d1d"/>
              <path id="Trazado_879903" data-name="Trazado 879903" d="M66.763,147.939l-28.887,5.4s1.948-8.736,7.94-7.066c0,0,4.4-10.376,12.344-2.487,0,0,6.518-4.343,8.6,4.154" transform="translate(17.105 63.597)" fill="#87de87"/>
              <path id="Trazado_879904" data-name="Trazado 879904" d="M91.03,152.181a5.364,5.364,0,1,1-5.364-5.364,5.363,5.363,0,0,1,5.364,5.364" transform="translate(36.265 66.304)" fill="#5cb211"/>
              <path id="Trazado_879905" data-name="Trazado 879905" d="M87.239,148.577a3.042,3.042,0,0,0-2.915-.7,4.463,4.463,0,0,0-1.412.675,3.952,3.952,0,0,0-1.164,1.109,1.244,1.244,0,0,0-.39.794.447.447,0,0,0,.44.441,1.2,1.2,0,0,0,.749-.351,7.294,7.294,0,0,0,.96-.733,4.01,4.01,0,0,1,1.038-.582,2.471,2.471,0,0,1,1.057-.141c.081.01.1.01.046,0,.048.007.094.016.142.026a2.26,2.26,0,0,1,.274.077,1.574,1.574,0,0,1,.351.2.6.6,0,0,0,.825,0,.591.591,0,0,0,0-.824" transform="translate(36.741 66.735)" fill="#489300"/>
              <path id="Trazado_879906" data-name="Trazado 879906" d="M84.424,149.921a.671.671,0,0,0-.475-.2.645.645,0,0,0-.475.2c-.408.525-.817,1.049-1.209,1.587a.555.555,0,0,0-.055.43.586.586,0,0,0,.2.29.561.561,0,0,0,.733-.044c.435-.43.858-.872,1.282-1.314a.7.7,0,0,0,.2-.475.684.684,0,0,0-.2-.475" transform="translate(37.118 67.617)" fill="#489300"/>
              <path id="Trazado_879907" data-name="Trazado 879907" d="M96.556,155.392a5.364,5.364,0,1,1-5.539,5.182,5.364,5.364,0,0,1,5.539-5.182" transform="translate(41.103 70.175)" fill="#5cb211"/>
              <path id="Trazado_879908" data-name="Trazado 879908" d="M92.844,157.649a3.044,3.044,0,0,0-.793,2.89,4.454,4.454,0,0,0,.626,1.434,3.969,3.969,0,0,0,1.07,1.2,1.246,1.246,0,0,0,.781.417.451.451,0,0,0,.457-.425,1.217,1.217,0,0,0-.327-.759,7.145,7.145,0,0,0-.7-.984,3.918,3.918,0,0,1-.549-1.057A2.466,2.466,0,0,1,93.3,159.3c.013-.08.013-.1,0-.045.007-.048.017-.094.029-.142a2.189,2.189,0,0,1,.087-.271,1.52,1.52,0,0,1,.215-.344.6.6,0,0,0,.028-.825.589.589,0,0,0-.823-.028" transform="translate(41.534 71.126)" fill="#489300"/>
              <path id="Trazado_879909" data-name="Trazado 879909" d="M94.114,159.388a.67.67,0,0,0-.212.469.642.642,0,0,0,.18.48c.512.424,1.022.851,1.544,1.26a.556.556,0,0,0,.428.071.568.568,0,0,0,.3-.19.559.559,0,0,0-.019-.735c-.414-.45-.842-.885-1.269-1.324a.7.7,0,0,0-.469-.212.684.684,0,0,0-.48.18" transform="translate(42.407 71.899)" fill="#489300"/>
              <path id="Trazado_879910" data-name="Trazado 879910" d="M88.929,154.98a5.364,5.364,0,1,1-5.539,5.182,5.364,5.364,0,0,1,5.539-5.182" transform="translate(37.658 69.989)" fill="#5cb211"/>
              <path id="Trazado_879911" data-name="Trazado 879911" d="M85.216,157.237a3.044,3.044,0,0,0-.793,2.89,4.488,4.488,0,0,0,.627,1.434,3.95,3.95,0,0,0,1.07,1.2,1.243,1.243,0,0,0,.781.417.449.449,0,0,0,.456-.425,1.2,1.2,0,0,0-.327-.759,7.148,7.148,0,0,0-.7-.984,3.959,3.959,0,0,1-.549-1.057,2.488,2.488,0,0,1-.1-1.061c.012-.08.013-.1,0-.045.009-.048.019-.094.03-.142a2.032,2.032,0,0,1,.087-.271,1.47,1.47,0,0,1,.215-.344.6.6,0,0,0,.028-.824.591.591,0,0,0-.825-.028" transform="translate(38.089 70.94)" fill="#489300"/>
              <path id="Trazado_879912" data-name="Trazado 879912" d="M86.487,158.975a.67.67,0,0,0-.212.469.642.642,0,0,0,.18.48c.512.424,1.022.851,1.544,1.261a.562.562,0,0,0,.428.07.568.568,0,0,0,.3-.19.559.559,0,0,0-.019-.735c-.414-.45-.842-.885-1.269-1.324a.7.7,0,0,0-.469-.212.684.684,0,0,0-.48.18" transform="translate(38.962 71.713)" fill="#489300"/>
              <rect id="Rectángulo_402481" data-name="Rectángulo 402481" width="187.279" height="16.73" transform="translate(25.557 252.481)" fill="#99500e"/>
              <path id="Trazado_879913" data-name="Trazado 879913" d="M83.766,179.746c-1.407-2.354-4.365-3.151-6.911-3.4a48.206,48.206,0,0,0-9.626.353c-3.2.34-6.391.839-9.554,1.456-6.486,1.264-12.873,2.982-19.261,4.658-1.732.454-3.461.967-5.217,1.312a7.051,7.051,0,0,1-4.934-.447c-1.095-.636-2.18-1.923-1.812-3.278.327-1.2,1.733-2.315,2.957-1.659a.446.446,0,0,0,.449-.769c-1.874-1.126-4.269.444-4.638,2.439-.446,2.405,1.733,4.411,3.861,5,2.957.816,6.214-.415,9.062-1.155,3.118-.809,6.232-1.632,9.356-2.41a148.928,148.928,0,0,1,19.094-3.713,57.462,57.462,0,0,1,9.421-.5c2.394.126,6.049.764,6.915,3.452.473,1.468-.546,2.85-1.762,3.575a5.268,5.268,0,0,1-3.256.659,6.572,6.572,0,0,1-5.356-4.078.357.357,0,0,0-.688.19c.671,4.231,6.193,6.3,9.779,4.371,2.177-1.173,3.484-3.779,2.121-6.059" transform="translate(11.362 79.584)" fill="#af6d36"/>
              <path id="Trazado_879914" data-name="Trazado 879914" d="M122.613,177.636a7.183,7.183,0,0,0-3.857-.881,18.1,18.1,0,0,0-9.014,1.934c-.43.219-.131.96.334.791a22.368,22.368,0,0,1,8.319-1.425c1.1.036,2.751,0,3.6.843.819.814.295,2.235-.287,3.038-1.186,1.632-3.42,2.224-5.31,2.51a36.283,36.283,0,0,1-7.666.148,33.207,33.207,0,0,1-8.1-1.484,32.589,32.589,0,0,1-7.377-3.738,26.461,26.461,0,0,0-7.7-3.593c-2.478-.623-5.329-.991-7.752.035-2.247.952-4.2,3.58-3.241,6.092.729,1.922,3.424,3.131,5.11,1.671.337-.292-.091-.766-.451-.588a2.448,2.448,0,0,1-2.748-.48,2.634,2.634,0,0,1-.66-2.877c.88-2.574,3.851-3.154,6.238-2.993a19.316,19.316,0,0,1,8.072,2.516c2.472,1.391,4.738,3.115,7.339,4.276a36.187,36.187,0,0,0,15.879,2.667c3.7-.11,9.35-.736,10.369-5.159a3.074,3.074,0,0,0-1.089-3.3" transform="translate(33.557 79.109)" fill="#af6d36"/>
              <path id="Trazado_879915" data-name="Trazado 879915" d="M120.82,177.272a.776.776,0,0,0-.936-.53,20.948,20.948,0,0,0-3.966,1.209,16.582,16.582,0,0,0-1.936.93,6.34,6.34,0,0,0-1.709,1.232.6.6,0,0,0,.584,1,12.95,12.95,0,0,0,1.9-.9c.563-.273,1.125-.55,1.7-.791a22.587,22.587,0,0,1,3.829-1.216.771.771,0,0,0,.533-.935" transform="translate(50.634 79.809)" fill="#af6d36"/>
              <path id="Trazado_879916" data-name="Trazado 879916" d="M128.506,179.311a.592.592,0,0,0-.96-.19,3.732,3.732,0,0,1-1.028.525q-.516.246-1.035.483-1.01.462-2.035.9c-1.391.586-2.79,1.155-4.186,1.732-.377.155-.244.745.174.631a41.186,41.186,0,0,0,4.4-1.482q1.05-.416,2.083-.862.527-.227,1.05-.46c.174-.078.348-.157.521-.237a2.076,2.076,0,0,1,.47-.216.6.6,0,0,0,.541-.82" transform="translate(53.759 80.815)" fill="#af6d36"/>
              <path id="Trazado_879917" data-name="Trazado 879917" d="M148.178,176.429a.647.647,0,0,0-.568.327l-.02.033c-.213,0-.469,0-.556,0-.354.007-.707.023-1.06.036q-1.126.041-2.251.089c-1.546.064-3.09.152-4.634.241-1.5.086-3,.167-4.5.276a20.775,20.775,0,0,0-4.5.623c-.437.134-.527.9,0,.98a26.358,26.358,0,0,0,5.558-.074q2.846-.2,5.692-.369c1.854-.112,3.709-.213,5.561-.345.639-.045,1.714.055,2.063-.633a.832.832,0,0,0-.785-1.185" transform="translate(58.586 79.676)" fill="#af6d36"/>
              <path id="Trazado_879918" data-name="Trazado 879918" d="M148.183,181.2c-2.709-.144-5.445-.071-8.158-.09a58.837,58.837,0,0,0-8.158.229c-.463.062-.706.845-.125.923a58.711,58.711,0,0,0,8.149.271c2.757-.012,5.538.071,8.292-.067a.634.634,0,0,0,0-1.267" transform="translate(59.342 81.777)" fill="#af6d36"/>
              <path id="Trazado_879919" data-name="Trazado 879919" d="M51.073,175.916q-3.329-.122-6.659-.084c-1.11.015-2.221.035-3.33.1a13.3,13.3,0,0,0-1.421.136,9.3,9.3,0,0,0-1.739.289.343.343,0,0,0,0,.656,13.206,13.206,0,0,0,3.16.11c1.11-.025,2.22-.064,3.33-.083q3.329-.052,6.659.06c.762.026.761-1.155,0-1.183" transform="translate(17.018 79.403)" fill="#af6d36"/>
              <path id="Trazado_879920" data-name="Trazado 879920" d="M52.893,181.549a36.245,36.245,0,0,1-6.085,1.122c-1,.094-2,.16-3,.187a21.447,21.447,0,0,0-3.009.1c-.457.075-.389.74,0,.858a10.791,10.791,0,0,0,3.125.253q1.563,0,3.118-.163a38.283,38.283,0,0,0,6.187-1.151.626.626,0,0,0-.332-1.206" transform="translate(18.28 81.977)" fill="#af6d36"/>
              <path id="Trazado_879921" data-name="Trazado 879921" d="M73,179.536a1.558,1.558,0,0,0-1.755-.681,1.788,1.788,0,0,0-.642.351,1.406,1.406,0,0,0-.35.424,1.454,1.454,0,0,0-.18.721,1.422,1.422,0,0,0,.152.569,2.182,2.182,0,0,0-.17.177.624.624,0,0,0-.062.478.664.664,0,0,0,.285.37,1.95,1.95,0,0,0,2.418-.174,1.823,1.823,0,0,0,.3-2.235" transform="translate(31.6 80.745)" fill="#af6d36"/>
              <path id="Trazado_879922" data-name="Trazado 879922" d="M22.16,175.009c-2.826,3.133-4.514,8.049-3,12.156.165.449.945.43.9-.122a17.907,17.907,0,0,1,.308-5.875,12.376,12.376,0,0,1,2.744-5.21c.573-.642-.369-1.594-.949-.949" transform="translate(8.396 78.938)" fill="#af6d36"/>
            </g>
          </g>
        </g>
      </g>
    </g>
  </g>
</svg>
