<svg xmlns="http://www.w3.org/2000/svg" width="67.239" height="65.5" viewBox="0 0 67.239 65.5">
  <g id="img-31" transform="translate(-3272.449 -12116.666)">
    <g id="agua" transform="translate(3271.199 12114.654)">
      <path id="Trazado_882009" data-name="Trazado 882009" d="M8.1,17.785a6.268,6.268,0,1,1,6.268-6.268A6.273,6.273,0,0,1,8.1,17.785Zm0-9.117a2.849,2.849,0,1,0,2.849,2.849A2.853,2.853,0,0,0,8.1,8.668Z" transform="translate(0.742 4.141)" fill="#567d56"/>
      <circle id="Elipse_11684" data-name="Elipse 11684" cx="1.709" cy="1.709" r="1.709" transform="translate(54.242 43.074)" fill="#567d56"/>
      <circle id="Elipse_11685" data-name="Elipse 11685" cx="1.709" cy="1.709" r="1.709" transform="translate(2.572 62.384)" fill="#567d56"/>
      <path id="Trazado_882010" data-name="Trazado 882010" d="M25.89,48.04a18.118,18.118,0,0,1-1.921-.1,17.579,17.579,0,0,1-11.3-6.047C.987,28.539,15.335,11.213,22.045,4.382a5.449,5.449,0,0,1,7.79.014C34.975,9.629,43.6,19.965,43.6,30.379A17.66,17.66,0,0,1,25.89,48.04Zm.039-41.871a2.01,2.01,0,0,0-1.443.609c-6.042,6.152-19.041,21.664-9.247,32.864a14.36,14.36,0,0,0,9.1,4.9,14.078,14.078,0,0,0,11.109-3.556,14.267,14.267,0,0,0,4.734-10.6c0-9.541-8.939-19.674-12.782-23.59a2.038,2.038,0,0,0-1.468-.62Z" transform="translate(8.935 0.944)" fill="#567d56"/>
      <path id="Trazado_882011" data-name="Trazado 882011" d="M7.741,12.848,5.248,10.507a33.814,33.814,0,0,1,11.7-8.08,1.709,1.709,0,0,1,1.238,3.186,30.364,30.364,0,0,0-10.45,7.234Z" transform="translate(5.114 0.373)" fill="#567d56"/>
      <path id="Trazado_882012" data-name="Trazado 882012" d="M34.932,67.512A33.63,33.63,0,0,1,5.04,18.372l3.031,1.579a30.2,30.2,0,1,0,36.707-14.6A1.71,1.71,0,0,1,45.829,2.1,33.623,33.623,0,0,1,34.934,67.51Z" transform="translate(0 0)" fill="#567d56"/>
      <path id="Trazado_882013" data-name="Trazado 882013" d="M36.455,30.374a7.557,7.557,0,0,1-4.919-1.734,4.453,4.453,0,0,0-5.842,0,7.854,7.854,0,0,1-9.846,0,4.257,4.257,0,0,0-2.929-1.092A4.25,4.25,0,0,0,9.991,28.64a8.263,8.263,0,0,1-3.043,1.527l-.793-3.325a5.035,5.035,0,0,0,1.839-.978,7.578,7.578,0,0,1,4.925-1.734,7.578,7.578,0,0,1,4.925,1.734,4.465,4.465,0,0,0,5.851,0,7.844,7.844,0,0,1,9.839,0,4.45,4.45,0,0,0,5.839,0,7.831,7.831,0,0,1,9.833,0,4.618,4.618,0,0,0,2.063,1.021l-.583,3.371a7.892,7.892,0,0,1-3.478-1.621,4.447,4.447,0,0,0-5.835,0,7.562,7.562,0,0,1-4.919,1.734Z" transform="translate(6.275 28.292)" fill="#567d56"/>
      <path id="Trazado_882014" data-name="Trazado 882014" d="M16,23.149a1.688,1.688,0,0,1,1.381-1.662,7.422,7.422,0,0,0,5.846-5.648,1.711,1.711,0,0,1,3.348.7A10.84,10.84,0,0,1,18,24.849a1.715,1.715,0,0,1-2-1.7Z" transform="translate(18.868 15.973)" fill="#567d56"/>
    </g>
  </g>
</svg>
