<svg xmlns="http://www.w3.org/2000/svg" xmlns:xlink="http://www.w3.org/1999/xlink" width="359" height="169" viewBox="0 0 359 169">
  <defs>
    <linearGradient id="linear-gradient" x1="-0.046" y1="0.573" x2="1.133" y2="0.5" gradientUnits="objectBoundingBox">
      <stop offset="0" stop-color="#ac9afc"/>
      <stop offset="0.126" stop-color="#a896f5"/>
      <stop offset="1" stop-color="#554c7d"/>
    </linearGradient>
  </defs>
  <g id="Grupo_1102157" data-name="Grupo 1102157" transform="translate(6901.051 2041.5)">
    <path id="Trazado_882299" data-name="Trazado 882299" d="M20,0H339a20,20,0,0,1,20,20V149a20,20,0,0,1-20,20H20A20,20,0,0,1,0,149V20A20,20,0,0,1,20,0Z" transform="translate(-6901.051 -2041.5)" fill="url(#linear-gradient)"/>
    <path id="Trazado_882300" data-name="Trazado 882300" d="M20,0H320a20,20,0,0,1,20,20V129a20,20,0,0,1-20,20H20A20,20,0,0,1,0,129V20A20,20,0,0,1,20,0Z" transform="translate(-6891.051 -2031.5)" fill="#fff"/>
    <path id="Trazado_882301" data-name="Trazado 882301" d="M47.173,17.042V24H44.83V6.227h6.555a6.586,6.586,0,0,1,4.572,1.489,5.049,5.049,0,0,1,1.654,3.943,4.982,4.982,0,0,1-1.617,3.986,6.88,6.88,0,0,1-4.633,1.4Zm0-1.917h4.211a4.211,4.211,0,0,0,2.881-.887,3.242,3.242,0,0,0,1-2.562,3.349,3.349,0,0,0-1-2.543,3.945,3.945,0,0,0-2.747-.99H47.173Zm18.4,9.119A5.771,5.771,0,0,1,61.2,22.48a6.547,6.547,0,0,1-1.685-4.718v-.415a7.926,7.926,0,0,1,.751-3.51,5.856,5.856,0,0,1,2.1-2.417,5.279,5.279,0,0,1,2.924-.873,4.947,4.947,0,0,1,4,1.7A7.346,7.346,0,0,1,70.721,17.1v.94H61.773A4.7,4.7,0,0,0,62.914,21.2a3.588,3.588,0,0,0,2.777,1.2,3.933,3.933,0,0,0,2.026-.488,5.091,5.091,0,0,0,1.453-1.294l1.379,1.074A5.546,5.546,0,0,1,65.569,24.244ZM65.289,12.4a3.012,3.012,0,0,0-2.295.995,4.836,4.836,0,0,0-1.147,2.789h6.616v-.171a4.3,4.3,0,0,0-.928-2.667A2.836,2.836,0,0,0,65.289,12.4ZM81.023,20.5a1.662,1.662,0,0,0-.69-1.422,6.639,6.639,0,0,0-2.4-.873,11.37,11.37,0,0,1-2.722-.879A3.873,3.873,0,0,1,73.718,16.1a2.92,2.92,0,0,1-.482-1.685,3.426,3.426,0,0,1,1.373-2.747,5.363,5.363,0,0,1,3.51-1.123,5.519,5.519,0,0,1,3.644,1.16,3.683,3.683,0,0,1,1.4,2.966H80.889a2.039,2.039,0,0,0-.787-1.6,2.95,2.95,0,0,0-1.984-.671,3.088,3.088,0,0,0-1.929.537,1.691,1.691,0,0,0-.7,1.4,1.37,1.37,0,0,0,.647,1.233,7.96,7.96,0,0,0,2.338.793,12.18,12.18,0,0,1,2.74.9,4,4,0,0,1,1.556,1.263,3.106,3.106,0,0,1,.507,1.8,3.38,3.38,0,0,1-1.416,2.838,5.94,5.94,0,0,1-3.674,1.068,6.651,6.651,0,0,1-2.808-.562,4.566,4.566,0,0,1-1.91-1.569,3.781,3.781,0,0,1-.69-2.179h2.258a2.338,2.338,0,0,0,.909,1.8,3.528,3.528,0,0,0,2.24.665,3.642,3.642,0,0,0,2.057-.519A1.594,1.594,0,0,0,81.023,20.5Zm4.6-3.223a7.8,7.8,0,0,1,.763-3.491,5.691,5.691,0,0,1,2.124-2.393,5.782,5.782,0,0,1,3.107-.842,5.57,5.57,0,0,1,4.364,1.868,7.186,7.186,0,0,1,1.666,4.968v.159A7.869,7.869,0,0,1,96.911,21,5.608,5.608,0,0,1,94.8,23.39a5.848,5.848,0,0,1-3.156.854,5.556,5.556,0,0,1-4.352-1.868,7.149,7.149,0,0,1-1.666-4.944Zm2.271.269a5.65,5.65,0,0,0,1.019,3.528,3.454,3.454,0,0,0,5.463-.018,6.179,6.179,0,0,0,1.013-3.778,5.641,5.641,0,0,0-1.031-3.522,3.279,3.279,0,0,0-2.74-1.349,3.243,3.243,0,0,0-2.7,1.331A6.133,6.133,0,0,0,87.9,17.542Z" transform="translate(-6747.821 -1987.775)" fill="#12263f"/>
    <path id="Trazado_882302" data-name="Trazado 882302" d="M36.688,15.785h-7.7v6.3h8.948V24H26.641V6.227H37.811V8.143H28.985v5.725h7.7Zm11.5,4.712a1.663,1.663,0,0,0-.69-1.422,6.639,6.639,0,0,0-2.4-.873,11.37,11.37,0,0,1-2.722-.879A3.873,3.873,0,0,1,40.881,16.1a2.92,2.92,0,0,1-.482-1.685,3.426,3.426,0,0,1,1.373-2.747,5.363,5.363,0,0,1,3.51-1.123,5.519,5.519,0,0,1,3.644,1.16,3.683,3.683,0,0,1,1.4,2.966H48.052a2.039,2.039,0,0,0-.787-1.6,2.95,2.95,0,0,0-1.984-.671,3.087,3.087,0,0,0-1.929.537,1.691,1.691,0,0,0-.7,1.4,1.37,1.37,0,0,0,.647,1.233,7.96,7.96,0,0,0,2.338.793,12.18,12.18,0,0,1,2.74.9,4,4,0,0,1,1.556,1.263,3.106,3.106,0,0,1,.507,1.8,3.38,3.38,0,0,1-1.416,2.838,5.94,5.94,0,0,1-3.674,1.068,6.651,6.651,0,0,1-2.808-.562,4.566,4.566,0,0,1-1.91-1.569,3.781,3.781,0,0,1-.69-2.179h2.258a2.338,2.338,0,0,0,.909,1.8,3.528,3.528,0,0,0,2.24.665,3.642,3.642,0,0,0,2.057-.519A1.594,1.594,0,0,0,48.187,20.5Zm8.264-12.9v3.2h2.466v1.746H56.451v8.2a1.833,1.833,0,0,0,.33,1.192,1.387,1.387,0,0,0,1.123.4,5.468,5.468,0,0,0,1.074-.146V24a6.586,6.586,0,0,1-1.733.243,2.812,2.812,0,0,1-2.283-.916,3.933,3.933,0,0,1-.769-2.6V12.538h-2.4V10.792h2.4v-3.2ZM69.708,24a4.744,4.744,0,0,1-.317-1.392,5.039,5.039,0,0,1-3.76,1.636,4.662,4.662,0,0,1-3.2-1.1,3.574,3.574,0,0,1-1.251-2.8,3.734,3.734,0,0,1,1.569-3.2,7.4,7.4,0,0,1,4.413-1.141h2.2V14.955a2.536,2.536,0,0,0-.708-1.886,2.845,2.845,0,0,0-2.087-.7,3.293,3.293,0,0,0-2.026.61,1.8,1.8,0,0,0-.818,1.477H61.443a3.117,3.117,0,0,1,.7-1.91,4.791,4.791,0,0,1,1.9-1.459,6.406,6.406,0,0,1,2.643-.537,5.221,5.221,0,0,1,3.577,1.141,4.117,4.117,0,0,1,1.343,3.143v6.079a7.432,7.432,0,0,0,.464,2.893V24ZM65.96,22.279a3.969,3.969,0,0,0,2.014-.549A3.323,3.323,0,0,0,69.354,20.3v-2.71h-1.77q-4.15,0-4.15,2.429a2.056,2.056,0,0,0,.708,1.66A2.721,2.721,0,0,0,65.96,22.279ZM78.216,7.594v3.2h2.466v1.746H78.216v8.2a1.833,1.833,0,0,0,.33,1.192,1.387,1.387,0,0,0,1.123.4,5.468,5.468,0,0,0,1.074-.146V24a6.586,6.586,0,0,1-1.733.243,2.812,2.812,0,0,1-2.283-.916,3.933,3.933,0,0,1-.769-2.6V12.538h-2.4V10.792h2.4v-3.2Zm13.257,15.1a4.8,4.8,0,0,1-3.87,1.55,4.106,4.106,0,0,1-3.217-1.227,5.31,5.31,0,0,1-1.117-3.632V10.792h2.258v8.533q0,3,2.441,3A3.38,3.38,0,0,0,91.412,20.4V10.792H93.67V24H91.521Zm12.012-9.875a6.767,6.767,0,0,0-1.111-.085,2.976,2.976,0,0,0-3.015,1.892V24H97.1V10.792h2.2l.037,1.526a3.516,3.516,0,0,1,3.149-1.77,2.307,2.307,0,0,1,1,.171ZM113.226,24a4.744,4.744,0,0,1-.317-1.392,5.039,5.039,0,0,1-3.76,1.636,4.662,4.662,0,0,1-3.2-1.1,3.574,3.574,0,0,1-1.251-2.8,3.734,3.734,0,0,1,1.569-3.2,7.4,7.4,0,0,1,4.413-1.141h2.2V14.955a2.536,2.536,0,0,0-.708-1.886,2.845,2.845,0,0,0-2.087-.7,3.293,3.293,0,0,0-2.026.61,1.8,1.8,0,0,0-.818,1.477h-2.271a3.117,3.117,0,0,1,.7-1.91,4.791,4.791,0,0,1,1.9-1.459,6.406,6.406,0,0,1,2.643-.537,5.221,5.221,0,0,1,3.577,1.141,4.117,4.117,0,0,1,1.343,3.143v6.079a7.432,7.432,0,0,0,.464,2.893V24Zm-3.748-1.721a3.969,3.969,0,0,0,2.014-.549,3.323,3.323,0,0,0,1.379-1.428v-2.71H111.1q-4.15,0-4.15,2.429a2.056,2.056,0,0,0,.708,1.66A2.721,2.721,0,0,0,109.478,22.279Z" transform="translate(-6747.821 -1947.893)" fill="#12263f"/>
    <path id="Trazado_882303" data-name="Trazado 882303" d="M15.531,30H10.063V7.25h5.469ZM26.547,7.25l5.078,15.828L36.688,7.25h7.219V30h-5.5V24.688l.531-10.875L33.438,30H29.813L24.3,13.8l.531,10.891V30H19.344V7.25ZM65.8,22.3a8.308,8.308,0,0,1-1.281,4.2,7.733,7.733,0,0,1-3.289,2.82,11.2,11.2,0,0,1-4.836,1,8.934,8.934,0,0,1-7.062-2.922q-2.578-2.922-2.578-8.25V18.016a13.771,13.771,0,0,1,1.164-5.852,8.82,8.82,0,0,1,3.352-3.875,9.351,9.351,0,0,1,5.063-1.367A9.806,9.806,0,0,1,62.984,9.1a8.612,8.612,0,0,1,2.859,6.008H60.375a4.075,4.075,0,0,0-1.047-2.984,4.306,4.306,0,0,0-3-.906,3.276,3.276,0,0,0-3,1.531,9.841,9.841,0,0,0-1,4.891V19.25a10.89,10.89,0,0,0,.914,5.2,3.345,3.345,0,0,0,3.148,1.563,4.211,4.211,0,0,0,2.891-.891A3.78,3.78,0,0,0,60.344,22.3Zm17.344-3.578H68.672V14.656H83.141Zm0,6.859H68.672V21.516H83.141Z" transform="translate(-6849.281 -1976.308)" fill="#ac9afc"/>
    <path id="Trazado_879554" data-name="Trazado 879554" d="M-7752.5-2251.168h141.444" transform="translate(1004.678 296.038)" fill="none" stroke="#ac9afc" stroke-width="2"/>
  </g>
</svg>
