<svg xmlns="http://www.w3.org/2000/svg" xmlns:xlink="http://www.w3.org/1999/xlink" width="58" height="58" viewBox="0 0 58 58">
  <defs>
    <clipPath id="clip-path">
      <rect id="Rectángulo_402636" data-name="Rectángulo 402636" width="34.769" height="34.766" fill="#af886b"/>
    </clipPath>
  </defs>
  <g id="img-29" transform="translate(12442.234 -3303.655)">
    <circle id="Elipse_11686" data-name="Elipse 11686" cx="29" cy="29" r="29" transform="translate(-12442.235 3303.655)" fill="#fcc59a"/>
    <g id="Grupo_1102117" data-name="Grupo 1102117" transform="translate(-12430.62 3315.89)">
      <g id="Grupo_1102116" data-name="Grupo 1102116" clip-path="url(#clip-path)">
        <path id="Trazado_882263" data-name="Trazado 882263" d="M32.9,7.274A6.324,6.324,0,0,0,28.427,5.41H26.591A10.6,10.6,0,0,0,22.9,1.558a10.54,10.54,0,0,0-11.029,0A10.6,10.6,0,0,0,8.178,5.41H6.342A6.363,6.363,0,0,0,0,11.752v4.27a.7.7,0,1,0,1.391,0v-4.27A4.962,4.962,0,0,1,6.342,6.8H8.595a.687.687,0,0,0,.64-.424A9.208,9.208,0,0,1,12.6,2.74,9.152,9.152,0,0,1,25.555,6.418a.682.682,0,0,0,.619.382h2.253a4.962,4.962,0,0,1,4.951,4.951v4.27a.7.7,0,1,0,1.391,0v-4.27A6.324,6.324,0,0,0,32.9,7.274" fill="#af886b"/>
        <path id="Trazado_882264" data-name="Trazado 882264" d="M154.8,53.678a.692.692,0,1,0,1.238.619,7.358,7.358,0,0,0,.6-1.641,7.523,7.523,0,0,0-1.951-7,.738.738,0,0,0-.052-.06.689.689,0,0,0-.065-.057,7.519,7.519,0,0,0-10.508,0A.689.689,0,0,0,144,45.6a.738.738,0,0,0-.052.06,7.523,7.523,0,0,0-1.951,7,7.358,7.358,0,0,0,.6,1.641.692.692,0,1,0,1.238-.619,6.244,6.244,0,0,1-.487-1.335,6.633,6.633,0,0,1-.126-.73h.954a.7.7,0,1,0,0-1.391h-.955a6.089,6.089,0,0,1,1.295-3.116l.675.675a.692.692,0,0,0,.98,0,.7.7,0,0,0,0-.987l-.67-.674a6.081,6.081,0,0,1,3.118-1.29v.948a.7.7,0,1,0,1.391,0V44.83a6.081,6.081,0,0,1,3.118,1.29l-.67.674a.7.7,0,0,0,0,.987.692.692,0,0,0,.98,0l.675-.675a6.089,6.089,0,0,1,1.295,3.116h-.955a.7.7,0,1,0,0,1.391h.954a6.633,6.633,0,0,1-.126.73,6.244,6.244,0,0,1-.487,1.335" transform="translate(-131.94 -40.382)" fill="#af886b"/>
        <path id="Trazado_882265" data-name="Trazado 882265" d="M230.126,238.943c-.139.021-.264.035-.382.042s-.236.007-.382.007-.278,0-.382-.007-.243-.021-.382-.042a.7.7,0,0,0-.167,1.384c.139.014.292.028.466.042s.327.014.466.014.3-.007.466-.014.327-.028.466-.042a.7.7,0,0,0-.167-1.384" transform="translate(-211.977 -222.324)" fill="#af886b"/>
        <path id="Trazado_882266" data-name="Trazado 882266" d="M223.668,127.229a1.972,1.972,0,0,0,1.838-1.266h1.117a.7.7,0,0,0,0-1.4h-1.117a1.97,1.97,0,0,0-.448-.688,1.964,1.964,0,1,0-2.781,2.775,1.97,1.97,0,0,0,1.391.577m-.4-2.371a.571.571,0,0,1,.807,0,.546.546,0,0,1,.17.341c0,.021,0,.041,0,.063s0,.043,0,.065a.546.546,0,0,1-.17.346.571.571,0,0,1-.807,0,.563.563,0,0,1,0-.814" transform="translate(-206.284 -114.726)" fill="#af886b"/>
        <path id="Trazado_882267" data-name="Trazado 882267" d="M14.144,216.958a2.552,2.552,0,0,0-3.63,0h-.007a2.7,2.7,0,0,0-.285.343,2.3,2.3,0,0,0-1.4-.475,2.324,2.324,0,0,0-1.641.681v.007a2.267,2.267,0,0,0-.281.336,2.331,2.331,0,0,0-2.974.255l.007.007a2.312,2.312,0,0,0-.328.405,2.312,2.312,0,0,0-2.927.29A2.336,2.336,0,0,0,0,220.449v4.6a.691.691,0,0,0,.014.141l1.07,10.123a.7.7,0,0,0,1.384-.146L1.391,225.041v-4.592a.936.936,0,0,1,.271-.661.948.948,0,0,1,.661-.271.932.932,0,0,1,.654.271.948.948,0,0,1,.271.661v1.606a.7.7,0,1,0,1.391,0v-2.309a.919.919,0,0,1,.271-.654h.007a.919.919,0,0,1,.654-.271.948.948,0,0,1,.661.271.932.932,0,0,1,.271.654v2.309a.7.7,0,1,0,1.391,0v-2.907a.938.938,0,0,1,.932-.932.909.909,0,0,1,.654.278l.028.021a.932.932,0,0,1,.243.633v2.907a.7.7,0,1,0,1.391,0V218.78a1.19,1.19,0,0,1,2.03-.841,1.218,1.218,0,0,1,.348.841v6.2L12.44,235.17a.692.692,0,0,0,1.377.146l1.077-10.123a.69.69,0,0,0,.015-.141V218.78a2.588,2.588,0,0,0-.758-1.822Z" transform="translate(0 -201.166)" fill="#af886b"/>
        <path id="Trazado_882268" data-name="Trazado 882268" d="M298.186,218.126a2.283,2.283,0,0,0-1.286.391,2.315,2.315,0,0,0-.328-.405l.007-.007a2.331,2.331,0,0,0-2.974-.255,2.265,2.265,0,0,0-.281-.336v-.007a2.324,2.324,0,0,0-1.641-.681,2.3,2.3,0,0,0-1.4.475,2.7,2.7,0,0,0-.285-.343h-.007a2.552,2.552,0,0,0-3.63,0h-.007a2.588,2.588,0,0,0-.758,1.822v6.272a.69.69,0,0,0,.015.141l1.077,10.123a.692.692,0,0,0,1.377-.146l-1.078-10.194v-6.2a1.218,1.218,0,0,1,.348-.841,1.189,1.189,0,0,1,2.03.841v3.275a.7.7,0,1,0,1.391,0v-2.907a.932.932,0,0,1,.243-.633l.028-.021a.909.909,0,0,1,.654-.278.938.938,0,0,1,.932.932v2.907a.7.7,0,0,0,1.391,0v-2.309a.932.932,0,0,1,.271-.654.948.948,0,0,1,.661-.271.919.919,0,0,1,.654.271h.007a.919.919,0,0,1,.271.654v2.309a.7.7,0,0,0,1.391,0v-1.606a.948.948,0,0,1,.271-.661.932.932,0,0,1,.654-.271.948.948,0,0,1,.661.271.936.936,0,0,1,.271.661v4.592L298.04,235.17a.7.7,0,0,0,1.384.146l1.07-10.123a.691.691,0,0,0,.014-.141v-4.6a2.336,2.336,0,0,0-.681-1.641,2.3,2.3,0,0,0-1.641-.681" transform="translate(-265.74 -201.166)" fill="#af886b"/>
      </g>
    </g>
  </g>
</svg>
