<svg xmlns="http://www.w3.org/2000/svg" width="63" height="63" viewBox="0 0 63 63">
  <g id="img-11" transform="translate(11504.076 2660.495)">
    <g id="Grupo_1102170" data-name="Grupo 1102170" transform="translate(-12523.076 -9424.495)">
      <g id="Grupo_1098742" data-name="Grupo 1098742" transform="translate(1019.445 6764.445)">
        <rect id="Rect치ngulo_400898" data-name="Rect치ngulo 400898" width="63" height="63" rx="31.5" transform="translate(-0.445 -0.445)" fill="#ac9afc" opacity="0.859"/>
        <rect id="Rect치ngulo_400907" data-name="Rect치ngulo 400907" width="63" height="63" rx="31.5" transform="translate(-0.446 -0.445)" fill="none"/>
      </g>
      <path id="Trazado_126669" data-name="Trazado 126669" d="M864.982,1918.915a13.558,13.558,0,0,1,19.2,19.008c2.711,3.877,1.609,6.769-2.919,7.559-.207,2.674-1.693,4.114-4.4,4.372a4.4,4.4,0,0,1-4.4,4.416c-.828,4.392-3.834,5.59-7.408,2.983a4.309,4.309,0,0,1-7.407-2.954c-3.079-.644-3.871-1.435-4.4-4.422a4.37,4.37,0,0,1-4.391-4.414,4.188,4.188,0,0,1-4.03-2.656,4.269,4.269,0,0,1,1.083-4.727,13.882,13.882,0,0,1-2.959-11.321,12.964,12.964,0,0,1,4.148-7.54A13.745,13.745,0,0,1,864.982,1918.915Zm.5,27.552c.175.019.359.033.541.058a3.914,3.914,0,0,1,3.435,2.573,5.845,5.845,0,0,0,1.629,2.316,1.91,1.91,0,0,0,2.884.066,1.965,1.965,0,0,0,.035-2.942c-.178-.189-.366-.368-.549-.552-2.118-2.118-4.248-4.224-6.337-6.37a1.429,1.429,0,0,1-.369-1.105,1.153,1.153,0,0,1,.808-.741,1.694,1.694,0,0,1,1.143.491c2.276,2.225,4.513,4.491,6.77,6.737a1.858,1.858,0,0,0,2.436.363,1.967,1.967,0,0,0,.459-3.26c-2.276-2.293-4.569-4.57-6.848-6.859-.6-.607-.6-1.239-.022-1.694.5-.4.985-.331,1.554.235q2.756,2.747,5.5,5.5c.483.484.952.984,1.456,1.445a2.186,2.186,0,0,0,2.957-.077,1.756,1.756,0,0,0,.167-2.587,9.46,9.46,0,0,0-1.076-1.215c-1.129-1.1-2.287-2.18-3.413-3.289-.223-.22-.514-.553-.487-.8a1.4,1.4,0,0,1,.545-1.016,1.344,1.344,0,0,1,1.19.143c.936.783,1.78,1.674,2.687,2.551a11.412,11.412,0,0,0-3.695-17.405,11.307,11.307,0,0,0-12.713,1.733c-2.537,2.4-4.966,4.906-7.409,7.4a2.308,2.308,0,0,0-.56,1.243,2.071,2.071,0,0,0,1.268,2.025,1.867,1.867,0,0,0,2.256-.474q3.288-3.266,6.557-6.55c.87-.87,1.3-.906,2.2-.029,1.781,1.753,3.53,3.539,5.283,5.322.57.579.6,1.137.132,1.606-.483.484-1.076.442-1.663-.141q-2.182-2.17-4.354-4.35c-.16-.16-.334-.305-.6-.548a7.478,7.478,0,0,1-.515.654q-2.744,2.759-5.5,5.506a3.986,3.986,0,0,1-2.735,1.311,4.539,4.539,0,0,1-4.133-2.712,3.787,3.787,0,0,1,.934-4.46c1.857-1.879,3.733-3.738,5.6-5.607.158-.159.3-.332.452-.5a11.426,11.426,0,0,0-14.983.444c-4.9,4.564-4.051,11.084-.831,15.661.714-.747,1.37-1.526,2.121-2.2a4.138,4.138,0,0,1,6.819,2.242c.076.359.121.726.18,1.085a4.308,4.308,0,0,1,3.1,1.261,4.453,4.453,0,0,1,1.262,3.1C863.835,1942.373,865.027,1943.565,865.48,1946.467Zm-4.542-2.265a4.3,4.3,0,0,0-1.086.6c-1.3,1.231-2.559,2.5-3.8,3.786a2.075,2.075,0,0,0,.007,2.925,2.016,2.016,0,0,0,2.863-.026c1.287-1.242,2.541-2.519,3.8-3.792a1.779,1.779,0,0,0,.388-2.141A2.353,2.353,0,0,0,860.937,1944.2Zm-1.225,10.17a2.338,2.338,0,0,0,1.325,1.933,1.928,1.928,0,0,0,2.279-.406q1.9-1.845,3.749-3.742a1.93,1.93,0,0,0-.037-2.882,1.909,1.909,0,0,0-2.882.019c-1.229,1.2-2.459,2.4-3.633,3.657A6.74,6.74,0,0,0,859.712,1954.371Zm-10.787-11.087a2.556,2.556,0,0,0,.945-.408c1.445-1.379,2.882-2.772,4.236-4.24a1.818,1.818,0,0,0-.313-2.594,1.85,1.85,0,0,0-2.612-.156q-2.1,1.991-4.089,4.093a1.831,1.831,0,0,0-.207,2.179A2.027,2.027,0,0,0,848.925,1943.285Zm10.1-1.239a2.644,2.644,0,0,0-1.5-2.048,1.829,1.829,0,0,0-2.133.446c-1.236,1.226-2.473,2.452-3.691,3.7a2.07,2.07,0,0,0-.026,2.971,2.013,2.013,0,0,0,2.907-.07c1.248-1.214,2.487-2.438,3.685-3.7A6.5,6.5,0,0,0,859.022,1942.046Zm7.6,13.657c1.18,1.063,2.418,1.042,3.235-.012a1.982,1.982,0,0,0-.481-2.876Z" transform="translate(185.494 4860.87)" fill="#554c7d"/>
    </g>
  </g>
</svg>
