<svg xmlns="http://www.w3.org/2000/svg" width="88" height="88" viewBox="0 0 88 88">
  <g id="img-30" transform="translate(-3106.449 -12094.166)">
    <g id="vegetal" transform="translate(3105.449 12093.166)">
      <path id="Trazado_882003" data-name="Trazado 882003" d="M89,50.605a19.721,19.721,0,0,0-8.015-15.786,6.039,6.039,0,0,0-3.571-1.174,5.976,5.976,0,0,0-4.2,1.729c-.206-.172-.393-.361-.606-.524a5.9,5.9,0,0,0-2.7-1.107l.626-6.882c.014-.165.021-.331.021-.5a5.5,5.5,0,0,0-5.493-5.493h-.369a5.5,5.5,0,0,0-5.493,5.493c0,.166.007.332.023.5l.629,6.912A6.076,6.076,0,0,0,57.34,34.84c-.254.19-.48.409-.724.609-.126-.131-.26-.253-.4-.37a8.294,8.294,0,0,0-1.468-6.4,8.51,8.51,0,0,0-7.408-13.468A8.48,8.48,0,0,0,41.7,9.87a8.4,8.4,0,0,0-7.127-3.177,8.506,8.506,0,0,0-15.4-1.431,8.555,8.555,0,0,0-7.938,6.393A11.4,11.4,0,0,0,3.839,22.29a11.291,11.291,0,0,0,4.966,9.379A8.477,8.477,0,0,0,11.181,41.6a8.219,8.219,0,0,0-.246,1.979,8.53,8.53,0,0,0,7.494,8.455l3.14,8.793A15.694,15.694,0,0,0,17.537,65.2L10.1,63.548a3.846,3.846,0,0,0-.866-.1,3.982,3.982,0,0,0-3.977,3.977v.562a3.933,3.933,0,0,0,.186,1.138H5.258a4.258,4.258,0,1,0,0,8.516h.186a3.933,3.933,0,0,0-.186,1.138v.562a3.982,3.982,0,0,0,3.977,3.977,3.884,3.884,0,0,0,.863-.1l7.439-1.654A15.6,15.6,0,0,0,30.806,89h.334a15.678,15.678,0,0,0,2.373-.182l48.671-7.487A8.02,8.02,0,0,0,84.4,66.147,19.63,19.63,0,0,0,89,53.589Zm-18.121-13.5a17.449,17.449,0,0,1,6.766,13.8v5.213a17.524,17.524,0,0,1-2.092,8.3L64.171,62.672a28.3,28.3,0,0,1-.72-6.275V50.635a28.257,28.257,0,0,1,.361-4.277c.348.03.694.061,1.059.061,4.047,0,7.1-1.831,7.1-4.258,0-1.34-.927-2.529-2.532-3.31l.209-2.3a2.975,2.975,0,0,1,1.235.551Zm-6.193-13.4h.37a2.657,2.657,0,0,1,2.654,2.654,2.269,2.269,0,0,1-.011.241L66.411,40.78l1.083.348c1.243.4,1.635.921,1.635,1.033,0,.353-1.51,1.419-4.258,1.419s-4.258-1.066-4.258-1.419c0-.112.392-.636,1.635-1.035l1.083-.348L62.042,26.605c-.007-.081-.01-.162-.01-.241a2.657,2.657,0,0,1,2.654-2.654ZM60.1,36.6l.2,2.25c-1.605.781-2.532,1.97-2.532,3.31,0,1.564,1.276,2.871,3.259,3.609a31.272,31.272,0,0,0-.42,4.864V56.4a31.19,31.19,0,0,0,.551,5.812L52.8,60.922a17.091,17.091,0,0,1-.7-4.8V50.909a17.29,17.29,0,0,1,6.941-13.795A3.174,3.174,0,0,1,60.1,36.6ZM44.763,59.686a16.506,16.506,0,0,1-1.182-6.1V50.6a16.878,16.878,0,0,1,6.863-13.5,3.2,3.2,0,0,1,1.885-.616,3.136,3.136,0,0,1,2.224.923,20.107,20.107,0,0,0-5.294,13.5v5.213a19.879,19.879,0,0,0,.491,4.33ZM44.9,17.04l.258,1.461,1.448-.322a5.667,5.667,0,0,1,5.284,9.5l-.977.995.977.995a5.643,5.643,0,0,1,1.629,3.973c0,.043-.009.085-.009.129a5.881,5.881,0,0,0-4.751,1.043,19.787,19.787,0,0,0-6,7.209q-.807-2.512-1.685-4.8a20.131,20.131,0,0,1,6.232-10.99l-.889-1.106-.887-1.109A22.464,22.464,0,0,0,39.34,32.97a88.2,88.2,0,0,0-5.92-11.447l-2.389,1.536a83.538,83.538,0,0,1,4.722,8.884,23.384,23.384,0,0,0-9.346-1.128l.282,2.825c2.135-.214,8.181-.111,11.006,2.772.995,2.446,1.976,5.127,2.842,8a24.026,24.026,0,0,0-9.73-2.248V45c.067,0,6.386.043,10.126,3.016a19.168,19.168,0,0,0-.19,2.589V53.59a19.367,19.367,0,0,0,.843,5.609l-8.072-1.242c-.426-.065-.856-.109-1.287-.141a5.67,5.67,0,0,1-5.287-7.738l.414-1.086-.984-.622a5.647,5.647,0,0,1-1.712-7.924l.884-1.329L24.12,38.4a8.506,8.506,0,0,1,1.5-15.77l.881-.253.132-.907a5.691,5.691,0,0,1,5.588-4.853,1.123,1.123,0,0,1,.155.018c.1.014.2.027.3.034l1.018.082.4-.94A5.666,5.666,0,0,1,44.9,17.04ZM20.452,49.258h-1a5.635,5.635,0,0,1-5.287-7.7l.416-1.086-.984-.622a5.646,5.646,0,0,1-1.713-7.924l.884-1.329-1.422-.722a8.506,8.506,0,0,1,1.5-15.77l.881-.253.132-.907A5.693,5.693,0,0,1,19.452,8.1a1.185,1.185,0,0,1,.159.018c.1.013.193.026.292.034l1.022.085.4-.944a5.666,5.666,0,0,1,10.8,1.233l.258,1.461,1.448-.322a5.2,5.2,0,0,1,3.1.2,8.5,8.5,0,0,0-4.986,3.912,8.555,8.555,0,0,0-7.938,6.393,11.343,11.343,0,0,0-2.427,20.014,8.479,8.479,0,0,0,2.376,9.934A8.207,8.207,0,0,0,23.71,52.1a8.541,8.541,0,0,0,2.772,6.3,15.459,15.459,0,0,0-2.431.937ZM8.1,67.991v-.562a1.157,1.157,0,0,1,1.387-1.111l6.755,1.5c-.165.429-.312.864-.439,1.31H9.235A1.14,1.14,0,0,1,8.1,67.991Zm-4.258,5.4a1.422,1.422,0,0,1,1.419-1.419H15.265c-.041.468-.071.94-.071,1.419s.03.951.072,1.419H5.258a1.422,1.422,0,0,1-1.419-1.419Zm5.642,7.07A1.169,1.169,0,0,1,8.1,79.346v-.562a1.14,1.14,0,0,1,1.138-1.138H15.8c.126.446.275.881.439,1.31Zm76.681-7.07a5.17,5.17,0,0,1-4.407,5.138l-48.67,7.487a12.8,12.8,0,0,1-1.945.149h-.334a12.774,12.774,0,1,1,0-25.548h.334a12.952,12.952,0,0,1,1.943.148l48.67,7.487A5.173,5.173,0,0,1,86.161,73.387Zm0-19.8A16.8,16.8,0,0,1,81.32,65.31l-2.82-.434a20.358,20.358,0,0,0,1.984-8.753V50.909A20.363,20.363,0,0,0,75.261,37.35a3.137,3.137,0,0,1,2.153-.866A3.179,3.179,0,0,1,79.3,37.1a16.872,16.872,0,0,1,6.863,13.5Z" transform="translate(0 0)" fill="#567d56"/>
      <path id="Trazado_882004" data-name="Trazado 882004" d="M21,47h2.839V61.194H21Z" transform="translate(8.387 19.29)" fill="#567d56"/>
      <path id="Trazado_882005" data-name="Trazado 882005" d="M29,47h2.839V61.194H29Z" transform="translate(11.742 19.29)" fill="#567d56"/>
      <path id="Trazado_882006" data-name="Trazado 882006" d="M37,47h2.839V61.194H37Z" transform="translate(15.097 19.29)" fill="#567d56"/>
      <path id="Trazado_882007" data-name="Trazado 882007" d="M45,49h2.839v8.516H45Z" transform="translate(18.452 20.129)" fill="#567d56"/>
      <path id="Trazado_882008" data-name="Trazado 882008" d="M53,50h2.839v5.677H53Z" transform="translate(21.806 20.548)" fill="#567d56"/>
    </g>
  </g>
</svg>
