<svg id="img-2" xmlns="http://www.w3.org/2000/svg" xmlns:xlink="http://www.w3.org/1999/xlink" width="157" height="142.178" viewBox="0 0 157 142.178">
  <defs>
    <clipPath id="clip-path">
      <rect id="Rectángulo_402578" data-name="Rectángulo 402578" width="157" height="142.178" fill="none"/>
    </clipPath>
    <clipPath id="clip-path-2">
      <rect id="Rectángulo_402577" data-name="Rectángulo 402577" width="157" height="142.178" fill="#87de87"/>
    </clipPath>
    <clipPath id="clip-path-3">
      <rect id="Rectángulo_402563" data-name="Rectángulo 402563" width="157" height="35.798" fill="#fcc59a"/>
    </clipPath>
    <clipPath id="clip-path-4">
      <rect id="Rectángulo_402564" data-name="Rectángulo 402564" width="8.265" height="4.661" fill="none"/>
    </clipPath>
    <clipPath id="clip-path-5">
      <rect id="Rectángulo_402565" data-name="Rectángulo 402565" width="2.966" height="2.966" fill="none"/>
    </clipPath>
    <clipPath id="clip-path-6">
      <rect id="Rectángulo_402566" data-name="Rectángulo 402566" width="87.285" height="40.858" fill="none"/>
    </clipPath>
    <clipPath id="clip-path-7">
      <rect id="Rectángulo_402567" data-name="Rectángulo 402567" width="13.55" height="14.032" fill="none"/>
    </clipPath>
    <clipPath id="clip-path-8">
      <rect id="Rectángulo_402568" data-name="Rectángulo 402568" width="32.716" height="6.947" fill="none"/>
    </clipPath>
    <clipPath id="clip-path-9">
      <rect id="Rectángulo_402569" data-name="Rectángulo 402569" width="30.799" height="6.19" fill="none"/>
    </clipPath>
    <clipPath id="clip-path-10">
      <rect id="Rectángulo_402570" data-name="Rectángulo 402570" width="9.287" height="30.354" fill="none"/>
    </clipPath>
    <clipPath id="clip-path-11">
      <rect id="Rectángulo_402571" data-name="Rectángulo 402571" width="7.131" height="20.353" fill="none"/>
    </clipPath>
    <clipPath id="clip-path-12">
      <rect id="Rectángulo_402572" data-name="Rectángulo 402572" width="11.427" height="15.688" fill="none"/>
    </clipPath>
    <clipPath id="clip-path-13">
      <rect id="Rectángulo_402573" data-name="Rectángulo 402573" width="9.161" height="9.407" fill="none"/>
    </clipPath>
    <clipPath id="clip-path-14">
      <rect id="Rectángulo_402574" data-name="Rectángulo 402574" width="15.707" height="11.365" fill="none"/>
    </clipPath>
    <clipPath id="clip-path-15">
      <rect id="Rectángulo_402575" data-name="Rectángulo 402575" width="15.351" height="11.933" fill="none"/>
    </clipPath>
    <clipPath id="clip-path-16">
      <rect id="Rectángulo_402576" data-name="Rectángulo 402576" width="3.688" height="3.126" fill="none"/>
    </clipPath>
  </defs>
  <g id="Grupo_1101975" data-name="Grupo 1101975" clip-path="url(#clip-path)">
    <g id="Grupo_1101974" data-name="Grupo 1101974">
      <g id="Grupo_1101973" data-name="Grupo 1101973" clip-path="url(#clip-path-2)">
        <g id="Grupo_1101933" data-name="Grupo 1101933" transform="translate(0 106.381)" opacity="0.25" style="mix-blend-mode: multiply;isolation: isolate">
          <g id="Grupo_1101932" data-name="Grupo 1101932">
            <g id="Grupo_1101931" data-name="Grupo 1101931" clip-path="url(#clip-path-3)">
              <path id="Trazado_881528" data-name="Trazado 881528" d="M157,99.326c0,9.885-35.146,17.9-78.5,17.9S0,109.211,0,99.326s35.146-17.9,78.5-17.9,78.5,8.014,78.5,17.9" transform="translate(0 -81.427)" fill="#fcc59a"/>
            </g>
          </g>
        </g>
        <path id="Trazado_881529" data-name="Trazado 881529" d="M95.247,53.953c6.284.6,22.1,4.624,22.1,21.468,0,15.18-13.185,30.176-14.869,31.438s-45.451,1.474-54.078,0-17.675-10.731-18.307-24.2,8-27.144,22.726-28.618,18.583,7.638,23.844,8.9S88,53.266,95.247,53.953" transform="translate(9.213 16.512)" fill="#87dbe9"/>
        <path id="Trazado_881530" data-name="Trazado 881530" d="M70.819,72.83a25.772,25.772,0,0,0-.5,5.656,16.1,16.1,0,0,0,.913,5.38c.346.849,1.594.32,1.158-.487a10.772,10.772,0,0,1-1.027-2.341,13.143,13.143,0,0,1-.435-2.646,25.442,25.442,0,0,1,.334-5.437c.047-.291-.393-.421-.448-.124" transform="translate(21.547 22.267)" fill="#609fc6"/>
        <path id="Trazado_881531" data-name="Trazado 881531" d="M52.491,67.057a9.8,9.8,0,0,1,1.037,3.825c.226,1.418.451,2.835.613,4.262a29.47,29.47,0,0,1-.247,8.506c-.14.8,1.082,1.143,1.225.337a27.405,27.405,0,0,0-.26-8.941c-.24-1.544-.549-3.083-.886-4.609a9.675,9.675,0,0,0-1.24-3.522c-.1-.146-.341-.013-.243.142" transform="translate(16.079 20.487)" fill="#609fc6"/>
        <path id="Trazado_881532" data-name="Trazado 881532" d="M58.065,70.53a40.629,40.629,0,0,1-1.574,8.987,26.068,26.068,0,0,1-3.709,8.093c-.571.8.762,1.581,1.32.772a23.56,23.56,0,0,0,3.627-8.525,49.59,49.59,0,0,0,.73-9.328.2.2,0,0,0-.393,0" transform="translate(16.132 21.556)" fill="#609fc6"/>
        <g id="Grupo_1101936" data-name="Grupo 1101936" transform="translate(60.043 73.104)" opacity="0.5">
          <g id="Grupo_1101935" data-name="Grupo 1101935">
            <g id="Grupo_1101934" data-name="Grupo 1101934" clip-path="url(#clip-path-4)">
              <path id="Trazado_881533" data-name="Trazado 881533" d="M54.224,58.287c0,1.287-1.85,2.331-4.132,2.331s-4.132-1.044-4.132-2.331,1.85-2.331,4.132-2.331S54.224,57,54.224,58.287" transform="translate(-45.959 -55.957)" fill="#fff"/>
            </g>
          </g>
        </g>
        <g id="Grupo_1101939" data-name="Grupo 1101939" transform="translate(56.063 75.435)" opacity="0.5">
          <g id="Grupo_1101938" data-name="Grupo 1101938">
            <g id="Grupo_1101937" data-name="Grupo 1101937" clip-path="url(#clip-path-5)">
              <path id="Trazado_881534" data-name="Trazado 881534" d="M45.878,59.223a1.483,1.483,0,1,1-1.483-1.483,1.483,1.483,0,0,1,1.483,1.483" transform="translate(-42.912 -57.74)" fill="#fff"/>
            </g>
          </g>
        </g>
        <g id="Grupo_1101942" data-name="Grupo 1101942" transform="translate(39.276 83.542)" opacity="0.5">
          <g id="Grupo_1101941" data-name="Grupo 1101941">
            <g id="Grupo_1101940" data-name="Grupo 1101940" clip-path="url(#clip-path-6)">
              <path id="Trazado_881535" data-name="Trazado 881535" d="M62.528,69.557c-11-9.372-24.167-5.735-31.617,1.653a30,30,0,0,0-.817,8.368c.632,13.467,9.679,22.726,18.307,24.2s52.4,1.262,54.078,0,14.869-16.259,14.869-31.438a23.966,23.966,0,0,0-.3-3.78c-11.169,9.472-27.916,19.025-40.363,16.15-6.2-1.431-10.444-11.987-14.159-15.152" transform="translate(-30.064 -63.946)" fill="#609fc6"/>
            </g>
          </g>
        </g>
        <path id="Trazado_881536" data-name="Trazado 881536" d="M73.382,75.642c3.087-5.167,22.4-3.028,23.319,3.923L94.679,87.4s5.218.056,8.884,2.341c0,0,5.108-4.013,9.614-3.857s6.727,4.433,6.727,4.433,7.2,3.22,7.869,6.637-2.41,3.1-2.41,3.1,1.105,2,.205,3.539c-1.342,2.288-4.249.587-4.249.587s2.035,2.4.892,4.4a2.917,2.917,0,0,1-5.013.238,6.256,6.256,0,0,0-3.867-2.584s-5.7,2.346-8.38,1.352-3.705-4.166-3.705-4.166-17.094,4.644-24.145.191-6.875-22.7-3.719-27.976" transform="translate(21.849 22.303)" fill="#ffd9ce"/>
        <path id="Trazado_881537" data-name="Trazado 881537" d="M78.305,84.8a23.146,23.146,0,0,1,3.589-1.027,26.163,26.163,0,0,1,3.637-.5,23.266,23.266,0,0,1,7.251.6.335.335,0,0,1-.131.656h-.009a22.3,22.3,0,0,0-6.975-.008,24.635,24.635,0,0,0-3.4.751,21.639,21.639,0,0,0-3.2,1.2l-.037.018a.925.925,0,0,1-.8-1.667l.071-.03" transform="translate(23.815 25.5)" fill="#efb3a5"/>
        <path id="Trazado_881538" data-name="Trazado 881538" d="M101.206,84.992a15.574,15.574,0,0,1,5.045-.15,12.739,12.739,0,0,1,2.454.558,11.771,11.771,0,0,1,2.288,1.043.26.26,0,0,1-.242.46l-.017-.009a11.193,11.193,0,0,0-2.217-.878,12.118,12.118,0,0,0-2.348-.41,14.74,14.74,0,0,0-4.71.371l-.033.008a.508.508,0,0,1-.246-.986l.025-.005" transform="translate(30.889 25.958)" fill="#efb3a5"/>
        <path id="Trazado_881539" data-name="Trazado 881539" d="M42.4,86.262s-2.831-14.84,5.8-19.36S68.343,70.4,68.953,86.262c.476,12.379-3.39,19.2-7.572,21.594s-23.167,2.126-35.3-3.7c0,0-19.4,5.533-17.627,1.8,0,0-3.829-.378-1.909-4.57,0,0,2.156-6.492,6.99-10.475,4.908-4.045,6.3-6.1,10.253-5.189,0,0,10.876-2.793,18.6.538" transform="translate(1.842 20.118)" fill="#ffd9ce"/>
        <path id="Trazado_881540" data-name="Trazado 881540" d="M34.655,81.89a20.605,20.605,0,0,1,7.587,8.8c.344.817,1.547.287,1.11-.468a24.163,24.163,0,0,0-8.382-8.866c-.348-.209-.645.316-.315.537" transform="translate(10.576 24.916)" fill="#efb3a5"/>
        <path id="Trazado_881541" data-name="Trazado 881541" d="M18.555,87.173a10.827,10.827,0,0,0,.3,5.3,11.191,11.191,0,0,0,1.075,2.389,7.072,7.072,0,0,0,1.717,2.15c.4.278.98-.282.685-.683a11.341,11.341,0,0,0-.824-.878,7.87,7.87,0,0,1-.751-.988,10.375,10.375,0,0,1-1.6-7.12c.056-.388-.525-.566-.6-.166" transform="translate(5.626 26.645)" fill="#efb3a5"/>
        <path id="Trazado_881542" data-name="Trazado 881542" d="M133.267,41.234c1.074,11.043,6.739,23.8-8.888,37.49s-39.711,9.9-51.852,1c-12.994-9.516-20.28-34.161-11.719-52.259S89-1.058,111.268,7.79c17.193,6.833,20.567,18.719,22,33.444" transform="translate(17.501 1.406)" fill="#ffd9ce"/>
        <path id="Trazado_881543" data-name="Trazado 881543" d="M56.36,51.126c-2.018-6.856-2.877-14.311-1-21.208,1.962-7.214,6.622-14.477,15.919-16.31,0,0,11.872-18.056,37.319-8.683s26.825,28.857,25.337,35.239c-11.207-13.9-16.716-18.254-16.716-18.254-14.946,17.876-41.028,2.021-41.028,2.021,3.825,7.969.746,20.447-6.122,25.906-.772.615-1.513,10.853-6.626,10.855-4.4,0-6.377-7.166-7.084-9.567" transform="translate(16.646 0.683)" fill="#274470"/>
        <path id="Trazado_881544" data-name="Trazado 881544" d="M68.533,13.924A20.76,20.76,0,0,1,73.5,5.206a13.784,13.784,0,0,1,8.626-4.02c.705-.052.722-1.13,0-1.113-7.516.176-12.8,6.807-14.4,13.629a.419.419,0,0,0,.807.222" transform="translate(20.751 0.022)" fill="#274470"/>
        <path id="Trazado_881545" data-name="Trazado 881545" d="M69.97,11.274a7.769,7.769,0,0,0-3.76-1.608,7.13,7.13,0,0,0-4.162.43.55.55,0,0,0,.276,1.018c.611-.031,1.206-.167,1.815-.216a8.723,8.723,0,0,1,1.781.035,7.4,7.4,0,0,1,3.328,1.279c.547.387,1.259-.52.724-.938" transform="translate(18.934 2.927)" fill="#274470"/>
        <g id="Grupo_1101945" data-name="Grupo 1101945" transform="translate(134.56 17.156)" opacity="0.5">
          <g id="Grupo_1101944" data-name="Grupo 1101944">
            <g id="Grupo_1101943" data-name="Grupo 1101943" clip-path="url(#clip-path-7)">
              <path id="Trazado_881546" data-name="Trazado 881546" d="M103.191,13.686a18.136,18.136,0,0,1,7.29,5.039A29.805,29.805,0,0,1,113.2,22.2c.857,1.267,2.113,2.761,2.077,4.356-.016.686,1.092.867,1.223.165.317-1.706-.99-3.3-1.919-4.609a32.2,32.2,0,0,0-3.18-3.866,18.741,18.741,0,0,0-8.061-5.1c-.349-.1-.487.423-.149.541" transform="translate(-102.997 -13.132)" fill="#87dbe9"/>
            </g>
          </g>
        </g>
        <g id="Grupo_1101948" data-name="Grupo 1101948" transform="translate(94.64 7.999)" opacity="0.5">
          <g id="Grupo_1101947" data-name="Grupo 1101947">
            <g id="Grupo_1101946" data-name="Grupo 1101946" clip-path="url(#clip-path-8)">
              <path id="Trazado_881547" data-name="Trazado 881547" d="M72.914,13.016A29.518,29.518,0,0,1,98.151,7.959a25.234,25.234,0,0,1,3.135,1.05c1.08.444,2.079,1.046,3.143,1.519.434.193,1.016-.379.562-.729a17.021,17.021,0,0,0-5.505-2.491,28.883,28.883,0,0,0-6.5-1.129A30.613,30.613,0,0,0,79.357,8.473a28.913,28.913,0,0,0-6.821,4.054c-.273.217.1.7.378.489" transform="translate(-72.441 -6.123)" fill="#87dbe9"/>
            </g>
          </g>
        </g>
        <g id="Grupo_1101951" data-name="Grupo 1101951" transform="translate(96.662 16.069)" opacity="0.5">
          <g id="Grupo_1101950" data-name="Grupo 1101950">
            <g id="Grupo_1101949" data-name="Grupo 1101949" clip-path="url(#clip-path-9)">
              <path id="Trazado_881548" data-name="Trazado 881548" d="M74.175,14.748a40.13,40.13,0,0,0,14.72,3.716,24.465,24.465,0,0,0,11.595-2.086,11.266,11.266,0,0,0,4.192-3.237c.4-.537-.443-1.12-.9-.692-7.7,7.231-20.353,5.483-29.249,1.684-.415-.178-.783.429-.361.617" transform="translate(-73.988 -12.299)" fill="#87dbe9"/>
            </g>
          </g>
        </g>
        <g id="Grupo_1101954" data-name="Grupo 1101954" transform="translate(80.371 18.4)" opacity="0.5">
          <g id="Grupo_1101953" data-name="Grupo 1101953">
            <g id="Grupo_1101952" data-name="Grupo 1101952" clip-path="url(#clip-path-10)">
              <path id="Trazado_881549" data-name="Trazado 881549" d="M65.841,14.772c4.532,6.233,4.775,15.309,1.125,21.982a21.54,21.54,0,0,1-2.275,3.368c-.934,1.131-2.045,2.081-3.009,3.179-.464.528.137,1.457.792,1.026a18.448,18.448,0,0,0,5.142-5.861,22.144,22.144,0,0,0,1.935-18.818,20.175,20.175,0,0,0-2.882-5.36c-.366-.483-1.194-.02-.828.485" transform="translate(-61.519 -14.084)" fill="#87dbe9"/>
            </g>
          </g>
        </g>
        <g id="Grupo_1101957" data-name="Grupo 1101957" transform="translate(74.57 22.341)" opacity="0.5">
          <g id="Grupo_1101956" data-name="Grupo 1101956">
            <g id="Grupo_1101955" data-name="Grupo 1101955" clip-path="url(#clip-path-11)">
              <path id="Trazado_881550" data-name="Trazado 881550" d="M63.374,17.245a26.585,26.585,0,0,0-5.342,8.62,20.855,20.855,0,0,0-.37,11.175c.145.631,1.233.51,1.152-.155-.439-3.615-.739-7.168.423-10.688a30.088,30.088,0,0,1,4.89-8.37c.324-.434-.4-.994-.754-.581" transform="translate(-57.078 -17.1)" fill="#87dbe9"/>
            </g>
          </g>
        </g>
        <path id="Trazado_881551" data-name="Trazado 881551" d="M68.764,62.853c4.173-2.634,3.189-19.244-6.1-23.482s-12.409,6.682-9.626,13.878,9.827,13.328,15.728,9.6" transform="translate(15.952 11.774)" fill="#ffd9ce"/>
        <g id="Grupo_1101960" data-name="Grupo 1101960" transform="translate(70.621 57.544)" opacity="0.3">
          <g id="Grupo_1101959" data-name="Grupo 1101959">
            <g id="Grupo_1101958" data-name="Grupo 1101958" clip-path="url(#clip-path-12)">
              <path id="Trazado_881552" data-name="Trazado 881552" d="M63.422,59.65c3.308-1.091,3.049-13-3.851-15.2-5.258-1.677-6.628,2.152-4.656,7.249s6.447,8.634,8.508,7.955" transform="translate(-54.055 -44.046)" fill="#d66563"/>
            </g>
          </g>
        </g>
        <path id="Trazado_881553" data-name="Trazado 881553" d="M63.863,57.863c1.871-2.831.948-6.356-.865-8.949-1.706-2.44-4.593-5.491-7.925-4.28-.994.361-.6,1.917.443,1.608,2.767-.814,4.941,1.478,6.374,3.56,1.508,2.19,2.541,5.068,1.12,7.562a.494.494,0,0,0,.853.5" transform="translate(16.701 13.594)" fill="#d66563"/>
        <path id="Trazado_881554" data-name="Trazado 881554" d="M59.689,54.077a2.743,2.743,0,0,1-.17-1.242,2.558,2.558,0,0,1,.367-1.083c.024-.038.047-.074.072-.112.008-.012.106-.153.063-.091-.033.041-.02.024.04-.054l.074-.1c.047-.057-.046.05.037-.041a4.342,4.342,0,0,1,.429-.421c-.089.074.025-.018.043-.031.046-.033.091-.063.138-.093.084-.054.17-.1.259-.15l.119-.059c.068-.033-.072.024.047-.02.1-.038.208-.073.315-.1a.7.7,0,1,0-.374-1.355,3.885,3.885,0,0,0-2.455,1.966,4,4,0,0,0-.027,3.415c.261.572,1.241.165,1.023-.431" transform="translate(17.865 15.047)" fill="#d66563"/>
        <g id="Grupo_1101963" data-name="Grupo 1101963" transform="translate(114.935 53.774)" opacity="0.3">
          <g id="Grupo_1101962" data-name="Grupo 1101962">
            <g id="Grupo_1101961" data-name="Grupo 1101961" clip-path="url(#clip-path-13)">
              <path id="Trazado_881555" data-name="Trazado 881555" d="M95.376,41.989c-2.6-1.68-6.914-.951-7.374,3.533a4.432,4.432,0,0,0,7.089,4.111c2.979-2.289,2.375-6.294.285-7.644" transform="translate(-87.975 -41.161)" fill="#d66563"/>
            </g>
          </g>
        </g>
        <g id="Grupo_1101966" data-name="Grupo 1101966" transform="translate(90.99 67.107)" opacity="0.3">
          <g id="Grupo_1101965" data-name="Grupo 1101965">
            <g id="Grupo_1101964" data-name="Grupo 1101964" clip-path="url(#clip-path-14)">
              <path id="Trazado_881556" data-name="Trazado 881556" d="M69.706,55.794c-.525,3.06,2.54,6.1,6.844,6.795S84.772,61.363,85.3,58.3s-2.54-6.1-6.844-6.8-8.22,1.227-8.745,4.286" transform="translate(-69.647 -51.366)" fill="#d66563"/>
            </g>
          </g>
        </g>
        <g id="Grupo_1101969" data-name="Grupo 1101969" transform="translate(133.774 59.338)" opacity="0.3">
          <g id="Grupo_1101968" data-name="Grupo 1101968">
            <g id="Grupo_1101967" data-name="Grupo 1101967" clip-path="url(#clip-path-15)">
              <path id="Trazado_881557" data-name="Trazado 881557" d="M102.634,54.231c1.048,2.9,5.226,3.97,9.332,2.4s6.587-5.192,5.539-8.088-5.226-3.97-9.332-2.4-6.587,5.192-5.539,8.088" transform="translate(-102.395 -45.419)" fill="#d66563"/>
            </g>
          </g>
        </g>
        <g id="Grupo_1101972" data-name="Grupo 1101972" transform="translate(118.526 55.199)" opacity="0.5">
          <g id="Grupo_1101971" data-name="Grupo 1101971">
            <g id="Grupo_1101970" data-name="Grupo 1101970" clip-path="url(#clip-path-16)">
              <path id="Trazado_881558" data-name="Trazado 881558" d="M91.876,45.079c1.011.6,2.885.359,2.48-1.25a1.927,1.927,0,0,0-3.135-1.116c-1.093.912-.155,1.888.656,2.366" transform="translate(-90.724 -42.251)" fill="#fff"/>
            </g>
          </g>
        </g>
        <path id="Trazado_881559" data-name="Trazado 881559" d="M91.18,47.29a1.334,1.334,0,0,0-.883-.682,1.514,1.514,0,0,0-1.148.189l.549-.072-.034-.01a.584.584,0,0,0-.307-.013.57.57,0,0,0-.287.091l-.157.12a.777.777,0,0,0-.2.341.3.3,0,0,0-.018.061.94.94,0,0,0,0,.4.739.739,0,0,0,.268.387.376.376,0,0,0,.163.1.37.37,0,0,0,.188.051.393.393,0,0,0,.2,0,.555.555,0,0,0,.276-.089c.021-.009.039-.02.059-.029L90,48.006a.573.573,0,0,0,.159-.248.38.38,0,0,0,.054-.195.589.589,0,0,0-.014-.308l-.007-.031-.184.694a.651.651,0,0,1,.071-.064l-.142.11a.814.814,0,0,1,.12-.064c-.056.024-.111.047-.167.069a.8.8,0,0,1,.2-.052l-.183.024a.893.893,0,0,1,.221,0l-.18-.025a.851.851,0,0,1,.2.055l-.159-.068a.8.8,0,0,1,.152.089l-.133-.1a.668.668,0,0,1,.1.106l-.1-.132a.662.662,0,0,1,.052.081.647.647,0,0,0,.886.233.654.654,0,0,0,.3-.387l.024-.172a.652.652,0,0,0-.089-.327" transform="translate(27.174 14.271)" fill="#d66563"/>
        <path id="Trazado_881560" data-name="Trazado 881560" d="M90.948,41.115a5.351,5.351,0,0,1,5.181,3.632,4.392,4.392,0,0,1-2.205,5.1c-.529.269-1.194.4-1.37,1.063-.21.788.541,1.237,1.225,1.2a4.729,4.729,0,0,0,2.93-1.807,6.032,6.032,0,0,0,.617-6.672,6.3,6.3,0,0,0-6.378-3.273c-.474.048-.5.759,0,.758" transform="translate(27.759 12.356)" fill="#d66563"/>
        <path id="Trazado_881561" data-name="Trazado 881561" d="M75.662,34.539a7.567,7.567,0,0,1,4-1.6c1.536-.146,2.806.606,4.283.662a.649.649,0,0,0,.568-.851c-.779-1.834-3.392-2.55-5.226-2.49a6.154,6.154,0,0,0-2.856.813c-1.169.683-1.376,1.54-2.047,2.6-.482.76.7,1.495,1.28.867" transform="translate(22.76 9.273)" fill="#274470"/>
        <path id="Trazado_881562" data-name="Trazado 881562" d="M100.43,32.719a7.567,7.567,0,0,1,4-1.6c1.536-.146,2.806.606,4.283.662a.649.649,0,0,0,.568-.85c-.779-1.834-3.392-2.55-5.226-2.49a6.154,6.154,0,0,0-2.856.813c-1.169.683-1.376,1.54-2.047,2.6-.482.76.7,1.495,1.28.867" transform="translate(30.35 8.715)" fill="#274470"/>
        <path id="Trazado_881563" data-name="Trazado 881563" d="M82.918,44.465C83.3,46.724,82.16,48.8,80.37,49.1s-3.551-1.282-3.934-3.54.758-4.336,2.548-4.639,3.551,1.282,3.934,3.54" transform="translate(23.401 12.53)" fill="#274470"/>
        <path id="Trazado_881564" data-name="Trazado 881564" d="M109.758,41.048c.383,2.259-.758,4.336-2.548,4.639s-3.551-1.282-3.934-3.54.758-4.336,2.548-4.639,3.551,1.282,3.934,3.54" transform="translate(31.626 11.483)" fill="#274470"/>
        <path id="Trazado_881565" data-name="Trazado 881565" d="M88.808,50.378c4.565-.54,4.731,2.545,7.311,2.208s2.967-3.4,6.877-4.062c3.388-.574,8.108,4.4,8.551,8.975s-2.736,9.92-4.9,10.471c-3.607.921-5.73-.651-7.58-.674s-3.539,2.429-5.79,2.885c-3.368.685-8.83-1.734-9.906-9.663-.856-6.309,3.407-9.9,5.435-10.141" transform="translate(25.515 14.856)" fill="#609fc6"/>
        <path id="Trazado_881566" data-name="Trazado 881566" d="M88.808,49.378c4.565-.54,4.731,2.545,7.311,2.208s2.967-3.4,6.877-4.062c3.388-.574,8.108,4.4,8.551,8.975s-2.728,9.956-4.9,10.471-5.73-.651-7.58-.674-3.5,2.664-5.79,2.885-8.83-1.734-9.906-9.663c-.856-6.309,3.407-9.9,5.435-10.141" transform="translate(25.515 14.55)" fill="#87dbe9"/>
        <path id="Trazado_881567" data-name="Trazado 881567" d="M101.824,60.235a6.037,6.037,0,1,1-5.478-6.548,6.036,6.036,0,0,1,5.478,6.548" transform="translate(27.511 16.445)" fill="#fff"/>
        <path id="Trazado_881568" data-name="Trazado 881568" d="M96.8,73.577c-.2,0-.406-.009-.613-.027a6.845,6.845,0,1,1,.613.027m-.008-10.729a3.884,3.884,0,1,0,.346.016c-.115-.01-.231-.016-.346-.016" transform="translate(27.564 18.35)" fill="#fff"/>
      </g>
    </g>
  </g>
</svg>
