<svg xmlns="http://www.w3.org/2000/svg" width="98.21" height="64.542" viewBox="0 0 98.21 64.542">
  <g id="img-29" transform="translate(-2891.345 -12105.895)">
    <g id="un-pan" transform="translate(2891.344 12018.133)">
      <path id="Trazado_882002" data-name="Trazado 882002" d="M92.427,126.631a1.439,1.439,0,1,0-1.861,2.194c3.114,2.641,4.762,5.6,4.766,8.548a6.931,6.931,0,0,1-2.172,5.12c-2.448,2.448-7,4.272-13.54,5.421a131.282,131.282,0,0,1-22.472,1.513c-14.29-.019-24.371-1.256-30.678-3.77q3.644-2.593,7.816-6.238a5.121,5.121,0,0,0,9.033-2.82,30.563,30.563,0,0,0,.014-5.682q3.788-3.779,6.851-7.153a19.42,19.42,0,0,1,2.624,11.849,5.185,5.185,0,0,0,4.621,5.651,5.126,5.126,0,0,0,5.6-4.638,29.736,29.736,0,0,0-3.483-17.174,77.325,77.325,0,0,1,8.073.668,20.71,20.71,0,0,1,4.4,9.859,19.734,19.734,0,0,1,.006,5.648A5.136,5.136,0,1,0,82.192,137.1a30.141,30.141,0,0,0-.016-8.623,29.538,29.538,0,0,0-1.209-5.046,42.931,42.931,0,0,1,4.079,1.8,1.439,1.439,0,0,0,1.3-2.564c-7.906-4.024-18.836-6.241-30.069-6.136q1.161-1.5,2.164-2.934c4.214-6.011,6.262-10.937,6.262-15.059a9.805,9.805,0,0,0-2.93-7.194c-4.068-4.057-10.955-4.7-19.392-1.8-8.093,2.778-16.763,8.509-24.414,16.139C6.886,116.743,0,129.723,0,139.564c0,4.081,1.242,7.477,3.593,9.821a9.777,9.777,0,0,0,7.175,2.916q4.489,0,10.4-3.267,1.209-.67,2.483-1.478c6.561,3.171,17.535,4.725,33.5,4.746a138.528,138.528,0,0,0,22.974-1.556c7.23-1.271,12.162-3.305,15.076-6.22a9.8,9.8,0,0,0,3.014-7.158c-.005-3.821-2-7.534-5.782-10.738Zm-15-4.409a26.933,26.933,0,0,1,1.9,6.677,27.258,27.258,0,0,1,.013,7.8,2.248,2.248,0,0,1-2.547,1.932,2.3,2.3,0,0,1-1.921-2.6,22.606,22.606,0,0,0-.009-6.471,22.845,22.845,0,0,0-3.267-8.776C73.619,121.179,75.568,121.66,77.427,122.222Zm-36.97,14.1a2.245,2.245,0,0,1-4.019,1.179q2.009-1.824,4.144-3.885C40.584,134.518,40.543,135.422,40.457,136.322ZM59.8,128.555a27.255,27.255,0,0,1,.362,7.794,2.255,2.255,0,0,1-2.457,2.049,2.3,2.3,0,0,1-2.035-2.514,22.356,22.356,0,0,0-3.489-14.371q.9-1.039,1.742-2.043c.754-.029,1.514-.049,2.279-.057A27.285,27.285,0,0,1,59.8,128.555ZM36.378,95.338a26.932,26.932,0,0,1,6.062,3.373,27.272,27.272,0,0,1,5.525,5.507,2.245,2.245,0,0,1-.262,3.025,2.3,2.3,0,0,1-3.372-.34,22.609,22.609,0,0,0-4.582-4.569,22.845,22.845,0,0,0-8.511-3.895c1.71-1.146,3.428-2.183,5.14-3.1ZM8.15,123.068a26.919,26.919,0,0,1,6.283,3.126,27.28,27.28,0,0,1,5.767,5.254,2.248,2.248,0,0,1-.124,3.037,2.3,2.3,0,0,1-3.38-.188,22.627,22.627,0,0,0-4.783-4.36,22.4,22.4,0,0,0-5.852-2.8q.923-2.014,2.089-4.072Zm11.623,23.45c-6.481,3.589-11.109,3.861-14.148.83-1.823-1.818-2.748-4.437-2.748-7.784a27.921,27.921,0,0,1,2.065-9.759,19.6,19.6,0,0,1,5.361,2.516,19.747,19.747,0,0,1,4.174,3.807,5.191,5.191,0,0,0,7.632.394,5.113,5.113,0,0,0,.312-6.905,30.152,30.152,0,0,0-6.376-5.807,29.724,29.724,0,0,0-6.385-3.255c1.179-1.867,2.493-3.737,3.93-5.583A21.213,21.213,0,0,1,24.259,118.4a19.735,19.735,0,0,1,4.174,3.806,5.136,5.136,0,1,0,7.944-6.511,30.549,30.549,0,0,0-3.761-3.821,1.439,1.439,0,1,0-1.864,2.192,27.65,27.65,0,0,1,3.405,3.46,2.253,2.253,0,0,1-.29,3.186,2.3,2.3,0,0,1-3.215-.338,22.619,22.619,0,0,0-4.783-4.359,23.462,23.462,0,0,0-10.091-3.729q1.712-2,3.6-3.934a27.882,27.882,0,0,1,6.066,2.2,1.439,1.439,0,1,0,1.292-2.571,30.425,30.425,0,0,0-4.972-1.962,77.27,77.27,0,0,1,6.186-5.237,20.711,20.711,0,0,1,10.079,3.86,19.748,19.748,0,0,1,4,3.989,5.2,5.2,0,0,0,7.607.738,5.11,5.11,0,0,0,.625-6.883A30.141,30.141,0,0,0,44.155,96.4a29.552,29.552,0,0,0-4.422-2.712q1.809-.806,3.587-1.418a27.011,27.011,0,0,1,8.627-1.639c3.3,0,5.962.923,7.8,2.756a6.933,6.933,0,0,1,2.085,5.156c0,3.462-1.931,7.973-5.741,13.407a73.455,73.455,0,0,1-6.755,8.448c-8.572,8.92-18.955,20.245-29.562,26.119Z" transform="translate(0)" fill="#567d56"/>
    </g>
  </g>
</svg>
