<svg xmlns="http://www.w3.org/2000/svg" width="58" height="58" viewBox="0 0 58 58">
  <g id="img-11" transform="translate(-2541 -5266)">
    <circle id="Elipse_11666" data-name="Elipse 11666" cx="29" cy="29" r="29" transform="translate(2541 5266)" fill="#87de87"/>
    <g id="rodaja-de-naranja" transform="translate(2546.969 5275)">
      <path id="Trazado_878815" data-name="Trazado 878815" d="M46.164,17.25l-.614,1.194a12.869,12.869,0,0,1,7.062,10.3l1.365-.136A14.254,14.254,0,0,0,46.164,17.25Z" transform="translate(-15.834 -7.526)" fill="#567d56"/>
      <path id="Trazado_878816" data-name="Trazado 878816" d="M56,36h1.365v1.365H56Z" transform="translate(-19.153 -13.482)" fill="#567d56"/>
      <path id="Trazado_878817" data-name="Trazado 878817" d="M26.565,8.459V3H25.2V6.412l-5.588.061A12.282,12.282,0,0,0,8.448,13.679l-2.3,5.459a.651.651,0,0,0,.628.921H9.745A16.7,16.7,0,0,0,8.9,24.153H2.682A.682.682,0,0,0,2,24.835v.682A17.059,17.059,0,0,0,22.471,42.228a16.431,16.431,0,0,0,3.412.348,17.062,17.062,0,0,0,.682-34.118Zm-1.365,4a3.992,3.992,0,0,1-.764-.212l.764-1.788ZM9.7,14.2a10.918,10.918,0,0,1,9.921-6.36l5.22-.068-1.89,4.476a10.918,10.918,0,0,1-9.921,6.373l-5.22.068Zm22.32,11.313a12.849,12.849,0,0,1-3.337,8.659l-7.581-7.56a2.654,2.654,0,0,0,.594-1.1ZM18.144,27.4l.232.075V38.482a12.849,12.849,0,0,1-7.977-3.3Zm1.6.075.232-.075,7.745,7.745a12.849,12.849,0,0,1-7.977,3.337Zm0-1.474a1.365,1.365,0,0,1-1.419,0,1.3,1.3,0,0,1-.464-.478h2.361a1.3,1.3,0,0,1-.478.478Zm-3.323-.484a2.654,2.654,0,0,0,.594,1.1l-7.581,7.56a12.849,12.849,0,0,1-3.337-8.659Zm-8.454,11.1a15.592,15.592,0,0,1-4.6-11.1H4.729a14.329,14.329,0,1,0,28.659,0h1.365a15.694,15.694,0,0,1-26.789,11.1Zm17.919,4.6H25.76A17.059,17.059,0,0,0,36.118,25.518v-.682a.682.682,0,0,0-.682-.682H10.263a15.408,15.408,0,0,1,.942-4.142h1.842a12.364,12.364,0,0,0,10.829-6.476,5.315,5.315,0,0,0,2.006.382A5.848,5.848,0,0,0,29.465,12.6l.246-.191-.832-1.078-.246.191a4.886,4.886,0,0,1-2.047.955V9.824A15.7,15.7,0,0,1,25.9,41.212Z" transform="translate(-2 -3)" fill="#567d56"/>
    </g>
  </g>
</svg>
