<svg xmlns="http://www.w3.org/2000/svg" xmlns:xlink="http://www.w3.org/1999/xlink" width="359" height="169" viewBox="0 0 359 169">
  <defs>
    <linearGradient id="linear-gradient" x1="-0.046" y1="0.573" x2="1.133" y2="0.5" gradientUnits="objectBoundingBox">
      <stop offset="0" stop-color="#ac9afc"/>
      <stop offset="0.126" stop-color="#a896f5"/>
      <stop offset="1" stop-color="#554c7d"/>
    </linearGradient>
  </defs>
  <g id="img-28" transform="translate(11609.051 -2580.549)">
    <g id="Grupo_1102474" data-name="Grupo 1102474">
      <path id="Trazado_885381" data-name="Trazado 885381" d="M20,0H339a20,20,0,0,1,20,20V149a20,20,0,0,1-20,20H20A20,20,0,0,1,0,149V20A20,20,0,0,1,20,0Z" transform="translate(-11609.051 2580.549)" fill="url(#linear-gradient)"/>
      <path id="Trazado_885382" data-name="Trazado 885382" d="M20,0H320a20,20,0,0,1,20,20V129a20,20,0,0,1-20,20H20A20,20,0,0,1,0,129V20A20,20,0,0,1,20,0Z" transform="translate(-11599.051 2590.549)" fill="#fff"/>
      <g id="Grupo_1101573" data-name="Grupo 1101573" transform="translate(-11545.051 2632.273)">
        <path id="Trazado_885383" data-name="Trazado 885383" d="M3.173,11.99V17H1.485V4.2h4.72A4.742,4.742,0,0,1,9.5,5.275a3.635,3.635,0,0,1,1.191,2.839,3.587,3.587,0,0,1-1.165,2.87A4.954,4.954,0,0,1,6.188,11.99Zm0-1.38H6.205a3.032,3.032,0,0,0,2.074-.638A2.334,2.334,0,0,0,9,8.127,2.411,2.411,0,0,0,8.279,6.3,2.84,2.84,0,0,0,6.3,5.583H3.173Zm13.245,6.565a4.155,4.155,0,0,1-3.146-1.27,4.714,4.714,0,0,1-1.213-3.4v-.3A5.707,5.707,0,0,1,12.6,9.683a4.217,4.217,0,0,1,1.512-1.74,3.8,3.8,0,0,1,2.1-.628A3.562,3.562,0,0,1,19.1,8.536a5.289,5.289,0,0,1,1.028,3.5v.677H13.685a3.38,3.38,0,0,0,.822,2.272,2.583,2.583,0,0,0,2,.866,2.832,2.832,0,0,0,1.459-.352,3.666,3.666,0,0,0,1.046-.932l.993.773A3.993,3.993,0,0,1,16.418,17.176Zm-.2-8.525a2.169,2.169,0,0,0-1.652.716,3.482,3.482,0,0,0-.826,2.008H18.5v-.123a3.1,3.1,0,0,0-.668-1.92A2.042,2.042,0,0,0,16.216,8.65Zm11.329,5.827a1.2,1.2,0,0,0-.5-1.024,4.78,4.78,0,0,0-1.731-.628,8.186,8.186,0,0,1-1.96-.633,2.788,2.788,0,0,1-1.072-.879,2.1,2.1,0,0,1-.347-1.213,2.467,2.467,0,0,1,.989-1.978,3.861,3.861,0,0,1,2.527-.809,3.974,3.974,0,0,1,2.624.835,2.652,2.652,0,0,1,1.006,2.136H27.448a1.468,1.468,0,0,0-.567-1.151,2.124,2.124,0,0,0-1.428-.483,2.223,2.223,0,0,0-1.389.387,1.217,1.217,0,0,0-.5,1.011.986.986,0,0,0,.466.888,5.731,5.731,0,0,0,1.683.571,8.77,8.77,0,0,1,1.973.65,2.878,2.878,0,0,1,1.121.91,2.237,2.237,0,0,1,.365,1.3,2.434,2.434,0,0,1-1.02,2.043,4.277,4.277,0,0,1-2.646.769,4.789,4.789,0,0,1-2.021-.4,3.288,3.288,0,0,1-1.375-1.129,2.722,2.722,0,0,1-.5-1.569h1.626a1.683,1.683,0,0,0,.655,1.3,2.54,2.54,0,0,0,1.613.479,2.622,2.622,0,0,0,1.481-.374A1.148,1.148,0,0,0,27.545,14.478Zm3.313-2.32a5.617,5.617,0,0,1,.549-2.514,4.1,4.1,0,0,1,1.529-1.723,4.163,4.163,0,0,1,2.237-.606,4.01,4.01,0,0,1,3.142,1.345,5.174,5.174,0,0,1,1.2,3.577v.114a5.666,5.666,0,0,1-.532,2.492,4.038,4.038,0,0,1-1.521,1.718,4.211,4.211,0,0,1-2.272.615,4,4,0,0,1-3.133-1.345,5.147,5.147,0,0,1-1.2-3.56Zm1.635.193a4.068,4.068,0,0,0,.734,2.54,2.487,2.487,0,0,0,3.933-.013,4.449,4.449,0,0,0,.729-2.72,4.061,4.061,0,0,0-.743-2.536,2.361,2.361,0,0,0-1.973-.971,2.335,2.335,0,0,0-1.942.958A4.416,4.416,0,0,0,32.493,12.351ZM45.9,11.8a13.488,13.488,0,0,1,.536-3.832,10.112,10.112,0,0,1,1.582-3.221A5.907,5.907,0,0,1,50.282,2.8l.492,1.371a6.118,6.118,0,0,0-2,2.936,13.592,13.592,0,0,0-.721,4.641v.272a13.852,13.852,0,0,0,.712,4.658,6.237,6.237,0,0,0,2.013,2.979L50.282,21A5.91,5.91,0,0,1,48.054,19.1a9.943,9.943,0,0,1-1.578-3.133,13.408,13.408,0,0,1-.58-3.709Zm10.38.07-1.371,1.477V17H52.269V4.2h2.637V10l1.16-1.591L59.326,4.2h3.243L58.025,9.89,62.7,17H59.563Zm6.653.308A5.573,5.573,0,0,1,63.971,8.65a3.375,3.375,0,0,1,2.808-1.336,2.96,2.96,0,0,1,2.435,1.072l.105-.9h2.3v9.193a4.064,4.064,0,0,1-.567,2.171,3.641,3.641,0,0,1-1.6,1.406,5.608,5.608,0,0,1-2.408.483,5.215,5.215,0,0,1-2.039-.417,3.619,3.619,0,0,1-1.5-1.077L64.635,17.7a2.975,2.975,0,0,0,2.3,1.063,2.178,2.178,0,0,0,1.573-.541,2.027,2.027,0,0,0,.563-1.534v-.51a2.938,2.938,0,0,1-2.312.993,3.366,3.366,0,0,1-2.773-1.34A5.572,5.572,0,0,1,62.93,12.28Zm2.54.189a3.47,3.47,0,0,0,.519,2.029,1.65,1.65,0,0,0,1.424.735,1.764,1.764,0,0,0,1.661-.871V10.251A1.76,1.76,0,0,0,67.43,9.38a1.66,1.66,0,0,0-1.437.748A3.911,3.911,0,0,0,65.47,12.364ZM77.95,12a12.8,12.8,0,0,1-.571,3.823,10.378,10.378,0,0,1-1.644,3.243A5.921,5.921,0,0,1,73.441,21l-.492-1.345a6.18,6.18,0,0,0,1.969-2.9,13.431,13.431,0,0,0,.747-4.509v-.466a13.735,13.735,0,0,0-.716-4.632,6.442,6.442,0,0,0-2-3.006L73.441,2.8A5.923,5.923,0,0,1,75.7,4.678a10.244,10.244,0,0,1,1.644,3.173A12.708,12.708,0,0,1,77.95,11.6Z" transform="translate(113.065)" fill="#12263f"/>
        <path id="Trazado_885384" data-name="Trazado 885384" d="M8.719,11.085H3.173V15.62H9.615V17H1.485V4.2H9.527v1.38H3.173V9.705H8.719ZM17,14.478a1.2,1.2,0,0,0-.5-1.024,4.78,4.78,0,0,0-1.731-.628,8.186,8.186,0,0,1-1.96-.633,2.788,2.788,0,0,1-1.072-.879,2.1,2.1,0,0,1-.347-1.213,2.467,2.467,0,0,1,.989-1.978,3.861,3.861,0,0,1,2.527-.809,3.974,3.974,0,0,1,2.624.835,2.652,2.652,0,0,1,1.006,2.136H16.9a1.468,1.468,0,0,0-.567-1.151,2.124,2.124,0,0,0-1.428-.483,2.223,2.223,0,0,0-1.389.387,1.217,1.217,0,0,0-.5,1.011.986.986,0,0,0,.466.888,5.731,5.731,0,0,0,1.683.571,8.77,8.77,0,0,1,1.973.65,2.878,2.878,0,0,1,1.121.91,2.237,2.237,0,0,1,.365,1.3,2.434,2.434,0,0,1-1.02,2.043,4.277,4.277,0,0,1-2.646.769,4.789,4.789,0,0,1-2.021-.4,3.288,3.288,0,0,1-1.375-1.129,2.722,2.722,0,0,1-.5-1.569h1.626a1.683,1.683,0,0,0,.655,1.3,2.54,2.54,0,0,0,1.613.479,2.622,2.622,0,0,0,1.481-.374A1.148,1.148,0,0,0,17,14.478Zm5.95-9.29v2.3h1.775V8.747H22.948v5.9a1.32,1.32,0,0,0,.237.858,1,1,0,0,0,.809.286,3.937,3.937,0,0,0,.773-.105V17a4.742,4.742,0,0,1-1.248.175,2.025,2.025,0,0,1-1.644-.659,2.832,2.832,0,0,1-.554-1.872v-5.9H19.591V7.49h1.731v-2.3ZM32.493,17a3.416,3.416,0,0,1-.229-1,3.628,3.628,0,0,1-2.707,1.178,3.357,3.357,0,0,1-2.307-.8,2.573,2.573,0,0,1-.9-2.017,2.688,2.688,0,0,1,1.129-2.307,5.325,5.325,0,0,1,3.177-.822h1.582v-.747a1.826,1.826,0,0,0-.51-1.358,2.049,2.049,0,0,0-1.5-.505,2.371,2.371,0,0,0-1.459.439,1.3,1.3,0,0,0-.589,1.063H26.543a2.244,2.244,0,0,1,.505-1.375A3.449,3.449,0,0,1,28.419,7.7a4.613,4.613,0,0,1,1.9-.387,3.759,3.759,0,0,1,2.575.822,2.964,2.964,0,0,1,.967,2.263v4.377a5.351,5.351,0,0,0,.334,2.083V17Zm-2.7-1.239a2.858,2.858,0,0,0,1.45-.4,2.392,2.392,0,0,0,.993-1.028V12.386H30.964q-2.988,0-2.988,1.749a1.48,1.48,0,0,0,.51,1.2A1.959,1.959,0,0,0,29.795,15.761ZM38.619,5.188v2.3h1.775V8.747H38.619v5.9a1.32,1.32,0,0,0,.237.858,1,1,0,0,0,.809.286,3.937,3.937,0,0,0,.773-.105V17a4.742,4.742,0,0,1-1.248.175,2.025,2.025,0,0,1-1.644-.659,2.832,2.832,0,0,1-.554-1.872v-5.9H35.262V7.49h1.731v-2.3ZM48.164,16.06a3.454,3.454,0,0,1-2.786,1.116,2.956,2.956,0,0,1-2.316-.883,3.823,3.823,0,0,1-.8-2.615V7.49h1.626v6.144q0,2.162,1.758,2.162a2.434,2.434,0,0,0,2.479-1.389V7.49h1.626V17H48.2Zm8.648-7.11a4.873,4.873,0,0,0-.8-.062,2.143,2.143,0,0,0-2.171,1.362V17H52.216V7.49H53.8l.026,1.1a2.532,2.532,0,0,1,2.268-1.274,1.661,1.661,0,0,1,.721.123ZM63.826,17a3.416,3.416,0,0,1-.229-1,3.628,3.628,0,0,1-2.707,1.178,3.357,3.357,0,0,1-2.307-.8,2.573,2.573,0,0,1-.9-2.017,2.688,2.688,0,0,1,1.129-2.307,5.325,5.325,0,0,1,3.177-.822h1.582v-.747a1.826,1.826,0,0,0-.51-1.358,2.049,2.049,0,0,0-1.5-.505,2.371,2.371,0,0,0-1.459.439,1.3,1.3,0,0,0-.589,1.063H57.876a2.244,2.244,0,0,1,.505-1.375A3.449,3.449,0,0,1,59.752,7.7a4.613,4.613,0,0,1,1.9-.387,3.759,3.759,0,0,1,2.575.822A2.964,2.964,0,0,1,65.2,10.4v4.377a5.351,5.351,0,0,0,.334,2.083V17Zm-2.7-1.239a2.858,2.858,0,0,0,1.45-.4,2.392,2.392,0,0,0,.993-1.028V12.386H62.3q-2.988,0-2.988,1.749a1.48,1.48,0,0,0,.51,1.2A1.959,1.959,0,0,0,61.128,15.761ZM72.027,11H67.136v-.682L69.72,7.447a6.139,6.139,0,0,0,.792-1.059,1.767,1.767,0,0,0,.218-.843,1.339,1.339,0,0,0-.354-.959,1.237,1.237,0,0,0-.943-.374,1.465,1.465,0,0,0-1.1.4,1.537,1.537,0,0,0-.392,1.12h-.948a2.2,2.2,0,0,1,.664-1.666,2.461,2.461,0,0,1,1.776-.636,2.365,2.365,0,0,1,1.646.546,1.862,1.862,0,0,1,.6,1.453,4.27,4.27,0,0,1-1.4,2.625l-2,2.169h3.748Zm5.93.8a13.488,13.488,0,0,1,.536-3.832,10.112,10.112,0,0,1,1.582-3.221A5.907,5.907,0,0,1,82.343,2.8l.492,1.371a6.118,6.118,0,0,0-2,2.936,13.592,13.592,0,0,0-.721,4.641v.272a13.852,13.852,0,0,0,.712,4.658,6.237,6.237,0,0,0,2.013,2.979L82.343,21A5.91,5.91,0,0,1,80.115,19.1a9.943,9.943,0,0,1-1.578-3.133,13.408,13.408,0,0,1-.58-3.709ZM86.544,7.49l.079,1.063a3.342,3.342,0,0,1,2.733-1.239,2.536,2.536,0,0,1,2.522,1.45,3.265,3.265,0,0,1,2.856-1.45,2.836,2.836,0,0,1,2.3.9,4.141,4.141,0,0,1,.756,2.711V17H95.245V10.936a1.811,1.811,0,0,0-.316-1.182,1.4,1.4,0,0,0-1.116-.374,1.585,1.585,0,0,0-1.582,1.09L92.239,17H89.7V10.944a1.789,1.789,0,0,0-.325-1.2,1.416,1.416,0,0,0-1.107-.369,1.646,1.646,0,0,0-1.564.9V17h-2.54V7.49ZM104.122,12a12.8,12.8,0,0,1-.571,3.823,10.378,10.378,0,0,1-1.644,3.243A5.921,5.921,0,0,1,99.613,21l-.492-1.345a6.18,6.18,0,0,0,1.969-2.9,13.431,13.431,0,0,0,.747-4.509v-.466a13.735,13.735,0,0,0-.716-4.632,6.442,6.442,0,0,0-2-3.006L99.613,2.8a5.923,5.923,0,0,1,2.254,1.881,10.244,10.244,0,0,1,1.644,3.173,12.708,12.708,0,0,1,.611,3.753Z" transform="translate(97.604 41.883)" fill="#12263f"/>
        <path id="Trazado_885385" data-name="Trazado 885385" d="M12.134,24H7.861V6.227h4.272ZM20.74,6.227l3.967,12.366L28.662,6.227H34.3V24H30V19.85l.415-8.5L26.123,24H23.291L18.982,11.341,19.4,19.85V24H15.112V6.227ZM51.4,17.982a6.491,6.491,0,0,1-1,3.278,6.041,6.041,0,0,1-2.57,2.2,8.746,8.746,0,0,1-3.778.781,6.979,6.979,0,0,1-5.518-2.283,9.425,9.425,0,0,1-2.014-6.445v-.879a10.758,10.758,0,0,1,.909-4.572,6.891,6.891,0,0,1,2.618-3.027A7.306,7.306,0,0,1,44.006,5.97a7.661,7.661,0,0,1,5.2,1.7,6.728,6.728,0,0,1,2.234,4.694H47.168a3.183,3.183,0,0,0-.818-2.332,3.364,3.364,0,0,0-2.344-.708,2.559,2.559,0,0,0-2.344,1.2,7.689,7.689,0,0,0-.781,3.821V15.6a8.508,8.508,0,0,0,.714,4.065,2.613,2.613,0,0,0,2.46,1.221,3.29,3.29,0,0,0,2.258-.7,2.953,2.953,0,0,0,.83-2.209Zm13.55-2.8H53.65V12.013h11.3Zm0,5.359H53.65V17.372h11.3Z" transform="translate(0 20.706)" fill="#ac9afc"/>
        <path id="Trazado_879554" data-name="Trazado 879554" d="M-7752.5-2251.168h141.444" transform="translate(7841.959 2285.813)" fill="none" stroke="#ac9afc" stroke-width="2"/>
      </g>
    </g>
  </g>
</svg>
