<svg xmlns="http://www.w3.org/2000/svg" width="58" height="58" viewBox="0 0 58 58">
  <g id="img-7" transform="translate(12000 3644.333)">
    <circle id="Elipse_11666" data-name="Elipse 11666" cx="29" cy="29" r="29" transform="translate(-12000 -3644.333)" fill="#ac9afc"/>
    <g id="cancer" transform="translate(-11993.773 -3669.262)">
      <g id="Page-1_25_" transform="translate(0 33.679)">
        <g id="_x30_26---Cancer-" transform="translate(0 0)">
          <path id="Shape_176_" d="M44.27,51.87a2.277,2.277,0,0,0-2.137,1.518H40.456a16.7,16.7,0,0,0-7.685-13.3l.845-1.465a2.267,2.267,0,1,0-1.318-.753l-.841,1.456a16.635,16.635,0,0,0-15.358,0l-.841-1.456a2.5,2.5,0,1,0-1.318.753l.845,1.465A16.7,16.7,0,0,0,7.1,53.388H5.424a2.277,2.277,0,1,0,0,1.518H7.1a16.7,16.7,0,0,0,7.685,13.3l-.842,1.459a2.277,2.277,0,1,0,1.314.759l.841-1.456a16.635,16.635,0,0,0,15.358,0l.841,1.456a2.277,2.277,0,1,0,1.314-.759L32.771,68.2a16.7,16.7,0,0,0,7.685-13.3h1.677A2.273,2.273,0,1,0,44.27,51.87Zm-10.9-15.848a.759.759,0,1,1,.278,1.037A.759.759,0,0,1,33.367,36.022Zm-20.492.759a.759.759,0,1,1,1.037.277A.759.759,0,0,1,12.875,36.781Zm1.314,35.492a.759.759,0,1,1-.278-1.037.759.759,0,0,1,.278,1.037Zm20.492-.759a.759.759,0,1,1-1.037-.277.759.759,0,0,1,1.037.277ZM3.286,54.906a.759.759,0,1,1,.759-.759A.759.759,0,0,1,3.286,54.906ZM32.007,66.883l-.362-.627a.759.759,0,1,0-1.314.759l.363.628a15.047,15.047,0,0,1-13.831,0l.363-.628a.759.759,0,1,0-1.314-.759l-.362.627A15.163,15.163,0,0,1,8.638,54.906h.72a.759.759,0,0,0,0-1.518h-.72a15.163,15.163,0,0,1,6.911-11.977l.362.627a.759.759,0,1,0,1.314-.759l-.363-.628a15.047,15.047,0,0,1,13.831,0l-.363.628a.759.759,0,1,0,1.314.759l.362-.627a15.163,15.163,0,0,1,6.911,11.977H38.2a.759.759,0,0,0,0,1.518h.72A15.163,15.163,0,0,1,32.007,66.883ZM44.27,54.906a.759.759,0,1,1,.759-.759A.759.759,0,0,1,44.27,54.906Z" transform="translate(-1 -33.679)" fill="#554c7d"/>
          <path id="Shape_175_" d="M191.045,199.236a3.795,3.795,0,1,0-3.795,3.795A3.795,3.795,0,0,0,191.045,199.236Zm-3.795,2.277a2.277,2.277,0,1,1,2.277-2.277A2.277,2.277,0,0,1,187.25,201.513Z" transform="translate(-169.784 -183.321)" fill="#554c7d"/>
          <path id="Shape_174_" d="M378.949,337.252a3.036,3.036,0,1,0,3.036,3.036A3.036,3.036,0,0,0,378.949,337.252Zm0,4.554a1.518,1.518,0,1,1,1.518-1.518A1.518,1.518,0,0,1,378.949,341.806Z" transform="translate(-347.822 -314.507)" fill="#554c7d"/>
          <path id="Shape_173_" d="M360.209,217.977a2.277,2.277,0,1,0-2.277,2.277A2.277,2.277,0,0,0,360.209,217.977Zm-3.036,0a.759.759,0,1,1,.759.759A.759.759,0,0,1,357.173,217.977Z" transform="translate(-329.082 -202.062)" fill="#554c7d"/>
          <path id="Shape_172_" d="M257.4,398.029a3.036,3.036,0,1,0,3.036,3.036A3.036,3.036,0,0,0,257.4,398.029Zm0,4.554a1.518,1.518,0,1,1,1.518-1.518A1.518,1.518,0,0,1,257.4,402.583Z" transform="translate(-235.377 -370.73)" fill="#554c7d"/>
          <path id="Shape_171_" d="M155.344,337.252a2.277,2.277,0,1,0,2.277,2.277A2.277,2.277,0,0,0,155.344,337.252Zm0,3.036a.759.759,0,1,1,.759-.759A.759.759,0,0,1,155.344,340.288Z" transform="translate(-141.673 -314.507)" fill="#554c7d"/>
          <path id="Shape_170_" d="M306.525,307.508a.759.759,0,1,0-1.518.016,3.08,3.08,0,0,0,.981,2.054.759.759,0,0,0,1.073-1.073A1.669,1.669,0,0,1,306.525,307.508Z" transform="translate(-282.229 -286.297)" fill="#554c7d"/>
          <path id="Shape_169_" d="M305.284,145.046a.759.759,0,0,0-.008,1.069,1.887,1.887,0,0,1,.539.987.759.759,0,0,0,1.518,0,3.333,3.333,0,0,0-.981-2.054A.759.759,0,0,0,305.284,145.046Z" transform="translate(-282.279 -136.499)" fill="#554c7d"/>
          <path id="Shape_168_" d="M428.848,256.288h-.01a.763.763,0,0,0-.759.745.7.7,0,0,1-.759.768.759.759,0,0,0,0,1.518,2.213,2.213,0,0,0,2.277-2.277.754.754,0,0,0-.749-.754Z" transform="translate(-394.676 -239.609)" fill="#554c7d"/>
        </g>
      </g>
    </g>
  </g>
</svg>
